<svg width="605" height="605" xmlns="http://www.w3.org/2000/svg" xmlns:xlink="http://www.w3.org/1999/xlink" overflow="hidden"><defs><clipPath id="clip0"><rect x="1723" y="540" width="605" height="605"/></clipPath><clipPath id="clip1"><rect x="1773" y="584" width="517" height="516"/></clipPath><clipPath id="clip2"><rect x="1773" y="584" width="517" height="516"/></clipPath><clipPath id="clip3"><path d="M2007.71 834.397C1997.84 834.397 1989.62 842.415 1989.62 852.489 1989.62 862.357 1997.64 870.581 2007.71 870.581L2204.66 870.581C2214.53 870.581 2222.75 862.563 2222.75 852.489 2222.75 842.621 2214.73 834.397 2204.66 834.397L2007.71 834.397Z" fill-rule="nonzero" clip-rule="nonzero"/></clipPath><linearGradient x1="490.018" y1="417.878" x2="616.585" y2="417.878" gradientUnits="userSpaceOnUse" spreadMethod="pad" id="fill4"><stop offset="0" stop-color="#EA1D4E" stop-opacity="1"/><stop offset="0.4567" stop-color="#EA1D4E" stop-opacity="1"/><stop offset="0.5403" stop-color="#DA1C48" stop-opacity="1"/><stop offset="1" stop-color="#821528" stop-opacity="1"/></linearGradient></defs><g clip-path="url(#clip0)" transform="translate(-1723 -540)"><path d="M1726 842C1726 676.315 1860.54 542 2026.5 542 2192.46 542 2327 676.315 2327 842 2327 1007.69 2192.46 1142 2026.5 1142 1860.54 1142 1726 1007.69 1726 842Z" fill="#FFFFFF" fill-rule="evenodd" fill-opacity="1"/><g clip-path="url(#clip1)"><g clip-path="url(#clip2)"><path d="M392.46 611.613C297.892 611.613 221.003 534.725 221.003 440.156 221.003 430.288 229.021 422.27 238.889 422.27 248.757 422.27 256.775 430.288 256.775 440.156 256.775 514.783 317.628 575.636 392.255 575.636 466.882 575.636 527.735 514.783 527.735 440.156L527.735 439.745 528.146 420.831C528.352 411.168 536.369 403.356 546.032 403.356 546.237 403.356 546.237 403.356 546.443 403.356 556.311 403.562 564.123 411.785 563.918 421.653L563.506 440.361C563.712 534.725 486.823 611.613 392.46 611.613" fill="#EA1D4E" fill-rule="nonzero" fill-opacity="1" transform="matrix(1 0 0 1.00002 1606 434.53)"/><g clip-path="url(#clip3)"><path d="M383.62 399.861 616.547 399.861 616.547 435.839 383.62 435.839Z" fill="url(#fill4)" fill-rule="nonzero" transform="matrix(1 0 0 1.00002 1606 434.53)"/></g><path d="M392.46 536.78C354.016 536.78 318.656 514.372 302.209 479.628 297.892 470.582 301.798 459.892 310.638 455.78 319.684 451.463 330.374 455.369 334.486 464.209 344.97 486.412 367.79 500.803 392.46 500.803 417.336 500.803 440.156 486.207 450.641 463.592 454.752 454.547 465.443 450.641 474.488 454.958 483.534 459.07 487.44 469.76 483.123 478.806 466.882 514.166 431.316 536.78 392.46 536.78" fill="#EA1D4E" fill-rule="nonzero" fill-opacity="1" transform="matrix(1 0 0 1.00002 1606 434.53)"/><path d="M464.415 237.655C464.415 252.457 452.285 264.587 437.483 264.587 422.681 264.587 410.552 252.457 410.552 237.655 410.552 222.853 422.681 210.724 437.483 210.724 452.285 210.724 464.415 222.853 464.415 237.655" fill="#EA1D4E" fill-rule="nonzero" fill-opacity="1" transform="matrix(1 0 0 1.00002 1606 434.53)"/><path d="M640.806 417.953C640.806 432.755 628.677 444.884 613.875 444.884 599.072 444.884 586.943 432.755 586.943 417.953 586.943 403.151 599.072 391.021 613.875 391.021 628.677 391.021 640.806 403.151 640.806 417.953" fill="#EA1D4E" fill-rule="nonzero" fill-opacity="1" transform="matrix(1 0 0 1.00002 1606 434.53)"/><path d="M266.026 417.953C266.026 432.755 253.897 444.884 239.094 444.884 224.292 444.884 212.163 432.755 212.163 417.953 212.163 403.151 224.292 391.021 239.094 391.021 253.897 391.021 266.026 403.151 266.026 417.953" fill="#EA1D4E" fill-rule="nonzero" fill-opacity="1" transform="matrix(1 0 0 1.00002 1606 434.53)"/><path d="M595.372 426.587 431.521 258.831C424.531 251.841 424.737 240.328 431.727 233.338 438.717 226.348 450.229 226.554 457.219 233.544L621.07 401.3C628.06 408.29 627.854 419.803 620.864 426.793 613.669 433.783 602.156 433.783 595.372 426.587" fill="#EA1D4E" fill-rule="nonzero" fill-opacity="1" transform="matrix(1 0 0 1.00002 1606 434.53)"/><path d="M419.392 417.953C419.392 432.755 407.262 444.884 392.46 444.884 377.658 444.884 365.529 432.755 365.529 417.953 365.529 403.151 377.658 391.021 392.46 391.021 407.262 391.021 419.392 403.151 419.392 417.953" fill="#EA1D4E" fill-rule="nonzero" fill-opacity="1" transform="matrix(1 0 0 1.00002 1606 434.53)"/></g></g></g></svg>