<svg width="200" height="200" viewBox="0 0 200 200" fill="none" xmlns="http://www.w3.org/2000/svg">
    <path d="M100 200C155.228 200 200 155.228 200 100C200 44.7715 155.228 0 100 0C44.7715 0 0 44.7715 0 100C0 155.228 44.7715 200 100 200Z" fill="url(#paint0_linear_69_62)"/>
    <path d="M100 200C155.228 200 200 155.228 200 100C200 44.7715 155.228 0 100 0C44.7715 0 0 44.7715 0 100C0 155.228 44.7715 200 100 200Z" stroke="url(#paint1_linear_69_62)"/>
    <path d="M100 200C155.228 200 200 155.228 200 100C200 44.7715 155.228 0 100 0C44.7715 0 0 44.7715 0 100C0 155.228 44.7715 200 100 200Z" stroke="url(#paint2_linear_69_62)" stroke-opacity="0.2"/>
    <path d="M49.2625 78.6747C48.962 79.6594 48.5464 81.2132 48.5464 81.2132C48.5464 81.226 48.54 81.2452 48.5336 81.258C47.4018 85.4334 46.8007 89.692 46.8007 93.925C46.8007 94.2256 46.8007 94.5197 46.8007 94.8138C46.8647 99.9932 46.2252 105.141 45.0679 110.179L44.5499 112.245C41.8963 111.209 39.1787 109.239 36.5827 105.953C29.3827 96.828 31.7806 82.1915 40.6622 78.745C44.1407 77.3958 47.0245 77.7411 49.2561 78.6683L49.2625 78.6747Z" fill="white"/>
    <path d="M163.423 105.958C160.846 109.219 158.148 111.189 155.513 112.224L155.008 110.178C153.857 105.133 153.218 99.9922 153.275 94.8128C153.275 94.5187 153.275 94.2245 153.275 93.924C153.275 89.6718 152.674 85.3941 151.529 81.2058L150.756 78.6673C152.981 77.7465 155.865 77.4076 159.337 78.7504C168.218 82.1969 170.616 96.8334 163.416 105.958H163.423Z" fill="white"/>
    <path d="M149.071 108.956C148.042 104.454 147.473 99.8696 147.524 95.2465C147.524 94.9844 147.524 94.7222 147.524 94.4536C147.524 90.6618 146.987 86.8445 145.964 83.1102L145.056 80.1433C144.5 78.5063 143.854 76.895 143.131 75.3092C142.6 74.1518 142.031 73.0137 141.411 71.8883C135.938 61.8812 127.222 53.3513 117.049 48.6579C115.553 47.9673 112.221 40.3198 112.221 40.3198L104.382 45.0259C104.069 44.9876 103.755 44.9556 103.436 44.93C102.854 44.8789 102.285 44.8405 101.696 44.8149L99.0682 38.491C89.4065 41.784 83.7028 48.2934 81.8357 49.2142C72.1675 54.0035 63.8997 62.2649 58.6373 71.8883C58.0234 73.0137 57.4479 74.1518 56.9172 75.3092C56.1883 76.895 55.5424 78.5127 54.9861 80.1497C54.8902 80.0921 54.0845 83.1166 54.0845 83.1166C54.0845 83.1294 54.0781 83.1422 54.0718 83.1614C53.0615 86.8828 52.5243 90.6874 52.5243 94.46C52.5243 94.7286 52.5243 94.9908 52.5243 95.2529C52.5819 99.876 52.0064 104.461 50.9769 108.962L50.1137 112.441C50.0753 112.607 50.037 112.767 50.005 112.933C49.4871 115.293 49.2185 117.71 49.2185 120.184C49.2185 137.097 61.6937 151.638 79.5657 158.038C83.6389 159.503 87.987 160.538 92.5397 161.082C94.8033 161.35 97.1116 161.504 99.4647 161.523C99.6437 161.523 99.8292 161.523 100.015 161.523C128.06 161.523 150.798 143.012 150.798 120.178C150.798 117.703 150.536 115.28 150.018 112.927C149.979 112.76 149.947 112.601 149.909 112.441L149.046 108.956H149.071Z" fill="white"/>
    <defs>
        <linearGradient id="paint0_linear_69_62" x1="-1591.18" y1="-416.605" x2="362.401" y2="-1096.15" gradientUnits="userSpaceOnUse">
            <stop stop-color="#1B1A1D"/>
            <stop offset="0.300869" stop-color="#3E3B7A"/>
            <stop offset="0.639638" stop-color="#6560C5"/>
            <stop offset="1" stop-color="#E07753"/>
        </linearGradient>
        <linearGradient id="paint1_linear_69_62" x1="100" y1="0" x2="100" y2="200" gradientUnits="userSpaceOnUse">
            <stop stop-color="white" stop-opacity="0.17"/>
            <stop offset="1" stop-color="white" stop-opacity="0"/>
        </linearGradient>
        <linearGradient id="paint2_linear_69_62" x1="146.291" y1="193.324" x2="71.0783" y2="9.46951" gradientUnits="userSpaceOnUse">
            <stop/>
            <stop offset="1" stop-opacity="0"/>
        </linearGradient>
    </defs>
</svg>