<svg width="500" height="500" viewBox="0 0 500 500" fill="none" xmlns="http://www.w3.org/2000/svg">
<g clip-path="url(#clip0_258:1644)">
<path d="M207.791 402.602H292.206V500.005H207.791V402.602Z" fill="#B8B5F8"/>
<path d="M207.79 0H292.206V97.4028H207.79V0Z" fill="#B8B5F8"/>
<path d="M112.252 328.062L171.943 387.753L103.069 456.627L43.3783 396.936L112.252 328.062Z" fill="#B8B5F8"/>
<path d="M396.932 43.3854L456.623 103.076L387.748 171.95L328.057 112.26L396.932 43.3854Z" fill="#B8B5F8"/>
<path d="M171.945 112.266L112.255 171.957L43.3804 103.083L103.071 43.392L171.945 112.266Z" fill="#B8B5F8"/>
<path d="M456.622 396.933L396.931 456.624L328.057 387.75L387.748 328.059L456.622 396.933Z" fill="#B8B5F8"/>
<path d="M97.4028 207.807L97.4028 292.223H0L3.72117e-06 207.807H97.4028Z" fill="#B8B5F8"/>
<path d="M500 207.797V292.212H402.597V207.797L500 207.797Z" fill="#B8B5F8"/>
</g>
<defs>
<clipPath id="clip0_258:1644">
<rect width="500" height="500" fill="white"/>
</clipPath>
</defs>
</svg>
