<svg width="282" height="282" viewBox="0 0 282 282" fill="none" xmlns="http://www.w3.org/2000/svg">
<path d="M197.626 116.857L165.123 84.3715H115.877L100.119 100.122V44.0105H83.3735V143.436V165.094L115.877 197.579H165.123L180.883 181.829V237.94H198.612V144.421L197.626 116.857ZM157.243 180.844H124.742L101.103 157.218V143.436V124.733L124.742 101.107H157.243L180.883 124.733V145.405V157.218L157.243 180.844Z" fill="white"/>
<path d="M59.7423 173.951V84.3696H42.999V181.827L100.125 238.923H157.249V222.188H108.003L59.7423 173.951Z" fill="#66DDDD"/>
<path d="M124.75 43.0249V59.76H173.996L222.256 107.996V197.578H239V100.121L181.873 43.0249H124.75Z" fill="#66DDDD"/>
</svg>
