<svg width="834" height="834" xmlns="http://www.w3.org/2000/svg" xmlns:xlink="http://www.w3.org/1999/xlink" overflow="hidden"><defs><clipPath id="clip0"><rect x="-2296" y="742" width="834" height="834"/></clipPath><clipPath id="clip1"><rect x="-2218" y="845" width="680" height="629"/></clipPath><clipPath id="clip2"><rect x="-2218" y="845" width="680" height="629"/></clipPath><clipPath id="clip3"><rect x="-2218" y="845" width="680" height="629"/></clipPath></defs><g clip-path="url(#clip0)" transform="translate(2296 -742)"><path d="M-2290.5 1161C-2290.5 933.182-2105.82 748.5-1878 748.5-1650.18 748.5-1465.5 933.182-1465.5 1161-1465.5 1388.82-1650.18 1573.5-1878 1573.5-2105.82 1573.5-2290.5 1388.82-2290.5 1161Z" stroke="#FFFFFF" stroke-width="4.58333" stroke-linecap="butt" stroke-linejoin="miter" stroke-miterlimit="8" stroke-opacity="1" fill="#FFFFFF" fill-rule="evenodd" fill-opacity="1"/><g clip-path="url(#clip1)"><g clip-path="url(#clip2)"><g clip-path="url(#clip3)"><path d="M186.047 311.285C184.599 336.441 203.964 357.978 229.12 359.426 230.025 359.426 230.93 359.426 231.835 359.426 257.172 359.426 277.623 338.975 277.442 313.638 277.442 288.301 256.991 267.85 231.654 268.031 207.403 268.031 187.314 287.034 186.047 311.285Z" fill="#0033AD" fill-rule="nonzero" fill-opacity="1" transform="matrix(1.00048 0 0 1 -2218 846.452)"/><path d="M15.5643 299.522C7.42017 298.979 0.36196 305.313 0 313.457-0.36196 321.601 5.79135 328.659 13.9354 329.021 22.0795 329.564 28.9568 323.23 29.4997 315.086 30.0427 306.942 23.7084 300.065 15.5643 299.522 15.5643 299.522 15.5643 299.522 15.5643 299.522Z" fill="#0033AD" fill-rule="nonzero" fill-opacity="1" transform="matrix(1.00048 0 0 1 -2218 846.452)"/><path d="M183.152 45.9689C190.391 42.3493 193.286 33.3003 189.667 26.0611 186.047 18.8219 176.998 15.9262 169.759 19.5458 162.52 23.1654 159.624 32.0334 163.244 39.2726 166.863 46.6928 175.731 49.7695 183.152 45.9689 182.971 45.9689 183.152 45.9689 183.152 45.9689Z" fill="#0033AD" fill-rule="nonzero" fill-opacity="1" transform="matrix(1.00048 0 0 1 -2218 846.452)"/><path d="M229.482 126.867C240.703 121.256 245.228 107.502 239.617 96.2813 234.007 85.0605 220.252 80.536 209.032 86.1464 197.811 91.7568 193.286 105.511 198.897 116.732 204.507 127.953 218.262 132.477 229.482 126.867Z" fill="#0033AD" fill-rule="nonzero" fill-opacity="1" transform="matrix(1.00048 0 0 1 -2218 846.452)"/><path d="M73.4778 182.428C82.1648 188.038 93.7476 185.685 99.5389 176.998 105.149 168.311 102.797 156.729 94.1095 150.937 85.4225 145.327 73.8398 147.68 68.0484 156.367 68.0484 156.367 68.0484 156.367 68.0484 156.367 62.2571 165.054 64.7908 176.817 73.4778 182.428Z" fill="#0033AD" fill-rule="nonzero" fill-opacity="1" transform="matrix(1.00048 0 0 1 -2218 846.452)"/><path d="M101.168 291.378C88.4991 290.654 77.8213 300.246 77.0974 312.914 76.3735 325.583 85.9654 336.261 98.634 336.984 111.303 337.708 121.98 328.116 122.704 315.448 122.704 315.448 122.704 315.448 122.704 315.448 123.428 302.96 113.836 292.101 101.168 291.378Z" fill="#0033AD" fill-rule="nonzero" fill-opacity="1" transform="matrix(1.00048 0 0 1 -2218 846.452)"/><path d="M76.0115 444.667C66.7816 449.373 62.981 460.594 67.6865 470.005 72.3919 479.235 83.6127 483.035 93.0236 478.33 102.254 473.624 106.054 462.403 101.349 452.993 101.349 452.993 101.349 452.993 101.349 452.993 96.6432 443.763 85.2415 439.962 76.0115 444.667 76.0115 444.667 76.0115 444.667 76.0115 444.667Z" fill="#0033AD" fill-rule="nonzero" fill-opacity="1" transform="matrix(1.00048 0 0 1 -2218 846.452)"/><path d="M164.692 244.142C177.179 252.286 193.829 248.847 201.793 236.36 209.937 223.872 206.498 207.222 194.01 199.259 181.523 191.115 164.873 194.553 156.91 207.041 148.765 219.348 152.204 235.998 164.692 244.142 164.692 244.142 164.692 244.142 164.692 244.142Z" fill="#0033AD" fill-rule="nonzero" fill-opacity="1" transform="matrix(1.00048 0 0 1 -2218 846.452)"/><path d="M446.115 125.057C456.612 131.934 470.91 129.039 477.787 118.542 484.664 108.045 481.768 93.7476 471.271 86.8703 460.775 79.9931 446.477 82.8888 439.6 93.3856 439.6 93.3856 439.6 93.3856 439.6 93.3856 432.542 104.063 435.438 118.18 446.115 125.057 446.115 125.057 446.115 125.057 446.115 125.057Z" fill="#0033AD" fill-rule="nonzero" fill-opacity="1" transform="matrix(1.00048 0 0 1 -2218 846.452)"/><path d="M492.808 44.521C499.685 49.0455 508.734 47.0548 513.259 40.1775 517.783 33.3003 515.793 24.2513 508.915 19.7268 502.038 15.2023 492.989 17.1931 488.465 23.8893 484.121 30.7666 486.112 39.9965 492.808 44.521 492.808 44.521 492.808 44.521 492.808 44.521Z" fill="#0033AD" fill-rule="nonzero" fill-opacity="1" transform="matrix(1.00048 0 0 1 -2218 846.452)"/><path d="M449.554 267.669C424.398 266.221 402.68 285.586 401.413 310.742 399.965 335.899 419.33 357.616 444.486 358.883 445.391 358.883 446.296 358.883 447.02 358.883 472.176 358.883 492.627 338.432 492.627 313.095 492.808 289.025 473.805 268.936 449.554 267.669L449.554 267.669Z" fill="#0033AD" fill-rule="nonzero" fill-opacity="1" transform="matrix(1.00048 0 0 1 -2218 846.452)"/><path d="M244.504 240.884C252.286 256.267 268.031 266.04 285.405 266.04 310.561 266.04 331.012 245.59 331.012 220.252 331.012 213.194 329.383 206.136 326.126 199.621 314.724 176.998 287.215 167.949 264.773 179.351 242.151 190.934 233.102 218.443 244.504 240.884L244.504 240.884Z" fill="#0033AD" fill-rule="nonzero" fill-opacity="1" transform="matrix(1.00048 0 0 1 -2218 846.452)"/><path d="M602.663 182.428C611.893 177.722 615.512 166.32 610.807 157.09 606.101 147.861 594.7 144.241 585.47 148.946 576.24 153.652 572.62 164.873 577.145 174.103 582.031 183.333 593.252 187.133 602.663 182.428 602.663 182.428 602.663 182.428 602.663 182.428Z" fill="#0033AD" fill-rule="nonzero" fill-opacity="1" transform="matrix(1.00048 0 0 1 -2218 846.452)"/><path d="M486.836 196.906C473.624 203.602 468.195 219.71 474.891 232.921 481.587 246.133 497.695 251.562 510.906 244.866 524.118 238.169 529.547 222.062 522.851 208.851 516.155 195.639 500.047 190.391 486.836 196.906Z" fill="#0033AD" fill-rule="nonzero" fill-opacity="1" transform="matrix(1.00048 0 0 1 -2218 846.452)"/><path d="M337.527 37.6438C347.843 38.1867 356.711 30.2236 357.435 19.9078 358.159 9.59193 350.015 0.723919 339.699 0 329.383-0.54294 320.515 7.23919 319.791 17.555 319.248 28.0519 327.212 36.9199 337.527 37.6438 337.527 37.6438 337.527 37.6438 337.527 37.6438Z" fill="#0033AD" fill-rule="nonzero" fill-opacity="1" transform="matrix(1.00048 0 0 1 -2218 846.452)"/><path d="M337.346 155.824C352.187 156.729 364.855 145.327 365.579 130.486 366.484 115.646 355.082 102.978 340.242 102.254 325.402 101.349 312.733 112.75 312.009 127.591 311.285 142.431 322.506 155.1 337.346 155.824 337.346 155.824 337.346 155.824 337.346 155.824Z" fill="#0033AD" fill-rule="nonzero" fill-opacity="1" transform="matrix(1.00048 0 0 1 -2218 846.452)"/><path d="M191.839 430.189C205.05 423.493 210.48 407.386 203.783 394.174 197.087 380.963 180.98 375.533 167.768 382.229 154.557 388.926 149.127 405.033 155.824 418.244 162.52 431.456 178.627 436.885 191.839 430.189Z" fill="#0033AD" fill-rule="nonzero" fill-opacity="1" transform="matrix(1.00048 0 0 1 -2218 846.452)"/><path d="M354.72 195.096C340.966 216.271 346.757 244.504 367.932 258.258 389.107 272.013 417.34 266.221 431.094 245.047 444.848 223.872 439.057 195.639 417.882 181.885 410.462 176.998 401.775 174.465 392.907 174.465 377.524 174.465 363.227 182.247 354.72 195.096Z" fill="#0033AD" fill-rule="nonzero" fill-opacity="1" transform="matrix(1.00048 0 0 1 -2218 846.452)"/><path d="M434.171 386.211C422.769 363.588 395.26 354.539 372.818 365.941 350.196 377.343 341.147 404.852 352.549 427.293 363.95 449.916 391.459 458.965 413.901 447.563 413.901 447.563 413.901 447.563 413.901 447.563 436.342 436.342 445.572 409.195 434.352 386.573 434.352 386.392 434.352 386.392 434.171 386.211Z" fill="#0033AD" fill-rule="nonzero" fill-opacity="1" transform="matrix(1.00048 0 0 1 -2218 846.452)"/><path d="M513.983 382.953C501.495 374.809 484.845 378.248 476.882 390.735 468.738 403.223 472.176 419.873 484.664 427.836 497.152 435.98 513.802 432.542 521.765 420.054 529.909 407.748 526.47 391.097 513.983 382.953 513.983 382.953 513.983 382.953 513.983 382.953Z" fill="#0033AD" fill-rule="nonzero" fill-opacity="1" transform="matrix(1.00048 0 0 1 -2218 846.452)"/><path d="M601.577 314.362C602.301 301.693 592.709 291.016 580.04 290.292 567.372 289.568 556.694 299.16 555.97 311.828 555.246 324.497 564.838 335.175 577.507 335.899 577.507 335.899 577.507 335.899 577.507 335.899 589.994 336.622 600.853 326.85 601.577 314.362Z" fill="#0033AD" fill-rule="nonzero" fill-opacity="1" transform="matrix(1.00048 0 0 1 -2218 846.452)"/><path d="M664.739 298.074C656.595 297.531 649.537 303.865 649.175 312.009 648.813 320.153 654.966 327.212 663.11 327.574 671.254 328.116 678.131 321.782 678.674 313.638 679.036 305.494 672.883 298.617 664.739 298.074Z" fill="#0033AD" fill-rule="nonzero" fill-opacity="1" transform="matrix(1.00048 0 0 1 -2218 846.452)"/><path d="M605.197 444.667C596.51 439.057 584.927 441.41 579.135 450.097 573.525 458.784 575.878 470.367 584.565 476.158 593.252 481.768 604.835 479.416 610.626 470.729 616.417 462.042 613.884 450.278 605.197 444.667 605.197 444.667 605.197 444.667 605.197 444.667Z" fill="#0033AD" fill-rule="nonzero" fill-opacity="1" transform="matrix(1.00048 0 0 1 -2218 846.452)"/><path d="M185.685 582.574C178.808 578.05 169.759 580.04 165.235 586.737 160.71 593.614 162.701 602.663 169.397 607.187 176.274 611.712 185.323 609.721 189.848 603.025 189.848 603.025 189.848 603.025 189.848 603.025 194.553 596.329 192.563 587.099 185.685 582.574Z" fill="#0033AD" fill-rule="nonzero" fill-opacity="1" transform="matrix(1.00048 0 0 1 -2218 846.452)"/><path d="M495.523 581.126C488.284 584.746 485.388 593.795 489.008 601.034 492.627 608.273 501.676 611.169 508.915 607.549 516.155 603.93 519.05 595.062 515.431 587.823 511.811 580.402 502.943 577.326 495.523 581.126 495.704 581.126 495.523 581.126 495.523 581.126Z" fill="#0033AD" fill-rule="nonzero" fill-opacity="1" transform="matrix(1.00048 0 0 1 -2218 846.452)"/><path d="M323.954 431.999C337.708 410.824 331.917 382.591 310.742 368.656 289.568 354.901 261.335 360.693 247.399 381.867 233.464 403.042 239.436 431.275 260.611 445.21 268.031 450.097 276.718 452.631 285.586 452.631 301.15 452.812 315.448 445.029 323.954 431.999Z" fill="#0033AD" fill-rule="nonzero" fill-opacity="1" transform="matrix(1.00048 0 0 1 -2218 846.452)"/><path d="M232.559 502.038C222.062 495.161 207.765 498.057 200.888 508.553 194.01 519.05 196.906 533.348 207.403 540.225 217.9 547.102 232.197 544.206 239.074 533.71 239.074 533.71 239.074 533.71 239.074 533.71 246.133 523.213 243.237 508.915 232.559 502.038Z" fill="#0033AD" fill-rule="nonzero" fill-opacity="1" transform="matrix(1.00048 0 0 1 -2218 846.452)"/><path d="M339.156 589.451C328.84 588.908 319.972 596.871 319.248 607.187 318.525 617.503 326.669 626.371 336.984 627.095 347.3 627.638 356.168 619.856 356.892 609.54 357.435 599.043 349.472 590.175 339.156 589.451 339.156 589.451 339.156 589.451 339.156 589.451Z" fill="#0033AD" fill-rule="nonzero" fill-opacity="1" transform="matrix(1.00048 0 0 1 -2218 846.452)"/><path d="M339.337 471.271C324.497 470.367 311.828 481.768 311.104 496.609 310.199 511.449 321.601 524.118 336.441 524.842 351.282 525.565 363.95 514.345 364.674 499.504 365.579 484.845 354.178 471.995 339.337 471.271 339.337 471.271 339.337 471.271 339.337 471.271Z" fill="#0033AD" fill-rule="nonzero" fill-opacity="1" transform="matrix(1.00048 0 0 1 -2218 846.452)"/><path d="M449.192 500.228C437.971 506.02 433.447 519.774 439.238 530.995 445.029 542.216 458.784 546.74 470.005 540.949 481.225 535.338 485.75 521.584 480.139 510.363 474.348 499.142 460.594 494.437 449.192 500.228 449.192 500.228 449.192 500.228 449.192 500.228Z" fill="#0033AD" fill-rule="nonzero" fill-opacity="1" transform="matrix(1.00048 0 0 1 -2218 846.452)"/></g></g></g></g></svg>