<svg width="834" height="834" xmlns="http://www.w3.org/2000/svg" xmlns:xlink="http://www.w3.org/1999/xlink" overflow="hidden"><defs><clipPath id="clip0"><rect x="-2296" y="742" width="834" height="834"/></clipPath><clipPath id="clip1"><rect x="-2167" y="872" width="545" height="544"/></clipPath><clipPath id="clip2"><rect x="-2167" y="872" width="545" height="544"/></clipPath><clipPath id="clip3"><rect x="-2167" y="872" width="545" height="544"/></clipPath></defs><g clip-path="url(#clip0)" transform="translate(2296 -742)"><path d="M-2290.5 1161C-2290.5 933.182-2105.82 748.5-1878 748.5-1650.18 748.5-1465.5 933.182-1465.5 1161-1465.5 1388.82-1650.18 1573.5-1878 1573.5-2105.82 1573.5-2290.5 1388.82-2290.5 1161Z" stroke="#FFFFFF" stroke-width="4.58333" stroke-linecap="butt" stroke-linejoin="miter" stroke-miterlimit="8" stroke-opacity="1" fill="#FFFFFF" fill-rule="evenodd" fill-opacity="1"/><g clip-path="url(#clip1)"><g clip-path="url(#clip2)"><g clip-path="url(#clip3)"><path d="M410.548 14.416 410.548 264.756C409.974 275.304 405.547 285.273 398.108 292.772 390.314 301.163 379.352 305.89 367.901 305.799 356.493 305.903 345.575 301.169 337.852 292.772 329.615 284.444 325.083 273.147 325.283 261.435L325.283 258.686C325.47 235.129 319.771 211.898 308.706 191.101 301.185 176.981 291.56 164.088 280.16 152.864 276.438 149.104 272.644 145.611 268.779 142.385 242.872 120.269 209.989 108.01 175.927 107.769L172.605 107.769C127.969 107.769 90.4519 122.524 60.0547 152.034 29.5621 181.543 14.3158 217.92 14.3158 261.163L14.3158 261.449C13.7947 302.384 30.2983 341.696 59.8829 369.991 88.7625 399.471 128.479 415.799 169.742 415.158 199.817 415.616 229.337 407.033 254.477 390.52 250.851 387.466 247.319 384.24 243.884 380.843 219.816 357.719 203.77 327.508 198.087 294.619 181.408 310.322 155.157 309.534 139.45 292.858 131.199 284.51 126.667 273.185 126.881 261.449 126.615 249.691 131.1 238.322 139.321 229.912 145.23 223.592 153.006 219.329 161.511 217.743 164.147 217.272 166.821 217.038 169.499 217.042 179.011 216.859 188.284 220.026 195.697 225.989L198.317 228.509C204.875 235.238 209.464 243.635 211.587 252.788 212.086 255.648 212.33 258.546 212.317 261.449 212.36 272.146 213.473 282.812 215.639 293.287 220.873 322.001 235.101 348.306 256.267 368.402 260.387 372.318 264.612 376.123 268.936 379.812 294.42 401.363 326.416 413.707 359.77 414.857L367.758 414.857C402.875 414.857 440.711 407.17 477.489 369.863 506.555 341.2 522.921 302.084 522.927 261.263L522.927 14.3158ZM338.11 228.537C345.844 220.697 356.446 216.358 367.458 216.526 377.291 216.383 386.845 219.799 394.357 226.146L394.357 108.943C386.392 107.685 378.341 107.053 370.278 107.053L367.458 107.053C336.529 106.901 306.24 115.864 280.375 132.822 284.933 136.601 289.295 140.609 293.445 144.833 316.634 167.442 332.24 196.687 338.11 228.537Z" fill="#5FB2F9" fill-rule="nonzero" fill-opacity="1" transform="matrix(1 0 0 1 -2167 929.263)"/></g></g></g></g></svg>