<svg xmlns="http://www.w3.org/2000/svg" viewBox="0 0 38 30" class="adshares-logo" width="75" height="75"><path class="adshares-signet" d="M28.678 1.007v17.487a3.011 3.011 0 0 1-.869 1.957 2.849 2.849 0 0 1-2.11.91 2.817 2.817 0 0 1-2.099-.91 3.039 3.039 0 0 1-.878-2.189v-.192a9.884 9.884 0 0 0-1.158-4.721 11.015 11.015 0 0 0-1.994-2.671q-.39-.394-.795-.732a10.1 10.1 0 0 0-6.486-2.418h-.232q-4.677 0-7.862 3.092Q1 13.712 1 18.243v.02a10.31 10.31 0 0 0 3.183 7.582 10.514 10.514 0 0 0 7.674 3.155 10.491 10.491 0 0 0 5.919-1.721q-.38-.32-.74-.676a10.934 10.934 0 0 1-3.199-6.023 2.898 2.898 0 0 1-4.096-.123 3.042 3.042 0 0 1-.878-2.194 3.053 3.053 0 0 1 .869-2.203 2.833 2.833 0 0 1 1.55-.85 3.148 3.148 0 0 1 .558-.049 2.833 2.833 0 0 1 1.83.625l.183.176a3.593 3.593 0 0 1 .927 1.696 3.435 3.435 0 0 1 .051.605 11.207 11.207 0 0 0 .232 2.224 9.613 9.613 0 0 0 2.838 5.247 22.17 22.17 0 0 0 .885.797 10.38 10.38 0 0 0 6.345 2.448h.558c2.453 0 5.096-.537 7.665-3.143a10.656 10.656 0 0 0 3.174-7.586V1zm-5.06 14.957a2.819 2.819 0 0 1 2.05-.839 2.847 2.847 0 0 1 1.879.672V7.61a10.774 10.774 0 0 0-1.682-.132h-.197a10.996 10.996 0 0 0-6.083 1.8 12.161 12.161 0 0 1 .913.839 10.934 10.934 0 0 1 3.12 5.847z" fill="#5fb2f9"></path></svg>