<svg width="834" height="834" xmlns="http://www.w3.org/2000/svg" xmlns:xlink="http://www.w3.org/1999/xlink" xml:space="preserve" overflow="hidden"><defs><clipPath id="clip0"><rect x="-971" y="687" width="834" height="834"/></clipPath><clipPath id="clip1"><rect x="-893" y="744" width="673" height="736"/></clipPath><clipPath id="clip2"><rect x="-893" y="744" width="673" height="736"/></clipPath><clipPath id="clip3"><rect x="-893" y="744" width="673" height="736"/></clipPath><clipPath id="clip4"><rect x="-893" y="744" width="672" height="736"/></clipPath></defs><g clip-path="url(#clip0)" transform="translate(971 -687)"><path d="M-966.5 1103C-966.5 875.183-781.818 690.5-554 690.5-326.183 690.5-141.5 875.183-141.5 1103-141.5 1330.82-326.183 1515.5-554 1515.5-781.818 1515.5-966.5 1330.82-966.5 1103Z" stroke="#FFFFFF" stroke-width="4.58333" stroke-linecap="butt" stroke-linejoin="miter" stroke-miterlimit="8" stroke-opacity="1" fill="#FFFFFF" fill-rule="evenodd" fill-opacity="1"/><g clip-path="url(#clip1)"><g clip-path="url(#clip2)"><g clip-path="url(#clip3)"><g clip-path="url(#clip4)"><path d="M380.73 18.5596 613.918 138.05C647.87 155.456 668.965 189.942 668.965 228.051L668.965 282.534 582.981 282.534 582.981 228.051C582.981 222.297 579.784 217.078 574.651 214.445L341.476 94.9611C337.108 92.7269 331.88 92.7196 327.495 94.9687L94.3076 214.445C89.1787 217.078 85.9902 222.297 85.9902 228.051L85.9902 282.534-0.00224304 282.534-0.00224304 228.051C-0.00224304 189.942 21.0925 155.456 55.0391 138.05L288.242 18.5596C317.194 3.70679 351.757 3.70679 380.73 18.5596ZM408.058 359.684C408.058 319.146 375.038 286.184 334.455 286.184 293.871 286.184 260.854 319.146 260.854 359.684 260.854 400.203 293.871 433.181 334.455 433.181 375.038 433.181 408.058 400.203 408.058 359.684ZM574.667 512.187C579.786 509.557 582.984 504.348 582.984 498.587L582.984 444.098 668.967 444.098 668.967 498.587C668.967 536.697 647.873 571.182 613.936 588.581L380.732 708.071C366.528 715.346 350.533 719.204 334.485 719.204 318.443 719.204 302.441 715.346 288.235 708.071L55.0485 588.581C21.0946 571.182-0.000164697 536.697-0.000164697 498.587L-0.000164697 444.098 85.9847 444.098 85.9847 498.587C85.9847 504.348 89.1808 509.557 94.317 512.187L291.494 613.224 291.494 513.122C224.32 494.326 174.891 432.674 174.891 359.681 174.891 271.803 246.487 200.307 334.485 200.307 422.483 200.307 494.078 271.803 494.078 359.681 494.078 432.674 444.647 494.326 377.478 513.122L377.478 613.231 574.667 512.187Z" fill="#356DF3" fill-rule="evenodd" fill-opacity="1" transform="matrix(1.00196 0 0 1 -892 745)"/></g></g></g></g></g></svg>