<svg width="1668" height="1669" xmlns="http://www.w3.org/2000/svg" xmlns:xlink="http://www.w3.org/1999/xlink" overflow="hidden"><defs><clipPath id="clip0"><rect x="1306" y="343" width="1668" height="1669"/></clipPath><clipPath id="clip1"><rect x="1435" y="470" width="1413" height="1416"/></clipPath><clipPath id="clip2"><rect x="1435" y="470" width="1413" height="1416"/></clipPath><clipPath id="clip3"><rect x="1435" y="470" width="1413" height="1416"/></clipPath></defs><g clip-path="url(#clip0)" transform="translate(-1306 -343)"><path d="M1309 1178C1309 717.947 1681.72 345 2141.5 345 2601.28 345 2974 717.947 2974 1178 2974 1638.05 2601.28 2011 2141.5 2011 1681.72 2011 1309 1638.05 1309 1178Z" fill="#FBF4E6" fill-rule="evenodd" fill-opacity="1"/><g clip-path="url(#clip1)"><g clip-path="url(#clip2)"><g clip-path="url(#clip3)"><path d="M277.458 549.304C268.037 583.703 263.198 619.195 263.067 654.86 263.067 657.346 263.067 659.805 263.067 662.252 263.603 705.427 258.265 748.275 248.675 790.273 228.801 783.221 208.313 768.921 188.819 744.219 137.375 679.169 154.54 574.725 217.89 550.154 241.858 540.878 261.902 542.841 277.576 548.924 277.524 549.068 277.511 549.173 277.458 549.304Z" fill="#A16552" fill-rule="nonzero" fill-opacity="1" transform="matrix(1 0 0 1.00071 1435 471)"/><path d="M277.458 549.304C268.037 583.703 263.198 619.195 263.067 654.86 263.067 657.346 263.067 659.805 263.067 662.252 263.603 705.427 258.265 748.275 248.675 790.273 228.801 783.221 208.313 768.921 188.819 744.219 137.375 679.169 154.54 574.725 217.89 550.154 241.858 540.878 261.902 542.841 277.576 548.924 277.524 549.068 277.511 549.173 277.458 549.304Z" fill="#F5DCB4" fill-rule="nonzero" fill-opacity="1" transform="matrix(1 0 0 1.00071 1435 471)"/><path d="M1224.23 744.219C1204.74 768.894 1184.26 783.194 1164.42 790.233 1154.77 748.236 1149.45 705.375 1150.02 662.239 1150.02 659.792 1150.02 657.333 1150.02 654.847 1149.89 619.034 1145 583.397 1135.48 548.872 1151.18 542.788 1171.19 540.826 1195.16 550.102 1258.47 574.725 1275.62 679.169 1224.23 744.219Z" fill="#A16552" fill-rule="nonzero" fill-opacity="1" transform="matrix(1 0 0 1.00071 1435 471)"/><path d="M1224.23 744.219C1204.74 768.894 1184.26 783.194 1164.42 790.233 1154.77 748.236 1149.45 705.375 1150.02 662.239 1150.02 659.792 1150.02 657.333 1150.02 654.847 1149.89 619.034 1145 583.397 1135.48 548.872 1151.18 542.788 1171.19 540.826 1195.16 550.102 1258.47 574.725 1275.62 679.169 1224.23 744.219Z" fill="#F5DCB4" fill-rule="nonzero" fill-opacity="1" transform="matrix(1 0 0 1.00071 1435 471)"/><path d="M1026.79 791.62C1008.14 820.861 1002.98 857.037 1014.18 890.059 1022.61 914.917 1030.16 942.994 1030.16 963.901 1030.16 1116.83 885.257 1240.8 706.5 1240.8 527.742 1240.8 382.831 1116.83 382.831 963.901 382.831 942.968 390.38 914.917 398.819 890.059 410.005 857.089 404.877 820.861 386.22 791.633 381.729 784.597 377.734 777.257 374.262 769.666 363.663 746.623 358.19 721.554 358.222 696.19 358.222 594.651 444.663 512.317 551.345 512.317 585.794 512.228 619.68 521.058 649.705 537.947 684.923 557.964 728.077 557.964 763.295 537.947 793.321 521.063 827.208 512.242 861.655 512.343 968.324 512.343 1054.79 594.677 1054.79 696.216 1054.84 721.571 1049.39 746.634 1038.82 769.679 1035.32 777.261 1031.3 784.592 1026.79 791.62Z" fill="#A16552" fill-rule="nonzero" fill-opacity="1" transform="matrix(1 0 0 1.00071 1435 471)"/><path d="M1026.79 791.62C1008.14 820.861 1002.98 857.037 1014.18 890.059 1022.61 914.917 1030.16 942.994 1030.16 963.901 1030.16 1116.83 885.257 1240.8 706.5 1240.8 527.742 1240.8 382.831 1116.83 382.831 963.901 382.831 942.968 390.38 914.917 398.819 890.059 410.005 857.089 404.877 820.861 386.22 791.633 381.729 784.597 377.734 777.257 374.262 769.666 363.663 746.623 358.19 721.554 358.222 696.19 358.222 594.651 444.663 512.317 551.345 512.317 585.794 512.228 619.68 521.058 649.705 537.947 684.923 557.964 728.077 557.964 763.295 537.947 793.321 521.063 827.208 512.242 861.655 512.343 968.324 512.343 1054.79 594.677 1054.79 696.216 1054.84 721.571 1049.39 746.634 1038.82 769.679 1035.32 777.261 1031.3 784.592 1026.79 791.62Z" fill="#F5DCB4" fill-rule="nonzero" fill-opacity="1" transform="matrix(1 0 0 1.00071 1435 471)"/><path d="M541.65 998.114C531.382 998.107 523.053 1006.43 523.046 1016.69 523.045 1017.5 523.098 1018.31 523.202 1019.11 534.637 1101.05 612.3 1164.42 706.5 1164.42 800.7 1164.42 878.363 1101.04 889.837 1019.1 891.152 1008.91 883.957 999.582 873.766 998.267 872.965 998.164 872.158 998.113 871.35 998.114Z" fill="#4E3F3F" fill-rule="nonzero" fill-opacity="1" transform="matrix(1 0 0 1.00071 1435 471)"/><path d="M600.028 1133.91C665.18 1174.6 747.832 1174.6 812.985 1133.91 799.64 1087.67 756.91 1098.31 706.513 1098.31 656.116 1098.31 613.386 1087.67 600.028 1133.91Z" fill="#E6646E" fill-rule="nonzero" fill-opacity="1" transform="matrix(1 0 0 1.00071 1435 471)"/><path d="M1217.02 515.967C1178.81 501.092 1148.32 508.942 1126.99 521.227 1121.76 505.869 1115.75 490.79 1108.97 476.05 1104.02 465.226 1098.67 454.58 1092.92 444.114 1034.32 336.83 935.746 247.864 822.641 210.249L820.403 149.372 747.215 193.332C744.285 192.992 741.354 192.678 738.397 192.403 732.981 191.919 727.603 191.54 722.148 191.318L711.445 145.225 708.318 131.801C704.668 131.801 701.096 131.919 697.616 132.207 629.478 137.728 595.566 199.625 590.333 210.236 477.254 247.851 378.749 336.87 320.136 444.061 314.388 454.528 309.041 465.173 304.096 475.998 297.317 490.745 291.304 505.833 286.08 521.201 285.19 520.664 284.275 520.141 283.333 519.657 262.138 508.287 232.687 501.707 196.041 515.915 115.487 547.184 93.7552 679.836 158.989 762.497 185.6 796.16 213.612 814.594 240.576 822.785 240.223 824.302 239.883 825.833 239.556 827.351 234.691 849.595 232.243 872.3 232.255 895.07 232.255 1052.99 348.697 1188.79 515.601 1248.57 554.789 1262.55 595.43 1272.07 636.753 1276.93 658.208 1279.51 679.789 1280.89 701.397 1281.07 703.098 1281.07 704.825 1281.07 706.526 1281.07 968.441 1281.07 1180.76 1108.2 1180.76 894.991 1180.77 872.221 1178.32 849.517 1173.46 827.272 1173.13 825.755 1172.79 824.224 1172.42 822.732 1199.4 814.516 1227.37 796.081 1254 762.405 1319.24 679.836 1297.5 547.158 1217.02 515.967ZM277.458 549.304C268.037 583.703 263.198 619.195 263.067 654.86 263.067 657.346 263.067 659.805 263.067 662.252 263.603 705.427 258.265 748.275 248.675 790.273 228.801 783.221 208.313 768.921 188.819 744.219 137.375 679.169 154.54 574.725 217.89 550.154 241.858 540.878 261.902 542.841 277.576 548.924 277.524 549.068 277.511 549.173 277.458 549.304ZM1038.82 769.679C1035.34 777.259 1031.34 784.59 1026.86 791.62 1008.2 820.861 1003.05 857.037 1014.25 890.059 1022.67 914.917 1030.22 942.994 1030.22 963.901 1030.22 1116.83 885.323 1240.8 706.565 1240.8 527.808 1240.8 382.831 1116.83 382.831 963.901 382.831 942.968 390.38 914.917 398.819 890.059 410.005 857.089 404.877 820.861 386.22 791.633 381.729 784.597 377.734 777.257 374.262 769.666 363.663 746.623 358.19 721.554 358.222 696.19 358.222 594.651 444.663 512.317 551.345 512.317 585.794 512.228 619.68 521.058 649.705 537.947 684.923 557.964 728.077 557.964 763.295 537.947 793.321 521.063 827.208 512.242 861.655 512.343 968.324 512.343 1054.79 594.677 1054.79 696.216 1054.84 721.571 1049.39 746.634 1038.82 769.679ZM1224.3 744.219C1204.74 768.894 1184.26 783.194 1164.42 790.233 1154.77 748.236 1149.45 705.375 1150.02 662.239 1150.02 659.792 1150.02 657.333 1150.02 654.847 1149.89 619.034 1145 583.397 1135.48 548.872 1151.18 542.788 1171.19 540.826 1195.16 550.102 1258.47 574.725 1275.62 679.169 1224.23 744.219Z" fill="#A16552" fill-rule="nonzero" fill-opacity="1" transform="matrix(1 0 0 1.00071 1435 471)"/><path d="M658.146 839.673C666.731 839.673 673.691 846.633 673.691 855.218L673.691 894.774C673.691 903.359 666.731 910.319 658.146 910.319L658.133 910.319C649.547 910.319 642.588 903.359 642.588 894.774L642.588 855.218C642.588 846.633 649.547 839.673 658.133 839.673Z" fill="#4E3F3F" fill-rule="nonzero" fill-opacity="1" transform="matrix(0.415436 -0.910132 0.909488 0.415731 1023.84 1581.7)"/><path d="M755.066 839.673C763.651 839.673 770.611 846.633 770.611 855.218L770.611 894.774C770.611 903.359 763.651 910.319 755.066 910.319L755.053 910.319C746.467 910.319 739.508 903.359 739.508 894.774L739.508 855.218C739.508 846.633 746.467 839.673 755.053 839.673Z" fill="#4E3F3F" fill-rule="nonzero" fill-opacity="1" transform="matrix(-0.415436 -0.910132 0.909488 -0.415731 1707.88 2397.48)"/><path d="M540.185 769.64C509.57 769.64 484.751 746.09 484.751 717.097L484.751 699.592C484.751 670.573 509.609 647.049 540.185 647.049 570.8 647.049 595.632 670.599 595.632 699.592L595.632 717.097C595.632 746.116 570.813 769.64 540.185 769.64Z" fill="#4E3F3F" fill-rule="nonzero" fill-opacity="1" transform="matrix(1 0 0 1.00071 1435 471)"/><path d="M540.185 647.049 540.185 708.345C540.185 722.854 552.601 734.616 567.908 734.616 583.216 734.616 595.632 722.841 595.632 708.345L595.632 699.592C595.632 670.573 570.813 647.049 540.185 647.049Z" fill="#5D5360" fill-rule="nonzero" fill-opacity="1" transform="matrix(1 0 0 1.00071 1435 471)"/><path d="M558.671 682.086C558.671 691.762 550.4 699.605 540.198 699.605 529.995 699.605 521.724 691.762 521.724 682.086 521.724 672.411 529.995 664.568 540.198 664.568 550.4 664.568 558.671 672.411 558.671 682.086Z" fill="#FFFFFF" fill-rule="nonzero" fill-opacity="1" transform="matrix(1 0 0 1.00071 1435 471)"/><path d="M872.815 769.64C842.2 769.64 817.381 746.09 817.381 717.097L817.381 699.592C817.381 670.573 842.239 647.049 872.815 647.049 903.443 647.049 928.262 670.599 928.262 699.592L928.262 717.097C928.262 746.116 903.443 769.64 872.815 769.64Z" fill="#4E3F3F" fill-rule="nonzero" fill-opacity="1" transform="matrix(1 0 0 1.00071 1435 471)"/><path d="M872.815 647.049 872.815 708.345C872.815 722.854 885.231 734.616 900.539 734.616 915.846 734.616 928.262 722.841 928.262 708.345L928.262 699.592C928.262 670.573 903.443 647.049 872.815 647.049Z" fill="#5D5360" fill-rule="nonzero" fill-opacity="1" transform="matrix(1 0 0 1.00071 1435 471)"/><path d="M891.289 682.086C891.289 691.762 883.018 699.605 872.815 699.605 862.612 699.605 854.342 691.762 854.342 682.086 854.342 672.411 862.612 664.568 872.815 664.568 883.018 664.568 891.289 672.411 891.289 682.086Z" fill="#FFFFFF" fill-rule="nonzero" fill-opacity="1" transform="matrix(1 0 0 1.00071 1435 471)"/><path d="M711.445 145.225C699.055 143.995 671.881 163.542 639.369 197.375 631.271 205.801 622.819 215.155 614.158 225.295 550.442 300.04 476.573 417.895 451.27 538.85 408.789 741.903 391.545 977.495 466.486 1108.17 530.006 1218.91 636.753 1276.95 636.753 1276.95 595.428 1272.06 554.787 1262.53 515.601 1248.53 348.736 1188.79 232.255 1052.99 232.255 895.07 232.243 872.3 234.691 849.595 239.556 827.351 239.883 825.833 240.223 824.302 240.576 822.785 213.612 814.594 185.626 796.16 158.989 762.497 93.7552 679.836 115.487 547.184 195.988 515.967 232.622 501.759 262.085 508.34 283.28 519.709 284.222 520.193 285.138 520.717 286.028 521.253 291.251 505.885 297.265 490.798 304.044 476.05 308.989 465.226 314.336 454.58 320.084 444.114 378.697 336.922 477.201 247.864 590.281 210.288 595.579 199.678 629.531 137.781 697.564 132.259 701.044 131.972 704.616 131.828 708.266 131.854Z" fill="#4E3F3F" fill-rule="nonzero" fill-opacity="0.35" transform="matrix(1 0 0 1.00071 1435 471)"/></g></g></g></g></svg>