<svg width="112" height="112" viewBox="0 0 112 112" fill="none" xmlns="http://www.w3.org/2000/svg">
<rect width="112" height="112" rx="56" fill="#161623"/>
<path d="M71.8585 69.3962L71.8583 69.397L71.8581 69.3974L71.858 69.3977L71.858 69.3979L70.9022 72.2406L73.7507 71.2992C74.4173 71.0789 75.0114 70.8572 75.5391 70.64C75.3353 71.1403 75.109 71.6713 74.8628 72.2277C73.9218 74.3555 72.7475 76.733 71.5942 78.9668C70.4423 81.1979 69.3186 83.2716 68.4823 84.7883C68.0644 85.5463 67.7188 86.1643 67.4779 86.5923C67.3575 86.8063 67.2633 86.9727 67.1994 87.0854L67.1267 87.2131L67.1084 87.2453L67.1039 87.2531L67.1029 87.255L67.1026 87.2554L68.4048 88L67.1026 87.2554L64.3375 92.0913L69.157 89.2978C81.58 82.097 88.1733 72.7797 91.6523 65.2356C93.3892 61.4693 94.348 58.15 94.8736 55.761C95.1365 54.5661 95.2914 53.6023 95.381 52.9296C95.4259 52.5932 95.4544 52.3294 95.472 52.1456C95.4808 52.0537 95.4868 51.9819 95.4908 51.9309L95.4953 51.8703L95.4965 51.852L95.4969 51.8459L95.4971 51.8436C95.4971 51.8426 95.4972 51.8418 94 51.75L95.4972 51.8418L95.7379 47.9148L92.9439 50.6848C92.3043 51.3189 91.674 51.7488 91.1157 52.0409C92.2694 45.5693 91.3749 40.1322 90.0945 36.1832C89.3748 33.9632 88.5333 32.2131 87.8654 31.0093C87.5313 30.407 87.24 29.9402 87.0279 29.6184C86.9218 29.4574 86.8355 29.3325 86.7735 29.245C86.7424 29.2012 86.7175 29.1667 86.6991 29.1416L86.6766 29.1112L86.6693 29.1013L86.6665 29.0977L86.6655 29.0963C86.665 29.0956 86.6645 29.095 85.4683 30L86.6645 29.095L86.1178 28.3723L85.2237 28.5201C77.4606 29.8028 69.5687 35.5003 63.7529 40.6591C60.8125 43.2674 58.3395 45.796 56.6016 47.6721C55.9648 48.3594 55.4259 48.9602 54.9977 49.4465C54.5696 48.9602 54.0306 48.3594 53.3939 47.6721C51.656 45.796 49.183 43.2674 46.2426 40.6591C40.4268 35.5003 32.535 29.8028 24.7718 28.5201L23.6379 28.3327L23.162 29.3787L24.5272 30C23.162 29.3787 23.1616 29.3796 23.1611 29.3806L23.1599 29.3832L23.1565 29.3908L23.1455 29.4153C23.1364 29.4358 23.1238 29.4644 23.1078 29.5012C23.0759 29.5747 23.0308 29.6804 22.9745 29.817C22.8618 30.0901 22.7042 30.4868 22.5179 30.996C22.1452 32.0139 21.6566 33.4836 21.1815 35.3158C20.2322 38.9761 19.3301 44.1076 19.5274 49.9878C19.924 61.8115 24.7725 76.558 42.2837 88.3383L47.3828 91.7686L44.4377 86.3751L44.4376 86.375L44.4375 86.3749L44.4368 86.3735L44.4324 86.3654L44.4131 86.3296C44.3956 86.2971 44.369 86.2474 44.3339 86.1814C44.2639 86.0492 44.1602 85.8514 44.0283 85.5941C43.7644 85.0794 43.3882 84.327 42.9432 83.385C42.0525 81.4994 40.8908 78.8631 39.8054 75.8599C37.7492 70.1704 36.0694 63.4341 36.7816 58.0007C37.513 58.0422 38.4195 58.234 39.4912 58.5966C41.0784 59.1336 42.8554 59.9848 44.6644 61.0019C48.2804 63.035 51.8665 65.6413 54.0528 67.4147L54.9977 68.1811L55.9427 67.4147C58.1289 65.6413 61.7151 63.0351 65.3311 61.002C67.1401 59.9849 68.9171 59.1337 70.5042 58.5968C71.5733 58.2351 72.4781 58.0433 73.2086 58.0012C73.5082 60.4522 73.2541 63.0727 72.8697 65.2319C72.6504 66.4639 72.3944 67.5152 72.194 68.2559C72.0939 68.6258 72.008 68.9169 71.9481 69.1128C71.9181 69.2107 71.8947 69.2847 71.8792 69.3328L71.8622 69.3851L71.8585 69.3962Z" fill="url(#paint0_radial_1397_2039)" stroke="white" stroke-width="3" stroke-miterlimit="6.78328"/>
<defs>
<radialGradient id="paint0_radial_1397_2039" cx="0" cy="0" r="1" gradientUnits="userSpaceOnUse" gradientTransform="translate(41.4154 35.2753) rotate(47.7302) scale(38.237 39.4684)">
<stop stop-color="#86D3FF"/>
<stop offset="1" stop-color="#00A3FF"/>
</radialGradient>
</defs>
</svg>
