<svg width="839" height="839" xmlns="http://www.w3.org/2000/svg" xmlns:xlink="http://www.w3.org/1999/xlink" overflow="hidden"><defs><clipPath id="clip0"><rect x="-2296" y="742" width="839" height="839"/></clipPath><clipPath id="clip1"><rect x="-2292" y="748" width="834" height="832"/></clipPath><clipPath id="clip2"><rect x="-2292" y="748" width="834" height="832"/></clipPath><clipPath id="clip3"><rect x="-2292" y="748" width="834" height="832"/></clipPath></defs><g clip-path="url(#clip0)" transform="translate(2296 -742)"><path d="M-2290.5 1161C-2290.5 933.182-2105.82 748.5-1878 748.5-1650.18 748.5-1465.5 933.182-1465.5 1161-1465.5 1388.82-1650.18 1573.5-1878 1573.5-2105.82 1573.5-2290.5 1388.82-2290.5 1161Z" stroke="#FFFFFF" stroke-width="4.58333" stroke-linecap="butt" stroke-linejoin="miter" stroke-miterlimit="8" stroke-opacity="1" fill="#FFFFFF" fill-rule="evenodd" fill-opacity="1"/><g clip-path="url(#clip1)"><g clip-path="url(#clip2)"><g clip-path="url(#clip3)"><path d="M566.046 593.528 566.046 593.528 490.256 462.28 490.273 462.28 637.927 462.28 752.457 660.651C802.464 591.994 832 507.442 832 416 832 186.247 645.753 0 416 0 186.247 0 0 186.247 0 416 0 507.442 29.5187 591.994 79.56 660.651L416 77.896 616.824 425.733 469.17 425.733 414.241 330.581 338.199 462.28 448.058 462.28 523.822 593.537 262.435 593.537 170.881 752.102C239.616 802.325 324.341 832 416 832 506.558 832 590.347 803.036 658.649 753.913L566.046 593.528Z" fill="#739574" fill-rule="nonzero" fill-opacity="1" transform="matrix(1 0 0 1 -2291 748)"/></g></g></g></g></svg>