<?xml version="1.0" encoding="utf-8"?>
<!-- Generator: Adobe Illustrator 25.4.1, SVG Export Plug-In . SVG Version: 6.00 Build 0)  -->
<svg version="1.1" id="Layer_1" xmlns="http://www.w3.org/2000/svg" xmlns:xlink="http://www.w3.org/1999/xlink" x="0px" y="0px"
	 viewBox="0 0 1024 1024" style="enable-background:new 0 0 1024 1024;" xml:space="preserve">
<style type="text/css">
	.Graphic_x0020_Style{fill:url(#SVGID_1_);}
	.Graphic_x0020_Style_x0020_2{fill:url(#SVGID_00000009554641843553283000000010928122993184154813_);}
	.Graphic_x0020_Style_x0020_4{fill:url(#SVGID_00000160178671032004950460000018385837993850039426_);}
	.st0{fill:url(#SVGID_00000092427178115832070440000006760094680542467500_);}
	.st1{fill:url(#SVGID_00000106850164325752681740000017805684608822058397_);}
	.st2{fill:url(#SVGID_00000088841008605318686210000013339446112253597323_);}
	.st3{fill:url(#SVGID_00000137834730994077431280000015428304788760975531_);}
</style>
<linearGradient id="SVGID_1_" gradientUnits="userSpaceOnUse" x1="0" y1="0" x2="0.4963" y2="-0.8681">
	<stop  offset="1.675978e-02" style="stop-color:#FFB700"/>
	<stop  offset="0.1621" style="stop-color:#EE9F00"/>
	<stop  offset="0.3565" style="stop-color:#DC8500"/>
	<stop  offset="0.5575" style="stop-color:#CF7300"/>
	<stop  offset="0.7673" style="stop-color:#C76800"/>
	<stop  offset="1" style="stop-color:#C56400"/>
</linearGradient>
<linearGradient id="SVGID_00000136396739694247830460000008309138115849197972_" gradientUnits="userSpaceOnUse" x1="0" y1="0" x2="0.5" y2="-0.866">
	<stop  offset="0" style="stop-color:#C56400"/>
	<stop  offset="0.2327" style="stop-color:#C76800"/>
	<stop  offset="0.4425" style="stop-color:#CF7300"/>
	<stop  offset="0.6435" style="stop-color:#DC8500"/>
	<stop  offset="0.8379" style="stop-color:#EE9F00"/>
	<stop  offset="0.9832" style="stop-color:#FFB700"/>
</linearGradient>
<linearGradient id="SVGID_00000048479828264574109570000013345403223912072835_" gradientUnits="userSpaceOnUse" x1="0" y1="0" x2="0.7071" y2="-0.7071">
	<stop  offset="0" style="stop-color:#616161"/>
	<stop  offset="0.9081" style="stop-color:#000000"/>
</linearGradient>
<g>
	
		<linearGradient id="SVGID_00000121251192996023580070000011532483713040271764_" gradientUnits="userSpaceOnUse" x1="119.5116" y1="1163.7633" x2="622.5189" y2="292.5292" gradientTransform="matrix(0.9058 0.4236 -0.4236 0.9058 484.7378 -305.0976)">
		<stop  offset="0" style="stop-color:#C56400"/>
		<stop  offset="0.2327" style="stop-color:#C76800"/>
		<stop  offset="0.4425" style="stop-color:#CF7300"/>
		<stop  offset="0.6435" style="stop-color:#DC8500"/>
		<stop  offset="0.8379" style="stop-color:#EE9F00"/>
		<stop  offset="0.9832" style="stop-color:#FFB700"/>
	</linearGradient>
	<path style="fill:url(#SVGID_00000121251192996023580070000011532483713040271764_);" d="M510.2,8.7C232.5,9.9,8.2,236,9.4,513.8
		s227.3,502,505.1,500.8s502-227.3,500.8-505.1S788,7.5,510.2,8.7z"/>
</g>
<linearGradient id="SVGID_00000107575910319192754620000005970586433306598307_" gradientUnits="userSpaceOnUse" x1="300.8133" y1="882.0746" x2="723.0342" y2="143.5143">
	<stop  offset="1.675978e-02" style="stop-color:#FFB700"/>
	<stop  offset="0.1621" style="stop-color:#EE9F00"/>
	<stop  offset="0.3565" style="stop-color:#DC8500"/>
	<stop  offset="0.5575" style="stop-color:#CF7300"/>
	<stop  offset="0.7673" style="stop-color:#C76800"/>
	<stop  offset="1" style="stop-color:#C56400"/>
</linearGradient>
<circle style="fill:url(#SVGID_00000107575910319192754620000005970586433306598307_);" cx="511.9" cy="512.8" r="425.3"/>
<linearGradient id="SVGID_00000034081512704936055190000011462709538343010751_" gradientUnits="userSpaceOnUse" x1="454.3741" y1="564.2532" x2="710.2129" y2="308.4143">
	<stop  offset="0" style="stop-color:#616161"/>
	<stop  offset="0.9081" style="stop-color:#000000"/>
</linearGradient>
<path style="fill:url(#SVGID_00000034081512704936055190000011462709538343010751_);" d="M763.7,343.1
	C713.4,275.5,646,197.2,477.4,206c-182.1,9.6-248.7,132.5-248.7,132.5c56.6-70.7,348.6-187.1,491.9,39.9
	c143.2,227-17.2,397.1-17.2,397.1C880.1,595.9,807.2,401.6,763.7,343.1z"/>
<linearGradient id="SVGID_00000174587239281786243130000017593496738372873898_" gradientUnits="userSpaceOnUse" x1="286.3701" y1="732.9333" x2="604.9745" y2="414.329">
	<stop  offset="0" style="stop-color:#616161"/>
	<stop  offset="0.9081" style="stop-color:#000000"/>
</linearGradient>
<path style="fill:url(#SVGID_00000174587239281786243130000017593496738372873898_);" d="M567.8,526.1c0,0,68.4-53.3,50.3-119.5
	c-15.4-56.2-88.6-69.8-116.6-70.1c-28-0.3-70.4-0.9-138.2-1.7c0,0-20.9-0.5-44,4.3c-23.1,4.8-4.9,10.1,21.2,11.1
	c26.1,1,29.3,10.2,29.1,30.2c-0.2,20,5.2,74.6,2.7,82c-2.5,7.4-15,7.3-26.9,8.8c-11.9,1.5-45.5,10.9-61.2,21.6
	c-15.7,10.6-36.7,11.7-54,12.5c-17.3,0.8-9.6,7.7-8.4,21.2c1.2,13.6-8.6,34.4-14.5,48.3c-5.9,13.8,6.6,11.9,15.1,12
	c8.5,0.1,8.8,0.1,19.6,0.2c10.8,0.1,14.7-12.7,20.4-29.7c5.6-17,15.2-23.4,23-23.3c7.8,0.1,12.5,4.9,12.3,16.8
	c-0.1,11.9-6.7,20.2-13.2,29.6c-6.6,9.4,5.3,11.9,10.8,6.2c5.5-5.7,19.2-22.5,24.1-34.3c4.9-11.8-11.1-29.9-11.1-29.9
	s8.7,6.5,17.7,16.8c9,10.3-1.6,21.7-13.3,35.4c-11.7,13.7-12.1,17.1-2.6,19.6c9.5,2.5,18-4.5,32.8-25c14.8-20.5,0.9-47.4,0.9-47.4
	s15-7.9,61.8-9.1c46.8-1.1,80.3,28.4,80.3,28.4c-33.3,9.7-34.7,15.1-27.4,24c6.2,7.5,25.5-5,31.5-9.1c-4.8,3.6-16.7,13.8-7.9,21.6
	c10.7,9.6,37.1-14.3,37.1-14.3c47.2,15,104.1,84.3,79.9,139.1c-24.2,54.8-68.4,48.8-109.9,48.3c-41.5-0.5-31.1-40.1-30.7-71.7
	c0.4-31.6-2.8-61.5-32.4-84.4c-29.5-23-70.2-22.6-70.2-22.6c16.9,17.4,23,39.1,22.7,59.9c-0.3,20.8-0.9,72.3-1.3,100.3
	c-0.3,28-5.8,33.3-32.1,38.4c-26.3,5.1-9.2,13.4,5.3,10.9c14.5-2.5,62.2,7.1,187-4c124.8-11.1,145.4-73.4,140.8-133.1
	C673.1,577.2,567.8,526.1,567.8,526.1z M549.8,488c-3.6,0.9-15.8-3-15.8-3s-27.1-3.6-52.7-8c-25.7-4.4-27.7-6.4-27.5-24.1
	c0.2-17.6,0.6-44,0.8-61.6c0.2-17.6-4.3-31.6,26.8-29.5c31.4,2.1,57.7,15.9,70.8,53.4S553.4,487.1,549.8,488z"/>
</svg>
