<svg width="835" height="834" xmlns="http://www.w3.org/2000/svg" xmlns:xlink="http://www.w3.org/1999/xlink" overflow="hidden"><defs><clipPath id="clip0"><rect x="-2310" y="728" width="835" height="834"/></clipPath><clipPath id="clip1"><rect x="-2261" y="781" width="729" height="729"/></clipPath><clipPath id="clip2"><rect x="-2261" y="781" width="729" height="729"/></clipPath><clipPath id="clip3"><rect x="-2261" y="781" width="729" height="729"/></clipPath><radialGradient cx="-160.022" cy="828.812" r="0.9998" gradientUnits="userSpaceOnUse" spreadMethod="pad" id="fill4" gradientTransform="matrix(2.22589e-14 363.515 359.852 -2.20346e-14 -300146 59314.7)"><stop offset="0" stop-color="#F7B450" stop-opacity="1"/><stop offset="0.3335" stop-color="#F7B450" stop-opacity="1"/><stop offset="0.6477" stop-color="#FFC977" stop-opacity="1"/><stop offset="1" stop-color="#FF9900" stop-opacity="1"/></radialGradient></defs><g clip-path="url(#clip0)" transform="translate(2310 -728)"><path d="M-2306.5 1144C-2306.5 916.183-2121.82 731.5-1894 731.5-1666.18 731.5-1481.5 916.183-1481.5 1144-1481.5 1371.82-1666.18 1556.5-1894 1556.5-2121.82 1556.5-2306.5 1371.82-2306.5 1144Z" stroke="#FFFFFF" stroke-width="4.58333" stroke-linecap="butt" stroke-linejoin="miter" stroke-miterlimit="8" stroke-opacity="1" fill="#FFFFFF" fill-rule="evenodd" fill-opacity="1"/><g clip-path="url(#clip1)"><g clip-path="url(#clip2)"><g clip-path="url(#clip3)"><path d="M-1710.21 1132.36C-1705.15 1129.83-1697.57 1134.89-1697.57 1139.94L-1687.46 1177.86C-1684.93 1182.92-1689.99 1190.5-1695.04 1190.5-1700.1 1193.03-1707.68 1187.97-1707.68 1182.92L-1717.79 1145C-1720.32 1139.94-1717.79 1132.36-1710.21 1132.36ZM-2000.9 849.25C-2003.43 844.194-2003.43 836.611-1998.38 834.083L-1965.51 811.333C-1960.46 808.806-1952.88 808.806-1950.35 813.861-1947.82 821.444-1947.82 826.5-1952.88 831.556L-1985.74 854.306C-1990.79 854.306-1998.38 854.306-2000.9 849.25Z" fill="#FFFFFF" fill-rule="nonzero" fill-opacity="1"/><path d="M-1831.54 983.222C-1869.46 975.639-1909.9 980.694-1945.29 1003.44-1894.74 985.75-1836.6 998.389-1796.15 1038.83-1740.54 1096.97-1740.54 1190.5-1796.15 1246.11-1803.74 1253.69-1811.32 1258.75-1818.9 1263.81-1798.68 1256.22-1778.46 1246.11-1763.29 1228.42-1722.85 1187.97-1712.74 1129.83-1727.9 1079.28-1770.88 1064.11-1808.79 1028.72-1831.54 983.222Z" fill="#FFAE54" fill-rule="evenodd" fill-opacity="1"/><path d="M-1591.4 1311.83-1591.4 1311.83C-1682.4 1481.19-1894.74 1544.39-2061.57 1450.86-2230.93 1359.86-2291.6 1145-2200.6 975.639-2139.93 864.417-2028.71 798.694-1909.9 793.639-1894.74 793.639-1882.1 801.222-1874.51 816.389-1866.93 831.556-1861.88 851.778-1864.4 872-1864.4 879.583-1864.4 887.167-1864.4 894.75-1864.4 930.139-1854.29 965.528-1839.13 995.861-1912.43 968.056-1995.85 998.389-2033.76 1069.17-2076.74 1147.53-2046.4 1243.58-1970.57 1286.56-1894.74 1329.53-1796.15 1299.19-1755.71 1223.36-1732.96 1180.39-1730.43 1129.83-1748.13 1086.86-1717.79 1102.03-1684.93 1109.61-1649.54 1109.61-1629.32 1109.61-1611.63 1107.08-1591.4 1102.03-1581.29 1099.5-1568.65 1099.5-1561.07 1104.56-1553.49 1109.61-1548.43 1114.67-1548.43 1122.25-1545.9 1185.44-1561.07 1251.17-1591.4 1311.83Z" stroke="#AC562A" stroke-width="27.0877" stroke-linecap="butt" stroke-linejoin="miter" stroke-miterlimit="4" stroke-opacity="1" fill="url(#fill4)" fill-rule="nonzero"/><path d="M-1682.4 1243.58-1669.76 1238.53C-1669.76 1238.53-1669.76 1238.53-1669.76 1238.53-1659.65 1263.81-1672.29 1286.56-1679.88 1304.25-1679.88 1304.25-1679.88 1304.25-1679.88 1306.78-1684.93 1316.89-1689.99 1324.47-1689.99 1332.06-1692.51 1344.69-1692.51 1357.33-1689.99 1364.92-1687.46 1372.5-1679.88 1380.08-1669.76 1382.61-1662.18 1385.14-1649.54 1382.61-1634.38 1372.5-1573.71 1301.72-1545.9 1210.72-1550.96 1124.78-1550.96 1117.19-1556.01 1109.61-1563.6 1104.56-1571.18 1099.5-1583.82 1099.5-1593.93 1102.03-1611.63 1107.08-1631.85 1109.61-1649.54 1109.61-1684.93 1109.61-1717.79 1102.03-1748.13 1084.33-1730.43 1127.31-1732.96 1175.33-1753.18 1218.31-1755.71 1225.89-1760.76 1230.94-1765.82 1238.53-1755.71 1236-1745.6 1230.94-1730.43 1220.83-1712.74 1208.19-1689.99 1220.83-1682.4 1243.58ZM-1682.4 1243.58C-1674.82 1263.81-1684.93 1281.5-1692.51 1299.19-1697.57 1309.31-1702.63 1319.42-1705.15 1329.53L-1682.4 1243.58ZM-1925.07 985.75C-1960.46 995.861-1988.26 990.806-2008.49 980.694-2028.71 968.056-2046.4 950.361-2053.99 930.139-2064.1 907.389-2066.63 884.639-2061.57 864.417-2056.51 844.194-2046.4 829.028-2031.24 821.444-1988.26 803.75-1942.76 793.639-1899.79 793.639-1887.15 793.639-1877.04 801.222-1869.46 813.861-1861.88 826.5-1859.35 844.194-1861.88 859.361-1864.4 869.472-1864.4 882.111-1864.4 894.75-1864.4 930.139-1854.29 965.528-1839.13 995.861-1866.93 983.222-1897.26 980.694-1925.07 985.75Z" stroke="#AC562A" stroke-width="27.0877" stroke-linecap="butt" stroke-linejoin="miter" stroke-miterlimit="4" stroke-opacity="1" fill="#AC562A" fill-rule="nonzero" fill-opacity="1"/><path d="M-2142.46 1064.11C-2142.46 1073.88-2150.38 1081.81-2160.15 1081.81-2169.93 1081.81-2177.85 1073.88-2177.85 1064.11-2177.85 1054.34-2169.93 1046.42-2160.15 1046.42-2150.38 1046.42-2142.46 1054.34-2142.46 1064.11Z" fill="#AC562A" fill-rule="nonzero" fill-opacity="1"/><path d="M-1879.57 1380.08C-1879.57 1389.86-1887.49 1397.78-1897.26 1397.78-1907.04 1397.78-1914.96 1389.86-1914.96 1380.08-1914.96 1370.31-1907.04 1362.39-1897.26 1362.39-1887.49 1362.39-1879.57 1370.31-1879.57 1380.08Z" fill="#AC562A" fill-rule="nonzero" fill-opacity="1"/><path d="M-1978.15 1395.25C-1978.15 1412-1991.73 1425.58-2008.49 1425.58-2025.24 1425.58-2038.82 1412-2038.82 1395.25-2038.82 1378.5-2025.24 1364.92-2008.49 1364.92-1991.73 1364.92-1978.15 1378.5-1978.15 1395.25Z" fill="#AC562A" fill-rule="nonzero" fill-opacity="1"/></g></g></g></g></svg>