<svg id="Capa_1" data-name="Capa 1" xmlns="http://www.w3.org/2000/svg" viewBox="0 0 1080 1080"><defs><style>.cls-1{fill:#faf4e6;}.cls-2{fill:#ffca28;}.cls-3{fill:#ac752c;}.cls-4{fill:#7d551f;}.cls-5{fill:#ffb300;}.cls-6{fill:#ffd54f;}.cls-7{fill:#ffd770;}.cls-8{fill:#ffea8c;}</style></defs><path class="cls-1" d="M987.78,540c0,247.29-200.49,447.78-447.78,447.78-12.91,0-25.74-.58-38.41-1.67C272.25,966.65,92.22,774.37,92.22,540,92.22,292.71,292.71,92.22,540,92.22a446.64,446.64,0,0,1,154.38,27.33C865.61,182.44,987.78,347,987.78,540Z"/><path class="cls-2" d="M502.27,596.65s3.37-47.68-57.63-100.07c-87.19-74.88-97.19-91.41-24.9-79.68s124.92,72.26,124.92,72.26"/><path class="cls-3" d="M350.05,728.45,347.82,698l-60.13,4.4a11.31,11.31,0,0,0-10.45,12.1l.58,7.93a11.3,11.3,0,0,0,12.1,10.44Z"/><path class="cls-4" d="M350.05,728.45l-1.11-15.23-71.41,5.22.29,4a11.3,11.3,0,0,0,12.1,10.44Z"/><path class="cls-5" d="M615.77,624.31c-10.66-11.47-22.42-20.39-35.73-28.61-12.73-7.85-26.49-14.08-39.92-20.64-11.85-5.78-22.63-12.39-35.55-14.92-.59.83-1.16,1.68-1.76,2.5s-1.24,1.65-1.84,2.47c-1.31,1.88-2.73,3.75-4.19,5.62-.19.23-.34.49-.53.71-.6.79-1.2,1.58-1.83,2.36s-1.35,1.65-2,2.47c-1.42,1.84-2.92,3.64-4.45,5.4q-6.75,8-14.16,15.61c-.82.87-1.65,1.69-2.47,2.51-1.31,1.35-2.66,2.7-4.05,4-1,1-1.94,1.91-2.92,2.81s-1.94,1.84-2.92,2.74c-.18.18-.45.41-.63.6-1.5,1.38-3,2.77-4.57,4.08-.38.3-.71.63-1.09.93a22.67,22.67,0,0,1-1.83,1.61l-1.88,1.58c-1.57,1.31-3.11,2.66-4.72,3.93-2.21,1.83-4.53,3.63-6.85,5.39-1.83,1.39-3.71,2.85-5.62,4.2-.37.26-.71.52-1.05.75-1.57,1.12-3.1,2.21-4.68,3.29a.83.83,0,0,1-.15.11c-2.51,1.76-5.09,3.49-7.71,5.17-5.36,3.48-10.86,6.82-16.52,10a288.36,288.36,0,0,1-31.68,15.47c-4.65,2-9.36,3.82-14.16,5.54,0,0,0,0-.07,0-2.4.86-4.83,1.72-7.27,2.55-2.13.71-4.27,1.42-6.44,2.09-2.92.9-5.84,1.73-8.76,2.55l0,0s-.82.34-2.17,1c-.38.22-.83.48-1.31.71-.23.15-.45.3-.71.45s-.49.34-.75.49a38.16,38.16,0,0,0-15,17.75c-.08.22-.19.45-.26.71a36.36,36.36,0,0,0-2,15.47,44.19,44.19,0,0,0,1.47,8.87v0s0,0,0,.07a25.65,25.65,0,0,0,2.35,6c3.52,6.59,9.52,11.28,16.52,14.61,14.16,6.66,32.58,7.9,43.67,7.94A308.58,308.58,0,0,0,620,629C618.62,627.46,617.24,625.9,615.77,624.31Z"/><path class="cls-6" d="M540.12,575.06c-11.85-5.78-22.63-12.39-35.55-14.92-.59.83-1.16,1.68-1.76,2.5s-1.24,1.65-1.84,2.47-1.24,1.65-1.87,2.48c-.75,1-1.54,2.09-2.32,3.14-.19.23-.34.49-.53.71-.6.79-1.2,1.58-1.83,2.36s-1.35,1.65-2,2.47-1.38,1.65-2.09,2.51-1.58,2-2.36,2.89c-1.38,1.64-2.81,3.23-4.23,4.84-.26.3-.52.6-.79.89-.68.75-1.35,1.53-2,2.28-1.5,1.65-3,3.29-4.58,4.9-.85.9-1.67,1.82-2.54,2.7s-1.65,1.69-2.47,2.51c-1.35,1.35-2.7,2.66-4.05,4-1,.94-1.94,1.88-2.92,2.81s-1.94,1.84-2.92,2.74c-.18.18-.45.41-.63.6-1.5,1.38-3,2.73-4.57,4.08-.38.3-.71.63-1.09.93l-1.83,1.61-1.88,1.58c-1.57,1.31-3.11,2.66-4.72,3.93-1.46,1.16-2.88,2.25-4.3,3.37-.83.67-1.69,1.35-2.55,2-1.83,1.39-3.71,2.85-5.62,4.2-.37.26-.71.52-1.05.75-1.57,1.12-3.1,2.21-4.68,3.29a.83.83,0,0,1-.15.11c-1.23.86-2.47,1.65-3.74,2.48s-2.66,1.79-4,2.69c-1.91,1.24-3.86,2.4-5.77,3.6l-3.15,1.87c-2.5,1.54-5.05,3-7.6,4.49-1.76.94-3.44,1.88-5.17,2.81-2.62,1.39-5.2,2.74-7.79,4-1.76.86-3.55,1.72-5.35,2.58-2.66,1.27-5.39,2.55-8.17,3.75-1.76.75-3.44,1.53-5.2,2.28-3.07,1.27-6.14,2.51-9.25,3.67l-3.56,1.35c-.45.19-.94.34-1.35.52,0,0,0,0-.07,0-2.4.86-4.83,1.72-7.27,2.55-2.13.71-4.3,1.42-6.44,2.09-2.92.9-5.84,1.73-8.76,2.55l0,0s-.82.34-2.17,1c-.38.22-.83.48-1.31.71-.23.15-.45.3-.71.45s-.49.34-.75.49a38.16,38.16,0,0,0-15,17.75c-.08.22-.19.45-.26.71a36.36,36.36,0,0,0-2,15.47,44.19,44.19,0,0,0,1.47,8.87h.52a309.16,309.16,0,0,0,83.1-10.75c3.67-1,7.34-2.06,11-3.18A306.79,306.79,0,0,0,568,596.65c1.34-1.86,2.61-3.78,3.9-5.67C561.52,585.25,550.73,580.24,540.12,575.06Z"/><path class="cls-7" d="M628,617.77l-60-21.12-71.72-25.21c.19-.22.34-.48.53-.71.78-1.05,1.57-2.1,2.32-3.14.63-.83,1.23-1.65,1.87-2.48s1.24-1.64,1.83-2.47c1.58-2.13,3.11-4.3,4.61-6.51,1-1.43,1.91-2.89,2.89-4.31,1.87-2.88,3.74-5.77,5.46-8.73.64-1,1.24-2,1.84-3,.19-.3.37-.59.56-.93,1-1.8,2-3.56,3.07-5.36s2.1-3.82,3.15-5.69c1.16-2.21,2.28-4.46,3.4-6.67.94-1.87,1.88-3.74,2.78-5.61s1.91-4.05,2.88-6.07c.3-.67.6-1.31.86-1.95.6-1.35,1.2-2.69,1.76-4a1.2,1.2,0,0,0,.15-.3c.82-2,1.69-3.93,2.47-6,.19-.45.41-.9.56-1.35l.45-1.12c.53-1.42,1-2.81,1.54-4.19.45-1.13.9-2.29,1.31-3.41s.86-2.29,1.27-3.45l.3-.86c.23-.71.49-1.46.71-2.17s.49-1.46.72-2.25c1.61-4.9,3.1-9.81,4.49-14.79.67-2.51,1.35-5,2-7.49.94-3.6,1.77-7.19,2.51-10.86l.27-1.12c0-.3.11-.6.15-.9.86-4.2,1.61-8.47,2.32-12.7.22-1.42.45-2.88.63-4.31s.38-2.84.6-4.3c.23-1.69.42-3.37.6-5.1.12-1,.23-2.06.34-3.1.23-1.84.37-3.71.52-5.58.19-1.69.3-3.38.42-5.06.18-3,.33-5.92.48-8.91.08-1.5.12-3,.12-4.57,0-.56,0-1.16,0-1.69a12.35,12.35,0,0,0,0-1.72c0-1.12,0-2.28.08-3.41,0-1.31,0-2.62,0-3.89,0-4.35-.19-8.65-.41-13,0-.22,0-.45,0-.67-.23-3.94-.53-7.91-.9-11.87l0-.15c-.83-16.33-7.08-54.5-4.08-81.42,1.34-12.32,4.64-22.32,11.31-26.78a13.41,13.41,0,0,1,2.62-1.46s.07,0,.07,0a21.7,21.7,0,0,1,3-.78l0,0a.21.21,0,0,1,.15,0c9.21-1.57,18.24,1.09,26.33,5.39,16.29,8.69,28.5,24.16,29.81,25.84a308.4,308.4,0,0,1-1,343.54Z"/><path class="cls-8" d="M568,596.65c54.6-75.88,74.15-175.53,44.23-271.67a308.73,308.73,0,0,0-30.15-67.26c-1.83-3-3.74-6.07-5.65-9-1.2-1.91-2.51-3.78-3.75-5.61a21.7,21.7,0,0,0-3,.78s0,0-.07,0a13.41,13.41,0,0,0-2.62,1.46c-6.67,4.46-10,14.46-11.31,26.78-3,26.92,3.25,65.09,4.08,81.42l0,.15q.56,6,.9,11.87c0,.22,0,.45,0,.67.22,4.35.37,8.65.41,13,0,.37,0,.82,0,1.2v2.69c0,1.12,0,2.29-.08,3.41a12.35,12.35,0,0,1,0,1.72c0,.53,0,1.13,0,1.69,0,1.53,0,3.07-.12,4.57-.15,3-.3,6-.48,8.91-.12,1.69-.23,3.37-.42,5.06-.15,1.87-.33,3.74-.52,5.58-.11,1-.22,2.06-.34,3.1-.18,1.73-.37,3.41-.6,5.1-.22,1.46-.41,2.88-.6,4.3s-.41,2.89-.63,4.31c-.71,4.23-1.46,8.5-2.32,12.7,0,.3-.12.6-.15.9l-.27,1.12c-.74,3.67-1.57,7.26-2.5,10.86-.64,2.51-1.32,5-2,7.49-1.39,5-2.88,9.89-4.49,14.79-.23.79-.45,1.5-.72,2.25s-.48,1.46-.71,2.17l-.3.86c-.41,1.16-.82,2.29-1.27,3.45s-.86,2.28-1.31,3.41c-.53,1.38-1,2.77-1.54,4.19l-.45,1.12c-.15.45-.37.9-.56,1.35-.78,2-1.65,4-2.47,6a1.05,1.05,0,0,1-.15.3c-.56,1.35-1.16,2.69-1.76,4-.26.64-.56,1.28-.86,1.95-1,2-1.91,4.08-2.88,6.07s-1.84,3.74-2.78,5.61c-1.12,2.21-2.24,4.46-3.4,6.67-1,1.87-2.1,3.75-3.15,5.69s-2.06,3.56-3.07,5.36c-.19.34-.37.64-.56.93-.6,1-1.2,2-1.84,3-1.72,3-3.59,5.85-5.46,8.73-1,1.42-1.91,2.88-2.89,4.31-1.5,2.21-3,4.38-4.61,6.51-.59.83-1.23,1.65-1.83,2.47s-1.24,1.65-1.87,2.48c-.75,1-1.54,2.09-2.32,3.14-.19.23-.34.49-.53.71Z"/><path class="cls-2" d="M496.24,571.45s64.5,24.2,90.14,49.83c40.36,40.37,55.86,52.77,32.41,174.37-.86,4.44-1.58,8.9-2.09,13.39-2.28,20.22-4.5,71.45,75.1-47.13,95.74-142.64-40.06-182.76-40.06-182.76C601.85,564.73,548.85,563.17,496.24,571.45Z"/></svg>