<svg width="317" height="317" xmlns="http://www.w3.org/2000/svg" xmlns:xlink="http://www.w3.org/1999/xlink" overflow="hidden"><defs><clipPath id="clip0"><rect x="481" y="201" width="317" height="317"/></clipPath><clipPath id="clip1"><rect x="482" y="202" width="316" height="316"/></clipPath><clipPath id="clip2"><rect x="482" y="202" width="316" height="316"/></clipPath><clipPath id="clip3"><rect x="482" y="202" width="316" height="316"/></clipPath></defs><g clip-path="url(#clip0)" transform="translate(-481 -201)"><g clip-path="url(#clip1)"><g clip-path="url(#clip2)"><g clip-path="url(#clip3)"><path d="M798 360.003C798 401.906 781.354 442.093 751.723 471.724 722.092 501.354 681.904 518 640 518 635.441 518 630.926 517.804 626.457 517.413 595.898 514.784 566.764 503.317 542.611 484.411 518.458 465.505 500.33 439.979 490.44 410.945 480.549 381.911 479.323 350.627 486.912 320.908 494.5 291.19 510.575 264.323 533.175 243.585 555.774 222.847 583.921 209.136 614.181 204.124 644.442 199.112 675.506 203.016 703.585 215.359 731.665 227.703 755.544 247.952 772.309 273.637 789.074 299.322 798.001 329.33 798 360.003Z" fill="#FAF4E6" fill-rule="nonzero" fill-opacity="1"/><path d="M632.729 380.181C632.729 380.181 633.925 363.367 612.431 344.895 581.679 318.485 578.149 312.677 603.635 316.805 629.121 320.932 647.683 342.291 647.683 342.291" fill="#FFCA28" fill-rule="nonzero" fill-opacity="1"/><path d="M579.061 426.654 578.283 415.907 557.071 417.463C556.018 417.541 555.039 418.033 554.35 418.833 553.661 419.633 553.317 420.673 553.394 421.726L553.564 424.489C553.642 425.542 554.134 426.522 554.933 427.213 555.732 427.905 556.773 428.251 557.826 428.176L579.061 426.654Z" fill="#AC752C" fill-rule="nonzero" fill-opacity="1"/><path d="M579.06 426.654 578.665 421.286 553.495 423.124 553.563 424.489C553.641 425.542 554.133 426.522 554.932 427.213 555.731 427.904 556.772 428.251 557.826 428.176L579.06 426.654Z" fill="#7D551F" fill-rule="nonzero" fill-opacity="1"/><path d="M672.75 389.936C669.037 386.009 664.798 382.616 660.153 379.854 655.642 377.08 650.816 374.881 646.079 372.569 641.896 370.528 638.095 368.205 633.54 367.315L632.919 368.194C632.705 368.487 632.479 368.769 632.276 369.062 631.814 369.728 631.306 370.381 630.799 371.047L630.608 371.295 629.964 372.129C629.739 372.422 629.491 372.704 629.254 372.998 628.747 373.652 628.217 374.283 627.675 374.904 626.097 376.787 624.427 378.625 622.691 380.407 622.398 380.715 622.105 381.008 621.812 381.286 621.349 381.772 620.875 382.245 620.39 382.696L619.364 383.677C619.015 384.015 618.676 384.331 618.327 384.647L618.101 384.861C617.582 385.346 617.041 385.831 616.489 386.293L616.117 386.62C615.909 386.824 615.691 387.016 615.463 387.195L614.809 387.748C614.244 388.21 613.681 388.684 613.139 389.135 612.361 389.778 611.538 390.42 610.726 391.041 609.914 391.661 609.418 392.044 608.741 392.518L608.369 392.778 606.723 393.905C605.843 394.526 604.93 395.135 604.005 395.721 602.126 396.947 600.186 398.119 598.186 399.239 594.576 401.282 590.844 403.101 587.01 404.686 585.375 405.385 583.706 406.039 582.026 406.649 581.18 406.952 580.323 407.257 579.467 407.54 578.609 407.821 577.967 408.047 577.211 408.283 576.173 408.599 575.147 408.892 574.121 409.185 573.858 409.294 573.602 409.418 573.354 409.558 573.219 409.637 573.061 409.727 572.892 409.806L572.632 409.964 572.373 410.133C570.002 411.62 568.15 413.808 567.073 416.392 567.073 416.471 567.073 416.549 566.983 416.639 566.355 418.386 566.113 420.249 566.272 422.098 566.339 423.153 566.513 424.201 566.791 425.222 566.975 425.96 567.251 426.672 567.614 427.341 568.948 429.646 570.994 431.454 573.444 432.495 578.429 434.841 584.925 435.281 588.838 435.292 605.464 435.021 621.807 430.941 636.61 423.365 651.413 415.79 664.282 404.92 674.227 391.594 673.753 391.052 673.269 390.499 672.75 389.936Z" fill="#FFB300" fill-rule="nonzero" fill-opacity="1"/><path d="M646.035 372.615C641.851 370.573 638.051 368.25 633.495 367.359L632.875 368.239C632.661 368.532 632.435 368.814 632.232 369.107 632.029 369.4 631.792 369.693 631.566 369.975 631.342 370.258 631.026 370.719 630.754 371.103L630.563 371.351 629.92 372.185C629.695 372.478 629.446 372.761 629.209 373.054 628.973 373.347 628.714 373.641 628.465 373.945L627.631 374.96C627.146 375.535 626.638 376.088 626.143 376.663 626.052 376.764 625.962 376.877 625.861 376.978L625.15 377.779C624.62 378.366 624.09 378.906 623.537 379.516L622.646 380.463C622.353 380.771 622.06 381.064 621.767 381.342 621.294 381.828 620.82 382.29 620.346 382.752L619.32 383.733C618.97 384.071 618.632 384.387 618.282 384.703L618.056 384.917C617.539 385.402 616.997 385.876 616.444 386.35L616.072 386.677 615.418 387.251 614.764 387.805C614.2 388.267 613.636 388.74 613.095 389.191L611.572 390.319 610.681 391.041C610.027 391.525 609.373 392.044 608.697 392.518L608.325 392.777 606.679 393.905C606.249 394.21 605.81 394.48 605.359 394.773L603.96 395.721C603.284 396.161 602.608 396.566 601.931 396.995L600.803 397.649C599.923 398.19 599.021 398.721 598.13 399.239L596.303 400.231 593.563 401.652 591.669 402.566C590.729 403.017 589.77 403.457 588.793 403.885L586.955 404.686C585.827 405.137 584.79 405.577 583.696 405.983L582.444 406.456C582.286 406.524 582.106 406.58 581.97 406.648 581.125 406.952 580.267 407.257 579.411 407.539L577.156 408.283C576.118 408.599 575.092 408.892 574.065 409.185 573.802 409.294 573.546 409.418 573.299 409.558 573.163 409.637 573.005 409.727 572.836 409.806L572.577 409.964 572.317 410.133C569.945 411.62 568.094 413.807 567.017 416.392 567.017 416.47 567.017 416.549 566.927 416.639 566.299 418.386 566.057 420.248 566.216 422.098 566.284 423.153 566.457 424.201 566.735 425.222L566.916 425.222C570.945 425.254 574.973 425.062 578.982 424.647 584.804 424.047 590.567 422.973 596.213 421.432 597.51 421.094 598.807 420.711 600.104 420.304 622.602 413.329 642.209 399.202 655.947 380.069 656.421 379.414 656.873 378.738 657.323 378.073 653.625 376.166 649.813 374.396 646.035 372.615Z" fill="#FFD54F" fill-rule="nonzero" fill-opacity="1"/><path d="M677.048 387.624 655.892 380.181 630.61 371.295 630.801 371.047C631.071 370.675 631.354 370.302 631.613 369.919 631.873 369.536 632.053 369.344 632.278 369.051 632.504 368.758 632.707 368.476 632.921 368.183 633.477 367.43 634.019 366.679 634.545 365.927 634.895 365.431 635.221 364.912 635.56 364.416 636.226 363.39 636.88 362.375 637.489 361.338 637.713 360.987 637.928 360.638 638.143 360.289L638.334 359.961 639.462 358.067C639.838 357.39 640.213 356.725 640.59 356.071L641.785 353.714C642.112 353.06 642.45 352.395 642.766 351.73 643.082 351.064 643.431 350.308 643.781 349.598 643.882 349.361 643.995 349.136 644.085 348.91 644.299 348.436 644.503 347.963 644.706 347.478L644.706 347.377C644.988 346.677 645.292 345.99 645.574 345.279 645.648 345.125 645.712 344.967 645.765 344.806L645.923 344.411C646.115 343.903 646.284 343.418 646.465 342.922 646.646 342.426 646.791 342.121 646.927 341.726 647.063 341.332 647.232 340.914 647.379 340.509L647.491 340.204C647.57 339.956 647.66 339.697 647.739 339.437 647.818 339.178 647.908 338.93 647.987 338.648 648.551 336.919 649.081 335.183 649.577 333.438 649.814 332.548 650.051 331.678 650.276 330.788 650.604 329.525 650.897 328.262 651.156 326.965L651.246 326.571C651.246 326.457 651.246 326.357 651.246 326.255 651.551 324.766 651.81 323.266 652.069 321.744 652.148 321.236 652.227 320.729 652.284 320.222 652.34 319.714 652.419 319.218 652.498 318.699 652.577 318.18 652.644 317.572 652.712 316.906 652.712 316.534 652.791 316.184 652.825 315.778 652.916 315.136 652.96 314.471 653.017 313.805 653.073 313.14 653.118 312.677 653.163 312.023 653.231 310.986 653.276 309.937 653.333 308.888 653.333 308.358 653.333 307.76 653.333 307.275 653.333 307.073 653.333 306.87 653.333 306.678 653.344 306.475 653.344 306.271 653.333 306.068 653.333 305.674 653.333 305.268 653.333 304.874 653.333 304.479 653.333 303.949 653.333 303.497 653.333 301.964 653.265 300.452 653.186 298.919 653.186 298.84 653.186 298.761 653.186 298.682 653.107 297.295 653.005 295.897 652.87 294.487 652.577 288.725 650.378 275.316 651.427 265.776 651.911 261.434 653.073 257.882 655.419 256.337 655.708 256.132 656.018 255.958 656.343 255.818 656.686 255.703 657.037 255.613 657.392 255.548L657.448 255.548C660.668 255.131 663.934 255.802 666.729 257.454 670.775 259.803 674.34 262.895 677.24 266.565 689.205 284.51 695.56 305.61 695.495 327.178 695.431 348.746 688.95 369.807 676.879 387.681L677.048 387.624Z" fill="#FFD770" fill-rule="nonzero" fill-opacity="1"/><path d="M655.892 380.182C668.323 362.927 675.42 342.407 676.304 321.159 677.188 299.912 671.82 278.872 660.866 260.645 660.212 259.585 659.546 258.514 658.87 257.465 658.441 256.8 657.979 256.134 657.55 255.492 657.195 255.557 656.844 255.647 656.501 255.762 656.176 255.902 655.866 256.076 655.577 256.281 653.231 257.849 652.069 261.378 651.585 265.72 650.536 275.215 652.712 288.669 653.028 294.431 653.163 295.841 653.265 297.239 653.344 298.627 653.344 298.705 653.344 298.784 653.344 298.863 653.423 300.397 653.479 301.908 653.491 303.441 653.491 303.576 653.491 303.734 653.491 303.859L653.491 304.953C653.491 305.348 653.491 305.753 653.491 306.148 653.502 306.351 653.502 306.554 653.491 306.757 653.491 306.949 653.491 307.152 653.491 307.354 653.491 307.896 653.491 308.482 653.491 308.967 653.434 310.016 653.389 311.065 653.321 312.102 653.321 312.7 653.242 313.298 653.175 313.884 653.107 314.471 653.051 315.215 652.983 315.857 652.983 316.23 652.904 316.579 652.87 316.985 652.802 317.595 652.735 318.191 652.656 318.779 652.577 319.365 652.509 319.805 652.442 320.301 652.374 320.797 652.306 321.315 652.227 321.823 651.968 323.312 651.709 324.812 651.404 326.334 651.404 326.436 651.404 326.536 651.404 326.65L651.314 327.045C651.055 328.341 650.762 329.604 650.434 330.867 650.209 331.758 649.972 332.626 649.735 333.517 649.239 335.269 648.709 337.006 648.145 338.727 648.066 339.009 647.987 339.257 647.897 339.517 647.807 339.776 647.728 340.036 647.649 340.283L647.536 340.588C647.389 340.994 647.243 341.4 647.085 341.806 646.927 342.212 646.781 342.607 646.623 343.001 646.465 343.396 646.273 343.982 646.081 344.49L645.923 344.885C645.87 345.046 645.806 345.204 645.732 345.358 645.45 346.069 645.146 346.757 644.864 347.456L644.864 347.557C644.66 348.042 644.457 348.516 644.243 348.989 644.153 349.215 644.04 349.44 643.939 349.677 643.589 350.387 643.262 351.11 642.924 351.809 642.586 352.508 642.27 353.139 641.943 353.793L640.747 356.15C640.371 356.804 639.996 357.469 639.62 358.146L638.492 360.041 638.143 360.21C637.928 360.56 637.713 360.909 637.489 361.259 636.88 362.296 636.226 363.311 635.56 364.337 635.221 364.834 634.895 365.353 634.545 365.849 634.019 366.6 633.477 367.352 632.921 368.104 632.707 368.397 632.481 368.679 632.278 368.973 632.075 369.266 631.838 369.559 631.613 369.841 631.387 370.123 631.071 370.585 630.801 370.968L630.61 371.216 655.892 380.182Z" fill="#FFEA8C" fill-rule="nonzero" fill-opacity="1"/><path d="M630.61 371.296C630.61 371.296 653.344 379.832 662.388 388.865 676.619 403.097 682.089 407.472 673.811 450.347 673.518 451.915 673.259 453.482 673.078 455.072 672.278 462.2 671.489 480.265 699.557 438.451 733.309 388.155 685.438 374.014 685.438 374.014 667.846 368.928 649.16 368.375 630.61 371.296Z" fill="#FFCA28" fill-rule="nonzero" fill-opacity="1"/></g></g></g></g></svg>