<svg width="36" height="36" viewBox="0 0 36 36" fill="none" xmlns="http://www.w3.org/2000/svg">
<path d="M36 18.0003C36 22.7741 34.1036 27.3524 30.7279 30.728C27.3523 34.1036 22.7739 36 18 36C17.4806 36 16.9663 35.9777 16.4571 35.9331C12.9757 35.6336 9.65664 34.3273 6.90505 32.1734C4.15346 30.0196 2.08828 27.1115 0.961498 23.8039C-0.165281 20.4962 -0.304935 16.9322 0.559576 13.5465C1.42409 10.1609 3.25538 7.10005 5.83001 4.73753C8.40463 2.37501 11.6113 0.812956 15.0586 0.241957C18.506 -0.329042 22.045 0.115709 25.2439 1.52194C28.4428 2.92817 31.1632 5.23508 33.0732 8.16118C34.9831 11.0873 36.0001 14.506 36 18.0003Z" fill="#FAF4E6"/>
<path d="M17.1717 20.2991C17.1717 20.2991 17.3079 18.3836 14.8592 16.2792C11.3558 13.2704 10.9537 12.6088 13.8571 13.079C16.7606 13.5492 18.8753 15.9825 18.8753 15.9825" fill="#FFCA28"/>
<path d="M11.0576 25.5935L10.9689 24.3691L8.55237 24.5464C8.43244 24.5553 8.32094 24.6114 8.2424 24.7025C8.16386 24.7936 8.12471 24.9121 8.13355 25.0321L8.15282 25.3468C8.1617 25.4668 8.2178 25.5785 8.30883 25.6572C8.39986 25.736 8.51839 25.7754 8.63845 25.7669L11.0576 25.5935Z" fill="#AC752C"/>
<path d="M11.0575 25.5935L11.0125 24.9819L8.14502 25.1913L8.15273 25.3468C8.16161 25.4668 8.21771 25.5784 8.30874 25.6572C8.39976 25.7359 8.51829 25.7754 8.63835 25.7669L11.0575 25.5935Z" fill="#7D551F"/>
<path d="M21.731 21.4104C21.308 20.9631 20.8251 20.5765 20.2959 20.2619C19.782 19.9458 19.2322 19.6953 18.6926 19.4319C18.216 19.1994 17.783 18.9347 17.264 18.8333L17.1933 18.9335C17.1689 18.9669 17.1432 18.999 17.1201 19.0324C17.0674 19.1082 17.0096 19.1827 16.9518 19.2585L16.93 19.2868L16.8567 19.3818C16.831 19.4152 16.8028 19.4473 16.7758 19.4808C16.718 19.5553 16.6576 19.6272 16.5959 19.6979C16.4161 19.9124 16.2259 20.1218 16.0281 20.3248C15.9947 20.3599 15.9613 20.3933 15.9279 20.425C15.8752 20.4803 15.8212 20.5342 15.766 20.5856L15.6491 20.6974C15.6093 20.7359 15.5707 20.7719 15.5309 20.8079L15.5052 20.8323C15.4461 20.8875 15.3844 20.9428 15.3215 20.9954L15.2791 21.0327C15.2555 21.0559 15.2306 21.0778 15.2046 21.0982L15.1301 21.1612C15.0658 21.2138 15.0016 21.2678 14.9399 21.3192C14.8513 21.3924 14.7575 21.4656 14.665 21.5363C14.5725 21.607 14.516 21.6506 14.4389 21.7046L14.3965 21.7342L14.2089 21.8626C14.1087 21.9333 14.0047 22.0027 13.8993 22.0695C13.6852 22.2091 13.4642 22.3427 13.2364 22.4703C12.8251 22.703 12.3999 22.9102 11.9632 23.0908C11.7769 23.1705 11.5868 23.245 11.3954 23.3144C11.299 23.349 11.2014 23.3837 11.1038 23.4159C11.0061 23.448 10.9329 23.4737 10.8468 23.5006C10.7286 23.5366 10.6117 23.57 10.4948 23.6034C10.4648 23.6158 10.4357 23.6299 10.4074 23.6458C10.392 23.6548 10.374 23.6651 10.3548 23.6741L10.3252 23.6921L10.2957 23.7113C10.0255 23.8808 9.81451 24.13 9.69184 24.4244C9.69184 24.4334 9.69184 24.4423 9.68157 24.4526C9.61009 24.6516 9.58248 24.8638 9.60063 25.0744C9.60827 25.1947 9.62807 25.314 9.65973 25.4303C9.68067 25.5144 9.71218 25.5956 9.75351 25.6718C9.90549 25.9343 10.1386 26.1403 10.4177 26.2589C10.9856 26.5262 11.7256 26.5763 12.1714 26.5776C14.0655 26.5467 15.9274 26.0819 17.6138 25.2188C19.3002 24.3558 20.7663 23.1175 21.8993 21.5993C21.8453 21.5376 21.7901 21.4746 21.731 21.4104Z" fill="#FFB300"/>
<path d="M18.6875 19.4371C18.2109 19.2045 17.778 18.9399 17.2589 18.8384L17.1883 18.9386C17.1639 18.972 17.1382 19.0041 17.115 19.0375C17.0919 19.0709 17.0649 19.1043 17.0392 19.1364C17.0136 19.1686 16.9776 19.2212 16.9467 19.2649L16.9249 19.2932L16.8517 19.3882C16.826 19.4216 16.7977 19.4538 16.7707 19.4872C16.7438 19.5206 16.7142 19.554 16.6859 19.5887L16.5909 19.7043C16.5356 19.7698 16.4778 19.8328 16.4213 19.8983C16.411 19.9098 16.4007 19.9227 16.3892 19.9342L16.3082 20.0255C16.2479 20.0923 16.1875 20.1539 16.1245 20.2233L16.023 20.3312C15.9896 20.3663 15.9562 20.3997 15.9228 20.4314C15.8689 20.4867 15.8149 20.5394 15.7609 20.592L15.644 20.7038C15.6042 20.7423 15.5657 20.7783 15.5258 20.8143L15.5001 20.8387C15.4411 20.8939 15.3794 20.9479 15.3164 21.0019L15.274 21.0391L15.1995 21.1046L15.125 21.1676C15.0608 21.2203 14.9965 21.2742 14.9349 21.3256L14.7614 21.4541L14.6599 21.5363C14.5854 21.5915 14.5109 21.6506 14.4338 21.7046L14.3914 21.7341L14.2039 21.8626C14.155 21.8973 14.1049 21.9281 14.0536 21.9615L13.8942 22.0695C13.8172 22.1196 13.7401 22.1658 13.663 22.2146L13.5345 22.2891C13.4343 22.3508 13.3315 22.4112 13.23 22.4703L13.0219 22.5833L12.7097 22.7452L12.4939 22.8493C12.3868 22.9007 12.2776 22.9508 12.1663 22.9996L11.9569 23.0908C11.8284 23.1422 11.7102 23.1923 11.5856 23.2386L11.443 23.2925C11.425 23.3002 11.4045 23.3066 11.389 23.3143C11.2927 23.349 11.195 23.3837 11.0974 23.4158L10.8405 23.5006C10.7223 23.5366 10.6054 23.57 10.4884 23.6034C10.4585 23.6158 10.4293 23.6299 10.4011 23.6458C10.3857 23.6548 10.3677 23.6651 10.3484 23.6741L10.3189 23.6921L10.2893 23.7113C10.0191 23.8808 9.80817 24.1299 9.68549 24.4244C9.68549 24.4333 9.68549 24.4423 9.67522 24.4526C9.60374 24.6516 9.57613 24.8637 9.59428 25.0744C9.60192 25.1947 9.62172 25.314 9.65338 25.4303H9.67393C10.133 25.434 10.5919 25.4121 11.0486 25.3648C11.7118 25.2965 12.3684 25.1741 13.0116 24.9986C13.1594 24.9601 13.3071 24.9164 13.4549 24.8701C16.018 24.0755 18.2517 22.466 19.8168 20.2863C19.8708 20.2117 19.9222 20.1347 19.9735 20.0589C19.5522 19.8417 19.1179 19.64 18.6875 19.4371Z" fill="#FFD54F"/>
<path d="M22.2207 21.147L19.8105 20.2991L16.9302 19.2868L16.952 19.2585C16.9828 19.2161 17.015 19.1737 17.0445 19.13C17.0741 19.0864 17.0946 19.0645 17.1203 19.0311C17.146 18.9977 17.1691 18.9656 17.1935 18.9322C17.2569 18.8465 17.3186 18.7609 17.3785 18.6752C17.4184 18.6187 17.4556 18.5596 17.4942 18.5031C17.57 18.3862 17.6445 18.2706 17.7139 18.1524C17.7395 18.1125 17.764 18.0727 17.7884 18.0329L17.8102 17.9956L17.9387 17.7798C17.9815 17.7027 18.0243 17.6269 18.0672 17.5524L18.2033 17.2839C18.2406 17.2094 18.2791 17.1336 18.3151 17.0578C18.3511 16.982 18.3909 16.8959 18.4307 16.815C18.4423 16.788 18.4551 16.7623 18.4654 16.7366C18.4898 16.6826 18.513 16.6287 18.5361 16.5734V16.5619C18.5682 16.4822 18.6029 16.4039 18.635 16.3229C18.6434 16.3054 18.6507 16.2874 18.6568 16.269L18.6748 16.224C18.6967 16.1662 18.7159 16.1109 18.7365 16.0544C18.7571 15.9979 18.7737 15.9632 18.7892 15.9182C18.8046 15.8733 18.8239 15.8257 18.8406 15.7795L18.8534 15.7448C18.8624 15.7165 18.8727 15.687 18.8817 15.6574C18.8907 15.6279 18.9009 15.5996 18.9099 15.5675C18.9742 15.3705 19.0345 15.1727 19.0911 14.974C19.1181 14.8725 19.145 14.7735 19.1707 14.6721C19.208 14.5282 19.2414 14.3843 19.2709 14.2365L19.2812 14.1916C19.2812 14.1787 19.2812 14.1672 19.2812 14.1556C19.3159 13.986 19.3455 13.8151 19.375 13.6417C19.384 13.5839 19.393 13.5261 19.3994 13.4683C19.4058 13.4105 19.4148 13.3539 19.4238 13.2948C19.4328 13.2357 19.4405 13.1664 19.4482 13.0906C19.4482 13.0482 19.4572 13.0083 19.4611 12.9621C19.4714 12.8889 19.4765 12.8131 19.4829 12.7373C19.4893 12.6615 19.4945 12.6088 19.4996 12.5343C19.5073 12.4161 19.5125 12.2966 19.5189 12.1771C19.5189 12.1167 19.5189 12.0486 19.5189 11.9934C19.5189 11.9703 19.5189 11.9472 19.5189 11.9253C19.5202 11.9022 19.5202 11.879 19.5189 11.8559C19.5189 11.811 19.5189 11.7647 19.5189 11.7198C19.5189 11.6748 19.5189 11.6144 19.5189 11.563C19.5189 11.3883 19.5112 11.2161 19.5022 11.0414C19.5022 11.0324 19.5022 11.0234 19.5022 11.0144C19.4932 10.8564 19.4816 10.6971 19.4662 10.5365C19.4328 9.88004 19.1823 8.3525 19.3018 7.26563C19.357 6.77101 19.4893 6.36632 19.7566 6.19032C19.7895 6.16692 19.8248 6.14711 19.8619 6.13122C19.9009 6.11808 19.9409 6.10777 19.9814 6.10039H19.9878C20.3546 6.05294 20.7267 6.12936 21.0451 6.3175C21.506 6.58519 21.9122 6.93736 22.2425 7.35556C23.6056 9.39993 24.3296 11.8037 24.3222 14.2608C24.3149 16.7179 23.5766 19.1173 22.2014 21.1535L22.2207 21.147Z" fill="#FFD770"/>
<path d="M19.8105 20.2992C21.2267 18.3335 22.0352 15.9957 22.1359 13.5751C22.2366 11.1545 21.6251 8.75759 20.3771 6.68111C20.3026 6.56035 20.2268 6.4383 20.1497 6.31882C20.1009 6.24302 20.0482 6.16722 19.9994 6.09399C19.9589 6.10138 19.9189 6.11169 19.8799 6.12483C19.8428 6.14072 19.8075 6.16053 19.7746 6.18392C19.5073 6.3625 19.375 6.76462 19.3198 7.25924C19.2003 8.34097 19.4482 9.87365 19.4842 10.5301C19.4996 10.6907 19.5112 10.85 19.5202 11.0081C19.5202 11.017 19.5202 11.026 19.5202 11.035C19.5292 11.2098 19.5356 11.3819 19.5369 11.5566C19.5369 11.572 19.5369 11.59 19.5369 11.6042V11.7288C19.5369 11.7738 19.5369 11.82 19.5369 11.865C19.5382 11.8881 19.5382 11.9112 19.5369 11.9343C19.5369 11.9562 19.5369 11.9793 19.5369 12.0024C19.5369 12.0641 19.5369 12.1309 19.5369 12.1861C19.5305 12.3056 19.5253 12.4251 19.5176 12.5433C19.5176 12.6114 19.5086 12.6795 19.5009 12.7463C19.4932 12.8131 19.4868 12.8979 19.4791 12.9711C19.4791 13.0135 19.4701 13.0533 19.4662 13.0996C19.4585 13.169 19.4508 13.237 19.4418 13.3039C19.4328 13.3707 19.4251 13.4208 19.4174 13.4773C19.4097 13.5338 19.402 13.5929 19.393 13.6507C19.3634 13.8203 19.3339 13.9912 19.2992 14.1646C19.2992 14.1762 19.2992 14.1877 19.2992 14.2006L19.2889 14.2456C19.2594 14.3933 19.226 14.5372 19.1887 14.6811C19.163 14.7826 19.136 14.8815 19.1091 14.983C19.0525 15.1825 18.9922 15.3804 18.9279 15.5765C18.9189 15.6086 18.9099 15.6369 18.8997 15.6665C18.8894 15.696 18.8804 15.7256 18.8714 15.7538L18.8585 15.7885C18.8418 15.8348 18.8251 15.881 18.8072 15.9273C18.7892 15.9735 18.7725 16.0185 18.7545 16.0634C18.7365 16.1084 18.7147 16.1752 18.6928 16.233L18.6748 16.278C18.6687 16.2964 18.6614 16.3144 18.653 16.3319C18.6209 16.4129 18.5862 16.4913 18.5541 16.5709V16.5825C18.5309 16.6377 18.5078 16.6917 18.4834 16.7456C18.4731 16.7713 18.4603 16.797 18.4487 16.824C18.4089 16.9049 18.3716 16.9872 18.3331 17.0668C18.2946 17.1465 18.2586 17.2184 18.2213 17.2929L18.0851 17.5614C18.0423 17.6359 17.9995 17.7117 17.9567 17.7888L17.8282 18.0047L17.7884 18.0239C17.764 18.0638 17.7395 18.1036 17.7139 18.1434C17.6445 18.2616 17.57 18.3772 17.4942 18.4941C17.4556 18.5507 17.4184 18.6098 17.3785 18.6663C17.3186 18.7519 17.2569 18.8376 17.1935 18.9232C17.1691 18.9566 17.1434 18.9888 17.1203 19.0222C17.0972 19.0556 17.0702 19.089 17.0445 19.1211C17.0188 19.1532 16.9828 19.2059 16.952 19.2495L16.9302 19.2778L19.8105 20.2992Z" fill="#FFEA8C"/>
<path d="M16.9302 19.2869C16.9302 19.2869 19.5202 20.2594 20.5505 21.2884C22.1718 22.9098 22.7949 23.4082 21.8519 28.2927C21.8185 28.4713 21.789 28.6499 21.7684 28.831C21.6772 29.643 21.5873 31.7011 24.785 26.9374C28.6301 21.2075 23.1765 19.5965 23.1765 19.5965C21.1723 19.0171 19.0435 18.9541 16.9302 19.2869Z" fill="#FFCA28"/>
</svg>
