<svg width="834" height="834" xmlns="http://www.w3.org/2000/svg" xmlns:xlink="http://www.w3.org/1999/xlink" overflow="hidden"><defs><clipPath id="clip0"><rect x="-2296" y="742" width="834" height="834"/></clipPath><clipPath id="clip1"><rect x="-2204" y="781" width="648" height="646"/></clipPath><clipPath id="clip2"><rect x="-2204" y="781" width="648" height="646"/></clipPath><clipPath id="clip3"><rect x="-2204" y="781" width="648" height="646"/></clipPath></defs><g clip-path="url(#clip0)" transform="translate(2296 -742)"><path d="M-2290.5 1161C-2290.5 933.182-2105.82 748.5-1878 748.5-1650.18 748.5-1465.5 933.182-1465.5 1161-1465.5 1388.82-1650.18 1573.5-1878 1573.5-2105.82 1573.5-2290.5 1388.82-2290.5 1161Z" stroke="#FFFFFF" stroke-width="4.58333" stroke-linecap="butt" stroke-linejoin="miter" stroke-miterlimit="8" stroke-opacity="1" fill="#FFFFFF" fill-rule="evenodd" fill-opacity="1"/><g clip-path="url(#clip1)"><g clip-path="url(#clip2)"><g clip-path="url(#clip3)"><path d="M646 554.475 324.547 370.41 0 555.237 646 554.475Z" fill="#662D91" fill-rule="nonzero" fill-opacity="1" transform="matrix(1.00155 0 0 1 -2203 826.381)"/><path d="M324.65 0 324.547 370.41 646 554.475 324.65 0Z" fill="#9E1F63" fill-rule="nonzero" fill-opacity="1" transform="matrix(1.00155 0 0 1 -2203 826.381)"/><path d="M0 555.237 324.547 370.41 324.65 0 0 555.237Z" fill="#FF5000" fill-rule="nonzero" fill-opacity="1" transform="matrix(1.00155 0 0 1 -2203 826.381)"/><path d="M323.888 224.701 191.184 446.36 457.187 446.36 323.888 224.701Z" stroke="#FF5000" stroke-width="8.075" stroke-linecap="butt" stroke-linejoin="miter" stroke-miterlimit="10" stroke-opacity="1" fill="#FFFFFF" fill-rule="nonzero" fill-opacity="1" transform="matrix(1.00155 0 0 1 -2203 826.381)"/></g></g></g></g></svg>