<?xml version="1.0" encoding="utf-8"?>
<!-- Generator: Adobe Illustrator 19.0.0, SVG Export Plug-In . SVG Version: 6.00 Build 0)  -->
<svg version="1.0" id="Layer_1" xmlns="http://www.w3.org/2000/svg" xmlns:xlink="http://www.w3.org/1999/xlink" x="0px" y="0px"
	 viewBox="0 0 612 792" xml:space="preserve">
<g id="XMLID_2_">
	<g id="XMLID_6_">
		<path id="XMLID_100_" fill="#AB3624" d="M523,396.9c1.9,120.8-99.7,228.7-232.1,224.3c-112.7-3.8-219.8-99.1-215-234.1
			c4-112,98.8-219.6,234.3-214.1C424.8,177.6,523.8,273.6,523,396.9z"/>
		<path id="XMLID_99_" fill="#EBA85A" d="M91,396.9c-2.2-111.7,93.7-213.4,216.7-209.2c104,3.6,205.4,93.1,200.5,219.2
			c-4,102.6-92.3,204.7-219.2,199.2C183.6,601.6,89.7,511.7,91,396.9z"/>
		<path id="XMLID_98_" fill="#542C10" d="M415.1,291.8c4.7,7.7,8.2,15.9,7.9,25.2c1.5,6,0.1,11.9-1.1,17.7
			c-4.2,20.1-10.5,39.5-19.7,57.9c-2.5,3.3-4.1,7.1-6,10.7c-0.9,1.7-1.7,3.4-2.6,5c-2.4,3-4.6,6-6.4,9.4
			c-5.9,11.1-14.7,19.9-23.4,28.8c-14.7,16.3-30.9,31-50.1,42.1c-1.9,1.3-4.2,1.6-5.9,3.2c-1.1,1.2-2.4,2.1-4,2.5
			c-8.5,3.8-16.6,8.2-25.3,11.5c-6.2,2.3-12.3,4.9-18.8,6.1c-8,3.6-16.3,5.7-25.1,6.2c-7.5,0.4-14.9,3-22.6,2.2
			c-8.5,0.1-15.4-3.8-22.1-8.4c-1.8-1.9-3.7-3.8-5.6-5.7c-5.5-5.7-5.5-5.7-12.8-2.5c-1.7,0.6-3.5,0.9-4.9,2.1
			c-1.5,1.2-2.8,2.6-4.6,3.4c-2.6,1.3-5.2,2.5-8.2,1.5c-2.6-1.5-3.7-3.9-4.1-6.7c-1.8-8.3-4.8-16.5-4-25.2c-0.1-4.1,0.4-8.1,1.2-12
			c0.2-1,0.6-1.9,1.2-2.8c1-1.2,1.8-2.6,2.1-4.2c0.4-1.1,0.8-2.1,2-2.6c0.2-0.1,0.4-0.1,0.7-0.1c3.5,1.2,6.8,2.8,9.8,5
			c3.2,1.7,6.1,4,9.6,5.1c2.9,1.5,3.9-0.4,4.7-2.6c2.9-8.5,8.4-14.9,15.4-20.3c3.8-3.9,8.9-5.5,13.6-7.9c3.5-1,7.2-1.5,10.8-2
			c9.3-0.3,17.8-3.9,26.4-6.8c6.4-2.2,13.1-3.7,18.6-8.1c7.8-3.7,15.6-7.3,21.5-13.9c2.2-2.7,5.8-3.6,8.2-6.1
			c3.4-3.3,6.9-6.6,10.1-10.2c1.8-4.2,5.6-6.7,8.3-10.1c9.9-12.1,17.1-25.6,22.4-40.2c2.6-7.2,4.2-14.6,5.7-22.1
			c1.1-5.7,2.6-11.3,5.1-16.6c3.9-7.4,9.6-13.2,16.4-17.9c2.2-2,4.2-3.7,7.7-3.7c4.8,0,6-2.7,3.8-6.8c-1.7-3.2-2-7-4.3-10
			c-1.2-1.4-2.2-2.9-3.3-4.4c-0.7-0.9-1.6-1.8-1.8-3c0-1.3,0.7-2.8,1.7-2.7c5.7,0.6,8.9-5.3,14.9-4.8c5.8,0.5,11.6,0.6,17.3,1.3
			c4.5,0.6,8.3,3,12.6,3.9c0.4,0.3,0.8,0.6,1.3,0.7c6.7,2.7,6.7,2.7,4.6,8.9c-0.3,5.3-4.3,8.8-6.2,13.4c-1.6,3.9-2,6.7,1.9,9.3
			C412.1,286.2,413.7,289,415.1,291.8z"/>
		<path id="XMLID_97_" fill="#CE934F" d="M407.9,252.1c-4.7,0.3-8.8-2.2-13.4-2.9c-6.5-1-12.9-1.6-19.3-0.8
			c-2.4,0.3-6.1-0.2-7.1,3.8c-0.5,2-1.3-0.1-2-0.1c-1.8,0-4.4-0.7-3.7,2.8c-5.1,0.9-6.7,2.7-7.1,7.8c-0.1,1.2-0.1,2.3,0,3.5
			c0.8,9-2.5,16.2-9.3,22.1c-8.6,7.3-14.7,16.2-17.9,27.1c-1.6,5.6-2.9,11.3-4.5,16.9c-6.5,23-17.7,43.4-34.3,60.7
			c-18.2,19-40,32.4-65,40.4c-2.7,0.9-5.6,0.7-8.1,1.8c-3.1,1.6-6.6,1.1-9.9,1.9c-12.7,2.3-23.4,8.1-31.9,17.8
			c-2.2,2.5-4.6,4.8-7.4,6.7c-1.5,1-2.8,2.5-4.9,1.4c-3.1-2-6.6-3.2-9.2-5.9c6.2-0.8,11.9-2.5,16.2-7.6
			c10.3-12.2,23.9-17.7,39.2-20.7c21.9-4.3,42.4-12.6,59.9-26.7c25.6-20.5,42.7-46.7,49.7-78.9c3.5-16,10.2-29.6,22.7-40.5
			c5.5-4.8,7.6-11,5.8-18.4c-1.8-7.4,5-17.3,13.7-20.3c10.2-3.4,20.6-2.7,31-0.7C397.5,244.7,403.1,247.7,407.9,252.1z"/>
		<path id="XMLID_96_" fill="#D09550" d="M152.1,457.3c-0.4,0.9-0.8,1.8-1.3,2.7c-1.2,1.2-2.7,1.3-4.2,1.3
			c-6.8,0.1-10.7,4.3-12.9,10.1c-4.7,12.7-3.2,25.3,2.3,37.4c2.6,5.7,7.4,9.3,14.3,9c3.5-0.2,7,0,10.4-0.7c7-1.4,12.6,2.1,18.3,5.3
			c4.5,2.5,9,4.9,14,6.4c12.6,3.7,25.1,1.9,37.5-0.6c38.1-7.7,72.4-23.6,102.4-48.3c21.5-17.6,40.4-37.7,54.6-61.8
			c2-3.3,3.7-6.7,5.1-10.3c0.3-1.9,1.4-3.3,2.4-4.8c3-2.8,3.7-6.9,5.6-10.2c4.9-12,10.7-23.7,14-36.3c2.8-10.4,5.8-20.9,7.1-31.7
			c0.3-2.6,0.6-5.2,1-7.8c3.8,7.1,2.1,14.6,0.8,21.8c-6.1,34-19.4,65.2-39.1,93.4c-12.7,18.3-27.9,34.3-45,48.8
			c-24.5,20.7-52,35.6-82.2,45.5c-15.7,5.2-31.9,8.9-48.6,9.4c-11.4,0.3-22.1-2.4-31.6-8.9c-7.2-5-14.9-5.6-23.2-4
			c-9.1,1.8-17.1-1.1-21.2-9c-8-15.7-10.1-32.2-2.4-48.8c3-6.6,8.9-9.7,16-10.3C148.7,454.8,150.8,455.2,152.1,457.3z"/>
		<path id="XMLID_95_" fill="#D29753" d="M415.1,291.8c-2.6-2.7-4.8-6-8.2-8c-3.1-1.8-2.7-3.8-1.6-6.5c2.3-5.5,5.3-10.6,8.5-15.6
			c1.8,3.3,1.7,6.8,0.6,10.1C412.2,278.7,413.5,285.2,415.1,291.8z"/>
		<path id="XMLID_94_" fill="#E16C39" d="M403,289c2.8,1.9,4.9,4.5,7,7.1c1.3,2.6,1.6,5.4,0.9,8.2c-3.5,14-6.2,28.2-10.9,42
			c-8.4,25-19.7,48.6-35.3,70.1c-5.9,8.1-12.3,15.7-18.5,23.5c-5.3,6.6-12.5,11-18.6,16.6c-0.9,0.9-2.3,1.8-3.5,0.5
			c-1-1.2-0.1-2.6,0.7-3.6c3-3.6,5.7-7.4,9-10.7c2-1.4,3.6-3.3,5.1-5.4c-1.7,1.6-3.1,3.4-4.8,4.9c-11,10.2-23.1,18.8-36.3,26.1
			c-10.8,6-22.2,10.6-33.3,15.8c-8.2,3.8-17.1,5.4-25.7,7.9c-11.5,3.3-23.2,5.7-35,7.8c-5.5,0.9-11.1,1.9-16.7,0.4
			c-2.7-3.1-4.7-6.6-4.8-10.9c-0.3-16.8,7.1-29.7,20.8-39c4.5-3,5.7-2.6,9.2,1.5c6.1,7.2,11.3,15.3,20,19.9c1.6,0.9,3.1,1.9,4.9,2.3
			c1.3-1.4,0.1-2.5-0.6-3.5c-5.5-8.3-8.1-17.5-9.2-27.3c5.8-3.3,12.8-3.3,18.7-6.2c8-4,14.5-2.4,20.9,3.6c4,3.8,9,6.6,14.4,8.4
			c3.1-1.1,0.7-2.6,0.2-3.7c-2.6-6.4-7.3-11.7-9.6-18.3c-0.4-1.2-1.5-2.3-0.1-3.5c5.7-0.6,10.3-4,14.2-7.5c5.9-5.2,10.9-7,17.9-1.8
			c4.3,3.2,9.7,5,15.2,5.7c1.5-0.3,3-0.5,5.1-0.9c-5.9-6.4-12.3-12-17.1-18.9c2.6-5.7,7.4-9.7,11.1-14.5c2.4-3.2,5.1-6.1,7.3-9.4
			c2.7-4.1,3.5-4.1,7.4-1.3c5.2,3.6,10.3,7.3,17,7.3c3.8-2.2,0.1-3.2-0.8-4c-6-5.2-11.4-10.9-15.3-18c-0.9-1.4,0-2.5,0.7-3.7
			c3.8-6.3,6.2-13.2,8.9-20c1.3-3.3,3.1-3.3,5.8-2c4.8,2.3,9.6,4.6,15.1,4.6c1.4-0.2,2.8-0.4,5.5-0.7c-8.3-5.5-16.5-9.5-21.7-17.3
			c0.9-14,9.3-23.1,20-30.7c3.6-2.5,7.4-4.7,10.9-7.5c5-0.2,9.9,0.1,14.8,1.3c1,8.5-0.9,16.9-2.4,25.1c-2.1,10.9-5,21.6-8.9,32.1
			c-5.1,13.5-10.9,26.7-15.3,33.4c4.9-7.7,11.6-21.6,17.4-36c6.1-14.9,11.1-30.3,14.4-46.1C399.5,290.8,399.5,287.8,403,289z"/>
		<path id="XMLID_93_" fill="#A93624" d="M335,443c-3.6,4.4-7.2,8.8-10.7,13.1c9-6.2,17.4-12.7,24.4-21c13.2-15.9,25-32.6,34.4-51
			c8.8-17.1,15.7-35.1,20.4-53.6c2.9-11.3,6.7-22.5,6.6-34.4c5.8,6.9,6.8,15.2,6.2,23.8c-0.7,11.3-3.5,22.2-6.6,32.9
			c-2.8,9.8-6.1,19.5-10.7,28.7c-4.9,9.8-9.8,19.5-15.6,28.9c-14.2,23.1-33,42-54.1,58.6c-9.8,7.7-20.7,14.1-31.8,20
			c-10.7,5.7-21.7,10.5-33.1,14.2c-11.9,3.8-23.9,7.1-36.5,8.7c-8.5,1.1-16.6,2.4-24.8-0.8c-6.2-2.4-12.2-5.2-16-11.1
			c13.6-0.5,26.8-3.5,40.1-6.2c8.2-1.7,16.1-4.7,24.2-6.8c11.6-3,22.3-8.2,32.9-13.3c10.9-5.2,21.8-10.6,31.4-18.5
			c6-4.9,12.8-8.9,18.4-14.3C335.7,441,335.7,441.8,335,443z"/>
		<path id="XMLID_92_" fill="#CE934F" d="M392.9,407.8c0.4,6.4-4,10.8-7,15.6c-12.6,20.2-28.9,37.1-46.6,52.9
			c-23.1,20.6-49.6,35-78.6,45.1c-17.2,6-34.9,10.6-53.4,10.6c-10.3,0-19.5-3-28.3-8.3c-6.4-3.9-12.8-6.4-21.1-5.2
			c-12.9,1.9-20.6,0.7-25.6-16c-1-3.2-1.8-6.4-2.2-9.7c-0.9-8.2-0.6-16.4,3-24c3.5-7.2,9.7-10.1,17.7-9c0.2,1.7,0.2,3.4-1.9,4
			c-8,0.1-12.3,4.9-13.7,12.1c-2,10.3-2,20.5,2.8,30.2c2.8,5.7,7.1,9.1,13.9,8.4c3.3-0.3,6.6,0,9.9-0.7c3-0.7,6,0.3,8.8,1.2
			c2.1,0.7,4.1,1.6,5.9,2.8c15.3,10.8,32.3,11.5,49.8,8.2c41.3-7.7,78.2-24.8,110.1-52.4c9.7-8.4,19.1-17.1,26.5-27.6
			c2.7-4.2,6.6-7.4,9.9-11c6.9-7.5,11.7-16.2,17.3-24.5C390.9,409.6,392,408.8,392.9,407.8z"/>
		<path id="XMLID_91_" fill="#B48045" d="M216.1,435.2c3.5-3.5,8.5-3.2,12.7-4.8c15.7-5.8,30.5-13,43.5-23.6
			c24.1-19.6,41.3-43.8,49.7-73.9c3.3-11.8,5.2-24.1,12.6-34.4c3.6-5,8.4-9,12.7-13.3c4.5-4.5,6.7-9.7,6.7-16
			c0-4.5-1.1-9.3,2.4-13.4c2-2.4,3.6-3,6-0.8c0.6,0.6,1.2,1.2,1.8,1.8c-5.3,4.2-5,10.2-5,16.1c0,5.8-2.6,10.5-6.7,14.6
			c-3.5,3.5-7.5,6.5-10.8,10.3c-6.4,7.4-9.7,16.2-11.9,25.6c-2.4,10.4-5.6,20.6-9.9,30.4c-2.3,4.8-4.8,9.5-7.1,14.3
			c-2.2,3.8-4.1,7.9-7.1,11.3c-3.4,3.3-6.2,7.1-9.1,10.8c-0.4,0.6-0.8,1.1-1.3,1.6c-7.8,8.2-16.3,15.7-25,23
			c-2.5,2.1-5.5,3.5-8.3,5.3c-1.1,3.1-4.4,3.9-6.6,4.7c-11.7,4.1-23.3,8.6-35.5,11C218.5,436,217.2,436,216.1,435.2z"/>
		<path id="XMLID_90_" fill="#B98347" d="M363,446.2c0.1,3.8-3.3,5.1-5.2,7.5c-16,20-36,35-58.2,47.5
			c-22.6,12.8-46.7,21.4-72.2,26.2c-18,3.4-35.3,2.8-51.1-8.1c-4.9-3.4-10.4-4.8-17-3.5c-14,2.6-21.3-2.2-24.8-14.9
			c-0.5-1.8-1-3.5-1.1-5.3c-0.5-7.9-1.3-15.9,1.8-23.6c2.6-6.5,8.2-9.8,13.9-7.8c-0.4,0.6-0.8,1.3-1.1,1.9c-0.4,0.4-0.8,0.7-1.2,1
			c-3.6,1.1-6.1,3.3-7.5,6.8c-4.5,11.5-3.1,22.4,2.7,33.1c2.2,4,5.9,5.9,10,5.1c12-2.1,22.5,0.7,32.6,7.2c13.4,8.6,28.3,6.9,43,4.2
			c23.4-4.3,45.6-12.2,66.5-23.6c3.2-1.7,7.2-2.8,8.9-6.6c1.7,0.1,2.9-1.1,4-2.1c1.9-1.1,5,0.1,5.6-3.1
			C331.8,476.8,347.7,461.9,363,446.2z"/>
		<path id="XMLID_89_" fill="#A2733E" d="M295,391c0.3-0.3,0.7-0.7,1-1c3.1-3.6,6.3-7.1,9-11c2.3-3.7,4.7-7.3,7-11
			c2.8-4.4,5-9.2,7-14c2.6-7.8,5.2-15.6,7.7-23.5c1.7-5.7,2.9-11.5,4.8-17.2c3.2-9.7,9.1-17.5,17.2-23.8c6-4.7,9.9-10.6,9.4-18.7
			c-0.2-2.9-0.3-5.9,0.7-8.9c1-2.8,2-5.1,5.4-5.2c1,1.4,1.9,2.7,2.9,4.1c-3.3,4.4-4.1,9.4-3.8,14.7c0.2,3.1-1.6,5.2-3.4,7.3
			c-6.1,5-11.8,10.3-16,17.1c-7.2,9.3-9.9,20.4-12.6,31.5c-4.3,17.4-12.6,33.1-21.3,48.6c-2.7,3.3-5.3,6.6-8,10
			c-3.8,2.9-7.2,6.2-10,10c-1.8,3.1-5.9,3.3-8.1,6c-3.5-1.4-0.6-2.7,0.3-3.6C287.7,398.4,291.9,395.2,295,391z"/>
		<path id="XMLID_88_" fill="#B07E45" d="M303,493.1c-0.3,5.1-5,6-8.2,7.7c-18,9.8-37,17.2-57,21.6c-8.7,1.9-17.5,3.6-26.4,4.4
			c-10.9,1-21.3-1.8-30.3-7.9c-8.3-5.7-17-7.2-26.8-6c-8.6,1.1-12.3-0.7-15.4-8.3c-4-9.7-5.6-19.8-1.7-30c1.7-4.5,4-8.6,9.7-8.6
			c0.9,1.3,0.2,2.3-0.8,2.9c-9.3,5.9-8.4,15-7.6,24c0.3,3.8,1.3,7.5,3.3,10.9c2.7,4.6,6.7,6.7,12,6.4c3.1,0.5,5.4-1.5,8.1-2.3
			c6.6,0.6,12.8,2.6,18.2,6.4c12.4,8.5,25.9,10.6,40.5,8.1c11.3-2,22.4-4.9,33.6-7.7c2.1-0.5,4.4-1.7,5.8-3.7
			c12.3-3.9,24.4-8.2,35.7-14.4C298.1,495.4,300.6,494.3,303,493.1z"/>
		<path id="XMLID_87_" fill="#BD4827" d="M403,289c-2.6,0.2-2.5,2.6-2.8,4.1c-2.9,15-7.9,29.2-13.3,43.5
			c-4.1,10.9-9.5,21.1-14.6,31.4c-2.5,5.1-6.2,9.7-9.3,14.5c-1.2-0.8-1-1.6-0.5-2.3c7.8-10.5,12.2-22.6,16.9-34.5
			c4.2-10.6,7.5-21.6,9.9-33c2-9.5,2.1-19.3,4.6-28.7C397.8,284.1,400.4,286.7,403,289z"/>
		<path id="XMLID_86_" fill="#F4BC31" d="M237.1,473.9c-6.6,0.2-10.6-4.7-14.8-8.5c-4.3-3.8-7.7-8.7-11.1-13.3
			c-2-2.7-3.4-3.6-6.8-1.5c-13,8.3-19.5,20.3-21.2,35.2c-0.1,1.2,0,2.3-0.9,3.3c-3.2-8-1.1-15.8,2.1-23c4.4-9.8,11.6-17.2,21.9-21.4
			c6.1-2.5,7.8-1.9,10.6,3.9C221.7,458.4,227.5,467.8,237.1,473.9z"/>
		<path id="XMLID_85_" fill="#8B6234" d="M310,380.1c-0.8-4.5,2.5-7.5,4.4-10.8c9-15.3,14.3-32,18.5-49.1c1.9-7.7,4.6-14.9,11-20.1
			c-6,17.2-7,36.1-15.9,52.4C322.8,362,319,372.8,310,380.1z"/>
		<path id="XMLID_84_" fill="#DF6B38" d="M374,266.9c-0.8-2.9-1.5-5.9-2.3-8.8c3.6-3.2,7.9-2.6,12.2-2.2c1.1,1.5,2.2,3,3.4,4.8
			c1.1-2.2-1.1-3.9-0.3-5.8c7.7-0.7,15.2-0.2,21,5.9c-2.3,4.7-4.6,9.5-6.9,14.2c-4.3-1.5-0.6-5.3-2.7-8.1c-4.2,3.7-8.6,3.7-12.5-1
			c-1.3,1.7-0.9,3.6-2.2,5.2C380.3,270.5,379,264,374,266.9z"/>
		<path id="XMLID_83_" fill="#E16C39" d="M153,481.9c2.2,0.4,4.3,1.6,6.7,0.2c-1.1-3.1-5.1-1.8-6.5-4.2c1.5-3.8,0.6-8.1,2.8-11.7
			c3.4,0.4,6.2,2.1,9,3.8c0.6,1.6,0.1,3.4,1.6,5c3.7,3.8,3.6,4-1.5,5.2c-0.5,0.1-1,0.2-1.5,1.1c1,1.9,3.4,3.2,3.9,5.8
			c0.5,2.6-1.6,4.3-2.1,6.8c1.9,0.8,3.8,0.5,5.7,0.1c0.8-0.2,1.7-0.6,2.1,0.6c0.4,1.2-0.5,1.8-1.3,2.3c-5,2.4-9.9,4.7-14.9,7.1
			C154,497,152.1,489.7,153,481.9z"/>
		<path id="XMLID_82_" fill="#9F7240" d="M260,511c1.4,2.8-1,3.2-2.5,3.7c-13.3,4.1-26.6,7.5-40.5,9.5c-14,2-26.4-1.2-38-9
			c-4.2-2.8-8.9-5.3-14.3-5.2c-1.3,0-2.1-0.8-2.6-2c1.3-1,2.6-2,4-3c7.3,2.2,13.8,6.1,20.3,10c6.4,3.8,13.3,5.9,20.8,5.8
			c1.8,0,3.7,0.1,5-1.7c7.2,1.1,14.1-1.9,21.2-1.8c6.9,0.1,13-3.4,19.7-3.5C255.4,513.8,256.9,510.3,260,511z"/>
		<path id="XMLID_81_" fill="#F2B932" d="M281.4,449c-3.4,1.1-5.9-1-8.3-2.6c-4.7-3.1-9.3-6.3-13.7-9.8c-2.4-1.9-4.3-1.3-6.8-0.4
			c-8.2,3-16.5,5.6-25.2,6.9c-0.3-1.4-0.3-2.7,1.5-3.1c10.8-2.3,21.2-6.1,31.1-11c1.7-0.8,2.6-0.2,3.3,1
			C268,437.5,274.5,443.5,281.4,449z"/>
		<path id="XMLID_80_" fill="#F3BB31" d="M379.1,282.8c-1.1,4.8-5.9,5.7-9.1,7.8c-10.1,6.8-18.1,14.8-20.3,27.3
			c-0.2,1.1-1,2-1.5,3.1c-4.5-4.9-1.6-10.1,0.2-14.7c4-10.1,12.1-16.5,21.6-21.4C372.9,283.5,376.2,283.8,379.1,282.8z"/>
		<path id="XMLID_79_" fill="#F3BB31" d="M350.1,382.1c-3.3,1.6-6.4,0-9.3-1.1c-2.3-0.8-4.9-1.8-6.4-3.5c-4.3-4.9-5.9-3.3-9.3,1.5
			c-5.2,7.5-11.1,14.7-17.8,21.1c-3-2.1-1.6-3.9,0.2-6.1c7.1-8.8,14.6-17.3,20.6-27.9C333.8,373.6,341.1,379.1,350.1,382.1z"/>
		<path id="XMLID_78_" fill="#8B6437" d="M146.9,478.9c-0.6,8.7,2.3,16.8,4.1,25.1c-1.5,4.3-3.2,4.8-6.4,1.9c-2-1.8-3.2-4.1-4.1-6.7
			c-1.9-5.6-2.2-11.3-1.7-17.2c0.2-2.3,1-4.5,2.4-6.5c1.1-1.5,2.3-3.2,4.4-2.5c1.8,0.6,0.7,2.6,0.9,4
			C146.6,477.6,146.5,478.3,146.9,478.9z"/>
		<path id="XMLID_77_" fill="#B68145" d="M162,463c5.4-2.2,9.1-6.6,13-10.6c7-7.2,14.8-12.7,24.8-14.9c2.2-0.5,4.3-0.6,6.4-0.4
			c-4.1,3.2-9.6,3.9-13.3,7.8c-8.1,4.8-14.4,11.8-21,18.4c-1.8,1.8,1.3,3.3,0.1,5C168.1,467.6,165.4,464.7,162,463z"/>
		<path id="XMLID_76_" fill="#906739" d="M212,519c0.2,2.5-1.2,2.9-3.4,3c-8.3,0.3-16-1.9-23.2-6c-5.3-3-10.1-6.9-16.3-8.1
			c-1.7-0.3-1.9-2.2-3.2-2.9c1.5-1.2,3-2.2,5.1-1.9c5.2,1.8,9.7,4.7,14.3,7.7c1.6,1.1,3.2,1.8,4.8,0.1
			C196.8,515.1,203.6,519.3,212,519z"/>
		<path id="XMLID_75_" fill="#F2BA32" d="M319.2,419.9c-3.2,1.4-6.2,0.2-8.8-1.2c-4.6-2.4-10-3.5-13.8-7.5c-1.5-1.6-2.3,0.2-3.2,1
			c-5.5,4.5-11.2,8.6-17.6,11.8c-1.5,0.7-2.8,2.3-3.8-0.5c7.7-5.7,15.3-11.4,23-17.1c1-0.7,2.1-2.3,3.3-0.7
			C303.7,412.6,311.9,415.6,319.2,419.9z"/>
		<path id="XMLID_74_" fill="#A67640" d="M146.9,478.9c-1.7-1.4-0.2-3.6-1.4-5.3c-2.9,0.9-4.1,3.2-4.7,5.8
			c-1.8,7.8-1.2,15.5,2.4,22.7c2.6,5.3,5.2,5.7,7.8,1.8c-0.3,2.7,1.8,4.3,2.9,6.3c-4.9,2-9.8,0.3-12.7-5c-4.7-8.6-5.5-18-3.2-27.5
			c1-4.2,3.1-7.7,7.4-9.5c1-0.4,1.6-1.2,1.7-2.3c0.3,0,0.6,0,0.8-0.1C147.5,470.3,147.2,474.6,146.9,478.9z"/>
		<path id="XMLID_73_" fill="#B94827" d="M172,496.9c-0.2-0.7,2.2-2-0.4-2.2c-0.5,0-1,0.2-1.5,0.3c-2.2,0.2-5,2.1-6.4,0.1
			c-1.1-1.5,1.4-3.4,2.4-5.1c1.7-2.9-0.3-4.6-2-6.4c-1-1-3.2-1.2-2.6-3.2c0.7-2,2.7-1.4,4.3-1.5c0.8,0,1.6-0.1,2.6-0.1
			c-0.4-3.4-8.3-3.7-3.4-8.8c2.8-1,5,0.6,7.5,1.3c-0.6,2.2-3.2,0.9-4,2.6c5.9,6.4,5.9,6.4,0.3,7.9c3.3,1,3.4,3.7,4.5,5.8
			c2,4.1-3.7,2.3-3.8,5.2c1.5,1.3,4.7-1.6,5.5,1.5C175.3,496.3,173.6,496.9,172,496.9z"/>
		<path id="XMLID_72_" fill="#B54626" d="M374,266.9c5.1-5.1,6.5,1.2,9.7,3.3c0.2-2.2,0.3-4.3,0.5-7.1c1.9,1.5,3.2,2.6,4.6,3.8
			c2.2,1.9,4.3,2.8,6.8,0.1c1-1.1,2.9-2.1,4.4-1.1c1.5,1,0.4,2.6,0.1,4.1c-0.3,1.7-0.9,3.6,0.8,5.1c-0.2,1.2-0.4,2.6-1.9,2.2
			c-1.3-0.3-2.1-1.6-1.9-3.1c0.2-1.4,1.4-2.7,0.5-4.3c-2.4,1.1-3.2,6.1-4,5.2c-2.2-2.5-8.4-0.4-7-6.5c-3.3,1.4,1.3,6.1-3.1,6.3
			c-3.4,0.2-3.1-3.9-5.2-5.3c-2.3,1.4-0.3,4.2-2.5,6.3C375.2,272.7,374.6,269.8,374,266.9z"/>
		<path id="XMLID_71_" fill="#F0B730" d="M364.4,339c-5.3,2.7-9.5-0.7-13.9-2.7c-3.4-1.5-5.1-2.2-6.6,2.5
			c-2.4,7.5-6.1,14.5-10.1,21.4c-1-0.6-2-0.9-1.3-2.6c3.9-9.4,8.3-18.7,10.5-28.8c0.3-1.4,1.2-2.3,2.4-1
			C350.5,333.7,357.8,335.8,364.4,339z"/>
		<path id="XMLID_70_" fill="#845F35" d="M360,282.9c3.7-5.2,1.2-11.4,2.8-17.1c0.8-2.7,1.8-4.2,4.3-4.9c3.6,4.1,4.6,9.5,6.4,14.2
			c1.4,3.5-4.6,5.3-6.4,4.9C363.4,279.1,362.3,282.1,360,282.9z"/>
		<path id="XMLID_69_" fill="#9E713E" d="M172,468.3c-2.5-2.7-2.5-4.8,0.6-7.5c5.9-5.2,11-11.2,17.6-15.5c1-0.6,1.7-0.8,2.7-0.3
			c-6.9,5.8-12.7,12.4-15.3,21.2C176.5,469.6,174.9,470.4,172,468.3z"/>
		<path id="XMLID_68_" fill="#7B5832" d="M190.1,510.9c-0.3,1.5,0.6,4.6-2.9,2.2c-5.3-3.6-11.3-5.9-16.2-10.1
			c5.6-4.3,7.9-4.1,12.6,1.1C185.7,506.4,187.9,508.6,190.1,510.9z"/>
		<path id="XMLID_67_" fill="#A3753D" d="M295,391c-1.7,4.8-6.4,7-9.2,10.8c-0.9,1.2-3.7,1.8-1.8,4.2c-5.7,7.2-13.5,11.2-22,14
			C273.5,410.9,284.4,401.1,295,391z"/>
		<path id="XMLID_66_" fill="#E88565" d="M408,260.8c-6.4-4.2-13.9-4.4-21-5.9c-0.5-2.6,1.2-2.5,2.9-2.4c5.7,0.4,11.2,2.1,16.7,3.7
			C409.2,257,410.3,258.4,408,260.8z"/>
		<path id="XMLID_65_" fill="#EB8A6B" d="M153,481.9c1.6,4,1.4,8.3,1.8,12.5c0.3,3.4,4.2,5.8,2.2,9.6c-0.9,0.7-1.9,1.1-2.2-0.4
			c-1.4-6.3-2.8-12.6-4-18.9C150.6,483.4,150.7,481.7,153,481.9z"/>
		<path id="XMLID_64_" fill="#E3805D" d="M383.9,255.9c-3.9,1.8-8.3,0.7-12.2,2.2c-0.8-0.5-1.1-1.4-0.6-2.1
			C372.7,253.5,381.7,253.5,383.9,255.9z"/>
		<path id="XMLID_63_" fill="#F08D6E" d="M156,466.2c-0.1,4.1,0.3,8.3-2.8,11.7c-0.9-3.7,0.2-7.2,0.9-10.8
			C154.3,466.1,155.1,466,156,466.2z"/>
		<path id="XMLID_62_" fill="#A3753D" d="M292,400c2-4.6,5.4-7.9,10-10C299.2,393.9,295.8,397.1,292,400z"/>
		<path id="XMLID_61_" fill="#CE934F" d="M400.9,392.8c-1.1,3.8-1.2,8.2-5.6,10.2C396.9,399.4,398.1,395.7,400.9,392.8z"/>
		<path id="XMLID_60_" fill="#B07E45" d="M312.7,487.8c0.5,2.8-0.9,3.5-5.6,3.1C308.4,489,310.9,489.2,312.7,487.8z"/>
		<path id="XMLID_59_" fill="#BD4827" d="M264.9,468.5c29-15.1,55.9-33,79.8-55.4C324.5,440.7,296.9,457.7,264.9,468.5z"/>
		<path id="XMLID_58_" fill="#C14C28" d="M352.9,416.5c9.6-15.4,20.5-29.9,27.7-46.6C376.5,388.5,364.8,402.6,352.9,416.5z"/>
		<path id="XMLID_57_" fill="#C34E28" d="M335,443c0-0.8-0.2-1.5-1-2c3.6-4.4,4.2-5,8.2-6.8C339.8,437.8,338.4,441.1,335,443z"/>
		<path id="XMLID_56_" fill="#A3753D" d="M319,354c-1.1,5.3-3.3,10-7,14C313.7,363,316,358.3,319,354z"/>
		<path id="XMLID_55_" fill="#A3753D" d="M305,379c-1.9,4.6-5.1,8.1-9,11C298.1,385.6,301.4,382.1,305,379z"/>
	</g>
</g>
</svg>
