<?xml version="1.0" encoding="utf-8"?>
<!-- Generator: Adobe Illustrator 19.0.0, SVG Export Plug-In . SVG Version: 6.00 Build 0)  -->
<svg version="1.1" id="Layer_1" xmlns="http://www.w3.org/2000/svg" xmlns:xlink="http://www.w3.org/1999/xlink" x="0px" y="0px"
	 viewBox="0 0 200 200" style="enable-background:new 0 0 200 200;" xml:space="preserve">
<g id="XMLID_51_">
	<linearGradient id="XMLID_54_" gradientUnits="userSpaceOnUse" x1="5" y1="99" x2="199" y2="99">
		<stop  offset="0" style="stop-color:#00AA65"/>
		<stop  offset="1" style="stop-color:#70C16D"/>
	</linearGradient>
	<path id="XMLID_50_" style="fill:none;stroke:url(#XMLID_54_);stroke-width:4;stroke-miterlimit:10;" d="M102,194L102,194
		c-52.47,0-95-42.53-95-95v0C7,46.53,49.53,4,102,4h0c52.47,0,95,42.53,95,95v0C197,151.47,154.47,194,102,194z"/>
</g>
<g id="XMLID_52_">
	<g id="XMLID_43_">
		<polygon id="XMLID_48_" style="fill:#5ABC71;" points="116.14,61.71 112.69,79.63 32.47,79.63 26.27,71.55 77.26,71.55 
			77.26,69.79 24.92,69.79 18.72,61.71 		"/>
		<polygon id="XMLID_45_" style="fill:#5ABC71;" points="109.6,95.65 106.17,113.58 58.5,113.58 55.41,109.56 102.29,109.56 
			102.29,107.8 54.07,107.8 49.4,101.71 69.47,101.71 69.47,99.94 48.05,99.94 44.76,95.65 		"/>
		<polygon id="XMLID_44_" style="fill:#5ABC71;" points="102.97,130.18 99.52,148.12 85,148.12 83.36,145.98 96.2,145.98 
			96.2,144.21 82,144.21 71.23,130.18 		"/>
	</g>
	<g id="XMLID_36_">
		<linearGradient id="XMLID_55_" gradientUnits="userSpaceOnUse" x1="182.7476" y1="134.4197" x2="94.9064" y2="83.7045">
			<stop  offset="0" style="stop-color:#00AA65"/>
			<stop  offset="1" style="stop-color:#70C16D"/>
		</linearGradient>
		<path id="XMLID_37_" style="fill:url(#XMLID_55_);" d="M185.5,90.46c1.57-3.14,2.36-6.65,2.36-10.53c0-1.69-0.15-3.31-0.44-4.87
			H168.1v-4.39h17.99c-0.77-1.87-1.8-3.63-3.09-5.27c-3.24-4.14-7.25-6.88-12.02-8.22c-4.78-1.33-10.91-2.01-18.41-2.01h-41.19
			l-16.65,99.7h54.34c7.51,0,13.7-1.11,18.56-3.34h-18.53v-4.38h25.07c0.35-0.34,0.69-0.69,1-1.04c3.91-4.36,6.36-9.27,7.35-14.68
			h-8.96v-4.39H183c0.02-0.42,0.03-0.86,0.03-1.29c0-5.37-1.4-9.87-4.2-13.51h-19.1v-4.39h14.46c-2.14-1.52-4.67-2.78-7.59-3.8
			c6.48-1.46,11.63-4.32,15.48-8.58c0.17-0.19,0.35-0.4,0.51-0.6h-5.16v-4.39H185.5z M151.77,129.89c-1.76,1.95-4.95,2.92-9.58,2.92
			h-14.91l3.13-18.7h12.5c3.8,0,6.67,0.87,8.59,2.6c1.93,1.73,2.89,4.01,2.89,6.82C154.4,125.83,153.52,127.94,151.77,129.89z
			 M145.31,93.22H133.9l2.84-17.01h11.43c7.22,0,10.83,2.65,10.83,7.95C159,90.21,154.44,93.22,145.31,93.22z"/>
	</g>
</g>
</svg>
