<svg width="889" height="894" xmlns="http://www.w3.org/2000/svg" xmlns:xlink="http://www.w3.org/1999/xlink" overflow="hidden"><defs><clipPath id="clip0"><rect x="-2337" y="719" width="889" height="894"/></clipPath><clipPath id="clip1"><rect x="-2336" y="722" width="888" height="888"/></clipPath><clipPath id="clip2"><rect x="-2336" y="722" width="888" height="888"/></clipPath><clipPath id="clip3"><rect x="-2336" y="722" width="888" height="888"/></clipPath><linearGradient x1="-2312.85" y1="1161.57" x2="-1453.43" y2="1161.57" gradientUnits="userSpaceOnUse" spreadMethod="pad" id="stroke4"><stop offset="0" stop-color="#00AA65" stop-opacity="1"/><stop offset="1" stop-color="#70C16D" stop-opacity="1"/></linearGradient><linearGradient x1="-1525.43" y1="1318.48" x2="-1914.56" y2="1093.81" gradientUnits="userSpaceOnUse" spreadMethod="pad" id="fill5"><stop offset="0" stop-color="#00AA65" stop-opacity="1"/><stop offset="1" stop-color="#70C16D" stop-opacity="1"/></linearGradient></defs><g clip-path="url(#clip0)" transform="translate(2337 -719)"><path d="M-2290.5 1161C-2290.5 933.182-2105.82 748.5-1878 748.5-1650.18 748.5-1465.5 933.182-1465.5 1161-1465.5 1388.82-1650.18 1573.5-1878 1573.5-2105.82 1573.5-2290.5 1388.82-2290.5 1161Z" stroke="#FFFFFF" stroke-width="4.58333" stroke-linecap="butt" stroke-linejoin="miter" stroke-miterlimit="8" stroke-opacity="1" fill="#FFFFFF" fill-rule="evenodd" fill-opacity="1"/><g clip-path="url(#clip1)"><g clip-path="url(#clip2)"><g clip-path="url(#clip3)"><path d="M-1883.14 1582.42-1883.14 1582.42C-2115.58 1582.42-2303.99 1394.01-2303.99 1161.57-2303.99 929.128-2115.58 740.72-1883.14 740.72-1650.7 740.72-1462.29 929.128-1462.29 1161.57-1462.29 1394.01-1650.7 1582.42-1883.14 1582.42Z" stroke="url(#stroke4)" stroke-width="17.72" stroke-linecap="butt" stroke-linejoin="miter" stroke-miterlimit="10" fill="none" fill-rule="nonzero"/><path d="M-1820.5 996.375-1835.78 1075.76-2191.16 1075.76-2218.62 1039.97-1992.74 1039.97-1992.74 1032.17-2224.6 1032.17-2252.07 996.375Z" fill="#5ABC71" fill-rule="nonzero" fill-opacity="1"/><path d="M-1849.47 1146.73-1864.67 1226.16-2075.84 1226.16-2089.53 1208.35-1881.86 1208.35-1881.86 1200.55-2095.47 1200.55-2116.16 1173.58-2027.25 1173.58-2027.25 1165.73-2122.14 1165.73-2136.71 1146.73Z" fill="#5ABC71" fill-rule="nonzero" fill-opacity="1"/><path d="M-1878.84 1299.7-1894.13 1379.17-1958.45 1379.17-1965.72 1369.69-1908.83 1369.69-1908.83 1361.85-1971.74 1361.85-2019.45 1299.7Z" fill="#5ABC71" fill-rule="nonzero" fill-opacity="1"/><path d="M-1513.23 1123.74C-1506.28 1109.83-1502.78 1094.28-1502.78 1077.09-1502.78 1069.6-1503.44 1062.43-1504.73 1055.52L-1590.32 1055.52-1590.32 1036.07-1510.62 1036.07C-1514.03 1027.78-1518.6 1019.99-1524.31 1012.72-1538.66 994.382-1556.43 982.244-1577.56 976.307-1598.73 970.415-1625.89 967.403-1659.11 967.403L-1841.59 967.403-1915.35 1409.07-1674.62 1409.07C-1641.35 1409.07-1613.93 1404.16-1592.4 1394.28L-1674.49 1394.28-1674.49 1374.87-1563.43 1374.87C-1561.88 1373.37-1560.37 1371.82-1559 1370.27-1541.68 1350.95-1530.82 1329.2-1526.44 1305.23L-1566.13 1305.23-1566.13 1285.79-1524.31 1285.79C-1524.22 1283.93-1524.18 1281.98-1524.18 1280.07-1524.18 1256.28-1530.38 1236.35-1542.78 1220.22L-1627.4 1220.22-1627.4 1200.78-1563.34 1200.78C-1572.82 1194.04-1584.03 1188.46-1596.96 1183.94-1568.26 1177.47-1545.44 1164.8-1528.39 1145.93-1527.63 1145.09-1526.83 1144.16-1526.13 1143.27L-1548.98 1143.27-1548.98 1123.83-1513.23 1123.83ZM-1662.66 1298.41C-1670.46 1307.05-1684.59 1311.35-1705.1 1311.35L-1771.15 1311.35-1757.28 1228.51-1701.91 1228.51C-1685.07 1228.51-1672.36 1232.36-1663.85 1240.03-1655.31 1247.69-1651.05 1257.79-1651.05 1270.24-1651.01 1280.43-1654.91 1289.77-1662.66 1298.41ZM-1691.28 1135.96-1741.82 1135.96-1729.24 1060.61-1678.61 1060.61C-1646.62 1060.61-1630.63 1072.35-1630.63 1095.83-1630.63 1122.63-1650.83 1135.96-1691.28 1135.96Z" fill="url(#fill5)" fill-rule="nonzero"/></g></g></g></g></svg>