<svg width="48" height="48" viewBox="0 0 48 48" fill="none" xmlns="http://www.w3.org/2000/svg">
<g clip-path="url(#clip0)">
<path d="M24 48C37.2548 48 48 37.2548 48 24C48 10.7452 37.2548 0 24 0C10.7452 0 0 10.7452 0 24C0 37.2548 10.7452 48 24 48Z" fill="#FA305C"/>
<path d="M40.8717 24C40.8717 33.3179 33.3179 40.8717 24 40.8717C14.682 40.8717 7.12825 33.3179 7.12825 24C7.12825 14.682 14.682 7.12825 24 7.12825C33.3179 7.12825 40.8717 14.682 40.8717 24Z" fill="white" stroke="white" stroke-width="1.68717"/>
<path d="M21.3485 31.3556C21.3485 31.4726 21.3255 31.6177 21.2797 31.7908C21.137 32.3354 21.0454 32.6459 21.0046 32.7222C20.8671 33.0175 20.6404 33.2287 20.3246 33.3559C20.5538 33.4781 20.6684 33.6639 20.6684 33.9133C20.6684 34.0151 20.6506 34.1322 20.6149 34.2645L20.4239 34.9669C20.3068 35.3894 20.1387 35.6973 19.9197 35.8908C19.6853 36.0995 19.3543 36.2038 18.9264 36.2038H14.7852L16.2598 30.7065H20.4163C21.0377 30.7065 21.3485 30.9229 21.3485 31.3556ZM19.4841 32.1267H17.5816L17.383 32.8596H19.2855L19.4841 32.1267ZM18.9951 33.9591H17.0926L16.8939 34.6997H18.7965L18.9951 33.9591ZM27.2349 30.7065L26.8529 32.1267H23.98L23.789 32.8444H26.2722L25.9589 34.0049H23.4757L22.8874 36.2038H21.1606L22.6352 30.7065H27.2349ZM33.1951 30.7065L32.8131 32.1267H29.4741L28.7788 34.715H30.6737L31.1627 32.9054H32.8666L32.3776 34.715C32.2145 35.3105 31.9777 35.7126 31.6669 35.9213C31.3817 36.1097 30.9182 36.2038 30.2764 36.2038H28.3815C27.9587 36.2038 27.6505 36.1682 27.457 36.0969C27.1259 35.9799 26.9603 35.7534 26.9603 35.4174C26.9603 35.2341 26.9985 35 27.075 34.715L27.7702 32.1267C27.923 31.5566 28.165 31.1697 28.4961 30.9662C28.7813 30.7931 29.2347 30.7065 29.8561 30.7065H33.1951Z" fill="#080C1B"/>
<g clip-path="url(#clip1)">
<path d="M13.4625 19.5051C11.9951 22.6949 11.4561 25.0798 11.4561 25.0798C11.4561 25.0798 18.0641 24.3994 22.4249 29.3894C22.4249 29.3894 25.769 27.8848 30.608 29.4723C30.608 29.4723 33.3368 26.0311 36.7512 25.9562C36.7512 25.9562 36.1706 23.2133 34.0892 20.9348C34.5373 19.8918 34.7547 18.5478 34.7547 18.5478C34.7547 18.5478 34.4116 17.5785 32.2205 15.5555C32.1536 11.953 30.0515 10.1802 30.0515 10.1802C30.0515 10.1802 27.9434 11.0412 26.7114 12.923C26.7114 12.923 24.5176 12.9638 22.7365 13.4776L21.4243 13.5505C21.4243 13.5505 20.5963 11.9075 17.5451 10.9201C17.5451 10.9201 15.2042 11.5683 14.9861 16.7476C14.9861 16.7476 13.706 16.4539 12.6987 19.5025C12.7001 19.5051 12.8017 19.5352 13.4625 19.5051Z" fill="#080C1B"/>
<path d="M21.3369 15.435C19.8213 13.2274 17.7486 12.4741 17.7486 12.4741C17.7486 12.4741 16.1729 13.5973 16.5722 16.1883C16.8571 14.7166 17.7018 13.9894 17.7018 13.9894C17.7018 13.9894 18.7091 14.736 19.1284 16.2499C19.5478 17.7638 21.3369 15.435 21.3369 15.435Z" fill="#5F5F68"/>
<path d="M24.4355 14.2817C18.4502 14.2817 15.91 18.0949 15.91 18.0949C16.2745 17.9786 16.6614 17.9504 17.039 18.0127C17.039 18.0127 14.8144 20.2511 13.7075 23.3043C13.7075 23.3043 16.4631 22.9698 18.7545 24.4255C18.1914 19.6584 22.5782 17.9551 24.168 19.0817C23.95 18.4522 23.1875 17.4413 21.1717 17.8775C22.9655 16.0124 26.5256 16.8152 28.3462 19.0697C28.4734 18.718 28.5579 18.3524 28.5977 17.9805C28.5977 17.9805 29.6344 18.5231 29.9253 19.3988C29.9922 18.8215 30.4677 18.1224 30.4677 18.1224C30.4677 18.1224 30.8583 18.6288 31.1151 19.5025C31.3049 19.244 31.5609 19.0415 31.8562 18.9166C32.1514 18.7917 32.475 18.7489 32.7926 18.7927C32.7926 18.7927 30.4209 14.2817 24.4355 14.2817Z" fill="#5F5F68"/>
<path d="M21.1701 17.875C18.5857 18.5928 16.9899 20.5155 16.3545 23.4697C17.204 23.6427 18.016 23.9658 18.7522 24.4237C18.1891 19.6565 22.5759 17.9532 24.1657 19.0798C23.9517 18.4503 23.1859 17.4388 21.1701 17.875Z" fill="white"/>
<path d="M27.1377 14.6177C28.7262 15.2867 30.2812 16.1296 31.3099 18.3901L31.9432 18.8831C32.2155 18.7876 32.5063 18.7567 32.7926 18.7928C32.7926 18.7928 31.1467 15.6633 27.1377 14.6177Z" fill="#636363"/>
<path d="M31.4707 20.3195C31.7937 19.5836 32.4004 19.5562 32.4004 19.5562C32.3529 20.0153 32.2132 20.4602 31.9897 20.864C31.8539 20.6504 31.6776 20.4654 31.4707 20.3195V20.3195Z" fill="white"/>
<path d="M25.1812 21.0967C28.6744 21.7349 29.0216 25.7929 31.0361 25.7929C32.26 25.7929 32.7035 25.0778 32.7035 25.0778C31.9143 25.1835 31.3424 24.4931 31.2989 24.0215C31.2555 23.5498 31.3605 22.9357 31.3605 22.9357C31.3605 22.9357 32.4306 22.9872 32.8927 23.3451C33.3208 23.1003 33.8672 23.0474 33.8672 23.0474C33.8672 23.0474 33.2927 22.1383 31.7885 21.7008C31.5966 22.1329 31.113 22.5356 31.113 22.5356C31.113 22.5356 30.1646 21.0365 27.8772 20.4966C28.0388 20.7942 28.1385 21.1214 28.1701 21.4586C28.1701 21.4586 27.1167 20.6284 25.1812 21.0967Z" fill="white"/>
<path d="M25.0492 22.9882C24.6398 22.5279 24.7268 22.0831 24.7268 22.0831C24.7268 22.0831 24.9274 21.875 25.5234 21.875C26.7901 21.875 27.9312 24.1301 28.9451 25.0801C27.4904 24.5717 24.8773 26.0836 24.3877 23.2658C24.8385 24.0592 25.4665 24.0646 25.4665 24.0646C25.3765 23.8595 25.3448 23.6336 25.3749 23.4117C25.7641 23.8298 26.55 23.8445 26.55 23.8445C25.7407 23.2638 25.3976 22.2389 25.3976 22.2389C25.1 22.536 25.0492 22.9882 25.0492 22.9882Z" fill="white"/>
<path d="M24.7071 21.2975C22.7226 21.919 23.879 25.9744 26.553 25.664C29.227 25.3536 30.3734 26.147 30.8442 27.3726C30.1041 26.9001 29.2443 26.6492 28.3662 26.6494C28.5817 26.7446 28.7715 26.8897 28.9198 27.0728C29.0681 27.256 29.1706 27.4718 29.219 27.7024C28.7368 27.2436 28.0954 26.9898 27.4299 26.9946C26.0053 26.9946 24.5345 27.5218 23.3099 27.0046C21.9983 25.2265 22.5334 23.4771 22.5334 23.4771C21.9635 23.7848 21.8431 24.4257 21.8431 24.4257C21.8431 24.4257 21.4539 21.2701 24.7071 21.2975Z" fill="white"/>
<path d="M30.8442 27.3746C28.0318 24.0102 23.4663 28.8356 22.5333 23.4771C22.5333 23.4771 21.9982 25.2264 23.3098 27.0046C24.5344 27.5217 26.0052 26.9946 27.4298 26.9946C28.0949 26.9901 28.7357 27.2438 29.2176 27.7024C29.1694 27.4719 29.067 27.2561 28.919 27.073C28.7709 26.8899 28.5814 26.7447 28.3662 26.6494C29.2444 26.6497 30.1042 26.9013 30.8442 27.3746V27.3746Z" fill="white"/>
<path d="M24.8716 18.0786C25.3518 19.1798 25.8942 19.7999 25.8942 19.7999C25.8942 19.7999 26.5631 19.8929 27.165 19.6133C27.1657 19.6133 26.5169 18.4941 24.8716 18.0786Z" fill="white"/>
<path d="M26.5752 14.4878C28.1657 15.1561 29.1689 15.9649 29.7709 17.8622L30.7132 18.0782C31.0925 18.7773 32.4683 18.7559 32.7906 18.7927C32.7926 18.7927 30.9748 15.3113 26.5752 14.4878Z" fill="#FA305C"/>
<path d="M28.3755 13.3627C28.9427 12.3418 29.6944 12.1411 29.6944 12.1411C29.6944 12.1411 30.6756 13.3366 30.7385 15.3114C30.1608 14.8744 29.5183 14.5306 28.8343 14.2926C29.2088 14.2571 29.5866 14.3027 29.9419 14.4264C29.9001 13.828 29.6916 13.2532 29.3399 12.7673C29.3399 12.7673 28.9714 12.8536 28.3755 13.3627Z" fill="#FA305C"/>
<path d="M32.9268 24.6349C33.2654 24.3224 33.5436 23.9503 33.7475 23.5371C33.5207 23.5795 33.3008 23.6529 33.094 23.7552C32.9771 24.0334 32.9201 24.3332 32.9268 24.6349V24.6349Z" fill="#FA305C"/>
<path d="M30.0553 9.79102L29.7784 9.92481C29.4416 10.0841 29.1158 10.2658 28.8033 10.4687C28.4927 10.6704 28.1945 10.8907 27.9104 11.1283C27.6274 11.3646 27.3577 11.6163 27.1024 11.8823C26.9747 12.0161 26.8503 12.1499 26.7299 12.293C26.6697 12.3599 26.6109 12.4342 26.5527 12.5071C26.5527 12.5071 23.9208 12.5024 22.7363 13.4838C24.6258 13.047 26.9192 13.4798 26.9192 13.4798L27.0897 13.2403C27.1071 13.2162 27.1339 13.1801 27.1566 13.1493L27.2322 13.0523C27.2837 12.9854 27.3372 12.9232 27.3914 12.8596C27.4997 12.7325 27.6134 12.6081 27.7298 12.4864C27.9623 12.2436 28.2079 12.0138 28.4655 11.798C28.7238 11.581 28.9949 11.38 29.2775 11.1959C29.4694 11.0708 29.6681 10.9564 29.8701 10.85C30.1062 11.1102 30.3207 11.3892 30.5115 11.6842C30.6345 11.8756 30.7469 12.0743 30.8512 12.2776C30.9556 12.481 31.0465 12.6904 31.1288 12.9038C31.2932 13.3329 31.4177 13.7764 31.5007 14.2284C31.5428 14.4545 31.5742 14.6826 31.5943 14.9108C31.605 15.0245 31.6117 15.1382 31.6164 15.2513C31.6164 15.3079 31.6177 15.3641 31.6204 15.4198V15.5021V15.5744L31.6137 15.8253L31.819 15.9664L31.8558 15.9918L31.8993 16.0226L31.9869 16.0895C32.0458 16.1343 32.1046 16.1818 32.1621 16.23C32.2772 16.327 32.3889 16.4307 32.4966 16.5357C32.714 16.748 32.9153 16.9763 33.0985 17.2187C33.28 17.4592 33.4418 17.7141 33.5821 17.9807C33.703 18.2126 33.8058 18.4535 33.8897 18.7012C33.8536 18.8631 33.8168 19.0243 33.7727 19.1849C33.7212 19.3822 33.661 19.5783 33.5988 19.7723C33.5366 19.9663 33.465 20.1589 33.3908 20.3483C33.354 20.4432 33.3145 20.5362 33.2744 20.6292L33.2135 20.763C33.1935 20.8072 33.1701 20.856 33.1527 20.8901L32.9721 21.25L33.3112 21.4608C33.6734 21.687 34.011 21.9504 34.3184 22.2468C34.396 22.3198 34.4683 22.3974 34.5418 22.4736C34.6154 22.5499 34.685 22.6308 34.7505 22.7138C34.8852 22.8769 35.0092 23.0485 35.1217 23.2276C35.4615 23.763 35.6962 24.3583 35.8133 24.9816C35.8313 25.0847 35.8474 25.1877 35.8581 25.29C35.8584 25.2923 35.8584 25.2945 35.8581 25.2967C35.5906 25.4056 35.3302 25.5262 35.0769 25.6587C34.722 25.8476 34.3793 26.0588 34.0509 26.2908C33.7241 26.5202 33.4114 26.7691 33.1146 27.0361C32.8197 27.2986 32.5446 27.5823 32.2912 27.885C32.5922 27.6372 32.911 27.4118 33.245 27.2107C33.5745 27.0098 33.9158 26.8288 34.2669 26.6688C34.6134 26.511 34.9695 26.3754 35.3331 26.2627C35.6908 26.1528 36.0557 26.0678 36.4253 26.0085L36.7523 25.9563V25.5369V25.4854L36.7476 25.387C36.7436 25.3201 36.7376 25.2593 36.7316 25.1964C36.7175 25.0706 36.6988 24.9469 36.6767 24.8244C36.6313 24.5801 36.5701 24.339 36.4935 24.1026C36.3414 23.6307 36.1301 23.18 35.8648 22.7613C35.7331 22.5515 35.5881 22.3504 35.4307 22.1592C35.3545 22.0622 35.2702 21.9719 35.1886 21.8796C35.107 21.7872 35.0187 21.7003 34.9291 21.616C34.6684 21.3668 34.3886 21.1385 34.0924 20.9329C34.1305 20.8446 34.1673 20.7563 34.2014 20.6654C34.283 20.4593 34.3581 20.2513 34.4268 20.0412C34.4937 19.8311 34.5606 19.6204 34.6154 19.4063C34.6702 19.1922 34.7224 18.9782 34.7686 18.7621L34.7926 18.6524L34.7579 18.544C34.6531 18.2088 34.5188 17.8835 34.3566 17.572C34.1944 17.2634 34.0074 16.9685 33.7974 16.6902C33.5882 16.4135 33.3588 16.1526 33.1112 15.9095C32.9875 15.7885 32.8604 15.6714 32.7266 15.5597C32.6597 15.5035 32.5929 15.4486 32.522 15.3944L32.4972 15.3757C32.4972 15.3228 32.4972 15.2693 32.4939 15.2165C32.4885 15.0867 32.4812 14.9582 32.4691 14.8298C32.4464 14.5736 32.4109 14.32 32.3648 14.0678C32.2717 13.5627 32.1324 13.0671 31.9488 12.5874C31.8558 12.3472 31.7481 12.1124 31.6351 11.8816C31.5184 11.6522 31.3901 11.4289 31.2505 11.2126C30.9019 10.699 30.5014 10.2227 30.0553 9.79102V9.79102Z" fill="#FA305C"/>
<path d="M32.7543 18.722L32.7041 18.625L32.7543 18.722Z" fill="white"/>
<path d="M32.7678 18.7465L32.7544 18.7217L32.7678 18.7465Z" fill="white"/>
<path d="M32.7745 18.7604C32.7745 18.7555 32.7696 18.7507 32.7676 18.7466L32.7745 18.7604Z" fill="white"/>
<path d="M32.7925 18.795L32.7744 18.7603C32.7804 18.771 32.7858 18.7823 32.7925 18.795Z" fill="white"/>
<path d="M30.7148 18.5246C30.882 18.8368 31.0165 19.1654 31.1161 19.5053C31.3057 19.2465 31.5618 19.0438 31.8573 18.9187C32.1527 18.7936 32.4765 18.7508 32.7942 18.7949C31.906 18.1974 31.0881 18.3834 30.7148 18.5246Z" fill="white"/>
<path d="M28.5994 17.9808C26.4711 15.3537 21.7612 14.7202 18.7007 18.0518C19.2157 17.734 20.1246 17.552 21.166 17.8792L21.1774 17.8731C22.9738 16.0174 26.528 16.8228 28.3452 19.0713C28.4734 18.7193 28.5587 18.3532 28.5994 17.9808V17.9808Z" fill="white"/>
<path d="M21.3621 28.2969C20.9795 27.9585 20.5775 27.6427 20.1582 27.351C19.3152 26.7648 18.4145 26.2662 17.4702 25.8631C16.5208 25.4572 15.5356 25.1407 14.5274 24.9179C13.688 24.7318 12.8368 24.6044 11.9798 24.5365C12.058 24.2161 12.1457 23.8983 12.2473 23.5839C12.5521 22.6373 12.9514 21.7237 13.4392 20.8571C13.5609 20.6413 13.6882 20.4288 13.8211 20.2196C13.888 20.1159 13.9548 20.0129 14.0217 19.9119L14.1267 19.762C14.1608 19.7145 14.1996 19.6617 14.2291 19.6229L14.831 18.8462L13.8572 18.9191L13.4164 18.9512C13.419 18.9471 13.4219 18.9433 13.4251 18.9398C13.5967 18.7112 13.7809 18.4923 13.9769 18.2842C14.1742 18.0728 14.3822 17.8688 14.5969 17.6708C14.7046 17.5724 14.8136 17.4747 14.924 17.3797C15.0343 17.2848 15.15 17.1891 15.2584 17.1061L15.4323 16.9723L15.4243 16.7482C15.4243 16.69 15.4243 16.6144 15.4243 16.5475C15.4243 16.4806 15.4243 16.4084 15.4303 16.3381C15.4356 16.1977 15.445 16.0572 15.4557 15.916C15.4784 15.6346 15.5114 15.3541 15.5547 15.0744C15.6386 14.519 15.7699 13.9718 15.9473 13.4388C16.1204 12.9155 16.3574 12.4155 16.6529 11.9503C16.8984 11.5655 17.1995 11.2193 17.5465 10.9227C17.8385 11.04 18.1254 11.1678 18.4072 11.306C18.7622 11.4803 19.1078 11.673 19.4426 11.8834C19.7769 12.0924 20.0989 12.3204 20.407 12.5664C20.5595 12.6888 20.708 12.8159 20.8505 12.9477C20.9218 13.0133 20.9912 13.0802 21.0585 13.1484L21.1568 13.2508L21.2029 13.301L21.2417 13.3451L21.4263 13.5538C19.8914 10.8933 17.4027 9.93262 17.4027 9.93262L17.2107 10.0758C16.7007 10.4621 16.2637 10.9366 15.9205 11.4766C15.5861 12.0025 15.3183 12.5679 15.1233 13.1598C14.9291 13.7404 14.7854 14.3366 14.6939 14.942C14.6493 15.243 14.6139 15.5449 14.5876 15.8478C14.5755 15.9996 14.5655 16.1515 14.5595 16.304C14.5595 16.3803 14.5541 16.4572 14.5528 16.5342V16.5529C14.4859 16.6077 14.419 16.6626 14.3555 16.7188C14.2369 16.8205 14.1203 16.9239 14.0057 17.0292C13.7769 17.2406 13.5535 17.46 13.3368 17.6895C13.1194 17.9217 12.9151 18.1658 12.7249 18.4207C12.5244 18.6847 12.3505 18.968 12.2059 19.2663L11.8848 19.9413L12.6332 19.8858L13.0205 19.857C12.9023 20.0465 12.7884 20.2379 12.6787 20.431C12.1623 21.3487 11.7392 22.316 11.416 23.3183C11.255 23.821 11.121 24.3319 11.0147 24.849L10.9097 25.3714H11.4354C12.4296 25.3529 13.4238 25.4162 14.4076 25.5608C15.3958 25.7062 16.3683 25.9436 17.3124 26.2699C18.2624 26.5969 19.1763 27.0205 20.0399 27.5343C20.4733 27.7921 20.8916 28.0746 21.2926 28.3805C21.6975 28.6856 22.0763 29.0239 22.4249 29.392C22.1017 28.998 21.7462 28.6317 21.3621 28.2969V28.2969Z" fill="#080C1B"/>
<path d="M29.9099 16.7872C29.9423 17.1514 29.8948 17.5183 29.7708 17.8622C29.2845 17.0595 27.9937 16.1958 27.9937 16.1958C27.9937 16.1958 28.0766 17.4241 27.7603 18.3018L28.3983 18.9132C28.4952 18.6098 28.5613 18.2973 28.5956 17.9807C29.174 18.3049 29.6377 18.8004 29.9232 19.3989C30.3526 18.8831 30.4657 18.1225 30.4657 18.1225C30.6841 18.4334 30.8598 18.7723 30.988 19.13L31.5565 18.8376C31.1084 17.5438 29.9099 16.7872 29.9099 16.7872Z" fill="white"/>
</g>
<path d="M54.376 2.06689L42.9116 9.05119L36.2319 17.9295L46.9147 11.3951L54.376 2.06689Z" fill="#FA305C"/>
<path d="M32.6889 2.36182L25.1466 6.9304L22.355 11.578L27.7802 8.46358L32.6889 2.36182Z" fill="white"/>
<path d="M20.2041 36.7593L15.3082 39.1909L11.1777 44.6679L17.7836 40.6368L20.2041 36.7593Z" fill="white"/>
<path d="M22.3199 37.7505L10.8555 44.7348L4.17578 53.6131L14.8585 47.0787L22.3199 37.7505Z" fill="#FA305C"/>
<path d="M15.9147 27.7119L-0.377518 37.634L-9.87012 50.2468L5.31131 40.9637L15.9147 27.7119Z" fill="#FA305C"/>
<path d="M40.1438 -7.59229L27.2514 0.27334L19.7397 10.272L31.7531 2.91299L40.1438 -7.59229Z" fill="#FA305C"/>
<path d="M47.8875 24C48.3223 24 48.6762 24.3528 48.6623 24.7874C48.4627 31.0458 45.8893 37.0062 41.4477 41.4478C37.0062 45.8893 31.0458 48.4627 24.7873 48.6623C24.3527 48.6762 24 48.3224 24 47.8875L24 46.5012C24 46.0664 24.3528 45.7154 24.7873 45.6996C30.2602 45.5012 35.4678 43.2402 39.354 39.354C43.2402 35.4678 45.5012 30.2603 45.6996 24.7873C45.7153 24.3528 46.0664 24 46.5012 24L47.8875 24Z" fill="white"/>
<path d="M24 0.112504C24 -0.322335 23.6472 -0.676153 23.2126 -0.662291C16.9542 -0.46268 10.9938 2.11074 6.55223 6.55226C2.11071 10.9938 -0.462705 16.9542 -0.662317 23.2126C-0.67618 23.6473 -0.322362 24 0.112477 24L1.49877 24C1.93361 24 2.28463 23.6472 2.30038 23.2127C2.49877 17.7398 4.75978 12.5322 8.64597 8.64599C12.5322 4.7598 17.7397 2.4988 23.2127 2.30041C23.6472 2.28465 24 1.93364 24 1.4988L24 0.112504Z" fill="white"/>
</g>
<defs>
<clipPath id="clip0">
<path d="M0 24C0 10.7452 10.7452 0 24 0V0C37.2548 0 48 10.7452 48 24V24C48 37.2548 37.2548 48 24 48V48C10.7452 48 0 37.2548 0 24V24Z" fill="white"/>
</clipPath>
<clipPath id="clip1">
<rect width="25.8429" height="19.7439" fill="white" transform="translate(10.9097 9.73926)"/>
</clipPath>
</defs>
</svg>
