<?xml version="1.0" encoding="utf-8"?>
<svg viewBox="0 0 25 25" fill="none" xmlns="http://www.w3.org/2000/svg">
  <rect x="19" y="17" width="3" height="1" fill="#FF002F"/>
  <rect x="19" y="18" width="4" height="1" fill="#FF002F"/>
  <rect x="18" y="19" width="5" height="1" fill="#FF002F"/>
  <rect x="18" y="20" width="6" height="1" fill="#FF002F"/>
  <rect x="18" y="21" width="6" height="1" fill="#FF002F"/>
  <rect x="18" y="22" width="5" height="1" fill="#FF002F"/>
  <rect x="18" y="23" width="4" height="1" fill="#FF002F"/>
  <rect x="18" y="24" width="2" height="1" fill="#FF002F"/>
  <rect x="20" y="24" width="3" height="1" fill="#AF051E"/>
  <rect x="22" y="23" width="2" height="1" fill="#AF051E"/>
  <rect x="23" y="22" width="2" height="1" fill="#AF051E"/>
  <rect x="24" y="18" width="1" height="4" fill="#AF051E"/>
  <rect x="23" y="17" width="1" height="3" fill="#AF051E"/>
  <rect x="22" y="17" width="1" height="1" fill="#AF051E"/>
  <rect x="18" y="16" width="5" height="1" fill="#AF051E"/>
  <rect x="17" y="17" width="2" height="1" fill="#FF3B00"/>
  <rect x="20" y="5" width="1" height="11" fill="#0AA604"/>
  <rect x="19" y="2" width="1" height="4" fill="#0AA604"/>
  <rect x="14" y="2" width="5" height="1" fill="#0AA604"/>
  <rect x="15" y="4" width="4" height="1" fill="#0AA604"/>
  <rect x="14" y="5" width="2" height="1" fill="#0AA604"/>
  <rect x="6" y="1" width="7" height="1" fill="#0AA604"/>
  <rect x="4" y="2" width="5" height="1" fill="#0AA604"/>
  <rect x="3" y="3" width="4" height="1" fill="#0AA604"/>
  <rect x="2" y="4" width="4" height="1" fill="#0AA604"/>
  <rect x="1" y="5" width="3" height="1" fill="#0AA604"/>
  <rect x="8" y="6" width="2" height="1" fill="#0AA604"/>
  <rect x="11" y="4" width="2" height="1" fill="#0AA604"/>
  <rect x="10" y="5" width="1" height="1" fill="#0AA604"/>
  <rect x="1" y="6" width="1" height="1" fill="#0AA604"/>
  <rect y="7" width="1" height="1" fill="#0AA604"/>
  <rect y="8" width="2" height="2" fill="#106315"/>
  <rect x="1" y="7" width="6" height="1" fill="#106315"/>
  <rect x="2" y="8" width="3" height="1" fill="#106315"/>
  <rect x="2" y="6" width="6" height="1" fill="#106315"/>
  <rect x="4" y="5" width="6" height="1" fill="#106315"/>
  <rect x="6" y="4" width="5" height="1" fill="#106315"/>
  <rect x="7" y="3" width="6" height="1" fill="#106315"/>
  <rect x="9" y="2" width="5" height="1" fill="#106315"/>
  <rect x="13" y="6" width="2" height="1" fill="#0AA604"/>
  <rect x="12" y="7" width="2" height="1" fill="#0AA604"/>
  <rect x="12" y="8" width="1" height="2" fill="#0AA604"/>
  <rect x="11" y="9" width="1" height="4" fill="#0AA604"/>
  <rect x="10" y="12" width="1" height="4" fill="#0AA604"/>
  <rect x="20" y="1" width="1" height="2" fill="#0AA604"/>
  <rect x="21" width="2" height="2" fill="#106315"/>
  <rect x="16" y="19" width="2" height="4" fill="#FF3B00"/>
  <rect x="17" y="23" width="1" height="1" fill="#FF3B00"/>
  <rect x="16" y="18" width="3" height="1" fill="#FF3B00"/>
  <rect x="9" y="17" width="3" height="1" fill="#FF002F"/>
  <rect x="9" y="18" width="3" height="1" fill="#FF002F"/>
  <rect x="8" y="19" width="6" height="1" fill="#FF002F"/>
  <rect x="8" y="20" width="6" height="1" fill="#FF002F"/>
  <rect x="8" y="21" width="6" height="1" fill="#FF002F"/>
  <rect x="8" y="22" width="5" height="1" fill="#FF002F"/>
  <rect x="7" y="23" width="4" height="1" fill="#FF002F"/>
  <rect x="8" y="24" width="2" height="1" fill="#FF002F"/>
  <rect x="10" y="24" width="3" height="1" fill="#AF051E"/>
  <rect x="11" y="23" width="3" height="1" fill="#AF051E"/>
  <rect x="13" y="22" width="2" height="1" fill="#AF051E"/>
  <rect x="14" y="18" width="1" height="4" fill="#AF051E"/>
  <rect x="13" y="17" width="1" height="2" fill="#AF051E"/>
  <rect x="12" y="17" width="1" height="1" fill="#AF051E"/>
  <rect x="12" y="18" width="1" height="1" fill="#AF051E"/>
  <rect x="11" y="16" width="2" height="1" fill="#AF051E"/>
  <rect x="8" y="16" width="3" height="1" fill="#FF3B00"/>
  <rect x="7" y="17" width="2" height="1" fill="#FF3B00"/>
  <rect x="6" y="19" width="2" height="4" fill="#FF3B00"/>
  <rect x="7" y="18" width="2" height="1" fill="#FF3B00"/>
  <rect x="6" y="18" width="1" height="1" fill="#FF002F"/>
</svg>