<svg width="834" height="834" xmlns="http://www.w3.org/2000/svg" xmlns:xlink="http://www.w3.org/1999/xlink" xml:space="preserve" overflow="hidden"><defs><clipPath id="clip0"><rect x="-971" y="687" width="834" height="834"/></clipPath><clipPath id="clip1"><rect x="-818" y="731" width="568" height="743"/></clipPath><clipPath id="clip2"><rect x="-818" y="731" width="568" height="743"/></clipPath></defs><g clip-path="url(#clip0)" transform="translate(971 -687)"><path d="M-966.5 1103C-966.5 875.183-781.818 690.5-554 690.5-326.183 690.5-141.5 875.183-141.5 1103-141.5 1330.82-326.183 1515.5-554 1515.5-781.818 1515.5-966.5 1330.82-966.5 1103Z" stroke="#FFFFFF" stroke-width="4.58333" stroke-linecap="butt" stroke-linejoin="miter" stroke-miterlimit="8" stroke-opacity="1" fill="#FFFFFF" fill-rule="evenodd" fill-opacity="1"/><g clip-path="url(#clip1)"><g clip-path="url(#clip2)"><path d="M618.21 329.841C595.477 316.691 569.089 309.114 540.927 309.114L386.397 309.114C429.075 309.131 463.662 343.718 463.662 386.397L463.662 540.945 463.662 618.227 540.945 618.227C569.107 618.227 595.477 610.65 618.227 597.5 635.175 587.687 650.099 574.75 662.184 559.471 683.035 533.136 695.51 499.863 695.51 463.662 695.493 406.467 664.402 356.566 618.21 329.841Z" fill="#D85111" fill-rule="nonzero" fill-opacity="1" transform="matrix(1.00099 0 0 1 -1065.71 483.601)"/><path d="M662.166 559.471C650.081 574.75 635.157 587.687 618.21 597.5 595.477 610.65 569.089 618.227 540.927 618.227L463.644 618.227 463.644 540.945 463.644 386.397C463.644 343.718 429.057 309.131 386.379 309.114L386.361 309.114C343.683 309.114 309.078 343.718 309.078 386.397L309.078 540.945 309.078 618.227 309.078 850.058 309.078 927.341 386.361 927.341 579.577 927.341C592.815 927.341 605.734 926.01 618.21 923.473 706.388 905.567 772.758 827.61 772.758 734.161 772.775 656.984 727.542 590.438 662.166 559.471Z" fill="#000000" fill-rule="nonzero" fill-opacity="1" transform="matrix(1.00099 0 0 1 -1065.71 483.601)"/></g></g></g></svg>