<?xml version="1.0" encoding="utf-8"?>
<!-- Generator: Adobe Illustrator 25.1.0, SVG Export Plug-In . SVG Version: 6.00 Build 0)  -->
<svg version="1.1"
	 id="Layer_1" xmlns:cc="http://creativecommons.org/ns#" xmlns:dc="http://purl.org/dc/elements/1.1/" xmlns:inkscape="http://www.inkscape.org/namespaces/inkscape" xmlns:rdf="http://www.w3.org/1999/02/22-rdf-syntax-ns#" xmlns:sodipodi="http://sodipodi.sourceforge.net/DTD/sodipodi-0.dtd" xmlns:svg="http://www.w3.org/2000/svg"
	 xmlns="http://www.w3.org/2000/svg" xmlns:xlink="http://www.w3.org/1999/xlink" x="0px" y="0px" viewBox="0 0 572.4 572.4"
	 style="enable-background:new 0 0 572.4 572.4;" xml:space="preserve">
<style type="text/css">
	.st0{fill:url(#circle35_1_);}
	.st1{fill:url(#path37_1_);}
	.st2{fill:#F0D9D6;stroke:#382D24;stroke-miterlimit:10;}
	.st3{fill:#B56052;}
	.st4{fill:#DA6C5E;}
	.st5{fill:#853327;}
	.st6{fill:#BF6838;}
	.st7{fill:#4A4B30;}
	.st8{fill:#772900;}
	.st9{fill:#59571D;}
	.st10{fill:#4A4015;}
	.st11{fill:#57581F;}
	.st12{fill:#D8A620;}
	.st13{fill:#5F5F2A;}
	.st14{fill:#B65F2F;}
	.st15{fill:#984414;}
	.st16{fill:#E5C1BE;}
	.st17{fill:url(#path89_1_);}
	.st18{fill:#320801;}
	.st19{fill:#F0D9D6;}
	.st20{fill:#E6CEBF;}
	.st21{fill:#370C04;}
	.st22{fill:#6F8663;}
	.st23{fill:#385352;}
	.st24{fill:#60F1D6;}
	.st25{fill:#58623F;}
	.st26{fill:#52551D;}
	.st27{fill:#620C00;}
	.st28{fill:#390E07;}
	.st29{fill:#D2857D;}
	.st30{fill:#DAA823;}
	.st31{fill:url(#path155_1_);}
	.st32{opacity:0.73;}
	.st33{fill:#E2C8BD;}
	.st34{fill:#69340F;}
	.st35{fill:#364232;}
	.st36{fill:#303C1D;}
	.st37{fill:#5F6B33;}
	.st38{fill:#595936;}
	.st39{fill:#E9CDCA;}
	.st40{fill:#36544A;}
	.st41{fill:#5E5E29;}
	.st42{fill:#D6584D;}
	.st43{fill:#55E9D6;}
	.st44{fill:#708064;}
	.st45{fill:#DC7165;}
	.st46{fill:#DCA9A3;}
	.st47{fill:#E7B529;}
	.st48{fill:#B15B30;}
	.st49{fill:#CF8C35;}
	.st50{fill:url(#path257_1_);}
	.st51{fill:#DDB3B0;}
	.st52{opacity:0.68;}
</style>
<sodipodi:namedview  bordercolor="#666666" borderopacity="1" gridtolerance="10" guidetolerance="10" id="namedview266" inkscape:current-layer="Layer_1" inkscape:cx="-232.74603" inkscape:cy="281.02813" inkscape:pageopacity="0" inkscape:pageshadow="2" inkscape:window-height="1017" inkscape:window-maximized="1" inkscape:window-width="1920" inkscape:window-x="-8" inkscape:window-y="-8" inkscape:zoom="0.72169675" objecttolerance="10" pagecolor="#ffffff" showgrid="false">
	</sodipodi:namedview>
<linearGradient id="circle35_1_" gradientUnits="userSpaceOnUse" x1="292.56" y1="567.82" x2="280.3" y2="26.2899" gradientTransform="matrix(1 0 0 -1 0 574)">
	<stop  offset="0" style="stop-color:#554231"/>
	<stop  offset="1" style="stop-color:#26201C"/>
</linearGradient>
<circle id="circle35" class="st0" cx="286.2" cy="286.2" r="279.5"/>
<linearGradient id="path37_1_" gradientUnits="userSpaceOnUse" x1="559.8693" y1="383.28" x2="560.6393" y2="-172.8" gradientTransform="matrix(1 0 0 -1 -274.05 376.48)">
	<stop  offset="0" style="stop-color:#D84954"/>
	<stop  offset="0.98" style="stop-color:#B43651"/>
</linearGradient>
<path id="path37" class="st1" d="M286.2,0C128.2,0,0,128.1,0,286.2s128.2,286.3,286.2,286.3s286.2-128.2,286.2-286.3
	S444.3,0,286.2,0z M286.2,553.6c-147.7,0-267.4-119.7-267.4-267.4S138.5,18.8,286.2,18.8s267.4,119.7,267.4,267.4
	S434,553.6,286.2,553.6z"/>
<path id="path39" class="st2" d="M517.2,125.6c-1.7-8.3-5.2-13.4-9.5-14.3c-15-3.1-30.2,1.3-34.6,2.9c-11.7,4.2-27.7,12.5-37.6,19.1
	c-13.6,9-36.3,23-40.5,26.2s-10.4,7.1-10.4,7.1s-1.7-0.3-4.5-0.6c-2.9-0.3-7.2-0.7-12.3-0.8c-10-0.2-17.4,8.9-17.4,8.9l-0.5-0.4
	c-16.3-12.2-30.8-13.2-41.9-11.7c-9.9,1.3-13.4,7.5-14.2,9l-0.2,0.3l-2.7-1.5c-39.5-36-83-33.2-86.5-35.8h-0.1c0,0,0,0,0-0.1
	c-2.7-2.7-29.6-30.1-37.4-40.2s-17.5-16.3-26.1-20.8s-31.7-7-43.1,0.7c-4.4,3.1-7.8,7.3-9.9,12.3c-3.1,6.8-4.2,14.1-5,18.4
	c-1.1,5.8-0.3,22.2,0,31.8c0.1,2.3,0.1,4.2,0.1,5.5c0.1,8.9,0.9,17.8,2.5,26.5c1.2,5.1,6.5,17.5,8.2,23.8s3.7,28.9,4.9,35.6
	c0.1,0.5,0.2,1.1,0.2,1.6c0.5,6.2-2.1,12.7-2.6,20.2c-0.5,8.2,3.6,12.4,12.4,24s35.1,32.1,35.1,32.1s-2.5,8.4,1,19.7
	s10.6,27.4,10.6,27.4s-4.7,12.6,11.1,37c0,0,3,4.4-4.9,16.8c-7.8,12.2-58.1,72.3-59.6,74.2c1.4,1.3,2.8,2.6,4.1,3.8
	c49.1,44.6,113.1,69.3,179.5,69.2c19.3-0.8,38.5-3.3,57.4-7.5c29.3-6.8,58.2-18.7,59.2-19.2c-4.9-16.6-19.9-39.9-20.9-47.8
	c-1-8.3,7.3-23,7.3-23c6.4,1.3,13.1,0.4,18.9-2.5c12-6.1,25.4-19.6,31.2-32.5c5.8-12.9,3.6-31,3.6-31c0.9-1.4,1.8-2.8,2.6-4.2
	c13.4-22,14.7-35.4,13.9-46.3c-0.9-11.6-9.5-23.8-10-25.5c-0.5-1.7,1.2-9,1.9-10.4s26.5-39.5,26.5-39.5l2.2-0.5
	c11.1-4.9,6.8-15.3,6.8-15.3s4.4-4.8,6-8.5s-3.4-11.1-3.4-11.1C515.5,184.7,521.4,145.7,517.2,125.6L517.2,125.6z M149.8,212.1v-0.3
	l0.9,0.5L149.8,212.1z M352.2,185.1c-0.2-0.8-0.3-1.2-0.3-1.2l-0.4-0.5c0.1,0.1,0.2,0.1,0.3,0.2l0,0l0.1,0.1
	C352.3,184.1,352.4,184.6,352.2,185.1z M472.5,263.5c0.2-0.1,0.4-0.2,0.7-0.3c0.4-0.1,0.9-0.2,1.3-0.1
	C473.8,263.3,473.2,263.4,472.5,263.5L472.5,263.5z M480.5,229.7c0,0,0-0.1,0-0.1V229.7L480.5,229.7z"/>
<path id="path41" class="st3" d="M517.2,125.6c4.2,20.1-1.7,59.2-28.6,103.1c-0.8-0.3-1.6-0.6-2.5-0.8l0.1-0.4
	c0,0,9.6-17.7,15.1-31.4c5.5-13.7,12.4-30,13.8-45.8c1.1-12.7,1.5-19.7,0.4-24.4L517.2,125.6z"/>
<image style="overflow:visible;enable-background:new    ;" width="1185" height="1134" id="image43" xlink:href="6D5AE6AA.png"  transform="matrix(0.12 0 0 0.12 300.52 314.21)">
</image>
<path id="path45" class="st3" d="M517.2,125.6l-1.7,0.4c-0.3-1.1-0.6-2.1-1.1-3.1c-2.3-4.7-4.5-8.3-11.5-9.7
	c-5.7-1.1-18.9,0.1-34.3,6.3c-3.9,1.6-7.7,3.3-11.4,5.4c-20,10.9-65,41.6-67.8,42.9c-1.1,0.5-2.3,0.6-3.4,0.3c-2-0.6-4-1.3-6-2.1
	l0,0c2.9,0.3,4.5,0.6,4.5,0.6s6.1-3.9,10.4-7.1s26.9-17.2,40.5-26.2c9.9-6.6,25.9-14.9,37.6-19.1c4.3-1.6,19.6-5.9,34.6-2.9
	C512.1,112.1,515.5,117.2,517.2,125.6L517.2,125.6z"/>
<path id="path47" class="st4" d="M515.5,126c1.1,4.7,0.7,11.6-0.4,24.4c-1.4,15.8-8.3,32.2-13.8,45.8c-5.5,13.7-15.1,31.4-15.1,31.4
	l-0.1,0.4c-1.3-0.4-2.7-0.5-4-0.2c-0.6-1.3-1.3-2.6-2.2-3.8c-6.8-9.2-26.9-27.5-48.3-38.5c-6.2-3.1-12.6-5.9-19.1-8.2l0.9-1
	c0,0,27.7-33.4,24.2-30.9c0.5-0.5,17.2-17,31.1-25.8c15.4-6.2,28.7-7.4,34.3-6.3c7,1.4,9.2,5,11.5,9.7
	C514.9,123.9,515.3,124.9,515.5,126L515.5,126z"/>
<path id="path49" class="st5" d="M488.6,228.7c0,0,4.9,7.3,3.4,11.1s-6,8.5-6,8.5s4.2,10.4-6.8,15.3l-2.2,0.5
	c-0.8-0.5-1.7-0.9-2.6-1c-0.4,0-0.9,0-1.3,0.1l-0.1-0.3c1.4-0.6,2.7-1.4,3.9-2.4c1.7-1.5,2.9-3.4,3.5-5.5c0,0,0-0.1,0-0.3
	c0-1.1,0.1-2.2,0.3-3.3c0.3-1.7,0.8-3.4,1.5-4.9l0,0c0.4-0.9,0.9-1.8,1.6-2.5l0.5-0.5c3.1-3.6,4.4-4.3,3.8-8
	c-0.4-2.2-2.9-3.8-4.9-4.7c-0.3-1-0.7-2.1-1.1-3c1.3-0.3,2.7-0.2,4,0.2C486.9,228.1,487.8,228.4,488.6,228.7L488.6,228.7z"/>
<path id="path51" class="st6" d="M488.1,235.5c0.6,3.6-0.8,4.4-3.8,8c0.4-4.3,0-8.6-1.1-12.7C485.3,231.7,487.8,233.3,488.1,235.5z"
	/>
<path id="path53" class="st7" d="M483.2,230.8c1.1,4.1,1.5,8.4,1.1,12.7l-0.5,0.5c-0.6,0.8-1.2,1.6-1.6,2.5c0.5-3.5,1-10.3-1.8-16.8
	C481.4,230,482.3,230.4,483.2,230.8z"/>
<path id="path55" class="st8" d="M482.1,227.7c0.4,1,0.8,2,1.1,3c-0.9-0.4-1.8-0.7-2.7-1l-0.1-0.1
	C480.5,228.7,481.2,227.9,482.1,227.7z"/>
<path id="path57" class="st9" d="M480.5,229.8c2.7,6.5,2.3,13.3,1.8,16.8l0,0c0,0-3,0.2-7.7,0.2
	C477.6,241.5,479.6,235.7,480.5,229.8L480.5,229.8z"/>
<path id="path59" class="st10" d="M482.3,246.6c-0.7,1.6-1.2,3.2-1.5,4.9c0,0-4,1.7-11.7,2.1c2.1-2,4-4.3,5.5-6.9
	C479.3,246.8,482.3,246.6,482.3,246.6L482.3,246.6z"/>
<path id="path61" class="st7" d="M482.1,227.7c-0.9,0.2-1.6,1-1.6,1.9c-0.3-0.8-0.7-1.5-1.1-2.2l0,0c-0.3-0.5-0.6-1.1-1-1.6
	c-6.8-10.2-25.2-23.6-35.2-30.6s-25.7-14.7-31.1-16.5l-0.6-0.2l1.1-1.2c6.5,2.4,12.9,5.1,19.1,8.3c21.5,11,41.5,29.2,48.4,38.5
	C480.8,225.1,481.5,226.4,482.1,227.7L482.1,227.7z"/>
<path id="path63" class="st11" d="M480.5,229.6c0,0,0,0.1,0,0.1c-0.9,6-2.9,11.7-5.9,17c-1,0-2.1,0-3.2,0c3.3-6.2,6-12.6,8-19.3
	C479.8,228.1,480.1,228.9,480.5,229.6z"/>
<path id="path65" class="st7" d="M480.8,251.5c-0.2,1.1-0.3,2.2-0.3,3.3c-1.5,0.7-4.5,1.4-10.9,1.7c-12.6,0.5-37.3-4.4-59.9-17.9
	c-14.1-8.4-26.9-17.6-36-26.9c-5.5-5.6-9.7-11.2-12.1-16.8c-5.6-12.9,0-20.9,4.6-24.8l0.6,1.5c-2.5,2.8-5.2,6.6-5.2,10.7
	c-0.2,7.8,0.1,17.4,19.6,34c10.1,8.5,21.1,15.9,32.8,22c11.6,6.1,23.5,10.8,34.2,13.2c6,1.4,12.2,2.2,18.4,2.2c0.9,0,1.8,0,2.6-0.1
	C476.8,253.2,480.8,251.5,480.8,251.5L480.8,251.5z"/>
<path id="path67" class="st12" d="M480.5,254.8c0,0.2,0,0.3,0,0.3c-0.6,2.1-1.9,4.1-3.5,5.5c-38.1,2.1-55.1-11.8-73.5-22.4
	c-3.5-2-6.9-4.2-10-6.4c-7.8-5.6-15-11.9-21.7-18.8l2-1.4c9.2,9.3,21.9,18.5,36,26.9c22.6,13.5,47.3,18.4,59.9,17.9
	C476,256.2,479,255.5,480.5,254.8L480.5,254.8z"/>
<path id="path69" class="st13" d="M479.4,227.4L479.4,227.4c-2,6.7-4.7,13.2-8,19.3c-9.2-0.2-22.4-1.2-33.2-5.1
	c0.4-0.4,0.6-0.9,0.7-1.5c-24.3-8-27.9-16.2-39.3-25.4c-11.4-9.2-15.5-17.2-19.4-22c-3.3-4-8.1-12.5-9.5-11.9l-3.9-9.3
	c0.8-0.9,1.7-1.8,2.6-2.6c2.4-0.1,4.9,0,7.4,0.1c1.7,0.1,3.3,0,5-0.1c7.2,2.3,20.6,6.6,27.3,8.8l-19.4,22.5c0,0,0.8,1.7,2.5,0
	c1.4-1.4,14.3-16,19.3-21.6l0.6,0.2c5.4,1.9,21.1,9.5,31.2,16.5c10,7,28.4,20.4,35.2,30.6C478.8,226.3,479.1,226.9,479.4,227.4
	L479.4,227.4z"/>
<path id="path71" class="st5" d="M476.9,260.6c-1.1,1-2.5,1.8-3.9,2.4l0.1,0.3c-0.2,0.1-0.4,0.2-0.7,0.3c-1.9,0.3-3.7,0.4-5.6,0.5
	c-1.1,0-2.2,0-3.4,0c-9.1-0.3-18.1-1.8-26.8-4.5c-1.4-0.4-2.9-1-4.5-1.6c-0.5-0.3-1.1-0.5-1.7-0.8l-0.5-0.2l0,0
	c-11.3-4.9-25.3-13.8-38.2-23.1l1.4-2.1c3.2,2.2,6.5,4.4,10,6.4C421.8,248.8,438.8,262.8,476.9,260.6L476.9,260.6z"/>
<path id="path73" class="st5" d="M474.4,263.1c0.9,0.1,1.8,0.5,2.6,1c0,0-25.9,38.1-26.5,39.5s-2.4,8.7-1.9,10.4l-1.3,4.6
	c-0.6-1.2-0.9-1.9-0.9-1.9c-0.2-2-0.1-4.1,0.1-6.1c1-2.8,1.7-5.7,2-8.7c0.3-0.9,0.7-1.8,1.1-2.7c4.3-9.6,21.8-34.8,21.8-34.8
	c0.3-0.4,0.6-0.7,1-0.9C473.2,263.4,473.8,263.3,474.4,263.1L474.4,263.1z"/>
<path id="path75" class="st10" d="M471.3,246.7c1.1,0,2.2,0,3.2,0c-1.5,2.5-3.3,4.9-5.5,6.9c-0.8,0-1.7,0.1-2.6,0.1
	C468.4,251.5,470,249.2,471.3,246.7L471.3,246.7z"/>
<path id="path77" class="st14" d="M472.5,263.5c-0.4,0.2-0.7,0.5-1,0.9c0,0-17.5,25.2-21.8,34.8c-0.4,0.9-0.8,1.8-1.1,2.7
	c0.1-0.5,0.1-1,0.2-1.4l0,0v-4.9l0.2-0.3c0-2.4-0.1-4.5-0.3-6.3l18.2-24.8C468.7,263.9,470.6,263.8,472.5,263.5z"/>
<path id="path79" class="st10" d="M471.3,246.7c-1.4,2.5-3,4.9-4.8,7c-6.2,0-12.4-0.8-18.4-2.2c-10.7-2.5-22.6-7.1-34.2-13.2
	l0.8-1.5c2.3,1.2,4.8,2.4,7.2,3.3c11.2,4.5,14.9,3,16.2,1.5C449,245.5,462.2,246.5,471.3,246.7L471.3,246.7z"/>
<path id="path81" class="st15" d="M466.8,264l-18.2,24.8c0-0.1,0-0.2,0-0.4c-0.1-0.7-0.2-1.6-0.4-2.5l0.4-0.1l14.9-21.9
	C464.7,264,465.8,264,466.8,264z"/>
<path id="path83" class="st4" d="M463.5,264l-14.9,21.9l-0.4,0.1c-1.4-7.1-4.2-13.9-8-20l-1-0.7c0-0.4-0.1-0.7-0.2-1.1
	c-1.8-2.6-4.1-4.7-6.8-6.3c1.5,0.6,3,1.1,4.5,1.6C445.4,262.2,454.4,263.7,463.5,264z"/>
<path id="path85" class="st5" d="M458.7,339.5c0.8,10.9-0.5,24.3-13.9,46.3l-2.5-1.5c3.3-5.4,12-21.2,12.4-34.3
	c0.4-11.7-4.1-23.9-6.7-29.8c-0.3-0.7-0.5-1.2-0.8-1.7l1.3-4.6C449.1,315.7,457.8,327.9,458.7,339.5L458.7,339.5z"/>
<path id="path87" class="st16" d="M457.2,124.8c3.7-2,7.5-3.8,11.4-5.3c-13.8,8.8-30.6,25.3-31.1,25.8l0,0
	c-3.6,2.6-26.9,30.3-26.9,30.3l-0.6,0.7c-10.5-3.8-20.2-6.5-25.6-7.9c0.6-0.1,1.2-0.3,1.6-0.4c1.1,0.3,2.3,0.1,3.4-0.3
	C392.3,166.5,437.2,135.7,457.2,124.8L457.2,124.8z"/>
<linearGradient id="path89_1_" gradientUnits="userSpaceOnUse" x1="699.4199" y1="55.71" x2="727.71" y2="-2.92" gradientTransform="matrix(1 0 0 -1 -274.05 376.48)">
	<stop  offset="0.14" style="stop-color:#F0D9D6"/>
	<stop  offset="0.69" style="stop-color:#D3897E"/>
</linearGradient>
<path id="path89" class="st17" d="M448.1,320.3c2.5,5.9,7,18.1,6.7,29.8c-0.4,13.1-9.2,28.9-12.4,34.3c-0.8,1.2-1.2,2-1.2,2
	c-5.9-18.6-22-37.2-27-41.4C436.3,338.3,445.4,325,448.1,320.3z"/>
<path id="path91" class="st18" d="M449,295.1l-0.2,0.3v5l0,0c0,0.5-0.1,1-0.2,1.4c-1,2.8-1.7,5.7-2,8.7c-0.3,0.7-0.6,1.5-1,2.2
	l-0.8,1.5c-0.2,0.3-0.3,0.6-0.5,0.9c-2.7,4.1-7.7,10.8-12.4,12.7c0-0.8,0.1-1.6,0.3-2.5c2.9-1.7,6.6-5.7,10.3-11.4
	c5-7.6,4.7-19.1,4.1-25.4c-0.6-5.7-4.8-18.7-11.1-25.5c1.1,0.6,2.5,1.3,3.8,2.1l1,0.7c3.8,6.2,6.6,12.9,8,20
	c0.2,0.9,0.3,1.8,0.4,2.5c0,0.1,0,0.2,0,0.4C448.8,290.6,449,292.8,449,295.1z"/>
<path id="path93" class="st19" d="M447.3,318.6c0.2,0.5,0.5,1,0.8,1.7c-2.6,4.8-11.8,18-34,24.6c-0.4-0.3-0.7-0.6-1.2-0.8
	c-1.6-0.8-3.3-1.3-5-1.4c10.5,9.2,18.2,20.5,23.3,29.9c-3,2.8-14.1,12.1-25.5,7.9c1.8-6,0.8-12.4-2.9-17.5c-4.2-5.9-19-3-22.2-5.8
	c-16.9-14.3-44.4-4.2-44,8.8c0,0.8,0.1,1.6,0.2,2.3l0,0c-0.1,1.6,0.3,3.1,1.2,4.5c2.1,4.6,6.3,6.8,12.1,10.7c3.6,2.5,6.9,5,8.7,6.5
	l0.2,0.1c2.7,2.3,4.7,5.3,5.7,8.7c-5.8,4.3-23.5,16.7-43.3,20.9c-20.7,4.4-53,2.6-62,2c-4-6.6-5.7-12.6-7.9-19.2
	c-4.2-12.5-3.2-22-3.9-24.2s-6.2-4.7-7.5-4.7c-0.3,0-0.4,0.2-0.4,0.5c-2.1-1.1-6-3.2-13.5-7c-15.5-8-50.7-28.9-59.7-40.2
	c-8-10.1-16-21-19.7-24.4c0.1-1.1,0.5-2.1,1-3c0,0,1.7-8.8,9.9-20.9c8.2-12.1,21.5-19.7,21.5-19.7l1.7,4.8c0,0,0.8-3.9,5-9.2
	c4.2-5.3,27.6-18.7,30.8-20.6c1.4-0.8,2.7-2,3.6-3.4c0.6-0.8,1.2-1.6,2-2.3l7.7-6.5c23.2,2.5,46.9,0.4,57.8-4.8
	c13.4-6.3,12.2-23.6,12.1-24.6l0,0c0.3-2,0.4-4,0.3-6c4.2,1.1,18.8-0.3,25.8,0.6c8.3,1,18,2.4,21.3,6.6c-0.7-3-2.7-5.5-5.4-6.9
	c0,0,0.5-2.6,8.4-1.5c3.9,13.2,11.6,24.9,22.2,33.6c5.7,4.7,12.5,9.9,19.5,14.9c12.9,9.3,26.9,18.2,38.2,23.1
	c-4.5-1.4-9.1,0-13.7,4.3c-14.4,13.3-17.8,29.2-19.9,38.6c-0.4,2-0.9,4-1.5,6c-0.5,1.3-0.9,2.6-1.2,3.9c-1.4,6.3-2.3,12.7-2.8,19.1
	c-0.1,0.5,0.3,1,0.8,1.1c0.1,0,0.2,0,0.3,0c0.4,0,0.8-0.2,1-0.6c0.3-0.7,1.2-2.5,1.6-3.3c1.3-0.1,2.6-0.1,3.8,0.1
	c1,0.1,2,0.1,3.2,0.2c1,0,2,0.1,3.2,0.1c2.8,0,7.5,0.5,12.1,0.9c5.5,0.5,10.7,1.1,13,0.8c0.6-0.1,1.3-0.2,1.8-0.5
	c4.7-1.9,9.7-8.6,12.4-12.7c0.2-0.3,0.4-0.6,0.5-0.9l0.8-1.5c0.3-0.7,0.7-1.4,1-2.2c-0.3,2-0.3,4.1-0.1,6.1
	C446.5,316.6,446.8,317.4,447.3,318.6L447.3,318.6z M395.1,269c1.5-3.6,6.1-11.5,2-7.4s-8.3,15-8.5,16.7s1,1.8,1,1.8
	C391.3,277.9,393.5,272.6,395.1,269z M312.2,322.3c0.4-0.8,0.2-1.7-0.5-2.2c0,0-4.8-3.8-7.6-16.9c-0.2-0.9-0.4-1.9-0.6-2.9
	c-3.3-16.2-9.5-46.3-34.5-55.7c-1.8-0.7-3.6-1.3-5.5-1.7c-16.5-4.4-38.9-3.2-59,7.7c-14.2,7.7-25.8,19.5-33.4,33.7
	c-0.5,0.9-0.1,1.9,0.7,2.4c0.3,0.2,0.7,0.2,1.1,0.2l0.4-0.1c0.2,3.3,1,9.4,4.7,12.4l0.3,0.3c0.8,0.6,1.5,1.3,2.3,2.1l0.5,0.4
	c3.9,3.7,9.2,8.8,21.3,15.3c9.4,5,19.1,9.6,32.2,12.1c7.2,1.3,14.5,2,21.9,1.9c4.7,0,9.7-0.2,15.2-0.7c7.4-0.6,14.6-2.5,21.2-5.6
	c5.6-2.4,9.2-4,17.1-1.7C310.9,323.5,311.8,323.1,312.2,322.3L312.2,322.3z M306.7,284.4c1-8.8,5.4-46.5-20.3-56.9
	s-52.9,0.6-48.2,4.9s26.5,4.8,45.3,16.5C302.2,260.7,306.7,284.4,306.7,284.4L306.7,284.4z"/>
<path id="path95" class="st18" d="M446.5,310.5c0.3-3,1-5.9,2-8.7C448.2,304.8,447.5,307.8,446.5,310.5z"/>
<path id="path97" class="st20" d="M446.5,288.7c0.6,6.2,0.9,17.8-4.1,25.4c-3.7,5.7-7.4,9.7-10.3,11.4c1-5.6,4.3-14.3,4.7-16.6
	c0,0,5-13.5,2.4-24.4s1.2-14.9-2.4-18.2c-3.4-3-4.3-4.4-4.4-4.6c0.1,0,1.3,0.6,3,1.5C441.7,270,446,282.9,446.5,288.7L446.5,288.7z"
	/>
<path id="path99" class="st21" d="M439.2,284.4c2.6,11-2.4,24.4-2.4,24.4c0.5-2.7-2.6-14-16.8-13.8c-14.3,0.2-22.9,15.1-22.9,15.1
	c-0.4,0.1-0.8,0.1-1.1,0.1c0.3-1.2,0.6-2.4,1.1-3.6c0.7-2.1,1.2-4.2,1.6-6.3c2-9.2,5.4-24.7,19.3-37.5c4.1-3.9,8.2-5.1,12-3.7
	c2.1,0.9,4,2.3,5.5,4c-1.6-0.8-2.8-1.4-3-1.5c0.1,0.2,1,1.5,4.4,4.6C440.4,269.5,436.6,273.5,439.2,284.4L439.2,284.4z M413.2,282.2
	c5.7-3.8,2.9-8,2.9-8C405.8,272.3,408.6,285.2,413.2,282.2L413.2,282.2z"/>
<image style="overflow:visible;enable-background:new    ;" width="2102" height="1267" id="image101" xlink:href="6D5AE6AE.png"  transform="matrix(0.12 0 0 0.12 223.24 336.65)">
</image>
<path id="path103" class="st18" d="M439,264.2c0.1,0.4,0.1,0.7,0.2,1.1c-1.3-0.8-2.7-1.5-3.8-2.1c-1.5-1.7-3.4-3.1-5.5-4
	c-3.8-1.4-7.8-0.1-12,3.7c-13.9,12.9-17.3,28.3-19.3,37.5c-0.4,2.1-0.9,4.2-1.6,6.3c-0.4,1.2-0.8,2.4-1.1,3.6
	c-0.7,0.1-1.4-0.1-2.1-0.4c0.3-1.3,0.7-2.6,1.2-3.9c0.6-2,1.1-4,1.5-6c2.1-9.5,5.5-25.3,19.9-38.6c4.6-4.3,9.2-5.7,13.7-4.3l0,0
	l2.1,0.9C434.9,259.5,437.2,261.6,439,264.2L439,264.2z"/>
<path id="path105" class="st22" d="M438.7,240.1c0,0.6-0.3,1.1-0.7,1.5c-1.3,1.5-5,3-16.2-1.5c-2.5-1-4.9-2.1-7.2-3.3
	c-9.7-5.2-11.1-10-22.2-17.6c-13.4-9.2-19.6-24-19.9-28.6c-0.3-4.6-2.4-6.1-2.4-8.3c0-0.8,0.2-1.2,0.4-1.4c1.4-0.6,6.2,7.9,9.5,11.9
	c3.9,4.8,8,12.8,19.4,22S414.4,232.1,438.7,240.1L438.7,240.1z"/>
<path id="path107" class="st5" d="M437.6,145.3c3.5-2.5-24.2,30.9-24.2,30.9l-0.9,1l-2.5-0.9l0.6-0.7
	C410.7,175.6,433.9,147.8,437.6,145.3L437.6,145.3z"/>
<path id="path109" class="st23" d="M420,295.1c14.3-0.3,17.3,11.1,16.8,13.8c-0.4,2.2-3.7,11-4.7,16.6c-0.7,0.5-1.5,0.8-2.3,0.9
	c-2,0.2-7.3-0.3-12.5-0.8c-4.6-0.5-9.4-1-12.3-1c-1.9,0-3.6-0.1-5.1-0.2c-6.3-7.8-2.8-14.2-2.8-14.2S405.7,295.4,420,295.1
	L420,295.1z"/>
<path id="path111" class="st18" d="M432.1,325.4c-0.2,0.8-0.2,1.6-0.3,2.5c-0.6,0.3-1.2,0.4-1.8,0.5c-2.2,0.3-7.4-0.3-13-0.8
	c-4.6-0.5-9.3-0.9-12.1-0.9c-1.1,0-2.2,0-3.2-0.1v0c-0.7-0.7-1.3-1.4-1.9-2.1c1.5,0.1,3.2,0.2,5.1,0.2c2.9,0,7.7,0.5,12.3,1
	c5.2,0.5,10.5,1.1,12.5,0.8C430.5,326.2,431.4,325.9,432.1,325.4L432.1,325.4z"/>
<path id="path113" class="st18" d="M430.6,257.2c0.6,0.2,1.1,0.5,1.7,0.8l-2.1-0.9L430.6,257.2z"/>
<path id="path115" class="st24" d="M416.1,274.2c0,0,2.8,4.2-2.9,8C408.6,285.2,405.8,272.3,416.1,274.2z"/>
<path id="path117" class="st25" d="M414.7,236.8l-0.8,1.5c-11.7-6.1-22.7-13.5-32.8-22c-19.4-16.6-19.8-26.2-19.6-34
	c0.1-4.1,2.7-8,5.2-10.7l3.8,9.4c-0.3,0.1-0.4,0.5-0.4,1.4c0,2.2,2,3.8,2.4,8.3s6.5,19.4,19.9,28.6
	C403.6,226.8,404.9,231.6,414.7,236.8L414.7,236.8z"/>
<path id="path119" class="st7" d="M410,176.3l2.5,0.9l-1.1,1.3l-2.5-0.8L410,176.3z"/>
<path id="path121" class="st7" d="M410,176.3l-1.1,1.3c-6.7-2.2-20.1-6.5-27.3-8.8c0.9-0.1,1.8-0.2,2.8-0.4
	C389.8,169.8,399.6,172.6,410,176.3z"/>
<path id="path123" class="st26" d="M409,177.6l2.5,0.8c-5,5.7-18,20.3-19.3,21.6c-1.7,1.7-2.5,0-2.5,0L409,177.6z"/>
<path id="path125" class="st27" d="M400.4,380c0.9-0.7,2.1-0.5,2.8,0.3c0.3,0.4,0.4,0.8,0.4,1.3c-0.1,0.9-0.2,1.7-0.4,2.6
	c-0.8,3.4-6.7,9.2-11.2,11.3c-3,1.4-5.8,0.5-4.3-2C390.5,388.8,396.8,382.8,400.4,380L400.4,380z"/>
<path id="path127" class="st18" d="M401.7,326.5L401.7,326.5c-1.2,0-2.3-0.1-3.2-0.2c-1.3-0.1-2.5-0.2-3.8-0.1
	c-0.5,0.8-1.3,2.6-1.6,3.3c-0.2,0.4-0.6,0.6-1,0.6c-0.1,0-0.2,0-0.3,0c-0.5-0.1-0.9-0.6-0.8-1.1c0.5-6.4,1.5-12.8,2.8-19.1
	c0.7,0.3,1.4,0.4,2.1,0.4c-1,4.7-1.8,9.4-2.3,14.2c0.6-0.2,1.3-0.4,2-0.3c0.8,0,1.8,0.1,3,0.2l1.2,0.1
	C400.3,325.1,401,325.8,401.7,326.5L401.7,326.5z"/>
<path id="path129" class="st20" d="M399.8,324.3l-1.2-0.1c-1.2-0.1-2.2-0.2-3-0.2c-0.7,0-1.4,0.1-2,0.3c0.5-4.8,1.3-9.5,2.3-14.1
	c0.4,0,0.8,0,1.1-0.1C397,310.2,393.4,316.5,399.8,324.3L399.8,324.3z"/>
<path id="path131" class="st28" d="M397,261.6c4.2-4.1-0.4,3.8-2,7.4c-1.6,3.6-3.7,8.8-5.5,11.1c0,0-1.2-0.2-1-1.8
	C388.7,276.7,392.9,265.7,397,261.6z"/>
<path id="path133" class="st5" d="M393.3,231.8l-1.4,2.1c-7.1-5.1-13.8-10.2-19.5-14.9c-10.6-8.7-18.3-20.4-22.2-33.6
	c0.6,0.1,1.2,0.2,1.8,0.3c0.1-0.2,0.2-0.4,0.3-0.6c2,6.5,5.4,12.4,9.9,17.5c2.6,3,5.8,6.6,9.5,10.4
	C378.3,219.9,385.5,226.2,393.3,231.8z"/>
<path id="path135" class="st5" d="M386.1,168.1c-0.5,0.1-1,0.3-1.6,0.4c-0.9,0.2-1.8,0.3-2.8,0.4c-1.7,0.2-3.3,0.2-5,0.1
	c-2.5-0.1-5-0.2-7.4-0.1c-0.6,0-1.2,0-1.9,0.1c-4.5,0.3-8.5,1.4-10.8,4.5c-2.3,3.1-3.9,6.6-4.7,10.3l-0.1-0.1l0,0
	c-0.1-0.5-0.4-1.7-0.8-3.2c-0.3-1.5-0.7-3.4-1-5.1c-0.1-0.6-0.2-1.1-0.2-1.7l0.5,0.4c0,0,7.3-9,17.4-8.9c5.1,0.1,9.3,0.4,12.3,0.8
	l0,0C382,166.8,384,167.5,386.1,168.1L386.1,168.1z"/>
<path id="path137" class="st27" d="M378.3,360c4.5,3.2,2.1,4.8,2.1,4.8c-3.7,0-3.1-0.8-6.7-3.8c-3.7-3-3.7-4.2-2.6-4.9
	S373.8,356.9,378.3,360L378.3,360z"/>
<path id="path139" class="st29" d="M368.9,440.3c8.2,3.1,14.1,11.4,14.1,11.4c-7.5,6.3-30.6,10.5-46.3,10.7
	c-15.7,0.2-22.7-5.6-22.7-5.6c5.9-1.5,11.8-2.4,17.9-2.9C339.9,453.5,360.6,437.2,368.9,440.3L368.9,440.3z"/>
<path id="path141" class="st12" d="M373.6,211.6l-2,1.4c-3.7-3.8-6.9-7.4-9.5-10.4c-4.5-5.1-7.9-11.1-9.9-17.5
	c0.2-0.5,0.1-1-0.3-1.3c0.8-3.7,2.4-7.2,4.7-10.3c2.3-3.2,6.3-4.2,10.8-4.5c-0.4,0.3-0.9,0.7-1.4,1.1c-4.7,3.9-10.2,11.9-4.6,24.8
	C363.9,200.4,368.1,206,373.6,211.6L373.6,211.6z"/>
<path id="path143" class="st27" d="M370.7,403.1c0,3.2,0.8,6.9,0,8.8s-6-3.4-3.5-11.8C367.2,400,370.7,399.8,370.7,403.1z"/>
<path id="path145" class="st7" d="M367.5,168.9c0.6,0,1.2-0.1,1.9-0.1c-0.9,0.8-1.8,1.7-2.6,2.6l-0.6-1.5
	C366.6,169.6,367,169.2,367.5,168.9z"/>
<path id="path147" class="st27" d="M357.2,377.7c3.8,1.8,12.1,4.7,11.1,8.7s-4.3,8.2-9.2,4l-0.2-0.2l-0.2-0.1
	c-0.1-0.1-0.3-0.3-0.4-0.4c-2.6-2.2-5.4-4.3-8.2-6.1c-4.7-3.2-9.8-6.8-12.1-10.7c-0.6-1.4-1-2.9-1.2-4.5l0,0
	c2.2-0.4,4.5,0.6,5.6,2.5C346.7,377.2,353.3,375.9,357.2,377.7L357.2,377.7z"/>
<path id="path149" class="st5" d="M352,183.9c0,0,0.1,0.4,0.3,1.2c-0.1,0.2-0.2,0.4-0.3,0.6c-0.6-0.1-1.2-0.2-1.8-0.3
	c-8-1.1-8.4,1.5-8.4,1.5c2.7,1.4,4.6,3.9,5.4,6.9c-3.3-4.2-13-5.6-21.3-6.6c-7.1-0.9-21.6,0.6-25.8-0.6c-0.7-0.2-1.2-0.5-1.2-0.8
	s-0.1-1.1-0.1-1.8h2.3c7.1-0.1,23-0.3,28.3,0.1c6.9,0.5,8.8,1.7,8.8,1.7c3-2.9,7.8-3.3,11.7-2.7c0.6,0.1,1.2,0.3,1.8,0.6L352,183.9z
	"/>
<path id="path151" class="st5" d="M351.9,183.7c-0.1-0.1-0.2-0.2-0.3-0.2c-1.9-2.2-11.2-11.8-28.3-12.4c-12.1-0.5-19.1,2.6-22.7,5.1
	c-0.6,0.4-1.2,0.9-1.8,1.4c-0.1-0.6-0.4-1.2-0.6-1.7c0.7-1.8,2.1-3.2,3.8-4c4.5-2.3,28.8-9.4,49.2,8.7
	C351.4,182,351.8,183.2,351.9,183.7z"/>
<path id="path153" class="st30" d="M350.1,175.3c0.3,1.8,0.6,3.6,1,5.1c-20.4-18.1-44.7-11-49.2-8.7c-1.7,0.8-3.1,2.2-3.8,4
	c-0.7-1.4-1.6-2.6-2.7-3.6c1.5-2.2,7.6-9.7,23.2-8.2C333.7,165.5,346.2,172.8,350.1,175.3L350.1,175.3z"/>
<linearGradient id="path155_1_" gradientUnits="userSpaceOnUse" x1="574.57" y1="198.1796" x2="625.59" y2="198.1796" gradientTransform="matrix(1 0 0 -1 -274.05 376.48)">
	<stop  offset="0" style="stop-color:#554231"/>
	<stop  offset="1" style="stop-color:#26201C"/>
</linearGradient>
<path id="path155" class="st31" d="M351.5,183.5c-0.6-0.3-1.2-0.5-1.8-0.6c-4-0.6-8.7-0.2-11.7,2.7c0,0-1.9-1.1-8.8-1.7
	c-5.3-0.4-21.1-0.2-28.3-0.1l-0.4-7.7c3.6-2.4,10.6-5.6,22.7-5.1C340.4,171.7,349.6,181.3,351.5,183.5z"/>
<path id="path157" class="st5" d="M350,173.7c0.1,0.5,0.1,1.1,0.2,1.7c-3.9-2.5-16.5-9.9-31.5-11.3c-15.6-1.5-21.8,6-23.2,8.2
	c-0.5-0.4-1-0.8-1.5-1.2l0,0c0.7-1.5,4.3-7.7,14.2-9C319.1,160.5,333.6,161.5,350,173.7z"/>
<path id="path159" class="st18" d="M311.6,320.1c0.8,0.6,1,1.7,0.4,2.5c-0.4,0.6-1.2,0.9-1.9,0.7c-7.8-2.2-11.5-0.7-17.1,1.7
	c-6.7,3.1-13.9,5-21.3,5.5c-5.5,0.5-10.5,0.7-15.2,0.7c-7.3,0.1-14.7-0.6-21.9-1.9c2.6-0.8,5-1.6,7.3-2.5c9.8,1.1,19.6,1.1,29.4,0.1
	c7-0.5,13.9-2.3,20.2-5.3c4.6-2,8.5-3.7,14.5-2.9c-2.7-4.6-4.5-9.6-5.5-14.9c-0.2-0.9-0.4-1.9-0.6-2.9c-3.2-15.5-9.1-44.2-32.2-53
	c-1.7-2.1-3.2-3.9-4.3-5.1c1.8,0.5,3.7,1.1,5.5,1.7c25.1,9.4,31.2,39.5,34.5,55.7c0.2,1,0.4,2,0.6,2.9
	C306.8,316.3,311.6,320,311.6,320.1L311.6,320.1z"/>
<g id="g163" class="st32">
	
		<image style="overflow:visible;enable-background:new    ;" width="1183" height="1111" id="image161" xlink:href="6D5AE6A9.png"  transform="matrix(0.12 0 0 0.12 201.64 187.13)">
	</image>
</g>
<path id="path165" class="st28" d="M303,257.5c3.4,4,3.1,10.7,3.1,10.7C299.3,261.2,299.6,253.5,303,257.5z"/>
<path id="path167" class="st33" d="M306.1,318.8c-6-0.7-9.8,0.9-14.5,2.9c-6.4,3-13.2,4.8-20.2,5.3c-9.8,1-19.6,0.9-29.4-0.1
	c5.7-2,11.2-4.7,16.3-7.9c17-10.9,20.6-24.9,21.5-39.6c0.7-12.6-6.3-24.3-12-31.4c23.1,8.8,29,37.5,32.2,53c0.2,1,0.4,2,0.6,2.9
	C301.5,309.1,303.4,314.1,306.1,318.8z"/>
<path id="path169" class="st34" d="M300.5,176.1l0.4,7.7h-2.3c0-2,0-4.6,0-6.4C299.3,177,299.9,176.5,300.5,176.1L300.5,176.1z"/>
<path id="path171" class="st35" d="M300,186.6c0.2,2,0.1,4-0.3,6l0,0c-0.4,2.5-1.3,5-2.5,7.3c-1.7,3.2-4.1,6-6.9,8.3
	c-12.4,10-51.2,9.2-81,1.7c-29.8-7.5-45.6-18.2-54.3-25.9c-8.7-7.7-16.5-18.5-14.6-27.7c1.2-5.7,2.7-7.9,3.8-8.7l0,0
	c0.5-0.3,0.9-0.4,1-0.5l0,0c-0.3,0.5-7.4,13.2,3.9,26.5c15.6,18.3,38.1,26.9,64.5,34.6c26.4,7.7,59.7,6.1,72.9,0
	c3.7-1.7,6.8-4.6,8.8-8.1l0,0c1.8-3.3,3-7,3.4-10.7c0.1-1.2,0.2-2.4,0.2-3.6C298.8,186.1,299.2,186.4,300,186.6L300,186.6z"/>
<path id="path173" class="st5" d="M299.7,192.6c0.1,1,1.3,18.3-12.1,24.6c-11,5.1-34.7,7.3-57.8,4.8c-6-0.6-11.9-1.6-17.7-2.9
	c-26.4-6-48.8-17.5-60.6-28.6c-0.6-0.6-1.2-1.1-1.7-1.7c-1.6-1.6-3-3.2-4.3-4.6c-3-3.3-5.7-6.9-8-10.7c0-1.5,0-2.4,0-2.4l0.6-0.3
	c3.6,6.2,9.4,11.5,11.4,13.3c11,9.6,21.2,19.9,48.6,28.3c10.7,3,21.5,5.2,32.5,6.5c22.4,2.8,45.4,1.8,55.9-3.2
	c8-3.7,10.2-11.2,10.8-15.7C298.4,197.5,299.2,195.1,299.7,192.6L299.7,192.6z"/>
<path id="path175" class="st36" d="M298.7,185.7c0,1.2,0,2.4-0.2,3.6l0,0c0,0-27,2.3-28.6,1.5c-1.5-0.8-20.1-18.3-30.4-27
	c-9-7.7-28-19.1-33.7-27c-0.4-0.6-0.8-1.2-1.1-1.8c-0.2-0.3-0.3-0.7-0.4-1h0.1c3.5,2.6,47.1-0.2,86.6,35.8l2.7,1.5l0.2-0.3l0,0
	l1.1,1.8c0.1-0.2,0.2-0.4,0.4-0.6c1.1,1,2,2.2,2.7,3.6c-0.4,0.9-0.6,2-0.7,3c0.4-0.5,0.8-0.9,1.3-1.3c0,1.8-0.1,4.4,0,6.4
	C298.7,184.6,298.7,185.3,298.7,185.7L298.7,185.7z"/>
<path id="path177" class="st28" d="M290.4,234.3c7.2,4.9,10.8,21.6,10.8,21.6s-5.8-8.1-7.7-11.2C290,238.6,287.8,232.5,290.4,234.3
	L290.4,234.3z"/>
<path id="path179" class="st37" d="M298.6,189.3L298.6,189.3c-0.4,3.8-1.5,7.4-3.4,10.7l0,0c-0.9,0.3-32.9,9.5-47.7,3.7
	c-0.3-0.1-0.5-0.2-0.8-0.3c-14.6-6.6-39.5-43.9-40.5-50c-1-6.1-4.8-15.5-9.4-17c3-0.1,6,0.1,9,0.5c5.7,7.9,24.7,19.3,33.7,27
	c10.2,8.7,28.8,26.2,30.4,27C271.5,191.5,298.6,189.3,298.6,189.3L298.6,189.3z"/>
<path id="path181" class="st36" d="M298.1,175.8c0.3,0.5,0.5,1.1,0.6,1.7c-0.5,0.4-0.9,0.8-1.3,1.3
	C297.4,177.8,297.7,176.8,298.1,175.8z"/>
<path id="path183" class="st36" d="M295.4,172.2c-0.1,0.2-0.3,0.4-0.4,0.6l-1.1-1.8C294.4,171.4,294.9,171.8,295.4,172.2z"/>
<path id="path185" class="st30" d="M297.2,199.8c-0.6,4.5-2.8,12-10.8,15.7c-10.5,5-33.5,6-55.8,3.1c-11-1.3-21.9-3.4-32.5-6.5
	c-27.4-8.3-37.6-18.7-48.6-28.3c-2-1.8-7.8-7.1-11.4-13.3c-1.9-3.3-3.2-6.8-2.9-10.2c0.5-7.7,6.6-11.7,9-13c-1,0.8-2.6,3-3.8,8.7
	c-1.9,9.2,6,20.1,14.6,27.7s24.5,18.4,54.3,25.9s68.6,8.4,81-1.7C293.1,205.8,295.5,203,297.2,199.8L297.2,199.8z"/>
<path id="path187" class="st38" d="M145.1,147L145.1,147c-0.3,0-0.6,0.1-0.9,0.1c5-3.2,10.3-5.7,15.9-7.5c-2.6,4.4-4.4,9.2-5.2,14.2
	c-0.9,6,5.4,6.8,11.2,11.9c5.8,5.1,10.7,13.5,19.1,19s20.1,11,37.6,17.8c12.5,4.9,21,2.8,24.8,1.2c14.8,5.9,46.8-3.4,47.7-3.7
	c-2,3.6-5.1,6.4-8.8,8.1c-13.1,6.1-46.5,7.7-72.9,0c-26.4-7.7-48.9-16.3-64.5-34.6C137.7,160.2,144.9,147.5,145.1,147L145.1,147z
	 M185.8,191.9c4.6,2,10.4,8.3,22,6c0,0-13.9-3.4-25.1-12.9s-12.2-12.5-15.7-15c-3.5-2.5-8.5-3.2-9.5-6.2c-1-3-3.6-6.4-6.6-6.4
	c0,0-4.2,6.1,8.7,16.9S181.2,189.9,185.8,191.9L185.8,191.9z"/>
<path id="path189" class="st39" d="M272,516c5.6,11.6,25.2,27.9,32.9,36.8c-6.3,0.5-12.8,0.7-19.2,0.7
	c-66.4,0.1-130.4-24.6-179.5-69.2c22.6-22,51.2-63.4,61-78.1c2.8-4.2,4.6-9,5.4-14c3.8,4.5,10.6,12.5,14.7,15.7
	c0,0-12.5-3.6-14.6-5.8c0,0-8.3,8.2,54.3,51.4c-0.6-0.3-8.1-3.4-8,0s21,17.9,21.6,18.4c-0.6-0.1-13.8-2.1-13.4,1.9
	s17.9,11.1,23.1,16.9C255.4,496.3,264.8,501.2,272,516L272,516z"/>
<path id="path191" class="st28" d="M267.8,247.9c5.6,7.2,12.7,18.9,12,31.4c-0.9,14.6-4.5,28.6-21.5,39.6
	c-0.8-8.6-5.4-27.9-29.4-33.4c-26.3-6-45.9-0.1-49.8,9.4l-0.2-0.3c-3.2-18.3,9.6-25.1,13.8-29.8c1.5-1.7,3.3-3.8,5-6l0,0
	c23.2-16.8,52-17.8,70-11.1C267.7,247.9,267.8,247.9,267.8,247.9L267.8,247.9z M211.4,261.5c1.2-1.2,1.2-3.1,0-4.2
	c-0.9-0.9-2.3-1.2-3.4-0.6l-8.9,6.2c-1.3,1-1.6,2.9-0.5,4.2c0.5,0.7,1.4,1.1,2.2,1.2c0.6,0,1.2-0.2,1.7-0.5L211.4,261.5z"/>
<path id="path193" class="st18" d="M267.8,247.9c0,0-0.1,0-0.2-0.1c-18.1-6.8-46.8-5.8-70,11.1c2.8-3.4,5.5-6.8,6.8-8.4
	c20.1-10.9,42.6-12,59-7.7C264.6,244.1,266.2,245.8,267.8,247.9z"/>
<path id="path195" class="st5" d="M259.3,421.8l-2.4-0.2H255c-4.4-6.8-7.4-14.3-8.9-22.2c-1.3-7-0.2-15.6-2.9-18.9
	c-2-2.6-3.6-5.3-3.6-6.4c0-0.3,0.1-0.5,0.4-0.5c1.3,0,6.8,2.4,7.5,4.7s-0.3,11.7,3.9,24.2C253.7,409.2,255.3,415.2,259.3,421.8
	L259.3,421.8z"/>
<path id="path197" class="st40" d="M228.8,285.6c24,5.5,28.6,24.8,29.4,33.4c-5.1,3.2-10.6,5.9-16.3,7.9c-16.2-2-27.3-7.1-37.9-12.8
	c-11.7-6.2-16.8-11.1-20.6-14.7c-1.2-1.1-2.2-2.1-3.3-3c-0.5-0.4-0.9-0.9-1.2-1.4C183,285.5,202.5,279.5,228.8,285.6L228.8,285.6z"
	/>
<path id="path199" class="st41" d="M246.7,203.3c0.3,0.1,0.5,0.2,0.8,0.3c-3.8,1.6-12.2,3.7-24.8-1.2c-17.5-6.8-29.3-12.3-37.6-17.8
	s-13.3-13.9-19.1-19s-12.1-6-11.2-11.9c0.9-5,2.6-9.8,5.2-14.2c3.6-1.2,7.4-2,11.3-2.2c8.3-0.5,18-1.1,25.5-1.1
	c4.6,1.5,8.3,10.9,9.4,17S232.1,196.7,246.7,203.3L246.7,203.3z"/>
<path id="path201" class="st18" d="M242,326.8c-2.3,0.8-4.8,1.7-7.4,2.5c-13.1-2.5-22.8-7.1-32.2-12.1
	c-12.1-6.4-17.4-11.5-21.3-15.3l-0.5-0.4c-0.7-2.1-1.3-4.2-1.7-6.4c0-0.1,0.1-0.1,0.1-0.2c0.3,0.5,0.7,1,1.2,1.4
	c1.1,0.9,2.1,1.9,3.3,3c3.8,3.6,8.9,8.5,20.6,14.7C214.7,319.7,225.8,324.9,242,326.8L242,326.8z"/>
<path id="path203" class="st42" d="M229.8,221.9l-7.7,6.5c-0.8,0.7-1.4,1.4-2,2.3c-1.2-5.6-39.4,23.2-39.4,23.2
	c-9.6,5.7-20.8,16.3-27,24.7v-66.7l-2.2-1v-20.5c11.8,11.1,34.2,22.6,60.6,28.6C217.9,220.3,223.8,221.3,229.8,221.9L229.8,221.9z"
	/>
<path id="path205" class="st5" d="M180.6,253.8c0,0,38.2-28.8,39.4-23.2c-0.9,1.4-2.2,2.5-3.6,3.4c-3.2,1.9-26.5,15.3-30.8,20.6
	c-4.3,5.3-5,9.2-5,9.2l-1.7-4.8c0,0-13.2,7.5-21.4,19.6c-8.2,12.1-9.9,20.9-9.9,20.9l-2.4-0.7l0.1-0.4c0,0,0.1-0.8,0.4-2
	c0.5-2.2,1.1-4.4,1.8-6.5c0.8-2.3,1.8-4.6,3-6.7l0,0c0.7-1.3,1.5-2.5,2.3-3.7l0.6-0.9C159.9,270.1,171,259.5,180.6,253.8
	L180.6,253.8z"/>
<path id="path207" class="st43" d="M212.1,257.4c0.9,1.3,0.6,3.2-0.7,4.1c0,0,0,0,0,0l-8.9,6.2c-0.5,0.4-1.1,0.5-1.7,0.5
	c-1.7-0.1-2.9-1.5-2.9-3.1c0-0.9,0.5-1.7,1.2-2.2l8.9-6.2C209.3,255.8,211.2,256.1,212.1,257.4z"/>
<path id="path209" class="st5" d="M201.7,134.9l3,0c0.3,0.6,0.7,1.3,1.1,1.8c-3-0.4-6-0.6-9-0.5c-7.5,0-17.2,0.6-25.5,1.1
	c-3.8,0.3-7.6,1-11.3,2.2c-5.6,1.8-10.9,4.3-15.9,7.5c0.3-0.1,0.6-0.1,0.9-0.1l0,0c-0.1,0-0.4,0.2-1,0.5l0,0c-2.4,1.3-8.5,5.2-9,13
	c-0.2,3.4,1,6.9,2.9,10.2l-0.6,0.3c0,0,0,0.9,0,2.4c-0.6-1.1-1.2-2.1-1.7-3.2c-1.1-2.3-1.9-4.7-2.4-7.2c-1.3-6,2.4-12.8,8.2-15.1
	c4.5-6.2,22.2-13.2,34.2-13.2C184.3,134.6,195.7,134.8,201.7,134.9L201.7,134.9z"/>
<path id="path211" class="st3" d="M204.4,133.9c0.1,0.3,0.2,0.7,0.4,1l-3,0l-0.7-0.7L204.4,133.9z"/>
<path id="path213" class="st3" d="M204.4,133.9C204.4,133.9,204.4,133.9,204.4,133.9l-3.4,0.4l-20.8-19.7L162,94.3
	c-1.5-2.8-3.6-6.2-10.1-10.9C141.8,76,127,69.3,112.7,72.8c-9.8,2.4-17.6,4.4-22.1,14.2l-2.7-1.1c2.1-4.9,5.5-9.2,9.8-12.2
	c11.4-7.6,34.4-5.1,43.1-0.7s18.4,10.7,26.1,20.8C174.7,103.8,201.6,131.2,204.4,133.9L204.4,133.9z"/>
<path id="path215" class="st44" d="M207.9,197.9c-11.7,2.4-17.5-3.9-22-6s-13.4-7-26.4-17.7s-8.7-16.9-8.7-16.9
	c3.1,0,5.6,3.4,6.6,6.4c1,3,6,3.8,9.5,6.2s4.6,5.4,15.8,15C194,194.6,207.9,197.9,207.9,197.9L207.9,197.9z"/>
<path id="path217" class="st18" d="M204.4,250.5c-1.3,1.7-4,5.1-6.8,8.4l0,0c-8.8,6.5-16.3,14.7-21.8,24.1c0.1,0.1,0.3,0.2,0.4,0.3
	c0.4,0.4,0.6,0.9,0.6,1.4c-0.1,2,0.2,6.9,2,10c0,0.2,0.1,0.3,0.1,0.5c-0.5,1.3-0.7,2.8-0.6,4.2l-0.3-0.3c-3.7-3-4.5-9.1-4.7-12.4
	l-0.4,0.1c-1,0.2-1.9-0.5-2-1.5c-0.1-0.4,0-0.8,0.2-1.1C178.7,269.9,190.3,258.2,204.4,250.5z"/>
<path id="path219" class="st45" d="M162,94.3c0.7,1.5,1.5,3,2.5,4.4c3,3.9,6.2,7.1,16.3,19.5c10.1,12.3,15.7,16.4,15.7,16.4l4.6-0.4
	l0.7,0.7c-6-0.1-17.4-0.3-25.9-0.3c-12.1,0-29.7,7-34.2,13.2c-5.9,2.4-9.5,9.1-8.2,15.1c0.5,2.5,1.3,4.9,2.4,7.2v35.4
	c1.1,0.4,2,1.2,2.7,2.1c1,1.5,4.8,2.7,4.8,2.7v2l2.5,83.8c-0.3,1.3-0.4,2-0.4,2l-0.1,0.4l-2-0.5c-16.5-10.1-42.9-38-42.9-47.4
	c0-9.4,5.2-17.3,6.9-23.9c1.7-6.6,2.2-7.9,0.2-6.9s-6.2,8.9-6.2,8.9c1-11.6-4.4-32.8-4.7-40c-0.2-7.1-5.7-13.8-8.4-26.1
	c-1.8-8.8-2.7-17.8-2.7-26.8c-0.2-8.5,0.1-18.5,1-30.2c0.6-8.4,2-14.4,4.1-18.9c4.5-9.8,12.2-11.8,22.1-14.2
	c14.3-3.5,29.1,3.2,39.2,10.6C158.5,88.2,160.6,91.5,162,94.3L162,94.3z"/>
<path id="path221" class="st46" d="M201,134.2l-4.6,0.4c0,0-5.5-4.1-15.7-16.4c-10.1-12.3-13.3-15.5-16.3-19.5
	c-0.9-1.4-1.8-2.8-2.5-4.4l18.2,20.2L201,134.2z"/>
<path id="path223" class="st33" d="M197.6,259c-1.8,2.1-3.5,4.3-5,6c-4.2,4.7-17,11.5-13.8,29.8c-1.8-3.1-2.1-8-2-10
	c0-0.5-0.2-1.1-0.6-1.4c-0.1-0.1-0.3-0.2-0.4-0.3C181.4,273.6,188.8,265.4,197.6,259L197.6,259z"/>
<path id="path225" class="st5" d="M184.3,384.6c-5.7-0.1-10.8-3.3-13.4-8.4c3.5,10,2.1,21.1-3.8,29.9c-9.8,14.8-38.5,56.2-61,78.1
	c-1.4-1.3-2.8-2.5-4.1-3.8c1.6-1.9,51.9-62,59.6-74.2c7.9-12.3,4.9-16.8,4.9-16.8c-15.8-24.4-11.1-37-11.1-37s-7.1-16-10.6-27.4
	s-1-19.7-1-19.7l2.5,0.2c-0.3,5.5,0.8,15.3,7,31.8C164.5,367.5,184.3,384.6,184.3,384.6L184.3,384.6z M169.6,373l-10.4-17.2
	c0,0-3.2,9.5,10,30.2c0,0,0.9-8.2,0-12.1L169.6,373z"/>
<path id="path227" class="st18" d="M179,295.2c0.4,2.2,1,4.3,1.7,6.4c-0.8-0.8-1.6-1.5-2.3-2.1C178.2,298,178.4,296.5,179,295.2z"/>
<path id="path229" class="st47" d="M159.2,355.8l10.4,17.2l-0.4,0.8c0.9,3.9,0,12.1,0,12.1C156,365.4,159.2,355.8,159.2,355.8z"/>
<path id="path231" class="st48" d="M153.6,211.8v66.7l-0.6,0.9c-0.9,1.2-1.6,2.4-2.3,3.7l-0.8-69.3v-1.8l0.9,0.2l-0.9-0.5v-1.9
	v-21.1c0.5,0.6,1.1,1.1,1.7,1.7v20.5L153.6,211.8z"/>
<path id="path233" class="st49" d="M150.6,283.1L150.6,283.1c-1.2,2.2-2.2,4.4-3,6.7l-2.2-76.9l4.4,0.9L150.6,283.1z"/>
<path id="path235" class="st48" d="M149.8,212.1v1.8l-4.4-0.9v-0.7c0-0.4-0.1-0.9-0.2-1.3L149.8,212.1z"/>
<path id="path237" class="st49" d="M149.7,211.7v0.3l-4.5-1.1c-0.5-1.9-1.7-3.4-2.8-3.4c-1.4,0-4.4-2.2-4.9-3.6
	c-0.4-1.1-0.1-23.2,0-30.7c2.3,3.8,5,7.4,8,10.7l0.4,22.5C145.8,206.6,144.6,208.4,149.7,211.7L149.7,211.7z"/>
<path id="path239" class="st48" d="M149.7,209.8v1.9c-5.1-3.3-4-5.2-4-5.2l-0.4-22.5c1.3,1.5,2.7,3,4.3,4.6L149.7,209.8z"/>
<path id="path241" class="st5" d="M145.3,298.8l2.4,0.7c-0.5,0.9-0.9,1.9-1,3c-0.2,1-0.3,2-0.4,3.1l-2.5-0.2
	c0,0-26.2-20.5-35.1-32.1c-8.9-11.6-12.9-15.8-12.4-24c0.5-7.5,3.1-14,2.6-20.2l2.5-0.2c0,0,4.2-7.9,6.2-8.9s1.5,0.2-0.2,6.9
	s-6.9,14.5-6.9,23.9c0,9.4,26.4,37.2,42.9,47.4L145.3,298.8z"/>
<path id="path243" class="st48" d="M145.4,213l2.2,76.9c-0.7,2.1-1.4,4.3-1.8,6.5l-2.5-83.9L145.4,213z"/>
<path id="path245" class="st48" d="M145.4,212.3v0.7l-2.2-0.5v-2l2,0.5C145.3,211.4,145.4,211.8,145.4,212.3L145.4,212.3z"/>
<path id="path247" class="st48" d="M145.2,211l-2-0.5c0,0-3.7-1.2-4.8-2.7c-0.7-1-1.6-1.7-2.7-2.1v-35.4c0.5,1,1,2.1,1.7,3.2
	c-0.1,7.4-0.4,29.5,0,30.7c0.5,1.4,3.6,3.6,4.9,3.6C143.5,207.6,144.8,209.1,145.2,211L145.2,211z"/>
<path id="path249" class="st3" d="M96.7,189c0.2,7.1,5.7,28.4,4.7,40l-2.5,0.2c0-0.5-0.1-1.1-0.2-1.6c-1.2-6.6-3.2-29.3-4.9-35.6
	c-1.7-6.3-7-18.7-8.2-23.8c-1.6-8.8-2.4-17.6-2.5-26.5c0-1.3,0-3.2-0.1-5.5h2.6c0,9,0.9,18,2.7,26.8C91,175.2,96.4,181.8,96.7,189
	L96.7,189z"/>
<path id="path251" class="st3" d="M88,85.9l2.7,1.1c-2,4.4-3.4,10.5-4.1,18.9c-0.9,11.7-1.1,21.6-1,30.2h-2.6
	c-0.3-9.6-1.1-26,0-31.8C83.8,100,84.9,92.7,88,85.9z"/>
<image style="overflow:visible;enable-background:new    ;" width="2687" height="2687" id="image253" xlink:href="6D5AE6AB.png"  transform="matrix(0.12 0 0 0.12 110.2 266.45)">
</image>
<path id="path255" class="st5" d="M442.3,384.3l2.5,1.5c-0.8,1.4-1.7,2.8-2.6,4.2c0,0,2.2,18-3.6,31s-19.2,26.4-31.2,32.5
	c-5.8,2.9-12.5,3.8-18.9,2.5c0,0-8.3,14.6-7.3,23c1,7.9,15.9,31.1,20.9,47.8c-1.8,0.9-3.7,1.8-5.5,2.6c-1.8-6.7-4.4-13.1-7.6-19.2
	c-6.1-11.5-11.7-23.2-11.7-31.7s7.3-21.1,7.8-22.8c0.5-1.8-11.6,7.3-36.1,10.2s-39.2-5.6-40.8-8.9c-14.8-2-28.5-8.6-39.3-18.9
	c-5.2-4.9-9.8-10.5-13.7-16.5h1.9l2.4,0.2c3.6,5.9,9.2,12.3,18.9,20c13.2,10.5,36.5,12.9,48.5,9.2s32.9-15.4,36.3-15.8
	s9.5,1.8,13.6,5.8s5.9,8,11.9,10.2s16.7,0.5,23.8-4.8s19.1-18.7,22.3-25.4s5.3-24.4,4.5-29.3c-0.4-2.4-3-9.9-8-19.1
	c-5.2-9.5-12.9-20.7-23.3-29.9c1.7,0.1,3.4,0.6,5,1.4c0.4,0.2,0.8,0.5,1.2,0.8c5,4.2,21.1,22.8,27,41.4
	C441.1,386.3,441.6,385.6,442.3,384.3L442.3,384.3z M383,451.7c0,0-5.8-8.3-14.1-11.4c-8.2-3.1-29,13.3-37,13.6
	c-6.1,0.4-12.1,1.4-17.9,2.9c0,0,7,5.8,22.6,5.6S375.4,458,383,451.7z"/>
<linearGradient id="path257_1_" gradientUnits="userSpaceOnUse" x1="567.2951" y1="-117.3368" x2="605.7951" y2="-59.1168" gradientTransform="matrix(1 0 0 -1 -274.05 376.48)">
	<stop  offset="0.13" style="stop-color:#E8AFAB"/>
	<stop  offset="0.72" style="stop-color:#D3897E"/>
</linearGradient>
<path id="path257" class="st50" d="M378.5,470.6c-1.4,3-2.2,6.3-5.1,7.8c-7.2,3.9-23.7,10.5-47.2,5.8c-32.2-6.5-63.3-47.9-63.1-52
	c3.7,4.6,8.2,8.6,13.2,11.8c9.2,7.2,20.2,11.7,31.7,13c1.8,0.1,3.4,1.1,4.3,2.7c0,0,8.5,8.9,36.5,6.2c17.7-1.7,36.1-10.2,36.1-10.2
	S381.8,463.6,378.5,470.6L378.5,470.6z"/>
<path id="path259" class="st51" d="M314,306.2"/>
<g id="g263" class="st52">
	
		<image style="overflow:visible;enable-background:new    ;" width="854" height="915" id="image261" xlink:href="6D5AE6A8.png"  transform="matrix(0.12 0 0 0.12 274.6 283.85)">
	</image>
</g>
</svg>
