<?xml version="1.0" encoding="utf-8"?>
<!-- Generator: Adobe Illustrator 21.1.0, SVG Export Plug-In . SVG Version: 6.00 Build 0)  -->
<svg version="1.1" id="图层_1" xmlns="http://www.w3.org/2000/svg" xmlns:xlink="http://www.w3.org/1999/xlink" x="0px" y="0px"
	 viewBox="0 0 300 300" style="enable-background:new 0 0 300 300;" xml:space="preserve">
<style type="text/css">
	.st0{fill:#333333;stroke:#303030;stroke-width:1.4147;stroke-miterlimit:10;}
	.st1{clip-path:url(#SVGID_2_);fill:#FFFFFF;stroke:#303030;stroke-width:1.4147;stroke-miterlimit:10;}
	.st2{fill:#333333;}
	.st3{fill:#FFFFFF;}
	.st4{fill:none;}
</style>
<path class="st0" d="M75.1,146.7c1.3,0.4,2.6,0.9,3.7,1.5c45.2,21.4,99.5,21.3,144.6-0.1c3.5-1.6,8.1-3.2,10.7-0.4
	c2.4,2.7,0.8,6.9-1.2,10c-28.2,44-90,46.1-133.2,25.5c-7-3.3-13.7-7.2-19.6-12.1c-4.4-3.7-19.3-17.4-11.4-23.8
	C70.6,145.9,72.8,146.1,75.1,146.7z"/>
<path class="st0" d="M104.3,78L104.3,78c30.9-6.7,62.8-6.7,93.7,0l0,0c2.9,0.6,4.6,3.6,3.7,6.4l-0.1,0.4
	c-7.5,24.1-8.6,49.7-3.1,74.3l0,0c0.6,2.7-1.1,5.4-3.8,6l0,0c-28.7,6.7-58.5,6.7-87.1,0l0,0c-2.7-0.6-4.4-3.3-3.8-6l0,0
	c0.5-2.3,0.9-4.6,1.3-6.9c3.8-22.5,2.3-45.6-4.4-67.5l-0.1-0.4C99.7,81.6,101.4,78.6,104.3,78z"/>
<g>
	<defs>
		<path id="SVGID_1_" d="M104.3,78L104.3,78c30.9-6.7,62.8-6.7,93.7,0l0,0c2.9,0.6,4.6,3.6,3.7,6.4l-0.1,0.4
			c-7.5,24.1-8.6,49.7-3.1,74.3l0,0c0.6,2.7-1.1,5.4-3.8,6l0,0c-28.7,6.7-58.5,6.7-87.1,0l0,0c-2.7-0.6-4.4-3.3-3.8-6l0,0
			c0.5-2.3,0.9-4.6,1.3-6.9c3.8-22.5,2.3-45.6-4.4-67.5l-0.1-0.4C99.7,81.6,101.4,78.6,104.3,78z"/>
	</defs>
	<clipPath id="SVGID_2_">
		<use xlink:href="#SVGID_1_"  style="overflow:visible;"/>
	</clipPath>
	<path class="st1" d="M94.1,148.4l2.2,39.6l115.1,0.6v-40.2l0,0C172.9,158.3,132.5,158.3,94.1,148.4L94.1,148.4z"/>
</g>
<path class="st2" d="M149.3,73.5"/>
<path class="st2" d="M72.8,198.1l5.7,2.6c0.7,0.3,1.3,0.7,1.9,1.2c0.5,0.4,0.9,0.9,1.2,1.5c0.3,0.5,0.4,1.1,0.5,1.8s-0.1,1.3-0.4,2
	c-0.4,0.9-1,1.6-1.8,1.9s-1.7,0.5-2.6,0.4l0,0c0.5,0.3,0.9,0.6,1.2,1c0.3,0.4,0.6,0.9,0.7,1.4c0.2,0.5,0.2,1,0.2,1.6
	c0,0.6-0.2,1.1-0.4,1.7c-0.3,0.7-0.8,1.3-1.3,1.8c-0.6,0.4-1.2,0.7-1.9,0.9s-1.4,0.2-2.2,0s-1.6-0.4-2.4-0.7l-5.6-2.6L72.8,198.1z
	 M68.4,213.6l3.3,1.5c0.3,0.2,0.7,0.3,1.2,0.4c0.4,0.1,0.9,0.2,1.3,0.1c0.5,0,0.9-0.2,1.3-0.4c0.4-0.2,0.7-0.7,1-1.2
	c0.4-1,0.5-1.8,0-2.6c-0.4-0.8-1.2-1.4-2.2-1.9l-3.3-1.5L68.4,213.6z M71.9,205.9l3,1.4c0.4,0.2,0.8,0.3,1.2,0.4
	c0.4,0.1,0.8,0.1,1.2,0c0.4-0.1,0.7-0.2,1-0.5c0.3-0.2,0.6-0.6,0.8-1c0.3-0.6,0.3-1.3,0.1-2c-0.2-0.7-0.7-1.2-1.6-1.6l-3.5-1.6
	L71.9,205.9z"/>
<path class="st2" d="M94.1,207.2l2.3,0.8l-6.2,16.9l-2.3-0.8L94.1,207.2z"/>
<path class="st2" d="M107.4,211.8l3.1,0.8l5.9,16.9l0,0l3.8-14.3l2.4,0.6l-4.6,17.4l-3-0.8l-6-16.9l0,0l-3.8,14.3l-2.4-0.6
	L107.4,211.8z"/>
<path class="st2" d="M139.8,237.1c-1.4-0.1-2.6-0.5-3.7-1.1c-1.1-0.6-2-1.4-2.7-2.3c-0.7-0.9-1.3-2-1.6-3.2
	c-0.3-1.2-0.4-2.5-0.3-3.8c0.1-1.3,0.5-2.6,1.1-3.7c0.6-1.1,1.3-2,2.2-2.8c0.9-0.8,2-1.3,3.2-1.7s2.5-0.5,3.8-0.3
	c1.4,0.1,2.6,0.5,3.7,1.1c1.1,0.6,2,1.4,2.7,2.3c0.7,0.9,1.3,2,1.6,3.2s0.4,2.5,0.3,3.8c-0.1,1.3-0.5,2.6-1.1,3.7
	c-0.6,1.1-1.3,2-2.2,2.8c-0.9,0.8-2,1.3-3.2,1.7C142.5,237.1,141.2,237.3,139.8,237.1z M140.1,234.8c1,0.1,2,0,2.8-0.3
	c0.9-0.3,1.6-0.7,2.3-1.3c0.7-0.6,1.2-1.3,1.6-2.1c0.4-0.8,0.7-1.7,0.8-2.7s0-1.9-0.2-2.8c-0.2-0.9-0.6-1.7-1.1-2.4
	c-0.5-0.7-1.2-1.3-2-1.8c-0.8-0.5-1.7-0.8-2.7-0.9c-1-0.1-2,0-2.8,0.3c-0.9,0.3-1.6,0.7-2.3,1.3c-0.7,0.6-1.2,1.3-1.6,2.1
	c-0.4,0.8-0.7,1.7-0.8,2.7c-0.1,1,0,1.9,0.2,2.8c0.2,0.9,0.6,1.7,1.1,2.4c0.5,0.7,1.2,1.3,2,1.8S139.1,234.7,140.1,234.8z"/>
<path class="st2" d="M161.1,219.6l6.3-0.4c1.2-0.1,2.1,0,2.9,0.3c0.8,0.3,1.4,0.6,1.8,1.1c0.5,0.5,0.8,1,1,1.6
	c0.2,0.6,0.3,1.2,0.4,1.7c0,0.6,0,1.1-0.1,1.8s-0.4,1.2-0.8,1.7c-0.4,0.5-1,0.9-1.7,1.3c-0.7,0.4-1.7,0.6-2.8,0.6l-3.9,0.2l0.5,7.9
	l-2.4,0.2L161.1,219.6z M164.1,227.4l3.2-0.2c0.5,0,0.9-0.1,1.4-0.2c0.5-0.1,0.9-0.3,1.2-0.5c0.4-0.2,0.6-0.5,0.8-0.9
	c0.2-0.4,0.3-0.9,0.2-1.5c0-0.6-0.2-1.1-0.4-1.5c-0.2-0.4-0.6-0.6-0.9-0.8c-0.4-0.2-0.8-0.3-1.3-0.3s-0.9-0.1-1.4,0l-3.2,0.2
	L164.1,227.4z"/>
<path class="st2" d="M195.1,233.4c-1.3,0.3-2.6,0.4-3.9,0.2c-1.2-0.2-2.4-0.6-3.4-1.2c-1-0.6-1.9-1.4-2.6-2.4
	c-0.7-1-1.3-2.2-1.6-3.5c-0.3-1.3-0.4-2.6-0.2-3.8c0.2-1.2,0.5-2.4,1.1-3.4c0.6-1,1.4-1.9,2.4-2.7s2.2-1.3,3.5-1.6
	c1.3-0.3,2.6-0.4,3.9-0.2c1.2,0.2,2.4,0.6,3.4,1.2s1.9,1.4,2.6,2.4c0.7,1,1.3,2.2,1.6,3.5c0.3,1.3,0.4,2.6,0.2,3.8
	c-0.2,1.2-0.5,2.4-1.1,3.4c-0.6,1-1.4,1.9-2.4,2.7S196.4,233.1,195.1,233.4z M194.5,231.2c1-0.3,1.9-0.7,2.6-1.2
	c0.7-0.6,1.3-1.2,1.7-2c0.4-0.8,0.7-1.6,0.8-2.5s0-1.9-0.2-2.8c-0.2-1-0.6-1.8-1.2-2.6c-0.5-0.8-1.2-1.4-1.9-1.9
	c-0.7-0.5-1.6-0.8-2.5-1s-1.9-0.1-2.9,0.1c-1,0.3-1.9,0.7-2.6,1.2c-0.7,0.6-1.3,1.2-1.7,2c-0.4,0.8-0.7,1.6-0.8,2.5s0,1.9,0.2,2.8
	c0.2,1,0.6,1.8,1.2,2.6c0.5,0.8,1.2,1.4,1.9,1.9s1.6,0.8,2.5,1C192.6,231.5,193.5,231.5,194.5,231.2z"/>
<path class="st2" d="M208.8,209.4l2.2-1l6.6,14.3l7.5-3.5l1,2.1l-9.7,4.5L208.8,209.4z"/>
<path class="st2" d="M233.3,208.3l-11.3-5.1l2.6-1.7l8.4,4.1l0-9.4l2.5-1.6l-0.2,12.4l4.1,6.5l-2.1,1.3L233.3,208.3z"/>
<path class="st3" d="M101.3,89.8c0.9-0.2,2-0.3,3-0.5c12.6,0.5,31.7,1.8,39.1,5.4l-29.2-1.4c-0.3,0-0.6,0-1,0.1l-9.4,2.3
	c-0.3,0.1-0.7,0.1-1,0.1"/>
<circle class="st4" cx="150" cy="150" r="150"/>
</svg>
