<svg width="1142" height="1137" xmlns="http://www.w3.org/2000/svg" xmlns:xlink="http://www.w3.org/1999/xlink" overflow="hidden"><defs><clipPath id="clip0"><rect x="1585" y="678" width="1142" height="1137"/></clipPath><clipPath id="clip1"><rect x="1686" y="808" width="949" height="874"/></clipPath><clipPath id="clip2"><rect x="1686" y="808" width="949" height="874"/></clipPath><clipPath id="clip3"><path d="M1965.89 930.492C2097.56 901.915 2233.48 901.915 2365.15 930.492 2377.51 933.051 2384.75 945.846 2380.92 957.788L2380.49 959.494C2348.53 1062.28 2343.84 1171.47 2367.28 1276.39 2369.84 1287.91 2362.59 1299.42 2351.09 1301.98 2228.8 1330.56 2101.82 1330.56 1979.95 1301.98 1968.45 1299.42 1961.21 1287.91 1963.76 1276.39 1965.89 1266.58 1967.6 1256.77 1969.3 1246.96 1985.49 1151 1979.1 1052.47 1950.55 959.068L1950.13 957.362C1946.29 945.846 1953.54 933.051 1965.89 930.492Z" fill-rule="nonzero" clip-rule="nonzero"/></clipPath></defs><g clip-path="url(#clip0)" transform="translate(-1585 -678)"><path d="M1589 1246.5C1589 933.078 1843.3 679 2157 679 2470.7 679 2725 933.078 2725 1246.5 2725 1559.92 2470.7 1814 2157 1814 1843.3 1814 1589 1559.92 1589 1246.5Z" fill="#FFFFFF" fill-rule="evenodd" fill-opacity="1"/><g clip-path="url(#clip1)"><g clip-path="url(#clip2)"><path d="M320.002 625.09C325.541 626.795 331.081 628.925 335.768 631.482 528.365 722.668 759.738 722.241 951.91 631.056 966.823 624.238 986.424 617.421 997.503 629.351 1007.73 640.856 1000.91 658.752 992.39 671.961 872.229 859.446 608.899 868.394 424.823 780.617 394.996 766.556 366.447 749.938 341.307 729.059 322.559 713.293 259.069 654.917 292.731 627.647 300.827 621.682 310.202 622.534 320.002 625.09Z" stroke="#303030" stroke-width="6.02805" stroke-linecap="butt" stroke-linejoin="miter" stroke-miterlimit="10" stroke-opacity="1" fill="#333333" fill-rule="nonzero" fill-opacity="1" transform="matrix(1 0 0 1.00096 1521.47 597.813)"/><path d="M444.424 332.359C576.089 303.81 712.015 303.81 843.68 332.359 856.037 334.915 863.281 347.699 859.446 359.629L859.02 361.334C827.062 464.024 822.375 573.106 845.811 677.927 848.367 689.432 841.124 700.936 829.619 703.493 707.328 732.042 580.35 732.042 458.485 703.493 446.98 700.936 439.736 689.432 442.293 677.927 444.424 668.127 446.128 658.326 447.832 648.526 464.024 552.653 457.633 454.224 429.084 360.908L428.658 359.203C424.823 347.699 432.067 334.915 444.424 332.359Z" stroke="#303030" stroke-width="6.02805" stroke-linecap="butt" stroke-linejoin="miter" stroke-miterlimit="10" stroke-opacity="1" fill="#333333" fill-rule="nonzero" fill-opacity="1" transform="matrix(1 0 0 1.00096 1521.47 597.813)"/><g clip-path="url(#clip3)"><path d="M400.961 632.334 410.335 801.07 900.778 803.627 900.778 632.334C736.729 674.518 564.584 674.518 400.961 632.334Z" stroke="#303030" stroke-width="6.02805" stroke-linecap="butt" stroke-linejoin="miter" stroke-miterlimit="10" stroke-opacity="1" fill="#FFFFFF" fill-rule="nonzero" fill-opacity="1" transform="matrix(1 0 0 1.00096 1521.47 597.813)"/></g><path d="M310.202 844.106 334.489 855.185C337.472 856.463 340.029 858.168 342.585 860.298 344.716 862.003 346.42 864.133 347.699 866.69 348.977 868.82 349.403 871.377 349.829 874.36 350.255 877.342 349.403 879.899 348.125 882.882 346.42 886.717 343.864 889.699 340.455 890.978 337.046 892.256 333.211 893.108 329.376 892.682 331.507 893.96 333.211 895.239 334.489 896.943 335.768 898.647 337.046 900.778 337.472 902.908 338.324 905.039 338.324 907.169 338.324 909.726 338.324 912.283 337.472 914.413 336.62 916.97 335.342 919.952 333.211 922.509 331.081 924.64 328.524 926.344 325.967 927.622 322.985 928.474 320.002 929.327 317.019 929.327 313.61 928.474 310.202 927.622 306.793 926.77 303.384 925.492L279.522 914.413 310.202 844.106ZM291.453 910.152 305.515 916.544C306.793 917.396 308.497 917.822 310.628 918.248 312.332 918.674 314.463 919.1 316.167 918.674 318.298 918.674 320.002 917.822 321.706 916.97 323.411 916.117 324.689 913.987 325.967 911.857 327.672 907.595 328.098 904.187 325.967 900.778 324.263 897.369 320.854 894.812 316.593 892.682L302.532 886.29 291.453 910.152ZM306.367 877.342 319.15 883.308C320.854 884.16 322.559 884.586 324.263 885.012 325.967 885.438 327.672 885.438 329.376 885.012 331.081 884.586 332.359 884.16 333.637 882.882 334.915 882.029 336.194 880.325 337.046 878.621 338.324 876.064 338.324 873.081 337.472 870.099 336.62 867.116 334.489 864.985 330.654 863.281L315.741 856.463 306.367 877.342Z" fill="#333333" fill-rule="nonzero" fill-opacity="1" transform="matrix(1 0 0 1.00096 1521.47 597.813)"/><path d="M400.961 882.882 410.762 886.29 384.343 958.301 374.543 954.893 400.961 882.882Z" fill="#333333" fill-rule="nonzero" fill-opacity="1" transform="matrix(1 0 0 1.00096 1521.47 597.813)"/><path d="M457.633 902.482 470.842 905.891 495.982 977.902 512.174 916.97 522.4 919.526 502.799 993.668 490.016 990.259 464.45 918.248 448.258 979.18 438.032 976.624 457.633 902.482Z" fill="#333333" fill-rule="nonzero" fill-opacity="1" transform="matrix(1 0 0 1.00096 1521.47 597.813)"/><path d="M595.689 1010.29C589.724 1009.86 584.611 1008.16 579.924 1005.6 575.237 1003.04 571.402 999.633 568.419 995.798 565.436 991.964 562.88 987.276 561.601 982.163 560.323 977.05 559.897 971.511 560.323 965.971 560.749 960.432 562.454 954.893 565.01 950.206 567.567 945.518 570.549 941.684 574.384 938.275 578.219 934.866 582.906 932.735 588.02 931.031 593.133 929.327 598.672 928.901 604.211 929.753 610.177 930.179 615.29 931.883 619.977 934.44 624.664 936.996 628.499 940.405 631.482 944.24 634.465 948.075 637.021 952.762 638.3 957.875 639.578 962.989 640.004 968.528 639.578 974.067 639.152 979.607 637.447 985.146 634.891 989.833 632.334 994.52 629.351 998.355 625.517 1001.76 621.682 1005.17 616.995 1007.3 611.881 1009.01 607.194 1010.29 601.655 1011.14 595.689 1010.29ZM596.968 1000.49C601.229 1000.91 605.49 1000.49 608.899 999.207 612.733 997.929 615.716 996.225 618.699 993.668 621.682 991.111 623.812 988.129 625.517 984.72 627.221 981.311 628.499 977.476 628.925 973.215 629.351 968.954 628.925 965.119 628.073 961.284 627.221 957.449 625.517 954.04 623.386 951.058 621.255 948.075 618.273 945.518 614.864 943.388 611.455 941.257 607.62 939.979 603.359 939.553 599.098 939.127 594.837 939.553 591.428 940.831 587.593 942.11 584.611 943.814 581.628 946.371 578.645 948.927 576.515 951.91 574.81 955.319 573.106 958.728 571.828 962.562 571.402 966.823 570.976 971.085 571.402 974.919 572.254 978.754 573.106 982.589 574.81 985.998 576.941 988.981 579.071 991.964 582.054 994.52 585.463 996.651 588.872 998.781 592.707 1000.06 596.968 1000.49Z" fill="#333333" fill-rule="nonzero" fill-opacity="1" transform="matrix(1 0 0 1.00096 1521.47 597.813)"/><path d="M686.449 935.718 713.293 934.014C718.407 933.588 722.241 934.014 725.65 935.292 729.059 936.57 731.616 937.849 733.32 939.979 735.451 942.11 736.729 944.24 737.581 946.797 738.433 949.353 738.859 951.91 739.286 954.04 739.286 956.597 739.286 958.728 738.859 961.71 738.433 964.693 737.155 966.823 735.451 968.954 733.746 971.085 731.19 972.789 728.207 974.493 725.224 976.198 720.963 977.05 716.276 977.05L699.658 977.902 701.789 1011.56 691.562 1012.42 686.449 935.718ZM699.232 968.954 712.867 968.102C714.998 968.102 716.702 967.676 718.833 967.25 720.963 966.823 722.668 965.971 723.946 965.119 725.65 964.267 726.503 962.989 727.355 961.284 728.207 959.58 728.633 957.449 728.207 954.893 728.207 952.336 727.355 950.206 726.503 948.501 725.65 946.797 723.946 945.945 722.668 945.092 720.963 944.24 719.259 943.814 717.128 943.814 714.998 943.814 713.293 943.388 711.163 943.814L697.528 944.666 699.232 968.954Z" fill="#333333" fill-rule="nonzero" fill-opacity="1" transform="matrix(1 0 0 1.00096 1521.47 597.813)"/><path d="M831.323 994.52C825.784 995.798 820.245 996.225 814.705 995.372 809.592 994.52 804.479 992.816 800.218 990.259 795.957 987.703 792.122 984.294 789.139 980.033 786.157 975.772 783.6 970.658 782.322 965.119 781.043 959.58 780.617 954.04 781.469 948.927 782.322 943.814 783.6 938.701 786.157 934.44 788.713 930.179 792.122 926.344 796.383 922.935 800.644 919.526 805.757 917.396 811.297 916.117 816.836 914.839 822.375 914.413 827.915 915.265 833.028 916.117 838.141 917.822 842.402 920.378 846.663 922.935 850.498 926.344 853.481 930.605 856.463 934.866 859.02 939.979 860.298 945.518 861.577 951.058 862.003 956.597 861.15 961.71 860.298 966.823 859.02 971.937 856.463 976.198 853.907 980.459 850.498 984.294 846.237 987.703 841.976 991.111 836.863 993.242 831.323 994.52ZM828.767 985.146C833.028 983.868 836.863 982.163 839.845 980.033 842.828 977.476 845.385 974.919 847.089 971.511 848.794 968.102 850.072 964.693 850.498 960.858 850.924 957.023 850.498 952.762 849.646 948.927 848.794 944.666 847.089 941.257 844.532 937.849 842.402 934.44 839.419 931.883 836.437 929.753 833.454 927.622 829.619 926.344 825.784 925.492 821.949 924.64 817.688 925.066 813.427 925.918 809.166 927.196 805.331 928.901 802.349 931.031 799.366 933.588 796.809 936.144 795.105 939.553 793.4 942.962 792.122 946.371 791.696 950.206 791.27 954.04 791.696 958.301 792.548 962.136 793.4 966.397 795.105 969.806 797.661 973.215 799.792 976.624 802.775 979.18 805.757 981.311 808.74 983.441 812.575 984.72 816.41 985.572 820.671 986.424 824.506 986.424 828.767 985.146Z" fill="#333333" fill-rule="nonzero" fill-opacity="1" transform="matrix(1 0 0 1.00096 1521.47 597.813)"/><path d="M889.699 892.256 899.073 887.995 927.196 948.927 959.154 934.014 963.415 942.962 922.083 962.136 889.699 892.256Z" fill="#333333" fill-rule="nonzero" fill-opacity="1" transform="matrix(1 0 0 1.00096 1521.47 597.813)"/><path d="M994.094 887.569 945.945 865.838 957.023 858.594 992.816 876.064 992.816 836.01 1003.47 829.193 1002.62 882.029 1020.09 909.726 1011.14 915.265 994.094 887.569Z" fill="#333333" fill-rule="nonzero" fill-opacity="1" transform="matrix(1 0 0 1.00096 1521.47 597.813)"/><path d="M431.641 382.639C435.475 381.787 440.163 381.361 444.424 380.508 498.112 382.639 579.498 388.178 611.029 403.518L486.608 397.552C485.329 397.552 484.051 397.552 482.346 397.978L442.293 407.779C441.015 408.205 439.31 408.205 438.032 408.205" fill="#FFFFFF" fill-rule="nonzero" fill-opacity="1" transform="matrix(1 0 0 1.00096 1521.47 597.813)"/></g></g></g></svg>