<?xml version="1.0" encoding="utf-8"?>
<!-- Generator: Adobe Illustrator 23.0.1, SVG Export Plug-In . SVG Version: 6.00 Build 0)  -->
<svg version="1.1" id="Layer_1" xmlns="http://www.w3.org/2000/svg" xmlns:xlink="http://www.w3.org/1999/xlink" x="0px" y="0px"
	 viewBox="0 0 75 75" style="enable-background:new 0 0 75 75;" xml:space="preserve">
<style type="text/css">
	.st0{fill:#508BE0;}
	.st1{fill:#461B00;}
	.st2{fill:#6699FF;}
	.st3{fill:#2F9D1E;}
	.st4{fill:#3AC125;}
	.st5{fill:#7ED732;}
	.st6{fill:#E6E6E6;}
	.st7{fill:#C2C2C2;}
	.st8{fill:#CCCCCC;}
	.st9{fill:#FFFFFF;}
	.st10{fill:#CF8F5B;}
	.st11{fill:#FFB170;}
	.st12{fill:#6E2D1D;}
	.st13{fill:#873824;}
	.st14{fill:#FFDEC2;}
</style>
<g id="Layer_x0020_1">
	<g id="_530459392">
		<path class="st0" d="M37.4,2C57.1,2,73,17.9,73,37.6c0,12.6-6.5,23.6-16.3,30c-34.8,10-52.4-17-52.4-17c-1.6-4-2.4-8.4-2.4-13
			C1.8,17.9,17.8,2,37.4,2z"/>
		<path class="st1" d="M4.3,50.6c3.1-4.3,6-6.4,7-11.6c1.4-7.4,1.2-17.4,9.1-24c4.3-3.7,10.6-5.1,16.3-5.1
			c11.7,0,20.9,4.9,23.6,16.2c0.2,0.8,0.4,1.7,0.5,2.6c1.9,5.3,1.5,10,1,13.4c-0.5,3-0.8,5.2-1.1,8.2C60,56.2,59,62.2,56.7,67.6
			c-1.2,0.7-2.3,1.4-3.5,2l0,0c-14.7,4.8-30.6,0.4-30.6,0.4l0,0c-0.5-0.2-1-0.5-1.5-0.7l0,0C14,64,5.2,52.6,5.2,52.6l0,0
			C4.9,52,4.5,51.3,4.3,50.6z"/>
		<path class="st2" d="M15.4,47L15.4,47L15.4,47z"/>
		<path class="st3" d="M22.7,64.8c0.9-5.8-1.6-11.8-3.3-14c-1.9-2.4-3.4-3.5-4-3.9l0,0l-0.2-0.2v0.1c3.1,6.6,2.4,12.8-0.1,18.5
			c1.8,1.4,3.8,2.7,5.8,3.8C21.8,68,22.4,66.6,22.7,64.8z"/>
		<path class="st4" d="M58.3,27.3c-0.1-0.3-0.2-0.7-0.3-1.1C55.2,15,39,11,27.9,16.1c-15.4,7.1-9.4,22.8-14.4,30
			c-2.6,2-5.3,5.1-7.5,8.4C8.5,59,11.9,63,16.1,66c3-6.2,3.6-13-0.8-19.1c4.1,1.2,6.7,5.6,6.9,6c2.3-3.3,4.1-11.6,5-16.3
			C31.1,15.6,55.8,17.9,58.3,27.3z"/>
		<path class="st5" d="M58,26.2c-2.6-9.9-18.7-14.9-29.7-9.9c-5.8,2.7-9.8,8.1-11.3,16.2c-0.9,4.9-1,9.6-2.9,12.6
			c-2.5,4.2-5.4,6-8,9.7c-0.4-0.7-0.7-1.4-1.1-2.2c2.7-4.1,5.6-6.5,6.6-8.2c1.8-3.3,2.4-10.9,3-14c0.8-4.7,3-12.8,12.5-16.4
			c9.5-3.6,20.6-1.4,25.7,3.7C56.2,20.7,57.5,24,58,26.2z"/>
		<path class="st6" d="M58.4,28.3c-0.5-9.9-25.2-13.5-30.9,2.1c-2.1,5.8-1.5,14.7-5.3,22.5c0.3,0.5,0.5,1,0.7,1.5
			c0.7,1.7,1.3,3.5,1.5,5.3c0.8,5.1,8.5,11,15.8,10.9C55,70.4,56.3,62,56.3,61.9c0.8-2.7,1.3-5.6,1.6-8.7c0.3-3,1.4-8.8,0.7-11.4
			c-0.6-2.3-1.6-2.3-3.9-2.7c0,0-0.2,1.3,0.2,2.3c0.5-0.2,0.8-0.3,1.2-0.5c2.6-1.5,1.8,10.7-7.7,10c-7.5-0.6-8.5-11.3-7.1-17
			c1.1-4.7,3.9-7.9,8.9-8.4C53.3,25.2,56.4,26.2,58.4,28.3z"/>
		<path class="st7" d="M37.4,73.2c5.7,0,11-1.3,15.8-3.6c1.3-2.3,2.4-4.8,3.2-7.6c-3.6,8.9-23.3,12.5-31.9-2l-0.1-0.3
			c0.5,3.4,0.1,6.7-1.6,9.7c-0.1,0.2-0.2,0.4-0.3,0.5C27.3,72.1,32.3,73.2,37.4,73.2z"/>
		<path class="st1" d="M32.1,21.8c3.1,0,5.5,2.5,5.5,5.5c0,3.1-2.4,5.5-5.5,5.5c-3,0-5.5-2.4-5.5-5.5c0-0.8,0.2-1.6,0.5-2.3
			c-1,0.2-2.4,0.1-2.7-1.3c-0.1-0.5,0-0.7,0.2-0.6c0.5,0.1,0.4,0.7,1.5,0.8c1.6,0.2,2.3-0.8,3.5-1.4C30.3,22,31.2,21.8,32.1,21.8z"
			/>
		<path class="st8" d="M36.2,26.5c0.1,0.3,0.1,0.5,0.1,0.7c0,2.3-1.9,4.2-4.1,4.2c-0.9,0-1.7-0.3-2.4-0.8c0.5,0.2,1.2,0.4,1.8,0.4
			C34,31,36,29,36.2,26.5z"/>
		<path class="st9" d="M30,24.6c0.6,0,1.2,0.5,1.2,1.2s-0.5,1.2-1.2,1.2s-1.1-0.5-1.1-1.2S29.3,24.6,30,24.6z"/>
		<path class="st10" d="M43,33.9c-0.1,1.4,0.2,3.4,2.4,3.8c1.6,0.3,11.7-1.3,14.1,2c-1.9-5.9-9.6-4-12.6-3.8
			C45.5,36,44,35.7,43,33.9z"/>
		<path class="st10" d="M55.6,42.5c0.4,0.4-0.1,6.1-5.7,6.6c-5.1,0.5-7.7-4.8-7.5-10.2C45.1,42.8,51.5,45.9,55.6,42.5z"/>
		<path class="st11" d="M42.5,37.4c0,0,3.3,4.8,7.3,5.5c3.1,0.6,5.6-0.4,5.7-0.4l0.1,0.1c-0.6,0.9-2,1.9-5,1.8
			c-2.9-0.1-6.8-2.5-8.1-5.4C42.4,38.4,42.4,37.9,42.5,37.4z"/>
		<path class="st12" d="M44.5,38.5c0.4,0.2,1.4,0.6,3.3,0.3c0.5-0.1,1.1-0.1,1.6-0.1c0.5,1,1,2.3,1.4,3
			C47.5,41.3,45.3,39.3,44.5,38.5z"/>
		<path class="st11" d="M43,33.3c0,0.2-0.1,0.4-0.1,0.6c0.3,1,0.8,2.1,2.3,2.3c2.7,0.5,12.4-2.2,14.3,3.5c0,0,1.7-10-6.1-12.1
			c-3.1-0.8-5.9,0-6.9,0.8c-1.5,1.3-0.9,2-1.5,2.6C44.1,32.3,43.3,31.9,43,33.3z"/>
		<path class="st13" d="M49.4,38.7c2-0.1,3.6,0.2,3.6,0.2S52.8,40,53.1,41c0.1,0.3,0.2,0.5,0.2,0.6c-1,0.2-1.9,0.2-2.7,0.1
			C49.8,40.7,49.5,39.5,49.4,38.7z"/>
		<path class="st14" d="M46.3,30.2c0,0,0.7-2.3,5.1-2.2c3.5,0.1,7.3,3.4,7.5,7.7C58.9,35.7,54.9,26.3,46.3,30.2z"/>
	</g>
</g>
</svg>
