<svg width="835" height="834" xmlns="http://www.w3.org/2000/svg" xmlns:xlink="http://www.w3.org/1999/xlink" overflow="hidden"><defs><clipPath id="clip0"><rect x="-2310" y="728" width="835" height="834"/></clipPath><clipPath id="clip1"><rect x="-2266" y="771" width="717" height="741"/></clipPath><clipPath id="clip2"><rect x="-2266" y="771" width="717" height="741"/></clipPath><clipPath id="clip3"><rect x="-2266" y="771" width="717" height="741"/></clipPath></defs><g clip-path="url(#clip0)" transform="translate(2310 -728)"><path d="M-2306.5 1144C-2306.5 916.183-2121.82 731.5-1894 731.5-1666.18 731.5-1481.5 916.183-1481.5 1144-1481.5 1371.82-1666.18 1556.5-1894 1556.5-2121.82 1556.5-2306.5 1371.82-2306.5 1144Z" stroke="#FFFFFF" stroke-width="4.58333" stroke-linecap="butt" stroke-linejoin="miter" stroke-miterlimit="8" stroke-opacity="1" fill="#FFFFFF" fill-rule="evenodd" fill-opacity="1"/><g clip-path="url(#clip1)"><g clip-path="url(#clip2)"><g clip-path="url(#clip3)"><path d="M102.963 530.028C127.983 505.138 168.444 505.244 193.333 530.264 218.223 555.285 218.118 595.745 193.098 620.635 168.077 645.525 127.617 645.419 102.727 620.399 77.9292 595.471 77.9292 555.192 102.727 530.264L102.963 530.028" fill="#FDBA4D" fill-rule="nonzero" fill-opacity="1" transform="matrix(1 0 0 1.00053 -2265.89 771)"/><path d="M540.443 114.699C565.422 89.7184 605.922 89.717 630.902 114.696 655.883 139.675 655.884 180.175 630.905 205.156 605.926 230.136 565.426 230.137 540.446 205.159 540.445 205.158 540.444 205.157 540.443 205.156L540.443 205.156C515.503 180.228 515.468 139.811 540.364 114.841L540.443 114.841" fill="#FDBA4D" fill-rule="nonzero" fill-opacity="1" transform="matrix(1 0 0 1.00053 -2265.89 771)"/><path d="M184.988 480.82 252.476 548.308 314.301 486.483C283.47 474.105 259.034 449.669 246.655 418.838Z" fill="#FDBA4D" fill-rule="nonzero" fill-opacity="1" transform="matrix(1 0 0 1.00053 -2265.89 771)"/><path d="M488.465 315.686 550.291 253.86 482.802 186.372 420.977 248.197C436.237 254.319 450.097 263.47 461.722 275.098 473.334 286.643 482.439 300.46 488.465 315.686" fill="#FDBA4D" fill-rule="nonzero" fill-opacity="1" transform="matrix(1 0 0 1.00053 -2265.89 771)"/><path d="M538.287 617.291C513.307 592.313 513.306 551.812 538.284 526.832 563.263 501.851 603.763 501.85 628.744 526.829 653.725 551.808 653.726 592.308 628.747 617.288 628.746 617.289 628.745 617.29 628.744 617.291L628.744 617.291C603.813 642.27 563.352 642.309 538.373 617.377 538.371 617.375 538.369 617.372 538.366 617.37L538.287 617.291" fill="#5DA9DD" fill-rule="nonzero" fill-opacity="1" transform="matrix(1 0 0 1.00053 -2265.89 771)"/><path d="M109.382 199.461C84.4011 174.482 84.3997 133.982 109.379 109.001 134.358 84.0205 174.858 84.0192 199.838 108.998 224.819 133.977 224.82 174.477 199.841 199.458 199.84 199.459 199.839 199.46 199.838 199.461L199.838 199.461C174.885 224.418 134.425 224.421 109.468 199.468 109.465 199.466 109.463 199.463 109.46 199.461L109.46 199.461" fill="#5DA9DD" fill-rule="nonzero" fill-opacity="1" transform="matrix(1 0 0 1.00053 -2265.89 771)"/><path d="M477.705 545.618 545.194 478.13 483.368 416.305C470.99 447.136 446.554 471.572 415.723 483.951" fill="#5DA9DD" fill-rule="nonzero" fill-opacity="1" transform="matrix(1 0 0 1.00053 -2265.89 771)"/><path d="M319.461 244.689 257.636 182.864 190.148 250.352 251.973 312.177C258.095 296.918 267.246 283.057 278.874 271.433 290.419 259.82 304.236 250.716 319.461 244.689" fill="#5DA9DD" fill-rule="nonzero" fill-opacity="1" transform="matrix(1 0 0 1.00053 -2265.89 771)"/><path d="M432.493 64.0275C432.466 99.3629 403.8 127.987 368.465 127.961 333.13 127.935 304.506 99.2685 304.532 63.9331 304.558 28.5978 333.224-0.0260485 368.559 1.64463e-05 403.858 0.0260542 432.467 28.6346 432.493 63.9331L432.493 64.0275" fill="#18568C" fill-rule="nonzero" fill-opacity="1" transform="matrix(1 0 0 1.00053 -2265.89 771)"/><path d="M432.493 675.577C432.466 710.912 403.8 739.536 368.465 739.51 333.13 739.484 304.506 710.818 304.532 675.482 304.558 640.147 333.224 611.523 368.559 611.549 403.858 611.575 432.467 640.184 432.493 675.482Z" fill="#18568C" fill-rule="nonzero" fill-opacity="1" transform="matrix(1 0 0 1.00053 -2265.89 771)"/><path d="M391.716 161.563 351.443 161.563 351.443 240.85C364.768 238.538 378.392 238.538 391.716 240.85" fill="#18568C" fill-rule="nonzero" fill-opacity="1" transform="matrix(1 0 0 1.00053 -2265.89 771)"/><path d="M391.716 502.246C378.392 504.559 364.768 504.559 351.443 502.246L351.443 581.534 391.716 581.534" fill="#18568C" fill-rule="nonzero" fill-opacity="1" transform="matrix(1 0 0 1.00053 -2265.89 771)"/><path d="M651.759 416.305C616.424 416.279 587.8 387.613 587.826 352.277 587.852 316.942 616.518 288.318 651.854 288.344 687.189 288.37 715.813 317.036 715.787 352.372 715.761 387.67 687.152 416.279 651.854 416.305L651.759 416.305" fill="#18578C" fill-rule="nonzero" fill-opacity="1" transform="matrix(1 0 0 1.00053 -2265.89 771)"/><path d="M64.0275 427.175C28.6661 427.175 2.06549e-06 398.509 3.13285e-06 363.148 4.20021e-06 327.786 28.6661 299.12 64.0275 299.12 99.3828 299.12 128.046 327.777 128.055 363.132 128.064 398.493 99.4047 427.167 64.0433 427.175 64.038 427.175 64.0328 427.175 64.0275 427.175L64.0275 427.175" fill="#18578C" fill-rule="nonzero" fill-opacity="1" transform="matrix(1 0 0 1.00053 -2265.89 771)"/><path d="M488.953 383.284 568.24 383.284 568.24 342.948 488.953 342.948C491.266 356.273 491.266 369.897 488.953 383.221Z" fill="#18578C" fill-rule="nonzero" fill-opacity="1" transform="matrix(1 0 0 1.00053 -2265.89 771)"/><path d="M242.597 383.284C240.284 369.959 240.284 356.336 242.597 343.011L163.31 343.011 163.31 383.284" fill="#18578C" fill-rule="nonzero" fill-opacity="1" transform="matrix(1 0 0 1.00053 -2265.89 771)"/><path d="M457.317 367.867C457.317 417.999 416.677 458.638 366.546 458.638 316.414 458.638 275.775 417.999 275.775 367.867 275.775 317.736 316.414 277.096 366.546 277.096L366.546 277.096C416.67 277.113 457.3 317.743 457.317 367.867Z" fill="#18568B" fill-rule="nonzero" fill-opacity="1" transform="matrix(1 0 0 1.00053 -2265.89 771)"/></g></g></g></g></svg>