<svg width="839" height="844" xmlns="http://www.w3.org/2000/svg" xmlns:xlink="http://www.w3.org/1999/xlink" xml:space="preserve" overflow="hidden"><defs><clipPath id="clip0"><rect x="-921" y="682" width="839" height="844"/></clipPath><clipPath id="clip1"><rect x="-919" y="685" width="835" height="835"/></clipPath><clipPath id="clip2"><rect x="-919" y="685" width="835" height="835"/></clipPath><clipPath id="clip3"><rect x="-919" y="685" width="835" height="835"/></clipPath></defs><g clip-path="url(#clip0)" transform="translate(921 -682)"><path d="M-912.5 1107C-912.5 879.182-727.818 694.5-500 694.5-272.183 694.5-87.5002 879.182-87.5002 1107-87.5002 1334.82-272.183 1519.5-500 1519.5-727.818 1519.5-912.5 1334.82-912.5 1107Z" stroke="#000000" stroke-width="4.58333" stroke-linecap="butt" stroke-linejoin="miter" stroke-miterlimit="8" stroke-opacity="1" fill="#FFFFFF" fill-rule="evenodd" fill-opacity="1"/><g clip-path="url(#clip1)"><g clip-path="url(#clip2)"><g clip-path="url(#clip3)"><path d="M-462.906 686.629C-382.927 694.285-303.11 726.863-240.56 777.359-219.548 794.3-185.178 829.647-170.029 849.845-125.397 909.3-97.8683 977.226-87.9319 1051.5-85.3257 1071.54-85.3257 1134.42-87.9319 1153.31-98.5198 1228.08-125.885 1295.51-169.54 1353.67-184.526 1373.54-219.059 1409.21-238.932 1425.34-298.875 1474.04-372.828 1505.64-451.504 1516.07-471.539 1518.67-534.415 1518.67-553.31 1516.07-628.077 1505.48-695.514 1478.11-753.666 1434.46-773.539 1419.47-809.212 1384.94-825.338 1365.07-874.042 1305.12-905.643 1231.17-916.068 1152.5-918.674 1132.46-918.674 1069.58-916.068 1050.69-905.48 975.923-878.114 908.486-834.46 850.334-819.474 830.461-784.941 794.788-765.068 778.662-705.613 730.284-630.521 698.194-554.125 688.258-535.392 685.815-481.964 684.837-462.906 686.629ZM-365.009 817.593-393.189 845.773-376.411 854.406C-323.472 881.12-279.165 925.752-252.94 978.855L-245.773 993.189-217.43 964.846-189.25 936.666-262.876 863.039C-303.436 822.48-336.666 789.25-336.666 789.25-336.666 789.25-349.371 801.956-365.009 817.593ZM-801.719 977.389C-782.497 996.61-766.371 1012.41-765.883 1012.41-765.394 1012.41-763.602 1008.5-761.973 1003.78-757.087 989.606-741.938 960.774-731.513 945.462-707.242 909.952-671.406 877.7-633.941 857.175L-628.403 854.243-658.538 824.109-688.51 794.137-762.625 868.252-836.74 942.367-801.719 977.389ZM-564.713 926.893C-590.775 941.879-612.928 955.073-614.069 956.213-615.698 957.679-612.44 960.285-597.128 969.081-580.676 978.692-577.581 979.995-574.323 978.366-572.206 977.552-556.568 968.593-539.465 958.656-522.361 948.883-508.027 940.738-507.701 940.738-507.375 940.738-491.901 949.534-473.331 960.285-454.762 971.036-438.961 979.832-438.147 979.832-436.029 979.832-399.379 958.493-399.379 957.19-399.542 956.702-423.812 942.204-453.621 924.938L-507.701 893.663-512.588 896.758C-515.194 898.387-538.813 911.907-564.713 926.893ZM-389.28 986.348C-399.216 992.212-407.523 997.261-407.523 997.75-407.523 998.239-398.727 1003.61-387.976 1009.8L-368.592 1021.21-368.104 1044.34-367.615 1067.47-348.883 1056.55-330.15 1045.64-329.824 1021.21-329.336 996.936-348.557 986.022C-358.982 979.995-368.43 975.108-369.244 975.434-370.221 975.597-379.18 980.484-389.28 986.348ZM-527.248 985.859C-537.51 991.886-545.98 997.261-545.98 997.75-545.98 999.216-508.516 1020.88-507.049 1020.23-501.185 1017.95-469.422 998.402-469.91 997.261-470.399 995.795-505.258 975.108-507.375 974.945-508.027 974.945-516.986 979.832-527.248 985.859ZM-666.519 986.022-685.252 997.098-685.252 1021.37-685.252 1045.64-666.519 1056.55-647.787 1067.47-647.298 1044.17-646.81 1020.88-627.426 1009.8C-616.675 1003.61-607.879 998.239-607.879 997.75-607.879 996.61-644.04 975.108-646.158 975.108-647.135 974.945-656.257 979.995-666.519 986.022ZM-477.241 1037.5C-503.466 1052.64-507.538 1054.6-510.633 1052.97-512.588 1051.83-527.899 1043.03-544.677 1033.42-561.455 1023.65-576.115 1015.67-577.255 1015.67-578.396 1015.67-587.843 1020.72-598.105 1026.74L-616.838 1037.82-617.326 1061.28-617.815 1084.9-582.631 1105.09-547.609 1125.46-547.609 1165.69-547.609 1205.92-530.18 1216.19C-520.406 1221.72-511.448 1227.1-510.144 1227.91-508.353 1228.89-502.163 1226.12-487.665 1217.65L-467.793 1205.92-467.793 1165.53-467.793 1125.29-432.771 1105.09-397.75 1085.06-397.75 1061.28-397.913 1037.66-417.785 1026.09-437.658 1014.53-442.545 1017.3C-445.314 1018.93-460.789 1027.88-477.241 1037.5ZM-354.258 1093.69-368.43 1102.16-368.43 1142.4-368.43 1182.63-403.451 1202.83-438.473 1222.86-438.473 1246.16-438.473 1269.45-384.393 1238.01-330.15 1206.58-329.662 1142.72-329.336 1078.87-334.548 1082.13C-337.48 1083.92-346.276 1089.13-354.258 1093.69ZM-684.926 1206.41C-684.112 1207.06-661.307 1220.58-633.941 1236.38-606.576 1252.19-582.631 1266.19-580.676 1267.5L-576.93 1269.78-576.93 1246.32-576.93 1222.86-611.951 1202.67-646.81 1182.63-647.298 1141.91-647.787 1101.35-666.519 1090.27-685.252 1079.36-685.74 1142.23C-685.903 1176.93-685.578 1205.76-684.926 1206.41ZM-419.089 1131.32-438.473 1142.89-438.473 1165.53C-438.473 1178.07-438.147 1188.33-437.821 1188.33-437.332 1188.33-428.373 1183.28-417.785 1177.09L-398.564 1165.85-398.076 1142.89C-397.913 1130.18-398.076 1119.92-398.564 1119.92-399.216 1119.92-408.338 1125.13-419.089 1131.32ZM-617.652 1142.72-617.652 1165.36-598.268 1176.93C-587.517 1183.12-578.396 1188.33-577.744 1188.33-577.255 1188.33-577.092 1177.91-577.255 1165.2L-577.744 1142.07-596.476 1131.16C-606.739 1124.97-615.698 1120.08-616.512 1119.92-617.164 1119.92-617.652 1130.18-617.652 1142.72ZM-754.806 1354.81-681.18 1428.6-645.995 1393.41-610.811 1358.23-627.589 1349.59C-680.528 1322.88-724.834 1278.25-751.06 1225.15L-758.227 1210.81-793.411 1246-828.596 1281.18-754.806 1354.81ZM-257.827 1234.27C-261.573 1243.55-281.283 1271.57-294.151 1286.39-321.843 1317.83-365.335 1348.13-401.822 1361.16-407.686 1363.28-412.41 1365.39-412.41 1365.88-412.41 1366.37-397.424 1381.68-379.017 1400.09L-345.625 1433.48-272.324 1360.18C-231.927 1319.95-199.023 1286.23-199.023 1285.25-199.023 1283.46-252.94 1229.05-254.569 1229.05-255.221 1229.05-256.687 1231.5-257.827 1234.27ZM-492.552 1254.95C-500.371 1259.52-507.049 1263.26-507.538 1263.26-507.864 1263.26-513.565 1260.17-520.244 1256.26-526.759 1252.35-535.555 1247.3-539.953 1244.86L-547.609 1240.29-547.609 1263.75-547.609 1287.04-528.225 1298.28C-517.474 1304.47-508.353 1309.36-507.701 1309.36-507.049 1309.36-497.928 1304.31-487.177 1298.12L-467.793 1287.04-467.793 1263.59-467.793 1240.13-473.168 1243.39C-475.937 1245.18-484.733 1250.39-492.552 1254.95Z" fill="#000000" fill-rule="nonzero" fill-opacity="1"/></g></g></g></g></svg>