<?xml version="1.0" standalone="no"?>
<!DOCTYPE svg PUBLIC "-//W3C//DTD SVG 20010904//EN"
 "http://www.w3.org/TR/2001/REC-SVG-20010904/DTD/svg10.dtd">
<svg version="1.0" xmlns="http://www.w3.org/2000/svg"
 width="512.000000pt" height="512.000000pt" viewBox="0 0 512.000000 512.000000"
 preserveAspectRatio="xMidYMid meet">

<g transform="translate(0.000000,512.000000) scale(0.100000,-0.100000)"
fill="#000000" stroke="none">
<path d="M2320 5110 c-491 -47 -981 -247 -1365 -557 -129 -104 -340 -321 -433
-445 -274 -365 -443 -782 -504 -1238 -16 -123 -16 -509 0 -625 65 -459 233
-873 501 -1230 92 -122 304 -341 426 -440 368 -299 822 -493 1305 -557 123
-16 509 -16 625 0 459 65 873 233 1230 501 122 92 341 304 440 426 299 368
493 822 557 1305 16 123 16 509 0 625 -65 459 -233 873 -501 1230 -92 122
-304 341 -426 440 -365 297 -826 494 -1295 555 -115 15 -443 21 -560 10z
m-601 -804 l173 -173 -103 -53 c-325 -164 -597 -438 -758 -764 l-44 -88 -174
174 -173 173 452 452 c249 249 453 453 453 453 0 0 78 -78 174 -174z m2681
-981 c-118 -118 -217 -215 -220 -215 -3 0 -14 24 -24 53 -30 87 -123 264 -187
358 -149 218 -369 416 -599 542 l-34 18 185 185 184 184 455 -455 455 -455
-215 -215z m-1455 310 c160 -92 296 -173 303 -180 10 -9 -10 -25 -104 -79
-101 -59 -120 -67 -140 -57 -13 5 -109 60 -214 121 -105 60 -193 110 -195 110
-2 0 -97 -54 -211 -120 -114 -66 -211 -120 -216 -120 -13 0 -238 131 -238 139
1 3 150 92 333 198 l332 192 30 -19 c16 -10 161 -93 320 -185z m-1077 -365
c61 -36 112 -67 112 -70 0 -3 -54 -36 -120 -74 l-119 -70 -3 -142 -3 -142
-115 67 -115 67 -2 150 -3 149 118 67 c64 37 122 67 127 65 6 -1 61 -31 123
-67z m847 3 c63 -37 115 -70 115 -73 0 -9 -230 -142 -239 -138 -36 14 -231
134 -228 141 3 9 217 136 230 137 4 0 59 -30 122 -67z m855 -1 l115 -68 0
-149 0 -149 -115 -67 -115 -67 -3 143 -3 143 -119 68 c-66 38 -120 71 -120 74
0 7 222 139 235 139 6 1 62 -30 125 -67z m-1162 -316 c161 -93 186 -105 205
-95 12 7 106 61 209 120 103 60 193 109 200 109 7 0 65 -31 128 -68 l115 -68
3 -144 3 -145 -216 -124 -215 -125 0 -247 0 -247 -107 -63 c-60 -34 -115 -67
-123 -72 -11 -6 -49 11 -138 63 l-122 72 0 248 0 247 -215 124 -215 123 0 146
1 145 122 71 122 71 30 -17 c17 -10 112 -65 213 -124z m-755 -345 l87 -52 0
-247 0 -247 215 -124 215 -123 0 -143 0 -143 -332 193 -333 193 -3 392 -2 392
32 -20 c18 -11 72 -43 121 -71z m2030 -692 c-5 -4 -145 -87 -313 -184 -168
-97 -315 -183 -327 -191 l-23 -14 0 144 0 144 215 124 214 123 3 250 3 249
115 68 115 67 3 -386 c1 -213 -1 -390 -5 -394z m-1632 461 l119 -71 0 -139 c0
-77 -2 -140 -4 -140 -3 0 -58 31 -123 69 l-118 69 -3 141 c-1 78 0 141 3 141
4 0 60 -32 126 -70z m1219 -70 l0 -139 -119 -71 c-66 -38 -122 -70 -126 -70
-3 0 -4 64 -3 142 l3 142 115 67 c63 38 118 68 123 69 4 0 7 -63 7 -140z m842
-1302 l-452 -453 -216 216 -216 216 103 53 c325 164 597 438 758 764 l44 88
216 -216 216 -216 -453 -452z m-3051 740 c23 -57 144 -229 223 -320 170 -193
437 -379 661 -459 36 -13 65 -26 65 -29 0 -3 -92 -97 -205 -210 l-205 -205
-450 450 c-248 247 -450 454 -450 460 0 11 331 345 341 345 4 0 13 -15 20 -32z
m1441 -127 c48 -28 89 -51 92 -51 2 0 37 19 78 43 40 24 94 55 121 70 l47 28
0 -144 0 -143 -119 -69 c-66 -38 -122 -68 -126 -68 -4 0 -60 31 -126 69 l-119
68 0 144 0 144 33 -20 c17 -11 71 -43 119 -71z"/>
</g>
</svg>
