<svg width="192" height="192" xmlns="http://www.w3.org/2000/svg" xmlns:xlink="http://www.w3.org/1999/xlink" xml:space="preserve" overflow="hidden"><g transform="translate(-544 -264)"><g><g><g><g><path d="M609.741 289.529C603.307 290.735 597.811 294.824 594.795 300.654 592.517 305.145 592.316 307.356 592.316 323.24 592.316 340.732 592.785 344.954 595.466 352.326 595.868 353.533 596.337 354.538 596.538 354.538 596.672 354.471 597.677 353.332 598.683 351.857 601.162 348.372 606.323 343.413 610.344 340.598L613.494 338.386 613.494 310.238 629.981 310.372C645.663 310.506 646.467 310.573 648.612 311.31 657.794 314.795 663.423 320.693 665.903 329.339 666.908 333.025 667.109 340.263 666.238 343.748 665.032 348.64 661.547 354.337 657.995 357.286 652.097 362.178 644.323 364.256 636.75 363.049L633.868 362.58 630.852 364.055C626.496 366.266 622.944 369.818 620.799 374.175 618.453 379.134 618.453 378.933 620.799 379.938 624.753 381.614 628.841 382.887 633.063 383.624 638.693 384.563 647.607 384.228 652.767 382.887 670.795 378.129 684.333 363.183 687.215 344.686 688.422 336.845 687.349 326.524 684.668 319.487 681.25 310.774 674.817 302.598 667.176 297.437 661.346 293.55 656.989 291.674 650.086 290.132 646.601 289.328 645.194 289.261 629.042 289.194 619.526 289.194 610.813 289.328 609.741 289.529Z" fill="#EEB330" fill-rule="nonzero" fill-opacity="1"/><path d="M635.208 336.108C624.753 337.314 614.298 342.474 606.725 350.115 598.951 357.956 594.326 367.473 592.852 378.665 592.048 384.831 592.048 410.097 592.852 413.984 594.192 420.284 598.347 425.78 603.843 428.527 608.4 430.739 609.339 430.806 629.578 430.672 649.014 430.538 649.483 430.471 655.448 428.46 666.908 424.573 676.492 416.464 682.256 405.875 684.4 401.854 686.478 395.554 687.215 390.728 688.153 384.63 687.818 376.587 686.277 370.623 685.138 366.333 684.87 365.395 684.601 365.797 684.534 365.864 683.663 367.138 682.658 368.545 681.25 370.489 679.709 372.298 678.034 373.974 675.42 376.654 669.656 381.212 667.981 381.949 667.31 382.284 667.109 382.82 666.908 385.3 666.238 392.404 663.691 397.899 658.933 402.524 656.587 404.87 653.839 406.679 650.824 407.952 646.333 409.762 643.921 409.963 628.171 409.963L613.561 409.963 613.695 394.481 613.829 379 614.834 376.051C615.504 374.108 616.376 372.298 617.314 370.489 619.19 367.205 623.815 362.513 627.099 360.57 632.393 357.487 638.961 356.146 644.658 356.884 646.333 357.085 647.942 357.353 648.143 357.353 649.282 357.42 653.437 354.806 655.716 352.661 658.933 349.646 661.547 344.887 661.547 341.938L661.614 340.196 658.799 339.056C651.159 336.108 643.116 335.102 635.208 336.108Z" fill="#EEB330" fill-rule="nonzero" fill-opacity="1"/><path d="M639.966 269.691C664.094 269.691 686.746 279.074 703.836 296.164 720.926 313.254 730.309 335.907 730.309 360.034 730.309 384.16 720.926 406.813 703.836 423.903 686.746 440.993 664.094 450.376 639.966 450.376 615.839 450.376 593.187 440.993 576.097 423.903 559.007 406.813 549.691 384.093 549.691 359.966 549.691 335.84 559.074 313.187 576.164 296.097 593.254 279.007 615.839 269.691 639.966 269.691M639.966 265C587.557 265 545 307.557 545 359.966 545 412.376 587.557 454.933 639.966 454.933 692.376 454.933 735 412.443 735 359.966 735 307.49 692.443 265 639.966 265Z" fill="#EEB330" fill-rule="nonzero" fill-opacity="1"/></g></g></g></g></g></svg>