<svg width="410" height="394" xmlns="http://www.w3.org/2000/svg" xmlns:xlink="http://www.w3.org/1999/xlink" xml:space="preserve" overflow="hidden"><defs><clipPath id="clip0"><rect x="250" y="100" width="410" height="394"/></clipPath><clipPath id="clip1"><rect x="251" y="100" width="408" height="394"/></clipPath><clipPath id="clip2"><rect x="251" y="100" width="408" height="395"/></clipPath><clipPath id="clip3"><rect x="251" y="100" width="816" height="395"/></clipPath><linearGradient x1="42.7587" y1="288.955" x2="361.308" y2="105.045" gradientUnits="userSpaceOnUse" spreadMethod="pad" id="fill4"><stop offset="0" stop-color="#FFC100" stop-opacity="1"/><stop offset="0.04" stop-color="#FFC100" stop-opacity="1"/><stop offset="1" stop-color="#00C800" stop-opacity="1"/></linearGradient></defs><g clip-path="url(#clip0)" transform="translate(-250 -100)"><g clip-path="url(#clip1)"><g clip-path="url(#clip2)"><g clip-path="url(#clip3)"><path d="M535.133 98.7011C541.92 101.199 547.17 104.765 550.887 109.406 554.601 114.049 556.457 119.501 556.457 125.769 556.457 132.037 554.569 137.724 550.802 142.481 547.029 147.241 541.895 150.49 535.397 152.23 543.17 153.742 549.291 157.28 553.762 162.85 558.226 168.421 560.463 175.151 560.463 183.043 560.463 189.89 558.547 195.897 554.72 201.059 550.89 206.225 545.432 210.171 538.357 212.895 531.278 215.622 522.977 216.986 513.463 216.986L453.235 216.986 453.235 94.959 511.201 94.959C520.366 94.959 528.346 96.2095 535.136 98.7011ZM519.901 140.304C522.452 138.158 523.731 135.167 523.731 131.34 523.731 127.513 522.452 124.754 519.901 122.721 517.346 120.692 513.865 119.736 509.457 119.85L485.085 119.85 485.085 143.524 509.457 143.524C513.865 143.524 517.346 142.453 519.901 140.304ZM522.685 188.784C525.933 186.462 527.561 183.213 527.561 179.034 527.561 175.204 525.937 172.16 522.685 169.894 519.436 167.629 515.028 166.561 509.457 166.674L485.085 166.674 485.085 192.262 509.457 192.262C515.028 192.262 519.436 191.103 522.685 188.781Z" fill="#FFFFFF" fill-rule="nonzero" fill-opacity="1" transform="matrix(1.00004 0 0 1 251 100)"/><path d="M647.668 216.983 629.913 183.213 606.238 183.213 606.238 216.983 574.382 216.983 574.382 94.959 629.216 94.959C645.343 94.959 657.851 98.7011 666.727 106.185 675.606 113.669 680.043 124.201 680.043 137.781 680.043 146.949 678.186 154.87 674.472 161.54 670.755 168.214 665.36 173.407 658.285 177.118L683.7 216.98 647.668 216.98ZM606.238 157.798 629.391 157.798C635.889 157.798 640.907 156.174 644.448 152.925 647.986 149.676 649.758 144.976 649.758 138.824 649.758 132.672 647.986 128.352 644.448 125.159 640.907 121.97 635.889 120.371 629.391 120.371L606.238 120.371 606.238 157.795Z" fill="#FFFFFF" fill-rule="nonzero" fill-opacity="1" transform="matrix(1.00004 0 0 1 251 100)"/><path d="M692.054 94.959 796.845 94.959 796.845 115.847 732.441 191.395 797.891 191.395 797.891 216.983 689.792 216.983 689.792 196.268 754.199 120.547 692.054 120.547 692.054 94.959Z" fill="#FFFFFF" fill-rule="nonzero" fill-opacity="1" transform="matrix(1.00004 0 0 1 251 100)"/><path d="M453.232 251.686 487.724 251.686 487.724 255.78 472.718 255.78 472.718 297.159 468.235 297.159 468.235 255.78 453.229 255.78 453.229 251.686Z" fill="#FFFFFF" fill-rule="nonzero" fill-opacity="1" transform="matrix(1.00004 0 0 1 251 100)"/><path d="M530.307 254.444C533.92 256.502 536.792 259.286 538.913 262.792 541.034 266.299 542.096 270.154 542.096 274.355 542.096 278.556 541.034 282.433 538.913 285.983 536.792 289.533 533.92 292.349 530.307 294.429 526.691 296.505 522.716 297.545 518.387 297.545 514.057 297.545 510.082 296.505 506.466 294.429 502.85 292.349 499.981 289.537 497.857 285.983 495.733 282.433 494.674 278.556 494.674 274.355 494.674 270.154 495.736 266.299 497.857 262.792 499.978 259.286 502.846 256.502 506.466 254.444 510.082 252.389 514.054 251.359 518.387 251.359 522.719 251.359 526.691 252.389 530.307 254.444ZM508.838 257.919C505.891 259.606 503.553 261.903 501.822 264.806 500.088 267.706 499.224 270.889 499.224 274.355 499.224 277.82 500.088 281.025 501.822 283.969 503.553 286.916 505.891 289.241 508.838 290.954 511.782 292.666 514.987 293.521 518.453 293.521 521.918 293.521 525.047 292.666 527.969 290.954 530.891 289.244 533.22 286.916 534.951 283.969 536.685 281.025 537.549 277.82 537.549 274.355 537.549 270.889 536.682 267.706 534.951 264.806 533.22 261.903 530.891 259.61 527.969 257.919 525.047 256.232 521.874 255.387 518.453 255.387 515.031 255.387 511.782 256.232 508.838 257.919Z" fill="#FFFFFF" fill-rule="nonzero" fill-opacity="1" transform="matrix(1.00004 0 0 1 251 100)"/><path d="M594.905 297.156 589.385 297.156 572.17 275.071 562.946 285.075 562.946 297.156 558.462 297.156 558.462 251.686 562.946 251.686 562.946 279.357 588.147 251.686 593.605 251.686 575.353 271.562 594.905 297.156Z" fill="#FFFFFF" fill-rule="nonzero" fill-opacity="1" transform="matrix(1.00004 0 0 1 251 100)"/><path d="M610.04 251.752 640.442 251.752 640.442 255.78 614.524 255.78 614.524 272.02 637.714 272.02 637.714 276.048 614.524 276.048 614.524 293.134 641.287 293.134 641.287 297.162 610.04 297.162 610.04 251.758Z" fill="#FFFFFF" fill-rule="nonzero" fill-opacity="1" transform="matrix(1.00004 0 0 1 251 100)"/><path d="M691.693 251.752 696.111 251.752 696.111 297.156 691.369 297.156 663.243 258.702 663.243 297.156 658.759 297.156 658.759 251.752 663.5 251.752 691.693 290.206 691.693 251.752Z" fill="#FFFFFF" fill-rule="nonzero" fill-opacity="1" transform="matrix(1.00004 0 0 1 251 100)"/><path d="M385.947 197C385.947 298.573 303.606 380.914 202.033 380.914 100.461 380.914 18.1196 298.573 18.1196 197 18.1196 95.4272 100.461 13.0862 202.033 13.0862 303.606 13.0862 385.947 95.4272 385.947 197Z" fill="url(#fill4)" fill-rule="nonzero" transform="matrix(1.00004 0 0 1 251 100)"/><path d="M286.131 123.466 244.132 165.477 244.088 165.433 202.033 123.378 117.917 123.378 69.2611 172.15 117.933 220.813 160.035 178.711 195.467 214.142 195.42 214.19 153.352 256.245 202.024 304.907 250.686 256.245 215.145 220.703 286.033 220.703 334.796 172.132 286.124 123.469ZM321.764 172.128 286.269 207.614 286.225 207.57 250.646 171.99 286.131 136.505 321.764 172.128ZM117.933 207.771 82.3001 172.147 117.842 136.615 117.889 136.568 153.449 172.128 153.512 172.191 153.465 172.238 117.933 207.771ZM202.213 220.791 237.651 256.241 202.027 291.865 166.394 256.241 201.936 220.7 201.983 220.653 202.03 220.7 202.121 220.7 202.213 220.791ZM205.933 211.481 166.551 172.191 166.599 172.144 127.155 132.7 127.045 132.59 198.21 132.59 276.821 211.478 205.933 211.478Z" fill="#170636" fill-rule="nonzero" fill-opacity="1" transform="matrix(1.00004 0 0 1 251 100)"/></g></g></g></g></svg>