<?xml version="1.0" encoding="UTF-8"?><svg id="Layer_1" xmlns="http://www.w3.org/2000/svg" viewBox="0 0 3919.63 3919.63"><defs><style>.cls-1{fill:#fff;}.cls-2{fill:#ffba00;}</style></defs><circle class="cls-2" cx="1959.81" cy="1959.81" r="1959.81"/><path class="cls-1" d="M2865.3,970.71c-40.49-63.71-97.26-113.11-168.72-146.84-70.41-33.26-153.1-53.07-245.74-58.86-92.09-5.79-190.51,2.64-292.65,25.13-101.8,22.42-206.25,58.74-310.45,107.96-103.71,48.98-203.38,111.78-296.3,186.68-41.01,20.67-73.78,41.76-97.42,62.75-24.48,21.78-42.23,43.16-52.77,63.51-11.22,21.73-15.74,42.99-13.42,63.22,2.38,20.4,10.03,37.99,22.16,51.59,22.46,27.79,62.78,54.69,127.25,25.3,46.43-21.19,98.57-70.04,159.29-149.25,54.09-68.84,119.86-126.19,195.5-170.44,76.1-44.57,156.08-77.51,237.69-97.91,81.65-20.42,163.52-29.56,243.21-27.03,79.39,2.49,150.31,15.5,210.78,38.71,59.34,22.79,106.61,55.73,140.49,97.91,33.15,41.32,45.84,90.59,38.78,150.68-11.12,98.72-36.7,187.1-76.04,262.71-39.54,76.01-88.04,143.32-144.17,200.03-56.33,56.94-119.65,105.84-188.22,145.38-69.13,39.86-139.94,73.69-210.48,100.52-70.5,26.85-140.01,47.7-206.61,61.99-52.49,11.31-101.17,20.6-145.22,27.72,18.27-37.65,37.53-75.74,57.48-113.65,25.55-48.66,52.9-96.97,81.25-143.64,28.32-46.52,58.37-90.79,89.32-131.61,30.83-40.73,63.48-77.78,97.28-110.35,7.17-7.17,16.31-18.95,27.98-36.07,12.17-17.94,20.19-36.64,23.85-55.61,4.16-21.8-.78-42.25-14.3-59.15-14.09-17.59-42.63-25.77-87.28-26.02-26.65,2.98-50.91,13.77-72.11,32.08-19.5,16.83-36.86,35.9-51.62,56.69-14.66,20.65-26.51,41.32-35.23,61.45-8.66,19.96-14.22,34.42-17.04,44.37-.58,1.77-4.23,10.64-26.83,50.97-17.78,31.73-40.28,71.67-67.54,119.86-27.34,48.31-57.17,102.54-88.69,161.18-29.59,55.04-59.38,111.78-88.58,168.81-16.79,1.16-25.25,1.28-29.42,1.06l-5.51-1.33c-51.78-12.64-94.98-8.65-128.51,11.73-32.71,19.91-54.87,44.52-65.86,73.12-11.75,30.5-9.61,58.91,6.36,84.38,11.85,19.02,37.76,39.25,94.09,27.54l38.57-7.91c-18.91,44.74-34.39,86.18-46.16,123.58-15.63,49.57-21.14,86.95-16.8,114.46,4.61,27.57,14.67,47.55,29.89,59.38,15.69,12.2,32.15,16.98,48.99,14.22,15.07-2.51,29.26-9.9,42.18-22,13.11-12.27,21.42-27.62,24.69-45.38,.67-3.23,5.42-19.07,29.74-88.77,18.21-52.18,42.97-116.41,73.64-190.99,49.92-8.06,104.86-15.1,163.51-20.99,62.41-6.26,126.19-9.73,189.58-10.37,62.75-.81,123.42,3.77,180.43,13.06,56.1,9.17,105.39,24.83,146.48,46.59,39.73,21.04,70.48,50.26,91.39,86.87,20.56,36,26.84,82.83,18.65,139.25-6.05,42.08-21.39,86.43-45.57,131.76-24.65,46.17-57.12,92.37-96.49,137.28-39.79,45.33-85.74,89.09-136.58,130.01-50.94,40.97-106,77.46-163.64,108.45-57.59,30.94-118.75,55.73-181.79,73.67-62.66,17.81-125.39,26.21-186.75,24.96-74.5-1.26-138.19-7.81-189.28-19.49-50.91-11.65-94-26.21-128.04-43.21-33.38-16.7-59.78-35.21-78.42-55.02-19.04-20.28-33.72-40.28-43.61-59.5-9.9-19.22-16.35-36.66-19.16-51.86-3.09-16.65-5.25-29.93-6.64-40.9-2.33-12.66-3.19-32.5-2.55-58.96,.62-28.06,.62-58.74,0-91.23-.69-33.41-1.98-65.71-3.86-95.94-1.97-32.37-6.42-59.82-13.19-81.55-10.41-33.24-32.4-45.87-49.03-50.61-21.39-6.11-43.71-5.42-66.39,2.14-21.87,7.29-42.04,20.45-59.97,39.07-18.7,19.44-29.72,42.33-32.76,67.88-5.25,42.15-5.22,81.33,.06,116.51,5.22,34.42,12.53,65.9,21.71,93.57,9.18,27.57,18.95,50.75,29.01,68.89,10.35,18.58,17.87,30.6,22.63,36.39,.31,.47,3.29,5.25,13.65,29.44,8.06,18.8,20.4,41.17,36.66,66.5,16.48,25.75,39.8,53.44,69.33,82.31,29.68,29,68.58,56.42,115.66,81.57,46.81,24.93,104.87,46.61,172.54,64.38,67.56,17.74,148.72,28.06,241.17,30.72,3.4,.1,6.89,.15,10.45,.15,39.03,0,87.3-6.41,143.73-19.09,61.08-13.8,126.45-34.91,194.33-62.8,67.79-27.91,136.87-63.12,205.32-104.66,68.94-41.93,132.24-91.53,188.18-147.45,56.28-56.27,103.53-120.57,140.42-191.14,37.29-71.28,58.17-150.46,62.09-235.43,2.65-66.2-6.6-122.32-27.48-166.82-20.82-44.27-48.84-80.79-83.3-108.53-33.94-27.27-71.72-48.17-112.27-62.11-39.67-13.65-77.4-22.91-112.19-27.52-13.67-1.82-26.56-3.25-38.59-4.36,31.97-15.5,69.4-36.14,111.57-61.54,49.87-30.06,104.35-68.64,161.92-114.69,57.92-46.32,112.41-101.46,161.94-163.86,49.56-62.43,92.64-134.22,128.05-213.41,35.67-79.75,56.39-170.07,61.61-268.6,3.94-91.11-14.66-169.73-55.3-233.66Z"/></svg>