<svg width="467" height="468" xmlns="http://www.w3.org/2000/svg" xmlns:xlink="http://www.w3.org/1999/xlink" overflow="hidden"><defs><clipPath id="clip0"><rect x="2012" y="1058" width="467" height="468"/></clipPath><clipPath id="clip1"><rect x="2062" y="1108" width="366" height="366"/></clipPath><clipPath id="clip2"><rect x="2062" y="1108" width="366" height="366"/></clipPath><clipPath id="clip3"><rect x="2062" y="1108" width="366" height="366"/></clipPath></defs><g clip-path="url(#clip0)" transform="translate(-2012 -1058)"><path d="M2013 1292C2013 1163.87 2116.87 1060 2245 1060 2373.13 1060 2477 1163.87 2477 1292 2477 1420.13 2373.13 1524 2245 1524 2116.87 1524 2013 1420.13 2013 1292Z" fill="#FFFFFF" fill-rule="evenodd" fill-opacity="1"/><g clip-path="url(#clip1)"><g clip-path="url(#clip2)"><g clip-path="url(#clip3)"><path d="M181.948 0.768034 226.84 46.7419 113.799 159.784 68.9067 114.891Z" stroke="#F0B90B" stroke-width="1.08174" stroke-linecap="butt" stroke-linejoin="miter" stroke-miterlimit="4" stroke-opacity="1" fill="#F0B90B" fill-rule="nonzero" fill-opacity="1" transform="matrix(1.00298 0 0 1 2063 1109)"/><path d="M250.098 68.9175 294.99 114.891 113.799 296.083 68.9067 251.19Z" stroke="#F0B90B" stroke-width="1.08174" stroke-linecap="butt" stroke-linejoin="miter" stroke-miterlimit="4" stroke-opacity="1" fill="#F0B90B" fill-rule="nonzero" fill-opacity="1" transform="matrix(1.00298 0 0 1 2063 1109)"/><path d="M45.6493 137.067 90.5415 183.041 45.6493 227.933 0.757217 183.041Z" stroke="#F0B90B" stroke-width="1.08174" stroke-linecap="butt" stroke-linejoin="miter" stroke-miterlimit="4" stroke-opacity="1" fill="#F0B90B" fill-rule="nonzero" fill-opacity="1" transform="matrix(1.00298 0 0 1 2063 1109)"/><path d="M318.247 137.067 363.139 183.041 181.948 364.232 137.056 319.34Z" stroke="#F0B90B" stroke-width="1.08174" stroke-linecap="butt" stroke-linejoin="miter" stroke-miterlimit="4" stroke-opacity="1" fill="#F0B90B" fill-rule="nonzero" fill-opacity="1" transform="matrix(1.00298 0 0 1 2063 1109)"/></g></g></g></g></svg>