<svg xmlns="http://www.w3.org/2000/svg" xmlns:xlink="http://www.w3.org/1999/xlink" viewBox="0 0 272.25 231.32"><defs><style>.cls-1{fill:url(#linear-gradient);}.cls-2{fill:#0015aa;opacity:0.33;}.cls-3{fill:url(#radial-gradient);}.cls-4{fill:#fdfdfd;}.cls-5{fill:url(#linear-gradient-2);}.cls-6{fill:url(#linear-gradient-3);}.cls-7{opacity:0.53;}.cls-8{fill:#abffff;}</style><linearGradient id="linear-gradient" x1="135.93" y1="241.34" x2="392.54" y2="241.34" gradientTransform="translate(42.7 -44.55) rotate(11.28)" gradientUnits="userSpaceOnUse"><stop offset="0" stop-color="#3932bf"/><stop offset="0.05" stop-color="#4832bf"/><stop offset="0.22" stop-color="#7332bf"/><stop offset="0.31" stop-color="#8432bf"/><stop offset="0.4" stop-color="#6c42b9"/><stop offset="0.58" stop-color="#415fae"/><stop offset="0.67" stop-color="#306aaa"/><stop offset="1" stop-color="#4aedd0"/></linearGradient><radialGradient id="radial-gradient" cx="255.74" cy="247.76" r="23.97" gradientTransform="matrix(0.78, -0.63, 0.28, 0.35, -13.24, 324.72)" gradientUnits="userSpaceOnUse"><stop offset="0" stop-color="#e434c5"/><stop offset="1" stop-color="#6917c2"/></radialGradient><linearGradient id="linear-gradient-2" x1="239.92" y1="344.37" x2="271.88" y2="344.37" gradientTransform="translate(-76.81 -173.92) rotate(11.28)" gradientUnits="userSpaceOnUse"><stop offset="0.09" stop-color="#fc6e4a"/><stop offset="1" stop-color="#ffdb17"/></linearGradient><linearGradient id="linear-gradient-3" x1="181.5" y1="235.03" x2="195.44" y2="235.03" xlink:href="#linear-gradient-2"/></defs><g id="OBJECTS"><path class="cls-1" d="M381.8,246.14q-2.35,5.22-5.2,10.42c-1,1.72-1.92,3.45-3,5.18s-2.06,3.45-3.23,5.16q-2.4,3.68-5.05,7.31-4.76,6.54-10.28,12.87a215.92,215.92,0,0,1-40.18,35.55,220.93,220.93,0,0,1-47.8,25,173.36,173.36,0,0,1-48.73,10.94,121.81,121.81,0,0,1-22.46-.43,84.44,84.44,0,0,1-20.29-4.68c-12.44-4.61-22.36-12.18-28.93-22s-9.56-21.86-9.08-35,4.71-27.44,12.16-41.46a132.51,132.51,0,0,1,13.69-20.95,156.81,156.81,0,0,1,18.48-19.54,172.89,172.89,0,0,1,22-16.73c3.87-2.53,7.88-4.81,11.9-7s8.15-4.18,12.29-5.95a151.62,151.62,0,0,1,22.08-7.74,123.19,123.19,0,0,1,27-4.12,87.2,87.2,0,0,1,22,1.78q3.19.74,6.2,1.74a50.43,50.43,0,0,1,12,5.79,41.29,41.29,0,0,1,18.33,29.82c1.67,12.42-1.56,26.87-9.18,41a108.8,108.8,0,0,1-6.57,10.61,116.05,116.05,0,0,1-8.28,10.34,126.2,126.2,0,0,1-15.08,14.15v0c-1.83,1.46-3.7,2.88-5.59,4.25q-3.57,2.56-7.3,4.91a0,0,0,0,1,0,0c-13.39,8.43-28.12,14.61-42.4,17.47a87.68,87.68,0,0,1-24.31,1.66,47.81,47.81,0,0,1-20.55-6.18,31.83,31.83,0,0,1-12.71-14,37,37,0,0,1-2.76-19.77,61.53,61.53,0,0,1,7.63-22.38,84.67,84.67,0,0,1,7.39-11.2,96.43,96.43,0,0,1,9.67-10.55,101.33,101.33,0,0,1,15.18-11.77c2.85-1.81,5.77-3.49,8.72-5A88.56,88.56,0,0,1,255.32,207a62.18,62.18,0,0,1,12.06-.77,47.42,47.42,0,0,1,10.72,1.62c6.64,1.92,11.77,5.65,14.8,10.55a22.63,22.63,0,0,1,3,8.13,28.19,28.19,0,0,1-.06,9.25,40.91,40.91,0,0,1-3,9.7,54,54,0,0,1-5.7,9.45l-.82-.1c2.6-6.14,3.59-12,2.88-17a18.94,18.94,0,0,0-6.45-12.07,23.7,23.7,0,0,0-13.39-5.18,41.87,41.87,0,0,0-8.35.11,53,53,0,0,0-8.76,1.68A66.68,66.68,0,0,0,235.19,230c-1.12.67-2.2,1.38-3.25,2.12a65.49,65.49,0,0,0-6.23,4.89c-1.68,1.47-3.25,3-4.71,4.56a55.6,55.6,0,0,0-5.25,6.65,48,48,0,0,0-3.91,7A38.42,38.42,0,0,0,208.2,269c-.49,8.73,2.89,16.24,9.53,20.86a28.7,28.7,0,0,0,12.16,4.68A53,53,0,0,0,246,294.4a79.57,79.57,0,0,0,29.15-11.07l.15-.09c1.83-1.12,3.62-2.31,5.35-3.56a88.49,88.49,0,0,0,14.36-13,80.6,80.6,0,0,0,5.7-7.23,77.52,77.52,0,0,0,4.57-7.59c5.46-10.36,7.63-20.77,6.27-29.74a29.48,29.48,0,0,0-13.89-21.1A39.57,39.57,0,0,0,284.42,196a66.36,66.36,0,0,0-16.33-1c-11.57.68-24.12,4-36.18,9.54-3,1.35-6,2.94-8.92,4.54s-5.82,3.37-8.59,5.27l-.29.2a122.48,122.48,0,0,0-15.4,12.17q-2.93,2.69-5.59,5.54a111.85,111.85,0,0,0-7.3,8.62,93,93,0,0,0-9.48,15.28c-5.2,10.45-8,20.91-8.08,30.48s2.53,18.21,7.51,25.2,12.28,12.34,21.36,15.53A62.14,62.14,0,0,0,212,330.58a100.86,100.86,0,0,0,17,.18,134.46,134.46,0,0,0,36.54-8.28,160.66,160.66,0,0,0,18.82-8.42,177.24,177.24,0,0,0,17.17-10.26A168,168,0,0,0,332,277.26a140.88,140.88,0,0,0,11.83-15.2c.93-1.28,1.69-2.61,2.54-3.92s1.61-2.62,2.4-3.94q2.27-4,4.19-8c10.22-21.24,11.38-42.42,3.84-59.11a56.23,56.23,0,0,0-16.87-21.56A74.34,74.34,0,0,0,313,152.29a102.5,102.5,0,0,0-16.44-3.1c-2.8-.28-5.66-.46-8.61-.47s-6,.11-9.09.37c-12.4,1-25.79,4.2-39.24,9A237.16,237.16,0,0,0,163,204q-4.2,3.8-8.1,7.78c-2.62,2.64-5.11,5.36-7.49,8.12A139.59,139.59,0,0,0,134.55,237a108.64,108.64,0,0,0-9.19,17.88,82.2,82.2,0,0,0-4.89,17.87l-.93.28c-.39-11.21,2.78-23.87,9.27-36.54a132.94,132.94,0,0,1,11.72-18.88c2.3-3.09,4.73-6.16,7.32-9.16s5.27-6,8.09-8.88a239.65,239.65,0,0,1,38.18-31.78q5.37-3.63,10.94-7a256.12,256.12,0,0,1,33.29-17,191.49,191.49,0,0,1,46.56-13.25c3.85-.52,7.65-.87,11.42-1.08s7.45-.19,11.07-.05A127.72,127.72,0,0,1,327.63,132c12.85,2.71,24.4,7.4,34,14A69.61,69.61,0,0,1,384.12,171a71.54,71.54,0,0,1,7.62,34.54C391.48,218.36,388.05,232.25,381.8,246.14Z" transform="translate(-119.51 -129.37)"/><path class="cls-2" d="M326.46,253.12a108.8,108.8,0,0,1-6.57,10.61,116.05,116.05,0,0,1-8.28,10.34,126.2,126.2,0,0,1-15.08,14.15c15.35-19.54,45.71-65.6,18.82-95.63-15.7-17.53-41.51-19.08-65.15-15.49a123.19,123.19,0,0,1,27-4.12,87.2,87.2,0,0,1,22,1.78q3.19.74,6.2,1.74a50.43,50.43,0,0,1,12,5.79,41.29,41.29,0,0,1,18.33,29.82C337.31,224.53,334.08,239,326.46,253.12Z" transform="translate(-119.51 -129.37)"/><path class="cls-2" d="M381.8,246.14q-2.35,5.22-5.2,10.42c-1,1.72-1.92,3.45-3,5.18s-2.06,3.45-3.23,5.16q-2.4,3.68-5.05,7.31c16.38-28.72,27.86-69.2-2.24-106.95-43.27-54.28-125.67-22.13-158-6.45a256.12,256.12,0,0,1,33.29-17,191.49,191.49,0,0,1,46.56-13.25c3.85-.52,7.65-.87,11.42-1.08s7.45-.19,11.07-.05A127.72,127.72,0,0,1,327.63,132c12.85,2.71,24.4,7.4,34,14A69.61,69.61,0,0,1,384.12,171a71.54,71.54,0,0,1,7.62,34.54C391.48,218.36,388.05,232.25,381.8,246.14Z" transform="translate(-119.51 -129.37)"/><path class="cls-2" d="M284.32,314.06a7,7,0,0,1-1.19.83C260.71,327.48,189.59,356,166,310c-14.77-28.83,8-59.15,27.08-77.72a111.85,111.85,0,0,0-7.3,8.62,93,93,0,0,0-9.48,15.28c-5.2,10.45-8,20.91-8.08,30.48s2.53,18.21,7.51,25.2,12.28,12.34,21.36,15.53A62.14,62.14,0,0,0,212,330.58a100.86,100.86,0,0,0,17,.18,134.46,134.46,0,0,0,36.54-8.28A160.66,160.66,0,0,0,284.32,314.06Z" transform="translate(-119.51 -129.37)"/><path class="cls-2" d="M275.12,283.33a3.94,3.94,0,0,1-1.72,1.88c-12.85,7.4-55.66,25.88-69.07-3.11-8.9-19.22,8.58-36,21.38-45.1-1.68,1.47-3.25,3-4.71,4.56a55.6,55.6,0,0,0-5.25,6.65,48,48,0,0,0-3.91,7A38.42,38.42,0,0,0,208.2,269c-.49,8.73,2.89,16.24,9.53,20.86a28.7,28.7,0,0,0,12.16,4.68A53,53,0,0,0,246,294.4,79.57,79.57,0,0,0,275.12,283.33Z" transform="translate(-119.51 -129.37)"/><path class="cls-3" d="M266,244.1c3.69,5.08-.83,14.66-10.09,21.38s-19.77,8-23.46,3,.83-14.66,10.09-21.38S262.29,239,266,244.1Z" transform="translate(-119.51 -129.37)"/><polygon class="cls-4" points="228.79 73.54 229.35 78.31 234.07 79.25 229.7 81.27 230.26 86.04 227 82.51 222.63 84.52 224.99 80.33 221.72 76.79 226.44 77.73 228.79 73.54"/><polygon class="cls-5" points="109.77 198.96 111.19 211.08 123.16 213.47 112.08 218.58 113.5 230.7 105.22 221.73 94.13 226.84 100.1 216.19 91.82 207.22 103.79 209.61 109.77 198.96"/><polygon class="cls-6" points="63.35 86.94 63.97 92.23 69.19 93.27 64.35 95.5 64.98 100.78 61.36 96.87 56.53 99.1 59.13 94.45 55.52 90.54 60.74 91.58 63.35 86.94"/><polygon class="cls-4" points="223.12 58.15 223.37 60.29 225.49 60.71 223.53 61.62 223.78 63.76 222.31 62.18 220.35 63.08 221.41 61.2 219.94 59.61 222.06 60.03 223.12 58.15"/><polygon class="cls-4" points="238.44 83.63 238.78 86.49 241.6 87.06 238.98 88.26 239.32 91.12 237.37 89 234.75 90.21 236.16 87.7 234.21 85.58 237.03 86.14 238.44 83.63"/><path class="cls-4" d="M287.86,142.06a4.14,4.14,0,1,1-3.25-4.87A4.13,4.13,0,0,1,287.86,142.06Z" transform="translate(-119.51 -129.37)"/><path class="cls-4" d="M271.32,136.41a1.85,1.85,0,1,1-1.45-2.16A1.84,1.84,0,0,1,271.32,136.41Z" transform="translate(-119.51 -129.37)"/><path class="cls-4" d="M268.61,150a1.84,1.84,0,1,1-1.44-2.17A1.83,1.83,0,0,1,268.61,150Z" transform="translate(-119.51 -129.37)"/><path class="cls-4" d="M297.37,230.47a1.31,1.31,0,1,1-1-1.54A1.31,1.31,0,0,1,297.37,230.47Z" transform="translate(-119.51 -129.37)"/><path class="cls-4" d="M307.42,238.82a2.29,2.29,0,1,1-1.8-2.69A2.29,2.29,0,0,1,307.42,238.82Z" transform="translate(-119.51 -129.37)"/><path class="cls-4" d="M299,242.86a3.31,3.31,0,1,1-2.61-3.9A3.32,3.32,0,0,1,299,242.86Z" transform="translate(-119.51 -129.37)"/><path class="cls-4" d="M254,349.81a1,1,0,1,1-.8-1.21A1,1,0,0,1,254,349.81Z" transform="translate(-119.51 -129.37)"/><path class="cls-4" d="M274.21,350.11a3.08,3.08,0,1,1-2.42-3.63A3.09,3.09,0,0,1,274.21,350.11Z" transform="translate(-119.51 -129.37)"/><path class="cls-4" d="M264.52,358.5a2.73,2.73,0,1,1-2.14-3.21A2.72,2.72,0,0,1,264.52,358.5Z" transform="translate(-119.51 -129.37)"/><g class="cls-7"><path class="cls-8" d="M367.46,184.5a45.35,45.35,0,0,1,4,10.93A73.72,73.72,0,0,1,373.29,207a80.81,80.81,0,0,1-2,23.35l-.63,2.88c-.2,1-.55,1.88-.81,2.83l-1.74,5.62L366,247.15l-1.09,2.73c-.41.89-.86,1.76-1.28,2.65L361,257.8a27.86,27.86,0,0,1-1.43,2.56l-1.5,2.52-3,5.05-3.32,4.83c-1.13,1.6-2.18,3.25-3.39,4.78l-3.62,4.61-1.82,2.3c-.6.77-1.28,1.48-1.92,2.22l-3.89,4.38-1,1.09-1,1L333,295.26c-1.4,1.36-2.72,2.8-4.19,4.1l-4.35,3.92c-1.43,1.33-3,2.49-4.51,3.73-3,2.5-6.2,4.75-9.37,7l-4.89,3.2c-1.65,1-3.34,2-5,3a110.33,110.33,0,0,1-21.24,9.56c1.81-.71,3.58-1.48,5.32-2.34s3.47-1.71,5.19-2.59S293.34,323,295,322s3.32-2,4.93-3a159.8,159.8,0,0,0,18.54-13.77,175.12,175.12,0,0,0,30.81-34.15l3.3-4.74,3-4.92,1.48-2.47a26.78,26.78,0,0,0,1.42-2.5l2.6-5.13c.43-.85.89-1.7,1.3-2.56l1.11-2.65,2.22-5.3,1.8-5.45c.29-.91.66-1.8.88-2.74l.69-2.78a84.3,84.3,0,0,0,2.78-22.76,72.35,72.35,0,0,0-1.13-11.46c-.17-.95-.33-1.9-.59-2.83s-.42-1.89-.72-2.81A38.08,38.08,0,0,0,367.46,184.5Z" transform="translate(-119.51 -129.37)"/></g><g class="cls-7"><path class="cls-8" d="M160.83,272a80.84,80.84,0,0,0-2.6,14.49,70.11,70.11,0,0,0,.17,14.56c1.13,9.58,5,18.81,11.66,25.64a54.08,54.08,0,0,0,24.56,14.44A62,62,0,0,0,209,343.26a63.86,63.86,0,0,0,14.64-1.12A53.21,53.21,0,0,1,209,344.73a56.68,56.68,0,0,1-14.95-1.34,48.6,48.6,0,0,1-7.24-2.18,51.72,51.72,0,0,1-6.87-3.22c-1.13-.58-2.17-1.3-3.25-2s-2.1-1.42-3.08-2.22l-1.5-1.17c-.49-.4-1-.83-1.43-1.24-1-.81-1.86-1.73-2.77-2.63s-1.71-1.9-2.52-2.88-1.57-2-2.24-3.11a40.88,40.88,0,0,1-3.6-6.75,48,48,0,0,1-3.46-14.74,62.52,62.52,0,0,1,.69-15A64,64,0,0,1,160.83,272Z" transform="translate(-119.51 -129.37)"/></g><g class="cls-7"><path class="cls-8" d="M215,203.85a55.26,55.26,0,0,1,13-8.12,86.3,86.3,0,0,1,14.5-5.18A111.68,111.68,0,0,1,273,187.26a66.14,66.14,0,0,1,15.41,2,48.76,48.76,0,0,1,7.37,2.66,36.83,36.83,0,0,1,6.79,3.94,35.4,35.4,0,0,1,14.7,26.26,37.35,37.35,0,0,0-16-24.34A43.71,43.71,0,0,0,287.71,192a65.23,65.23,0,0,0-14.78-1.76c-2.51,0-5-.17-7.54,0l-3.77.14c-1.25,0-2.5.21-3.75.29A117.42,117.42,0,0,0,243,192.81a100.61,100.61,0,0,0-14.46,4.26A66.72,66.72,0,0,0,215,203.85Z" transform="translate(-119.51 -129.37)"/></g><g class="cls-7"><path class="cls-8" d="M210.9,242.8a51.87,51.87,0,0,0-6.93,6.89,43.38,43.38,0,0,0-5.36,8,30.21,30.21,0,0,0-3.33,18.2,25.52,25.52,0,0,0,8.38,16.22,34.31,34.31,0,0,0,7.94,5.25,44,44,0,0,0,9.18,3.28,33.42,33.42,0,0,1-9.74-1.92,31.58,31.58,0,0,1-8.88-4.83,26.08,26.08,0,0,1-6.7-7.8,28,28,0,0,1-3.14-9.81,31.8,31.8,0,0,1-.24-5.16,29.31,29.31,0,0,1,.67-5.11,31.52,31.52,0,0,1,3.83-9.46,38.06,38.06,0,0,1,6.33-7.82A37.56,37.56,0,0,1,210.9,242.8Z" transform="translate(-119.51 -129.37)"/></g></g></svg>