<svg width="160" height="40" viewBox="0 0 160 40" fill="none" xmlns="http://www.w3.org/2000/svg">
<path d="M20.5031 0C9.18239 0 0 9.18239 0 20.3774C0 29.3082 5.78616 37.1069 14.2138 39.8742C14.5912 40 14.9686 39.8742 15.3459 39.7484L15.5975 39.6226H15.7233C17.1069 39.2453 18.1132 37.8616 18.1132 36.478V23.7736H13.7107C12.327 23.7736 11.3208 22.6415 11.3208 21.3836C11.3208 20.1258 12.4528 18.9937 13.7107 18.9937H27.2956C28.6792 18.9937 29.6855 20.1258 29.6855 21.3836C29.6855 22.6415 28.5535 23.7736 27.2956 23.7736H23.0189V36.478C23.0189 37.9874 24.0252 39.3711 25.4088 39.8742H25.5346C25.7862 40 26.0377 40 26.2893 40C26.4151 40 26.5409 40 26.6667 40C37.4843 36.6038 43.3962 25.0314 40 14.3396C37.2327 5.78616 29.434 0.125786 20.5031 0ZM6.16352 23.6478C4.77987 23.6478 3.77358 22.5157 3.77358 21.2579C3.77358 20 4.90566 18.8679 6.16352 18.8679C7.54717 18.8679 8.55346 20 8.55346 21.2579C8.55346 22.5157 7.54717 23.6478 6.16352 23.6478ZM20.5031 14.717C17.8616 14.717 15.7233 12.5786 15.7233 9.93711C15.7233 7.2956 17.8616 5.15723 20.5031 5.15723C23.1447 5.15723 25.283 7.2956 25.283 9.93711C25.283 12.5786 23.1447 14.717 20.5031 14.717ZM34.9686 23.7736C33.5849 23.7736 32.5786 22.6415 32.5786 21.3836C32.5786 20.1258 33.7107 18.9937 34.9686 18.9937C36.2264 18.9937 37.3585 20.1258 37.3585 21.3836C37.3585 22.6415 36.3522 23.6478 34.9686 23.7736Z" fill="url(#paint0_linear)"/>
<path d="M62.6415 28.0503C61.8868 28.4277 61.1321 28.805 60.3773 28.9308C59.4968 29.1824 58.6163 29.1824 57.7358 29.1824C56.1006 29.3082 54.5912 28.6792 53.4591 27.6729C52.327 26.5409 51.6981 25.0314 51.8239 23.3962V18.239H49.3082V14.3396H51.8239V10.8176H57.7358V14.3396H62.3899V18.239H57.7358V22.5157C57.7358 23.7736 58.239 24.4025 59.2453 24.4025C60 24.4025 60.8805 24.1509 61.5094 23.7736L62.6415 28.0503Z" fill="white"/>
<path d="M80.1258 13.3333C81.761 15.3459 82.6415 17.8616 82.5157 20.5031C82.5157 21.0063 82.5157 21.3837 82.5157 21.5094H69.9371C70.1887 22.3899 70.6918 23.2704 71.4465 23.8994C72.2013 24.4025 73.0818 24.7799 74.088 24.7799C74.8428 24.7799 75.5975 24.6541 76.3522 24.2767C77.1069 24.0252 77.7358 23.522 78.3648 22.8931L81.5094 26.0377C80.6289 27.044 79.3711 27.9245 78.1132 28.4277C76.7296 28.9308 75.2201 29.3082 73.5849 29.1824C71.8239 29.1824 70.0629 28.805 68.5535 28.0503C67.1698 27.2956 66.0377 26.1635 65.283 24.9057C64.5283 23.3962 64.1509 21.761 64.1509 20.1258C64.1509 18.4906 64.5283 16.7296 65.283 15.2201C66.0377 13.8365 67.1698 12.7044 68.5535 11.9497C70.0629 11.195 71.6981 10.8176 73.4591 10.8176C75.8491 10.566 78.239 11.5723 80.1258 13.3333ZM76.7296 18.3648C76.7296 17.4843 76.478 16.478 75.7233 15.8491C74.3396 14.5912 72.327 14.5912 70.9434 15.8491C70.3145 16.478 69.8113 17.3585 69.6855 18.3648H76.7296Z" fill="white"/>
<path d="M93.7107 11.5723C94.8428 10.9434 95.9748 10.6918 97.1069 10.6918V16.1006C96.8553 16.1006 96.478 16.1006 96.2264 16.1006C94.9686 16.1006 93.8365 16.3522 92.8302 17.1069C91.9497 17.7359 91.4465 18.7421 91.3208 19.7484V28.9308H85.4088V10.9434H91.3208V13.9623C91.9497 12.956 92.8302 12.0755 93.7107 11.5723Z" fill="white"/>
<path d="M116.352 12.5786C117.61 13.9623 118.239 15.7233 118.113 17.6101V28.9308H112.201V19.2453C112.201 18.3648 111.95 17.4843 111.321 16.8554C110.818 16.2264 109.937 15.9749 109.182 15.9749C108.302 15.9749 107.421 16.3522 106.792 16.9811C106.164 17.6101 105.786 18.4906 105.66 19.4969V29.0566H99.7484V10.9434H105.66V13.8365C106.289 12.8302 107.17 12.0755 108.176 11.4466C109.308 10.9434 110.44 10.6918 111.698 10.6918C113.459 10.6918 115.094 11.3208 116.352 12.5786Z" fill="white"/>
<path d="M135.723 11.9497C137.107 12.7044 138.365 13.8365 139.245 15.2201C140.88 18.239 140.88 21.8868 139.245 24.9057C138.365 26.2893 137.233 27.4214 135.723 28.1761C132.453 29.6855 128.679 29.6855 125.409 28.1761C124.025 27.4214 122.767 26.2893 122.013 24.9057C120.377 21.8868 120.377 18.239 122.013 15.2201C122.767 13.8365 124.025 12.7044 125.409 11.9497C128.553 10.3145 132.453 10.3145 135.723 11.9497ZM127.673 16.7296C126.918 17.6101 126.541 18.7421 126.667 20C126.667 21.1321 127.044 22.3899 127.673 23.2704C129.182 24.7799 131.572 24.9057 133.082 23.3962L133.208 23.2704C133.962 22.3899 134.34 21.1321 134.214 20C134.214 18.8679 133.836 17.7358 133.082 16.7296C131.698 15.2201 129.308 15.0943 127.799 16.478C127.924 16.6038 127.799 16.7296 127.673 16.7296Z" fill="white"/>
<path d="M157.233 12.4528C158.616 13.5849 159.371 15.4717 159.371 17.2327V28.9308H153.585V26.9182C152.201 28.5535 150.189 29.3082 148.176 29.1824C146.541 29.3082 144.906 28.6792 143.648 27.673C142.516 26.6667 141.887 25.1572 142.013 23.6478C141.887 22.1384 142.516 20.6289 143.774 19.6226C145.283 18.6164 147.044 18.1132 148.931 18.1132H153.585V17.9874C153.585 17.2327 153.333 16.478 152.704 15.9748C151.95 15.4717 151.069 15.2201 150.189 15.3459C149.308 15.3459 148.553 15.4717 147.673 15.7233C146.667 15.9748 145.786 16.3522 144.78 16.7296L143.145 12.7044C144.528 12.0755 145.912 11.5723 147.296 11.195C148.679 10.8176 150.063 10.6918 151.447 10.6918C153.585 10.566 155.597 11.195 157.233 12.4528ZM152.201 24.5283C152.83 24.1509 153.333 23.522 153.459 22.8931V21.2579H149.937C148.302 21.2579 147.421 21.8868 147.421 23.1447C147.421 23.7736 147.673 24.2767 148.176 24.6541C148.679 25.0314 149.308 25.283 149.937 25.1572C150.818 25.1572 151.572 25.0314 152.201 24.5283Z" fill="white"/>
<defs>
<linearGradient id="paint0_linear" x1="20.479" y1="0" x2="20.479" y2="40" gradientUnits="userSpaceOnUse">
<stop stop-color="#F29FFF"/>
<stop offset="1" stop-color="#878CFF"/>
</linearGradient>
</defs>
</svg>
