<svg version="1.2" baseProfile="tiny-ps" xmlns="http://www.w3.org/2000/svg" viewBox="0 0 56 56" width="56" height="56">
	<title>CAPS-svg</title>
	<defs>
		<linearGradient id="grd1" gradientUnits="userSpaceOnUse"  x1="27.479" y1="8" x2="27.479" y2="48">
			<stop offset="0" stop-color="#f29fff"  />
			<stop offset="1" stop-color="#878cff"  />
		</linearGradient>
	</defs>
	<style>
		tspan { white-space:pre }
		.shp0 { fill: #ffffff } 
		.shp1 { fill: url(#grd1) } 
	</style>
	<path id="Layer 1" class="shp0" d="M28 56C12.52 56 0 43.48 0 28C0 12.52 12.52 0 28 0C43.48 0 56 12.52 56 28C56 43.48 43.48 56 28 56Z" />
	<path id="Layer" fill-rule="evenodd" class="shp1" d="M47 22.34C50.4 33.03 44.48 44.6 33.67 48C33.54 48 33.42 48 33.29 48C33.04 48 32.79 48 32.53 47.87L32.41 47.87C31.03 47.37 30.02 45.99 30.02 44.48L30.02 31.77L34.3 31.77C35.55 31.77 36.69 30.64 36.69 29.38C36.69 28.13 35.68 26.99 34.3 26.99L20.71 26.99C19.45 26.99 18.32 28.13 18.32 29.38C18.32 30.64 19.33 31.77 20.71 31.77L25.11 31.77L25.11 44.48C25.11 45.86 24.11 47.25 22.72 47.62L22.6 47.62L22.35 47.75C21.97 47.87 21.59 48 21.21 47.87C12.79 45.11 7 37.31 7 28.38C7 17.18 16.18 8 27.5 8C36.43 8.13 44.23 13.79 47 22.34ZM15.55 29.26C15.55 28 14.55 26.87 13.16 26.87C11.91 26.87 10.77 28 10.77 29.26C10.77 30.52 11.78 31.65 13.16 31.65C14.55 31.65 15.55 30.52 15.55 29.26ZM32.28 17.94C32.28 15.3 30.14 13.16 27.5 13.16C24.86 13.16 22.72 15.3 22.72 17.94C22.72 20.58 24.86 22.72 27.5 22.72C30.14 22.72 32.28 20.58 32.28 17.94ZM44.36 29.38C44.36 28.13 43.23 26.99 41.97 26.99C40.71 26.99 39.58 28.13 39.58 29.38C39.58 30.64 40.58 31.77 41.97 31.77C43.35 31.65 44.36 30.64 44.36 29.38Z" />
</svg>