<svg version="1.2" baseProfile="tiny-ps" xmlns="http://www.w3.org/2000/svg" viewBox="0 0 1024 1024" width="1024" height="1024">
	<title>token logo (1024 X 512)-ai</title>
	<style>
		tspan { white-space:pre }
		.shp0 { fill: #1f1d1e } 
		.shp1 { fill: #fade5c } 
		.shp2 { opacity: 0.302;fill: #fade5c } 
	</style>
	<g id="Layer 1">
		<g id="&lt;Group&gt;">
			<path id="&lt;Path&gt;" class="shp0" d="M907.93 512C907.93 730.66 730.66 907.93 512 907.93C293.34 907.93 116.07 730.66 116.07 512C116.07 293.34 293.34 116.07 512 116.07C730.66 116.07 907.93 293.34 907.93 512Z" />
			<g id="&lt;Group&gt;">
				<g id="&lt;Group&gt;" style="opacity: 0.161">
					<path id="&lt;Path&gt;" class="shp1" d="M358.34 414L295.92 377.98C317.18 341.05 348.11 309.18 387.33 286.59L423.35 348.97C396.39 364.56 373.91 387.04 358.34 414Z" />
					<path id="&lt;Path&gt;" class="shp1" d="M334.67 502.82C334.72 535.13 343.42 565.42 358.58 591.49L296.19 627.51C293.94 623.63 291.78 619.66 289.72 615.61C271.3 579.42 262.56 540.83 262.55 502.82L334.67 502.82Z" />
					<path id="&lt;Path&gt;" class="shp1" d="M511.93 679.81C512.01 679.81 512.09 679.8 512.16 679.8L512.16 751.92C468.36 751.93 425.31 740.35 387.55 718.66L423.58 656.25C449.59 671.23 479.76 679.81 511.93 679.81Z" />
					<path id="&lt;Path&gt;" class="shp1" d="M689.19 502.54C689.19 470.38 680.62 440.21 665.65 414.2L728.02 378.18C730.15 381.87 732.19 385.64 734.14 389.48C752.65 425.85 761.38 464.64 761.31 502.82L689.19 502.82C689.19 502.73 689.19 502.64 689.19 502.54Z" />
					<path id="&lt;Path&gt;" class="shp1" d="M600.87 349.18C574.79 334.03 544.49 325.33 512.16 325.28L512.16 253.17C556.03 253.24 599.12 264.94 636.91 286.76L600.87 349.18Z" />
					<path id="&lt;Path&gt;" class="shp1" d="M665.41 591.29L727.81 627.32C706.59 664.12 675.74 695.89 636.65 718.43L600.63 656.05C627.47 640.5 649.85 618.13 665.41 591.29Z" />
				</g>
				<path id="&lt;Compound Path&gt;" class="shp2" d="M749.3 365.7L703.66 392.05C684.09 358.08 655.96 330.28 622.69 311.03L649.04 265.39C690.36 289.31 725.14 323.83 749.3 365.7ZM785.88 502.68C785.92 552.02 772.65 598.94 749.14 639.56L703.5 613.21C722.55 580.27 733.23 542.32 733.21 502.68L785.88 502.68ZM648.96 739.81C617.52 757.99 581.94 770.17 543.58 774.63C532.98 775.87 522.46 776.47 512.05 776.49L512.05 723.82C525.05 723.8 538.24 722.62 551.49 720.22C577.26 715.53 601.16 706.56 622.61 694.17L648.96 739.81ZM401.46 694.23L375.11 739.86C333.77 715.99 298.95 681.52 274.74 639.69L320.37 613.34C339.99 647.26 368.17 675.02 401.46 694.23ZM320.31 391.98C301.24 424.97 290.59 462.99 290.66 502.68L237.99 502.68C237.9 453.28 251.16 406.3 274.66 365.63L320.31 391.98ZM512.05 228.6L512.05 281.27C498.97 281.28 485.7 282.45 472.38 284.87C446.63 289.55 422.74 298.51 401.31 310.88L374.96 265.25C406.38 247.09 441.95 234.92 480.29 230.45C490.96 229.21 501.56 228.6 512.05 228.6Z" />
				<g id="&lt;Group&gt;" style="opacity: 0.502">
					<path id="&lt;Path&gt;" class="shp1" d="M695.97 657.93C705 647.27 713.11 635.8 720.19 623.66L763.1 648.6C754.56 663.25 744.77 677.08 733.89 689.95L695.97 657.93Z" />
					<path id="&lt;Path&gt;" class="shp1" d="M429.01 728.56L411.89 775.15C395.93 769.28 380.62 762.04 366.11 753.59L391.06 710.68C403.08 717.69 415.77 723.69 429.01 728.56Z" />
					<path id="&lt;Path&gt;" class="shp1" d="M512.83 261.83C512.81 261.83 512.78 261.83 512.75 261.83L512.78 252.54L512.9 212.21C512.92 212.21 512.93 212.21 512.94 212.21C512.96 212.21 512.97 212.21 512.98 212.21C521.57 212.24 530.07 212.64 538.47 213.39L533.92 262.81C526.97 262.18 519.94 261.85 512.83 261.83Z" />
					<path id="&lt;Path&gt;" class="shp1" d="M286.05 419.6C281.28 432.61 277.59 446.15 275.11 460.11L226.26 451.34C229.26 434.51 233.7 418.18 239.46 402.48L286.05 419.6Z" />
					<text id="
" style="transform: matrix(2,0,0,2,1230.724,453.053)" >
					</text>
					<path id="&lt;Path&gt;" class="shp1" d="M647.35 342.34L667.39 318.61C678.09 327.66 688 337.62 696.98 348.38L673.14 368.26C665.3 358.88 656.67 350.21 647.35 342.34Z" />
					<path id="&lt;Path&gt;" class="shp1" d="M583.14 699.89L593.68 729.11C587.16 731.46 580.51 733.53 573.75 735.32L565.79 705.28C571.69 703.73 577.47 701.92 583.14 699.89Z" />
					<path id="&lt;Path&gt;" class="shp1" d="M330.17 606.88L303.24 622.32C296.3 610.25 290.38 597.53 285.59 584.26L314.82 573.72C318.99 585.3 324.14 596.39 330.17 606.88Z" />
					<path id="&lt;Path&gt;" class="shp1" d="M377.73 341.59L357.84 317.75C368.57 308.79 380.08 300.74 392.26 293.74L407.71 320.67C397.08 326.78 387.05 333.79 377.73 341.59Z" />
				</g>
				<g id="&lt;Group&gt;" style="opacity: 0.451">
					<path id="&lt;Path&gt;" class="shp1" d="M381.45 393.08C375.09 400.66 369.38 408.79 364.4 417.4L354.59 411.74L260.43 357.38C268.92 342.7 278.66 328.83 289.5 315.92L372.78 385.81L381.45 393.08Z" />
					<path id="&lt;Path&gt;" class="shp1" d="M482.41 334.78L480.44 323.64C490.67 321.85 501.19 320.91 511.93 320.91C511.96 320.91 511.98 320.91 512 320.91L512 332.23C511.98 332.23 511.96 332.23 511.93 332.23C501.86 332.23 492 333.11 482.41 334.78Z" />
					<path id="&lt;Path&gt;" class="shp1" d="M421.12 345.21C411.93 350.53 403.26 356.62 395.18 363.4L377.15 341.91C386.46 334.09 396.47 327.05 407.09 320.91L421.12 345.21Z" />
					<path id="&lt;Path&gt;" class="shp1" d="M341.62 502.62L330.3 502.62C330.3 502.6 330.3 502.57 330.3 502.54C330.3 491.81 331.24 481.29 333.02 471.06L344.17 473.03C342.49 482.62 341.62 492.48 341.62 502.54C341.62 502.57 341.62 502.6 341.62 502.62Z" />
					<path id="&lt;Path&gt;" class="shp1" d="M642.47 393.15L651.14 385.87C657.91 393.95 664 402.62 669.31 411.8L659.5 417.46C654.53 408.85 648.82 400.72 642.47 393.15Z" />
					<path id="&lt;Path&gt;" class="shp1" d="M570.28 342.49L574.16 331.85C584.16 335.5 593.75 340 602.85 345.27L597.19 355.07C588.66 350.13 579.66 345.91 570.28 342.49Z" />
					<path id="&lt;Path&gt;" class="shp1" d="M597.12 650.05L602.78 659.86C593.69 665.12 584.1 669.61 574.1 673.25L570.23 662.62C579.61 659.2 588.6 654.99 597.12 650.05Z" />
					<path id="&lt;Path&gt;" class="shp1" d="M333.05 534.18C334.9 544.72 337.66 554.94 341.24 564.77L239.05 601.97C233.33 586.25 228.92 569.91 225.97 553.06L333.05 534.18Z" />
					<path id="&lt;Path&gt;" class="shp1" d="M395.26 641.75L377.24 663.23C367.9 655.4 359.24 646.76 351.37 637.41L372.86 619.38C379.66 627.47 387.16 634.95 395.26 641.75Z" />
					<path id="&lt;Path&gt;" class="shp1" d="M548.4 709.04C541.43 710.26 534.34 711.14 527.13 711.67C522.06 712.04 517.01 712.22 512 712.22L512 672.86C522.08 672.85 531.96 671.97 541.56 670.29L548.4 709.04Z" />
					<path id="&lt;Path&gt;" class="shp1" d="M453.75 662.66L412.69 775.49C396.69 769.67 381.36 762.49 366.82 754.08L426.85 650.11C435.38 655.04 444.37 659.25 453.75 662.66Z" />
					<path id="&lt;Path&gt;" class="shp1" d="M690.85 471.09C689.01 460.55 686.26 450.33 682.69 440.5L709.04 430.91C713.15 442.23 716.32 454.03 718.45 466.22L690.85 471.09Z" />
					<path id="&lt;Path&gt;" class="shp1" d="M682.64 564.73C686.22 554.91 688.97 544.69 690.82 534.15L797.9 553.04C794.95 569.88 790.55 586.22 784.83 601.92L682.64 564.73Z" />
					<path id="&lt;Path&gt;" class="shp1" d="M693.51 607.42C687.39 618 680.37 628 672.54 637.33L642.39 612.03C648.75 604.47 654.46 596.35 659.43 587.74L693.51 607.42Z" />
				</g>
				<g id="&lt;Group&gt;">
					<path id="&lt;Path&gt;" class="shp1" d="M353.77 408.69L276.89 364.31C280.84 357.46 285.09 350.78 289.62 344.31L362.34 395.23C359.26 399.62 356.41 404.12 353.77 408.69Z" />
					<path id="&lt;Path&gt;" class="shp1" d="M330.14 516.09L241.66 523.83C240.95 515.9 240.57 508.01 240.55 500.17L329.4 500.17C329.41 505.48 329.66 510.8 330.14 516.09Z" />
					<path id="&lt;Path&gt;" class="shp1" d="M574.72 328.41L605.09 244.97C612.52 247.7 619.82 250.72 626.96 254.07L589.44 334.54C584.6 332.27 579.69 330.23 574.72 328.41Z" />
					<path id="&lt;Path&gt;" class="shp1" d="M574.51 671.34L604.88 754.8C597.53 757.47 590.01 759.84 582.34 761.9L559.35 676.13C564.46 674.76 569.52 673.16 574.51 671.34Z" />
					<path id="&lt;Path&gt;" class="shp1" d="M372.36 617.51L304.31 674.61C299.24 668.59 294.42 662.33 289.87 655.85L362.62 604.91C365.66 609.22 368.91 613.43 372.36 617.51Z" />
					<path id="&lt;Path&gt;" class="shp1" d="M434.87 334.33L397.34 253.83C404.46 250.52 411.78 247.51 419.26 244.8L449.63 328.25C444.64 330.06 439.72 332.08 434.87 334.33Z" />
					<path id="&lt;Path&gt;" class="shp1" d="M661.73 395.46L734.48 344.52C738.99 350.97 743.22 357.64 747.18 364.51L670.25 408.92C667.62 404.33 664.79 399.84 661.73 395.46Z" />
					<path id="&lt;Path&gt;" class="shp1" d="M661.41 604.64L734.13 655.56C729.61 662.01 724.81 668.27 719.75 674.31L651.71 617.22C655.15 613.13 658.39 608.93 661.41 604.64Z" />
					<path id="&lt;Path&gt;" class="shp1" d="M694.47 500.17L783.31 500.17C783.31 508.1 782.95 515.98 782.27 523.79L693.76 516.05C694.22 510.76 694.46 505.46 694.47 500.17Z" />
					<path id="&lt;Path&gt;" class="shp1" d="M465.01 676.29L442.03 762.08C434.38 760.03 426.86 757.66 419.46 754.97L449.83 671.53C454.84 673.34 459.9 674.94 465.01 676.29Z" />
				</g>
			</g>
		</g>
	</g>
</svg>