<svg version="1.2" baseProfile="tiny-ps" xmlns="http://www.w3.org/2000/svg" viewBox="0 0 802 820" width="802" height="820">
	<title>token_logo_1024_X_512-ai-svg</title>
	<style>
		tspan { white-space:pre }
		.shp0 { fill: #1f1d1e } 
		.shp1 { fill: #fade5c } 
		.shp2 { opacity: 0.302;fill: #fade5c } 
		.txt3 { font-size: 13px;fill: #000000;font-weight: 400;font-family: "LiberationSans", "Liberation Sans" } 
	</style>
	<g id="Layer 1">
		<g id="&lt;Group&gt;">
			<path id="&lt;Path&gt;" class="shp0" d="M796.93 411C796.93 629.66 619.66 806.93 401 806.93C182.34 806.93 5.07 629.66 5.07 411C5.07 192.34 182.34 15.07 401 15.07C619.66 15.07 796.93 192.34 796.93 411Z" />
			<g id="&lt;Group&gt;">
				<g id="&lt;Group&gt;" style="opacity: 0.161">
					<path id="&lt;Path&gt;" class="shp1" d="M247.34 313L184.92 276.98C206.18 240.05 237.11 208.18 276.33 185.59L312.35 247.97C285.39 263.56 262.91 286.04 247.34 313Z" />
					<path id="&lt;Path&gt;" class="shp1" d="M223.67 401.82C223.72 434.13 232.42 464.42 247.58 490.49L185.19 526.51C182.94 522.63 180.78 518.66 178.72 514.61C160.3 478.42 151.56 439.83 151.55 401.82L223.67 401.82Z" />
					<path id="&lt;Path&gt;" class="shp1" d="M400.93 578.81C401.01 578.81 401.09 578.8 401.16 578.8L401.16 650.92C357.36 650.93 314.31 639.35 276.55 617.66L312.58 555.25C338.59 570.23 368.76 578.81 400.93 578.81Z" />
					<path id="&lt;Path&gt;" class="shp1" d="M578.19 401.54C578.19 369.38 569.62 339.21 554.65 313.2L617.02 277.18C619.15 280.87 621.19 284.64 623.14 288.48C641.65 324.85 650.38 363.64 650.31 401.82L578.19 401.82C578.19 401.73 578.19 401.64 578.19 401.54Z" />
					<path id="&lt;Path&gt;" class="shp1" d="M489.87 248.18C463.79 233.03 433.49 224.33 401.16 224.28L401.16 152.17C445.03 152.24 488.12 163.94 525.91 185.76L489.87 248.18Z" />
					<path id="&lt;Path&gt;" class="shp1" d="M554.41 490.29L616.81 526.32C595.59 563.12 564.74 594.89 525.65 617.43L489.63 555.05C516.47 539.5 538.85 517.13 554.41 490.29Z" />
				</g>
				<path id="&lt;Compound Path&gt;" class="shp2" d="M638.3 264.7L592.66 291.05C573.09 257.08 544.96 229.28 511.69 210.03L538.04 164.39C579.36 188.31 614.14 222.83 638.3 264.7ZM674.88 401.68C674.92 451.02 661.65 497.94 638.14 538.56L592.5 512.21C611.55 479.27 622.23 441.32 622.21 401.68L674.88 401.68ZM537.96 638.81C506.52 656.99 470.94 669.17 432.58 673.63C421.98 674.87 411.46 675.47 401.05 675.49L401.05 622.82C414.05 622.8 427.24 621.62 440.49 619.22C466.26 614.53 490.16 605.56 511.61 593.17L537.96 638.81ZM290.46 593.23L264.11 638.86C222.77 614.99 187.95 580.52 163.74 538.69L209.37 512.34C228.99 546.26 257.17 574.02 290.46 593.23ZM209.31 290.98C190.24 323.97 179.59 361.99 179.66 401.68L126.99 401.68C126.9 352.28 140.16 305.3 163.66 264.63L209.31 290.98ZM401.05 127.6L401.05 180.27C387.97 180.28 374.7 181.45 361.38 183.87C335.63 188.55 311.74 197.51 290.31 209.88L263.96 164.25C295.38 146.09 330.95 133.92 369.29 129.45C379.96 128.21 390.56 127.6 401.05 127.6Z" />
				<g id="&lt;Group&gt;" style="opacity: 0.502">
					<path id="&lt;Path&gt;" class="shp1" d="M584.97 556.93C594 546.27 602.11 534.8 609.19 522.66L652.1 547.6C643.56 562.25 633.77 576.08 622.89 588.95L584.97 556.93Z" />
					<path id="&lt;Path&gt;" class="shp1" d="M318.01 627.56L300.89 674.15C284.93 668.28 269.62 661.04 255.11 652.59L280.06 609.68C292.08 616.69 304.77 622.69 318.01 627.56Z" />
					<path id="&lt;Path&gt;" class="shp1" d="M401.83 160.83C401.81 160.83 401.78 160.83 401.75 160.83L401.78 151.54L401.9 111.21C401.92 111.21 401.93 111.21 401.94 111.21C401.96 111.21 401.97 111.21 401.98 111.21C410.57 111.24 419.07 111.64 427.47 112.39L422.92 161.81C415.97 161.18 408.94 160.85 401.83 160.83Z" />
					<path id="&lt;Path&gt;" class="shp1" d="M175.05 318.6C170.28 331.61 166.59 345.15 164.11 359.11L115.26 350.34C118.26 333.51 122.7 317.18 128.46 301.48L175.05 318.6Z" />
					<text id=" " style="transform: matrix(2,0,0,2,1230.724,453.053)" >
						<tspan x="0" y="15.6" class="txt3">					
</tspan>
					</text>
					<path id="&lt;Path&gt;" class="shp1" d="M536.35 241.34L556.39 217.61C567.09 226.66 577 236.62 585.98 247.38L562.14 267.26C554.3 257.88 545.67 249.21 536.35 241.34Z" />
					<path id="&lt;Path&gt;" class="shp1" d="M472.14 598.89L482.68 628.11C476.16 630.46 469.51 632.53 462.75 634.32L454.79 604.28C460.69 602.73 466.47 600.92 472.14 598.89Z" />
					<path id="&lt;Path&gt;" class="shp1" d="M219.17 505.88L192.24 521.32C185.3 509.25 179.38 496.53 174.59 483.26L203.82 472.72C207.99 484.3 213.14 495.39 219.17 505.88Z" />
					<path id="&lt;Path&gt;" class="shp1" d="M266.73 240.59L246.84 216.75C257.57 207.79 269.08 199.74 281.26 192.74L296.71 219.67C286.08 225.78 276.05 232.79 266.73 240.59Z" />
				</g>
				<g id="&lt;Group&gt;" style="opacity: 0.451">
					<path id="&lt;Path&gt;" class="shp1" d="M270.45 292.08C264.09 299.66 258.38 307.79 253.4 316.4L243.59 310.74L149.43 256.38C157.92 241.7 167.66 227.83 178.5 214.92L261.78 284.81L270.45 292.08Z" />
					<path id="&lt;Path&gt;" class="shp1" d="M371.41 233.78L369.44 222.64C379.67 220.85 390.19 219.91 400.93 219.91C400.96 219.91 400.98 219.91 401 219.91L401 231.23C400.98 231.23 400.96 231.23 400.93 231.23C390.86 231.23 381 232.11 371.41 233.78Z" />
					<path id="&lt;Path&gt;" class="shp1" d="M310.12 244.21C300.93 249.53 292.26 255.62 284.18 262.4L266.15 240.91C275.46 233.09 285.47 226.05 296.09 219.91L310.12 244.21Z" />
					<path id="&lt;Path&gt;" class="shp1" d="M230.62 401.62L219.3 401.62C219.3 401.6 219.3 401.57 219.3 401.54C219.3 390.81 220.24 380.29 222.02 370.06L233.17 372.03C231.49 381.62 230.62 391.48 230.62 401.54C230.62 401.57 230.62 401.6 230.62 401.62Z" />
					<path id="&lt;Path&gt;" class="shp1" d="M531.47 292.15L540.14 284.87C546.91 292.95 553 301.62 558.31 310.8L548.5 316.46C543.53 307.85 537.82 299.72 531.47 292.15Z" />
					<path id="&lt;Path&gt;" class="shp1" d="M459.28 241.49L463.16 230.85C473.16 234.5 482.75 239 491.85 244.27L486.19 254.07C477.66 249.13 468.66 244.91 459.28 241.49Z" />
					<path id="&lt;Path&gt;" class="shp1" d="M486.12 549.05L491.78 558.86C482.69 564.12 473.1 568.61 463.1 572.25L459.23 561.62C468.61 558.2 477.6 553.99 486.12 549.05Z" />
					<path id="&lt;Path&gt;" class="shp1" d="M222.05 433.18C223.9 443.72 226.66 453.94 230.24 463.77L128.05 500.97C122.33 485.25 117.92 468.91 114.97 452.06L222.05 433.18Z" />
					<path id="&lt;Path&gt;" class="shp1" d="M284.26 540.75L266.24 562.23C256.9 554.4 248.24 545.76 240.37 536.41L261.86 518.38C268.66 526.47 276.16 533.95 284.26 540.75Z" />
					<path id="&lt;Path&gt;" class="shp1" d="M437.4 608.04C430.43 609.26 423.34 610.14 416.13 610.67C411.06 611.04 406.01 611.22 401 611.22L401 571.86C411.08 571.85 420.96 570.97 430.56 569.29L437.4 608.04Z" />
					<path id="&lt;Path&gt;" class="shp1" d="M342.75 561.66L301.69 674.49C285.69 668.67 270.36 661.49 255.82 653.08L315.85 549.11C324.38 554.04 333.37 558.25 342.75 561.66Z" />
					<path id="&lt;Path&gt;" class="shp1" d="M579.85 370.09C578.01 359.55 575.26 349.33 571.69 339.5L598.04 329.91C602.15 341.23 605.32 353.03 607.45 365.22L579.85 370.09Z" />
					<path id="&lt;Path&gt;" class="shp1" d="M571.64 463.73C575.22 453.91 577.97 443.69 579.82 433.15L686.9 452.04C683.95 468.88 679.55 485.22 673.83 500.92L571.64 463.73Z" />
					<path id="&lt;Path&gt;" class="shp1" d="M582.51 506.42C576.39 517 569.37 527 561.54 536.33L531.39 511.03C537.75 503.47 543.46 495.35 548.43 486.74L582.51 506.42Z" />
				</g>
				<g id="&lt;Group&gt;">
					<path id="&lt;Path&gt;" class="shp1" d="M242.77 307.69L165.89 263.31C169.84 256.46 174.09 249.78 178.62 243.31L251.34 294.23C248.26 298.62 245.41 303.12 242.77 307.69Z" />
					<path id="&lt;Path&gt;" class="shp1" d="M219.14 415.09L130.66 422.83C129.95 414.9 129.57 407.01 129.55 399.17L218.4 399.17C218.41 404.48 218.66 409.8 219.14 415.09Z" />
					<path id="&lt;Path&gt;" class="shp1" d="M463.72 227.41L494.09 143.97C501.52 146.7 508.82 149.72 515.96 153.07L478.44 233.54C473.6 231.27 468.69 229.23 463.72 227.41Z" />
					<path id="&lt;Path&gt;" class="shp1" d="M463.51 570.34L493.88 653.8C486.53 656.47 479.01 658.84 471.34 660.9L448.35 575.13C453.46 573.76 458.52 572.16 463.51 570.34Z" />
					<path id="&lt;Path&gt;" class="shp1" d="M261.36 516.51L193.31 573.61C188.24 567.59 183.42 561.33 178.87 554.85L251.62 503.91C254.66 508.22 257.91 512.43 261.36 516.51Z" />
					<path id="&lt;Path&gt;" class="shp1" d="M323.87 233.33L286.34 152.83C293.46 149.52 300.78 146.51 308.26 143.8L338.63 227.25C333.64 229.06 328.72 231.08 323.87 233.33Z" />
					<path id="&lt;Path&gt;" class="shp1" d="M550.73 294.46L623.48 243.52C627.99 249.97 632.22 256.64 636.18 263.51L559.25 307.92C556.62 303.33 553.79 298.84 550.73 294.46Z" />
					<path id="&lt;Path&gt;" class="shp1" d="M550.41 503.64L623.13 554.56C618.61 561.01 613.81 567.27 608.75 573.31L540.71 516.22C544.15 512.13 547.39 507.93 550.41 503.64Z" />
					<path id="&lt;Path&gt;" class="shp1" d="M583.47 399.17L672.31 399.17C672.31 407.1 671.95 414.98 671.27 422.79L582.76 415.05C583.22 409.76 583.46 404.46 583.47 399.17Z" />
					<path id="&lt;Path&gt;" class="shp1" d="M354.01 575.29L331.03 661.08C323.38 659.03 315.86 656.66 308.46 653.97L338.83 570.53C343.84 572.34 348.9 573.94 354.01 575.29Z" />
				</g>
			</g>
		</g>
	</g>
</svg>