<svg width="834" height="834" xmlns="http://www.w3.org/2000/svg" xmlns:xlink="http://www.w3.org/1999/xlink" overflow="hidden"><defs><clipPath id="clip0"><rect x="-2296" y="742" width="834" height="834"/></clipPath><clipPath id="clip1"><rect x="-2263" y="773" width="771" height="771"/></clipPath><clipPath id="clip2"><rect x="-2263" y="773" width="771" height="771"/></clipPath><clipPath id="clip3"><rect x="-2263" y="773" width="771" height="771"/></clipPath></defs><g clip-path="url(#clip0)" transform="translate(2296 -742)"><path d="M-2290.5 1161C-2290.5 933.182-2105.82 748.5-1878 748.5-1650.18 748.5-1465.5 933.182-1465.5 1161-1465.5 1388.82-1650.18 1573.5-1878 1573.5-2105.82 1573.5-2290.5 1388.82-2290.5 1161Z" stroke="#FFFFFF" stroke-width="4.58333" stroke-linecap="butt" stroke-linejoin="miter" stroke-miterlimit="8" stroke-opacity="1" fill="#FFFFFF" fill-rule="evenodd" fill-opacity="1"/><g clip-path="url(#clip1)"><g clip-path="url(#clip2)"><g clip-path="url(#clip3)"><path d="M-1883.13 1515.62C-2079.95 1515.62-2239.04 1358.82-2239.04 1164.84-2239.04 970.873-2079.95 814.067-1883.13 814.067-1686.32 814.067-1527.22 970.873-1527.22 1164.84-1527.22 1358.82-1686.32 1515.62-1883.13 1515.62Z" fill="#FFFFFF" fill-rule="nonzero" fill-opacity="1"/><path d="M-1613.05 1142.84C-1607.99 1129.05-1586.84 1122.51-1574.07 1122.51L-1568.29 1122.51-1568.29 1153.11C-1575.58 1153.11-1582.97 1152.73-1589.95 1155.13-1594.81 1156.67-1599.12 1159.61-1602.37 1163.51-1608.33 1171.55-1607.82 1176.48-1608.29 1184.01-1608.74 1191.3-1608.53 1196.29-1608.53 1203.62L-1608.53 1257.93-1642 1257.93-1642 1123.88-1613.02 1123.88-1613.05 1142.84ZM-2019.99 1226.17C-2043.98 1249.65-2064.65 1260.97-2098.7 1260.97-2155.41 1260.97-2194.56 1221.38-2194.56 1165.6-2194.56 1108.34-2150.17 1070.73-2098.15 1070.73-2067.8 1070.77-2038.98 1084.05-2019.2 1107.08L-2043.46 1130.28C-2059.86 1112.86-2077.76 1103.79-2098.94 1103.79-2132.99 1103.79-2160.74 1130.04-2160.74 1165.6-2160.74 1202.97-2134.02 1227.95-2098.19 1227.95-2075.74 1227.95-2060.61 1218.85-2043.46 1201.7L-2019.99 1226.17ZM-1876.39 1231.17C-1890.76 1251.63-1909.72 1260.77-1937.92 1260.77-1980.56 1260.77-2008.04 1229.49-2008.04 1190.1-2008.04 1153.52-1981.56 1119.71-1938.44 1119.71-1896.07 1119.71-1867.32 1149.99-1867.32 1192.39-1867.32 1195.41-1867.56 1196.91-1867.56 1199.96L-1975.5 1199.96C-1972.25 1219.91-1957.09 1231-1937.92 1231-1923.55 1231-1913.97 1226.96-1904.62 1217.85L-1876.39 1231.17ZM-1901.1 1173.4C-1905.65 1157.79-1920.02 1148.18-1937.96 1148.18-1954.59 1148.18-1967.49 1156.49-1974.03 1173.4L-1901.1 1173.4ZM-1850.31 1071.45-1816.78 1071.45-1816.78 1257.24-1850.31 1257.24-1850.31 1071.45ZM-1668.08 1231.17C-1682.45 1251.63-1701.38 1260.77-1729.65 1260.77-1772.29 1260.77-1799.77 1229.49-1799.77 1190.1-1799.77 1153.52-1773.28 1119.71-1730.16 1119.71-1687.76 1119.71-1659.01 1149.99-1659.01 1192.39-1659.01 1195.41-1659.25 1196.91-1659.25 1199.96L-1767.22 1199.96C-1763.94 1219.91-1748.81 1231-1729.65 1231-1715.27 1231-1705.69 1226.96-1696.35 1217.85L-1668.08 1231.17ZM-1692.82 1173.4C-1697.34 1157.79-1711.71 1148.18-1729.68 1148.18-1746.31 1148.18-1759.18 1156.49-1765.75 1173.4L-1692.82 1173.4Z" fill="#000000" fill-rule="evenodd" fill-opacity="1"/></g></g></g></g></svg>