<svg width="720" height="720" xmlns="http://www.w3.org/2000/svg" xmlns:xlink="http://www.w3.org/1999/xlink" overflow="hidden"><defs><clipPath id="clip0"><rect x="280" y="0" width="720" height="720"/></clipPath><clipPath id="clip1"><path d="M280 360C280 161.177 441.177 0 640 0 838.822-9.16656e-14 1000 161.177 1000 360 1000 558.822 838.822 720 640 720 441.177 720 280 558.822 280 360Z" fill-rule="evenodd" clip-rule="evenodd"/></clipPath></defs><g clip-path="url(#clip0)" transform="translate(-280 0)"><g clip-path="url(#clip1)"><path d="M280 -3.88956e-29 1000 -3.88956e-29 1000 720 280 720Z" fill="#F7EB09" fill-rule="nonzero" fill-opacity="1"/><path d="M763.293 463.054 580.186 463.054 531.384 414.252 607.902 337.759 540.345 337.759 460 418.118 552.693 510.797 811.061 510.797 763.293 463.054Z" fill="#FF284C" fill-rule="nonzero" fill-opacity="1"/><path d="M820 213.394 517.582 213.394 560.21 256.021 716.914 256.09 697.301 275.702 602.384 275.702 559.691 318.398 654.605 318.398 567.226 405.778 597.416 435.967 820 213.394Z" fill="#000000" fill-rule="nonzero" fill-opacity="1"/><path d="M677.426 443.689 806.619 314.5 746.24 314.5 617.075 443.689 677.426 443.689Z" fill="#000000" fill-rule="nonzero" fill-opacity="1"/></g></g></svg>