<svg width="1050" height="1050" xmlns="http://www.w3.org/2000/svg" xmlns:xlink="http://www.w3.org/1999/xlink" overflow="hidden"><defs><clipPath id="clip0"><rect x="-3185" y="302" width="1050" height="1050"/></clipPath><clipPath id="clip1"><rect x="-3073" y="415" width="823" height="823"/></clipPath><clipPath id="clip2"><rect x="-3073" y="415" width="823" height="823"/></clipPath><clipPath id="clip3"><rect x="-3073" y="415" width="823" height="823"/></clipPath><linearGradient x1="410.5" y1="855.48" x2="410.5" y2="-36.1776" gradientUnits="userSpaceOnUse" spreadMethod="pad" id="fill4"><stop offset="0" stop-color="#6666CC" stop-opacity="1"/><stop offset="0.1507" stop-color="#8A4AB3" stop-opacity="1"/><stop offset="0.4838" stop-color="#E40373" stop-opacity="1"/><stop offset="0.4996" stop-color="#E80070" stop-opacity="1"/><stop offset="1" stop-color="#FFE100" stop-opacity="1"/></linearGradient><linearGradient x1="410.466" y1="731.015" x2="410.466" y2="84.9539" gradientUnits="userSpaceOnUse" spreadMethod="pad" id="fill5"><stop offset="0" stop-color="#666699" stop-opacity="1"/><stop offset="0.1507" stop-color="#8A4A8E" stop-opacity="1"/><stop offset="0.4838" stop-color="#E40371" stop-opacity="1"/><stop offset="0.4996" stop-color="#E80070" stop-opacity="1"/><stop offset="1" stop-color="#FFE100" stop-opacity="1"/></linearGradient></defs><g clip-path="url(#clip0)" transform="translate(3185 -302)"><path d="M-3185 826.5C-3185 537.379-2950.62 303-2661.5 303-2372.38 303-2138 537.379-2138 826.5-2138 1115.62-2372.38 1350-2661.5 1350-2950.62 1350-3185 1115.62-3185 826.5Z" fill="#FFFFFF" fill-rule="evenodd" fill-opacity="1"/><g clip-path="url(#clip1)"><g clip-path="url(#clip2)"><g clip-path="url(#clip3)"><path d="M795.232 459.255 459.431 794.494C432.476 821.409 388.821 821.417 361.849 794.51L25.7845 459.271C-1.2748 432.276-1.26678 388.436 25.8006 361.449L361.865 26.4741C388.829-0.408897 432.46-0.400879 459.407 26.4901L601.96 168.698 529.585 240.559 432.38 143.579C420.37 131.593 400.927 131.593 388.909 143.563L143.034 388.556C130.959 400.582 130.959 420.129 143.018 432.164L388.893 677.429C400.919 689.424 420.378 689.416 432.396 677.413L677.975 432.148C690.025 420.113 690.017 400.59 677.959 388.564L580.858 291.696 653.232 219.834 795.216 361.473C822.259 388.452 822.267 432.26 795.232 459.255Z" fill="url(#fill4)" fill-rule="nonzero" transform="matrix(1 0 0 1.00122 -3072 416)"/><path d="M428.796 229.824 590.759 391.915C600.942 402.106 600.95 418.614 590.775 428.812L535.318 484.406 480.838 429.79 497.331 413.25C498.926 411.647 498.926 409.057 497.331 407.453L413.218 323.133C411.615 321.529 409.009 321.529 407.405 323.133L323.293 407.453C321.697 409.057 321.697 411.647 323.293 413.25L407.405 497.571C409.009 499.175 411.615 499.175 413.218 497.571L430.031 480.718 484.51 535.334 428.812 591.168C418.606 601.399 402.026 601.391 391.827 591.152L230.137 428.788C219.986 418.598 219.994 402.114 230.153 391.923L391.843 229.832C402.042 219.618 418.598 219.61 428.796 229.824Z" fill="url(#fill5)" fill-rule="nonzero" transform="matrix(1 0 0 1.00122 -3072 416)"/></g></g></g></g></svg>