<svg xmlns="http://www.w3.org/2000/svg" xmlns:xlink="http://www.w3.org/1999/xlink" width="835" height="834"
     overflow="hidden">
    <defs>
        <clipPath id="clip0">
            <rect x="1782" y="820" width="835" height="834"/>
        </clipPath>
        <clipPath id="clip1">
            <rect x="1783" y="820" width="834" height="835"/>
        </clipPath>
        <clipPath id="clip2">
            <rect x="1783" y="820" width="834" height="835"/>
        </clipPath>
        <clipPath id="clip3">
            <rect x="1783" y="820" width="834" height="835"/>
        </clipPath>
    </defs>
    <g clip-path="url(#clip0)" transform="translate(-1782 -820)">
        <path d="M1783 1237.5C1783 1007.47 1969.7 821 2200 821 2430.3 821 2617 1007.47 2617 1237.5 2617 1467.53 2430.3 1654 2200 1654 1969.7 1654 1783 1467.53 1783 1237.5Z"
              fill="#FFFFFF" fill-rule="evenodd" fill-opacity="1"/>
        <g clip-path="url(#clip1)">
            <g clip-path="url(#clip2)">
                <g clip-path="url(#clip3)">
                    <path d="M278.749 387.276 60.2028 378.732C52.454 452.362 67.7366 529.706 100.238 591.821L426.336 592.49C406.676 616.784 195.162 635.657 111.431 612.177 169.045 700.518 213.099 748.738 324.955 724.741 515.807 669.76 455.393 384.899 278.749 387.276Z"
                          fill="#F24139" fill-rule="nonzero" fill-opacity="1"
                          transform="matrix(1.0012 0 0 1 1783 821)"/>
                    <path d="M774.315 406.887 727.608 414.912 648.109 472.718C646.377 451.158 642.705 429.816 637.132 408.968 613.026 449.015 556.057 428.436 499.018 382.369 577.437 402.355 594.512 276.196 513.797 273.075 477.923 272.407 451.017 311.042 462.64 346.037 269.135 106.349 668.199 139.635 649.33 354.21L773.669 392.769C759.466 45.7215 296.829-79.2492 119.18 210.516 176.435 168.983 247.538 145.133 321.726 147.139 328.47 147.288 331.412 155.758 326.605 160.661 289.152 199.148 332.416 306.139 422.675 399.68 515.377 497.16 616.037 533.194 654.926 500.95 654.926 606.381 610.37 701.038 539.698 765.824 679.677 713.146 779.551 569.972 774.315 406.887ZM528.22 319.884C542.784 319.884 542.784 342.916 528.22 342.916 513.652 342.916 513.727 319.958 528.22 319.884ZM471.251 316.615C471.392 287.044 514.728 287.044 514.872 316.615 514.728 346.186 471.392 346.186 471.251 316.615Z"
                          fill="#F24139" fill-rule="nonzero" fill-opacity="1"
                          transform="matrix(1.0012 0 0 1 1783 821)"/>
                    <path d="M723.306 377.319C723.306 377.319 749.059 386.232 727.608 414.912 697.902 454.662 774.315 406.887 774.315 406.887 779.551 364.835 738.586 373.009 723.306 377.319Z"
                          fill="#F24139" fill-rule="nonzero" fill-opacity="1"
                          transform="matrix(1.0012 0 0 1 1783 821)"/>
                    <path d="M817.357 416.5C817.357 637.887 637.887 817.357 416.5 817.357 195.113 817.357 15.6432 637.887 15.6432 416.5 15.6432 195.113 195.113 15.6432 416.5 15.6432 637.887 15.6432 817.357 195.113 817.357 416.5Z"
                          stroke="#F24139" stroke-width="31.2864" stroke-linecap="butt" stroke-linejoin="miter"
                          stroke-miterlimit="4" stroke-opacity="1" fill="none" fill-rule="nonzero"
                          transform="matrix(1.0012 0 0 1 1783 821)"/>
                </g>
            </g>
        </g>
    </g>
</svg>