<svg width="834" height="834" xmlns="http://www.w3.org/2000/svg" xmlns:xlink="http://www.w3.org/1999/xlink" xml:space="preserve" overflow="hidden"><defs><clipPath id="clip0"><rect x="-971" y="687" width="834" height="834"/></clipPath><clipPath id="clip1"><rect x="-820" y="708" width="525" height="722"/></clipPath><clipPath id="clip2"><rect x="-820" y="708" width="525" height="722"/></clipPath><clipPath id="clip3"><rect x="-820" y="708" width="525" height="722"/></clipPath></defs><g clip-path="url(#clip0)" transform="translate(971 -687)"><path d="M-966.5 1103C-966.5 875.183-781.818 690.5-554 690.5-326.183 690.5-141.5 875.183-141.5 1103-141.5 1330.82-326.183 1515.5-554 1515.5-781.818 1515.5-966.5 1330.82-966.5 1103Z" stroke="#FFFFFF" stroke-width="4.58333" stroke-linecap="butt" stroke-linejoin="miter" stroke-miterlimit="8" stroke-opacity="1" fill="#FFFFFF" fill-rule="evenodd" fill-opacity="1"/><g clip-path="url(#clip1)"><g clip-path="url(#clip2)"><g clip-path="url(#clip3)"><path d="M267.548 66.6666C276.015 66.6666 282.878 59.8033 282.878 51.3369 282.878 42.8705 276.015 36.0071 267.548 36.0071 259.082 36.0071 252.219 42.8705 252.219 51.3369 252.219 59.8033 259.082 66.6666 267.548 66.6666Z" stroke="#1D1D1B" stroke-width="0.938174" stroke-linecap="butt" stroke-linejoin="miter" stroke-miterlimit="10" stroke-opacity="1" fill="#E5F601" fill-rule="nonzero" fill-opacity="1" transform="matrix(1.0015 0 0 1 -819.739 708)"/><path d="M267.548 144.948C267.548 144.948 303.368 70.8134 267.548 70.8134 231.729 70.8134 267.548 144.948 267.548 144.948Z" stroke="#1D1D1B" stroke-width="0.938174" stroke-linecap="butt" stroke-linejoin="miter" stroke-miterlimit="10" stroke-opacity="1" fill="#E5F601" fill-rule="nonzero" fill-opacity="1" transform="matrix(1.0015 0 0 1 -819.739 708)"/><path d="M191.106 157.726C191.106 157.726 162.623 135.773 157.97 120.086 154.217 107.552 172.98 103.574 180.749 102.467 189.117 115.02 205.61 130.988 237.602 146.993 237.602 146.993 203.828 109.372 201.388 86.3871 198.949 63.4018 242.049 68.0551 242.049 68.0551 242.049 68.0551 224.411 47.8281 200.957 50.3049 177.503 52.7817 171.573 72.8211 172.549 82.2028 173.324 87.9392 175.266 93.4563 178.253 98.4144 172.436 95.3748 162.942 91.9598 153.016 94.8869 141.523 97.7348 134.483 109.325 137.255 120.837 139.394 128.023 149.601 145.698 191.106 157.726Z" stroke="#1D1D1B" stroke-width="0.938174" stroke-linecap="butt" stroke-linejoin="miter" stroke-miterlimit="10" stroke-opacity="1" fill="#E5F601" fill-rule="nonzero" fill-opacity="1" transform="matrix(1.0015 0 0 1 -819.739 708)"/><path d="M333.746 86.312C331.326 109.297 297.532 146.918 297.532 146.918 329.524 130.913 345.999 115.02 354.386 102.392 362.135 103.518 380.899 107.515 377.146 120.086 372.511 135.829 344.028 157.782 344.028 157.782 385.496 145.698 395.703 128.023 397.786 120.837 400.579 109.322 393.531 97.7168 382.024 94.8869 372.117 91.9598 362.66 95.356 356.844 98.3769 359.834 93.4235 361.787 87.9146 362.585 82.184 363.561 72.8961 357.594 52.7629 334.159 50.2861 310.723 47.8093 293.067 68.0364 293.067 68.0364 293.067 68.0364 336.166 63.3643 333.746 86.312Z" stroke="#1D1D1B" stroke-width="0.938174" stroke-linecap="butt" stroke-linejoin="miter" stroke-miterlimit="10" stroke-opacity="1" fill="#E5F601" fill-rule="nonzero" fill-opacity="1" transform="matrix(1.0015 0 0 1 -819.739 708)"/><path d="M262.22 31.1286 272.84 31.1286 270.945 19.2138 282.878 21.1277 282.878 10.4888 270.945 12.4027 272.84 0.469087 262.22 0.469087 264.133 12.4027 252.219 10.4888 252.219 21.1277 264.133 19.2138 262.22 31.1286Z" stroke="#1D1D1B" stroke-width="0.938174" stroke-linecap="butt" stroke-linejoin="miter" stroke-miterlimit="10" stroke-opacity="1" fill="#E5F601" fill-rule="nonzero" fill-opacity="1" transform="matrix(1.0015 0 0 1 -819.739 708)"/><path d="M431.447 437.039 506.295 437.039C506.408 435.857 506.539 434.675 506.633 433.474L431.954 433.474Z" stroke="#1D1D1B" stroke-width="0.938174" stroke-linecap="butt" stroke-linejoin="miter" stroke-miterlimit="10" stroke-opacity="1" fill="#E5F601" fill-rule="nonzero" fill-opacity="1" transform="matrix(1.0015 0 0 1 -819.739 708)"/><path d="M503.518 455.953 427.413 455.953C426.869 457.979 426.269 459.987 425.65 461.994L502.317 461.994C502.73 460.062 503.143 458.054 503.518 455.953Z" stroke="#1D1D1B" stroke-width="0.938174" stroke-linecap="butt" stroke-linejoin="miter" stroke-miterlimit="10" stroke-opacity="1" fill="#E5F601" fill-rule="nonzero" fill-opacity="1" transform="matrix(1.0015 0 0 1 -819.739 708)"/><path d="M500.685 469.181 423.248 469.181C422.328 471.733 421.371 474.266 420.302 476.686L498.714 476.686C499.409 474.247 500.065 471.714 500.685 469.181Z" stroke="#1D1D1B" stroke-width="0.938174" stroke-linecap="butt" stroke-linejoin="miter" stroke-miterlimit="10" stroke-opacity="1" fill="#E5F601" fill-rule="nonzero" fill-opacity="1" transform="matrix(1.0015 0 0 1 -819.739 708)"/><path d="M432.536 428.445 507.045 428.445C507.045 427.188 507.214 425.912 507.289 424.693L432.892 424.693C432.78 425.931 432.667 427.188 432.536 428.445Z" stroke="#1D1D1B" stroke-width="0.938174" stroke-linecap="butt" stroke-linejoin="miter" stroke-miterlimit="10" stroke-opacity="1" fill="#E5F601" fill-rule="nonzero" fill-opacity="1" transform="matrix(1.0015 0 0 1 -819.739 708)"/><path d="M429.177 448.916 504.738 448.916C504.981 447.321 505.207 445.745 505.432 444.15L430.19 444.15C429.871 445.745 429.552 447.34 429.177 448.916Z" stroke="#1D1D1B" stroke-width="0.938174" stroke-linecap="butt" stroke-linejoin="miter" stroke-miterlimit="10" stroke-opacity="1" fill="#E5F601" fill-rule="nonzero" fill-opacity="1" transform="matrix(1.0015 0 0 1 -819.739 708)"/><path d="M19.1763 455.953C19.5515 457.979 19.9643 459.987 20.3771 461.994L97.0447 461.994C96.4255 459.987 95.8251 457.979 95.2809 455.953Z" stroke="#1D1D1B" stroke-width="0.938174" stroke-linecap="butt" stroke-linejoin="miter" stroke-miterlimit="10" stroke-opacity="1" fill="#E5F601" fill-rule="nonzero" fill-opacity="1" transform="matrix(1.0015 0 0 1 -819.739 708)"/><path d="M90.7402 433.436 16.0615 433.436C16.0615 434.637 16.2867 435.819 16.3993 437.001L91.2468 437.001Z" stroke="#1D1D1B" stroke-width="0.938174" stroke-linecap="butt" stroke-linejoin="miter" stroke-miterlimit="10" stroke-opacity="1" fill="#E5F601" fill-rule="nonzero" fill-opacity="1" transform="matrix(1.0015 0 0 1 -819.739 708)"/><path d="M89.802 424.655 15.4048 424.655C15.4048 425.912 15.5549 427.188 15.6487 428.408L90.1585 428.408C90.0647 427.188 89.9146 425.931 89.802 424.655Z" stroke="#1D1D1B" stroke-width="0.938174" stroke-linecap="butt" stroke-linejoin="miter" stroke-miterlimit="10" stroke-opacity="1" fill="#E5F601" fill-rule="nonzero" fill-opacity="1" transform="matrix(1.0015 0 0 1 -819.739 708)"/><path d="M23.9797 476.761 102.374 476.761C101.342 474.266 100.366 471.733 99.4277 469.256L22.0096 469.256C22.6288 471.714 23.2855 474.247 23.9797 476.761Z" stroke="#1D1D1B" stroke-width="0.938174" stroke-linecap="butt" stroke-linejoin="miter" stroke-miterlimit="10" stroke-opacity="1" fill="#E5F601" fill-rule="nonzero" fill-opacity="1" transform="matrix(1.0015 0 0 1 -819.739 708)"/><path d="M92.5039 444.15 17.2624 444.15C17.4876 445.745 17.7127 447.321 17.9566 448.916L93.5172 448.916C93.1419 447.34 92.8042 445.745 92.5039 444.15Z" stroke="#1D1D1B" stroke-width="0.938174" stroke-linecap="butt" stroke-linejoin="miter" stroke-miterlimit="10" stroke-opacity="1" fill="#E5F601" fill-rule="nonzero" fill-opacity="1" transform="matrix(1.0015 0 0 1 -819.739 708)"/><path d="M43.6251 378.91 68.4679 382.963 69.7251 375.232 44.8822 371.179 46.5334 361.066 39.9099 359.996 35.3504 387.991 41.9551 389.061 43.6251 378.91Z" stroke="#1D1D1B" stroke-width="0.938174" stroke-linecap="butt" stroke-linejoin="miter" stroke-miterlimit="10" stroke-opacity="1" fill="#E5F601" fill-rule="nonzero" fill-opacity="1" transform="matrix(1.0015 0 0 1 -819.739 708)"/><path d="M74.5473 354.874 62.595 350.858 66.6854 338.643 78.6565 342.64 81.1333 335.21 50.9053 325.096 48.4285 332.526 60.1745 336.448 56.0653 348.682 44.3193 344.741 41.8426 352.172 72.0705 362.304 74.5473 354.874Z" stroke="#1D1D1B" stroke-width="0.938174" stroke-linecap="butt" stroke-linejoin="miter" stroke-miterlimit="10" stroke-opacity="1" fill="#E5F601" fill-rule="nonzero" fill-opacity="1" transform="matrix(1.0015 0 0 1 -819.739 708)"/><path d="M94.7743 308.866 88.9576 305.807 81.3022 320.368 75.6919 317.403 81.0395 307.252 75.4104 304.287 70.0628 314.438 64.6965 311.605 72.2769 297.232 66.479 294.174 55.2397 315.489 83.4599 330.35 94.7743 308.866Z" stroke="#1D1D1B" stroke-width="0.938174" stroke-linecap="butt" stroke-linejoin="miter" stroke-miterlimit="10" stroke-opacity="1" fill="#E5F601" fill-rule="nonzero" fill-opacity="1" transform="matrix(1.0015 0 0 1 -819.739 708)"/><path d="M109.147 272.502C109.517 273.956 109.574 275.471 109.316 276.949 109.085 278.335 108.482 279.632 107.571 280.702 106.809 281.657 105.857 282.443 104.775 283.01 103.744 283.546 102.614 283.865 101.454 283.948 100.268 284.035 99.0754 283.888 97.9454 283.516 96.7286 283.109 95.6012 282.472 94.6242 281.64 93.6302 280.827 92.7911 279.842 92.1474 278.731 91.5428 277.713 91.1473 276.584 90.9841 275.41 90.834 274.281 90.9105 273.133 91.2093 272.033 91.9435 269.465 93.8295 267.385 96.3129 266.404 97.8037 265.845 99.3961 265.608 100.985 265.71L100.478 258.448C98.0428 258.356 95.6213 258.858 93.4234 259.912 91.1137 260.975 89.074 262.547 87.4566 264.509 86.0023 266.254 84.9057 268.269 84.2292 270.438 83.5954 272.476 83.3534 274.615 83.5162 276.743 83.727 278.869 84.3652 280.93 85.3926 282.803 87.4835 286.782 91.0882 289.75 95.3935 291.04 97.4199 291.632 99.541 291.83 101.642 291.622 103.763 291.39 105.821 290.753 107.702 289.746 109.706 288.653 111.477 287.181 112.919 285.411 114.483 283.489 115.593 281.237 116.165 278.825 116.753 276.502 116.792 274.073 116.277 271.733Z" stroke="#1D1D1B" stroke-width="0.938174" stroke-linecap="butt" stroke-linejoin="miter" stroke-miterlimit="10" stroke-opacity="1" fill="#E5F601" fill-rule="nonzero" fill-opacity="1" transform="matrix(1.0015 0 0 1 -819.739 708)"/><path d="M135.885 240.548C134.447 238.869 132.686 237.497 130.706 236.514 128.818 235.558 126.757 234.99 124.646 234.844 122.539 234.69 120.422 234.951 118.416 235.613 114.163 237.042 110.644 240.089 108.622 244.094 107.669 245.985 107.095 248.044 106.933 250.155 106.803 252.27 107.076 254.39 107.74 256.403 108.438 258.48 109.549 260.394 111.005 262.032 113.856 265.349 117.902 267.406 122.263 267.755 131.336 268.439 139.245 261.638 139.929 252.566 140.092 250.406 139.827 248.235 139.15 246.177 138.444 244.103 137.335 242.19 135.885 240.548ZM131.663 255.765C131.196 256.82 130.497 257.757 129.618 258.504 128.757 259.263 127.738 259.82 126.635 260.137 125.554 260.432 124.426 260.515 123.314 260.381 122.159 260.213 121.045 259.831 120.03 259.255 118.913 258.628 117.915 257.809 117.084 256.835 116.28 255.859 115.645 254.756 115.208 253.57 114.774 252.484 114.557 251.324 114.57 250.155 114.573 249.034 114.816 247.927 115.283 246.909 116.241 244.791 118.079 243.2 120.311 242.555 121.384 242.25 122.508 242.167 123.614 242.312 124.777 242.47 125.898 242.853 126.916 243.437 127.99 244.057 128.948 244.856 129.749 245.802 130.594 246.761 131.266 247.86 131.738 249.048 132.164 250.142 132.381 251.307 132.376 252.481 132.372 253.614 132.129 254.733 131.663 255.765Z" stroke="#1D1D1B" stroke-width="0.938174" stroke-linecap="butt" stroke-linejoin="miter" stroke-miterlimit="10" stroke-opacity="1" fill="#E5F601" fill-rule="nonzero" fill-opacity="1" transform="matrix(1.0015 0 0 1 -819.739 708)"/><path d="M140.836 219.703 148.693 219.703 148.693 251.637 140.836 251.637Z" stroke="#1D1D1B" stroke-width="0.939786" stroke-linecap="butt" stroke-linejoin="miter" stroke-miterlimit="10" stroke-opacity="1" fill="#E5F601" fill-rule="nonzero" fill-opacity="1" transform="matrix(0.829819 -0.55904 0.559878 0.828576 -926.193 827.786)"/><path d="M166.094 204.822 174.876 222.009 153.56 211.108 146.956 214.41 161.253 242.912 167.839 239.591 158.777 221.822 180.786 233.099 186.978 230.003 172.68 201.501 166.094 204.822Z" stroke="#1D1D1B" stroke-width="0.938174" stroke-linecap="butt" stroke-linejoin="miter" stroke-miterlimit="10" stroke-opacity="1" fill="#E5F601" fill-rule="nonzero" fill-opacity="1" transform="matrix(1.0015 0 0 1 -819.739 708)"/><path d="M225.293 195.947C224.051 194.232 222.482 192.778 220.677 191.669 218.884 190.56 216.887 189.82 214.804 189.492 212.614 189.131 210.373 189.22 208.218 189.755 206.046 190.263 203.998 191.2 202.195 192.513 200.485 193.754 199.032 195.315 197.917 197.11 196.813 198.918 196.08 200.927 195.759 203.021 195.397 205.205 195.486 207.44 196.022 209.588 198.201 218.411 207.119 223.798 215.942 221.619 224.766 219.441 230.152 210.522 227.974 201.699 227.462 199.626 226.551 197.672 225.293 195.947ZM220.415 207.599C220.286 208.765 219.942 209.898 219.401 210.939 218.872 211.922 218.151 212.79 217.281 213.491 216.377 214.206 215.326 214.712 214.204 214.973 213.086 215.226 211.926 215.226 210.808 214.973 209.711 214.755 208.67 214.314 207.749 213.678 206.799 212.997 205.984 212.145 205.348 211.164 204.656 210.086 204.149 208.9 203.846 207.655 203.55 206.428 203.467 205.158 203.603 203.903 203.714 202.741 204.052 201.613 204.597 200.582 205.122 199.59 205.851 198.72 206.736 198.03 208.559 196.597 210.915 196.029 213.191 196.472 214.287 196.702 215.327 197.149 216.249 197.786 217.204 198.461 218.02 199.315 218.651 200.3 219.357 201.371 219.865 202.559 220.152 203.809 220.461 205.047 220.55 206.33 220.415 207.599Z" stroke="#1D1D1B" stroke-width="0.938174" stroke-linecap="butt" stroke-linejoin="miter" stroke-miterlimit="10" stroke-opacity="1" fill="#E5F601" fill-rule="nonzero" fill-opacity="1" transform="matrix(1.0015 0 0 1 -819.739 708)"/><path d="M258.073 183.676 233.868 185.364 236.082 217.168 243.906 216.624 243.025 203.997 254.47 203.19 254.02 196.829 242.574 197.636 242.124 191.35 258.542 190.205 258.073 183.676Z" stroke="#1D1D1B" stroke-width="0.938174" stroke-linecap="butt" stroke-linejoin="miter" stroke-miterlimit="10" stroke-opacity="1" fill="#E5F601" fill-rule="nonzero" fill-opacity="1" transform="matrix(1.0015 0 0 1 -819.739 708)"/><path d="M294.924 210.977C293.638 211.486 292.242 211.654 290.871 211.464 289.658 211.311 288.489 210.908 287.438 210.282 286.436 209.698 285.567 208.912 284.886 207.974 284.184 207.014 283.68 205.923 283.404 204.766 283.109 203.537 283.046 202.265 283.216 201.013 283.374 199.741 283.762 198.507 284.36 197.373 284.915 196.325 285.667 195.395 286.575 194.634 287.452 193.907 288.467 193.365 289.558 193.039 290.701 192.696 291.905 192.606 293.085 192.776 294.532 192.956 295.909 193.505 297.082 194.371 298.338 195.344 299.374 196.572 300.122 197.973L306.014 193.714C304.819 191.593 303.117 189.801 301.06 188.498 298.948 187.059 296.535 186.122 294.005 185.758 291.755 185.453 289.468 185.586 287.269 186.152 285.168 186.702 283.193 187.651 281.452 188.948 279.751 190.215 278.322 191.81 277.249 193.639 274.992 197.526 274.378 202.151 275.542 206.492 276.093 208.538 277.05 210.452 278.356 212.121 279.679 213.798 281.317 215.2 283.178 216.249 285.155 217.38 287.336 218.107 289.596 218.388 292.058 218.724 294.566 218.473 296.913 217.656 299.202 216.935 301.29 215.689 303.011 214.016L298.546 208.5C297.525 209.57 296.291 210.413 294.924 210.977Z" stroke="#1D1D1B" stroke-width="0.938174" stroke-linecap="butt" stroke-linejoin="miter" stroke-miterlimit="10" stroke-opacity="1" fill="#E5F601" fill-rule="nonzero" fill-opacity="1" transform="matrix(1.0015 0 0 1 -819.739 708)"/><path d="M334.553 196.003 330.894 207.824 318.585 204.015 322.244 192.176 314.757 189.868 305.338 220.321 312.825 222.647 316.559 210.583 328.867 214.41 325.134 226.456 332.62 228.764 342.039 198.311 334.553 196.003Z" stroke="#1D1D1B" stroke-width="0.938174" stroke-linecap="butt" stroke-linejoin="miter" stroke-miterlimit="10" stroke-opacity="1" fill="#E5F601" fill-rule="nonzero" fill-opacity="1" transform="matrix(1.0015 0 0 1 -819.739 708)"/><path d="M360.052 206.511 334.515 229.308 341.796 233.061 347.631 227.432 358.026 232.723 356.938 240.698 364.443 244.544 367.971 210.564ZM358.908 226.381 352.284 223.004 360.39 215.273Z" stroke="#1D1D1B" stroke-width="0.938174" stroke-linecap="butt" stroke-linejoin="miter" stroke-miterlimit="10" stroke-opacity="1" fill="#E5F601" fill-rule="nonzero" fill-opacity="1" transform="matrix(1.0015 0 0 1 -819.739 708)"/><path d="M405.779 235.801 390.374 243.231 393.62 226.419 385.833 220.415 366.357 245.651 372.042 250.042 385.383 232.78 381.555 254.508 401.463 245.408 388.235 262.539 394.089 267.042 413.566 241.805 405.779 235.801Z" stroke="#1D1D1B" stroke-width="0.938174" stroke-linecap="butt" stroke-linejoin="miter" stroke-miterlimit="10" stroke-opacity="1" fill="#E5F601" fill-rule="nonzero" fill-opacity="1" transform="matrix(1.0015 0 0 1 -819.739 708)"/><path d="M424.374 279.576C425.705 279.702 427.049 279.542 428.314 279.107 429.621 278.643 430.826 277.929 431.86 277.005 432.94 276.049 433.82 274.888 434.45 273.59 435.058 272.378 435.386 271.044 435.406 269.687 435.435 268.283 435.186 266.887 434.675 265.578 434.098 264.108 433.252 262.759 432.179 261.6L421.784 250.005 398.048 271.282 403.265 277.118 411.558 269.612 416.718 275.392C417.778 276.585 419.051 277.571 420.471 278.3 421.68 278.966 423.004 279.398 424.374 279.576ZM416.193 265.522 422.197 260.156 426.456 264.903C427.373 265.791 427.906 267.004 427.939 268.28 427.897 269.355 427.415 270.366 426.606 271.076 425.813 271.819 424.744 272.193 423.661 272.108 422.371 271.942 421.202 271.266 420.414 270.232Z" stroke="#1D1D1B" stroke-width="0.938174" stroke-linecap="butt" stroke-linejoin="miter" stroke-miterlimit="10" stroke-opacity="1" fill="#E5F601" fill-rule="nonzero" fill-opacity="1" transform="matrix(1.0015 0 0 1 -819.739 708)"/><path d="M417.64 285.16 449.535 285.16 449.535 293.007 417.64 293.007Z" stroke="#1D1D1B" stroke-width="0.938644" stroke-linecap="butt" stroke-linejoin="miter" stroke-miterlimit="10" stroke-opacity="1" fill="#E5F601" fill-rule="nonzero" fill-opacity="1" transform="matrix(0.816649 -0.577996 0.578862 0.815427 -907.139 1011.84)"/><path d="M445.839 295.037C443.64 295.238 441.503 295.876 439.553 296.913 437.595 297.945 435.865 299.362 434.468 301.079 431.754 304.381 430.465 308.627 430.884 312.881 431.338 317.347 433.537 321.454 437.001 324.308 438.629 325.642 440.504 326.643 442.518 327.254 444.547 327.866 446.675 328.076 448.785 327.873 450.984 327.674 453.122 327.036 455.071 325.997 457.024 324.958 458.753 323.542 460.156 321.831 464.325 316.697 464.985 309.554 461.825 303.743 460.797 301.767 459.372 300.023 457.641 298.621 455.983 297.261 454.069 296.246 452.012 295.637 450.012 295.044 447.916 294.84 445.839 295.037ZM450.455 302.974C451.542 303.239 452.564 303.725 453.457 304.4 455.291 305.813 456.432 307.944 456.59 310.254 456.651 311.372 456.478 312.49 456.084 313.538 455.659 314.64 455.022 315.647 454.208 316.502 453.347 317.449 452.332 318.242 451.205 318.848 450.078 319.456 448.852 319.863 447.584 320.049 446.429 320.224 445.251 320.179 444.113 319.917 443.026 319.659 442.005 319.18 441.111 318.51 440.19 317.821 439.434 316.937 438.897 315.921 438.347 314.909 438.033 313.787 437.977 312.637 437.902 311.52 438.068 310.4 438.465 309.353 438.89 308.252 439.527 307.244 440.341 306.389 442.094 304.504 444.425 303.257 446.965 302.842 448.126 302.667 449.31 302.712 450.455 302.974Z" stroke="#1D1D1B" stroke-width="0.938174" stroke-linecap="butt" stroke-linejoin="miter" stroke-miterlimit="10" stroke-opacity="1" fill="#E5F601" fill-rule="nonzero" fill-opacity="1" transform="matrix(1.0015 0 0 1 -819.739 708)"/><path d="M444.751 344.497 463.702 338.268 449.16 358.289 451.28 364.875 481.64 355.155 479.388 348.119 461.037 354.142 475.11 334.759 472.858 327.742 442.499 337.461 444.751 344.497Z" stroke="#1D1D1B" stroke-width="0.938174" stroke-linecap="butt" stroke-linejoin="miter" stroke-miterlimit="10" stroke-opacity="1" fill="#E5F601" fill-rule="nonzero" fill-opacity="1" transform="matrix(1.0015 0 0 1 -819.739 708)"/><path d="M474.153 365.7C472.117 365.931 470.248 366.94 468.937 368.515 467.584 370.287 466.858 372.458 466.873 374.688L466.685 381.574C466.706 382.743 466.469 383.903 465.991 384.97 465.57 385.683 464.828 386.146 464.002 386.209 463.011 386.342 462.025 385.925 461.431 385.12 460.59 384.034 460.07 382.734 459.93 381.368 459.703 379.771 459.792 378.145 460.193 376.583 460.768 374.478 461.58 372.444 462.614 370.522L456.29 367.408C455.097 369.616 454.231 371.986 453.72 374.444 453.234 376.854 453.171 379.33 453.532 381.762 453.879 385.292 455.414 388.599 457.885 391.143 459.976 393.231 462.945 394.181 465.86 393.695 468.063 393.446 470.065 392.298 471.395 390.524 472.795 388.401 473.509 385.899 473.44 383.357L473.59 376.902C473.541 375.905 473.741 374.912 474.172 374.012 474.545 373.396 475.182 372.987 475.898 372.905 476.781 372.808 477.652 373.169 478.206 373.862 478.993 374.847 479.476 376.041 479.594 377.296 479.836 378.931 479.785 380.595 479.444 382.212 479.061 383.963 478.43 385.65 477.568 387.222L483.722 390.28C484.815 388.324 485.551 386.189 485.899 383.976 486.274 381.576 486.274 379.133 485.899 376.733 485.604 373.416 484.164 370.305 481.827 367.933 479.764 366.022 476.92 365.194 474.153 365.7Z" stroke="#1D1D1B" stroke-width="0.938174" stroke-linecap="butt" stroke-linejoin="miter" stroke-miterlimit="10" stroke-opacity="1" fill="#E5F601" fill-rule="nonzero" fill-opacity="1" transform="matrix(1.0015 0 0 1 -819.739 708)"/><path d="M388.404 393.601C388.535 412.196 386.265 436.757 382.437 467.455 388.198 453.776 391.763 402.946 388.404 393.601Z" stroke="#1D1D1B" stroke-width="0.938174" stroke-linecap="butt" stroke-linejoin="miter" stroke-miterlimit="10" stroke-opacity="1" fill="#E5F601" fill-rule="nonzero" fill-opacity="1" transform="matrix(1.0015 0 0 1 -819.739 708)"/><path d="M159.79 435.088C156.262 435.482 131.645 433.099 122.863 426.156 128.305 435.801 159.64 437.302 159.79 435.088Z" stroke="#1D1D1B" stroke-width="0.938174" stroke-linecap="butt" stroke-linejoin="miter" stroke-miterlimit="10" stroke-opacity="1" fill="#E5F601" fill-rule="nonzero" fill-opacity="1" transform="matrix(1.0015 0 0 1 -819.739 708)"/><path d="M485.974 593.301C481.83 584.189 475.881 576.012 468.487 569.265 556.014 454.866 534.23 291.172 419.831 203.644 305.431 116.117 141.737 137.9 54.2097 252.3-18.123 346.839-17.2669 478.358 56.2904 571.948 55.8964 572.267 55.5024 572.624 55.1083 572.98 44.2285 582.863 36.4631 595.701 32.761 609.926 25.7055 639.264 32.5425 670.218 51.2993 693.855 60.6601 705.191 73.1197 713.556 87.1564 717.928 94.9375 720.349 103.043 721.564 111.192 721.531 118.225 721.501 125.233 720.709 132.095 719.167 145.045 716.478 157.228 710.919 167.745 702.899 177.863 695.111 185.831 684.877 190.9 673.159 191.556 671.62 192.176 670.044 192.776 668.449 199.857 677.573 208.758 685.126 218.913 690.627 231.74 697.595 246.122 701.203 260.719 701.116L262.051 701.116C277.041 701.007 291.743 696.984 304.7 689.445 315.102 683.434 324.067 675.225 330.969 665.39 335.347 677.319 342.666 687.948 352.247 696.294 363.862 706.186 377.892 712.822 392.907 715.526 399.153 716.777 405.507 717.405 411.877 717.403 418.689 717.418 425.476 716.592 432.085 714.945 444.509 711.92 455.954 705.771 465.334 697.082 474.596 688.367 481.761 677.667 486.293 665.784 486.293 665.784 493.911 646.383 493.367 630.265 492.823 614.147 491.097 604.559 485.974 593.301ZM176.489 641.974C176.489 643.95 176.358 645.883 176.095 647.772 175.789 650.791 175.256 653.783 174.5 656.722 173.772 659.496 172.837 662.211 171.705 664.846 168.038 673.322 162.263 680.718 154.93 686.331 146.859 692.433 137.514 696.635 127.592 698.621 116.368 701.395 104.608 701.136 93.5172 697.87 83.3363 694.698 74.3081 688.611 67.5485 680.364 53.1369 662.034 47.8163 638.157 53.0819 615.442 55.7414 605.098 61.3783 595.762 69.2935 588.592L69.969 588.01C72.2139 586.017 74.6173 584.209 77.1554 582.606 78.7503 581.593 80.4203 580.636 82.1653 579.754 87.7877 576.938 93.7463 574.851 99.8968 573.543 109.714 571.185 119.937 571.07 129.806 573.206 138.822 575.218 147.178 579.492 154.086 585.627 161.166 592.042 166.691 599.986 170.241 608.856L129.562 617.863C127.035 614.384 123.564 611.701 119.561 610.132 118.117 609.569 116.612 609.179 115.076 608.969 112.406 608.613 109.693 608.734 107.064 609.325L106.52 609.457C103.261 610.185 100.24 611.728 97.739 613.941 95.8633 615.651 94.3565 617.726 93.3108 620.039 90.6088 625.731 90.1523 632.667 91.941 640.848 93.7298 649.029 97.0572 655.158 101.923 659.236 106.604 663.252 112.959 664.711 118.923 663.139 123.105 662.289 126.935 660.204 129.918 657.153 132.895 654.035 134.914 650.127 135.735 645.895L144.516 644.019 158.777 640.867 168.158 638.803 176.433 636.926C176.546 638.634 176.546 640.304 176.489 641.974ZM317.309 647.772C316.671 648.897 316.014 649.986 315.32 651.055 313.812 653.418 312.145 655.675 310.329 657.81L310.329 657.81C306.668 662.129 302.424 665.918 297.72 669.068 296.576 669.837 295.393 670.569 294.174 671.282 274.039 682.716 249.457 683.062 229.008 672.202 227.132 671.151 225.256 670.044 223.492 668.843 218.838 665.678 214.639 661.89 211.014 657.585 209.186 655.431 207.506 653.155 205.985 650.774 205.685 650.323 205.385 649.854 205.104 649.385 190.897 626.051 192.655 596.353 209.513 574.857 211.261 572.616 213.174 570.508 215.236 568.552L215.611 568.177C218.245 565.688 221.096 563.44 224.13 561.46 225.199 560.747 226.306 560.071 227.432 559.414 229.457 558.241 231.55 557.188 233.699 556.262 234.243 555.999 234.806 555.774 235.35 555.549 235.894 555.324 236.476 555.099 237.058 554.874 244.41 552.17 252.173 550.754 260.005 550.689 267.269 550.515 274.512 551.522 281.452 553.673L282.859 554.142 283.141 554.236C284.417 554.667 285.693 555.155 286.894 555.68 287.607 555.981 288.32 556.281 289.014 556.619 290.252 557.182 291.491 557.801 292.767 558.495 294.643 559.489 296.407 560.578 298.114 561.722 301.095 563.747 303.895 566.026 306.483 568.533L306.858 568.909C308.832 570.862 310.669 572.95 312.356 575.157 313.855 577.094 315.24 579.118 316.502 581.218 328.302 601.761 328.657 626.941 317.44 647.809ZM197.711 534.647C194.915 537.818 184.201 533.934 175.082 529.768 147.204 509.617 127.214 480.385 118.548 447.096L118.548 447.096C119.216 439.985 120.663 432.97 122.863 426.175 116.596 420.546 117.234 391.068 118.172 374.613 121.905 359.543 128.004 345.16 136.242 332.001 142.079 325.505 148.505 319.563 155.437 314.251 162.893 313.064 170.41 312.299 177.953 311.962 185.214 312.13 190.787 313.144 192.007 314.345 194.39 316.652 190.13 355.024 196.904 374.519 191.838 360.109 194.033 316.671 196.116 311.605 197.823 307.458 221.447 289.502 250.53 275.954 265.409 276.555 293.104 285.599 320.837 299.184 326.547 318.404 329.973 338.229 331.044 358.251 331.044 358.251 293.986 389.943 271.001 402.214 284.867 398.93 334.421 360.747 334.421 360.747 334.421 360.747 368.496 377.634 388.385 393.62 388.385 393.62 388.723 392.945 389.286 391.744 392.288 385.346 400.544 364.368 396.604 353.054L399.043 355.924C415.244 396.946 412.242 443.064 390.862 481.64 389.098 477.756 385.064 469.425 382.418 467.53 382.156 467.905 381.856 468.28 381.555 468.674 374.632 477.418 356.581 492.973 342.433 501.735 338.277 504.584 333.673 506.715 328.811 508.04L328.079 508.153C313.388 507.852 280.308 492.879 272.633 478.694 274.191 470.926 273.009 439.966 272.033 419.87 271.545 410.301 271.132 403.227 271.076 402.308 264.265 400.694 200.882 375.401 196.979 374.594 195.985 374.388 190.449 382.099 183.845 392.288 183.845 392.288 183.845 392.288 183.845 392.288 173.75 407.956 161.328 429.215 159.827 435.125 159.703 435.525 159.658 435.946 159.696 436.363 160.709 441.373 193.47 492.785 200.976 496.744 197.017 506.989 196.191 532.695 197.711 534.647ZM239.422 264.021C282.464 257.53 326.177 270.355 358.889 299.071L359.921 301.21 359.602 301.079C347.167 296.426 333.697 295.264 320.649 297.72 307.946 289.277 267.624 273.44 250.868 274.847 247.862 270.469 243.96 266.779 239.422 264.021ZM230.528 492.41C225.912 493.498 221.484 494.436 217.394 495.187 221.503 494.418 225.95 493.479 230.528 492.41ZM202.083 498.245C217.093 498.245 253.588 488.714 272.108 480.476 279.932 493.461 310.611 509.973 328.004 508.115 322.075 522.657 316.315 536.26 313.106 543.766 312.281 544.141 311.417 544.497 310.536 544.854 308.007 543.096 305.382 541.48 302.674 540.013 289.876 533.105 275.543 529.536 261 529.637L259.649 529.637C244.645 529.736 229.921 533.711 216.906 541.176 215.105 542.214 213.359 543.303 211.671 544.441 204.747 541.045 199.324 537.63 197.711 534.684 198.217 526.278 198.499 511.549 202.083 498.245ZM327.423 560.446C325.591 558.183 323.636 556.022 321.568 553.973 401.023 520.846 438.58 429.582 405.453 350.127 372.327 270.672 281.062 233.116 201.607 266.242 122.153 299.369 84.5962 390.634 117.723 470.088 133.367 507.612 163.054 537.539 200.45 553.485 198.343 555.499 196.357 557.635 194.502 559.883L194.371 559.883C111.708 522.746 74.8018 425.628 111.94 342.964 149.077 260.301 246.195 223.395 328.859 260.533 411.522 297.671 448.428 394.789 411.29 477.452 394.633 514.529 364.807 544.103 327.592 560.446ZM328.042 561.197C411.468 524.499 449.349 427.12 412.651 343.694 375.954 260.268 278.574 222.387 195.148 259.084 111.722 295.782 73.8412 393.161 110.539 476.587 126.972 513.945 156.665 543.888 193.883 560.634 192.22 562.655 190.66 564.759 189.211 566.938 152.42 549.946 122.791 520.536 105.526 483.873L26.0812 483.873C28.5205 491.716 31.3288 499.384 34.506 506.877 43.126 527.137 54.4221 546.151 68.0927 563.411 66.4602 564.368 64.8841 565.381 63.3455 566.432-22.6653 457.072-3.73741 298.693 105.622 212.683 214.982 126.672 373.361 145.6 459.371 254.959 530.414 345.287 531.323 472.244 461.582 563.58 460.08 562.473 458.542 561.441 456.966 560.428 469.615 543.972 480.125 525.978 488.244 506.877 491.422 499.371 494.23 491.703 496.669 483.873L417.15 483.873C399.742 520.868 369.748 550.469 332.526 567.389 331.119 565.231 329.618 563.186 328.042 561.197ZM431.41 621.672C430.643 618.242 429.102 615.033 426.907 612.29 426.424 611.694 425.91 611.125 425.368 610.582 423.738 608.943 421.833 607.602 419.739 606.623 418.026 605.768 416.21 605.138 414.335 604.747L413.266 604.559C407.58 603.497 401.723 605.133 397.41 608.987 393.829 612.242 391.147 616.365 389.624 620.959 388.833 623.116 388.206 625.33 387.747 627.582 387.667 627.935 387.604 628.292 387.56 628.652 386.887 632.149 386.691 635.722 386.978 639.272 387.229 642.461 388.083 645.575 389.492 648.447 392.169 653.998 397.388 657.893 403.471 658.88 407.643 659.783 411.991 659.41 415.949 657.81 419.914 656.162 423.326 653.415 425.781 649.892L466.648 658.035C463.274 666.979 457.91 675.038 450.961 681.602 444.198 687.887 435.935 692.331 426.963 694.511 417.137 696.862 406.907 696.965 397.035 694.812 385.639 692.821 374.975 687.842 366.132 680.383 358.634 673.874 353.061 665.439 350.014 655.99 349.789 655.296 349.564 654.583 349.357 653.87 348.727 651.692 348.22 649.481 347.837 647.246 347.5 645.37 347.256 643.493 347.087 641.617 346.505 634.315 346.966 626.967 348.457 619.795 350.508 608.424 355.293 597.722 362.398 588.61 369.007 580.228 377.923 573.96 388.047 570.579 399.077 567.088 410.834 566.583 422.122 569.115 429.525 570.516 436.657 573.087 443.25 576.733 444.92 577.671 446.533 578.609 448.091 579.754L449.648 580.88C451.524 582.281 453.315 583.791 455.014 585.402 459.983 590.132 464.001 595.769 466.854 602.007 470.753 610.737 472.614 620.24 472.295 629.796Z" stroke="#1D1D1B" stroke-width="0.938174" stroke-linecap="butt" stroke-linejoin="miter" stroke-miterlimit="10" stroke-opacity="1" fill="#E5F601" fill-rule="nonzero" fill-opacity="1" transform="matrix(1.0015 0 0 1 -819.739 708)"/><path d="M260.456 587.128C252.5 587.241 246.421 589.849 242.218 594.952 238.015 600.056 235.976 606.936 236.101 615.592 236.213 624.123 238.44 630.884 242.781 635.876 247.121 640.867 253.269 643.306 261.225 643.193 269.068 643.081 275.085 640.473 279.276 635.369 283.497 630.265 285.524 623.454 285.411 614.898 285.299 606.342 283.066 599.418 278.713 594.427 274.36 589.436 268.318 587.015 260.456 587.128Z" stroke="#1D1D1B" stroke-width="0.938174" stroke-linecap="butt" stroke-linejoin="miter" stroke-miterlimit="10" stroke-opacity="1" fill="#E5F601" fill-rule="nonzero" fill-opacity="1" transform="matrix(1.0015 0 0 1 -819.739 708)"/></g></g></g></g></svg>