<svg width="1608" height="1609" xmlns="http://www.w3.org/2000/svg" xmlns:xlink="http://www.w3.org/1999/xlink" overflow="hidden"><defs><clipPath id="clip0"><rect x="1384" y="476" width="1608" height="1609"/></clipPath><clipPath id="clip1"><rect x="1710" y="573" width="958" height="1321"/></clipPath><clipPath id="clip2"><rect x="1710" y="573" width="958" height="1321"/></clipPath><clipPath id="clip3"><rect x="1710" y="573" width="958" height="1321"/></clipPath></defs><g clip-path="url(#clip0)" transform="translate(-1384 -476)"><path d="M1386 1282C1386 838.515 1745.52 479 2189 479 2632.48 479 2992 838.515 2992 1282 2992 1725.48 2632.48 2085 2189 2085 1745.52 2085 1386 1725.48 1386 1282Z" fill="#000000" fill-rule="evenodd" fill-opacity="1"/><g clip-path="url(#clip1)"><g clip-path="url(#clip2)"><g clip-path="url(#clip3)"><path d="M489.147 121.884C504.626 121.884 517.174 109.336 517.174 93.8569 517.174 78.3782 504.626 65.8302 489.147 65.8302 473.668 65.8302 461.12 78.3782 461.12 93.8569 461.12 109.336 473.668 121.884 489.147 121.884Z" stroke="#1D1D1B" stroke-width="1.71522" stroke-linecap="butt" stroke-linejoin="miter" stroke-miterlimit="10" stroke-opacity="1" fill="#E5F601" fill-rule="nonzero" fill-opacity="1" transform="matrix(1.00149 0 0 1 1710.48 573)"/><path d="M489.147 265.002C489.147 265.002 554.634 129.465 489.147 129.465 423.66 129.465 489.147 265.002 489.147 265.002Z" stroke="#1D1D1B" stroke-width="1.71522" stroke-linecap="butt" stroke-linejoin="miter" stroke-miterlimit="10" stroke-opacity="1" fill="#E5F601" fill-rule="nonzero" fill-opacity="1" transform="matrix(1.00149 0 0 1 1710.48 573)"/><path d="M349.391 288.363C349.391 288.363 297.316 248.227 288.809 219.548 281.948 196.633 316.253 189.36 330.455 187.336 345.754 210.286 375.908 239.479 434.397 268.741 434.397 268.741 372.649 199.96 368.189 157.938 363.73 115.915 442.527 124.422 442.527 124.422 442.527 124.422 410.281 87.442 367.4 91.9702 324.52 96.4983 313.68 133.135 315.464 150.288 316.881 160.775 320.43 170.862 325.892 179.927 315.258 174.369 297.9 168.126 279.753 173.477 258.74 178.684 245.87 199.874 250.937 220.921 254.848 234.059 273.509 266.374 349.391 288.363Z" stroke="#1D1D1B" stroke-width="1.71522" stroke-linecap="butt" stroke-linejoin="miter" stroke-miterlimit="10" stroke-opacity="1" fill="#E5F601" fill-rule="nonzero" fill-opacity="1" transform="matrix(1.00149 0 0 1 1710.48 573)"/><path d="M610.173 157.8C605.748 199.823 543.965 268.604 543.965 268.604 602.454 239.342 632.574 210.286 647.908 187.199 662.075 189.258 696.38 196.564 689.519 219.548 681.046 248.33 628.972 288.466 628.972 288.466 704.784 266.374 723.446 234.059 727.254 220.921 732.361 199.868 719.474 178.651 698.438 173.477 680.325 168.126 663.036 174.335 652.402 179.858 657.868 170.802 661.439 160.73 662.899 150.253 664.683 133.273 653.774 96.4641 610.927 91.9359 568.081 87.4077 535.801 124.388 535.801 124.388 535.801 124.388 614.598 115.846 610.173 157.8Z" stroke="#1D1D1B" stroke-width="1.71522" stroke-linecap="butt" stroke-linejoin="miter" stroke-miterlimit="10" stroke-opacity="1" fill="#E5F601" fill-rule="nonzero" fill-opacity="1" transform="matrix(1.00149 0 0 1 1710.48 573)"/><path d="M479.404 56.911 498.821 56.911 495.356 35.1277 517.174 38.6268 517.174 19.1762 495.356 22.6752 498.821 0.857611 479.404 0.857611 482.903 22.6752 461.12 19.1762 461.12 38.6268 482.903 35.1277 479.404 56.911Z" stroke="#1D1D1B" stroke-width="1.71522" stroke-linecap="butt" stroke-linejoin="miter" stroke-miterlimit="10" stroke-opacity="1" fill="#E5F601" fill-rule="nonzero" fill-opacity="1" transform="matrix(1.00149 0 0 1 1710.48 573)"/><path d="M788.796 799.019 925.636 799.019C925.842 796.857 926.082 794.696 926.254 792.501L789.722 792.501Z" stroke="#1D1D1B" stroke-width="1.71522" stroke-linecap="butt" stroke-linejoin="miter" stroke-miterlimit="10" stroke-opacity="1" fill="#E5F601" fill-rule="nonzero" fill-opacity="1" transform="matrix(1.00149 0 0 1 1710.48 573)"/><path d="M920.559 833.598 781.42 833.598C780.426 837.302 779.328 840.973 778.196 844.644L918.364 844.644C919.118 841.11 919.873 837.44 920.559 833.598Z" stroke="#1D1D1B" stroke-width="1.71522" stroke-linecap="butt" stroke-linejoin="miter" stroke-miterlimit="10" stroke-opacity="1" fill="#E5F601" fill-rule="nonzero" fill-opacity="1" transform="matrix(1.00149 0 0 1 1710.48 573)"/><path d="M915.379 857.782 773.805 857.782C772.124 862.448 770.375 867.079 768.419 871.504L911.777 871.504C913.047 867.044 914.247 862.413 915.379 857.782Z" stroke="#1D1D1B" stroke-width="1.71522" stroke-linecap="butt" stroke-linejoin="miter" stroke-miterlimit="10" stroke-opacity="1" fill="#E5F601" fill-rule="nonzero" fill-opacity="1" transform="matrix(1.00149 0 0 1 1710.48 573)"/><path d="M790.786 783.307 927.009 783.307C927.009 781.009 927.317 778.676 927.454 776.446L791.437 776.446C791.232 778.71 791.026 781.009 790.786 783.307Z" stroke="#1D1D1B" stroke-width="1.71522" stroke-linecap="butt" stroke-linejoin="miter" stroke-miterlimit="10" stroke-opacity="1" fill="#E5F601" fill-rule="nonzero" fill-opacity="1" transform="matrix(1.00149 0 0 1 1710.48 573)"/><path d="M784.645 820.733 922.789 820.733C923.235 817.818 923.647 814.936 924.058 812.02L786.498 812.02C785.914 814.936 785.331 817.852 784.645 820.733Z" stroke="#1D1D1B" stroke-width="1.71522" stroke-linecap="butt" stroke-linejoin="miter" stroke-miterlimit="10" stroke-opacity="1" fill="#E5F601" fill-rule="nonzero" fill-opacity="1" transform="matrix(1.00149 0 0 1 1710.48 573)"/><path d="M35.0591 833.598C35.7452 837.302 36.4999 840.973 37.2546 844.644L177.423 844.644C176.29 840.973 175.193 837.302 174.198 833.598Z" stroke="#1D1D1B" stroke-width="1.71522" stroke-linecap="butt" stroke-linejoin="miter" stroke-miterlimit="10" stroke-opacity="1" fill="#E5F601" fill-rule="nonzero" fill-opacity="1" transform="matrix(1.00149 0 0 1 1710.48 573)"/><path d="M165.896 792.432 29.3646 792.432C29.3646 794.628 29.7762 796.789 29.9821 798.95L166.822 798.95Z" stroke="#1D1D1B" stroke-width="1.71522" stroke-linecap="butt" stroke-linejoin="miter" stroke-miterlimit="10" stroke-opacity="1" fill="#E5F601" fill-rule="nonzero" fill-opacity="1" transform="matrix(1.00149 0 0 1 1710.48 573)"/><path d="M164.181 776.378 28.1639 776.378C28.1639 778.676 28.4384 781.009 28.6099 783.239L164.833 783.239C164.661 781.009 164.387 778.71 164.181 776.378Z" stroke="#1D1D1B" stroke-width="1.71522" stroke-linecap="butt" stroke-linejoin="miter" stroke-miterlimit="10" stroke-opacity="1" fill="#E5F601" fill-rule="nonzero" fill-opacity="1" transform="matrix(1.00149 0 0 1 1710.48 573)"/><path d="M43.8411 871.641 187.165 871.641C185.278 867.079 183.494 862.448 181.779 857.919L40.2391 857.919C41.3711 862.413 42.5718 867.044 43.8411 871.641Z" stroke="#1D1D1B" stroke-width="1.71522" stroke-linecap="butt" stroke-linejoin="miter" stroke-miterlimit="10" stroke-opacity="1" fill="#E5F601" fill-rule="nonzero" fill-opacity="1" transform="matrix(1.00149 0 0 1 1710.48 573)"/><path d="M169.121 812.02 31.5601 812.02C31.9717 814.936 32.3834 817.818 32.8293 820.733L170.973 820.733C170.287 817.852 169.67 814.936 169.121 812.02Z" stroke="#1D1D1B" stroke-width="1.71522" stroke-linecap="butt" stroke-linejoin="miter" stroke-miterlimit="10" stroke-opacity="1" fill="#E5F601" fill-rule="nonzero" fill-opacity="1" transform="matrix(1.00149 0 0 1 1710.48 573)"/><path d="M79.7578 692.744 125.177 700.153 127.475 686.02 82.0562 678.61 85.075 660.12 72.9655 658.165 64.6295 709.347 76.7047 711.302 79.7578 692.744Z" stroke="#1D1D1B" stroke-width="1.71522" stroke-linecap="butt" stroke-linejoin="miter" stroke-miterlimit="10" stroke-opacity="1" fill="#E5F601" fill-rule="nonzero" fill-opacity="1" transform="matrix(1.00149 0 0 1 1710.48 573)"/><path d="M136.291 648.8 114.44 641.458 121.918 619.126 143.804 626.433 148.332 612.849 93.0679 594.358 88.5397 607.943 110.014 615.113 102.502 637.479 81.0271 630.275 76.4989 643.86 131.763 662.384 136.291 648.8Z" stroke="#1D1D1B" stroke-width="1.71522" stroke-linecap="butt" stroke-linejoin="miter" stroke-miterlimit="10" stroke-opacity="1" fill="#E5F601" fill-rule="nonzero" fill-opacity="1" transform="matrix(1.00149 0 0 1 1710.48 573)"/><path d="M173.272 564.685 162.637 559.094 148.641 585.714 138.384 580.294 148.161 561.735 137.869 556.315 128.093 574.874 118.282 569.694 132.141 543.416 121.541 537.825 100.992 576.795 152.586 603.964 173.272 564.685Z" stroke="#1D1D1B" stroke-width="1.71522" stroke-linecap="butt" stroke-linejoin="miter" stroke-miterlimit="10" stroke-opacity="1" fill="#E5F601" fill-rule="nonzero" fill-opacity="1" transform="matrix(1.00149 0 0 1 1710.48 573)"/><path d="M199.549 498.203C200.225 500.861 200.33 503.632 199.858 506.333 199.436 508.867 198.333 511.239 196.667 513.194 195.275 514.94 193.534 516.377 191.556 517.414 189.671 518.395 187.604 518.978 185.484 519.129 183.315 519.289 181.135 519.02 179.069 518.34 176.844 517.595 174.783 516.43 172.997 514.909 171.18 513.424 169.646 511.623 168.469 509.592 167.364 507.73 166.641 505.666 166.342 503.52 166.068 501.455 166.208 499.356 166.754 497.345 168.096 492.652 171.544 488.849 176.085 487.054 178.81 486.032 181.721 485.599 184.626 485.785L183.7 472.509C179.247 472.341 174.82 473.259 170.802 475.185 166.579 477.129 162.85 480.002 159.893 483.59 157.234 486.781 155.229 490.464 153.993 494.43 152.834 498.155 152.391 502.066 152.689 505.956 153.074 509.843 154.241 513.612 156.119 517.036 159.942 524.31 166.532 529.738 174.404 532.096 178.108 533.178 181.986 533.539 185.827 533.159 189.706 532.736 193.468 531.572 196.907 529.729 200.57 527.731 203.809 525.039 206.444 521.805 209.305 518.29 211.334 514.174 212.379 509.764 213.455 505.516 213.526 501.076 212.585 496.797Z" stroke="#1D1D1B" stroke-width="1.71522" stroke-linecap="butt" stroke-linejoin="miter" stroke-miterlimit="10" stroke-opacity="1" fill="#E5F601" fill-rule="nonzero" fill-opacity="1" transform="matrix(1.00149 0 0 1 1710.48 573)"/><path d="M248.433 439.783C245.803 436.714 242.583 434.206 238.965 432.407 235.512 430.66 231.744 429.622 227.884 429.354 224.032 429.073 220.163 429.551 216.495 430.761 208.719 433.373 202.285 438.944 198.588 446.266 196.846 449.723 195.797 453.487 195.501 457.347 195.263 461.214 195.763 465.09 196.976 468.77 198.253 472.567 200.283 476.067 202.945 479.061 208.158 485.127 215.555 488.887 223.528 489.524 240.115 490.775 254.575 478.342 255.826 461.754 256.124 457.805 255.64 453.836 254.402 450.074 253.112 446.283 251.083 442.785 248.433 439.783ZM240.714 467.604C239.86 469.533 238.582 471.245 236.975 472.612 235.4 473.999 233.537 475.018 231.521 475.597 229.545 476.137 227.482 476.289 225.449 476.043 223.337 475.736 221.301 475.038 219.445 473.984 217.403 472.839 215.58 471.341 214.06 469.559 212.589 467.776 211.429 465.758 210.629 463.59 209.836 461.605 209.439 459.484 209.463 457.347 209.468 455.298 209.913 453.274 210.766 451.412 212.518 447.541 215.878 444.632 219.96 443.453 221.921 442.896 223.976 442.744 225.998 443.007 228.124 443.298 230.174 443.996 232.035 445.066 233.998 446.198 235.75 447.66 237.215 449.388 238.759 451.143 239.989 453.15 240.851 455.323 241.63 457.324 242.025 459.453 242.018 461.6 242.009 463.671 241.565 465.716 240.714 467.604Z" stroke="#1D1D1B" stroke-width="1.71522" stroke-linecap="butt" stroke-linejoin="miter" stroke-miterlimit="10" stroke-opacity="1" fill="#E5F601" fill-rule="nonzero" fill-opacity="1" transform="matrix(1.00149 0 0 1 1710.48 573)"/><path d="M257.484 401.673 271.848 401.673 271.848 460.056 257.484 460.056Z" stroke="#1D1D1B" stroke-width="1.71816" stroke-linecap="butt" stroke-linejoin="miter" stroke-miterlimit="10" stroke-opacity="1" fill="#E5F601" fill-rule="nonzero" fill-opacity="1" transform="matrix(0.829815 -0.559041 0.559875 0.828578 1515.85 792)"/><path d="M303.663 374.467 319.717 405.89 280.747 385.959 268.672 391.997 294.812 444.105 306.853 438.033 290.284 405.547 330.523 426.164 341.844 420.504 315.704 368.395 303.663 374.467Z" stroke="#1D1D1B" stroke-width="1.71522" stroke-linecap="butt" stroke-linejoin="miter" stroke-miterlimit="10" stroke-opacity="1" fill="#E5F601" fill-rule="nonzero" fill-opacity="1" transform="matrix(1.00149 0 0 1 1710.48 573)"/><path d="M411.893 358.241C409.622 355.105 406.754 352.447 403.454 350.42 400.176 348.392 396.525 347.039 392.717 346.44 388.713 345.779 384.615 345.943 380.676 346.921 376.705 347.848 372.961 349.563 369.664 351.963 366.537 354.232 363.881 357.086 361.843 360.368 359.825 363.673 358.484 367.346 357.898 371.174 357.236 375.167 357.399 379.253 358.378 383.18 362.361 399.311 378.667 409.16 394.798 405.177 410.929 401.194 420.777 384.888 416.794 368.757 415.858 364.967 414.194 361.395 411.893 358.241ZM402.974 379.544C402.738 381.676 402.11 383.747 401.122 385.65 400.153 387.448 398.835 389.034 397.245 390.316 395.592 391.622 393.671 392.548 391.619 393.026 389.575 393.488 387.454 393.488 385.41 393.026 383.404 392.626 381.502 391.821 379.819 390.659 378.081 389.414 376.592 387.854 375.428 386.062 374.163 384.091 373.236 381.923 372.683 379.647 372.141 377.403 371.99 375.082 372.237 372.786 372.441 370.663 373.059 368.6 374.055 366.714 375.016 364.901 376.349 363.312 377.966 362.049 381.299 359.429 385.606 358.39 389.767 359.202 391.772 359.621 393.673 360.438 395.359 361.603 397.105 362.837 398.596 364.398 399.749 366.2 401.04 368.157 401.97 370.33 402.494 372.615 403.059 374.878 403.222 377.224 402.974 379.544Z" stroke="#1D1D1B" stroke-width="1.71522" stroke-linecap="butt" stroke-linejoin="miter" stroke-miterlimit="10" stroke-opacity="1" fill="#E5F601" fill-rule="nonzero" fill-opacity="1" transform="matrix(1.00149 0 0 1 1710.48 573)"/><path d="M471.823 335.806 427.57 338.893 431.618 397.039 445.923 396.045 444.311 372.958 465.237 371.483 464.413 359.853 443.488 361.329 442.664 349.837 472.681 347.744 471.823 335.806Z" stroke="#1D1D1B" stroke-width="1.71522" stroke-linecap="butt" stroke-linejoin="miter" stroke-miterlimit="10" stroke-opacity="1" fill="#E5F601" fill-rule="nonzero" fill-opacity="1" transform="matrix(1.00149 0 0 1 1710.48 573)"/><path d="M539.197 385.719C536.845 386.651 534.293 386.958 531.787 386.611 529.568 386.33 527.431 385.594 525.509 384.45 523.679 383.382 522.09 381.945 520.844 380.23 519.561 378.474 518.64 376.48 518.134 374.364 517.596 372.118 517.48 369.792 517.791 367.503 518.08 365.177 518.789 362.922 519.884 360.848 520.897 358.933 522.271 357.232 523.931 355.84 525.536 354.512 527.391 353.521 529.386 352.924 531.475 352.298 533.676 352.134 535.835 352.444 538.48 352.773 540.997 353.777 543.142 355.36 545.438 357.138 547.332 359.383 548.699 361.946L559.471 354.159C557.287 350.28 554.175 347.004 550.414 344.622 546.553 341.991 542.141 340.278 537.516 339.614 533.403 339.055 529.221 339.299 525.201 340.334 521.36 341.339 517.75 343.074 514.566 345.446 511.457 347.761 508.844 350.677 506.882 354.022 502.756 361.127 501.633 369.584 503.76 377.52 504.768 381.261 506.518 384.761 508.906 387.812 511.325 390.877 514.32 393.441 517.722 395.358 521.335 397.426 525.323 398.756 529.454 399.269 533.957 399.883 538.541 399.425 542.833 397.931 547.018 396.613 550.836 394.334 553.982 391.276L545.818 381.191C543.952 383.147 541.696 384.69 539.197 385.719Z" stroke="#1D1D1B" stroke-width="1.71522" stroke-linecap="butt" stroke-linejoin="miter" stroke-miterlimit="10" stroke-opacity="1" fill="#E5F601" fill-rule="nonzero" fill-opacity="1" transform="matrix(1.00149 0 0 1 1710.48 573)"/><path d="M611.648 358.344 604.959 379.956 582.455 372.992 589.144 351.346 575.457 347.126 558.236 402.803 571.923 407.056 578.75 384.999 601.254 391.997 594.427 414.02 608.115 418.24 625.335 362.563 611.648 358.344Z" stroke="#1D1D1B" stroke-width="1.71522" stroke-linecap="butt" stroke-linejoin="miter" stroke-miterlimit="10" stroke-opacity="1" fill="#E5F601" fill-rule="nonzero" fill-opacity="1" transform="matrix(1.00149 0 0 1 1710.48 573)"/><path d="M658.268 377.555 611.579 419.234 624.889 426.095 635.558 415.804 654.563 425.478 652.573 440.057 666.295 447.09 672.744 384.964ZM656.175 413.883 644.066 407.708 658.885 393.575Z" stroke="#1D1D1B" stroke-width="1.71522" stroke-linecap="butt" stroke-linejoin="miter" stroke-miterlimit="10" stroke-opacity="1" fill="#E5F601" fill-rule="nonzero" fill-opacity="1" transform="matrix(1.00149 0 0 1 1710.48 573)"/><path d="M741.867 431.104 713.704 444.688 719.638 413.952 705.402 402.974 669.794 449.114 680.188 457.141 704.579 425.581 697.581 465.305 733.978 448.668 709.793 479.988 720.496 488.221 756.104 442.081 741.867 431.104Z" stroke="#1D1D1B" stroke-width="1.71522" stroke-linecap="butt" stroke-linejoin="miter" stroke-miterlimit="10" stroke-opacity="1" fill="#E5F601" fill-rule="nonzero" fill-opacity="1" transform="matrix(1.00149 0 0 1 1710.48 573)"/><path d="M775.863 511.136C778.298 511.367 780.754 511.075 783.067 510.278 785.457 509.43 787.659 508.125 789.551 506.436 791.526 504.688 793.135 502.566 794.285 500.193 795.398 497.977 795.996 495.537 796.034 493.057 796.086 490.49 795.631 487.937 794.696 485.545 793.642 482.857 792.095 480.391 790.134 478.272L771.129 457.072 727.734 495.973 737.271 506.642 752.433 492.92 761.867 503.486C763.805 505.668 766.131 507.471 768.728 508.803 770.939 510.02 773.36 510.812 775.863 511.136ZM760.906 485.442 771.884 475.631 779.671 484.31C781.348 485.934 782.321 488.151 782.381 490.485 782.305 492.45 781.424 494.299 779.945 495.596 778.495 496.954 776.54 497.639 774.56 497.483 772.202 497.179 770.065 495.944 768.625 494.052Z" stroke="#1D1D1B" stroke-width="1.71522" stroke-linecap="butt" stroke-linejoin="miter" stroke-miterlimit="10" stroke-opacity="1" fill="#E5F601" fill-rule="nonzero" fill-opacity="1" transform="matrix(1.00149 0 0 1 1710.48 573)"/><path d="M763.551 521.344 821.863 521.344 821.863 535.69 763.551 535.69Z" stroke="#1D1D1B" stroke-width="1.71608" stroke-linecap="butt" stroke-linejoin="miter" stroke-miterlimit="10" stroke-opacity="1" fill="#E5F601" fill-rule="nonzero" fill-opacity="1" transform="matrix(0.816646 -0.577997 0.57886 0.815428 1550.69 1128.49)"/><path d="M815.107 539.403C811.087 539.771 807.18 540.937 803.615 542.833 800.035 544.719 796.873 547.31 794.319 550.449 789.357 556.486 787 564.249 787.767 572.026 788.597 580.191 792.616 587.699 798.95 592.918 801.926 595.357 805.353 597.187 809.036 598.304 812.745 599.423 816.637 599.807 820.493 599.436 824.515 599.072 828.422 597.906 831.985 596.005 835.557 594.106 838.717 591.518 841.282 588.39 848.905 579.003 850.11 565.944 844.335 555.32 842.454 551.707 839.85 548.519 836.685 545.955 833.653 543.469 830.154 541.614 826.394 540.501 822.737 539.415 818.905 539.042 815.107 539.403ZM823.546 553.914C825.535 554.399 827.403 555.286 829.035 556.521 832.389 559.104 834.475 563 834.764 567.224 834.874 569.267 834.559 571.311 833.838 573.227 833.061 575.241 831.896 577.083 830.407 578.647 828.835 580.378 826.978 581.828 824.919 582.935 822.857 584.048 820.616 584.791 818.298 585.131 816.186 585.451 814.033 585.37 811.951 584.89 809.965 584.417 808.097 583.542 806.463 582.318 804.78 581.059 803.397 579.442 802.415 577.584 801.41 575.734 800.836 573.682 800.734 571.58 800.596 569.538 800.9 567.491 801.626 565.577 802.402 563.562 803.568 561.721 805.056 560.157 808.261 556.712 812.522 554.431 817.166 553.673 819.289 553.353 821.453 553.435 823.546 553.914Z" stroke="#1D1D1B" stroke-width="1.71522" stroke-linecap="butt" stroke-linejoin="miter" stroke-miterlimit="10" stroke-opacity="1" fill="#E5F601" fill-rule="nonzero" fill-opacity="1" transform="matrix(1.00149 0 0 1 1710.48 573)"/><path d="M813.118 629.829 847.765 618.44 821.179 655.043 825.056 667.084 880.56 649.314 876.444 636.45 842.894 647.462 868.622 612.025 864.506 599.195 809.001 616.965 813.118 629.829Z" stroke="#1D1D1B" stroke-width="1.71522" stroke-linecap="butt" stroke-linejoin="miter" stroke-miterlimit="10" stroke-opacity="1" fill="#E5F601" fill-rule="nonzero" fill-opacity="1" transform="matrix(1.00149 0 0 1 1710.48 573)"/><path d="M866.873 668.593C863.15 669.016 859.734 670.859 857.336 673.739 854.862 676.979 853.535 680.949 853.563 685.025L853.22 697.615C853.257 699.753 852.824 701.872 851.95 703.824 851.181 705.128 849.823 705.973 848.314 706.088 846.502 706.333 844.7 705.57 843.615 704.098 842.077 702.112 841.126 699.736 840.87 697.237 840.455 694.318 840.618 691.346 841.35 688.49 842.401 684.641 843.885 680.923 845.776 677.409L834.215 671.715C832.033 675.753 830.45 680.086 829.515 684.579 828.628 688.985 828.511 693.512 829.172 697.958 829.807 704.411 832.613 710.458 837.131 715.11 840.953 718.926 846.382 720.663 851.71 719.775 855.738 719.319 859.399 717.222 861.83 713.978 864.391 710.097 865.696 705.522 865.569 700.874L865.844 689.073C865.754 687.251 866.119 685.435 866.907 683.79 867.589 682.663 868.755 681.916 870.063 681.766 871.677 681.587 873.269 682.248 874.283 683.516 875.722 685.316 876.604 687.498 876.821 689.793 877.262 692.782 877.169 695.825 876.547 698.781 875.846 701.982 874.691 705.067 873.116 707.94L884.368 713.532C886.365 709.955 887.712 706.053 888.347 702.006 889.034 697.619 889.034 693.151 888.347 688.764 887.807 682.7 885.176 677.013 880.903 672.675 877.13 669.181 871.932 667.669 866.873 668.593Z" stroke="#1D1D1B" stroke-width="1.71522" stroke-linecap="butt" stroke-linejoin="miter" stroke-miterlimit="10" stroke-opacity="1" fill="#E5F601" fill-rule="nonzero" fill-opacity="1" transform="matrix(1.00149 0 0 1 1710.48 573)"/><path d="M710.102 719.604C710.342 753.6 706.191 798.504 699.193 854.626 709.724 829.618 716.242 736.688 710.102 719.604Z" stroke="#1D1D1B" stroke-width="1.71522" stroke-linecap="butt" stroke-linejoin="miter" stroke-miterlimit="10" stroke-opacity="1" fill="#E5F601" fill-rule="nonzero" fill-opacity="1" transform="matrix(1.00149 0 0 1 1710.48 573)"/><path d="M292.137 795.451C285.687 796.171 240.68 791.815 224.625 779.122 234.574 796.755 291.862 799.499 292.137 795.451Z" stroke="#1D1D1B" stroke-width="1.71522" stroke-linecap="butt" stroke-linejoin="miter" stroke-miterlimit="10" stroke-opacity="1" fill="#E5F601" fill-rule="nonzero" fill-opacity="1" transform="matrix(1.00149 0 0 1 1710.48 573)"/><path d="M888.485 1084.71C880.908 1068.05 870.032 1053.1 856.513 1040.76 1016.54 831.611 976.709 532.336 767.558 372.313 558.406 212.291 259.132 252.117 99.1091 461.268-33.1336 634.111-31.5684 874.561 102.913 1045.67 102.193 1046.25 101.472 1046.9 100.752 1047.55 80.861 1065.62 66.6638 1089.09 59.8955 1115.1 46.9962 1168.74 59.496 1225.33 93.7883 1268.54 110.902 1289.27 133.682 1304.56 159.344 1312.56 173.57 1316.98 188.39 1319.2 203.288 1319.14 216.145 1319.09 228.959 1317.64 241.503 1314.82 265.18 1309.9 287.452 1299.74 306.682 1285.08 325.179 1270.84 339.747 1252.13 349.013 1230.71 350.214 1227.89 351.346 1225.01 352.444 1222.1 365.39 1238.78 381.663 1252.58 400.23 1262.64 423.68 1275.38 449.973 1281.98 476.66 1281.82L479.096 1281.82C506.502 1281.62 533.381 1274.26 557.07 1260.48 576.088 1249.49 592.478 1234.48 605.096 1216.5 613.1 1238.31 626.48 1257.74 643.997 1273 665.233 1291.09 690.883 1303.22 718.335 1308.16 729.754 1310.45 741.371 1311.6 753.016 1311.6 765.47 1311.62 777.879 1310.11 789.962 1307.1 812.676 1301.57 833.6 1290.33 850.75 1274.44 867.682 1258.51 880.783 1238.95 889.068 1217.22 889.068 1217.22 902.995 1181.75 902.001 1152.29 901.006 1122.82 897.85 1105.29 888.485 1084.71ZM322.667 1173.69C322.667 1177.31 322.427 1180.84 321.947 1184.29 321.387 1189.81 320.412 1195.28 319.031 1200.65 317.699 1205.73 315.991 1210.69 313.92 1215.51 307.216 1231 296.658 1244.53 283.252 1254.79 268.496 1265.95 251.41 1273.63 233.27 1277.26 212.75 1282.33 191.25 1281.86 170.973 1275.88 152.36 1270.08 135.854 1258.96 123.496 1243.88 97.1477 1210.37 87.4204 1166.71 97.0472 1125.19 101.91 1106.27 112.215 1089.21 126.686 1076.1L127.921 1075.03C132.025 1071.39 136.419 1068.08 141.06 1065.15 143.976 1063.3 147.029 1061.55 150.219 1059.94 160.498 1054.79 171.392 1050.98 182.637 1048.58 200.586 1044.27 219.276 1044.06 237.318 1047.97 253.803 1051.64 269.079 1059.46 281.708 1070.68 294.652 1082.4 304.753 1096.93 311.244 1113.14L236.872 1129.61C232.252 1123.25 225.907 1118.35 218.588 1115.48 215.948 1114.45 213.196 1113.73 210.389 1113.35 205.506 1112.7 200.547 1112.92 195.741 1114L194.746 1114.24C188.788 1115.57 183.264 1118.4 178.692 1122.44 175.263 1125.57 172.508 1129.36 170.596 1133.59 165.656 1144 164.821 1156.68 168.092 1171.63 171.362 1186.59 177.445 1197.8 186.342 1205.25 194.899 1212.59 206.518 1215.26 217.421 1212.39 225.067 1210.83 232.069 1207.02 237.524 1201.44 242.966 1195.74 246.657 1188.6 248.158 1180.86L264.213 1177.43 290.284 1171.67 307.436 1167.89 322.565 1164.46C322.77 1167.59 322.77 1170.64 322.667 1173.69ZM580.122 1184.29C578.956 1186.35 577.755 1188.34 576.486 1190.3 573.729 1194.61 570.68 1198.74 567.361 1202.64L567.361 1202.64C560.667 1210.54 552.909 1217.47 544.308 1223.23 542.216 1224.63 540.055 1225.97 537.825 1227.28 501.014 1248.18 456.072 1248.81 418.685 1228.96 415.255 1227.04 411.825 1225.01 408.6 1222.82 400.091 1217.03 392.415 1210.1 385.788 1202.23 382.445 1198.29 379.374 1194.13 376.594 1189.78 376.045 1188.96 375.496 1188.1 374.982 1187.24 349.009 1144.58 352.222 1090.29 383.043 1050.98 386.239 1046.89 389.736 1043.03 393.506 1039.46L394.192 1038.77C399.007 1034.22 404.219 1030.11 409.766 1026.49 411.722 1025.19 413.746 1023.95 415.804 1022.75 419.506 1020.61 423.332 1018.68 427.262 1016.99 428.256 1016.51 429.286 1016.1 430.28 1015.69 431.275 1015.27 432.339 1014.86 433.402 1014.45 446.843 1009.51 461.036 1006.92 475.356 1006.8 488.636 1006.48 501.878 1008.32 514.566 1012.25L517.139 1013.11 517.654 1013.28C519.987 1014.07 522.319 1014.97 524.515 1015.93 525.818 1016.47 527.122 1017.02 528.391 1017.64 530.655 1018.67 532.919 1019.8 535.252 1021.07 538.682 1022.89 541.907 1024.88 545.029 1026.97 550.478 1030.67 555.597 1034.84 560.329 1039.42L561.015 1040.11C564.624 1043.68 567.982 1047.5 571.066 1051.53 573.807 1055.08 576.339 1058.78 578.647 1062.61 600.221 1100.17 600.869 1146.21 580.362 1184.36ZM361.466 977.47C356.354 983.268 336.767 976.167 320.095 968.551 269.126 931.709 232.58 878.267 216.735 817.406L216.735 817.406C217.958 804.406 220.603 791.579 224.625 779.156 213.168 768.865 214.334 714.973 216.049 684.888 222.873 657.336 234.023 631.041 249.084 606.982 259.756 595.106 271.504 584.242 284.178 574.53 297.81 572.36 311.553 570.963 325.343 570.345 338.619 570.654 348.807 572.507 351.037 574.702 355.394 578.921 347.607 649.074 359.991 684.716 350.728 658.371 354.742 578.956 358.55 569.694 361.672 562.112 404.861 529.283 458.033 504.515 485.236 505.613 535.869 522.148 586.571 546.984 597.011 582.123 603.275 618.37 605.233 654.974 605.233 654.974 537.482 712.915 495.459 735.35 520.81 729.346 611.408 659.537 611.408 659.537 611.408 659.537 673.705 690.411 710.067 719.638 710.067 719.638 710.685 718.403 711.714 716.208 717.203 704.51 732.297 666.158 725.093 645.472L729.552 650.721C759.171 725.718 753.685 810.034 714.595 880.56 711.371 873.459 703.995 858.228 699.159 854.763 698.678 855.449 698.129 856.136 697.581 856.856 684.922 872.842 651.921 901.28 626.056 917.3 618.457 922.509 610.039 926.405 601.151 928.827L599.813 929.032C572.953 928.484 512.474 901.109 498.443 875.174 501.291 860.972 499.129 804.37 497.346 767.63 496.454 750.135 495.699 737.202 495.596 735.521 483.144 732.571 367.263 686.329 360.128 684.854 358.31 684.476 348.19 698.575 336.115 717.203 336.115 717.203 336.115 717.203 336.115 717.203 317.659 745.847 294.949 784.714 292.205 795.52 291.977 796.251 291.895 797.021 291.965 797.784 293.817 806.943 353.713 900.937 367.435 908.175 360.196 926.906 358.687 973.903 361.466 977.47ZM437.724 482.698C516.415 470.831 596.334 494.278 656.141 546.778L658.028 550.689 657.444 550.449C634.711 541.942 610.083 539.818 586.228 544.308 563.004 528.871 489.284 499.918 458.65 502.491 453.154 494.487 446.022 487.74 437.724 482.698ZM421.464 900.251C413.025 902.241 404.929 903.956 397.451 905.328 404.964 903.922 413.094 902.206 421.464 900.251ZM369.459 910.92C396.902 910.92 463.624 893.493 497.483 878.433 511.788 902.172 567.875 932.36 599.676 928.964 588.835 955.55 578.304 980.42 572.438 994.142 570.929 994.828 569.351 995.48 567.738 996.132 563.115 992.918 558.316 989.963 553.365 987.281 529.967 974.652 503.762 968.128 477.175 968.311L474.705 968.311C447.273 968.492 420.355 975.759 396.559 989.408 393.266 991.306 390.076 993.296 386.988 995.377 374.33 989.168 364.416 982.925 361.466 977.539 362.392 962.171 362.907 935.242 369.459 910.92ZM598.612 1024.64C595.263 1020.5 591.69 1016.55 587.909 1012.8 733.173 952.24 801.835 785.385 741.272 640.121 680.708 494.858 513.853 426.195 368.589 486.759 223.326 547.322 154.663 714.178 215.227 859.441 243.829 928.045 298.103 982.758 366.474 1011.91 362.622 1015.59 358.991 1019.5 355.6 1023.61L355.36 1023.61C204.23 955.712 136.757 778.156 204.654 627.026 272.552 475.897 450.108 408.423 601.238 476.321 752.367 544.218 819.841 721.775 751.943 872.904 721.49 940.69 666.961 994.759 598.921 1024.64ZM599.744 1026.01C752.268 958.919 821.525 780.884 754.432 628.36 687.339 475.836 509.305 406.58 356.781 473.672 204.257 540.765 135.001 718.799 202.093 871.323 232.137 939.623 286.423 994.366 354.468 1024.98 351.427 1028.68 348.576 1032.52 345.926 1036.51 278.662 1005.44 224.493 951.673 192.928 884.643L47.6832 884.643C52.1427 898.982 57.277 913.001 63.0858 926.7 78.8453 963.741 99.4974 998.504 124.491 1030.06 121.506 1031.81 118.625 1033.66 115.812 1035.58-41.4379 835.645-6.83295 546.088 193.104 388.838 393.041 231.589 682.598 266.194 839.848 466.131 969.732 631.273 971.394 863.382 843.889 1030.37 841.145 1028.34 838.332 1026.46 835.45 1024.6 858.576 994.52 877.791 961.622 892.635 926.7 898.444 912.978 903.579 898.959 908.038 884.643L762.656 884.643C730.83 952.28 675.993 1006.4 607.943 1037.33 605.37 1033.39 602.626 1029.65 599.744 1026.01ZM788.727 1136.57C787.325 1130.3 784.509 1124.44 780.494 1119.42 779.611 1118.33 778.672 1117.29 777.681 1116.3 774.702 1113.3 771.219 1110.85 767.39 1109.06 764.258 1107.5 760.937 1106.35 757.51 1105.63L755.555 1105.29C745.16 1103.35 734.452 1106.34 726.568 1113.38 720.02 1119.33 715.116 1126.87 712.331 1135.27 710.887 1139.22 709.74 1143.26 708.901 1147.38 708.753 1148.03 708.639 1148.68 708.558 1149.34 707.328 1155.73 706.97 1162.26 707.495 1168.75 707.954 1174.58 709.514 1180.28 712.091 1185.53 716.986 1195.68 726.526 1202.8 737.648 1204.6 745.276 1206.25 753.225 1205.57 760.461 1202.64 767.71 1199.63 773.947 1194.61 778.436 1188.17L853.151 1203.06C846.984 1219.41 837.177 1234.14 824.473 1246.14 812.106 1257.63 797 1265.76 780.597 1269.74 762.632 1274.04 743.929 1274.23 725.882 1270.29 705.046 1266.65 685.549 1257.55 669.382 1243.91 655.675 1232.01 645.485 1216.59 639.915 1199.32 639.503 1198.05 639.091 1196.74 638.714 1195.44 637.562 1191.46 636.634 1187.42 635.935 1183.33 635.318 1179.9 634.872 1176.47 634.563 1173.04 633.499 1159.69 634.343 1146.26 637.067 1133.14 640.818 1112.35 649.565 1092.79 662.556 1076.13 674.639 1060.8 690.939 1049.35 709.45 1043.16 729.614 1036.78 751.109 1035.86 771.747 1040.49 785.281 1043.05 798.32 1047.75 810.373 1054.42 813.427 1056.13 816.377 1057.85 819.224 1059.94L822.071 1062C825.5 1064.56 828.776 1067.32 831.882 1070.26 840.966 1078.91 848.313 1089.22 853.528 1100.62 860.656 1116.58 864.058 1133.96 863.477 1151.43Z" stroke="#1D1D1B" stroke-width="1.71522" stroke-linecap="butt" stroke-linejoin="miter" stroke-miterlimit="10" stroke-opacity="1" fill="#E5F601" fill-rule="nonzero" fill-opacity="1" transform="matrix(1.00149 0 0 1 1710.48 573)"/><path d="M476.18 1073.42C461.635 1073.63 450.52 1078.39 442.836 1087.72 435.152 1097.06 431.424 1109.63 431.653 1125.46 431.858 1141.06 435.929 1153.42 443.865 1162.54 451.801 1171.67 463.041 1176.13 477.586 1175.92 491.925 1175.72 502.926 1170.95 510.587 1161.62 518.306 1152.29 522.01 1139.83 521.805 1124.19 521.599 1108.55 517.517 1095.89 509.558 1086.76 501.599 1077.64 490.553 1073.21 476.18 1073.42Z" stroke="#1D1D1B" stroke-width="1.71522" stroke-linecap="butt" stroke-linejoin="miter" stroke-miterlimit="10" stroke-opacity="1" fill="#E5F601" fill-rule="nonzero" fill-opacity="1" transform="matrix(1.00149 0 0 1 1710.48 573)"/></g></g></g></g></svg>