<?xml version="1.0" encoding="UTF-8"?>
<!DOCTYPE svg PUBLIC "-//W3C//DTD SVG 1.1//EN" "http://www.w3.org/Graphics/SVG/1.1/DTD/svg11.dtd">
<!-- Creator: CorelDRAW X6 -->
<svg xmlns="http://www.w3.org/2000/svg" xml:space="preserve" width="8.14301in" height="5.64026in" version="1.1" style="shape-rendering:geometricPrecision; text-rendering:geometricPrecision; image-rendering:optimizeQuality; fill-rule:evenodd; clip-rule:evenodd"
viewBox="0 0 8276 5732"
 xmlns:xlink="http://www.w3.org/1999/xlink">
 <defs>
  <style type="text/css">
   <![CDATA[
    .str2 {stroke:black;stroke-width:161.802;stroke-linecap:round;stroke-linejoin:round}
    .str0 {stroke:black;stroke-width:184.917;stroke-linecap:round;stroke-linejoin:round}
    .str3 {stroke:black;stroke-width:231.147;stroke-linecap:round;stroke-linejoin:round}
    .str1 {stroke:#BCCECE;stroke-width:346.722;stroke-linecap:round;stroke-linejoin:round}
    .fil4 {fill:none}
    .fil6 {fill:#F58634}
    .fil3 {fill:#FEFEFE}
    .fil14 {fill:#577979}
    .fil8 {fill:#750200}
    .fil5 {fill:#778786}
    .fil12 {fill:#788A8B}
    .fil2 {fill:#8A9A9B}
    .fil10 {fill:#B72540}
    .fil1 {fill:#BCCCCD}
    .fil7 {fill:#BD2242}
    .fil11 {fill:#FEFDFF}
    .fil9 {fill:#FF4532}
    .fil13 {fill:#FEFEFE;fill-rule:nonzero}
    .fil0 {fill:black;fill-rule:nonzero}
   ]]>
  </style>
   <clipPath id="id0">
    <path d="M3696 4017c426,0 771,345 771,771 0,426 -345,771 -771,771 -426,0 -771,-345 -771,-771 0,-426 345,-771 771,-771z"/>
   </clipPath>
   <clipPath id="id1">
    <path d="M7642 1729l0 506c1,13 1,26 1,39 0,838 -1565,1517 -3496,1517 -1931,0 -3496,-679 -3496,-1517l0 -583c0,-838 1565,-1517 3496,-1517 1931,0 3496,679 3496,1517 0,13 0,26 -1,39zm-3495 -636c1350,0 2491,372 2859,882 -368,510 -1509,882 -2859,882 -1350,0 -2491,-372 -2859,-882 368,-510 1509,-882 2859,-882z"/>
   </clipPath>
   <clipPath id="id2">
    <path d="M4384 2675l-54 -175c-5,-16 -3,-40 -75,-49 -72,-9 -458,-40 -458,-40l-464 651 11 958 544 54 116 -155 -72 -752 453 -492z"/>
   </clipPath>
 </defs>
 <g id="Layer_x0020_1">
  <metadata id="CorelCorpID_0Corel-Layer"/>
  <path class="fil0" d="M3696 3843c261,0 497,106 668,277 171,171 277,407 277,668 0,261 -106,497 -277,668 -171,171 -407,277 -668,277 -261,0 -497,-106 -668,-277 -171,-171 -277,-407 -277,-668 0,-261 106,-497 277,-668 171,-171 407,-277 668,-277z"/>
  <path class="fil1" d="M3696 4017c426,0 771,345 771,771 0,426 -345,771 -771,771 -426,0 -771,-345 -771,-771 0,-426 345,-771 771,-771z"/>
  <g style="clip-path:url(#id0)">
   <g id="_607890192">
    <path id="1" class="fil2" d="M4777 4232l-1715 1653c0,0 1272,59 1454,59 183,0 512,-434 639,-649 127,-215 147,-753 130,-796 -16,-42 -509,-267 -509,-267zm-2354 727l2009 -1389 101 342 -1908 1754 -202 -708z"/>
    <path class="fil3" d="M3696 4017c426,0 771,345 771,771 0,426 -345,771 -771,771 -19,0 -37,-1 -55,-2 400,-28 716,-362 716,-769 0,-407 -316,-741 -716,-769 18,-1 37,-2 55,-2z"/>
   </g>
  </g>
  <path class="fil4" d="M3696 4017c426,0 771,345 771,771 0,426 -345,771 -771,771 -426,0 -771,-345 -771,-771 0,-426 345,-771 771,-771z"/>
  <g>
   <path class="fil4 str0" d="M3571 4059c0,0 -19,358 54,366 73,7 186,-88 149,-476 -37,-388 -203,110 -203,110z"/>
   <path id="1" class="fil5" d="M3571 4059c0,0 -19,358 54,366 73,7 186,-88 149,-476 -37,-388 -203,110 -203,110z"/>
  </g>
  <g>
   <path class="fil4 str0" d="M3500 4041c0,0 -19,358 54,366 73,7 186,-88 149,-476 -37,-388 -203,110 -203,110z"/>
   <path id="1" class="fil5" d="M3500 4041c0,0 -19,358 54,366 73,7 186,-88 149,-476 -37,-388 -203,110 -203,110z"/>
  </g>
  <g>
   <path class="fil4 str1" d="M7642 1729l0 506c1,13 1,26 1,39 0,838 -1565,1517 -3496,1517 -1931,0 -3496,-679 -3496,-1517l0 -583c0,-838 1565,-1517 3496,-1517 1931,0 3496,679 3496,1517 0,13 0,26 -1,39zm-3495 -636c1350,0 2491,372 2859,882 -368,510 -1509,882 -2859,882 -1350,0 -2491,-372 -2859,-882 368,-510 1509,-882 2859,-882z"/>
   <path id="1" class="fil6" d="M7642 1729l0 506c1,13 1,26 1,39 0,838 -1565,1517 -3496,1517 -1931,0 -3496,-679 -3496,-1517l0 -583c0,-838 1565,-1517 3496,-1517 1931,0 3496,679 3496,1517 0,13 0,26 -1,39zm-3495 -636c1350,0 2491,372 2859,882 -368,510 -1509,882 -2859,882 -1350,0 -2491,-372 -2859,-882 368,-510 1509,-882 2859,-882z"/>
  </g>
  <path class="fil0" d="M7815 1729l0 506c0,2 0,4 0,6l0 9c1,22 1,18 1,24 0,494 -431,928 -1129,1231 -654,284 -1552,459 -2540,459 -988,0 -1887,-175 -2540,-459 -698,-303 -1129,-737 -1129,-1231l0 -583c0,-494 431,-928 1129,-1231 654,-284 1552,-459 2540,-459 988,0 1887,175 2540,459 698,303 1129,737 1129,1231 0,6 0,2 -1,24l0 15 0 0zm-347 506l0 -506 0 0c0,-3 0,-6 0,-9l1 -15c0,-9 0,4 0,-15 0,-344 -351,-668 -919,-914 -611,-265 -1461,-429 -2404,-429 -943,0 -1792,164 -2404,429 -568,246 -919,570 -919,914l0 583c0,344 351,668 919,914 611,265 1461,429 2404,429 943,0 1792,-164 2404,-429 568,-246 919,-570 919,-914 0,-19 1,-6 0,-15l0 -2c-1,-7 -1,-15 -1,-22zm-3322 -1315c683,0 1317,94 1830,252 544,168 960,413 1169,702 46,63 42,147 -3,206 -210,287 -624,531 -1166,698 -513,158 -1147,252 -1830,252 -683,0 -1317,-94 -1830,-252 -544,-168 -960,-413 -1169,-702 -46,-63 -42,-147 3,-206 210,-287 624,-531 1166,-698 513,-158 1147,-252 1830,-252zm1729 583c-480,-148 -1078,-236 -1729,-236 -650,0 -1248,88 -1728,236 -402,124 -717,287 -904,473 186,185 501,349 904,473 480,148 1078,236 1728,236 650,0 1248,-88 1728,-236 402,-124 717,-287 904,-473 -186,-185 -501,-349 -904,-473z"/>
  <path class="fil7" d="M7642 1729l0 506c1,13 1,26 1,39 0,838 -1565,1517 -3496,1517 -1931,0 -3496,-679 -3496,-1517l0 -583c0,-838 1565,-1517 3496,-1517 1931,0 3496,679 3496,1517 0,13 0,26 -1,39zm-3495 -636c1350,0 2491,372 2859,882 -368,510 -1509,882 -2859,882 -1350,0 -2491,-372 -2859,-882 368,-510 1509,-882 2859,-882z"/>
  <g style="clip-path:url(#id1)">
   <g>
    <ellipse class="fil8" cx="4147" cy="2064" rx="3537" ry="1588"/>
    <ellipse class="fil7" cx="4147" cy="1853" rx="3529" ry="1588"/>
    <path class="fil9" d="M7642 1718c0,802 -1565,1453 -3495,1453 -1930,0 -3495,-650 -3495,-1453l0 -2330 6990 0 0 2330z"/>
    <path class="fil7" d="M4147 578c1617,0 2928,513 2928,1147 0,89 -26,176 -75,259l-5707 0c-49,-83 -75,-170 -75,-259 0,-633 1311,-1147 2928,-1147z"/>
    <path class="fil8" d="M4147 794c1592,0 2882,465 2882,1038 0,53 -11,106 -33,157l-935 0 108 198 51 0c-515,173 -1069,279 -1965,279 -896,0 -1939,-196 -2447,-490l47 0 -108 8 -451 0c-20,-49 -31,-100 -31,-151 0,-573 1290,-1038 2882,-1038z"/>
    <path class="fil10" d="M4147 954c1513,0 2739,426 2739,952 0,24 -3,47 -8,71l-5463 0c-5,-23 -8,-47 -8,-71 0,-526 1226,-952 2739,-952z"/>
   </g>
  </g>
  <path class="fil4" d="M7642 1729l0 506c1,13 1,26 1,39 0,838 -1565,1517 -3496,1517 -1931,0 -3496,-679 -3496,-1517l0 -583c0,-838 1565,-1517 3496,-1517 1931,0 3496,679 3496,1517 0,13 0,26 -1,39zm-3495 -636c1350,0 2491,372 2859,882 -368,510 -1509,882 -2859,882 -1350,0 -2491,-372 -2859,-882 368,-510 1509,-882 2859,-882z"/>
  <path class="fil0" d="M4497 2452l51 164c21,59 10,127 -36,176l-401 435 64 662c8,45 -2,93 -32,133l-116 155 0 0c-35,47 -93,75 -156,69l-544 -54 0 0c-87,-8 -155,-82 -156,-171l-11 -950c-2,-38 8,-77 32,-110l458 -642c33,-53 94,-86 160,-81 1,0 393,31 466,40 183,23 204,108 221,174 0,0 0,0 0,0l0 0z"/>
  <path class="fil0" d="M4496 2449l1 4 0 0c0,-1 -3,-9 -1,-4z"/>
  <path class="fil0" d="M4189 2630l-4 -13c-77,-7 -212,-19 -304,-26l-374 525 8 746 292 29 18 -24 -66 -685c-5,-51 13,-99 45,-134l0 0 386 -418z"/>
  <path class="fil1" d="M4384 2675l-54 -175c-5,-16 -3,-40 -75,-49 -72,-9 -458,-40 -458,-40l-464 651 11 958 544 54 116 -155 -72 -752 453 -492z"/>
  <g style="clip-path:url(#id2)">
   <g>
    <rect class="fil11" x="3172" y="3014" width="791" height="258"/>
    <path class="fil12" d="M4485 2284l-215 169 -483 717 29 1035c0,0 152,41 241,41 89,0 612,-832 647,-905 35,-73 105,-288 111,-411 6,-123 -330,-646 -330,-646z"/>
   </g>
  </g>
  <path class="fil4" d="M4384 2675l-54 -175c-5,-16 -3,-40 -75,-49 -72,-9 -458,-40 -458,-40l-464 651 11 958 544 54 116 -155 -72 -752 453 -492z"/>
  <path class="fil13" d="M852 1547c-10,37 -47,59 -84,50 -37,-10 -59,-47 -50,-84 0,-2 154,-641 1364,-1015 36,-11 75,9 86,46 11,36 -9,75 -46,86 -1135,351 -1270,916 -1271,917z"/>
  <path class="fil13" d="M7194 1747c2,-38 34,-68 72,-66 38,2 68,34 66,72 0,1 -13,336 -338,546 -32,21 -75,12 -96,-20 -21,-32 -12,-75 20,-96 265,-171 275,-435 275,-436z"/>
  <g>
   <path class="fil4 str2" d="M1854 1415c0,0 -77,74 -180,1 -103,-73 -57,-148 -10,-218 46,-70 195,-159 266,-36 72,123 -76,253 -76,253z"/>
   <path id="1" class="fil14" d="M1854 1415c0,0 -77,74 -180,1 -103,-73 -57,-148 -10,-218 46,-70 195,-159 266,-36 72,123 -76,253 -76,253z"/>
  </g>
  <g>
   <path class="fil4 str2" d="M3230 618c0,0 203,0 193,161 -9,161 -170,322 -281,231 -110,-91 -179,-203 -117,-302 62,-99 204,-90 204,-90z"/>
   <path id="1" class="fil14" d="M3230 618c0,0 203,0 193,161 -9,161 -170,322 -281,231 -110,-91 -179,-203 -117,-302 62,-99 204,-90 204,-90z"/>
  </g>
  <g>
   <path class="fil0" d="M5160 831l-161 17 0 0 -1 -8 -1 -8 -2 -7 -2 -7 -2 -7 -2 -7 -2 -7 -3 -7 -3 -6 -3 -6 -3 -6 -3 -6 -4 -5 -4 -5 -4 -5 -4 -5 -4 -4 -4 -4 -4 -4 -4 -3 -4 -3 -4 -3 -4 -2 -4 -2 -4 -2 -3 -1 -3 -1 -3 -1 -3 -1 -3 0 -3 0 -3 0 0 -162 13 0 13 1 13 2 13 3 12 4 12 4 12 5 11 6 11 6 11 7 10 7 10 8 10 8 9 9 9 9 8 9 8 10 8 10 7 10 7 11 7 11 6 11 6 12 5 12 5 12 5 12 4 13 4 13 3 13 3 13 2 14 2 14 0 0zm-215 297l0 -162 0 0 3 0 2 0 2 0 2 -1 2 -1 2 -1 2 -1 2 -1 2 -1 2 -2 2 -2 2 -2 2 -2 2 -3 2 -3 2 -3 2 -4 2 -4 2 -4 2 -5 2 -5 2 -5 2 -6 1 -6 1 -6 1 -6 1 -7 0 -7 0 -7 0 -7 0 -7 -1 -8 161 -17 1 14 1 14 0 14 0 13 -1 13 -1 13 -2 13 -2 13 -3 13 -3 12 -4 12 -4 12 -5 12 -6 11 -6 11 -7 11 -7 10 -8 10 -8 10 -9 9 -9 9 -10 8 -10 8 -11 7 -11 6 -12 6 -12 5 -13 4 -13 3 -13 2 -13 1 -13 0 0 0zm-260 -279l161 -17 0 0 1 8 1 8 2 7 2 7 2 7 2 7 2 7 3 7 3 6 3 6 3 6 3 6 4 5 4 5 4 5 4 5 4 4 4 4 4 4 4 3 4 3 4 3 4 2 4 2 4 2 3 1 3 1 3 1 3 1 3 0 3 0 3 0 0 162 -13 0 -13 -1 -13 -2 -13 -3 -12 -4 -12 -4 -12 -5 -11 -6 -11 -6 -11 -7 -10 -7 -10 -8 -10 -8 -9 -9 -9 -9 -8 -9 -8 -10 -8 -10 -7 -10 -7 -11 -7 -11 -6 -11 -6 -12 -5 -12 -5 -12 -5 -12 -4 -13 -4 -13 -3 -13 -3 -13 -2 -14 -2 -14 0 0zm215 -297l0 162 0 0 -3 0 -2 0 -2 0 -2 1 -2 1 -2 1 -2 1 -2 1 -2 1 -2 2 -2 2 -2 2 -2 2 -2 3 -2 3 -2 3 -2 4 -2 4 -2 4 -2 5 -2 5 -2 5 -2 6 -1 6 -1 6 -1 6 -1 7 0 7 0 7 0 7 0 7 1 8 -161 17 -1 -14 -1 -14 0 -14 0 -13 1 -13 1 -13 2 -13 2 -13 3 -13 3 -12 4 -12 4 -12 5 -12 5 -11 6 -11 7 -11 7 -10 8 -10 8 -10 9 -9 9 -9 10 -8 10 -8 11 -7 11 -6 12 -6 12 -5 13 -4 13 -3 13 -2 13 -1 13 0 0 0z"/>
   <path id="1" class="fil14" d="M4901 632c87,0 167,93 179,207 12,114 -48,207 -135,207 -87,0 -167,-93 -179,-207 -12,-114 48,-207 135,-207z"/>
  </g>
  <g>
   <path class="fil0" d="M6689 1254l-162 -5 0 0 0 -9 0 -9 0 -9 -1 -8 -1 -8 -1 -8 -1 -8 -2 -8 -2 -7 -2 -7 -2 -7 -2 -6 -2 -6 -2 -5 -2 -5 -3 -5 -3 -4 -2 -4 -2 -3 -2 -3 -2 -2 -2 -2 -2 -2 -2 -1 -1 -1 -1 -1 -1 0 0 0 0 0 0 0 0 0 0 0 0 -161 14 1 13 2 13 3 13 4 12 5 12 6 11 6 10 7 10 8 9 8 9 9 8 9 8 9 7 10 7 10 6 10 6 11 5 11 5 11 4 11 4 12 4 12 3 12 3 12 3 13 2 13 2 13 1 13 1 13 1 13 0 14 0 14 0 0zm-217 299l0 -161 0 0 0 0 0 0 0 0 0 0 1 0 1 0 1 -1 2 -1 2 -1 2 -2 2 -2 3 -3 3 -3 3 -4 3 -4 3 -4 3 -5 3 -5 3 -6 3 -6 3 -6 2 -7 2 -7 2 -7 2 -8 2 -8 2 -8 1 -8 1 -8 1 -9 1 -9 0 -9 162 5 -1 14 -1 14 -1 13 -2 13 -2 13 -3 13 -3 13 -3 12 -4 12 -4 12 -4 12 -5 12 -5 11 -5 11 -6 11 -6 10 -7 10 -7 10 -7 9 -8 9 -8 9 -9 8 -9 8 -10 7 -10 7 -11 6 -12 5 -12 5 -13 4 -13 3 -13 2 -14 1 0 0zm-205 -304l162 5 0 0 0 9 0 9 0 9 1 8 1 8 1 8 1 8 2 8 2 7 2 7 2 7 2 6 2 6 2 6 2 5 2 5 3 4 2 4 2 3 2 3 2 2 2 2 2 2 2 1 1 1 1 1 1 0 0 0 0 0 0 0 0 0 0 0 0 161 -14 -1 -13 -2 -13 -3 -13 -4 -12 -5 -12 -6 -11 -6 -10 -7 -10 -8 -9 -8 -9 -9 -8 -9 -8 -9 -7 -10 -7 -10 -6 -10 -6 -11 -5 -11 -5 -11 -4 -11 -4 -12 -4 -12 -3 -12 -3 -12 -3 -13 -2 -13 -2 -13 -1 -13 -1 -13 -1 -13 0 -14 0 -14 0 0zm217 -299l0 161 0 0 0 0 0 0 0 0 0 0 -1 0 -1 0 -1 1 -2 1 -2 1 -2 2 -2 2 -3 3 -3 3 -3 4 -3 4 -3 5 -3 5 -3 5 -3 6 -3 6 -3 6 -2 7 -2 7 -2 7 -2 8 -2 8 -2 8 -1 8 -1 8 -1 9 -1 9 0 9 -162 -5 1 -14 1 -14 1 -13 2 -13 2 -13 3 -13 3 -13 3 -12 4 -12 4 -12 4 -12 5 -12 5 -11 5 -11 6 -11 6 -10 7 -10 7 -10 7 -9 8 -9 8 -9 9 -8 9 -8 10 -7 10 -7 11 -6 12 -5 12 -5 13 -4 13 -3 13 -2 14 -1 0 0z"/>
   <path id="1" class="fil14" d="M6485 1030c72,0 127,99 124,221 -3,122 -64,221 -136,221 -72,0 -127,-99 -124,-221 3,-122 64,-221 136,-221z"/>
  </g>
  <g>
   <path class="fil4 str3" d="M7717 1662c0,0 146,-17 275,80 129,97 173,156 167,199 -6,43 -103,255 -398,319 -295,64 -44,-598 -44,-598z"/>
   <path id="1" class="fil1" d="M7717 1662c0,0 146,-17 275,80 129,97 173,156 167,199 -6,43 -103,255 -398,319 -295,64 -44,-598 -44,-598z"/>
  </g>
  <g>
   <path class="fil4 str3" d="M7418 2427c139,33 226,180 225,251 -1,71 -358,362 -402,179 -26,-107 -21,-477 178,-430z"/>
   <path id="1" class="fil1" d="M7418 2427c139,33 226,180 225,251 -1,71 -358,362 -402,179 -26,-107 -21,-477 178,-430z"/>
  </g>
  <g>
   <path class="fil4 str3" d="M6134 3208c0,0 35,-278 221,-279 186,-1 375,235 373,327 -2,118 -256,288 -536,247 -71,-10 -76,-133 -58,-295z"/>
   <path id="1" class="fil1" d="M6134 3208c0,0 35,-278 221,-279 186,-1 375,235 373,327 -2,118 -256,288 -536,247 -71,-10 -76,-133 -58,-295z"/>
  </g>
  <g>
   <path class="fil4 str3" d="M5208 3496c0,0 22,-238 -274,-238 -296,0 -289,294 -289,294 0,0 -8,227 246,227 255,0 327,-236 317,-282z"/>
   <path id="1" class="fil1" d="M5208 3496c0,0 22,-238 -274,-238 -296,0 -289,294 -289,294 0,0 -8,227 246,227 255,0 327,-236 317,-282z"/>
  </g>
  <g>
   <path class="fil4 str3" d="M2597 3349c-2,-58 -53,-231 -241,-234 -188,-3 -492,401 -359,487 134,86 439,143 525,15 86,-128 75,-268 75,-268z"/>
   <path id="1" class="fil1" d="M2597 3349c-2,-58 -53,-231 -241,-234 -188,-3 -492,401 -359,487 134,86 439,143 525,15 86,-128 75,-268 75,-268z"/>
  </g>
  <g>
   <path class="fil4 str3" d="M1291 2901c0,0 -73,-294 -207,-292 -134,2 -435,406 -298,474 105,52 382,111 481,51 49,-30 53,-122 24,-233z"/>
   <path id="1" class="fil1" d="M1291 2901c0,0 -73,-294 -207,-292 -134,2 -435,406 -298,474 105,52 382,111 481,51 49,-30 53,-122 24,-233z"/>
  </g>
  <g>
   <path class="fil4 str3" d="M555 1713c0,0 -35,-97 -142,-55 -107,42 -299,205 -297,319 2,114 395,303 435,190 40,-113 5,-454 5,-454z"/>
   <path id="1" class="fil1" d="M555 1713c0,0 -35,-97 -142,-55 -107,42 -299,205 -297,319 2,114 395,303 435,190 40,-113 5,-454 5,-454z"/>
  </g>
 </g>
</svg>
