<?xml version="1.0" encoding="UTF-8"?>
<!DOCTYPE svg PUBLIC "-//W3C//DTD SVG 1.1//EN" "http://www.w3.org/Graphics/SVG/1.1/DTD/svg11.dtd">
<svg xmlns="http://www.w3.org/2000/svg" version="1.1" width="192px" height="192px" style="shape-rendering:geometricPrecision; text-rendering:geometricPrecision; image-rendering:optimizeQuality; fill-rule:evenodd; clip-rule:evenodd" xmlns:xlink="http://www.w3.org/1999/xlink">
<g><path style="opacity:1" fill="#fee478" d="M 71.5,-0.5 C 73.5,-0.5 75.5,-0.5 77.5,-0.5C 77.5,1.5 77.5,3.5 77.5,5.5C 75.5,5.5 73.5,5.5 71.5,5.5C 71.5,3.5 71.5,1.5 71.5,-0.5 Z"/></g>
<g><path style="opacity:1" fill="#fef5ca" d="M 77.5,-0.5 C 83.5,-0.5 89.5,-0.5 95.5,-0.5C 95.5,1.5 95.5,3.5 95.5,5.5C 91.5,5.5 87.5,5.5 83.5,5.5C 81.5,5.5 79.5,5.5 77.5,5.5C 77.5,3.5 77.5,1.5 77.5,-0.5 Z"/></g>
<g><path style="opacity:1" fill="#fee478" d="M 95.5,-0.5 C 97.5,-0.5 99.5,-0.5 101.5,-0.5C 101.5,1.5 101.5,3.5 101.5,5.5C 99.5,5.5 97.5,5.5 95.5,5.5C 95.5,3.5 95.5,1.5 95.5,-0.5 Z"/></g>
<g><path style="opacity:1" fill="#edb827" d="M 101.5,-0.5 C 107.5,-0.5 113.5,-0.5 119.5,-0.5C 119.5,1.5 119.5,3.5 119.5,5.5C 115.5,5.5 111.5,5.5 107.5,5.5C 107.5,7.5 107.5,9.5 107.5,11.5C 99.5,11.5 91.5,11.5 83.5,11.5C 83.5,9.5 83.5,7.5 83.5,5.5C 87.5,5.5 91.5,5.5 95.5,5.5C 97.5,5.5 99.5,5.5 101.5,5.5C 101.5,3.5 101.5,1.5 101.5,-0.5 Z"/></g>
<g><path style="opacity:1" fill="#fef5ca" d="M 65.5,5.5 C 65.5,7.5 65.5,9.5 65.5,11.5C 61.5,11.5 57.5,11.5 53.5,11.5C 53.5,9.5 53.5,7.5 53.5,5.5C 57.5,5.5 61.5,5.5 65.5,5.5 Z"/></g>
<g><path style="opacity:1" fill="#fee478" d="M 65.5,5.5 C 67.5,5.5 69.5,5.5 71.5,5.5C 71.5,7.5 71.5,9.5 71.5,11.5C 69.5,11.5 67.5,11.5 65.5,11.5C 65.5,9.5 65.5,7.5 65.5,5.5 Z"/></g>
<g><path style="opacity:1" fill="#edb827" d="M 119.5,5.5 C 125.5,5.5 131.5,5.5 137.5,5.5C 137.5,7.5 137.5,9.5 137.5,11.5C 131.5,11.5 125.5,11.5 119.5,11.5C 119.5,9.5 119.5,7.5 119.5,5.5 Z"/></g>
<g><path style="opacity:1" fill="#fee478" d="M 53.5,11.5 C 53.5,13.5 53.5,15.5 53.5,17.5C 49.5,17.5 45.5,17.5 41.5,17.5C 41.5,15.5 41.5,13.5 41.5,11.5C 45.5,11.5 49.5,11.5 53.5,11.5 Z"/></g>
<g><path style="opacity:1" fill="#c6861f" d="M 71.5,5.5 C 73.5,5.5 75.5,5.5 77.5,5.5C 79.5,5.5 81.5,5.5 83.5,5.5C 83.5,7.5 83.5,9.5 83.5,11.5C 81.5,11.5 79.5,11.5 77.5,11.5C 77.5,13.5 77.5,15.5 77.5,17.5C 75.5,17.5 73.5,17.5 71.5,17.5C 69.5,17.5 67.5,17.5 65.5,17.5C 63.5,17.5 61.5,17.5 59.5,17.5C 59.5,19.5 59.5,21.5 59.5,23.5C 57.5,23.5 55.5,23.5 53.5,23.5C 49.5,23.5 45.5,23.5 41.5,23.5C 41.5,21.5 41.5,19.5 41.5,17.5C 45.5,17.5 49.5,17.5 53.5,17.5C 53.5,15.5 53.5,13.5 53.5,11.5C 57.5,11.5 61.5,11.5 65.5,11.5C 67.5,11.5 69.5,11.5 71.5,11.5C 71.5,9.5 71.5,7.5 71.5,5.5 Z"/></g>
<g><path style="opacity:1" fill="#edb827" d="M 83.5,11.5 C 83.5,13.5 83.5,15.5 83.5,17.5C 81.5,17.5 79.5,17.5 77.5,17.5C 77.5,15.5 77.5,13.5 77.5,11.5C 79.5,11.5 81.5,11.5 83.5,11.5 Z"/></g>
<g><path style="opacity:1" fill="#fee478" d="M 83.5,11.5 C 91.5,11.5 99.5,11.5 107.5,11.5C 107.5,13.5 107.5,15.5 107.5,17.5C 99.5,17.5 91.5,17.5 83.5,17.5C 83.5,15.5 83.5,13.5 83.5,11.5 Z"/></g>
<g><path style="opacity:1" fill="#edb827" d="M 107.5,11.5 C 109.5,11.5 111.5,11.5 113.5,11.5C 113.5,13.5 113.5,15.5 113.5,17.5C 111.5,17.5 109.5,17.5 107.5,17.5C 107.5,15.5 107.5,13.5 107.5,11.5 Z"/></g>
<g><path style="opacity:1" fill="#c7881f" d="M 119.5,5.5 C 119.5,7.5 119.5,9.5 119.5,11.5C 125.5,11.5 131.5,11.5 137.5,11.5C 137.5,13.5 137.5,15.5 137.5,17.5C 141.5,17.5 145.5,17.5 149.5,17.5C 149.5,19.5 149.5,21.5 149.5,23.5C 151.5,23.5 153.5,23.5 155.5,23.5C 155.5,25.5 155.5,27.5 155.5,29.5C 157.5,29.5 159.5,29.5 161.5,29.5C 161.5,31.5 161.5,33.5 161.5,35.5C 161.5,37.5 161.5,39.5 161.5,41.5C 159.5,41.5 157.5,41.5 155.5,41.5C 155.5,39.5 155.5,37.5 155.5,35.5C 153.5,35.5 151.5,35.5 149.5,35.5C 149.5,33.5 149.5,31.5 149.5,29.5C 147.5,29.5 145.5,29.5 143.5,29.5C 143.5,27.5 143.5,25.5 143.5,23.5C 141.5,23.5 139.5,23.5 137.5,23.5C 135.5,23.5 133.5,23.5 131.5,23.5C 131.5,21.5 131.5,19.5 131.5,17.5C 129.5,17.5 127.5,17.5 125.5,17.5C 123.5,17.5 121.5,17.5 119.5,17.5C 117.5,17.5 115.5,17.5 113.5,17.5C 113.5,15.5 113.5,13.5 113.5,11.5C 111.5,11.5 109.5,11.5 107.5,11.5C 107.5,9.5 107.5,7.5 107.5,5.5C 111.5,5.5 115.5,5.5 119.5,5.5 Z"/></g>
<g><path style="opacity:1" fill="#edb827" d="M 137.5,11.5 C 141.5,11.5 145.5,11.5 149.5,11.5C 149.5,13.5 149.5,15.5 149.5,17.5C 145.5,17.5 141.5,17.5 137.5,17.5C 137.5,15.5 137.5,13.5 137.5,11.5 Z"/></g>
<g><path style="opacity:1" fill="#fef5ca" d="M 41.5,17.5 C 41.5,19.5 41.5,21.5 41.5,23.5C 39.5,23.5 37.5,23.5 35.5,23.5C 35.5,21.5 35.5,19.5 35.5,17.5C 37.5,17.5 39.5,17.5 41.5,17.5 Z"/></g>
<g><path style="opacity:1" fill="#edb827" d="M 65.5,17.5 C 65.5,19.5 65.5,21.5 65.5,23.5C 63.5,23.5 61.5,23.5 59.5,23.5C 59.5,21.5 59.5,19.5 59.5,17.5C 61.5,17.5 63.5,17.5 65.5,17.5 Z"/></g>
<g><path style="opacity:1" fill="#fee478" d="M 65.5,17.5 C 67.5,17.5 69.5,17.5 71.5,17.5C 71.5,19.5 71.5,21.5 71.5,23.5C 69.5,23.5 67.5,23.5 65.5,23.5C 65.5,21.5 65.5,19.5 65.5,17.5 Z"/></g>
<g><path style="opacity:1" fill="#fef5ca" d="M 71.5,17.5 C 73.5,17.5 75.5,17.5 77.5,17.5C 77.5,19.5 77.5,21.5 77.5,23.5C 75.5,23.5 73.5,23.5 71.5,23.5C 71.5,21.5 71.5,19.5 71.5,17.5 Z"/></g>
<g><path style="opacity:1" fill="#d39521" d="M 77.5,17.5 C 79.5,17.5 81.5,17.5 83.5,17.5C 91.5,17.5 99.5,17.5 107.5,17.5C 109.5,17.5 111.5,17.5 113.5,17.5C 113.5,19.5 113.5,21.5 113.5,23.5C 109.5,23.5 105.5,23.5 101.5,23.5C 99.5,23.5 97.5,23.5 95.5,23.5C 93.5,23.5 91.5,23.5 89.5,23.5C 85.5,23.5 81.5,23.5 77.5,23.5C 77.5,21.5 77.5,19.5 77.5,17.5 Z"/></g>
<g><path style="opacity:1" fill="#fef5ca" d="M 113.5,17.5 C 115.5,17.5 117.5,17.5 119.5,17.5C 119.5,19.5 119.5,21.5 119.5,23.5C 117.5,23.5 115.5,23.5 113.5,23.5C 113.5,21.5 113.5,19.5 113.5,17.5 Z"/></g>
<g><path style="opacity:1" fill="#fee478" d="M 119.5,17.5 C 121.5,17.5 123.5,17.5 125.5,17.5C 125.5,19.5 125.5,21.5 125.5,23.5C 123.5,23.5 121.5,23.5 119.5,23.5C 119.5,21.5 119.5,19.5 119.5,17.5 Z"/></g>
<g><path style="opacity:1" fill="#edb827" d="M 125.5,17.5 C 127.5,17.5 129.5,17.5 131.5,17.5C 131.5,19.5 131.5,21.5 131.5,23.5C 129.5,23.5 127.5,23.5 125.5,23.5C 125.5,21.5 125.5,19.5 125.5,17.5 Z"/></g>
<g><path style="opacity:1" fill="#fee478" d="M 149.5,17.5 C 151.5,17.5 153.5,17.5 155.5,17.5C 155.5,19.5 155.5,21.5 155.5,23.5C 155.5,21.5 155.5,19.5 155.5,17.5C 153.5,17.5 151.5,17.5 149.5,17.5 Z"/></g>
<g><path style="opacity:1" fill="#fef5ca" d="M 35.5,23.5 C 35.5,25.5 35.5,27.5 35.5,29.5C 33.5,29.5 31.5,29.5 29.5,29.5C 29.5,27.5 29.5,25.5 29.5,23.5C 31.5,23.5 33.5,23.5 35.5,23.5 Z"/></g>
<g><path style="opacity:1" fill="#c4851e" d="M 35.5,23.5 C 37.5,23.5 39.5,23.5 41.5,23.5C 41.5,25.5 41.5,27.5 41.5,29.5C 39.5,29.5 37.5,29.5 35.5,29.5C 35.5,27.5 35.5,25.5 35.5,23.5 Z"/></g>
<g><path style="opacity:1" fill="#edb827" d="M 41.5,23.5 C 45.5,23.5 49.5,23.5 53.5,23.5C 53.5,25.5 53.5,27.5 53.5,29.5C 53.5,31.5 53.5,33.5 53.5,35.5C 51.5,35.5 49.5,35.5 47.5,35.5C 47.5,33.5 47.5,31.5 47.5,29.5C 45.5,29.5 43.5,29.5 41.5,29.5C 41.5,27.5 41.5,25.5 41.5,23.5 Z"/></g>
<g><path style="opacity:1" fill="#fee478" d="M 53.5,23.5 C 55.5,23.5 57.5,23.5 59.5,23.5C 59.5,25.5 59.5,27.5 59.5,29.5C 57.5,29.5 55.5,29.5 53.5,29.5C 53.5,27.5 53.5,25.5 53.5,23.5 Z"/></g>
<g><path style="opacity:1" fill="#c4851e" d="M 59.5,23.5 C 61.5,23.5 63.5,23.5 65.5,23.5C 67.5,23.5 69.5,23.5 71.5,23.5C 71.5,25.5 71.5,27.5 71.5,29.5C 67.5,29.5 63.5,29.5 59.5,29.5C 59.5,27.5 59.5,25.5 59.5,23.5 Z"/></g>
<g><path style="opacity:1" fill="#fee478" d="M 71.5,23.5 C 73.5,23.5 75.5,23.5 77.5,23.5C 81.5,23.5 85.5,23.5 89.5,23.5C 89.5,25.5 89.5,27.5 89.5,29.5C 85.5,29.5 81.5,29.5 77.5,29.5C 75.5,29.5 73.5,29.5 71.5,29.5C 71.5,27.5 71.5,25.5 71.5,23.5 Z"/></g>
<g><path style="opacity:1" fill="#fef5ca" d="M 89.5,23.5 C 91.5,23.5 93.5,23.5 95.5,23.5C 95.5,27.5 95.5,31.5 95.5,35.5C 93.5,35.5 91.5,35.5 89.5,35.5C 89.5,33.5 89.5,31.5 89.5,29.5C 89.5,27.5 89.5,25.5 89.5,23.5 Z"/></g>
<g><path style="opacity:1" fill="#c4851e" d="M 95.5,23.5 C 97.5,23.5 99.5,23.5 101.5,23.5C 101.5,25.5 101.5,27.5 101.5,29.5C 105.5,29.5 109.5,29.5 113.5,29.5C 113.5,31.5 113.5,33.5 113.5,35.5C 109.5,35.5 105.5,35.5 101.5,35.5C 101.5,37.5 101.5,39.5 101.5,41.5C 99.5,41.5 97.5,41.5 95.5,41.5C 95.5,39.5 95.5,37.5 95.5,35.5C 95.5,31.5 95.5,27.5 95.5,23.5 Z"/></g>
<g><path style="opacity:1" fill="#fee478" d="M 101.5,23.5 C 105.5,23.5 109.5,23.5 113.5,23.5C 115.5,23.5 117.5,23.5 119.5,23.5C 119.5,25.5 119.5,27.5 119.5,29.5C 117.5,29.5 115.5,29.5 113.5,29.5C 109.5,29.5 105.5,29.5 101.5,29.5C 101.5,27.5 101.5,25.5 101.5,23.5 Z"/></g>
<g><path style="opacity:1" fill="#c4851e" d="M 119.5,23.5 C 121.5,23.5 123.5,23.5 125.5,23.5C 127.5,23.5 129.5,23.5 131.5,23.5C 131.5,25.5 131.5,27.5 131.5,29.5C 127.5,29.5 123.5,29.5 119.5,29.5C 119.5,27.5 119.5,25.5 119.5,23.5 Z"/></g>
<g><path style="opacity:1" fill="#fee478" d="M 131.5,23.5 C 133.5,23.5 135.5,23.5 137.5,23.5C 137.5,25.5 137.5,27.5 137.5,29.5C 135.5,29.5 133.5,29.5 131.5,29.5C 131.5,27.5 131.5,25.5 131.5,23.5 Z"/></g>
<g><path style="opacity:1" fill="#edb827" d="M 137.5,23.5 C 139.5,23.5 141.5,23.5 143.5,23.5C 143.5,25.5 143.5,27.5 143.5,29.5C 143.5,31.5 143.5,33.5 143.5,35.5C 141.5,35.5 139.5,35.5 137.5,35.5C 137.5,33.5 137.5,31.5 137.5,29.5C 137.5,27.5 137.5,25.5 137.5,23.5 Z"/></g>
<g><path style="opacity:1" fill="#fee478" d="M 155.5,23.5 C 157.5,23.5 159.5,23.5 161.5,23.5C 161.5,25.5 161.5,27.5 161.5,29.5C 161.5,27.5 161.5,25.5 161.5,23.5C 159.5,23.5 157.5,23.5 155.5,23.5 Z"/></g>
<g><path style="opacity:1" fill="#fef5ca" d="M 29.5,29.5 C 29.5,31.5 29.5,33.5 29.5,35.5C 27.5,35.5 25.5,35.5 23.5,35.5C 23.5,33.5 23.5,31.5 23.5,29.5C 25.5,29.5 27.5,29.5 29.5,29.5 Z"/></g>
<g><path style="opacity:1" fill="#c4851e" d="M 29.5,29.5 C 31.5,29.5 33.5,29.5 35.5,29.5C 35.5,31.5 35.5,33.5 35.5,35.5C 33.5,35.5 31.5,35.5 29.5,35.5C 29.5,33.5 29.5,31.5 29.5,29.5 Z"/></g>
<g><path style="opacity:1" fill="#edb827" d="M 35.5,29.5 C 37.5,29.5 39.5,29.5 41.5,29.5C 41.5,31.5 41.5,33.5 41.5,35.5C 39.5,35.5 37.5,35.5 35.5,35.5C 35.5,33.5 35.5,31.5 35.5,29.5 Z"/></g>
<g><path style="opacity:1" fill="#fef5ca" d="M 41.5,29.5 C 43.5,29.5 45.5,29.5 47.5,29.5C 47.5,31.5 47.5,33.5 47.5,35.5C 45.5,35.5 43.5,35.5 41.5,35.5C 41.5,33.5 41.5,31.5 41.5,29.5 Z"/></g>
<g><path style="opacity:1" fill="#c4851e" d="M 53.5,29.5 C 55.5,29.5 57.5,29.5 59.5,29.5C 59.5,31.5 59.5,33.5 59.5,35.5C 57.5,35.5 55.5,35.5 53.5,35.5C 53.5,33.5 53.5,31.5 53.5,29.5 Z"/></g>
<g><path style="opacity:1" fill="#fee478" d="M 59.5,29.5 C 63.5,29.5 67.5,29.5 71.5,29.5C 71.5,31.5 71.5,33.5 71.5,35.5C 67.5,35.5 63.5,35.5 59.5,35.5C 59.5,33.5 59.5,31.5 59.5,29.5 Z"/></g>
<g><path style="opacity:1" fill="#d59921" d="M 71.5,29.5 C 73.5,29.5 75.5,29.5 77.5,29.5C 77.5,31.5 77.5,33.5 77.5,35.5C 77.5,37.5 77.5,39.5 77.5,41.5C 75.5,41.5 73.5,41.5 71.5,41.5C 71.5,39.5 71.5,37.5 71.5,35.5C 71.5,33.5 71.5,31.5 71.5,29.5 Z"/></g>
<g><path style="opacity:1" fill="#c4851e" d="M 77.5,29.5 C 81.5,29.5 85.5,29.5 89.5,29.5C 89.5,31.5 89.5,33.5 89.5,35.5C 85.5,35.5 81.5,35.5 77.5,35.5C 77.5,33.5 77.5,31.5 77.5,29.5 Z"/></g>
<g><path style="opacity:1" fill="#d59921" d="M 113.5,29.5 C 115.5,29.5 117.5,29.5 119.5,29.5C 119.5,31.5 119.5,33.5 119.5,35.5C 119.5,37.5 119.5,39.5 119.5,41.5C 117.5,41.5 115.5,41.5 113.5,41.5C 113.5,39.5 113.5,37.5 113.5,35.5C 113.5,33.5 113.5,31.5 113.5,29.5 Z"/></g>
<g><path style="opacity:1" fill="#fee478" d="M 119.5,29.5 C 123.5,29.5 127.5,29.5 131.5,29.5C 131.5,31.5 131.5,33.5 131.5,35.5C 127.5,35.5 123.5,35.5 119.5,35.5C 119.5,33.5 119.5,31.5 119.5,29.5 Z"/></g>
<g><path style="opacity:1" fill="#c4851e" d="M 131.5,29.5 C 133.5,29.5 135.5,29.5 137.5,29.5C 137.5,31.5 137.5,33.5 137.5,35.5C 135.5,35.5 133.5,35.5 131.5,35.5C 131.5,33.5 131.5,31.5 131.5,29.5 Z"/></g>
<g><path style="opacity:1" fill="#fee478" d="M 143.5,29.5 C 145.5,29.5 147.5,29.5 149.5,29.5C 149.5,31.5 149.5,33.5 149.5,35.5C 147.5,35.5 145.5,35.5 143.5,35.5C 143.5,33.5 143.5,31.5 143.5,29.5 Z"/></g>
<g><path style="opacity:1" fill="#fee478" d="M 161.5,29.5 C 163.5,29.5 165.5,29.5 167.5,29.5C 167.5,31.5 167.5,33.5 167.5,35.5C 165.5,35.5 163.5,35.5 161.5,35.5C 161.5,33.5 161.5,31.5 161.5,29.5 Z"/></g>
<g><path style="opacity:1" fill="#fef5ca" d="M 23.5,35.5 C 23.5,37.5 23.5,39.5 23.5,41.5C 21.5,41.5 19.5,41.5 17.5,41.5C 17.5,39.5 17.5,37.5 17.5,35.5C 19.5,35.5 21.5,35.5 23.5,35.5 Z"/></g>
<g><path style="opacity:1" fill="#c4851e" d="M 23.5,35.5 C 25.5,35.5 27.5,35.5 29.5,35.5C 29.5,37.5 29.5,39.5 29.5,41.5C 27.5,41.5 25.5,41.5 23.5,41.5C 23.5,39.5 23.5,37.5 23.5,35.5 Z"/></g>
<g><path style="opacity:1" fill="#edb827" d="M 29.5,35.5 C 31.5,35.5 33.5,35.5 35.5,35.5C 35.5,37.5 35.5,39.5 35.5,41.5C 33.5,41.5 31.5,41.5 29.5,41.5C 29.5,39.5 29.5,37.5 29.5,35.5 Z"/></g>
<g><path style="opacity:1" fill="#fef5ca" d="M 35.5,35.5 C 37.5,35.5 39.5,35.5 41.5,35.5C 41.5,37.5 41.5,39.5 41.5,41.5C 39.5,41.5 37.5,41.5 35.5,41.5C 35.5,39.5 35.5,37.5 35.5,35.5 Z"/></g>
<g><path style="opacity:1" fill="#fee478" d="M 53.5,35.5 C 55.5,35.5 57.5,35.5 59.5,35.5C 59.5,37.5 59.5,39.5 59.5,41.5C 57.5,41.5 55.5,41.5 53.5,41.5C 53.5,39.5 53.5,37.5 53.5,35.5 Z"/></g>
<g><path style="opacity:1" fill="#c4851e" d="M 59.5,35.5 C 63.5,35.5 67.5,35.5 71.5,35.5C 71.5,37.5 71.5,39.5 71.5,41.5C 67.5,41.5 63.5,41.5 59.5,41.5C 59.5,39.5 59.5,37.5 59.5,35.5 Z"/></g>
<g><path style="opacity:1" fill="#edb727" d="M 77.5,35.5 C 81.5,35.5 85.5,35.5 89.5,35.5C 89.5,37.5 89.5,39.5 89.5,41.5C 91.5,41.5 93.5,41.5 95.5,41.5C 97.5,41.5 99.5,41.5 101.5,41.5C 101.5,39.5 101.5,37.5 101.5,35.5C 105.5,35.5 109.5,35.5 113.5,35.5C 113.5,37.5 113.5,39.5 113.5,41.5C 115.5,41.5 117.5,41.5 119.5,41.5C 123.5,41.5 127.5,41.5 131.5,41.5C 131.5,43.5 131.5,45.5 131.5,47.5C 133.5,47.5 135.5,47.5 137.5,47.5C 137.5,51.5 137.5,55.5 137.5,59.5C 135.5,59.5 133.5,59.5 131.5,59.5C 131.5,61.5 131.5,63.5 131.5,65.5C 129.5,65.5 127.5,65.5 125.5,65.5C 125.5,67.5 125.5,69.5 125.5,71.5C 123.5,71.5 121.5,71.5 119.5,71.5C 117.5,71.5 115.5,71.5 113.5,71.5C 113.5,69.5 113.5,67.5 113.5,65.5C 113.5,63.5 113.5,61.5 113.5,59.5C 111.5,59.5 109.5,59.5 107.5,59.5C 105.5,59.5 103.5,59.5 101.5,59.5C 101.5,57.5 101.5,55.5 101.5,53.5C 95.5,53.5 89.5,53.5 83.5,53.5C 83.5,55.5 83.5,57.5 83.5,59.5C 81.5,59.5 79.5,59.5 77.5,59.5C 75.5,59.5 73.5,59.5 71.5,59.5C 71.5,61.5 71.5,63.5 71.5,65.5C 69.5,65.5 67.5,65.5 65.5,65.5C 65.5,67.5 65.5,69.5 65.5,71.5C 63.5,71.5 61.5,71.5 59.5,71.5C 59.5,73.5 59.5,75.5 59.5,77.5C 59.5,79.5 59.5,81.5 59.5,83.5C 57.5,83.5 55.5,83.5 53.5,83.5C 53.5,91.5 53.5,99.5 53.5,107.5C 55.5,107.5 57.5,107.5 59.5,107.5C 59.5,109.5 59.5,111.5 59.5,113.5C 61.5,113.5 63.5,113.5 65.5,113.5C 65.5,115.5 65.5,117.5 65.5,119.5C 65.5,121.5 65.5,123.5 65.5,125.5C 63.5,125.5 61.5,125.5 59.5,125.5C 59.5,127.5 59.5,129.5 59.5,131.5C 57.5,131.5 55.5,131.5 53.5,131.5C 53.5,133.5 53.5,135.5 53.5,137.5C 51.5,137.5 49.5,137.5 47.5,137.5C 47.5,135.5 47.5,133.5 47.5,131.5C 45.5,131.5 43.5,131.5 41.5,131.5C 41.5,127.5 41.5,123.5 41.5,119.5C 39.5,119.5 37.5,119.5 35.5,119.5C 35.5,113.5 35.5,107.5 35.5,101.5C 37.5,101.5 39.5,101.5 41.5,101.5C 41.5,99.5 41.5,97.5 41.5,95.5C 41.5,93.5 41.5,91.5 41.5,89.5C 39.5,89.5 37.5,89.5 35.5,89.5C 35.5,83.5 35.5,77.5 35.5,71.5C 37.5,71.5 39.5,71.5 41.5,71.5C 41.5,73.5 41.5,75.5 41.5,77.5C 43.5,77.5 45.5,77.5 47.5,77.5C 47.5,73.5 47.5,69.5 47.5,65.5C 49.5,65.5 51.5,65.5 53.5,65.5C 53.5,63.5 53.5,61.5 53.5,59.5C 55.5,59.5 57.5,59.5 59.5,59.5C 59.5,57.5 59.5,55.5 59.5,53.5C 61.5,53.5 63.5,53.5 65.5,53.5C 65.5,51.5 65.5,49.5 65.5,47.5C 63.5,47.5 61.5,47.5 59.5,47.5C 59.5,45.5 59.5,43.5 59.5,41.5C 63.5,41.5 67.5,41.5 71.5,41.5C 73.5,41.5 75.5,41.5 77.5,41.5C 77.5,39.5 77.5,37.5 77.5,35.5 Z"/></g>
<g><path style="opacity:1" fill="#fee478" d="M 89.5,35.5 C 91.5,35.5 93.5,35.5 95.5,35.5C 95.5,37.5 95.5,39.5 95.5,41.5C 93.5,41.5 91.5,41.5 89.5,41.5C 89.5,39.5 89.5,37.5 89.5,35.5 Z"/></g>
<g><path style="opacity:1" fill="#c4851e" d="M 119.5,35.5 C 123.5,35.5 127.5,35.5 131.5,35.5C 131.5,37.5 131.5,39.5 131.5,41.5C 127.5,41.5 123.5,41.5 119.5,41.5C 119.5,39.5 119.5,37.5 119.5,35.5 Z"/></g>
<g><path style="opacity:1" fill="#fee478" d="M 131.5,35.5 C 133.5,35.5 135.5,35.5 137.5,35.5C 137.5,37.5 137.5,39.5 137.5,41.5C 135.5,41.5 133.5,41.5 131.5,41.5C 131.5,39.5 131.5,37.5 131.5,35.5 Z"/></g>
<g><path style="opacity:1" fill="#fee478" d="M 149.5,35.5 C 151.5,35.5 153.5,35.5 155.5,35.5C 155.5,37.5 155.5,39.5 155.5,41.5C 153.5,41.5 151.5,41.5 149.5,41.5C 149.5,39.5 149.5,37.5 149.5,35.5 Z"/></g>
<g><path style="opacity:1" fill="#fee478" d="M 167.5,35.5 C 169.5,35.5 171.5,35.5 173.5,35.5C 173.5,37.5 173.5,39.5 173.5,41.5C 173.5,39.5 173.5,37.5 173.5,35.5C 171.5,35.5 169.5,35.5 167.5,35.5 Z"/></g>
<g><path style="opacity:1" fill="#fee478" d="M 17.5,41.5 C 17.5,45.5 17.5,49.5 17.5,53.5C 15.5,53.5 13.5,53.5 11.5,53.5C 11.5,49.5 11.5,45.5 11.5,41.5C 13.5,41.5 15.5,41.5 17.5,41.5 Z"/></g>
<g><path style="opacity:1" fill="#c4851e" d="M 17.5,41.5 C 19.5,41.5 21.5,41.5 23.5,41.5C 23.5,43.5 23.5,45.5 23.5,47.5C 23.5,49.5 23.5,51.5 23.5,53.5C 21.5,53.5 19.5,53.5 17.5,53.5C 17.5,49.5 17.5,45.5 17.5,41.5 Z"/></g>
<g><path style="opacity:1" fill="#edb827" d="M 23.5,41.5 C 25.5,41.5 27.5,41.5 29.5,41.5C 29.5,43.5 29.5,45.5 29.5,47.5C 27.5,47.5 25.5,47.5 23.5,47.5C 23.5,45.5 23.5,43.5 23.5,41.5 Z"/></g>
<g><path style="opacity:1" fill="#fef5ca" d="M 29.5,41.5 C 31.5,41.5 33.5,41.5 35.5,41.5C 35.5,43.5 35.5,45.5 35.5,47.5C 33.5,47.5 31.5,47.5 29.5,47.5C 29.5,45.5 29.5,43.5 29.5,41.5 Z"/></g>
<g><path style="opacity:1" fill="#c98a1f" d="M 41.5,35.5 C 43.5,35.5 45.5,35.5 47.5,35.5C 49.5,35.5 51.5,35.5 53.5,35.5C 53.5,37.5 53.5,39.5 53.5,41.5C 51.5,41.5 49.5,41.5 47.5,41.5C 47.5,43.5 47.5,45.5 47.5,47.5C 45.5,47.5 43.5,47.5 41.5,47.5C 41.5,49.5 41.5,51.5 41.5,53.5C 39.5,53.5 37.5,53.5 35.5,53.5C 35.5,51.5 35.5,49.5 35.5,47.5C 35.5,45.5 35.5,43.5 35.5,41.5C 37.5,41.5 39.5,41.5 41.5,41.5C 41.5,39.5 41.5,37.5 41.5,35.5 Z"/></g>
<g><path style="opacity:1" fill="#fee478" d="M 53.5,41.5 C 53.5,43.5 53.5,45.5 53.5,47.5C 51.5,47.5 49.5,47.5 47.5,47.5C 47.5,45.5 47.5,43.5 47.5,41.5C 49.5,41.5 51.5,41.5 53.5,41.5 Z"/></g>
<g><path style="opacity:1" fill="#c4851e" d="M 53.5,41.5 C 55.5,41.5 57.5,41.5 59.5,41.5C 59.5,43.5 59.5,45.5 59.5,47.5C 57.5,47.5 55.5,47.5 53.5,47.5C 53.5,45.5 53.5,43.5 53.5,41.5 Z"/></g>
<g><path style="opacity:1" fill="#c4851e" d="M 131.5,41.5 C 133.5,41.5 135.5,41.5 137.5,41.5C 137.5,43.5 137.5,45.5 137.5,47.5C 135.5,47.5 133.5,47.5 131.5,47.5C 131.5,45.5 131.5,43.5 131.5,41.5 Z"/></g>
<g><path style="opacity:1" fill="#fee478" d="M 137.5,41.5 C 139.5,41.5 141.5,41.5 143.5,41.5C 143.5,43.5 143.5,45.5 143.5,47.5C 141.5,47.5 139.5,47.5 137.5,47.5C 137.5,45.5 137.5,43.5 137.5,41.5 Z"/></g>
<g><path style="opacity:1" fill="#cb8c20" d="M 137.5,35.5 C 139.5,35.5 141.5,35.5 143.5,35.5C 145.5,35.5 147.5,35.5 149.5,35.5C 149.5,37.5 149.5,39.5 149.5,41.5C 151.5,41.5 153.5,41.5 155.5,41.5C 155.5,43.5 155.5,45.5 155.5,47.5C 153.5,47.5 151.5,47.5 149.5,47.5C 147.5,47.5 145.5,47.5 143.5,47.5C 143.5,45.5 143.5,43.5 143.5,41.5C 141.5,41.5 139.5,41.5 137.5,41.5C 137.5,39.5 137.5,37.5 137.5,35.5 Z"/></g>
<g><path style="opacity:1" fill="#edb827" d="M 155.5,41.5 C 157.5,41.5 159.5,41.5 161.5,41.5C 161.5,43.5 161.5,45.5 161.5,47.5C 163.5,47.5 165.5,47.5 167.5,47.5C 167.5,49.5 167.5,51.5 167.5,53.5C 167.5,55.5 167.5,57.5 167.5,59.5C 165.5,59.5 163.5,59.5 161.5,59.5C 161.5,57.5 161.5,55.5 161.5,53.5C 159.5,53.5 157.5,53.5 155.5,53.5C 155.5,51.5 155.5,49.5 155.5,47.5C 155.5,45.5 155.5,43.5 155.5,41.5 Z"/></g>
<g><path style="opacity:1" fill="#ad7213" d="M 161.5,35.5 C 163.5,35.5 165.5,35.5 167.5,35.5C 167.5,37.5 167.5,39.5 167.5,41.5C 169.5,41.5 171.5,41.5 173.5,41.5C 173.5,45.5 173.5,49.5 173.5,53.5C 171.5,53.5 169.5,53.5 167.5,53.5C 167.5,51.5 167.5,49.5 167.5,47.5C 165.5,47.5 163.5,47.5 161.5,47.5C 161.5,45.5 161.5,43.5 161.5,41.5C 161.5,39.5 161.5,37.5 161.5,35.5 Z"/></g>
<g><path style="opacity:1" fill="#fee478" d="M 173.5,41.5 C 175.5,41.5 177.5,41.5 179.5,41.5C 179.5,45.5 179.5,49.5 179.5,53.5C 177.5,53.5 175.5,53.5 173.5,53.5C 173.5,49.5 173.5,45.5 173.5,41.5 Z"/></g>
<g><path style="opacity:1" fill="#fef5ca" d="M 23.5,47.5 C 25.5,47.5 27.5,47.5 29.5,47.5C 29.5,49.5 29.5,51.5 29.5,53.5C 29.5,55.5 29.5,57.5 29.5,59.5C 27.5,59.5 25.5,59.5 23.5,59.5C 23.5,57.5 23.5,55.5 23.5,53.5C 23.5,51.5 23.5,49.5 23.5,47.5 Z"/></g>
<g><path style="opacity:1" fill="#edb827" d="M 29.5,47.5 C 31.5,47.5 33.5,47.5 35.5,47.5C 35.5,49.5 35.5,51.5 35.5,53.5C 33.5,53.5 31.5,53.5 29.5,53.5C 29.5,51.5 29.5,49.5 29.5,47.5 Z"/></g>
<g><path style="opacity:1" fill="#fee478" d="M 47.5,47.5 C 47.5,49.5 47.5,51.5 47.5,53.5C 45.5,53.5 43.5,53.5 41.5,53.5C 41.5,51.5 41.5,49.5 41.5,47.5C 43.5,47.5 45.5,47.5 47.5,47.5 Z"/></g>
<g><path style="opacity:1" fill="#c4851e" d="M 47.5,47.5 C 49.5,47.5 51.5,47.5 53.5,47.5C 53.5,49.5 53.5,51.5 53.5,53.5C 51.5,53.5 49.5,53.5 47.5,53.5C 47.5,51.5 47.5,49.5 47.5,47.5 Z"/></g>
<g><path style="opacity:1" fill="#edb827" d="M 53.5,47.5 C 55.5,47.5 57.5,47.5 59.5,47.5C 59.5,49.5 59.5,51.5 59.5,53.5C 57.5,53.5 55.5,53.5 53.5,53.5C 53.5,51.5 53.5,49.5 53.5,47.5 Z"/></g>
<g><path style="opacity:1" fill="#fee478" d="M 59.5,47.5 C 61.5,47.5 63.5,47.5 65.5,47.5C 65.5,49.5 65.5,51.5 65.5,53.5C 63.5,53.5 61.5,53.5 59.5,53.5C 59.5,51.5 59.5,49.5 59.5,47.5 Z"/></g>
<g><path style="opacity:1" fill="#edb827" d="M 143.5,47.5 C 145.5,47.5 147.5,47.5 149.5,47.5C 149.5,49.5 149.5,51.5 149.5,53.5C 147.5,53.5 145.5,53.5 143.5,53.5C 143.5,51.5 143.5,49.5 143.5,47.5 Z"/></g>
<g><path style="opacity:1" fill="#a66d0f" d="M 149.5,47.5 C 151.5,47.5 153.5,47.5 155.5,47.5C 155.5,49.5 155.5,51.5 155.5,53.5C 153.5,53.5 151.5,53.5 149.5,53.5C 149.5,51.5 149.5,49.5 149.5,47.5 Z"/></g>
<g><path style="opacity:1" fill="#fef5ca" d="M 11.5,53.5 C 11.5,57.5 11.5,61.5 11.5,65.5C 9.5,65.5 7.5,65.5 5.5,65.5C 5.5,61.5 5.5,57.5 5.5,53.5C 7.5,53.5 9.5,53.5 11.5,53.5 Z"/></g>
<g><path style="opacity:1" fill="#c4851e" d="M 11.5,53.5 C 13.5,53.5 15.5,53.5 17.5,53.5C 17.5,55.5 17.5,57.5 17.5,59.5C 17.5,63.5 17.5,67.5 17.5,71.5C 15.5,71.5 13.5,71.5 11.5,71.5C 11.5,69.5 11.5,67.5 11.5,65.5C 11.5,61.5 11.5,57.5 11.5,53.5 Z"/></g>
<g><path style="opacity:1" fill="#edb827" d="M 17.5,53.5 C 19.5,53.5 21.5,53.5 23.5,53.5C 23.5,55.5 23.5,57.5 23.5,59.5C 21.5,59.5 19.5,59.5 17.5,59.5C 17.5,57.5 17.5,55.5 17.5,53.5 Z"/></g>
<g><path style="opacity:1" fill="#c4851e" d="M 29.5,53.5 C 31.5,53.5 33.5,53.5 35.5,53.5C 35.5,55.5 35.5,57.5 35.5,59.5C 33.5,59.5 31.5,59.5 29.5,59.5C 29.5,57.5 29.5,55.5 29.5,53.5 Z"/></g>
<g><path style="opacity:1" fill="#fee478" d="M 35.5,53.5 C 37.5,53.5 39.5,53.5 41.5,53.5C 41.5,55.5 41.5,57.5 41.5,59.5C 39.5,59.5 37.5,59.5 35.5,59.5C 35.5,57.5 35.5,55.5 35.5,53.5 Z"/></g>
<g><path style="opacity:1" fill="#c4851e" d="M 41.5,53.5 C 43.5,53.5 45.5,53.5 47.5,53.5C 47.5,55.5 47.5,57.5 47.5,59.5C 45.5,59.5 43.5,59.5 41.5,59.5C 41.5,57.5 41.5,55.5 41.5,53.5 Z"/></g>
<g><path style="opacity:1" fill="#edb827" d="M 47.5,53.5 C 49.5,53.5 51.5,53.5 53.5,53.5C 53.5,55.5 53.5,57.5 53.5,59.5C 51.5,59.5 49.5,59.5 47.5,59.5C 47.5,57.5 47.5,55.5 47.5,53.5 Z"/></g>
<g><path style="opacity:1" fill="#fee478" d="M 53.5,53.5 C 55.5,53.5 57.5,53.5 59.5,53.5C 59.5,55.5 59.5,57.5 59.5,59.5C 57.5,59.5 55.5,59.5 53.5,59.5C 53.5,57.5 53.5,55.5 53.5,53.5 Z"/></g>
<g><path style="opacity:1" fill="#d59921" d="M 101.5,59.5 C 99.5,59.5 97.5,59.5 95.5,59.5C 91.5,59.5 87.5,59.5 83.5,59.5C 83.5,57.5 83.5,55.5 83.5,53.5C 89.5,53.5 95.5,53.5 101.5,53.5C 101.5,55.5 101.5,57.5 101.5,59.5 Z"/></g>
<g><path style="opacity:1" fill="#edb827" d="M 149.5,53.5 C 151.5,53.5 153.5,53.5 155.5,53.5C 155.5,55.5 155.5,57.5 155.5,59.5C 153.5,59.5 151.5,59.5 149.5,59.5C 149.5,57.5 149.5,55.5 149.5,53.5 Z"/></g>
<g><path style="opacity:1" fill="#a66d0f" d="M 155.5,53.5 C 157.5,53.5 159.5,53.5 161.5,53.5C 161.5,55.5 161.5,57.5 161.5,59.5C 159.5,59.5 157.5,59.5 155.5,59.5C 155.5,57.5 155.5,55.5 155.5,53.5 Z"/></g>
<g><path style="opacity:1" fill="#c4851e" d="M 167.5,53.5 C 169.5,53.5 171.5,53.5 173.5,53.5C 173.5,59.5 173.5,65.5 173.5,71.5C 175.5,71.5 177.5,71.5 179.5,71.5C 179.5,75.5 179.5,79.5 179.5,83.5C 177.5,83.5 175.5,83.5 173.5,83.5C 173.5,81.5 173.5,79.5 173.5,77.5C 171.5,77.5 169.5,77.5 167.5,77.5C 167.5,75.5 167.5,73.5 167.5,71.5C 167.5,67.5 167.5,63.5 167.5,59.5C 167.5,57.5 167.5,55.5 167.5,53.5 Z"/></g>
<g><path style="opacity:1" fill="#a66d0f" d="M 173.5,53.5 C 175.5,53.5 177.5,53.5 179.5,53.5C 179.5,57.5 179.5,61.5 179.5,65.5C 179.5,67.5 179.5,69.5 179.5,71.5C 177.5,71.5 175.5,71.5 173.5,71.5C 173.5,65.5 173.5,59.5 173.5,53.5 Z"/></g>
<g><path style="opacity:1" fill="#fee478" d="M 179.5,53.5 C 181.5,53.5 183.5,53.5 185.5,53.5C 185.5,57.5 185.5,61.5 185.5,65.5C 183.5,65.5 181.5,65.5 179.5,65.5C 179.5,61.5 179.5,57.5 179.5,53.5 Z"/></g>
<g><path style="opacity:1" fill="#fef5ca" d="M 17.5,59.5 C 19.5,59.5 21.5,59.5 23.5,59.5C 23.5,63.5 23.5,67.5 23.5,71.5C 23.5,73.5 23.5,75.5 23.5,77.5C 21.5,77.5 19.5,77.5 17.5,77.5C 17.5,75.5 17.5,73.5 17.5,71.5C 17.5,67.5 17.5,63.5 17.5,59.5 Z"/></g>
<g><path style="opacity:1" fill="#c4851e" d="M 23.5,59.5 C 25.5,59.5 27.5,59.5 29.5,59.5C 29.5,63.5 29.5,67.5 29.5,71.5C 27.5,71.5 25.5,71.5 23.5,71.5C 23.5,67.5 23.5,63.5 23.5,59.5 Z"/></g>
<g><path style="opacity:1" fill="#fee478" d="M 29.5,59.5 C 31.5,59.5 33.5,59.5 35.5,59.5C 35.5,63.5 35.5,67.5 35.5,71.5C 33.5,71.5 31.5,71.5 29.5,71.5C 29.5,67.5 29.5,63.5 29.5,59.5 Z"/></g>
<g><path style="opacity:1" fill="#c4851e" d="M 35.5,59.5 C 37.5,59.5 39.5,59.5 41.5,59.5C 41.5,61.5 41.5,63.5 41.5,65.5C 41.5,67.5 41.5,69.5 41.5,71.5C 39.5,71.5 37.5,71.5 35.5,71.5C 35.5,67.5 35.5,63.5 35.5,59.5 Z"/></g>
<g><path style="opacity:1" fill="#edb827" d="M 41.5,59.5 C 43.5,59.5 45.5,59.5 47.5,59.5C 47.5,61.5 47.5,63.5 47.5,65.5C 45.5,65.5 43.5,65.5 41.5,65.5C 41.5,63.5 41.5,61.5 41.5,59.5 Z"/></g>
<g><path style="opacity:1" fill="#fee478" d="M 47.5,59.5 C 49.5,59.5 51.5,59.5 53.5,59.5C 53.5,61.5 53.5,63.5 53.5,65.5C 51.5,65.5 49.5,65.5 47.5,65.5C 47.5,63.5 47.5,61.5 47.5,59.5 Z"/></g>
<g><path style="opacity:1" fill="#d59921" d="M 77.5,59.5 C 77.5,61.5 77.5,63.5 77.5,65.5C 75.5,65.5 73.5,65.5 71.5,65.5C 71.5,63.5 71.5,61.5 71.5,59.5C 73.5,59.5 75.5,59.5 77.5,59.5 Z"/></g>
<g><path style="opacity:1" fill="#fee478" d="M 77.5,59.5 C 79.5,59.5 81.5,59.5 83.5,59.5C 83.5,61.5 83.5,63.5 83.5,65.5C 81.5,65.5 79.5,65.5 77.5,65.5C 77.5,63.5 77.5,61.5 77.5,59.5 Z"/></g>
<g><path style="opacity:1" fill="#fefffe" d="M 83.5,59.5 C 87.5,59.5 91.5,59.5 95.5,59.5C 95.5,61.5 95.5,63.5 95.5,65.5C 93.5,65.5 91.5,65.5 89.5,65.5C 89.5,67.5 89.5,69.5 89.5,71.5C 87.5,71.5 85.5,71.5 83.5,71.5C 81.5,71.5 79.5,71.5 77.5,71.5C 77.5,73.5 77.5,75.5 77.5,77.5C 75.5,77.5 73.5,77.5 71.5,77.5C 71.5,79.5 71.5,81.5 71.5,83.5C 71.5,87.5 71.5,91.5 71.5,95.5C 71.5,99.5 71.5,103.5 71.5,107.5C 69.5,107.5 67.5,107.5 65.5,107.5C 65.5,105.5 65.5,103.5 65.5,101.5C 63.5,101.5 61.5,101.5 59.5,101.5C 59.5,95.5 59.5,89.5 59.5,83.5C 61.5,83.5 63.5,83.5 65.5,83.5C 65.5,81.5 65.5,79.5 65.5,77.5C 65.5,75.5 65.5,73.5 65.5,71.5C 67.5,71.5 69.5,71.5 71.5,71.5C 71.5,69.5 71.5,67.5 71.5,65.5C 73.5,65.5 75.5,65.5 77.5,65.5C 79.5,65.5 81.5,65.5 83.5,65.5C 83.5,63.5 83.5,61.5 83.5,59.5 Z"/></g>
<g><path style="opacity:1" fill="#fef5ca" d="M 95.5,59.5 C 97.5,59.5 99.5,59.5 101.5,59.5C 103.5,59.5 105.5,59.5 107.5,59.5C 109.5,59.5 111.5,59.5 113.5,59.5C 113.5,61.5 113.5,63.5 113.5,65.5C 113.5,67.5 113.5,69.5 113.5,71.5C 115.5,71.5 117.5,71.5 119.5,71.5C 119.5,73.5 119.5,75.5 119.5,77.5C 119.5,79.5 119.5,81.5 119.5,83.5C 117.5,83.5 115.5,83.5 113.5,83.5C 113.5,81.5 113.5,79.5 113.5,77.5C 111.5,77.5 109.5,77.5 107.5,77.5C 107.5,75.5 107.5,73.5 107.5,71.5C 105.5,71.5 103.5,71.5 101.5,71.5C 101.5,69.5 101.5,67.5 101.5,65.5C 99.5,65.5 97.5,65.5 95.5,65.5C 95.5,63.5 95.5,61.5 95.5,59.5 Z"/></g>
<g><path style="opacity:1" fill="#d59921" d="M 107.5,59.5 C 109.5,59.5 111.5,59.5 113.5,59.5C 113.5,61.5 113.5,63.5 113.5,65.5C 111.5,65.5 109.5,65.5 107.5,65.5C 107.5,63.5 107.5,61.5 107.5,59.5 Z"/></g>
<g><path style="opacity:1" fill="#c2831d" d="M 137.5,47.5 C 139.5,47.5 141.5,47.5 143.5,47.5C 143.5,49.5 143.5,51.5 143.5,53.5C 145.5,53.5 147.5,53.5 149.5,53.5C 149.5,55.5 149.5,57.5 149.5,59.5C 149.5,63.5 149.5,67.5 149.5,71.5C 151.5,71.5 153.5,71.5 155.5,71.5C 157.5,71.5 159.5,71.5 161.5,71.5C 161.5,73.5 161.5,75.5 161.5,77.5C 159.5,77.5 157.5,77.5 155.5,77.5C 155.5,81.5 155.5,85.5 155.5,89.5C 153.5,89.5 151.5,89.5 149.5,89.5C 149.5,91.5 149.5,93.5 149.5,95.5C 149.5,97.5 149.5,99.5 149.5,101.5C 151.5,101.5 153.5,101.5 155.5,101.5C 155.5,105.5 155.5,109.5 155.5,113.5C 157.5,113.5 159.5,113.5 161.5,113.5C 161.5,115.5 161.5,117.5 161.5,119.5C 159.5,119.5 157.5,119.5 155.5,119.5C 153.5,119.5 151.5,119.5 149.5,119.5C 149.5,123.5 149.5,127.5 149.5,131.5C 149.5,133.5 149.5,135.5 149.5,137.5C 147.5,137.5 145.5,137.5 143.5,137.5C 143.5,139.5 143.5,141.5 143.5,143.5C 141.5,143.5 139.5,143.5 137.5,143.5C 137.5,145.5 137.5,147.5 137.5,149.5C 135.5,149.5 133.5,149.5 131.5,149.5C 127.5,149.5 123.5,149.5 119.5,149.5C 119.5,151.5 119.5,153.5 119.5,155.5C 119.5,157.5 119.5,159.5 119.5,161.5C 117.5,161.5 115.5,161.5 113.5,161.5C 113.5,159.5 113.5,157.5 113.5,155.5C 109.5,155.5 105.5,155.5 101.5,155.5C 101.5,153.5 101.5,151.5 101.5,149.5C 99.5,149.5 97.5,149.5 95.5,149.5C 93.5,149.5 91.5,149.5 89.5,149.5C 89.5,151.5 89.5,153.5 89.5,155.5C 85.5,155.5 81.5,155.5 77.5,155.5C 77.5,157.5 77.5,159.5 77.5,161.5C 75.5,161.5 73.5,161.5 71.5,161.5C 71.5,159.5 71.5,157.5 71.5,155.5C 71.5,153.5 71.5,151.5 71.5,149.5C 67.5,149.5 63.5,149.5 59.5,149.5C 57.5,149.5 55.5,149.5 53.5,149.5C 53.5,147.5 53.5,145.5 53.5,143.5C 51.5,143.5 49.5,143.5 47.5,143.5C 47.5,141.5 47.5,139.5 47.5,137.5C 49.5,137.5 51.5,137.5 53.5,137.5C 53.5,135.5 53.5,133.5 53.5,131.5C 55.5,131.5 57.5,131.5 59.5,131.5C 59.5,129.5 59.5,127.5 59.5,125.5C 61.5,125.5 63.5,125.5 65.5,125.5C 65.5,123.5 65.5,121.5 65.5,119.5C 67.5,119.5 69.5,119.5 71.5,119.5C 71.5,121.5 71.5,123.5 71.5,125.5C 73.5,125.5 75.5,125.5 77.5,125.5C 77.5,127.5 77.5,129.5 77.5,131.5C 79.5,131.5 81.5,131.5 83.5,131.5C 83.5,133.5 83.5,135.5 83.5,137.5C 91.5,137.5 99.5,137.5 107.5,137.5C 107.5,135.5 107.5,133.5 107.5,131.5C 107.5,129.5 107.5,127.5 107.5,125.5C 109.5,125.5 111.5,125.5 113.5,125.5C 113.5,123.5 113.5,121.5 113.5,119.5C 115.5,119.5 117.5,119.5 119.5,119.5C 119.5,117.5 119.5,115.5 119.5,113.5C 121.5,113.5 123.5,113.5 125.5,113.5C 127.5,113.5 129.5,113.5 131.5,113.5C 131.5,109.5 131.5,105.5 131.5,101.5C 129.5,101.5 127.5,101.5 125.5,101.5C 125.5,99.5 125.5,97.5 125.5,95.5C 123.5,95.5 121.5,95.5 119.5,95.5C 119.5,97.5 119.5,99.5 119.5,101.5C 119.5,103.5 119.5,105.5 119.5,107.5C 117.5,107.5 115.5,107.5 113.5,107.5C 113.5,109.5 113.5,111.5 113.5,113.5C 111.5,113.5 109.5,113.5 107.5,113.5C 107.5,115.5 107.5,117.5 107.5,119.5C 99.5,119.5 91.5,119.5 83.5,119.5C 83.5,117.5 83.5,115.5 83.5,113.5C 81.5,113.5 79.5,113.5 77.5,113.5C 77.5,111.5 77.5,109.5 77.5,107.5C 81.5,107.5 85.5,107.5 89.5,107.5C 89.5,105.5 89.5,103.5 89.5,101.5C 91.5,101.5 93.5,101.5 95.5,101.5C 95.5,99.5 95.5,97.5 95.5,95.5C 97.5,95.5 99.5,95.5 101.5,95.5C 101.5,97.5 101.5,99.5 101.5,101.5C 103.5,101.5 105.5,101.5 107.5,101.5C 107.5,99.5 107.5,97.5 107.5,95.5C 109.5,95.5 111.5,95.5 113.5,95.5C 113.5,93.5 113.5,91.5 113.5,89.5C 111.5,89.5 109.5,89.5 107.5,89.5C 107.5,85.5 107.5,81.5 107.5,77.5C 109.5,77.5 111.5,77.5 113.5,77.5C 113.5,79.5 113.5,81.5 113.5,83.5C 115.5,83.5 117.5,83.5 119.5,83.5C 119.5,85.5 119.5,87.5 119.5,89.5C 121.5,89.5 123.5,89.5 125.5,89.5C 125.5,87.5 125.5,85.5 125.5,83.5C 125.5,81.5 125.5,79.5 125.5,77.5C 123.5,77.5 121.5,77.5 119.5,77.5C 119.5,75.5 119.5,73.5 119.5,71.5C 121.5,71.5 123.5,71.5 125.5,71.5C 125.5,69.5 125.5,67.5 125.5,65.5C 127.5,65.5 129.5,65.5 131.5,65.5C 131.5,63.5 131.5,61.5 131.5,59.5C 133.5,59.5 135.5,59.5 137.5,59.5C 137.5,55.5 137.5,51.5 137.5,47.5 Z"/></g>
<g><path style="opacity:1" fill="#a66d0f" d="M 149.5,59.5 C 151.5,59.5 153.5,59.5 155.5,59.5C 155.5,63.5 155.5,67.5 155.5,71.5C 153.5,71.5 151.5,71.5 149.5,71.5C 149.5,67.5 149.5,63.5 149.5,59.5 Z"/></g>
<g><path style="opacity:1" fill="#edb827" d="M 155.5,59.5 C 157.5,59.5 159.5,59.5 161.5,59.5C 161.5,63.5 161.5,67.5 161.5,71.5C 159.5,71.5 157.5,71.5 155.5,71.5C 155.5,67.5 155.5,63.5 155.5,59.5 Z"/></g>
<g><path style="opacity:1" fill="#a66d0f" d="M 161.5,59.5 C 163.5,59.5 165.5,59.5 167.5,59.5C 167.5,63.5 167.5,67.5 167.5,71.5C 165.5,71.5 163.5,71.5 161.5,71.5C 161.5,67.5 161.5,63.5 161.5,59.5 Z"/></g>
<g><path style="opacity:1" fill="#fee478" d="M 5.5,65.5 C 7.5,65.5 9.5,65.5 11.5,65.5C 11.5,67.5 11.5,69.5 11.5,71.5C 9.5,71.5 7.5,71.5 5.5,71.5C 5.5,69.5 5.5,67.5 5.5,65.5 Z"/></g>
<g><path style="opacity:1" fill="#fee478" d="M 41.5,65.5 C 43.5,65.5 45.5,65.5 47.5,65.5C 47.5,69.5 47.5,73.5 47.5,77.5C 45.5,77.5 43.5,77.5 41.5,77.5C 41.5,75.5 41.5,73.5 41.5,71.5C 41.5,69.5 41.5,67.5 41.5,65.5 Z"/></g>
<g><path style="opacity:1" fill="#d59921" d="M 71.5,65.5 C 71.5,67.5 71.5,69.5 71.5,71.5C 69.5,71.5 67.5,71.5 65.5,71.5C 65.5,69.5 65.5,67.5 65.5,65.5C 67.5,65.5 69.5,65.5 71.5,65.5 Z"/></g>
<g><path style="opacity:1" fill="#fee478" d="M 95.5,65.5 C 97.5,65.5 99.5,65.5 101.5,65.5C 101.5,67.5 101.5,69.5 101.5,71.5C 99.5,71.5 97.5,71.5 95.5,71.5C 93.5,71.5 91.5,71.5 89.5,71.5C 89.5,69.5 89.5,67.5 89.5,65.5C 91.5,65.5 93.5,65.5 95.5,65.5 Z"/></g>
<g><path style="opacity:1" fill="#edb827" d="M 179.5,65.5 C 181.5,65.5 183.5,65.5 185.5,65.5C 185.5,67.5 185.5,69.5 185.5,71.5C 183.5,71.5 181.5,71.5 179.5,71.5C 179.5,69.5 179.5,67.5 179.5,65.5 Z"/></g>
<g><path style="opacity:1" fill="#fef5ca" d="M -0.5,71.5 C 1.5,71.5 3.5,71.5 5.5,71.5C 5.5,75.5 5.5,79.5 5.5,83.5C 5.5,85.5 5.5,87.5 5.5,89.5C 3.5,89.5 1.5,89.5 -0.5,89.5C -0.5,83.5 -0.5,77.5 -0.5,71.5 Z"/></g>
<g><path style="opacity:1" fill="#c4851e" d="M 5.5,71.5 C 7.5,71.5 9.5,71.5 11.5,71.5C 11.5,73.5 11.5,75.5 11.5,77.5C 11.5,79.5 11.5,81.5 11.5,83.5C 9.5,83.5 7.5,83.5 5.5,83.5C 5.5,79.5 5.5,75.5 5.5,71.5 Z"/></g>
<g><path style="opacity:1" fill="#edb827" d="M 11.5,71.5 C 13.5,71.5 15.5,71.5 17.5,71.5C 17.5,73.5 17.5,75.5 17.5,77.5C 15.5,77.5 13.5,77.5 11.5,77.5C 11.5,75.5 11.5,73.5 11.5,71.5 Z"/></g>
<g><path style="opacity:1" fill="#fee478" d="M 23.5,71.5 C 25.5,71.5 27.5,71.5 29.5,71.5C 29.5,77.5 29.5,83.5 29.5,89.5C 27.5,89.5 25.5,89.5 23.5,89.5C 23.5,85.5 23.5,81.5 23.5,77.5C 23.5,75.5 23.5,73.5 23.5,71.5 Z"/></g>
<g><path style="opacity:1" fill="#d59921" d="M 65.5,71.5 C 65.5,73.5 65.5,75.5 65.5,77.5C 63.5,77.5 61.5,77.5 59.5,77.5C 59.5,75.5 59.5,73.5 59.5,71.5C 61.5,71.5 63.5,71.5 65.5,71.5 Z"/></g>
<g><path style="opacity:1" fill="#fee478" d="M 83.5,71.5 C 83.5,73.5 83.5,75.5 83.5,77.5C 81.5,77.5 79.5,77.5 77.5,77.5C 77.5,75.5 77.5,73.5 77.5,71.5C 79.5,71.5 81.5,71.5 83.5,71.5 Z"/></g>
<g><path style="opacity:1" fill="#a66d0f" d="M 83.5,71.5 C 85.5,71.5 87.5,71.5 89.5,71.5C 91.5,71.5 93.5,71.5 95.5,71.5C 95.5,73.5 95.5,75.5 95.5,77.5C 91.5,77.5 87.5,77.5 83.5,77.5C 83.5,75.5 83.5,73.5 83.5,71.5 Z"/></g>
<g><path style="opacity:1" fill="#d09221" d="M 95.5,71.5 C 97.5,71.5 99.5,71.5 101.5,71.5C 103.5,71.5 105.5,71.5 107.5,71.5C 107.5,73.5 107.5,75.5 107.5,77.5C 103.5,77.5 99.5,77.5 95.5,77.5C 95.5,75.5 95.5,73.5 95.5,71.5 Z"/></g>
<g><path style="opacity:1" fill="#edb827" d="M 161.5,71.5 C 163.5,71.5 165.5,71.5 167.5,71.5C 167.5,73.5 167.5,75.5 167.5,77.5C 167.5,79.5 167.5,81.5 167.5,83.5C 165.5,83.5 163.5,83.5 161.5,83.5C 161.5,81.5 161.5,79.5 161.5,77.5C 161.5,75.5 161.5,73.5 161.5,71.5 Z"/></g>
<g><path style="opacity:1" fill="#a66d0f" d="M 179.5,71.5 C 181.5,71.5 183.5,71.5 185.5,71.5C 185.5,87.5 185.5,103.5 185.5,119.5C 183.5,119.5 181.5,119.5 179.5,119.5C 179.5,115.5 179.5,111.5 179.5,107.5C 179.5,99.5 179.5,91.5 179.5,83.5C 179.5,79.5 179.5,75.5 179.5,71.5 Z"/></g>
<g><path style="opacity:1" fill="#edb827" d="M 185.5,71.5 C 187.5,71.5 189.5,71.5 191.5,71.5C 191.5,87.5 191.5,103.5 191.5,119.5C 189.5,119.5 187.5,119.5 185.5,119.5C 185.5,103.5 185.5,87.5 185.5,71.5 Z"/></g>
<g><path style="opacity:1" fill="#fef5ca" d="M 11.5,77.5 C 13.5,77.5 15.5,77.5 17.5,77.5C 17.5,87.5 17.5,97.5 17.5,107.5C 17.5,109.5 17.5,111.5 17.5,113.5C 15.5,113.5 13.5,113.5 11.5,113.5C 11.5,111.5 11.5,109.5 11.5,107.5C 11.5,99.5 11.5,91.5 11.5,83.5C 11.5,81.5 11.5,79.5 11.5,77.5 Z"/></g>
<g><path style="opacity:1" fill="#d39621" d="M 17.5,77.5 C 19.5,77.5 21.5,77.5 23.5,77.5C 23.5,81.5 23.5,85.5 23.5,89.5C 23.5,91.5 23.5,93.5 23.5,95.5C 25.5,95.5 27.5,95.5 29.5,95.5C 29.5,97.5 29.5,99.5 29.5,101.5C 27.5,101.5 25.5,101.5 23.5,101.5C 23.5,103.5 23.5,105.5 23.5,107.5C 21.5,107.5 19.5,107.5 17.5,107.5C 17.5,97.5 17.5,87.5 17.5,77.5 Z"/></g>
<g><path style="opacity:1" fill="#c9891f" d="M 29.5,71.5 C 31.5,71.5 33.5,71.5 35.5,71.5C 35.5,77.5 35.5,83.5 35.5,89.5C 33.5,89.5 31.5,89.5 29.5,89.5C 29.5,83.5 29.5,77.5 29.5,71.5 Z"/></g>
<g><path style="opacity:1" fill="#fee478" d="M 59.5,77.5 C 61.5,77.5 63.5,77.5 65.5,77.5C 65.5,79.5 65.5,81.5 65.5,83.5C 63.5,83.5 61.5,83.5 59.5,83.5C 59.5,81.5 59.5,79.5 59.5,77.5 Z"/></g>
<g><path style="opacity:1" fill="#fee478" d="M 77.5,77.5 C 77.5,79.5 77.5,81.5 77.5,83.5C 75.5,83.5 73.5,83.5 71.5,83.5C 71.5,81.5 71.5,79.5 71.5,77.5C 73.5,77.5 75.5,77.5 77.5,77.5 Z"/></g>
<g><path style="opacity:1" fill="#a66d0f" d="M 77.5,77.5 C 79.5,77.5 81.5,77.5 83.5,77.5C 83.5,79.5 83.5,81.5 83.5,83.5C 81.5,83.5 79.5,83.5 77.5,83.5C 77.5,81.5 77.5,79.5 77.5,77.5 Z"/></g>
<g><path style="opacity:1" fill="#edb827" d="M 83.5,77.5 C 87.5,77.5 91.5,77.5 95.5,77.5C 99.5,77.5 103.5,77.5 107.5,77.5C 107.5,81.5 107.5,85.5 107.5,89.5C 105.5,89.5 103.5,89.5 101.5,89.5C 101.5,87.5 101.5,85.5 101.5,83.5C 99.5,83.5 97.5,83.5 95.5,83.5C 95.5,85.5 95.5,87.5 95.5,89.5C 93.5,89.5 91.5,89.5 89.5,89.5C 89.5,91.5 89.5,93.5 89.5,95.5C 87.5,95.5 85.5,95.5 83.5,95.5C 83.5,97.5 83.5,99.5 83.5,101.5C 85.5,101.5 87.5,101.5 89.5,101.5C 89.5,103.5 89.5,105.5 89.5,107.5C 85.5,107.5 81.5,107.5 77.5,107.5C 77.5,103.5 77.5,99.5 77.5,95.5C 77.5,91.5 77.5,87.5 77.5,83.5C 79.5,83.5 81.5,83.5 83.5,83.5C 83.5,81.5 83.5,79.5 83.5,77.5 Z"/></g>
<g><path style="opacity:1" fill="#fee478" d="M 119.5,77.5 C 121.5,77.5 123.5,77.5 125.5,77.5C 125.5,79.5 125.5,81.5 125.5,83.5C 123.5,83.5 121.5,83.5 119.5,83.5C 119.5,81.5 119.5,79.5 119.5,77.5 Z"/></g>
<g><path style="opacity:1" fill="#ab7012" d="M 161.5,77.5 C 161.5,79.5 161.5,81.5 161.5,83.5C 163.5,83.5 165.5,83.5 167.5,83.5C 167.5,81.5 167.5,79.5 167.5,77.5C 169.5,77.5 171.5,77.5 173.5,77.5C 173.5,79.5 173.5,81.5 173.5,83.5C 173.5,91.5 173.5,99.5 173.5,107.5C 173.5,109.5 173.5,111.5 173.5,113.5C 171.5,113.5 169.5,113.5 167.5,113.5C 167.5,109.5 167.5,105.5 167.5,101.5C 165.5,101.5 163.5,101.5 161.5,101.5C 161.5,105.5 161.5,109.5 161.5,113.5C 159.5,113.5 157.5,113.5 155.5,113.5C 155.5,109.5 155.5,105.5 155.5,101.5C 153.5,101.5 151.5,101.5 149.5,101.5C 149.5,99.5 149.5,97.5 149.5,95.5C 153.5,95.5 157.5,95.5 161.5,95.5C 163.5,95.5 165.5,95.5 167.5,95.5C 167.5,93.5 167.5,91.5 167.5,89.5C 165.5,89.5 163.5,89.5 161.5,89.5C 159.5,89.5 157.5,89.5 155.5,89.5C 155.5,85.5 155.5,81.5 155.5,77.5C 157.5,77.5 159.5,77.5 161.5,77.5 Z"/></g>
<g><path style="opacity:1" fill="#edb827" d="M 5.5,83.5 C 7.5,83.5 9.5,83.5 11.5,83.5C 11.5,91.5 11.5,99.5 11.5,107.5C 9.5,107.5 7.5,107.5 5.5,107.5C 5.5,111.5 5.5,115.5 5.5,119.5C 3.5,119.5 1.5,119.5 -0.5,119.5C -0.5,113.5 -0.5,107.5 -0.5,101.5C 1.5,101.5 3.5,101.5 5.5,101.5C 5.5,97.5 5.5,93.5 5.5,89.5C 5.5,87.5 5.5,85.5 5.5,83.5 Z"/></g>
<g><path style="opacity:1" fill="#a66d0f" d="M 71.5,83.5 C 73.5,83.5 75.5,83.5 77.5,83.5C 77.5,87.5 77.5,91.5 77.5,95.5C 75.5,95.5 73.5,95.5 71.5,95.5C 71.5,91.5 71.5,87.5 71.5,83.5 Z"/></g>
<g><path style="opacity:1" fill="#c4851e" d="M 101.5,89.5 C 99.5,89.5 97.5,89.5 95.5,89.5C 95.5,87.5 95.5,85.5 95.5,83.5C 97.5,83.5 99.5,83.5 101.5,83.5C 101.5,85.5 101.5,87.5 101.5,89.5 Z"/></g>
<g><path style="opacity:1" fill="#fef5ca" d="M 119.5,83.5 C 121.5,83.5 123.5,83.5 125.5,83.5C 125.5,85.5 125.5,87.5 125.5,89.5C 123.5,89.5 121.5,89.5 119.5,89.5C 119.5,87.5 119.5,85.5 119.5,83.5 Z"/></g>
<g><path style="opacity:1" fill="#edb827" d="M 173.5,83.5 C 175.5,83.5 177.5,83.5 179.5,83.5C 179.5,91.5 179.5,99.5 179.5,107.5C 177.5,107.5 175.5,107.5 173.5,107.5C 173.5,99.5 173.5,91.5 173.5,83.5 Z"/></g>
<g><path style="opacity:1" fill="#fee478" d="M -0.5,89.5 C 1.5,89.5 3.5,89.5 5.5,89.5C 5.5,93.5 5.5,97.5 5.5,101.5C 3.5,101.5 1.5,101.5 -0.5,101.5C -0.5,97.5 -0.5,93.5 -0.5,89.5 Z"/></g>
<g><path style="opacity:1" fill="#fef5ca" d="M 23.5,89.5 C 25.5,89.5 27.5,89.5 29.5,89.5C 31.5,89.5 33.5,89.5 35.5,89.5C 35.5,91.5 35.5,93.5 35.5,95.5C 33.5,95.5 31.5,95.5 29.5,95.5C 27.5,95.5 25.5,95.5 23.5,95.5C 23.5,93.5 23.5,91.5 23.5,89.5 Z"/></g>
<g><path style="opacity:1" fill="#fee478" d="M 35.5,89.5 C 37.5,89.5 39.5,89.5 41.5,89.5C 41.5,91.5 41.5,93.5 41.5,95.5C 39.5,95.5 37.5,95.5 35.5,95.5C 35.5,93.5 35.5,91.5 35.5,89.5 Z"/></g>
<g><path style="opacity:1" fill="#cb8c20" d="M 59.5,83.5 C 59.5,89.5 59.5,95.5 59.5,101.5C 59.5,103.5 59.5,105.5 59.5,107.5C 57.5,107.5 55.5,107.5 53.5,107.5C 53.5,99.5 53.5,91.5 53.5,83.5C 55.5,83.5 57.5,83.5 59.5,83.5 Z"/></g>
<g><path style="opacity:1" fill="#c4851e" d="M 95.5,89.5 C 95.5,91.5 95.5,93.5 95.5,95.5C 93.5,95.5 91.5,95.5 89.5,95.5C 89.5,93.5 89.5,91.5 89.5,89.5C 91.5,89.5 93.5,89.5 95.5,89.5 Z"/></g>
<g><path style="opacity:1" fill="#edb827" d="M 95.5,89.5 C 97.5,89.5 99.5,89.5 101.5,89.5C 101.5,91.5 101.5,93.5 101.5,95.5C 99.5,95.5 97.5,95.5 95.5,95.5C 95.5,93.5 95.5,91.5 95.5,89.5 Z"/></g>
<g><path style="opacity:1" fill="#c4851e" d="M 101.5,89.5 C 103.5,89.5 105.5,89.5 107.5,89.5C 107.5,91.5 107.5,93.5 107.5,95.5C 105.5,95.5 103.5,95.5 101.5,95.5C 101.5,93.5 101.5,91.5 101.5,89.5 Z"/></g>
<g><path style="opacity:1" fill="#edb827" d="M 107.5,89.5 C 109.5,89.5 111.5,89.5 113.5,89.5C 113.5,91.5 113.5,93.5 113.5,95.5C 111.5,95.5 109.5,95.5 107.5,95.5C 107.5,93.5 107.5,91.5 107.5,89.5 Z"/></g>
<g><path style="opacity:1" fill="#fef5ca" d="M 155.5,89.5 C 157.5,89.5 159.5,89.5 161.5,89.5C 161.5,91.5 161.5,93.5 161.5,95.5C 157.5,95.5 153.5,95.5 149.5,95.5C 149.5,93.5 149.5,91.5 149.5,89.5C 151.5,89.5 153.5,89.5 155.5,89.5 Z"/></g>
<g><path style="opacity:1" fill="#fee478" d="M 161.5,89.5 C 163.5,89.5 165.5,89.5 167.5,89.5C 167.5,91.5 167.5,93.5 167.5,95.5C 165.5,95.5 163.5,95.5 161.5,95.5C 161.5,93.5 161.5,91.5 161.5,89.5 Z"/></g>
<g><path style="opacity:1" fill="#c7881f" d="M 29.5,95.5 C 31.5,95.5 33.5,95.5 35.5,95.5C 37.5,95.5 39.5,95.5 41.5,95.5C 41.5,97.5 41.5,99.5 41.5,101.5C 39.5,101.5 37.5,101.5 35.5,101.5C 35.5,107.5 35.5,113.5 35.5,119.5C 33.5,119.5 31.5,119.5 29.5,119.5C 29.5,117.5 29.5,115.5 29.5,113.5C 29.5,109.5 29.5,105.5 29.5,101.5C 29.5,99.5 29.5,97.5 29.5,95.5 Z"/></g>
<g><path style="opacity:1" fill="#c4851e" d="M 89.5,95.5 C 89.5,97.5 89.5,99.5 89.5,101.5C 87.5,101.5 85.5,101.5 83.5,101.5C 83.5,99.5 83.5,97.5 83.5,95.5C 85.5,95.5 87.5,95.5 89.5,95.5 Z"/></g>
<g><path style="opacity:1" fill="#edb827" d="M 89.5,95.5 C 91.5,95.5 93.5,95.5 95.5,95.5C 95.5,97.5 95.5,99.5 95.5,101.5C 93.5,101.5 91.5,101.5 89.5,101.5C 89.5,99.5 89.5,97.5 89.5,95.5 Z"/></g>
<g><path style="opacity:1" fill="#edb827" d="M 101.5,95.5 C 103.5,95.5 105.5,95.5 107.5,95.5C 107.5,97.5 107.5,99.5 107.5,101.5C 105.5,101.5 103.5,101.5 101.5,101.5C 101.5,99.5 101.5,97.5 101.5,95.5 Z"/></g>
<g><path style="opacity:1" fill="#fee478" d="M 125.5,101.5 C 123.5,101.5 121.5,101.5 119.5,101.5C 119.5,99.5 119.5,97.5 119.5,95.5C 121.5,95.5 123.5,95.5 125.5,95.5C 125.5,97.5 125.5,99.5 125.5,101.5 Z"/></g>
<g><path style="opacity:1" fill="#fee478" d="M 29.5,101.5 C 29.5,105.5 29.5,109.5 29.5,113.5C 27.5,113.5 25.5,113.5 23.5,113.5C 23.5,111.5 23.5,109.5 23.5,107.5C 23.5,105.5 23.5,103.5 23.5,101.5C 25.5,101.5 27.5,101.5 29.5,101.5 Z"/></g>
<g><path style="opacity:1" fill="#fef5ca" d="M 59.5,101.5 C 61.5,101.5 63.5,101.5 65.5,101.5C 65.5,103.5 65.5,105.5 65.5,107.5C 63.5,107.5 61.5,107.5 59.5,107.5C 59.5,105.5 59.5,103.5 59.5,101.5 Z"/></g>
<g><path style="opacity:1" fill="#d09221" d="M 71.5,95.5 C 73.5,95.5 75.5,95.5 77.5,95.5C 77.5,99.5 77.5,103.5 77.5,107.5C 75.5,107.5 73.5,107.5 71.5,107.5C 71.5,103.5 71.5,99.5 71.5,95.5 Z"/></g>
<g><path style="opacity:1" fill="#fef5ca" d="M 119.5,101.5 C 121.5,101.5 123.5,101.5 125.5,101.5C 125.5,103.5 125.5,105.5 125.5,107.5C 123.5,107.5 121.5,107.5 119.5,107.5C 119.5,105.5 119.5,103.5 119.5,101.5 Z"/></g>
<g><path style="opacity:1" fill="#a66d0f" d="M 125.5,101.5 C 127.5,101.5 129.5,101.5 131.5,101.5C 131.5,105.5 131.5,109.5 131.5,113.5C 129.5,113.5 127.5,113.5 125.5,113.5C 125.5,111.5 125.5,109.5 125.5,107.5C 125.5,105.5 125.5,103.5 125.5,101.5 Z"/></g>
<g><path style="opacity:1" fill="#edb827" d="M 167.5,113.5 C 167.5,115.5 167.5,117.5 167.5,119.5C 165.5,119.5 163.5,119.5 161.5,119.5C 161.5,117.5 161.5,115.5 161.5,113.5C 161.5,109.5 161.5,105.5 161.5,101.5C 163.5,101.5 165.5,101.5 167.5,101.5C 167.5,105.5 167.5,109.5 167.5,113.5 Z"/></g>
<g><path style="opacity:1" fill="#edb827" d="M 17.5,107.5 C 19.5,107.5 21.5,107.5 23.5,107.5C 23.5,109.5 23.5,111.5 23.5,113.5C 21.5,113.5 19.5,113.5 17.5,113.5C 17.5,111.5 17.5,109.5 17.5,107.5 Z"/></g>
<g><path style="opacity:1" fill="#fee478" d="M 59.5,107.5 C 61.5,107.5 63.5,107.5 65.5,107.5C 65.5,109.5 65.5,111.5 65.5,113.5C 63.5,113.5 61.5,113.5 59.5,113.5C 59.5,111.5 59.5,109.5 59.5,107.5 Z"/></g>
<g><path style="opacity:1" fill="#fef5ca" d="M 65.5,107.5 C 67.5,107.5 69.5,107.5 71.5,107.5C 71.5,109.5 71.5,111.5 71.5,113.5C 73.5,113.5 75.5,113.5 77.5,113.5C 79.5,113.5 81.5,113.5 83.5,113.5C 83.5,115.5 83.5,117.5 83.5,119.5C 83.5,121.5 83.5,123.5 83.5,125.5C 81.5,125.5 79.5,125.5 77.5,125.5C 75.5,125.5 73.5,125.5 71.5,125.5C 71.5,123.5 71.5,121.5 71.5,119.5C 69.5,119.5 67.5,119.5 65.5,119.5C 65.5,117.5 65.5,115.5 65.5,113.5C 65.5,111.5 65.5,109.5 65.5,107.5 Z"/></g>
<g><path style="opacity:1" fill="#fee478" d="M 71.5,107.5 C 73.5,107.5 75.5,107.5 77.5,107.5C 77.5,109.5 77.5,111.5 77.5,113.5C 75.5,113.5 73.5,113.5 71.5,113.5C 71.5,111.5 71.5,109.5 71.5,107.5 Z"/></g>
<g><path style="opacity:1" fill="#edb827" d="M 89.5,107.5 C 91.5,107.5 93.5,107.5 95.5,107.5C 95.5,109.5 95.5,111.5 95.5,113.5C 93.5,113.5 91.5,113.5 89.5,113.5C 89.5,111.5 89.5,109.5 89.5,107.5 Z"/></g>
<g><path style="opacity:1" fill="#fef5ca" d="M 119.5,107.5 C 119.5,109.5 119.5,111.5 119.5,113.5C 119.5,115.5 119.5,117.5 119.5,119.5C 117.5,119.5 115.5,119.5 113.5,119.5C 113.5,117.5 113.5,115.5 113.5,113.5C 113.5,111.5 113.5,109.5 113.5,107.5C 115.5,107.5 117.5,107.5 119.5,107.5 Z"/></g>
<g><path style="opacity:1" fill="#fee478" d="M 119.5,107.5 C 121.5,107.5 123.5,107.5 125.5,107.5C 125.5,109.5 125.5,111.5 125.5,113.5C 123.5,113.5 121.5,113.5 119.5,113.5C 119.5,111.5 119.5,109.5 119.5,107.5 Z"/></g>
<g><path style="opacity:1" fill="#fef5ca" d="M 17.5,113.5 C 19.5,113.5 21.5,113.5 23.5,113.5C 25.5,113.5 27.5,113.5 29.5,113.5C 29.5,115.5 29.5,117.5 29.5,119.5C 27.5,119.5 25.5,119.5 23.5,119.5C 21.5,119.5 19.5,119.5 17.5,119.5C 17.5,117.5 17.5,115.5 17.5,113.5 Z"/></g>
<g><path style="opacity:1" fill="#fee478" d="M 77.5,113.5 C 79.5,113.5 81.5,113.5 83.5,113.5C 83.5,115.5 83.5,117.5 83.5,119.5C 81.5,119.5 79.5,119.5 77.5,119.5C 77.5,117.5 77.5,115.5 77.5,113.5 Z"/></g>
<g><path style="opacity:1" fill="#fee478" d="M 113.5,113.5 C 113.5,115.5 113.5,117.5 113.5,119.5C 111.5,119.5 109.5,119.5 107.5,119.5C 107.5,117.5 107.5,115.5 107.5,113.5C 109.5,113.5 111.5,113.5 113.5,113.5 Z"/></g>
<g><path style="opacity:1" fill="#edb827" d="M 5.5,119.5 C 7.5,119.5 9.5,119.5 11.5,119.5C 11.5,125.5 11.5,131.5 11.5,137.5C 9.5,137.5 7.5,137.5 5.5,137.5C 5.5,131.5 5.5,125.5 5.5,119.5 Z"/></g>
<g><path style="opacity:1" fill="#c6861f" d="M 11.5,107.5 C 11.5,109.5 11.5,111.5 11.5,113.5C 13.5,113.5 15.5,113.5 17.5,113.5C 17.5,115.5 17.5,117.5 17.5,119.5C 17.5,121.5 17.5,123.5 17.5,125.5C 17.5,129.5 17.5,133.5 17.5,137.5C 15.5,137.5 13.5,137.5 11.5,137.5C 11.5,131.5 11.5,125.5 11.5,119.5C 9.5,119.5 7.5,119.5 5.5,119.5C 5.5,115.5 5.5,111.5 5.5,107.5C 7.5,107.5 9.5,107.5 11.5,107.5 Z"/></g>
<g><path style="opacity:1" fill="#fee478" d="M 17.5,119.5 C 19.5,119.5 21.5,119.5 23.5,119.5C 23.5,121.5 23.5,123.5 23.5,125.5C 21.5,125.5 19.5,125.5 17.5,125.5C 17.5,123.5 17.5,121.5 17.5,119.5 Z"/></g>
<g><path style="opacity:1" fill="#c4851e" d="M 23.5,119.5 C 25.5,119.5 27.5,119.5 29.5,119.5C 29.5,123.5 29.5,127.5 29.5,131.5C 27.5,131.5 25.5,131.5 23.5,131.5C 23.5,129.5 23.5,127.5 23.5,125.5C 23.5,123.5 23.5,121.5 23.5,119.5 Z"/></g>
<g><path style="opacity:1" fill="#fee478" d="M 29.5,119.5 C 31.5,119.5 33.5,119.5 35.5,119.5C 35.5,123.5 35.5,127.5 35.5,131.5C 33.5,131.5 31.5,131.5 29.5,131.5C 29.5,127.5 29.5,123.5 29.5,119.5 Z"/></g>
<g><path style="opacity:1" fill="#c4851e" d="M 35.5,119.5 C 37.5,119.5 39.5,119.5 41.5,119.5C 41.5,123.5 41.5,127.5 41.5,131.5C 39.5,131.5 37.5,131.5 35.5,131.5C 35.5,127.5 35.5,123.5 35.5,119.5 Z"/></g>
<g><path style="opacity:1" fill="#fee478" d="M 83.5,119.5 C 91.5,119.5 99.5,119.5 107.5,119.5C 107.5,121.5 107.5,123.5 107.5,125.5C 99.5,125.5 91.5,125.5 83.5,125.5C 83.5,123.5 83.5,121.5 83.5,119.5 Z"/></g>
<g><path style="opacity:1" fill="#fef5ca" d="M 107.5,119.5 C 109.5,119.5 111.5,119.5 113.5,119.5C 113.5,121.5 113.5,123.5 113.5,125.5C 111.5,125.5 109.5,125.5 107.5,125.5C 107.5,123.5 107.5,121.5 107.5,119.5 Z"/></g>
<g><path style="opacity:1" fill="#a66d0f" d="M 155.5,119.5 C 155.5,123.5 155.5,127.5 155.5,131.5C 153.5,131.5 151.5,131.5 149.5,131.5C 149.5,127.5 149.5,123.5 149.5,119.5C 151.5,119.5 153.5,119.5 155.5,119.5 Z"/></g>
<g><path style="opacity:1" fill="#edb827" d="M 155.5,119.5 C 157.5,119.5 159.5,119.5 161.5,119.5C 161.5,123.5 161.5,127.5 161.5,131.5C 159.5,131.5 157.5,131.5 155.5,131.5C 155.5,127.5 155.5,123.5 155.5,119.5 Z"/></g>
<g><path style="opacity:1" fill="#a66d0f" d="M 179.5,119.5 C 179.5,121.5 179.5,123.5 179.5,125.5C 179.5,129.5 179.5,133.5 179.5,137.5C 177.5,137.5 175.5,137.5 173.5,137.5C 173.5,133.5 173.5,129.5 173.5,125.5C 173.5,123.5 173.5,121.5 173.5,119.5C 175.5,119.5 177.5,119.5 179.5,119.5 Z"/></g>
<g><path style="opacity:1" fill="#edb827" d="M 179.5,119.5 C 181.5,119.5 183.5,119.5 185.5,119.5C 185.5,121.5 185.5,123.5 185.5,125.5C 183.5,125.5 181.5,125.5 179.5,125.5C 179.5,123.5 179.5,121.5 179.5,119.5 Z"/></g>
<g><path style="opacity:1" fill="#edb827" d="M 17.5,125.5 C 19.5,125.5 21.5,125.5 23.5,125.5C 23.5,127.5 23.5,129.5 23.5,131.5C 23.5,133.5 23.5,135.5 23.5,137.5C 21.5,137.5 19.5,137.5 17.5,137.5C 17.5,133.5 17.5,129.5 17.5,125.5 Z"/></g>
<g><path style="opacity:1" fill="#fee478" d="M 77.5,125.5 C 79.5,125.5 81.5,125.5 83.5,125.5C 83.5,127.5 83.5,129.5 83.5,131.5C 81.5,131.5 79.5,131.5 77.5,131.5C 77.5,129.5 77.5,127.5 77.5,125.5 Z"/></g>
<g><path style="opacity:1" fill="#fef5ca" d="M 83.5,125.5 C 91.5,125.5 99.5,125.5 107.5,125.5C 107.5,127.5 107.5,129.5 107.5,131.5C 99.5,131.5 91.5,131.5 83.5,131.5C 83.5,129.5 83.5,127.5 83.5,125.5 Z"/></g>
<g><path style="opacity:1" fill="#edb827" d="M 173.5,125.5 C 173.5,129.5 173.5,133.5 173.5,137.5C 171.5,137.5 169.5,137.5 167.5,137.5C 167.5,133.5 167.5,129.5 167.5,125.5C 169.5,125.5 171.5,125.5 173.5,125.5 Z"/></g>
<g><path style="opacity:1" fill="#fee478" d="M 179.5,125.5 C 181.5,125.5 183.5,125.5 185.5,125.5C 185.5,129.5 185.5,133.5 185.5,137.5C 183.5,137.5 181.5,137.5 179.5,137.5C 179.5,133.5 179.5,129.5 179.5,125.5 Z"/></g>
<g><path style="opacity:1" fill="#fef5ca" d="M 23.5,131.5 C 25.5,131.5 27.5,131.5 29.5,131.5C 29.5,133.5 29.5,135.5 29.5,137.5C 27.5,137.5 25.5,137.5 23.5,137.5C 23.5,135.5 23.5,133.5 23.5,131.5 Z"/></g>
<g><path style="opacity:1" fill="#c4851e" d="M 29.5,131.5 C 31.5,131.5 33.5,131.5 35.5,131.5C 35.5,133.5 35.5,135.5 35.5,137.5C 33.5,137.5 31.5,137.5 29.5,137.5C 29.5,135.5 29.5,133.5 29.5,131.5 Z"/></g>
<g><path style="opacity:1" fill="#fee478" d="M 35.5,131.5 C 37.5,131.5 39.5,131.5 41.5,131.5C 41.5,133.5 41.5,135.5 41.5,137.5C 39.5,137.5 37.5,137.5 35.5,137.5C 35.5,135.5 35.5,133.5 35.5,131.5 Z"/></g>
<g><path style="opacity:1" fill="#c4851e" d="M 41.5,131.5 C 43.5,131.5 45.5,131.5 47.5,131.5C 47.5,133.5 47.5,135.5 47.5,137.5C 45.5,137.5 43.5,137.5 41.5,137.5C 41.5,135.5 41.5,133.5 41.5,131.5 Z"/></g>
<g><path style="opacity:1" fill="#a66d0f" d="M 83.5,131.5 C 91.5,131.5 99.5,131.5 107.5,131.5C 107.5,133.5 107.5,135.5 107.5,137.5C 99.5,137.5 91.5,137.5 83.5,137.5C 83.5,135.5 83.5,133.5 83.5,131.5 Z"/></g>
<g><path style="opacity:1" fill="#edb827" d="M 149.5,131.5 C 151.5,131.5 153.5,131.5 155.5,131.5C 155.5,133.5 155.5,135.5 155.5,137.5C 153.5,137.5 151.5,137.5 149.5,137.5C 149.5,135.5 149.5,133.5 149.5,131.5 Z"/></g>
<g><path style="opacity:1" fill="#edb827" d="M 11.5,137.5 C 13.5,137.5 15.5,137.5 17.5,137.5C 17.5,141.5 17.5,145.5 17.5,149.5C 15.5,149.5 13.5,149.5 11.5,149.5C 11.5,145.5 11.5,141.5 11.5,137.5 Z"/></g>
<g><path style="opacity:1" fill="#c4851e" d="M 17.5,137.5 C 19.5,137.5 21.5,137.5 23.5,137.5C 23.5,141.5 23.5,145.5 23.5,149.5C 21.5,149.5 19.5,149.5 17.5,149.5C 17.5,145.5 17.5,141.5 17.5,137.5 Z"/></g>
<g><path style="opacity:1" fill="#edb827" d="M 23.5,137.5 C 25.5,137.5 27.5,137.5 29.5,137.5C 29.5,141.5 29.5,145.5 29.5,149.5C 27.5,149.5 25.5,149.5 23.5,149.5C 23.5,145.5 23.5,141.5 23.5,137.5 Z"/></g>
<g><path style="opacity:1" fill="#fee478" d="M 29.5,137.5 C 31.5,137.5 33.5,137.5 35.5,137.5C 35.5,141.5 35.5,145.5 35.5,149.5C 33.5,149.5 31.5,149.5 29.5,149.5C 29.5,145.5 29.5,141.5 29.5,137.5 Z"/></g>
<g><path style="opacity:1" fill="#edb827" d="M 41.5,137.5 C 43.5,137.5 45.5,137.5 47.5,137.5C 47.5,139.5 47.5,141.5 47.5,143.5C 45.5,143.5 43.5,143.5 41.5,143.5C 41.5,141.5 41.5,139.5 41.5,137.5 Z"/></g>
<g><path style="opacity:1" fill="#edb827" d="M 149.5,137.5 C 149.5,139.5 149.5,141.5 149.5,143.5C 147.5,143.5 145.5,143.5 143.5,143.5C 143.5,141.5 143.5,139.5 143.5,137.5C 145.5,137.5 147.5,137.5 149.5,137.5 Z"/></g>
<g><path style="opacity:1" fill="#edb827" d="M 173.5,137.5 C 175.5,137.5 177.5,137.5 179.5,137.5C 179.5,139.5 179.5,141.5 179.5,143.5C 177.5,143.5 175.5,143.5 173.5,143.5C 173.5,141.5 173.5,139.5 173.5,137.5 Z"/></g>
<g><path style="opacity:1" fill="#cc8e20" d="M 35.5,137.5 C 37.5,137.5 39.5,137.5 41.5,137.5C 41.5,139.5 41.5,141.5 41.5,143.5C 41.5,145.5 41.5,147.5 41.5,149.5C 39.5,149.5 37.5,149.5 35.5,149.5C 35.5,145.5 35.5,141.5 35.5,137.5 Z"/></g>
<g><path style="opacity:1" fill="#edb827" d="M 47.5,143.5 C 49.5,143.5 51.5,143.5 53.5,143.5C 53.5,145.5 53.5,147.5 53.5,149.5C 51.5,149.5 49.5,149.5 47.5,149.5C 47.5,147.5 47.5,145.5 47.5,143.5 Z"/></g>
<g><path style="opacity:1" fill="#edb827" d="M 143.5,143.5 C 143.5,145.5 143.5,147.5 143.5,149.5C 141.5,149.5 139.5,149.5 137.5,149.5C 137.5,147.5 137.5,145.5 137.5,143.5C 139.5,143.5 141.5,143.5 143.5,143.5 Z"/></g>
<g><path style="opacity:1" fill="#edb827" d="M 17.5,149.5 C 19.5,149.5 21.5,149.5 23.5,149.5C 23.5,151.5 23.5,153.5 23.5,155.5C 21.5,155.5 19.5,155.5 17.5,155.5C 17.5,153.5 17.5,151.5 17.5,149.5 Z"/></g>
<g><path style="opacity:1" fill="#c4851e" d="M 23.5,149.5 C 25.5,149.5 27.5,149.5 29.5,149.5C 29.5,151.5 29.5,153.5 29.5,155.5C 27.5,155.5 25.5,155.5 23.5,155.5C 23.5,153.5 23.5,151.5 23.5,149.5 Z"/></g>
<g><path style="opacity:1" fill="#edb827" d="M 29.5,149.5 C 31.5,149.5 33.5,149.5 35.5,149.5C 35.5,151.5 35.5,153.5 35.5,155.5C 33.5,155.5 31.5,155.5 29.5,155.5C 29.5,153.5 29.5,151.5 29.5,149.5 Z"/></g>
<g><path style="opacity:1" fill="#fee478" d="M 35.5,149.5 C 37.5,149.5 39.5,149.5 41.5,149.5C 41.5,151.5 41.5,153.5 41.5,155.5C 39.5,155.5 37.5,155.5 35.5,155.5C 35.5,153.5 35.5,151.5 35.5,149.5 Z"/></g>
<g><path style="opacity:1" fill="#b67917" d="M 41.5,143.5 C 43.5,143.5 45.5,143.5 47.5,143.5C 47.5,145.5 47.5,147.5 47.5,149.5C 49.5,149.5 51.5,149.5 53.5,149.5C 53.5,151.5 53.5,153.5 53.5,155.5C 51.5,155.5 49.5,155.5 47.5,155.5C 45.5,155.5 43.5,155.5 41.5,155.5C 41.5,153.5 41.5,151.5 41.5,149.5C 41.5,147.5 41.5,145.5 41.5,143.5 Z"/></g>
<g><path style="opacity:1" fill="#edb827" d="M 53.5,149.5 C 55.5,149.5 57.5,149.5 59.5,149.5C 59.5,151.5 59.5,153.5 59.5,155.5C 57.5,155.5 55.5,155.5 53.5,155.5C 53.5,153.5 53.5,151.5 53.5,149.5 Z"/></g>
<g><path style="opacity:1" fill="#a66d0f" d="M 59.5,149.5 C 63.5,149.5 67.5,149.5 71.5,149.5C 71.5,151.5 71.5,153.5 71.5,155.5C 67.5,155.5 63.5,155.5 59.5,155.5C 59.5,153.5 59.5,151.5 59.5,149.5 Z"/></g>
<g><path style="opacity:1" fill="#fee478" d="M 95.5,149.5 C 95.5,151.5 95.5,153.5 95.5,155.5C 93.5,155.5 91.5,155.5 89.5,155.5C 89.5,153.5 89.5,151.5 89.5,149.5C 91.5,149.5 93.5,149.5 95.5,149.5 Z"/></g>
<g><path style="opacity:1" fill="#a96f11" d="M 95.5,149.5 C 97.5,149.5 99.5,149.5 101.5,149.5C 101.5,151.5 101.5,153.5 101.5,155.5C 105.5,155.5 109.5,155.5 113.5,155.5C 113.5,157.5 113.5,159.5 113.5,161.5C 109.5,161.5 105.5,161.5 101.5,161.5C 101.5,163.5 101.5,165.5 101.5,167.5C 105.5,167.5 109.5,167.5 113.5,167.5C 113.5,169.5 113.5,171.5 113.5,173.5C 109.5,173.5 105.5,173.5 101.5,173.5C 95.5,173.5 89.5,173.5 83.5,173.5C 81.5,173.5 79.5,173.5 77.5,173.5C 77.5,171.5 77.5,169.5 77.5,167.5C 81.5,167.5 85.5,167.5 89.5,167.5C 91.5,167.5 93.5,167.5 95.5,167.5C 95.5,163.5 95.5,159.5 95.5,155.5C 95.5,153.5 95.5,151.5 95.5,149.5 Z"/></g>
<g><path style="opacity:1" fill="#a66d0f" d="M 131.5,149.5 C 131.5,151.5 131.5,153.5 131.5,155.5C 127.5,155.5 123.5,155.5 119.5,155.5C 119.5,153.5 119.5,151.5 119.5,149.5C 123.5,149.5 127.5,149.5 131.5,149.5 Z"/></g>
<g><path style="opacity:1" fill="#edb827" d="M 131.5,149.5 C 133.5,149.5 135.5,149.5 137.5,149.5C 137.5,151.5 137.5,153.5 137.5,155.5C 135.5,155.5 133.5,155.5 131.5,155.5C 131.5,153.5 131.5,151.5 131.5,149.5 Z"/></g>
<g><path style="opacity:1" fill="#edb827" d="M 173.5,149.5 C 173.5,151.5 173.5,153.5 173.5,155.5C 171.5,155.5 169.5,155.5 167.5,155.5C 167.5,153.5 167.5,151.5 167.5,149.5C 169.5,149.5 171.5,149.5 173.5,149.5 Z"/></g>
<g><path style="opacity:1" fill="#edb827" d="M 23.5,155.5 C 25.5,155.5 27.5,155.5 29.5,155.5C 29.5,157.5 29.5,159.5 29.5,161.5C 27.5,161.5 25.5,161.5 23.5,161.5C 23.5,159.5 23.5,157.5 23.5,155.5 Z"/></g>
<g><path style="opacity:1" fill="#edb827" d="M 35.5,155.5 C 37.5,155.5 39.5,155.5 41.5,155.5C 41.5,157.5 41.5,159.5 41.5,161.5C 39.5,161.5 37.5,161.5 35.5,161.5C 35.5,159.5 35.5,157.5 35.5,155.5 Z"/></g>
<g><path style="opacity:1" fill="#fee478" d="M 41.5,155.5 C 43.5,155.5 45.5,155.5 47.5,155.5C 47.5,157.5 47.5,159.5 47.5,161.5C 45.5,161.5 43.5,161.5 41.5,161.5C 41.5,159.5 41.5,157.5 41.5,155.5 Z"/></g>
<g><path style="opacity:1" fill="#edb827" d="M 47.5,155.5 C 49.5,155.5 51.5,155.5 53.5,155.5C 53.5,157.5 53.5,159.5 53.5,161.5C 51.5,161.5 49.5,161.5 47.5,161.5C 47.5,159.5 47.5,157.5 47.5,155.5 Z"/></g>
<g><path style="opacity:1" fill="#a66d0f" d="M 53.5,155.5 C 55.5,155.5 57.5,155.5 59.5,155.5C 59.5,157.5 59.5,159.5 59.5,161.5C 57.5,161.5 55.5,161.5 53.5,161.5C 53.5,159.5 53.5,157.5 53.5,155.5 Z"/></g>
<g><path style="opacity:1" fill="#edb827" d="M 59.5,155.5 C 63.5,155.5 67.5,155.5 71.5,155.5C 71.5,157.5 71.5,159.5 71.5,161.5C 67.5,161.5 63.5,161.5 59.5,161.5C 59.5,159.5 59.5,157.5 59.5,155.5 Z"/></g>
<g><path style="opacity:1" fill="#a66d0f" d="M 89.5,155.5 C 89.5,157.5 89.5,159.5 89.5,161.5C 85.5,161.5 81.5,161.5 77.5,161.5C 77.5,159.5 77.5,157.5 77.5,155.5C 81.5,155.5 85.5,155.5 89.5,155.5 Z"/></g>
<g><path style="opacity:1" fill="#fef5ca" d="M 89.5,155.5 C 91.5,155.5 93.5,155.5 95.5,155.5C 95.5,159.5 95.5,163.5 95.5,167.5C 93.5,167.5 91.5,167.5 89.5,167.5C 89.5,165.5 89.5,163.5 89.5,161.5C 89.5,159.5 89.5,157.5 89.5,155.5 Z"/></g>
<g><path style="opacity:1" fill="#edb827" d="M 119.5,155.5 C 123.5,155.5 127.5,155.5 131.5,155.5C 131.5,157.5 131.5,159.5 131.5,161.5C 127.5,161.5 123.5,161.5 119.5,161.5C 119.5,159.5 119.5,157.5 119.5,155.5 Z"/></g>
<g><path style="opacity:1" fill="#b77a18" d="M 173.5,107.5 C 175.5,107.5 177.5,107.5 179.5,107.5C 179.5,111.5 179.5,115.5 179.5,119.5C 177.5,119.5 175.5,119.5 173.5,119.5C 173.5,121.5 173.5,123.5 173.5,125.5C 171.5,125.5 169.5,125.5 167.5,125.5C 167.5,129.5 167.5,133.5 167.5,137.5C 169.5,137.5 171.5,137.5 173.5,137.5C 173.5,139.5 173.5,141.5 173.5,143.5C 175.5,143.5 177.5,143.5 179.5,143.5C 179.5,145.5 179.5,147.5 179.5,149.5C 177.5,149.5 175.5,149.5 173.5,149.5C 171.5,149.5 169.5,149.5 167.5,149.5C 167.5,151.5 167.5,153.5 167.5,155.5C 165.5,155.5 163.5,155.5 161.5,155.5C 161.5,157.5 161.5,159.5 161.5,161.5C 159.5,161.5 157.5,161.5 155.5,161.5C 155.5,163.5 155.5,165.5 155.5,167.5C 153.5,167.5 151.5,167.5 149.5,167.5C 149.5,169.5 149.5,171.5 149.5,173.5C 149.5,175.5 149.5,177.5 149.5,179.5C 147.5,179.5 145.5,179.5 143.5,179.5C 143.5,177.5 143.5,175.5 143.5,173.5C 141.5,173.5 139.5,173.5 137.5,173.5C 137.5,175.5 137.5,177.5 137.5,179.5C 137.5,181.5 137.5,183.5 137.5,185.5C 135.5,185.5 133.5,185.5 131.5,185.5C 131.5,183.5 131.5,181.5 131.5,179.5C 127.5,179.5 123.5,179.5 119.5,179.5C 117.5,179.5 115.5,179.5 113.5,179.5C 113.5,177.5 113.5,175.5 113.5,173.5C 113.5,171.5 113.5,169.5 113.5,167.5C 115.5,167.5 117.5,167.5 119.5,167.5C 123.5,167.5 127.5,167.5 131.5,167.5C 133.5,167.5 135.5,167.5 137.5,167.5C 137.5,165.5 137.5,163.5 137.5,161.5C 135.5,161.5 133.5,161.5 131.5,161.5C 131.5,159.5 131.5,157.5 131.5,155.5C 133.5,155.5 135.5,155.5 137.5,155.5C 137.5,153.5 137.5,151.5 137.5,149.5C 139.5,149.5 141.5,149.5 143.5,149.5C 143.5,147.5 143.5,145.5 143.5,143.5C 145.5,143.5 147.5,143.5 149.5,143.5C 149.5,141.5 149.5,139.5 149.5,137.5C 151.5,137.5 153.5,137.5 155.5,137.5C 155.5,135.5 155.5,133.5 155.5,131.5C 157.5,131.5 159.5,131.5 161.5,131.5C 161.5,127.5 161.5,123.5 161.5,119.5C 163.5,119.5 165.5,119.5 167.5,119.5C 167.5,117.5 167.5,115.5 167.5,113.5C 169.5,113.5 171.5,113.5 173.5,113.5C 173.5,111.5 173.5,109.5 173.5,107.5 Z"/></g>
<g><path style="opacity:1" fill="#edb827" d="M 155.5,149.5 C 155.5,151.5 155.5,153.5 155.5,155.5C 153.5,155.5 151.5,155.5 149.5,155.5C 149.5,153.5 149.5,151.5 149.5,149.5C 151.5,149.5 153.5,149.5 155.5,149.5 Z"/></g>
<g><path style="opacity:1" fill="#edb827" d="M 161.5,143.5 C 161.5,145.5 161.5,147.5 161.5,149.5C 159.5,149.5 157.5,149.5 155.5,149.5C 155.5,147.5 155.5,145.5 155.5,143.5C 157.5,143.5 159.5,143.5 161.5,143.5 Z"/></g>
<g><path style="opacity:1" fill="#edb827" d="M 167.5,137.5 C 167.5,139.5 167.5,141.5 167.5,143.5C 165.5,143.5 163.5,143.5 161.5,143.5C 161.5,141.5 161.5,139.5 161.5,137.5C 163.5,137.5 165.5,137.5 167.5,137.5 Z"/></g>
<g><path style="opacity:1" fill="#edb827" d="M 149.5,155.5 C 149.5,157.5 149.5,159.5 149.5,161.5C 147.5,161.5 145.5,161.5 143.5,161.5C 143.5,159.5 143.5,157.5 143.5,155.5C 145.5,155.5 147.5,155.5 149.5,155.5 Z"/></g>
<g><path style="opacity:1" fill="#edb827" d="M 167.5,155.5 C 167.5,157.5 167.5,159.5 167.5,161.5C 165.5,161.5 163.5,161.5 161.5,161.5C 161.5,159.5 161.5,157.5 161.5,155.5C 163.5,155.5 165.5,155.5 167.5,155.5 Z"/></g>
<g><path style="opacity:1" fill="#edb827" d="M 41.5,161.5 C 43.5,161.5 45.5,161.5 47.5,161.5C 47.5,163.5 47.5,165.5 47.5,167.5C 45.5,167.5 43.5,167.5 41.5,167.5C 41.5,165.5 41.5,163.5 41.5,161.5 Z"/></g>
<g><path style="opacity:1" fill="#fee478" d="M 47.5,161.5 C 49.5,161.5 51.5,161.5 53.5,161.5C 53.5,163.5 53.5,165.5 53.5,167.5C 51.5,167.5 49.5,167.5 47.5,167.5C 47.5,165.5 47.5,163.5 47.5,161.5 Z"/></g>
<g><path style="opacity:1" fill="#edb827" d="M 53.5,161.5 C 55.5,161.5 57.5,161.5 59.5,161.5C 59.5,163.5 59.5,165.5 59.5,167.5C 57.5,167.5 55.5,167.5 53.5,167.5C 53.5,165.5 53.5,163.5 53.5,161.5 Z"/></g>
<g><path style="opacity:1" fill="#a66d0f" d="M 59.5,161.5 C 63.5,161.5 67.5,161.5 71.5,161.5C 71.5,163.5 71.5,165.5 71.5,167.5C 69.5,167.5 67.5,167.5 65.5,167.5C 63.5,167.5 61.5,167.5 59.5,167.5C 59.5,165.5 59.5,163.5 59.5,161.5 Z"/></g>
<g><path style="opacity:1" fill="#edb827" d="M 71.5,161.5 C 73.5,161.5 75.5,161.5 77.5,161.5C 81.5,161.5 85.5,161.5 89.5,161.5C 89.5,163.5 89.5,165.5 89.5,167.5C 85.5,167.5 81.5,167.5 77.5,167.5C 77.5,169.5 77.5,171.5 77.5,173.5C 75.5,173.5 73.5,173.5 71.5,173.5C 71.5,171.5 71.5,169.5 71.5,167.5C 71.5,165.5 71.5,163.5 71.5,161.5 Z"/></g>
<g><path style="opacity:1" fill="#edb827" d="M 113.5,161.5 C 115.5,161.5 117.5,161.5 119.5,161.5C 119.5,163.5 119.5,165.5 119.5,167.5C 117.5,167.5 115.5,167.5 113.5,167.5C 109.5,167.5 105.5,167.5 101.5,167.5C 101.5,165.5 101.5,163.5 101.5,161.5C 105.5,161.5 109.5,161.5 113.5,161.5 Z"/></g>
<g><path style="opacity:1" fill="#a66d0f" d="M 119.5,161.5 C 123.5,161.5 127.5,161.5 131.5,161.5C 131.5,163.5 131.5,165.5 131.5,167.5C 127.5,167.5 123.5,167.5 119.5,167.5C 119.5,165.5 119.5,163.5 119.5,161.5 Z"/></g>
<g><path style="opacity:1" fill="#edb827" d="M 131.5,161.5 C 133.5,161.5 135.5,161.5 137.5,161.5C 137.5,163.5 137.5,165.5 137.5,167.5C 135.5,167.5 133.5,167.5 131.5,167.5C 131.5,165.5 131.5,163.5 131.5,161.5 Z"/></g>
<g><path style="opacity:1" fill="#edb827" d="M 161.5,161.5 C 161.5,163.5 161.5,165.5 161.5,167.5C 159.5,167.5 157.5,167.5 155.5,167.5C 155.5,165.5 155.5,163.5 155.5,161.5C 157.5,161.5 159.5,161.5 161.5,161.5 Z"/></g>
<g><path style="opacity:1" fill="#edb827" d="M 59.5,167.5 C 61.5,167.5 63.5,167.5 65.5,167.5C 65.5,169.5 65.5,171.5 65.5,173.5C 63.5,173.5 61.5,173.5 59.5,173.5C 59.5,171.5 59.5,169.5 59.5,167.5 Z"/></g>
<g><path style="opacity:1" fill="#fee478" d="M 65.5,167.5 C 67.5,167.5 69.5,167.5 71.5,167.5C 71.5,169.5 71.5,171.5 71.5,173.5C 69.5,173.5 67.5,173.5 65.5,173.5C 65.5,171.5 65.5,169.5 65.5,167.5 Z"/></g>
<g><path style="opacity:1" fill="#edb827" d="M 155.5,167.5 C 155.5,169.5 155.5,171.5 155.5,173.5C 153.5,173.5 151.5,173.5 149.5,173.5C 149.5,171.5 149.5,169.5 149.5,167.5C 151.5,167.5 153.5,167.5 155.5,167.5 Z"/></g>
<g><path style="opacity:1" fill="#b67917" d="M 29.5,155.5 C 31.5,155.5 33.5,155.5 35.5,155.5C 35.5,157.5 35.5,159.5 35.5,161.5C 37.5,161.5 39.5,161.5 41.5,161.5C 41.5,163.5 41.5,165.5 41.5,167.5C 43.5,167.5 45.5,167.5 47.5,167.5C 49.5,167.5 51.5,167.5 53.5,167.5C 55.5,167.5 57.5,167.5 59.5,167.5C 59.5,169.5 59.5,171.5 59.5,173.5C 61.5,173.5 63.5,173.5 65.5,173.5C 67.5,173.5 69.5,173.5 71.5,173.5C 73.5,173.5 75.5,173.5 77.5,173.5C 77.5,175.5 77.5,177.5 77.5,179.5C 75.5,179.5 73.5,179.5 71.5,179.5C 69.5,179.5 67.5,179.5 65.5,179.5C 65.5,181.5 65.5,183.5 65.5,185.5C 61.5,185.5 57.5,185.5 53.5,185.5C 53.5,183.5 53.5,181.5 53.5,179.5C 49.5,179.5 45.5,179.5 41.5,179.5C 41.5,177.5 41.5,175.5 41.5,173.5C 39.5,173.5 37.5,173.5 35.5,173.5C 35.5,171.5 35.5,169.5 35.5,167.5C 33.5,167.5 31.5,167.5 29.5,167.5C 29.5,165.5 29.5,163.5 29.5,161.5C 29.5,159.5 29.5,157.5 29.5,155.5 Z"/></g>
<g><path style="opacity:1" fill="#edb827" d="M 77.5,173.5 C 79.5,173.5 81.5,173.5 83.5,173.5C 83.5,175.5 83.5,177.5 83.5,179.5C 81.5,179.5 79.5,179.5 77.5,179.5C 77.5,177.5 77.5,175.5 77.5,173.5 Z"/></g>
<g><path style="opacity:1" fill="#fee478" d="M 83.5,173.5 C 89.5,173.5 95.5,173.5 101.5,173.5C 101.5,175.5 101.5,177.5 101.5,179.5C 95.5,179.5 89.5,179.5 83.5,179.5C 83.5,177.5 83.5,175.5 83.5,173.5 Z"/></g>
<g><path style="opacity:1" fill="#edb827" d="M 101.5,173.5 C 105.5,173.5 109.5,173.5 113.5,173.5C 113.5,175.5 113.5,177.5 113.5,179.5C 109.5,179.5 105.5,179.5 101.5,179.5C 101.5,177.5 101.5,175.5 101.5,173.5 Z"/></g>
<g><path style="opacity:1" fill="#edb827" d="M 143.5,179.5 C 141.5,179.5 139.5,179.5 137.5,179.5C 137.5,177.5 137.5,175.5 137.5,173.5C 139.5,173.5 141.5,173.5 143.5,173.5C 143.5,175.5 143.5,177.5 143.5,179.5 Z"/></g>
<g><path style="opacity:1" fill="#edb827" d="M 71.5,179.5 C 71.5,181.5 71.5,183.5 71.5,185.5C 69.5,185.5 67.5,185.5 65.5,185.5C 65.5,183.5 65.5,181.5 65.5,179.5C 67.5,179.5 69.5,179.5 71.5,179.5 Z"/></g>
<g><path style="opacity:1" fill="#a96f11" d="M 71.5,179.5 C 73.5,179.5 75.5,179.5 77.5,179.5C 79.5,179.5 81.5,179.5 83.5,179.5C 89.5,179.5 95.5,179.5 101.5,179.5C 105.5,179.5 109.5,179.5 113.5,179.5C 115.5,179.5 117.5,179.5 119.5,179.5C 119.5,181.5 119.5,183.5 119.5,185.5C 119.5,187.5 119.5,189.5 119.5,191.5C 117.5,191.5 115.5,191.5 113.5,191.5C 113.5,189.5 113.5,187.5 113.5,185.5C 99.5,185.5 85.5,185.5 71.5,185.5C 71.5,183.5 71.5,181.5 71.5,179.5 Z"/></g>
<g><path style="opacity:1" fill="#edb827" d="M 119.5,179.5 C 123.5,179.5 127.5,179.5 131.5,179.5C 131.5,181.5 131.5,183.5 131.5,185.5C 127.5,185.5 123.5,185.5 119.5,185.5C 119.5,183.5 119.5,181.5 119.5,179.5 Z"/></g>
<g><path style="opacity:1" fill="#edb827" d="M 71.5,185.5 C 85.5,185.5 99.5,185.5 113.5,185.5C 113.5,187.5 113.5,189.5 113.5,191.5C 99.5,191.5 85.5,191.5 71.5,191.5C 71.5,189.5 71.5,187.5 71.5,185.5 Z"/></g>
</svg>
