<?xml version="1.0" encoding="UTF-8"?><svg id="a" xmlns="http://www.w3.org/2000/svg" viewBox="0 0 101.73 101.73"><defs><style>.b{fill:#e2a015;}</style></defs><path class="b" d="M68.15,72.75c-1.26,0-2.3-.9-2.5-2.13v-.11l-3.54-41.51,2.76,2.04c1.71,1.27,7.36,5.45,8.03,6.13l.38,.38,3.1,25.59h14.36v3.11h-14.88c-1.25,0-2.3-.9-2.49-2.13v-.06l-3.04-25c-.77-.62-2.55-1.97-4.55-3.46l2.89,34.05,27.76-.1c2.36-5.76,3.68-12.06,3.68-18.68C100.12,23.66,78.07,1.61,50.87,1.61S1.61,23.66,1.61,50.87c0,6.61,1.31,12.92,3.67,18.68l29.01,.1,2.89-34.05c-1.99,1.49-3.77,2.84-4.55,3.46l-3.04,25.06c-.2,1.23-1.24,2.13-2.49,2.13H12.22v-3.11h14.36l3.1-25.59,.38-.38c.68-.68,6.32-4.86,8.03-6.13l2.76-2.04-3.54,41.62c-.2,1.23-1.24,2.13-2.49,2.13l-28.14-.1c8.04,16.27,24.8,27.47,44.18,27.47s36.14-11.2,44.18-27.47l-26.89,.1Zm-10.82,.06l-2.75-46.8h-6.2l-2.75,46.8h-3.11l2.93-49.91h12.06l2.93,49.91h-3.11Z"/></svg>