<svg xmlns="http://www.w3.org/2000/svg" xmlns:xlink="http://www.w3.org/1999/xlink" width="61.781" height="61.781" viewBox="0 0 61.781 61.781">
  <defs>
    <clipPath id="clip-path">
      <circle id="Ellipse_4" data-name="Ellipse 4" cx="30.89" cy="30.89" r="30.89" transform="translate(0 0)" fill="none"/>
    </clipPath>
  </defs>
  <g id="Group_31" data-name="Group 31" transform="translate(-71.61 -71.61)">
    <g id="Group_30" data-name="Group 30" transform="translate(71.61 71.61)" clip-path="url(#clip-path)">
      <rect id="Rectangle_147" data-name="Rectangle 147" width="35.329" height="35.329" transform="translate(29.6 -0.824)" fill="none"/>
      <path id="Path_37" data-name="Path 37" d="M0,0H35.329V35.329H0Z" transform="translate(29.6 -0.824)" fill="#4c1d95"/>
      <rect id="Rectangle_149" data-name="Rectangle 149" width="35.329" height="35.329" transform="translate(29.6 34.504)" fill="none"/>
      <rect id="Rectangle_150" data-name="Rectangle 150" width="35.329" height="35.329" transform="translate(29.6 34.504)" fill="#4c1d95"/>
      <rect id="Rectangle_151" data-name="Rectangle 151" width="35.329" height="35.329" transform="translate(-5.729 -0.824)" fill="none"/>
      <rect id="Rectangle_152" data-name="Rectangle 152" width="35.329" height="35.329" transform="translate(-5.729 -0.824)" fill="#4c1d95"/>
      <rect id="Rectangle_153" data-name="Rectangle 153" width="35.329" height="35.329" transform="translate(-5.729 34.504)" fill="none"/>
      <path id="Path_38" data-name="Path 38" d="M0,0H35.329V35.329H0Z" transform="translate(-5.729 34.504)" fill="#4c1d95"/>
    </g>
    <path id="Path_24" data-name="Path 24" d="M148.313,194.407s1.053-3.21,2.508-3.762a7.811,7.811,0,0,0,3.9-.978c1.429-1.015,2.558-4.062,5.6-2.108s1.467,9.065-3.574,10.345-11.6-2.144-14.009-9.666-.9-15.645,3.259-19.307a19.769,19.769,0,0,0-9,16.45c0,11.209,8.322,17,12.435,19.109,0,0-11.908-1.254-13.714-12.989,0,0,1.354,11.711,10.985,17.427a24.574,24.574,0,0,0,25.654-.376,24.869,24.869,0,0,0,10.907-17.9s-2.307,11.984-13.039,13.39c0,0,6.043-1.579,10.256-12.338s-3.612-20.417-7.3-22.769c0,0,5.718,8.626,3.085,16.676s-5.865,9.772-5.865,9.772.777-9.7-5.893-13.315c0,0,8.375-9.279-.05-14.595,0,0,6.419,7.272-4.514,13.14,0,0,2.709-4.914-1.5-8.525,0,0,1.755,4.463-1.053,6.268s-9.479,5.015-8.576,11.034C148.814,189.388,147.611,192.952,148.313,194.407Z" transform="translate(-56.996 -85.223)" fill="#fff"/>
    <path id="Path_25" data-name="Path 25" d="M320.978,473.691l-1.923-2.27-.4-1.042,2.253-4.346,1.631-1.492,2.767,4.305.3,2.843-.182,1.035-1.4.882-1.936.3Z" transform="translate(-219.637 -349.33)" fill="#4c1d95"/>
    <path id="Path_26" data-name="Path 26" d="M338.96,466.032l.243.521,1.114.389.8-.655-.523-1.749" transform="translate(-237.685 -349.33)" fill="#4c1d95"/>
    <path id="Path_27" data-name="Path 27" d="M358.37,480.3l1.854,2.68.391-.123" transform="translate(-254.941 -363.342)" fill="#6d28d9"/>
    <path id="Path_28" data-name="Path 28" d="M321.156,482.69l-1.2,2.671-1.3,1.154,2.661,2.862-.343.451" transform="translate(-219.637 -365.466)" fill="#6d28d9"/>
    <path id="Path_29" data-name="Path 29" d="M332.01,508.2l.918-.377,1.533,2.349,1.061-1.375.3,1.46-1.356-.085-2.756.6.305-2.574-1.67-1.441" transform="translate(-230.021 -386.866)" fill="#6d28d9"/>
    <line id="Line_4" data-name="Line 4" x2="0.274" y2="3.345" transform="translate(102.632 117.613)" fill="#7366ff"/>
    <line id="Line_5" data-name="Line 5" x2="0.217" y2="2.295" transform="translate(105.283 119.638)" fill="#7366ff"/>
    <path id="Path_30" data-name="Path 30" d="M252.894,136.861l2.39-.588-2.39-.588-.622-3.055-.621,3.055-2.39.588,2.39.588.621,3.054Z" transform="translate(-157.938 -54.249)" fill="#fff"/>
    <path id="Path_31" data-name="Path 31" d="M298.348,196.635l1.194-.294-1.194-.294-.312-1.527-.311,1.527-1.2.294,1.2.294.311,1.527Z" transform="translate(-199.963 -109.272)" fill="#fff"/>
    <path id="Path_32" data-name="Path 32" d="M321.7,156.9l1.13-.279-1.13-.279L321.4,154.9l-.294,1.442-1.13.279,1.13.279.294,1.442Z" transform="translate(-220.811 -74.048)" fill="#fff"/>
    <path id="Path_33" data-name="Path 33" d="M112.787,142.128a29.616,29.616,0,1,1,11.534-2.328A29.636,29.636,0,0,1,112.787,142.128Zm0-58.881A29.254,29.254,0,1,0,142.039,112.5a29.288,29.288,0,0,0-29.253-29.255Z" transform="translate(-10.286 -10.002)" fill="#fff"/>
    <path id="Path_34" data-name="Path 34" d="M111.705,141.326A29.746,29.746,0,1,1,139.221,122.9a29.746,29.746,0,0,1-27.515,18.425Zm0-59.253a29.425,29.425,0,1,0,26.116,43.06,28.749,28.749,0,0,0,2.036-4.954,29.425,29.425,0,0,0-28.152-38.106Zm0,58.881a29.365,29.365,0,1,1,29.364-29.366,29.4,29.4,0,0,1-29.364,29.366Zm0-58.505a29.14,29.14,0,1,0,29.142,29.139,29.172,29.172,0,0,0-29.142-29.139Z" transform="translate(-9.205 -9.088)" fill="#6d28d9"/>
    <path id="Path_35" data-name="Path 35" d="M127.011,155.367a27.864,27.864,0,1,1,10.88-2.2,27.864,27.864,0,0,1-10.88,2.2Zm0-55.68a27.728,27.728,0,1,0,27.728,27.728,27.759,27.759,0,0,0-27.728-27.728Z" transform="translate(-24.511 -24.915)" fill="#fff"/>
    <path id="Path_36" data-name="Path 36" d="M126.527,154.494a27.924,27.924,0,1,1,10.9-2.2,27.924,27.924,0,0,1-10.9,2.2Zm0-55.9a27.809,27.809,0,1,0,10.859,2.193A27.809,27.809,0,0,0,126.527,98.59Zm0,55.68a27.783,27.783,0,1,1,27.783-27.783,27.815,27.815,0,0,1-27.783,27.783Zm0-55.456A27.672,27.672,0,1,0,154.2,126.486,27.7,27.7,0,0,0,126.527,98.814Z" transform="translate(-24.027 -23.986)" fill="#fff"/>
  </g>
</svg>
