<svg width="191" height="191" xmlns="http://www.w3.org/2000/svg" xmlns:xlink="http://www.w3.org/1999/xlink" xml:space="preserve" overflow="hidden"><defs><clipPath id="clip0"><rect x="529" y="265" width="191" height="191"/></clipPath><clipPath id="clip1"><path d="M530 360.5C530 308.309 572.533 266 625 266 677.467 266 720 308.309 720 360.5 720 412.691 677.467 455 625 455 572.533 455 530 412.691 530 360.5Z" fill-rule="evenodd" clip-rule="evenodd"/></clipPath><clipPath id="clip2"><rect x="530" y="266" width="190" height="189"/></clipPath><clipPath id="clip3"><rect x="530" y="266" width="190" height="189"/></clipPath><clipPath id="clip4"><rect x="530" y="266" width="190" height="189"/></clipPath></defs><g clip-path="url(#clip0)" transform="translate(-529 -265)"><g clip-path="url(#clip1)"><g clip-path="url(#clip2)"><g clip-path="url(#clip3)"><g clip-path="url(#clip4)"><path d="M94.3091 189.02C146.395 189.02 188.618 146.707 188.618 94.5103 188.618 42.3137 146.395 0 94.3091 0 42.2236 0 0 42.3137 0 94.5103 0 146.707 42.2236 189.02 94.3091 189.02Z" fill="#48D0A3" fill-rule="nonzero" fill-opacity="1" transform="matrix(1.00733 0 0 1 530 266)"/><path d="M149.08 81.3603 120.064 68.2004 106.932 39.1117 93.7997 10.0332 80.6679 39.1117 67.5461 68.2004 38.5193 81.3603 9.50277 94.5099 38.5193 107.67 67.5461 120.83 80.6679 149.919 93.7997 178.997 106.932 149.919 120.064 120.83 149.08 107.67 178.107 94.5099 149.08 81.3603Z" fill="#FFFFFF" fill-rule="evenodd" fill-opacity="1" transform="matrix(1.00733 0 0 1 530 266)"/><path d="M84.0628 94.5097 69.7687 70.4275 93.7997 84.7522 117.831 70.4275 103.536 94.5097 117.831 118.592 93.7997 104.267 69.7687 118.592 84.0628 94.5097Z" fill="#48D0A3" fill-rule="evenodd" fill-opacity="1" transform="matrix(1.00733 0 0 1 530 266)"/><path d="M93.7997 75.5362C96.7502 75.5362 99.1423 73.1394 99.1423 70.1824 99.1423 67.2256 96.7502 64.8285 93.7997 64.8285 90.8492 64.8285 88.4573 67.2256 88.4573 70.1824 88.4573 73.1394 90.8492 75.5362 93.7997 75.5362Z" fill="#48D0A3" fill-rule="nonzero" fill-opacity="1" transform="matrix(1.00733 0 0 1 530 266)"/></g></g></g></g></g></svg>