<?xml version="1.0" encoding="utf-8"?>
<!-- Generator: Adobe Illustrator 25.2.3, SVG Export Plug-In . SVG Version: 6.00 Build 0)  -->
<svg version="1.1" id="Capa_1" xmlns="http://www.w3.org/2000/svg" xmlns:xlink="http://www.w3.org/1999/xlink" x="0px" y="0px"
	 viewBox="0 0 766 806.82" style="enable-background:new 0 0 936 806.82;" xml:space="preserve">
<style type="text/css">
	.st0{fill:#661D01;}
	.st1{fill:#C14211;}
	.st2{fill:#AC3A0F;}
	.st3{fill:#FFCD04;}
	.st4{fill:#F7B402;}
	.st5{fill:#FFEB44;}
	.st6{fill:#FFFA64;}
	.st7{fill:#FFFFFF;}
	.st8{clip-path:url(#SVGID_2_);fill:none;stroke:#F7B402;stroke-miterlimit:10;}
	.st9{clip-path:url(#SVGID_2_);fill:none;stroke:#C14211;stroke-miterlimit:10;}
	.st10{clip-path:url(#SVGID_2_);fill:none;stroke:#FD9809;stroke-miterlimit:10;}
	.st11{clip-path:url(#SVGID_4_);}
	.st12{fill:#E44E14;}
	.st13{fill:none;}
	.st14{fill:#FD9809;}
	.st15{fill:#91320D;}
</style>
<g>
	<path class="st0" d="M471.8,690.55c-87.14,3.94-248.8-89.23-280.9-185.7l16.02-6.64l-16.08,6.49
		C91.01,186.29,493.47-19.9,703.59,221.91C848.5,402.4,698.72,686.52,471.8,690.55z"/>
	<g>
		<path class="st1" d="M734.85,453.05C700.88,595.1,554.07,698.68,424.67,667.73c-47.85-11.45-83.07-34.06-120.76-58.24
			c-53.8-53.07-78.94-137.86-57.52-227.38c33.97-142.04,185.68-241.49,318.54-234.2c37.69,16.36,56.21,29.52,85.31,49.12
			C726.57,248.46,759.45,350.22,734.85,453.05z"/>
		<path class="st2" d="M518.65,590.31L368.14,466.57l-89.01,52.83l-13.28,38.62c10.18,19.25,22.99,36.6,38.06,51.47
			c37.69,24.18,72.91,46.8,120.76,58.24c47.88,11.45,98.14,4.47,144.19-16.05L518.65,590.31z"/>
		<path class="st3" d="M687.2,422.47C653.23,564.51,506.42,668.1,377.02,637.15S164.75,493.56,198.73,351.52
			s165.5-226.51,298.36-219.22C645.5,140.45,721.18,280.43,687.2,422.47z"/>
		<path class="st4" d="M625.56,415.72C598.1,530.51,486.52,597.92,381.24,585.6c-104.7-12.26-170.28-110.61-142.83-225.4
			S375.9,167.35,480.69,179.35C588.57,191.72,653.01,300.94,625.56,415.72z"/>
		<path class="st5" d="M277.26,392.98c0,0-16.11-3.22-22.56,27.39c-6.45,30.62-33.3,35.99-45.12,25.78
			c-11.82-10.21-16.65-58.55-16.65-58.55l-0.35-0.57c-9.25,86.34,25.73,159.16,87.25,205.31c-7.34-9.34-16.06-20.59-21.91-28.55
			c-11.82-16.11-3.76-19.87,15.04-23.63c18.8-3.76,67.14,9.13,67.14,9.13l-26.86-80.57L277.26,392.98z"/>
		<path class="st6" d="M619.89,362.36c0,0,1.56-23.95-4.17-45.82c14.06,18.74,7.81,40.61,7.81,40.61L619.89,362.36z"/>
		<path class="st6" d="M646.52,341.02c-29.82,7.3-41.99,0-41.99,0l-29.21-4.26L538.2,470.03l10.95,21.91c0,0,16.43-5.48,24.95-9.13
			c8.52-3.65,75.46-20.69,85.8-18.26c7.75,1.82,4.57,16.27,2.49,23.41c0.47-0.89,0.94-1.78,1.4-2.67l19.5-48.36
			c1.42-4.78,2.73-9.59,3.9-14.46c9.76-40.79,10.45-81.4,3-118.78C688.67,331.14,674.11,334.26,646.52,341.02z"/>
		<path class="st7" d="M533.97,137.32c118.8,30.7,176.23,156.19,145.81,283.38c-33.72,140.98-178.49,244.07-307.07,215.37
			c1.43,0.37,2.86,0.73,4.3,1.08c129.41,30.95,276.21-72.63,310.18-214.67C718.23,292.73,657.77,164.73,533.97,137.32z"/>
		<g>
			<defs>
				<path id="SVGID_1_" d="M598.54,411.19C574.34,512.34,471.62,586.53,381.5,564.98S234.02,463.61,258.21,362.47
					s116.2-161.69,208.8-156.98C570.46,210.76,622.73,310.05,598.54,411.19z"/>
			</defs>
			<clipPath id="SVGID_2_">
				<use xlink:href="#SVGID_1_"  style="overflow:visible;"/>
			</clipPath>
			<path class="st8" d="M635.35,417.52c-28.37,118.59-148.34,205.69-253.48,180.54c-105.14-25.15-171.98-118.62-143.62-237.21
				s135.81-189.68,243.88-184.27C602.85,182.62,663.71,298.93,635.35,417.52z"/>
			<path class="st9" d="M598.54,411.19C574.34,512.34,471.62,586.53,381.5,564.98S234.02,463.61,258.21,362.47
				s116.2-161.69,208.8-156.98C570.46,210.76,622.73,310.05,598.54,411.19z"/>
			<path class="st10" d="M627.6,431.85c-24.19,101.15-126.92,175.34-217.03,153.78S263.08,484.26,287.28,383.12
				s116.2-161.69,208.8-156.98C599.53,231.41,651.8,330.7,627.6,431.85z"/>
		</g>
		<path class="st6" d="M605.53,415C581.34,516.15,478.62,590.34,388.5,568.78c-90.12-21.55-147.49-101.37-123.29-202.51
			s116.2-161.69,208.8-156.98C577.46,214.56,629.73,313.85,605.53,415z"/>
		<g>
			<defs>
				<path id="SVGID_3_" d="M597.16,411.65C572.97,512.8,470.25,586.99,380.13,565.44S232.64,464.07,256.84,362.92
					c24.19-101.15,116.2-161.69,208.8-156.98C569.09,211.21,621.36,310.51,597.16,411.65z"/>
			</defs>
			<clipPath id="SVGID_4_">
				<use xlink:href="#SVGID_3_"  style="overflow:visible;"/>
			</clipPath>
			<g class="st11">
				<path class="st1" d="M597.16,411.65C572.97,512.8,470.25,586.99,380.13,565.44S232.64,464.07,256.84,362.92
					c24.19-101.15,116.2-161.69,208.8-156.98C569.09,211.21,621.36,310.51,597.16,411.65z"/>
				<path class="st12" d="M299.49,279.36c5.81,7.81,30.74,39.15,30.74,39.15l38-47.21l-25.23-31.21
					C326.86,250.9,312.15,264.06,299.49,279.36z"/>
				<path class="st13" d="M299.68,279.9c12.08,14.97,33.88,42.5,33.88,42.5l37.79-49.79l-28.62-32.32
					C326.73,251.23,312.17,264.51,299.68,279.9z"/>
				<path class="st14" d="M623.95,428.01C599.58,529.89,496.1,604.63,405.33,582.91c-90.77-21.71-148.56-102.11-124.19-203.99
					c24.37-101.88,117.05-162.87,210.33-158.12C595.67,226.11,648.32,326.12,623.95,428.01z"/>
				<path class="st14" d="M627.6,431.85c-24.19,101.15-126.92,175.34-217.03,153.78S263.08,484.26,287.28,383.12
					s116.2-161.69,208.8-156.98C599.53,231.41,651.8,330.7,627.6,431.85z"/>
			</g>
		</g>
		<g>
			<defs>
				<path id="SVGID_5_" d="M626.07,416.08c-27.05,113.11-143.62,195.67-246.29,171.11s-168.35-114.17-141.3-227.28
					s127.93-185.42,233.35-179.7C589.6,186.6,653.12,302.97,626.07,416.08z"/>
			</defs>
			<clipPath id="SVGID_6_">
				<use xlink:href="#SVGID_5_"  style="overflow:visible;"/>
			</clipPath>
		</g>
		<path class="st12" d="M683.64,444.86c0,0-3.62,44.87-38.35,91.18c62.96-79.6,89.01-189.59,61.51-251.83
			C714.04,355.85,683.64,444.86,683.64,444.86z"/>
		<path class="st12" d="M724.17,397.82c0.72-2.17,7.24-41.97,7.24-51.38c6.51,24.6,3.62,67.3,1.45,71.64
			S724.17,397.82,724.17,397.82z"/>
		<path class="st12" d="M693.64,326.01c3.39,30.98,1.41,63.66-6.44,96.46c-2.86,11.97-6.55,23.66-10.93,35.03
			c8.59,14.02,23.32,38.55,35.18,58.38c10.18-19.79,18.15-40.85,23.41-62.83c4.39-18.36,6.92-36.69,7.73-54.7L693.64,326.01z"/>
		<g>
			<g>
				<path class="st4" d="M490.75,229.96c3.44,0,3.44-5.34,0-5.34C487.31,224.61,487.31,229.96,490.75,229.96L490.75,229.96z"/>
			</g>
		</g>
		<path class="st5" d="M214.84,360.26c0,0-5.44-57.11,37.62-96.54C227.08,312.67,214.84,360.26,214.84,360.26z"/>
		<path class="st5" d="M327.77,220.47c0,0,13.2-28.41,70.81-43.61C370.58,192.06,335.77,214.06,327.77,220.47z"/>
		<path class="st5" d="M536.38,554.21c-2.39,0.77,36.84-30.19,47.94-51.05C586.98,518.7,569.67,543.56,536.38,554.21z"/>
		<path class="st5" d="M336.17,606.15c0,0,83.01,32.41,188.22-5.77C454.25,632.79,387.22,641.66,336.17,606.15z"/>
		<path class="st5" d="M325.73,222.83c0,0,11.97-35.92,74.45-46.34C362.18,203.57,325.73,222.83,325.73,222.83z"/>
		<path class="st7" d="M580.38,265.54c0,0,36.34-17.79,42.39-20.06c9.08-23.47,19.3-41.63,19.3-41.63l17.79,43.53l43.91,18.92
			l-43.53,17.79l-20.06,43.15l-18.17-42.39L580.38,265.54z"/>
		<path class="st12" d="M302.41,278.39c-1.01,0.68-12.49,24.64-15.19,35.45c17.89-28.02,25.32-32.75,25.32-32.75L302.41,278.39z"/>
		<path class="st12" d="M274.73,435.04c-0.68-2.36-9.79-62.12,10.47-93.51C274.39,406,274.73,435.04,274.73,435.04z"/>
	</g>
	<g>
		<g>
			<path class="st15" d="M307.34,374.85c0.06-0.11,0.3-0.82,0.74-2.04c3.38-9.38,18.1-48.84,44.5-77.2
				c0.98,11.98,2.69,11.01,2.69,11.01s27.64-18.1,39.86-34.97c-5.14,18.83-6.11,26.17-6.11,26.17s22.26-12.47,31.3-26.66
				c8.56,14.92-16.88,37.17-22.99,41.09c25.92,5.14,31.79,21.28,30.08,31.06c-1.71,9.78-4.89,28.13-15.41,42.31
				c-10.52,14.18-12.72,31.06-8.07,36.69c4.89-13.7,4.65-14.43,4.65-14.43s31.79-13.21,39.62-28.13
				c21.28-11.74,55.03,5.38,60.9,30.82c5.87,25.44-2.17,60.44-13.4,68.53c-6.95,5.01-40.65,7.77-47.74-1.52s-3.91-23.48,3.42-32.77
				c7.34-9.29,2.93-10.52-0.98-11.49c-3.91-0.98-25.44,12.47-33.26,28.37c-9.54,14.43-17.61,23.23-26.41,19.81
				c-8.8-3.42-32.77-20.54-34.48-25.68c2.45-16.39,11.25-36.2,25.92-57.47c14.67-21.28,22.5-35.95,3.91-46.22
				c-13.45,9.54-30.08,11.49-35.71,9.05c-9.29,0.49-14.43,14.92-14.43,14.92s-20.05,5.14-29.35-0.73"/>
			<circle class="st15" cx="495.32" cy="449.19" r="28.86"/>
			<path class="st15" d="M509.82,413.79c0,0,3.29,6.89,24.18,19.95c15.53-7.62,19.73-13.86,29.72-27.11
				c4.88-10.68-8.97-30.19-12.11-32.02c-9.4,1.31-13.32,7.58-13.32,7.58s0.26-12.54,12.54-21.16c18.29,1.83,37.88,30.04,35.53,56.16
				c-10.97,24.03-30.56,49.89-43.36,60.86c-27.17,3.66-47.8-1.04-48.59-1.04s15.53-63.54,15.53-63.54"/>
			<path class="st15" d="M379.41,475.34c0,0,28.78,8.47,43.09,44.74c2.42,1.34,10.48-0.83,9.94-3.49c0,0,6.72-32.2-2.82-37.22
				c-8.17-4.3-14.76-8.13-12.47-17.69C406.06,448.55,379.41,475.34,379.41,475.34z"/>
			<path class="st15" d="M359.73,519.11c0.78-1.18,17.26-30.04,10.77-36.65c-14.47-13.5-13.98-27.72-13.98-27.72l29.55-3.88
				l-2.92,24.55l5.59,13.53c0,0-10.17,24.34-19.73,31.21C367.5,522.91,361.26,522.66,359.73,519.11z"/>
			<path class="st15" d="M468.38,472.24c-5.86,23.23-14.17,24.6-23.96,38.79c4.21,0.8,4.47,0.35,16.55,0.42
				c0,0,37.73-34.79,37.23-34.75l-7.28-14.84L468.38,472.24z"/>
			<path class="st15" d="M461.06,470.34c1.12,1.12,48.67,22.71,53.38,46.96c5.14,1.57,10.29-2.4,11.41-2.68
				c-0.24-5.84-1.05-16.32-1.74-23.31c-7.09-10.03-12.3-14.99-16.67-23.56C500.44,454.03,461.06,470.34,461.06,470.34z"/>
			<path class="st15" d="M429.67,402.02c-1.16-1.16-10.01-14.25-10.01-14.25s24.36-43.61,23.2-61.32
				c32.94-9.55,70-57.29,85.78-83.09c-5.78,30.81-37.74,83.95-67.01,98.59c-6.55,13.86-25.03,41.59-25.03,41.59l6.55,13.09
				c0,0-1.54,15.02-11.94,5.39"/>
			<path class="st15" d="M450.46,346.57c0,0,41.98,33.89,77.41,1.16c-23.49,13.09-60.46-3.08-69.71-12.32
				C447.77,335.4,450.46,346.57,450.46,346.57z"/>
			<path class="st15" d="M455.99,344.45c1.43,0,66.96-6.09,94.89-46.19c-41.18,26.5-82.36,32.23-82.36,32.23L455.99,344.45z"/>
			<path class="st15" d="M514.61,351.49c-15.58,0.98-12.11-17.75,11.78-34.01c-16.2-1.69-36.55-3.69-14.95-37.08
				c-32.52,33.84-57.73,58.73-57.73,58.73l-8.29,19.58l-13.94,18.91v4.65l8.29,14.93c0,0,28.2-33.84,58.06-38.49
				C506.13,357.71,514.13,356.03,514.61,351.49z"/>
		</g>
	</g>
</g>
</svg>
