<svg version="1.2" baseProfile="tiny-ps" xmlns="http://www.w3.org/2000/svg" viewBox="0 0 207 207" width="207" height="207">
	<title>DINOP-svg</title>
	<defs>
		<clipPath clipPathUnits="userSpaceOnUse" id="cp1">
			<path d="M47 28.5L147 28.5L147 80L47 80L47 28.5Z" />
		</clipPath>
		<clipPath clipPathUnits="userSpaceOnUse" id="cp2">
			<path d="M69 142L159 142L159 178.5L69 178.5L69 142Z" />
		</clipPath>
		<clipPath clipPathUnits="userSpaceOnUse" id="cp3">
			<path d="M42.68 81L50 81L50 125L42.68 125L42.68 81Z" />
		</clipPath>
		<clipPath clipPathUnits="userSpaceOnUse" id="cp4">
			<path d="M159 89L164.18 89L164.18 119L159 119L159 89Z" />
		</clipPath>
		<clipPath clipPathUnits="userSpaceOnUse" id="cp5">
			<path d="M156 116L164.18 116L164.18 144L156 144L156 116Z" />
		</clipPath>
		<clipPath clipPathUnits="userSpaceOnUse" id="cp6">
			<path d="M161 113L164.18 113L164.18 120L161 120L161 113Z" />
		</clipPath>
	</defs>
	<style>
		tspan { white-space:pre }
		.shp0 { fill: #38b6ff } 
		.shp1 { fill: #ad6a45 } 
		.shp2 { fill: #5d97d2 } 
		.shp3 { fill: #1e7452 } 
		.shp4 { fill: #1f7452 } 
		.shp5 { fill: #951a1b } 
		.shp6 { fill: #941b1c } 
		.shp7 { fill: #aabcba } 
		.shp8 { fill: #78704d } 
		.shp9 { fill: #5c7351 } 
		.shp10 { fill: #9a4c4c } 
		.shp11 { fill: #989695 } 
		.shp12 { fill: #8e4b4b } 
		.shp13 { fill: #435b44 } 
		.shp14 { fill: #594b3a } 
		.shp15 { fill: #e6c4a3 } 
		.shp16 { fill: #7cd9b4 } 
		.shp17 { fill: #da9977 } 
		.shp18 { fill: #e9f9fb } 
		.shp19 { fill: #7db6f2 } 
		.shp20 { fill: #fefefe } 
		.shp21 { fill: #cbe2e0 } 
		.shp22 { fill: #36c48c } 
		.shp23 { fill: #7bd9b4 } 
		.shp24 { fill: #37c48d } 
		.shp25 { fill: #36c48d } 
		.shp26 { fill: #7bd8b3 } 
		.shp27 { fill: #fe9999 } 
		.shp28 { fill: #e43839 } 
		.shp29 { fill: #a8f0d4 } 
		.shp30 { fill: #cce2e0 } 
		.shp31 { fill: #fdfefe } 
		.shp32 { fill: #fcfdfd } 
		.shp33 { fill: #e64546 } 
	</style>
	<path id="Layer" class="shp0" d="M103.5 0.38C46.55 0.38 0.38 46.55 0.38 103.5C0.38 160.45 46.55 206.63 103.5 206.63C160.45 206.63 206.63 160.45 206.63 103.5C206.63 46.55 160.45 0.38 103.5 0.38Z" />
	<g id="Clip-Path" clip-path="url(#cp1)">
		<g id="Layer">
			<path id="Layer" class="shp1" d="M47.79 78.87C49.36 73.39 51.6 68.19 54.24 63.16C58.13 55.75 62.93 49.01 69.03 43.25C76.46 36.25 84.98 31.29 95.11 29.33C106 27.22 116.22 29.24 125.86 34.48C134.21 39.02 140.84 45.52 146.4 53.18C146.51 53.33 146.57 53.5 146.66 53.66C146.34 54.38 145.89 54.94 145.02 54.95C144.48 54.77 144.24 54.29 143.94 53.88C139.7 48.19 134.79 43.17 128.92 39.15C122.83 34.98 116.16 32.2 108.84 31.3C99 30.09 89.79 32.12 81.2 37.08C74.36 41.04 68.76 46.37 63.89 52.54C59.88 57.63 56.68 63.22 54.03 69.14C52.61 72.14 51.45 75.25 50.41 78.41C50.2 78.75 50.08 79.16 49.74 79.42C49.01 79.52 48.3 79.54 47.79 78.87Z" />
		</g>
	</g>
	<g id="Clip-Path" clip-path="url(#cp2)">
		<g id="Layer">
			<path id="Layer" class="shp2" d="M158.61 143.66C155.12 151.93 149.71 158.74 142.86 164.43C133.83 171.95 123.43 176.42 111.83 177.92C97.02 179.84 83.14 176.97 70.36 169.09C69.93 168.83 69.39 168.71 69.09 168.24C69.29 167.1 70.19 166.99 71.09 166.89C71.34 166.93 71.56 167.02 71.77 167.14C77.2 170.41 82.96 172.85 89.13 174.34C93.14 175.3 97.19 175.77 101.3 175.97C108.11 176.3 114.74 175.36 121.21 173.4C128.5 171.18 135.15 167.64 141.05 162.77C141.57 162.35 142.14 162 142.59 161.5C147.21 157.61 150.86 152.9 153.97 147.75C154.57 146.47 155.4 145.3 155.82 143.93C156.05 143.54 156.28 143.15 156.62 142.84C157.74 142.53 158.49 142.84 158.61 143.66Z" />
		</g>
	</g>
	<g id="Clip-Path" clip-path="url(#cp3)">
		<g id="Layer">
			<path id="Layer" class="shp3" d="M43.34 123.88C42.91 121.73 42.87 119.54 42.78 117.36C42.3 105.71 43.47 94.25 46.52 82.99C46.61 82.64 46.72 82.29 46.82 81.95C47.63 81.36 48.34 81.54 49 82.19C49.16 82.63 49.04 83.07 48.93 83.5C48.38 85.69 47.92 87.9 47.35 90.08C46.89 92.92 46.36 95.74 46.04 98.6C45.5 103.43 45.18 108.27 45.25 113.13C45.27 114.09 45.27 115.06 45.23 116.02C45.23 117.82 45.48 119.6 45.59 121.38C45.63 122.04 45.78 122.7 45.5 123.33C44.86 123.82 44.2 124.25 43.34 123.88Z" />
		</g>
	</g>
	<path id="Layer" class="shp4" d="M148.64 56.57C151.66 60.96 154 65.71 156.06 70.6C158.36 76.05 160.08 81.68 161.39 87.45C161.47 87.77 161.48 88.1 161.53 88.43C161.61 88.95 161.18 89 160.86 89.09C160.45 89.21 160.09 89.45 159.7 89.62C159.12 89.4 159.2 88.83 159.1 88.4C157.7 81.96 155.66 75.73 153.02 69.7C152.09 67.59 151.05 65.54 149.99 63.51C149.07 61.51 147.72 59.76 146.77 57.78C146.75 57.68 146.75 57.57 146.77 57.46C147.03 57.04 147.47 56.83 147.82 56.52C148.1 56.27 148.39 56.18 148.64 56.57Z" />
	<g id="Clip-Path" clip-path="url(#cp4)">
		<g id="Layer">
			<path id="Layer" class="shp5" d="M161.92 90.2C163.45 97.86 164.26 105.59 164.15 113.4C163.96 114.49 164.18 115.6 163.96 116.69C163.83 117.33 162.47 118.28 161.88 118.09C161.49 117.97 161.48 117.6 161.45 117.27C161.42 114.94 161.44 112.61 161.43 110.29C161.43 108.44 161.49 106.61 161.03 104.78C160.73 103.6 161.14 102.35 160.89 101.14C160.84 100.95 160.81 100.76 160.8 100.57C160.8 99.61 160.82 98.66 160.47 97.74C160.43 97.63 160.4 97.51 160.38 97.39C160.02 95.36 159.77 93.3 159.32 91.28C159.24 90.95 159.22 90.62 159.3 90.29C159.32 90.18 159.38 90.08 159.45 89.99C160.27 90.1 161.14 89.64 161.92 90.2Z" />
		</g>
	</g>
	<path id="Layer" class="shp6" d="M52.42 151.52C49.46 147.22 47.41 142.49 45.79 137.53C44.51 133.61 43.83 129.58 43.53 125.48C43.44 125.26 43.43 125 43.64 124.9C44.29 124.59 44.87 124.04 45.67 124.14C45.95 124.46 46.03 124.86 46.07 125.27C46.41 128.57 46.94 131.85 47.75 135.07C49.08 139.85 50.93 144.4 53.54 148.64C53.88 149.2 54.28 149.75 54.39 150.43C54.01 151.78 53.35 152.15 52.42 151.52Z" />
	<g id="Clip-Path" clip-path="url(#cp5)">
		<g id="Layer">
			<path id="Layer" class="shp7" d="M158.61 143.66C158.11 142.96 157.44 142.83 156.66 143.05C156.33 142.65 156.58 142.28 156.74 141.92C159.35 135.97 160.35 129.66 161.03 123.27C161.18 121.88 161.02 120.45 161.39 119.08C161.43 119.02 161.46 118.94 161.53 118.92C162.64 118.6 163.57 118.02 164.14 116.97C164.3 118.61 163.8 120.19 163.68 121.81C163.36 126.23 162.79 130.63 161.7 134.93C160.94 137.93 160.09 140.91 158.61 143.66Z" />
		</g>
	</g>
	<path id="Layer" class="shp7" d="M71.11 167.11C70.27 167.19 69.56 167.5 69.09 168.25C67.03 167.01 65.16 165.52 63.33 163.97C59.91 161.07 56.82 157.87 54.25 154.17C54.71 153.59 55.51 153.54 56 153.01C56.41 153 56.58 153.32 56.77 153.57C59.28 156.85 62.14 159.79 65.26 162.47C66.89 163.79 68.57 165.03 70.31 166.18C70.64 166.41 71.14 166.54 71.11 167.11Z" />
	<path id="Layer" class="shp8" d="M148.64 56.57C147.77 56.32 147.57 57.44 146.83 57.46C145.83 56.97 145.52 55.93 144.95 55.1C144.94 54.99 144.96 54.89 145.02 54.79C145.81 54.78 146.03 53.92 146.66 53.66C147.44 54.55 148.11 55.51 148.64 56.57Z" />
	<path id="Layer" class="shp9" d="M48.95 82.2C48.26 81.99 47.57 81.74 46.82 81.95C47.07 80.89 47.36 79.86 47.79 78.87C48.43 79.11 49.11 79.21 49.79 79.27C50.07 80.41 49.82 81.39 48.95 82.2Z" />
	<g id="Clip-Path" clip-path="url(#cp6)">
		<g id="Layer">
			<path id="Layer" class="shp10" d="M164.14 116.97C163.94 118.5 162.88 118.94 161.54 119C161.5 118.96 161.45 118.92 161.41 118.88C161.19 118.41 161.19 117.94 161.42 117.47C161.5 117.36 161.61 117.34 161.74 117.4C161.78 117.57 161.79 117.88 161.86 117.89C162.35 117.98 163.59 116.9 163.78 116.41C164.16 115.43 163.73 114.36 164.15 113.4C164.15 114.59 164.14 115.78 164.14 116.97Z" />
		</g>
	</g>
	<path id="Layer" class="shp11" d="M56.01 153.07C55.78 154 54.87 153.85 54.25 154.17C53.9 153.76 53.48 153.4 53.32 152.86C53.81 152.41 54.43 152.15 54.91 151.69C55.01 151.66 55.11 151.66 55.21 151.69C55.65 152.05 56.07 152.41 56.01 153.07Z" />
	<path id="Layer" class="shp12" d="M55.08 151.71C54.66 152.34 54.14 152.82 53.32 152.86C52.95 152.46 52.61 152.05 52.42 151.52C53.52 151.98 53.86 151.18 54.23 150.43C54.97 150.55 55.18 151.03 55.08 151.71Z" />
	<path id="Layer" class="shp13" d="M161.92 90.2C161.16 90 160.32 90.6 159.6 89.97C159.38 89.76 159.56 89.68 159.71 89.58C159.77 89.13 160.02 88.89 160.5 88.89C160.9 88.89 161.27 88.76 161.53 88.43C161.8 88.99 161.88 89.59 161.92 90.2Z" />
	<path id="Layer" class="shp14" d="M45.55 124.09C45.25 124.46 44.88 124.7 44.41 124.82C44.06 124.92 43.6 124.96 43.53 125.48C43.31 124.96 43.3 124.43 43.34 123.88C44.05 123.93 44.6 123.29 45.34 123.41C45.52 123.51 45.6 123.66 45.65 123.85C45.66 123.95 45.63 124.02 45.55 124.09Z" />
	<path id="Layer" class="shp15" d="M145.02 54.79C145.03 54.86 145.03 54.93 145.02 54.99C143.98 55.76 142.66 55.69 141.51 56.13C139.3 56.67 137.1 57.21 134.89 57.73C128.66 59.25 122.47 60.9 116.23 62.36C114.3 62.79 112.4 63.33 110.48 63.79C94.97 67.67 79.44 71.49 63.93 75.36C62.95 75.5 62.04 75.99 61.03 75.89C60.2 75.12 59.64 74.1 58.85 73.28C57.54 71.92 56.11 70.71 54.5 69.72C54.22 69.55 53.91 69.41 53.81 69.05C54.85 66.39 56.21 63.88 57.62 61.4C61.31 54.9 65.83 49.06 71.33 44.01C78.44 37.48 86.6 32.93 96.17 31.27C104.53 29.84 112.66 30.85 120.48 34.2C130.53 38.52 138.27 45.64 144.66 54.38C144.77 54.53 144.9 54.66 145.02 54.79Z" />
	<path id="Layer" class="shp16" d="M116.19 62.1C122.42 60.56 128.62 58.88 134.89 57.49C135.5 57.66 135.86 58.15 136.27 58.57C139.18 61.59 142.8 62.87 146.92 62.98C148 63 149.14 62.68 150.17 63.27C154.27 70.76 157.13 78.71 159.09 87.01C159.29 87.87 159.5 88.72 159.71 89.58C159.67 89.71 159.63 89.84 159.59 89.97C159.55 89.97 159.52 89.99 159.5 90.03C159.28 90.29 159 90.46 158.67 90.56C155.25 91.56 151.84 92.61 148.4 93.58C148.26 93.62 148.11 93.63 147.96 93.64C146.45 93.57 144.93 93.79 143.44 93.94C136.98 94.6 131.34 90.04 129.68 84.57C127.89 78.7 130.91 72.62 136.5 70.83C138.46 70.21 140.49 70.12 142.53 70.47C142.82 71.02 143.36 71.28 143.85 71.6C145.94 72.98 147.32 74.79 147.46 77.39C147.57 79.52 146.85 81.26 145.12 82.51C143.65 83.57 141.64 83.4 140.32 82.16C139.23 81.14 139.41 79.94 140.77 79.36C141.4 79.1 142.1 78.95 142.08 78.09C142.05 77.18 141.42 76.68 140.68 76.38C139.33 75.83 138.08 76.01 136.98 77.04C134.72 79.16 134.55 82.27 136.38 84.78C140.37 90.25 147.11 88.18 149.91 84.82C151.64 82.74 152.38 80.39 152.43 77.76C152.77 75.65 151.99 73.79 151.01 72.05C148.78 68.12 145.43 65.73 140.89 65.32C134.96 64.79 130.21 67.13 126.96 72.04C123.55 77.19 123.42 82.77 125.82 88.39C126.68 90.41 128.17 92.07 129.43 93.85C130.4 95.21 131.11 96.72 131.6 98.33C131.56 98.43 131.52 98.55 131.41 98.59C129.71 99.12 128.09 99.94 126.25 99.93C125.91 99.71 125.81 99.35 125.65 99.02C123.1 93.72 117.22 91.87 112 94.56C107.39 96.94 105.29 100.96 105.4 106.14C105.19 106.56 104.75 106.59 104.38 106.7C102.8 107.17 101.23 107.68 99.64 108.12C98.52 108.43 97.4 108.79 96.28 109.12C95.9 109.23 95.53 109.43 95.12 109.21C95.02 108.39 95.67 107.95 96.11 107.46C97.55 105.87 98.41 103.96 98.77 101.91C99.76 96.28 98.21 91.46 93.79 87.73C90.39 84.87 86.45 83.84 82.02 84.2C77.09 84.6 73.43 87.11 70.34 90.72C69.4 91.82 68.45 92.91 67.48 93.98C63.6 98.29 56.68 99.04 51.73 96.34C49.95 95.37 48.54 93.94 47.41 92.25C46.96 91.56 46.91 90.79 47.11 90.01C47.73 87.4 48.34 84.8 48.95 82.2C49.34 81.25 49.63 80.29 49.79 79.27C49.75 78.88 49.91 78.6 50.23 78.39C50.88 77.73 51.78 77.74 52.58 77.53C53.54 77.27 54.48 76.92 55.49 76.89C58.18 77.32 60.17 78.68 61.14 81.3C61.94 83.43 61.14 85.7 59.3 86.71C58.77 87 58.21 87.16 57.61 87.16C56.13 87.16 55.42 86.15 55.99 84.79C56.26 84.16 56.6 83.54 55.94 82.96C55.23 82.34 54.45 82.42 53.67 82.84C51.46 84.02 50.94 87.11 52.57 89.32C54.36 91.75 56.88 92.27 59.6 91.76C62.99 91.13 65.01 88.82 65.94 85.6C66.88 82.34 66.13 79.3 64.4 76.46C64.14 76.03 63.68 75.69 63.79 75.09C70.22 73.48 76.66 71.88 83.09 70.28C92.21 68.02 101.33 65.77 110.45 63.51C113.52 65.83 115.09 68.97 115.08 72.79C115.07 75.63 114.1 78.21 112.1 80.32C111.72 80.38 111.44 80.61 111.16 80.86C107.81 83.85 102.26 83.38 99.43 79.89C97.74 77.81 97.8 74.61 99.56 72.59C100.48 71.54 102.35 71.05 103.64 71.56C104.32 71.82 104.71 72.36 104.86 73.05C105.02 73.77 104.66 74.22 104.1 74.63C103.08 75.39 103.26 76.41 104.45 76.9C106.19 77.62 108.28 76.46 108.9 74.33C109.49 72.3 109.15 70.42 107.68 68.84C106.08 67.13 104.22 66.06 101.76 66.63C101.26 66.75 100.78 66.97 100.24 66.93C99.39 66.68 98.73 67.2 98.08 67.55C94.71 69.32 92.77 73.38 93.22 77.2C94.09 84.65 101.16 88.94 107.96 87.76C113.63 86.77 117.3 83.37 119.17 78C120.96 72.83 120.35 67.93 117.27 63.36C116.95 62.89 116.52 62.55 116.19 62.1Z" />
	<path id="Layer" class="shp17" d="M55.59 77.12C53.8 77.54 52.02 77.96 50.23 78.39C51.07 75.14 52.34 72.05 53.81 69.05C56.51 70.43 58.65 72.47 60.51 74.83C60.71 75.09 60.89 75.38 60.9 75.73C60.8 76.05 60.53 76.18 60.24 76.25C58.71 76.64 57.2 77.15 55.59 77.12Z" />
	<path id="Layer" class="shp18" d="M154.18 147.93C151.54 152.34 148.42 156.38 144.71 159.95C144.13 160.51 143.48 161.01 142.86 161.54C141.28 162.64 139.38 162.95 137.63 163.64C132.55 165.66 127.22 166.68 121.88 167.7C113.66 169.25 105.37 169.67 97.04 169.4C92.21 169.24 87.39 168.68 82.64 167.65C80.63 167.22 78.55 167 76.62 166.19C76.16 165.68 76.65 165.6 76.96 165.5C77.98 165.21 79 164.92 80.02 164.63C80.38 164.53 80.74 164.45 80.85 164.02C82.04 163.5 83.3 163.25 84.56 162.97C85 163.28 85.47 163.16 85.93 163.03C88.2 162.38 90.46 161.72 92.74 161.16C93.37 161.01 93.8 160.52 94.41 160.34C95.38 160.71 96.27 160.04 97.22 160.12C100.44 160.09 103.66 160.2 106.88 160.08C111.54 159.89 116.16 159.37 120.75 158.52C126.11 157.54 131.38 156.21 136.57 154.54C142.18 152.73 147.65 150.58 152.93 147.95C153.7 147.57 153.7 147.56 154.18 147.93Z" />
	<path id="Layer" class="shp19" d="M76.45 165.98C78.39 166.4 80.33 166.82 82.27 167.24C86.34 168.11 90.47 168.56 94.63 168.91C97.77 169.18 100.9 169.15 104.03 169.11C109.9 169.04 115.71 168.44 121.5 167.42C125.93 166.64 130.32 165.71 134.61 164.39C137.39 163.55 140.06 162.34 142.86 161.54C141.45 163.07 139.75 164.25 138.08 165.45C135.29 167.45 132.3 169.16 129.19 170.62C123.99 173.06 118.55 174.71 112.87 175.61C109.92 176.08 106.95 176.33 103.98 176.4C100.87 176.47 97.73 176.19 94.63 175.75C91.68 175.34 88.77 174.67 85.93 173.8C82.94 172.88 80 171.82 77.2 170.4C75.28 169.44 73.36 168.5 71.57 167.32C71.57 166.79 72.04 166.86 72.35 166.77C73.25 166.47 74.17 166.27 75.07 166C75.53 165.91 75.99 165.62 76.45 165.98Z" />
	<path id="Layer" class="shp20" d="M161.54 119C161.26 127.11 160.13 135.04 156.8 142.53C156.73 142.69 156.7 142.88 156.66 143.05C156.39 143.34 156.39 143.81 155.98 143.99C155.77 144.26 155.51 144.45 155.18 144.54C151.69 145.48 148.24 146.54 144.71 147.34C142.91 147.22 141.59 146.05 140.25 145.07C136.24 142.17 133.77 138.24 132.97 133.32C132.68 131.48 132.64 129.64 133.13 127.82C133.17 127.71 133.24 127.61 133.32 127.52C134.75 126.9 136.18 126.24 137.8 126.3C138 126.62 137.89 126.95 137.82 127.27C136.73 133.05 140.77 138.32 146.6 138.46C150.13 138.56 152.92 136.82 154.96 133.98C157.58 130.33 157.95 126.34 156.55 122.13C156.38 121.61 156.07 121.12 156.32 120.54C157.6 119.71 159.12 119.53 160.5 118.99C160.84 118.94 161.17 118.81 161.5 119L161.54 119Z" />
	<path id="Layer" class="shp19" d="M144.65 147.07C148.43 146.05 152.2 145.02 155.98 143.99C156.08 144.93 155.33 145.52 155.01 146.28C154.78 146.85 154.46 147.38 154.18 147.93C154.02 147.67 153.82 147.77 153.61 147.88C145.68 152.08 137.24 154.94 128.59 157.17C123.31 158.54 117.94 159.46 112.5 160C107.37 160.52 102.25 160.43 97.11 160.41C97.14 159.81 97.65 159.8 98.04 159.67C98.46 159.54 98.89 159.45 99.31 159.32C100.65 158.95 101.99 158.6 103.3 158.17C104.71 157.89 106.08 157.45 107.48 157.11C108.07 156.92 108.68 156.78 109.28 156.59C110.32 156.3 111.36 156 112.4 155.69C114.32 155.18 116.23 154.68 118.14 154.13C120 153.61 121.85 153.09 123.73 152.63C125.33 152.13 126.96 151.74 128.56 151.25C129.33 151.01 130.13 150.86 130.89 150.61C134.19 149.7 137.48 148.83 140.76 147.88C142.05 147.58 143.31 147.11 144.65 147.07Z" />
	<path id="Layer" class="shp21" d="M75.14 166.25C73.95 166.61 72.76 166.96 71.57 167.32C71.41 167.25 71.26 167.18 71.11 167.11C69.13 165.6 66.95 164.35 65.13 162.64C63.57 158.2 64.43 154.12 66.99 150.32C67.75 149.19 68.57 148.08 69.82 147.42C69.84 147.41 69.74 147.25 69.73 147.14C69.98 146.69 70.44 146.66 70.85 146.54C72.24 146.09 73.65 145.71 75.04 145.23C76.57 144.95 77.96 144.11 79.55 144.04C80.66 144.41 81.83 144.57 82.95 144.99C87.25 146.62 89.57 149.78 89.77 154.31C89.92 157.8 88.41 160.7 85.57 162.81C85.31 163.01 85.04 163.23 84.66 163.1C83.45 163.64 82.14 163.83 80.88 164.2C80.05 164.73 79.15 164.58 78.32 164.36C74.85 163.43 72.57 160.69 72.2 157.13C71.89 154.21 73.86 151.43 76.59 150.94C77.1 150.85 77.68 150.66 78 151.21C78.37 151.85 77.74 152.13 77.38 152.46C75.68 154.02 75.32 155.16 76.12 156.96C76.71 158.31 77.79 159.13 79.29 159.21C81.54 159.34 84.06 157.25 84.32 155.01C84.66 152.13 83.72 149.76 81.36 148.02C78.89 146.19 76.3 146.3 73.73 147.65C69.39 149.93 67.67 154.54 69.27 159.19C70.03 161.38 71.27 163.23 72.91 164.83C73.57 165.46 74.44 165.71 75.14 166.25Z" />
	<path id="Layer" class="shp22" d="M47.11 90.01C47.06 92.42 48.81 93.72 50.36 95.04C54.84 98.84 62.96 98.45 67.14 93.93C68.82 92.11 70.3 90.11 72.13 88.41C74.9 85.86 78.05 84.3 81.87 83.94C87.38 83.41 91.93 85.13 95.69 89.13C99.95 93.67 100.62 101.54 97.13 106.64C96.53 107.52 95.77 108.3 95.09 109.13C94.36 110 93.22 109.92 92.29 110.32C91.38 110.48 90.55 110.98 89.59 110.9C89.42 110.84 89.29 110.73 89.27 110.54C89.46 110.02 89.96 109.89 90.38 109.67C93.65 107.91 95.64 105.22 95.88 101.48C96.05 98.7 95.03 96.24 93.18 94.16C92.61 93.52 91.98 92.94 91.31 92.41C88.96 91.03 86.57 89.88 83.74 89.83C79.3 89.75 74.77 92.42 72.94 97.44C71.7 100.83 71.59 104.25 72.96 107.65C73.6 109.27 74.18 110.92 74.66 112.6C74.91 113.45 75.15 114.32 74.79 115.21C73.14 116.28 71.29 116.67 69.39 116.93C68.8 116.72 68.85 116.18 68.8 115.72C68.59 113.43 68.04 111.27 66.68 109.37C64.36 106.13 61.21 104.26 57.28 103.66C53.68 103.12 50.14 102.37 47.2 99.99C46.65 99.55 46.04 99.19 45.79 98.47C46.02 95.61 46.52 92.8 47.11 90.01Z" />
	<path id="Layer" class="shp23" d="M45.79 98.46C48.26 100.66 51.04 102.27 54.34 102.85C56.29 103.19 58.28 103.39 60.16 104.05C64.38 105.54 68.48 109.46 68.93 114.63C69 115.34 68.94 116.11 69.32 116.78C69.27 117.29 68.82 117.25 68.51 117.36C67.55 117.73 66.54 117.94 65.58 118.28C64.91 118.43 64.27 118.84 63.54 118.58C63.24 118.21 63.42 117.8 63.46 117.41C63.84 113.39 61.7 110.36 57.82 109.24C54.99 108.43 52.43 108.95 49.99 110.5C49.16 111.03 48.8 112 47.99 112.55C47.55 112.53 47.38 112.85 47.17 113.16C46.54 114.07 46.12 115.08 45.74 116.11C45.62 116.43 45.64 116.85 45.2 116.98C44.84 116.74 45.15 116.33 44.94 116.08C44.73 110.37 45.05 104.68 45.63 98.99C45.64 98.82 45.73 98.64 45.79 98.46Z" />
	<path id="Layer" class="shp24" d="M44.94 116.08C45.04 116.3 45.14 116.52 45.26 116.78C45.66 115.26 46.31 113.89 47.19 112.63C47.41 112.32 47.41 112.33 47.79 112.5C47.95 112.8 47.81 113.08 47.7 113.35C46.53 116.23 46.75 119.03 48.18 121.76C48.38 122.15 48.63 122.53 48.58 123C47.73 123.83 46.7 124.05 45.57 123.9C45.49 123.74 45.42 123.58 45.34 123.42C45.2 121.38 45.05 119.33 44.92 117.29C44.89 116.89 44.93 116.48 44.94 116.08Z" />
	<path id="Layer" class="shp25" d="M150.17 63.27C147.35 63.28 144.52 63.41 141.78 62.43C139 61.43 136.71 59.81 134.89 57.49C137.07 56.85 139.28 56.29 141.51 55.87C142.69 56.05 143.57 56.96 144.75 57.19C145.46 57.33 146.24 57.24 146.87 57.7C148.09 59.48 149.2 61.34 150.17 63.27Z" />
	<path id="Layer" class="shp26" d="M146.87 57.7C144.85 57.78 143.08 57.12 141.51 55.87C142.65 55.46 143.82 55.18 145.02 54.99C145.63 55.82 146.23 56.64 146.83 57.46C146.84 57.54 146.86 57.62 146.87 57.7Z" />
	<path id="Layer" class="shp27" d="M161.5 118.99C161.22 119.13 160.94 119.27 160.61 119.17C159.93 118.81 159.52 118.17 159.03 117.63C155.26 113.42 150.64 110.7 145.03 110C136.66 108.95 129.38 113.56 126.6 121.13C125.52 124.07 125.16 127.08 125.23 130.18C125.02 130.6 124.59 130.64 124.21 130.76C120.95 131.79 117.66 132.77 114.4 133.81C113.95 133.95 113.49 134.13 113 133.93C112.29 132.87 112.29 131.61 112.17 130.42C111.68 125.71 111.75 121.02 112.68 116.36C113.55 112 114.93 107.84 116.98 103.89C117.21 103.43 117.48 102.98 117.62 102.47C117.97 101.81 118.68 101.89 119.25 101.69C119.78 101.51 120.3 101.34 120.83 101.18C122.43 100.79 123.96 100.21 125.55 99.8C125.78 99.75 126 99.79 126.22 99.83C128.02 99.43 129.78 98.87 131.53 98.27C131.69 97.99 131.97 97.89 132.25 97.8C136.06 96.67 139.85 95.48 143.69 94.45C143.87 94.4 144.05 94.38 144.24 94.37C149.59 93.7 154.7 94.5 159.58 96.81C159.98 97 160.43 97.13 160.61 97.6L160.61 97.59C160.98 98.52 160.9 99.52 161.05 100.48C161.06 100.63 161.07 100.79 161.09 100.94C161.1 100.97 161.13 101 161.13 101.04C161.32 102.95 161.31 102.96 159.41 103.03C159.19 103.04 158.96 103 158.68 103.18C159.07 103.7 159.64 103.99 160.14 104.3C161.04 104.86 161.57 105.67 161.58 106.66C161.62 110.24 161.75 113.83 161.52 117.41C161.52 117.94 161.51 118.46 161.5 118.99Z" />
	<path id="Layer" class="shp28" d="M160.61 97.6C155.38 95 149.88 93.94 144.05 94.67C144.63 93.76 145.66 93.92 146.49 93.61C146.96 93.44 147.51 93.55 147.99 93.34C151.68 92.27 155.38 91.19 159.07 90.12C159.21 90.08 159.36 90.06 159.5 90.03C159.83 92.15 160.16 94.28 160.51 96.4C160.58 96.8 160.65 97.19 160.61 97.6Z" />
	<path id="Layer" class="shp28" d="M161.52 117.41C161.52 114.27 161.44 111.12 161.54 107.98C161.59 106.27 161.04 105.05 159.53 104.28C159.36 104.2 159.21 104.08 159.08 103.96C158.7 103.61 157.82 103.55 157.99 102.96C158.13 102.48 158.91 102.72 159.41 102.7C161.02 102.61 161.03 102.63 161.09 100.93C161.33 101.13 161.28 101.4 161.3 101.65C161.66 106.89 161.91 112.14 161.74 117.4C161.67 117.41 161.59 117.41 161.52 117.41Z" />
	<path id="Layer" class="shp28" d="M161.05 100.48C160.74 99.54 160.76 98.55 160.61 97.59C161.2 98.48 161.07 99.49 161.05 100.48Z" />
	<path id="Layer" class="shp27" d="M63.57 118.5C64.21 118.36 64.85 118.21 65.49 118.06C66.92 118.04 68.04 118.8 69.09 119.61C73.84 123.34 75.02 129.88 71.98 135.15C70.93 136.99 69.84 138.79 68.23 140.22C67.26 141.08 66.19 141.69 64.87 141.76C63.81 141.81 62.95 141.42 62.43 140.5C61.93 139.61 62.08 138.68 62.66 137.88C63.71 136.44 64.96 135.16 65.93 133.66C67.21 131.69 68 129.65 67.16 127.26C65.83 123.51 61.07 122.41 58.27 125.26C56.52 127.05 55.44 129.25 54.73 131.62C53.39 136.11 54.21 140.21 57.07 143.9C58.81 146.14 61.2 147.32 63.84 148.11C64.23 148.23 64.64 148.26 64.93 148.6C64.94 148.99 64.63 149.1 64.36 149.18C61.49 150.03 58.65 150.98 55.76 151.76C55.58 151.8 55.39 151.8 55.21 151.75C55.17 151.74 55.12 151.72 55.07 151.71C54.89 151.21 54.65 150.76 54.23 150.43C52.06 146.84 50.08 143.15 48.73 139.16C48.29 137.87 47.93 136.54 47.53 135.23C47.14 132.96 47.99 130.94 48.81 128.91C49.98 126.02 51.7 123.5 53.88 121.28C54.36 120.92 54.95 120.86 55.49 120.66C57.76 120 60 119.28 62.27 118.65C62.7 118.54 63.11 118.32 63.57 118.5Z" />
	<path id="Layer" class="shp28" d="M54.03 121.45C51.87 123.91 49.95 126.52 48.8 129.63C48.14 131.45 47.61 133.29 47.54 135.23C46.56 132.18 46.23 129 45.8 125.84C45.71 125.26 45.64 124.68 45.56 124.09C45.57 124.03 45.57 123.96 45.57 123.9C46.54 123.59 47.5 123.29 48.47 122.98C49.15 122.37 50.06 122.36 50.86 122.05C51.91 121.86 52.87 121.1 54.03 121.45Z" />
	<path id="Layer" class="shp20" d="M55.21 151.75C58.02 150.67 60.94 149.96 63.8 149.06C64.18 148.94 64.6 148.94 64.89 148.63C66.42 147.8 68 147.16 69.78 147.25C70.17 147.32 70.04 147.41 69.82 147.61C68.2 149.04 66.86 150.68 65.95 152.67C64.59 155.67 64.25 158.75 65.13 161.94C65.19 162.17 65.43 162.41 65.13 162.64C62.04 160.11 59.3 157.23 56.85 154.09C56.58 153.74 56.29 153.41 56.01 153.07C55.75 152.63 55.48 152.19 55.21 151.75Z" />
	<path id="Layer" class="shp22" d="M112 80.21C115.68 75.69 115.82 69.11 111.67 65.03C111.21 64.58 110.58 64.24 110.44 63.52C112.36 63.04 114.27 62.57 116.19 62.11C116.62 62.12 116.9 62.32 117.17 62.69C120.35 66.96 121.13 71.74 119.9 76.8C119.02 80.45 117.07 83.61 113.89 85.7C109.22 88.78 104.22 89.27 99.23 86.57C94.03 83.75 91.66 78.23 93.45 72.52C94.4 69.52 96.71 67.57 99.66 66.46C99.98 66.35 100.17 66.45 100.18 66.81C99.96 67.27 99.48 67.46 99.11 67.74C95.18 70.69 94.02 75.54 96.48 79.79C98.02 82.46 100.4 84.04 103.63 84.16C106.69 84.28 109.2 83.26 111.13 80.86C111.36 80.57 111.59 80.26 112 80.21Z" />
	<path id="Layer" class="shp29" d="M55.59 77.12C57.36 76.65 59.13 76.19 60.9 75.73C61.86 75.52 62.82 75.3 63.79 75.09C65.62 77.31 66.57 79.9 66.64 82.74C66.79 88.07 62.43 93.18 56.63 92.08C54.08 91.59 52.3 90.35 51.57 87.91C50.83 85.46 51.52 83.56 53.82 82.43C54.69 82 55.55 82.08 56.27 82.8C56.98 83.5 56.68 84.16 56.25 84.89C55.65 85.92 56.21 86.83 57.4 86.88C59.93 87 61.77 84.42 61 81.75C60.27 79.29 58.54 77.89 56.09 77.29C55.92 77.25 55.76 77.18 55.59 77.12Z" />
	<path id="Layer" class="shp28" d="M117.85 102.42C118.15 102.79 117.8 103.05 117.66 103.32C115.06 107.95 113.49 112.94 112.68 118.16C111.87 123.4 111.99 128.64 113.06 133.85C112.96 134.12 112.75 134.29 112.5 134.34C111.13 134.63 109.88 135.54 108.38 135.27C108.02 134.59 107.96 133.84 107.93 133.11C107.65 127.5 107.91 121.93 109.07 116.41C109.37 114.97 109.96 113.61 110.41 112.18C107.3 116.52 105.11 121.24 104.05 126.48C103.96 126.87 103.91 127.39 103.43 127.42C102.93 127.45 102.83 126.93 102.74 126.54C102.42 125.25 102.06 123.96 101.68 122.68C101.11 120.79 100.35 118.98 99.44 117.24C98.53 115.5 97.44 113.86 96.36 112.27C96.73 113.23 97.04 114.26 97.37 115.28C97.7 116.3 97.91 117.36 98.05 118.43C98.2 119.53 98.38 120.63 98.51 121.73C99.05 126.39 99.17 131.05 98.5 135.7C98.34 136.72 98.3 137.77 97.69 138.67C96.02 139.67 94.11 139.98 92.27 140.5C92.06 140.55 91.83 140.5 91.68 140.3C91.5 139.71 91.77 139.2 91.96 138.69C93.31 135.03 93.86 131.24 94.15 127.37C94.55 121.96 93.75 116.73 92.2 111.57C92.05 111.09 91.82 110.59 92.17 110.09C93.14 109.76 94.12 109.44 95.09 109.12C96.57 108.7 98.05 108.29 99.53 107.88C100.31 108.1 100.47 108.89 100.89 109.42C101.58 110.29 102.14 111.26 102.77 112.18C103.05 112.6 103.34 112.81 103.63 112.19C104.75 109.76 106.43 107.66 107.7 105.32C107.85 105.15 108.04 105.05 108.25 104.96C109.1 104.66 109.98 104.46 110.84 104.15C112.79 103.58 114.74 103.01 116.68 102.41C117.07 102.3 117.46 102.14 117.85 102.42Z" />
	<path id="Layer" class="shp22" d="M147.99 93.34C146.68 93.79 145.37 94.23 144.06 94.67C140.13 95.81 136.21 96.95 132.28 98.09C132.04 98.16 131.79 98.21 131.54 98.27C130.78 97.6 130.68 96.59 130.24 95.75C129.56 94.46 128.71 93.32 127.83 92.18C124.28 87.59 123.14 82.47 124.55 76.83C126.21 70.2 130.61 66.42 137.13 65.1C142.92 63.93 148.99 67.08 151.6 72.41C152.25 73.73 152.69 75.14 152.83 76.62C152.86 77.01 152.99 77.45 152.62 77.77C152.14 77.75 152.08 77.34 151.95 77.01C150.55 73.28 147.75 71.39 143.89 70.91C143.47 70.86 143 70.97 142.64 70.61C139.95 70.59 137.25 70.47 134.77 71.88C131.71 73.62 129.97 76.32 129.59 79.71C128.91 85.84 132.46 90.5 137.63 92.82C140.29 94.01 143.11 93.71 145.89 93.45C146.59 93.39 147.29 93.38 147.99 93.34Z" />
	<path id="Layer" class="shp29" d="M142.64 70.62C146.82 70.57 149.96 72.3 151.93 76.05C152.23 76.6 152.13 77.3 152.62 77.77C153.05 83.08 148.91 87.77 143.86 88.4C140.84 88.78 138.32 87.73 136.41 85.24C134.57 82.86 134.28 80.63 135.66 78.15C137.14 75.5 140.19 74.95 142 77C142.88 78 142.5 79.29 141.2 79.51C140.46 79.64 140.11 80.09 139.86 80.68C139.57 81.34 140.16 81.61 140.51 81.95C141.7 83.12 143.47 83.23 144.87 82.34C147.87 80.43 147.75 75.98 145.75 73.64C144.9 72.65 143.93 71.79 142.71 71.3C142.13 71.05 142.42 70.86 142.64 70.62Z" />
	<path id="Layer" class="shp29" d="M112 80.21C110.65 82.16 108.93 83.6 106.59 84.2C99.52 86.01 94.03 79.89 95.04 73.96C95.59 70.71 97.22 68.29 100.18 66.8C104.13 65.11 107.09 67.04 108.7 69.75C110.11 72.13 109.81 75.1 107.31 76.94C106.26 77.71 104.39 77.58 103.52 76.71C102.78 75.97 102.91 74.87 103.84 74.43C104.43 74.16 104.77 73.79 104.62 73.15C104.45 72.44 104.07 71.85 103.26 71.73C100.4 71.31 97.93 73.98 98.53 76.82C99.25 80.19 101.32 82.02 104.83 82.44C107.27 82.73 109.39 82.09 111.21 80.43C111.42 80.24 111.61 79.78 112 80.21Z" />
	<path id="Layer" class="shp24" d="M108.2 105.2C108.05 105.28 107.9 105.36 107.76 105.43C107.05 106.03 106.27 106.36 105.32 106.08C104.76 104.24 105.27 102.5 105.96 100.84C107.65 96.76 110.6 94.03 115.01 93.21C119.84 92.32 124.78 95.06 126.22 99.83C126.08 99.88 125.94 99.93 125.8 99.98C125.32 99.73 125.07 99.26 124.77 98.84C122.66 95.8 119.04 94.44 115.33 95.26C111.85 96.03 109.18 98.91 108.52 102.49C108.35 103.39 108.48 104.32 108.2 105.2Z" />
	<path id="Layer" class="shp27" d="M105.32 106.08C106.13 105.86 106.95 105.65 107.76 105.43C107.85 106.24 107.18 106.68 106.84 107.26C105.78 109.03 104.58 110.72 103.73 112.61C103.4 113.32 103.1 113.18 102.75 112.65C101.68 111.06 100.61 109.47 99.54 107.88C101.46 107.28 103.39 106.68 105.32 106.08Z" />
	<path id="Layer" class="shp20" d="M91.78 140.36C93.71 139.77 95.64 139.18 97.57 138.6C98.89 137.64 100.51 137.5 102 137C103.73 136.4 105.49 135.89 107.25 135.36C107.64 135.25 108.03 135.12 108.44 135.23C109.98 134.77 111.52 134.3 113.06 133.84C117.07 132.61 121.09 131.37 125.09 130.13C125.67 129.64 126.3 129.36 127.06 129.56C127.53 130.01 127.55 130.61 127.59 131.2C127.98 136.46 130.25 140.76 134.21 144.18C135.94 145.68 137.91 146.73 140.06 147.5C140.37 147.61 140.83 147.61 140.83 148.13C137.53 149.11 134.23 150.09 130.87 150.83C130.27 149.93 130.15 148.83 129.64 147.88C127.77 144.41 124.96 142.11 121.21 140.98C117.06 139.73 113 139.92 109.2 142.1C105.93 143.98 103.61 146.75 102.88 150.53C102.43 152.84 102.29 155.24 103.21 157.54C103.31 157.8 103.46 158.08 103.3 158.39C102.04 159.01 100.68 159.26 99.33 159.54C98.9 158.82 99.25 158.09 99.35 157.39C99.64 155.29 99.41 153.25 98.89 151.22C98.82 150.91 98.77 150.57 98.4 150.27C98.21 150.91 98.16 151.52 98.07 152.13C97.66 154.79 96.78 157.3 95.38 159.61C95.16 159.96 95.01 160.45 94.45 160.43C94.07 160.96 93.55 161.25 92.92 161.41C90.46 162.08 88 162.77 85.53 163.42C85.24 163.5 84.67 163.95 84.67 163.1C87.71 161.15 89.48 158.34 89.5 154.74C89.51 150.73 87.7 147.34 83.46 145.51C82.39 145.05 81.29 144.57 80.07 144.57C79.84 144.57 79.67 144.39 79.55 144.19C79.68 143.89 79.95 143.75 80.22 143.67C82.08 143.13 83.91 142.5 85.78 141.98C85.96 141.93 86.14 141.94 86.32 141.97C87.48 142.63 88.48 143.52 89.64 144.18C91.73 145.38 94.01 145.96 96.37 146.29C96.55 146.32 96.74 146.31 96.92 146.13C96.7 145.7 96.24 145.61 95.87 145.41C94.13 144.47 92.54 143.34 91.11 141.97C90.77 141.65 90.33 141.36 90.39 140.79C90.77 140.37 91.24 140.27 91.78 140.36Z" />
	<path id="Layer" class="shp20" d="M75.14 166.25C73.45 166.19 72.5 164.94 71.58 163.83C69.5 161.32 68.27 158.48 68.41 155.08C68.57 151.37 71.97 147.43 75.59 146.57C80.67 145.36 85.33 149.77 84.64 154.96C84.34 157.27 82.79 158.59 80.69 159.32C78.98 159.92 77.52 159.4 76.43 158.04C74.98 156.2 74.86 154.07 77.24 152.15C77.5 151.94 78.07 151.87 77.87 151.38C77.67 150.9 77.2 151.15 76.8 151.19C73.57 151.46 72.14 155.27 72.56 157.65C73.16 161.15 75.32 163.08 78.46 164.13C79.19 164.38 80.07 164.19 80.88 164.2C81.55 164.46 81.2 164.59 80.81 164.7C79.52 165.06 78.22 165.41 76.92 165.77C76.76 165.82 76.6 165.91 76.45 165.98C76.01 166.07 75.57 166.16 75.14 166.25Z" />
	<path id="Layer" class="shp30" d="M94.45 160.42C96.31 157.91 97.31 155.05 97.77 151.98C97.86 151.39 97.93 150.81 97.99 150.22C98.02 149.95 98.06 149.66 98.36 149.61C98.75 149.54 98.79 149.87 98.89 150.16C100 153.25 99.97 156.38 99.33 159.54C98.66 160.02 97.72 159.78 97.11 160.41C96.5 160.53 95.89 160.64 95.29 160.77C94.91 160.85 94.54 161 94.45 160.42Z" />
	<path id="Layer" class="shp28" d="M127.09 129.65C126.43 129.81 125.76 129.97 125.09 130.13C124.68 127.4 125.14 124.75 125.94 122.15C127.7 116.48 131.33 112.53 136.92 110.51C140.27 109.29 143.73 109.27 147.17 110.07C152.58 111.34 156.87 114.41 160.36 118.68C160.47 118.82 160.53 119 160.61 119.17C159.28 119.84 157.79 120.05 156.41 120.59C155.77 121.35 154.76 121.21 153.97 121.62C153.53 121.75 153.1 121.94 152.63 121.77C151.24 120.8 149.92 119.73 148.32 119.06C141.36 116.14 135.28 120.45 134.05 126.21C133.93 126.76 133.86 127.32 133.32 127.65L133.32 127.69C133.16 127.9 132.98 128.07 132.72 128.15C131.14 128.66 129.54 129.1 127.96 129.63C127.68 129.72 127.39 129.74 127.09 129.65Z" />
	<path id="Layer" class="shp21" d="M153.95 121.39C154.77 121.13 155.59 120.86 156.41 120.59C156.78 122.21 157.41 123.73 157.57 125.42C157.82 128.09 157.32 130.57 156.02 132.87C154.06 136.35 151.13 138.61 147.09 138.75C140.79 138.98 135.77 132.84 137.74 126.36C138.41 125.46 139.52 125.63 140.4 125.22C142.37 124.59 144.35 123.98 146.32 123.36C147.51 123.18 148.54 122.41 149.79 122.48C151.21 123.78 151.54 125.43 151.34 127.25C151.3 127.67 151.2 128.11 150.71 128.18C150.21 128.25 150.01 127.84 149.82 127.47C149.67 127.18 149.57 126.85 149.41 126.56C148.6 125.03 147.04 124.32 145.4 124.73C143.71 125.16 142.53 126.58 142.49 128.23C142.41 131.13 145.08 133.93 147.89 134.07C151 134.22 153.09 132.71 154.61 130.18C156.2 127.56 155.84 124.94 154.51 122.34C154.34 122.02 154.04 121.76 153.95 121.39Z" />
	<path id="Layer" class="shp21" d="M127.09 129.65C129.17 129 131.25 128.35 133.32 127.7C133.01 130.01 132.95 132.31 133.52 134.61C134.46 138.44 136.46 141.57 139.45 144.11C140.63 145.12 141.99 145.85 143.29 146.68C143.71 146.95 144.16 147.08 144.65 147.07C143.4 147.52 142.13 147.87 140.83 148.13C138.93 147.35 136.99 146.64 135.31 145.41C130.47 141.84 127.71 137.12 127.3 131.07C127.27 130.59 127.17 130.12 127.09 129.65Z" />
	<path id="Layer" class="shp27" d="M140.41 125.44C139.52 125.75 138.63 126.05 137.74 126.36C136.27 126.79 134.79 127.22 133.32 127.66C133.86 126.29 134.02 124.8 134.72 123.47C136.98 119.16 141.68 117.01 146.38 118.15C148.8 118.74 150.92 119.81 152.64 121.64C151.88 122.56 150.86 122.71 149.76 122.61C148.63 122.95 147.5 123.28 146.37 123.61C144.19 123.57 142.09 123.81 140.41 125.44Z" />
	<path id="Layer" class="shp21" d="M103.3 158.38C102.35 156.47 102.22 154.49 102.38 152.36C102.54 150.03 103.16 147.96 104.48 146.06C106.75 142.79 109.86 140.81 113.74 140.17C118.2 139.43 122.35 140.34 125.97 143.06C128.54 145 130.37 147.52 130.88 150.83C130.18 151.23 129.39 151.3 128.63 151.48C128.16 151.36 127.93 150.96 127.64 150.64C124.89 147.59 121.62 145.55 117.38 145.8C113.1 146.05 109.84 148.14 107.99 152.05C107.23 153.65 106.71 155.48 107.55 157.31C106.16 157.77 104.77 158.25 103.3 158.38Z" />
	<path id="Layer" class="shp31" d="M107.55 157.31C106.95 157.26 106.89 156.84 106.88 156.36C106.81 152.2 108.64 149.11 112.2 147.07C116.51 144.58 120.74 145.02 124.79 147.71C126.3 148.7 127.65 149.92 128.63 151.48C127.04 152.05 125.4 152.46 123.76 152.85C123.2 153.07 122.97 152.65 122.72 152.29C120.63 149.32 117.72 148.28 114.23 148.73C111.29 149.11 109.11 152.23 109.43 155.46C109.47 155.92 109.72 156.41 109.32 156.84C108.73 157 108.14 157.15 107.55 157.31Z" />
	<path id="Layer" class="shp21" d="M109.31 156.84C109.05 155.18 108.98 153.57 109.71 151.96C110.64 149.91 112.76 148.49 115 148.36C118.02 148.18 120.47 149.2 122.49 151.43C122.92 151.9 122.91 152.77 123.76 152.85C121.91 153.36 120.05 153.87 118.2 154.38C114.95 152.71 114.35 152.88 112.45 155.93C111.41 156.23 110.36 156.54 109.31 156.84Z" />
	<path id="Layer" class="shp32" d="M112.45 155.93C112.56 154.48 113.41 153.55 114.73 153.18C116.09 152.79 117.34 153.11 118.2 154.39C116.3 154.98 114.39 155.51 112.45 155.93Z" />
	<path id="Layer" class="shp28" d="M69.78 147.25C68.15 147.71 66.53 148.17 64.9 148.63C60.09 147.71 56.6 145.12 54.76 140.5C53.26 136.73 53.59 133.02 55.26 129.4C56.24 127.28 57.3 125.19 59.49 124C63.03 122.05 67.54 124.66 67.79 128.71C67.96 131.41 66.51 133.35 65.1 135.34C64.48 136.2 63.71 136.96 63.05 137.81C62.39 138.66 62.1 139.6 62.79 140.56C63.46 141.5 64.59 141.74 65.79 141.36C67.39 140.86 68.55 139.73 69.5 138.47C71.16 136.29 72.55 133.95 73.14 131.18C74.32 125.71 71.07 119.94 65.75 118.25C65.66 118.22 65.57 118.13 65.48 118.06C66.76 117.64 68.04 117.21 69.32 116.78C71.14 116.35 72.93 115.82 74.7 115.18C75.28 114.7 75.93 114.44 76.7 114.61C79.36 117.17 80.77 120.41 81.57 123.93C82.7 128.91 82 133.73 80.07 138.41C79.48 139.81 78.8 141.17 78 142.46C77.25 143.68 76.36 144.75 75.11 145.48C73.34 146.07 71.56 146.66 69.78 147.25Z" />
	<path id="Layer" class="shp27" d="M75.12 145.48C78.25 142.45 80.04 138.66 81.05 134.5C82.8 127.23 81.57 120.55 76.62 114.76C76.81 114.27 77.27 114.18 77.68 114.05C81.2 112.97 84.73 111.97 88.25 110.91C88.68 110.79 89.11 110.73 89.55 110.77C90.43 110.54 91.3 110.32 92.17 110.09C92.69 112.16 93.3 114.22 93.71 116.31C94.41 119.79 94.73 123.3 94.51 126.86C94.3 130.3 93.85 133.69 92.88 137C92.54 138.13 92.14 139.24 91.77 140.36C91.4 140.7 90.87 140.61 90.46 140.86C89.24 141.67 87.89 142.05 86.44 142.15C84.14 142.83 81.85 143.52 79.55 144.2C78.07 144.63 76.6 145.05 75.12 145.48Z" />
	<path id="Layer" class="shp16" d="M89.56 110.77C85.94 111.87 82.32 112.96 78.71 114.06C78.01 114.28 77.32 114.53 76.62 114.76C75.98 114.9 75.34 115.04 74.7 115.18C74.7 112.31 73.37 109.82 72.46 107.21C70.1 100.47 73.11 91.22 81.75 89.64C84.08 89.21 86.46 89.52 88.63 90.66C89.6 91.18 90.68 91.5 91.52 92.25C91.42 92.73 91.86 92.88 92.08 93.14C95.01 96.6 94.71 101.93 91.4 104.92C89.28 106.84 86.31 107.22 84.12 105.85C82.36 104.74 81.57 102.71 82.29 101.11C82.48 100.66 82.77 100.27 83.16 99.98C84.05 99.32 84.91 99.43 85.55 100.35C85.96 100.93 86.36 101.46 87.16 101.18C87.94 100.9 88.28 100.27 88.35 99.46C88.56 97.25 86.84 95.4 84.34 95.22C80.25 94.92 77.43 97.9 77.27 101.96C77.18 104.23 77.78 106.35 79.3 108.16C81.69 111.02 84.67 111.59 88.11 110.61C88.5 110.5 88.91 110.16 89.35 110.53C89.43 110.61 89.49 110.69 89.56 110.77Z" />
	<path id="Layer" class="shp29" d="M89.36 110.53C87.63 111 85.95 111.52 84.07 111.27C80.93 110.83 79.05 108.88 77.8 106.24C76.27 103.03 76.83 98.7 79.44 96.45C81.73 94.48 85.85 94.16 88.01 96.79C88.98 97.97 88.96 100.16 87.88 101.15C87.05 101.92 86.06 101.78 85.5 100.79C85.22 100.3 85 99.77 84.3 99.82C83.53 99.87 83.03 100.33 82.65 100.96C81.53 102.82 83 104.85 84.35 105.66C86.95 107.21 90.33 106.19 92.17 103.68C94.59 100.38 94.35 96.13 91.63 93.07C91.43 92.85 90.88 92.61 91.53 92.26C96.07 95.6 97.45 101.18 94.84 105.89C93.89 107.61 92.45 108.87 90.73 109.81C90.27 110.05 89.81 110.29 89.36 110.53Z" />
	<path id="Layer" class="shp29" d="M50.92 122.28C50.12 122.59 49.32 122.87 48.47 122.98C46.9 120.4 46.21 117.66 46.92 114.65C47.11 113.89 47.43 113.19 47.79 112.5C49.29 110.17 51.47 108.98 54.18 108.62C57.96 108.11 62.71 110.38 63.69 114.64C63.98 115.91 63.85 117.22 63.57 118.5C60.9 119.31 58.22 120.12 55.55 120.92C54.79 120.54 54.8 119.88 54.96 119.2C55.14 118.43 55.54 117.83 56.36 117.64C56.66 117.57 56.95 117.6 57.25 117.58C58.33 117.51 58.66 116.76 58.04 115.81C56.99 114.22 54.82 113.92 53.12 115.13C51.31 116.4 50.46 118.62 50.93 120.79C51.03 121.28 51.31 121.79 50.92 122.28Z" />
	<path id="Layer" class="shp29" d="M108.2 105.2C107.34 100.67 110.86 95.76 115.57 94.9C119.89 94.11 123.68 96 125.8 99.98C124.18 100.51 122.57 101.07 120.9 101.41C120.13 100.52 119.42 99.57 118.21 99.21C115.98 98.53 113.3 99.68 112.07 101.82C111.6 102.66 111.33 103.59 110.87 104.43C109.98 104.69 109.09 104.95 108.2 105.2Z" />
	<path id="Layer" class="shp16" d="M110.87 104.43C111.24 100.72 114.85 97.83 118.28 98.94C119.5 99.33 120.55 100.02 120.89 101.41C119.94 101.93 118.83 101.99 117.85 102.43C115.52 103.09 113.19 103.76 110.87 104.43Z" />
	<path id="Layer" class="shp16" d="M50.92 122.28C50.73 120.87 50.2 119.51 50.71 118.04C51.42 116 52.64 114.59 54.82 114.14C56.2 113.85 57.82 114.61 58.47 115.88C58.73 116.4 58.8 116.93 58.49 117.46C58.19 117.97 57.74 117.91 57.24 117.88C55.4 117.77 54.66 119.11 55.55 120.93C55.04 121.1 54.53 121.27 54.03 121.45C52.99 121.72 51.95 122 50.92 122.28Z" />
	<path id="Layer" class="shp27" d="M108.44 135.23C104.85 136.48 101.21 137.55 97.57 138.6C98.36 136.21 98.5 133.72 98.6 131.26C98.82 125.91 98.38 120.61 97.08 115.4C96.73 114.03 96.19 112.7 95.84 111.32C99.68 116 102.05 121.36 103.37 127.32C104.7 121.37 107.07 115.97 111.05 111.31C110.69 112.36 110.34 113.4 109.98 114.45C108.85 117.81 108.5 121.32 108.26 124.82C108.02 128.28 108.06 131.76 108.44 135.23Z" />
	<path id="Layer" class="shp30" d="M86.44 142.15C87.74 141.59 89.11 141.24 90.46 140.85C92.19 142.89 94.35 144.32 96.7 145.52C97.01 145.67 97.54 145.74 97.44 146.21C97.33 146.75 96.79 146.63 96.42 146.59C92.75 146.17 89.45 144.85 86.63 142.43C86.54 142.36 86.5 142.24 86.44 142.15Z" />
	<path id="Layer" class="shp20" d="M149.76 122.61C150.72 122.29 151.68 121.96 152.64 121.64C153.07 121.55 153.51 121.47 153.95 121.39C154.56 121.57 154.75 122.12 154.99 122.6C157.5 127.6 154.8 132.81 150.14 134.2C145.98 135.44 141.55 131.88 142.2 127.48C142.39 126.14 144.05 124.62 145.6 124.34C147.18 124.06 148.77 124.79 149.56 126.18C149.69 126.4 149.79 126.64 149.9 126.87C150.12 127.3 150.05 128.1 150.73 127.96C151.3 127.85 151.01 127.14 151.09 126.69C151.37 125.1 150.56 123.86 149.76 122.61Z" />
	<path id="Layer" class="shp33" d="M140.41 125.44C141.8 123.57 143.89 122.92 146.37 123.61C144.38 124.22 142.4 124.83 140.41 125.44Z" />
</svg>