<svg xmlns="http://www.w3.org/2000/svg" xmlns:xlink="http://www.w3.org/1999/xlink" width="569" height="426.92" viewBox="0 0 569 426.92">
  <defs>
    <linearGradient id="linear-gradient" x1="0.5" y1="-8.188" x2="0.5" y2="18.616" gradientUnits="objectBoundingBox">
      <stop offset="0" stop-color="#2b388f"/>
      <stop offset="1"/>
    </linearGradient>
    <linearGradient id="linear-gradient-2" y1="-9.294" y2="15.932" xlink:href="#linear-gradient"/>
    <linearGradient id="linear-gradient-3" y1="-6.118" y2="19.109" xlink:href="#linear-gradient"/>
    <linearGradient id="linear-gradient-4" y1="-11.625" y2="15.178" xlink:href="#linear-gradient"/>
    <linearGradient id="linear-gradient-5" y1="0.711" y2="3.469" xlink:href="#linear-gradient"/>
    <linearGradient id="linear-gradient-6" y1="-2.756" y2="2.568" xlink:href="#linear-gradient"/>
    <linearGradient id="linear-gradient-7" y1="-2.429" y2="17.993" xlink:href="#linear-gradient"/>
    <linearGradient id="linear-gradient-8" y1="-4.647" y2="20.579" xlink:href="#linear-gradient"/>
  </defs>
  <g id="DOGIRA_LOGO" transform="translate(106.279)">
    <g id="Слой_3" data-name="Слой 3">
      <circle id="Ellipse_974" data-name="Ellipse 974" cx="205.8" cy="205.8" r="205.8" transform="translate(7.26 7.12)"/>
    </g>
    <g id="Слой_2" data-name="Слой 2">
      <path id="Path_10115" data-name="Path 10115" d="M16.1,258q1.38,8.12,3.38,16H419.8q2-7.89,3.38-16Z" transform="translate(-7.28 -9.42)" fill="url(#linear-gradient)"/>
      <path id="Path_10116" data-name="Path 10116" d="M22.61,285q2.72,8.67,6.18,17h381.7q3.45-8.33,6.18-17Z" transform="translate(-7.28 -9.42)" fill="url(#linear-gradient-2)"/>
      <path id="Path_10117" data-name="Path 10117" d="M13.31,231q.31,8.59,1.34,17h410q1-8.4,1.34-17Z" transform="translate(-7.28 -9.42)" fill="url(#linear-gradient-3)"/>
      <path id="Path_10118" data-name="Path 10118" d="M405.56,313H33.72q4,8.21,8.66,16H396.9Q401.57,321.22,405.56,313Z" transform="translate(-7.28 -9.42)" fill="url(#linear-gradient-4)"/>
      <path id="Path_10119" data-name="Path 10119" d="M419.78,172C397.06,82.64,316.07,16.54,219.64,16.54S42.22,82.64,19.5,172Z" transform="translate(-7.28 -9.42)" fill="url(#linear-gradient-5)"/>
      <path id="Path_10120" data-name="Path 10120" d="M56,349a206.49,206.49,0,0,0,327.26,0Z" transform="translate(-7.28 -9.42)" fill="url(#linear-gradient-6)"/>
      <path id="Path_10121" data-name="Path 10121" d="M14.54,199h410.2a207.167,207.167,0,0,0-3.54-21H18.08a207.175,207.175,0,0,0-3.54,21Z" transform="translate(-7.28 -9.42)" fill="url(#linear-gradient-7)"/>
      <path id="Path_10122" data-name="Path 10122" d="M13.84,206c-.45,5.62-.7,11.3-.7,17h413c0-5.74-.25-11.42-.7-17Z" transform="translate(-7.28 -9.42)" fill="url(#linear-gradient-8)"/>
    </g>
    <g id="Слой_6_копия_" data-name="Слой 6 (копия)">
      <path id="Path_10123" data-name="Path 10123" d="M-99,105" transform="translate(-7.28 -9.42)" fill="none"/>
      <path id="Path_10124" data-name="Path 10124" d="M24.82,157.94c-.08.25-.15.51-.23.76a7,7,0,0,0,.82-1.45A4,4,0,0,0,24.82,157.94Z" transform="translate(-7.28 -9.42)" stroke="#000" stroke-miterlimit="10" stroke-width="9"/>
      <path id="Path_10125" data-name="Path 10125" d="M26.21,156c.75-1.05,1.49-2.11,2.23-3.16A32.771,32.771,0,0,0,26.21,156Z" transform="translate(-7.28 -9.42)" stroke="#000" stroke-miterlimit="10" stroke-width="9"/>
      <path id="Path_10126" data-name="Path 10126" d="M420.09,271.66c-1.78.09,1-31.34-11.59-57.16a116,116,0,0,0-27.5-36,53.348,53.348,0,0,1,13.5,6,54.77,54.77,0,0,1,18,18.5,121.539,121.539,0,0,0-17-39.5A123.73,123.73,0,0,0,346.59,121h0c-1.64-2.73-3.27-5.22-4.84-7.47h0a45.63,45.63,0,0,1,19.91,8.5,32,32,0,0,0-7.66-15.7,31.14,31.14,0,0,0-8.67-6.66,47.23,47.23,0,0,1,12.67.66,48.41,48.41,0,0,1,21.67,10.34,81.66,81.66,0,0,0-28-30,80.43,80.43,0,0,0-25-10.34L337.33,66a95.43,95.43,0,0,1-16.66-1.67,96.3,96.3,0,0,1-23.34-7.6A35.33,35.33,0,0,0,263,59a150.389,150.389,0,0,1,44.1,21h0C297,73.49,287.33,69.19,279,65.5c-10.55-4.67-24.25-10.62-43.5-13-3.29-.41-7.18-.87-11.57-1.13H224a127.8,127.8,0,0,1,32,5.36,20.33,20.33,0,0,0,7.35-3.06c3.57-2.42,6.61-6.21,6-7-.38-.51-2,.45-3.91,1-3,.84-7.39.84-13.75-2.65.07,0,5.11-2.27,10-5a33.12,33.12,0,0,0,9.66-9h0c-.12-.35-10.42,3.39-20.67,5.36A97.4,97.4,0,0,1,236,38l13.5-15c-10.32.47-31.86,3-51.5,18.33A83.85,83.85,0,0,0,183,56.5c3-.89,6.49-1.79,10.36-2.59-2.4.58-4.86,1.27-7.36,2.09-1.85.61-3.62,1.26-5.33,1.93-2.46-.74-6-1.7-10.34-2.6a138.67,138.67,0,0,0-27.46-2.8A143.16,143.16,0,0,0,153.49,74,88.8,88.8,0,0,0,137.4,92.27a119.161,119.161,0,0,1-26.9-2.77,117.591,117.591,0,0,1-18-5.5,53.92,53.92,0,0,0,30.82,34.82A134.139,134.139,0,0,0,116.5,142a23.21,23.21,0,0,1,14.39,10.17,11.08,11.08,0,0,0-.14,4.08l-21.29,11.31,15,10.94-18,28.63.35.59A24.6,24.6,0,0,0,111,213h0c.23.22.47.44.72.65l.81.69h0A23.09,23.09,0,0,0,119,218a22.82,22.82,0,0,0,4.62,1.19l.44.07h.13a28.46,28.46,0,0,0,7,.22,32.08,32.08,0,0,1,12.33,2.88c4.36,2,7.31,4.66,10.5,3.62a4.329,4.329,0,0,0,.73-.31,7.29,7.29,0,0,0,2.77-2.81l.07.18a3.545,3.545,0,0,0,.15.83c-.09.17-.16.32-.22.45a5.23,5.23,0,0,0,2,2.66,4.461,4.461,0,0,0,1,.51,6.88,6.88,0,0,0,1.47,1c3.13,1.55,6.06.1,10.75-.37a32.069,32.069,0,0,1,12.75,1.37A112.189,112.189,0,0,1,217,199a31.55,31.55,0,0,1,8,7c1.25,1.55,3.65,4.84,6,12a71.541,71.541,0,0,1,3.5,21.5A48.09,48.09,0,0,0,236,210a87.539,87.539,0,0,1,10.5,26.5,97.852,97.852,0,0,1,1.72,10.5c0,.34.07.67.1,1a85.88,85.88,0,0,1-5.26,37c-.48,1.16-1,2.33-1.56,3.5-9.28,19.27-24.65,28.93-30.5,32.5-1.65,1-3.31,1.93-5,2.8l-1.6.8-1.35.66-1.59.72-1.14.5c-.8.34-1.59.66-2.38,1h-.1a88.811,88.811,0,0,1-22.21,5.15,85.45,85.45,0,0,1-20.32-37,51.732,51.732,0,0,1-.66,7.33,50.921,50.921,0,0,1-2,8,165.05,165.05,0,0,1-27.34-51,78.43,78.43,0,0,0,12.07,63,34.39,34.39,0,0,1-26.07-19,42.09,42.09,0,0,0,11.56,25.94L117,329c-2.06-.33-4.27-.71-6.57-1.15a30.68,30.68,0,0,1-6.43-5.52c0,1.22,0,2.65.07,4.24-4.06-.87-8.41-1.92-13-3.17a160.94,160.94,0,0,1-25.39-82.9A61.93,61.93,0,0,0,55,280a65.281,65.281,0,0,1-5.68-9.67,63.932,63.932,0,0,1-3.16-8,68.078,68.078,0,0,0,0,8.34A69.568,69.568,0,0,0,47,278a73.28,73.28,0,0,1-8.67-11.17,74.121,74.121,0,0,1-8.9-20.39c-3.73-20.79-2.43-36.35-2.27-38A135.65,135.65,0,0,1,33.72,178L22.61,193.5q-3.08-15.42-3.08-15.5h0c-.77,3.15-1.8,7.77-2.68,13.4-4.68,30.11.56,53.86,3.15,65.6,15.47,70.12,59,112,59,112,62.28,59.92,142.46,56.22,154,55.5,7.14-.45,95.49-7.42,152.5-82.5a208.259,208.259,0,0,0,35.42-73.41C420.63,271.18,420.31,271.65,420.09,271.66ZM358.89,242.47ZM166.79,61.8l-.46-.22.16.07Zm-20.72-8.24-.65-.21Zm17.4,6.72-.17-.07Zm-6.27-2.65h0Zm-2.84-1.11-.59-.23Zm-2.78-1-.74-.27Zm-2.75-1-.76-.26ZM132,101c-.52.89-1.06,1.84-1.62,2.84,2-3.57,3.92-6.84,5.87-9.81C134.66,96.49,133.27,98.84,132,101Zm-2.63,4.7c.08-.14.15-.26.22-.4l-.28.53Zm4.37,52.88h0l.76,3.92c-1.13-1.99-1-3.22-.76-3.92Z" transform="translate(-7.28 -9.42)" stroke="#000" stroke-miterlimit="10" stroke-width="9"/>
    </g>
    <g id="Слой_6" data-name="Слой 6">
      <path id="Path_10127" data-name="Path 10127" d="M108,206l26.5-43.5a23.42,23.42,0,0,0-18-20.5A131.29,131.29,0,0,1,132,101c4.46-7.6,10.33-17.4,21.5-27A96.8,96.8,0,0,1,186,56c20.91-6.85,38.5-4.86,49.5-3.5,19.25,2.38,32.95,8.33,43.5,13,14.68,6.5,33.59,14.88,51.5,34a135.4,135.4,0,0,1,29,49.5c9.16,27.74,6.89,50.83,5.5,63.5A164.81,164.81,0,0,1,344,277c-15.31,26.27-34.05,41.15-43.5,48.5A185.207,185.207,0,0,1,261,349a204.729,204.729,0,0,1-44.5,14.5,175.08,175.08,0,0,1-45,4c-22.74-1-39.37-6.45-50-10-15.73-5.25-27.5-9.18-40-19.5a91.671,91.671,0,0,1-21-25A253.2,253.2,0,0,0,117,329c30.72,4.92,64.07,10.26,94-8,5.85-3.57,21.22-13.23,30.5-32.5,11-22.78,6.57-44.72,5-52A87.54,87.54,0,0,0,236,210a48.09,48.09,0,0,1-1.5,29.5A71.541,71.541,0,0,0,231,218c-2.35-7.16-4.75-10.45-6-12a31.55,31.55,0,0,0-8-7,112.189,112.189,0,0,0-31.5,30.5c-5.35-3.51-9.63-4.09-12.5-4-6.19.19-10.56,3.66-13.5,1.5-1.54-1.13-1.91-3.24-2-4.66-.62,1.37-1.7,3.11-3.5,3.66-2.76.84-5.53-1.19-8.5-3a51.59,51.59,0,0,0-14-5.71,20.64,20.64,0,0,1-12.5-.83A21,21,0,0,1,108,206Z" transform="translate(-7.28 -9.42)" fill="#c77d36" stroke="#8c5019" stroke-miterlimit="10" stroke-width="2"/>
      <path id="Path_10128" data-name="Path 10128" d="M123.32,118.82A53.92,53.92,0,0,1,92.5,84a117.589,117.589,0,0,0,18,5.5,119.16,119.16,0,0,0,26.9,2.77,140.939,140.939,0,0,0-14.08,26.55Z" transform="translate(-7.28 -9.42)" fill="#c77d36" stroke="#8c5019" stroke-miterlimit="10" stroke-width="2"/>
      <path id="Path_10129" data-name="Path 10129" d="M166.33,92a143.109,143.109,0,0,1-11-15,142.711,142.711,0,0,1-12.46-24.47,190.73,190.73,0,0,1,79.77,48.88c-12.12-14.24-28.76-21.18-43-17.16A31.91,31.91,0,0,0,166.33,92Z" transform="translate(-7.28 -9.42)" fill="#f9edc7" stroke="#8c5019" stroke-miterlimit="10" stroke-width="2"/>
      <path id="Path_10130" data-name="Path 10130" d="M142.87,52.53a138.671,138.671,0,0,1,27.46,2.8,116.764,116.764,0,0,1,13.47,3.59,113,113,0,0,1,13.87,5.75,44.71,44.71,0,0,1,25,36.74c-3.65-3.73-7.72-7.59-12.25-11.48a190.68,190.68,0,0,0-67.52-37.4Z" transform="translate(-7.28 -9.42)" fill="#c77d36"/>
      <path id="Path_10131" data-name="Path 10131" d="M142.87,52.53l3.23-.06h3.22c2.16,0,4.31.14,6.46.28,4.3.29,8.59.77,12.86,1.48a122.941,122.941,0,0,1,12.66,2.83,106.36,106.36,0,0,1,12.26,4.37c2,.87,3.95,1.72,5.93,2.73a48,48,0,0,1,5.65,3.46,45.54,45.54,0,0,1,19,33.68l.31,4.11-2.85-3A196.643,196.643,0,0,0,185.2,73a206.644,206.644,0,0,0-20.55-11.4,211.618,211.618,0,0,0-21.78-9.07Zm0,0a175.005,175.005,0,0,1,22.36,7.77A178.064,178.064,0,0,1,186.39,71,181.82,181.82,0,0,1,206,84.48a186.337,186.337,0,0,1,17.7,15.89l-2.54,1.16a43.89,43.89,0,0,0-17.59-31.75,45.21,45.21,0,0,0-5.27-3.36c-1.84-1-3.79-1.91-5.71-2.8a114.4,114.4,0,0,0-24.24-7.91,149.93,149.93,0,0,0-25.48-3.18Z" transform="translate(-7.28 -9.42)" fill="#8c5019"/>
      <path id="Path_10132" data-name="Path 10132" d="M183,56.5a83.849,83.849,0,0,1,15-15.17C217.64,26,239.18,23.47,249.5,23L236,38a97.4,97.4,0,0,0,14.67-1.67c10.25-2,20.55-5.71,20.67-5.36h0a33.12,33.12,0,0,1-9.66,9c-4.89,2.73-9.93,5-10,5,6.36,3.49,10.77,3.49,13.75,2.65,1.9-.53,3.53-1.49,3.91-1,.61.79-2.43,4.58-6,7A20.33,20.33,0,0,1,256,56.73a127.36,127.36,0,0,0-73-.23Z" transform="translate(-7.28 -9.42)" fill="#8c5019" stroke="#66330e" stroke-miterlimit="10" stroke-width="2"/>
      <path id="Path_10133" data-name="Path 10133" d="M217,199a88.19,88.19,0,0,1,65.5-27A33.59,33.59,0,0,0,267,154.5a21.939,21.939,0,0,0,5.5.5,23.08,23.08,0,0,0,12-4c-1.22,0-6.89-.25-10.71-4.67a13,13,0,0,1-2.45-4.33A55.66,55.66,0,0,0,300,122a65.68,65.68,0,0,1-37-5.5l8.35-12c-4,1.38-8.32,2.73-12.84,4-4.86,1.37-9.54,2.52-14,3.5A19.52,19.52,0,0,0,253,94.27a59.939,59.939,0,0,1-10,11.23c-13.32,11.58-24.21,10.33-34,19-4.63,4.11-10.27,11.55-12.5,26l-23.5,15-22-10-17.26,3.08.76,3.92-28,44.63a24.37,24.37,0,0,0,6.14,7.24c7.45,5.87,16.11,5.36,18.53,5.13a32.081,32.081,0,0,1,12.33,2.88c4.36,2,7.31,4.66,10.5,3.62a6.7,6.7,0,0,0,3.5-3.12,9.9,9.9,0,0,0,4.5,5.62c3.13,1.55,6.06.1,10.75-.37a32.07,32.07,0,0,1,12.75,1.37A112.189,112.189,0,0,1,217,199Z" transform="translate(-7.28 -9.42)" fill="#f9edc7" stroke="#8c5019" stroke-miterlimit="10" stroke-width="2"/>
      <path id="Path_10134" data-name="Path 10134" d="M108,206a26.19,26.19,0,0,0,14-4c5.42-3.57,5.64-7.47,13-18,6.13-8.77,9.19-13.16,14-14.75,5-1.67,7,.58,17-.5a63.13,63.13,0,0,0,12-2.5c4.05-1.36,13.16-5.21,21.67-16.83L160.5,144.5c-4.42,1.63-8.12,2.76-10.75,3.5-6.94,2-10.41,2.36-13.25,5.5a12.88,12.88,0,0,0-2.76,5.08l.76,3.92Z" transform="translate(-7.28 -9.42)" fill="#c77d36" stroke="#8c5019" stroke-miterlimit="10" stroke-width="2"/>
      <path id="Path_10135" data-name="Path 10135" d="M106.5,207.13A32.06,32.06,0,0,0,125.41,199a7.47,7.47,0,0,1,6.54,4.65,7.86,7.86,0,0,1-.95,7.1,5.87,5.87,0,0,0-6.46-.07,13.77,13.77,0,0,0,5.91,8.57A23.64,23.64,0,0,1,119,218a24.44,24.44,0,0,1-12.5-10.87Z" transform="translate(-7.28 -9.42)" fill="#040308"/>
      <path id="Path_10136" data-name="Path 10136" d="M123.67,177.64l-15.21-11.08,21.29-11.31a9.88,9.88,0,0,1,1.19-6.75c2.75-4.4,9.8-6.19,17.06-3.5l49.86-28.26c.46,3.25.93,6.5,1.39,9.76q1.6,11.28,3.25,22.5l-36,15.95L150,154.5c-9.27-1.51-16.13-.16-17.26,3.08-.24.7-.37,1.93.76,3.92Q128.58,169.57,123.67,177.64Z" transform="translate(-7.28 -9.42)"/>
      <path id="Path_10137" data-name="Path 10137" d="M-99,105" transform="translate(-7.28 -9.42)" fill="none"/>
      <path id="Path_10138" data-name="Path 10138" d="M236,210c6.95,1.08,28.76,5.39,45,24.5,21.19,24.93,16.57,55.82,15.5,63A73.48,73.48,0,0,1,289,321a70.69,70.69,0,0,1-28,28,199.48,199.48,0,0,1-99.52,17.74,201.952,201.952,0,0,1-75.23-25.09A90.72,90.72,0,0,1,60.5,313,269.753,269.753,0,0,0,117,330c13.56,2.49,27.26,4.92,45.49,3.71,14.36-.95,28.39-1.88,44-10.17,6.17-3.28,27.29-14,36.52-38.54A85.76,85.76,0,0,0,236,210Z" transform="translate(-7.28 -9.42)" fill="#f9edc7" stroke="#8c5019" stroke-miterlimit="10" stroke-width="2"/>
      <path id="Path_10139" data-name="Path 10139" d="M239,359c-6.81.05-36.38-.49-60.33-23.33a85.07,85.07,0,0,1-23.34-40,51.73,51.73,0,0,1-.66,7.33,50.919,50.919,0,0,1-2,8,165.05,165.05,0,0,1-27.34-51,78.43,78.43,0,0,0,12.07,63,34.39,34.39,0,0,1-26.07-19,42.23,42.23,0,0,0,14.18,28.48A29.4,29.4,0,0,1,117,331a30.14,30.14,0,0,1-13-8.67,42.53,42.53,0,0,0,3.33,18c5.94,13.9,17.67,20.21,21.34,22A204.16,204.16,0,0,0,239,359Z" transform="translate(-7.28 -9.42)" fill="#8c5019" stroke="#8c5019" stroke-miterlimit="10" stroke-width="2"/>
      <path id="Path_10140" data-name="Path 10140" d="M122.83,359.83A163.86,163.86,0,0,1,77,296a162.09,162.09,0,0,1-11.33-55.5A61.93,61.93,0,0,0,55,280a65.281,65.281,0,0,1-5.68-9.67,63.928,63.928,0,0,1-3.16-8,68.078,68.078,0,0,0,0,8.34A69.574,69.574,0,0,0,47,278a73.28,73.28,0,0,1-8.67-11.17,74.32,74.32,0,0,1-9.66-23.5,150,150,0,0,0,12,42.67c4.31,9.59,12.94,28.3,32.1,45.75a128.43,128.43,0,0,0,50.06,28.08Z" transform="translate(-7.28 -9.42)" fill="#8c5019" stroke="#8c5019" stroke-miterlimit="10" stroke-width="2"/>
      <path id="Path_10141" data-name="Path 10141" d="M366,206l35,11.5,18.78,35,1.14,16.09a190.611,190.611,0,0,1-27.49,72.91C341.18,422.93,244.14,431.32,234.5,432c-9.89.69-96.91,5.37-163-60-3.43-3.4-48.27-48.87-58.36-114-2.43-15.71-.81-40.74,3.71-66.6a283,283,0,0,1,8-33.46l3.62-5.14A41.94,41.94,0,0,0,19.53,178a40.07,40.07,0,0,0,3.08,15.5L33.72,178a135.649,135.649,0,0,0-6.56,30.46c-.28,2.86-4.07,48.44,21.84,90,38.77,62.25,114.71,68.48,122.5,69A218.87,218.87,0,0,0,296,329a169.86,169.86,0,0,0,62.89-86.53Q362.43,224.23,366,206Z" transform="translate(-7.28 -9.42)" fill="#8c5019"/>
      <path id="Path_10142" data-name="Path 10142" d="M155.69,223.48a22.76,22.76,0,0,1,9.85-10,22.46,22.46,0,0,1,13.65-2.22l-1.58,1.32.49-7.16.09-1.2h1.14l8.67.2-1,1,.2-8.5v-.8h.76l5-.22-.66.58a21.06,21.06,0,0,1,3-7.39,14.62,14.62,0,0,1,6-5.13c1.17-.57,2.34-1.11,3.43-1.77a20.87,20.87,0,0,0,3.09-2.28,24,24,0,0,0,4.89-6,24.559,24.559,0,0,1-4.64,6.23,22.49,22.49,0,0,1-3.05,2.46c-1.09.73-2.26,1.34-3.38,2a13.57,13.57,0,0,0-5.44,5.07,19.63,19.63,0,0,0-2.45,7.08l-.09.53h-.57l-5,.45.77-.83.2,8.5v1h-1.05l-8.67.2,1.23-1.17-.17,7.17v1.48l-1.55-.16a19.41,19.41,0,0,0-11.65,2.44,19,19,0,0,0-7.85,8.7Z" transform="translate(-7.28 -9.42)" fill="#8c5019"/>
      <path id="Path_10143" data-name="Path 10143" d="M346.59,121a123.73,123.73,0,0,1,48.91,42.5,121.539,121.539,0,0,1,17,39.5,54.77,54.77,0,0,0-18-18.5,53.349,53.349,0,0,0-13.5-6,131.21,131.21,0,0,1,42.21,93A111.9,111.9,0,0,0,386.5,224a66.67,66.67,0,0,1-3.5,56,80.87,80.87,0,0,0-5-39,79.721,79.721,0,0,0-14-23,186.712,186.712,0,0,0,.24-30.48A189.54,189.54,0,0,0,346.59,121Z" transform="translate(-7.28 -9.42)" fill="#c77d36" stroke="#8c5019" stroke-miterlimit="10" stroke-width="2"/>
      <path id="Path_10144" data-name="Path 10144" d="M263,59a35.33,35.33,0,0,1,34.34-2.26,96.3,96.3,0,0,0,23.34,7.6A95.429,95.429,0,0,0,337.33,66l-10.66,4.33a80.43,80.43,0,0,1,25,10.34,81.66,81.66,0,0,1,28,30A48.41,48.41,0,0,0,358,100.33a47.23,47.23,0,0,0-12.67-.66,31.14,31.14,0,0,1,8.67,6.66A32,32,0,0,1,361.67,122a45.63,45.63,0,0,0-19.91-8.5A150.36,150.36,0,0,0,263,59Z" transform="translate(-7.28 -9.42)" fill="#aa6531" stroke="#66330e" stroke-miterlimit="10" stroke-width="2"/>
      <path id="Path_10145" data-name="Path 10145" d="M362.84,226.6c8.28,24.73,7.59,44.69,6.16,56.4-7,56.93-52.75,91.29-67,102a186,186,0,0,1-32,19.33,44.94,44.94,0,0,0,16.39-35.13,95.43,95.43,0,0,1-34.68,15.35c-21.09,4.55-41.34,1.06-41.52-1.61-.13-1.94,10.34-2.41,25.71-10.4a102.866,102.866,0,0,0,14.19-8.92,63.49,63.49,0,0,1-26.66-4.92,64.92,64.92,0,0,1-29.5-25.43,161.52,161.52,0,0,0,72.16,6.31A64.31,64.31,0,0,1,245,332a63.536,63.536,0,0,1-11-8c8.54,1.21,45.68,5.49,81-19C355.11,277.19,361.85,233.78,362.84,226.6Z" transform="translate(-7.28 -9.42)" fill="#c77d36" stroke="#8c5019" stroke-miterlimit="10" stroke-width="2"/>
      <path id="Path_10146" data-name="Path 10146" d="M470,243" transform="translate(-7.28 -9.42)" fill="#c77d36" stroke="#c77d36" stroke-miterlimit="10" stroke-width="2"/>
    </g>
    <g id="Слой_7" data-name="Слой 7">
      <path id="Path_10147" data-name="Path 10147" d="M220.74,13.42c-115.68,0-209.46,93.78-209.46,209.46s93.78,209.46,209.46,209.46S430.2,338.56,430.2,222.88,336.42,13.42,220.74,13.42Zm.41,414.44c-113.21,0-205-91.78-205-205s91.79-205,205-205,205,91.78,205,205-91.78,205-205,205Z" transform="translate(-7.28 -9.42)" stroke="#000" stroke-miterlimit="10" stroke-width="8"/>
    </g>
  </g>
</svg>
