<svg width="434" height="427" xmlns="http://www.w3.org/2000/svg" xmlns:xlink="http://www.w3.org/1999/xlink" overflow="hidden"><defs><clipPath id="clip0"><rect x="458" y="146" width="434" height="427"/></clipPath><clipPath id="clip1"><rect x="459" y="147" width="432" height="426"/></clipPath><clipPath id="clip2"><rect x="459" y="147" width="432" height="426"/></clipPath><clipPath id="clip3"><rect x="355" y="147" width="569" height="426"/></clipPath><linearGradient x1="219.126" y1="126.695" x2="219.126" y2="554.554" gradientUnits="userSpaceOnUse" spreadMethod="pad" id="fill4"><stop offset="0" stop-color="#2B388F" stop-opacity="1"/><stop offset="1" stop-color="#000000" stop-opacity="1"/></linearGradient><linearGradient x1="219.126" y1="126.705" x2="219.126" y2="554.542" gradientUnits="userSpaceOnUse" spreadMethod="pad" id="fill5"><stop offset="0" stop-color="#2B388F" stop-opacity="1"/><stop offset="1" stop-color="#000000" stop-opacity="1"/></linearGradient><linearGradient x1="219.136" y1="126.697" x2="219.136" y2="554.551" gradientUnits="userSpaceOnUse" spreadMethod="pad" id="fill6"><stop offset="0" stop-color="#2B388F" stop-opacity="1"/><stop offset="1" stop-color="#000000" stop-opacity="1"/></linearGradient><linearGradient x1="219.126" y1="126.703" x2="219.126" y2="554.546" gradientUnits="userSpaceOnUse" spreadMethod="pad" id="fill7"><stop offset="0" stop-color="#2B388F" stop-opacity="1"/><stop offset="1" stop-color="#000000" stop-opacity="1"/></linearGradient><linearGradient x1="219.126" y1="126.774" x2="219.126" y2="554.529" gradientUnits="userSpaceOnUse" spreadMethod="pad" id="fill8"><stop offset="0" stop-color="#2B388F" stop-opacity="1"/><stop offset="1" stop-color="#000000" stop-opacity="1"/></linearGradient><linearGradient x1="219.116" y1="126.705" x2="219.116" y2="554.552" gradientUnits="userSpaceOnUse" spreadMethod="pad" id="fill9"><stop offset="0" stop-color="#2B388F" stop-opacity="1"/><stop offset="1" stop-color="#000000" stop-opacity="1"/></linearGradient><linearGradient x1="219.126" y1="126.694" x2="219.126" y2="554.551" gradientUnits="userSpaceOnUse" spreadMethod="pad" id="fill10"><stop offset="0" stop-color="#2B388F" stop-opacity="1"/><stop offset="1" stop-color="#000000" stop-opacity="1"/></linearGradient><linearGradient x1="219.126" y1="126.704" x2="219.126" y2="554.541" gradientUnits="userSpaceOnUse" spreadMethod="pad" id="fill11"><stop offset="0" stop-color="#2B388F" stop-opacity="1"/><stop offset="1" stop-color="#000000" stop-opacity="1"/></linearGradient></defs><g clip-path="url(#clip0)" transform="translate(-458 -146)"><g clip-path="url(#clip1)"><g clip-path="url(#clip2)"><g clip-path="url(#clip3)"><path d="M410.636 205.318C410.636 318.712 318.712 410.636 205.318 410.636 91.924 410.636 3.04461e-06 318.712 3.04461e-06 205.318 3.04461e-06 91.924 91.924 3.04461e-06 205.318 3.04461e-06 318.712 3.04461e-06 410.636 91.924 410.636 205.318Z" fill="#000000" fill-rule="nonzero" fill-opacity="1" transform="matrix(1.00059 0 0 1 468.912 154.143)"/><path d="M16.0623 257.396C16.9801 262.796 18.1042 268.117 19.4344 273.358L418.817 273.358C420.147 268.111 421.271 262.79 422.189 257.396Z" fill="url(#fill4)" fill-rule="nonzero" transform="matrix(1.00059 0 0 1 454.398 137.642)"/><path d="M22.557 284.333C24.3661 290.099 26.4213 295.752 28.7226 301.293L409.529 301.293C411.823 295.752 413.878 290.099 415.694 284.333Z" fill="url(#fill5)" fill-rule="nonzero" transform="matrix(1.00059 0 0 1 454.398 137.642)"/><path d="M13.2788 230.459C13.485 236.172 13.9306 241.826 14.6157 247.419L423.655 247.419C424.321 241.832 424.766 236.179 424.992 230.459Z" fill="url(#fill6)" fill-rule="nonzero" transform="matrix(1.00059 0 0 1 454.398 137.642)"/><path d="M404.61 312.267 33.641 312.267C36.3014 317.727 39.1814 323.048 42.2808 328.229L395.97 328.229C399.077 323.055 401.956 317.734 404.61 312.267Z" fill="url(#fill7)" fill-rule="nonzero" transform="matrix(1.00059 0 0 1 454.398 137.642)"/><path d="M418.797 171.597C396.13 82.4465 315.33 16.5013 219.126 16.5013 122.921 16.5013 42.1211 82.4465 19.4543 171.597Z" fill="url(#fill8)" fill-rule="nonzero" transform="matrix(1.00059 0 0 1 454.398 137.642)"/><path d="M55.8689 348.183C125.266 438.341 254.612 455.172 344.77 385.775 358.872 374.92 371.508 362.284 382.362 348.183Z" fill="url(#fill9)" fill-rule="nonzero" transform="matrix(1.00059 0 0 1 454.398 137.642)"/><path d="M14.5059 198.534 423.745 198.534C422.928 191.494 421.749 184.502 420.214 177.583L18.0377 177.583C16.502 184.502 15.3232 191.494 14.5059 198.534Z" fill="url(#fill10)" fill-rule="nonzero" transform="matrix(1.00059 0 0 1 454.398 137.642)"/><path d="M13.8076 205.518C13.3586 211.124 13.1092 216.791 13.1092 222.478L425.142 222.478C425.142 216.751 424.893 211.085 424.444 205.518Z" fill="url(#fill11)" fill-rule="nonzero" transform="matrix(1.00059 0 0 1 454.398 137.642)"/><path d="M24.7619 157.57C24.6821 157.82 24.6122 158.079 24.5324 158.328 24.8617 157.88 25.1364 157.395 25.3505 156.882 25.1288 157.088 24.9313 157.319 24.7619 157.57Z" stroke="#000000" stroke-width="8.97892" stroke-linecap="butt" stroke-linejoin="miter" stroke-miterlimit="10" stroke-opacity="1" fill="#000000" fill-rule="nonzero" fill-opacity="1" transform="matrix(1.00059 0 0 1 454.398 137.642)"/><path d="M26.1486 155.635C26.8969 154.587 27.6351 153.53 28.3734 152.482 27.5704 153.488 26.8275 154.541 26.1486 155.635Z" stroke="#000000" stroke-width="8.97892" stroke-linecap="butt" stroke-linejoin="miter" stroke-miterlimit="10" stroke-opacity="1" fill="#000000" fill-rule="nonzero" fill-opacity="1" transform="matrix(1.00059 0 0 1 454.398 137.642)"/><path d="M419.106 271.024C417.33 271.114 420.104 239.757 407.543 213.998 400.847 200.339 391.524 188.134 380.108 178.082 384.853 179.443 389.386 181.458 393.576 184.068 400.947 188.702 407.104 195.03 411.534 202.525 408.268 188.485 402.525 175.14 394.574 163.117 382.364 144.9 365.521 130.265 345.778 120.717 344.142 117.993 342.516 115.509 340.95 113.264 348.155 114.457 354.968 117.365 360.813 121.744 359.768 115.915 357.122 110.492 353.171 106.081 350.702 103.373 347.774 101.124 344.521 99.4366 348.745 99.0866 352.997 99.3081 357.162 100.095 365.12 101.664 372.555 105.211 378.781 110.411 372.169 98.2191 362.554 87.9172 350.846 80.4811 343.175 75.6589 334.742 72.1709 325.905 70.1653L336.54 65.8454C330.962 65.7781 325.4 65.2206 319.919 64.1793 311.866 62.6556 304.04 60.1075 296.634 56.5971 285.596 51.3668 272.637 52.2236 262.384 58.8618 278.093 63.4013 292.955 70.4782 306.381 79.8127L306.381 79.8126C296.304 73.3179 286.657 69.028 278.347 65.3466 267.821 60.6875 254.153 54.7515 234.948 52.377 231.666 51.968 227.785 51.5091 223.406 51.2497L223.475 51.2497C234.301 51.6686 245.029 53.4656 255.4 56.5971 258.022 56.0728 260.514 55.0353 262.733 53.5443 266.295 51.13 269.328 47.3489 268.719 46.5607 268.34 46.0519 266.724 47.0096 264.818 47.5584 261.825 48.3964 257.446 48.3964 251.101 44.9146 251.17 44.9146 256.199 42.6499 261.077 39.9263 264.86 37.6104 268.137 34.5568 270.715 30.9474 270.595 30.5982 260.319 34.3294 250.093 36.2948 245.259 37.2034 240.363 37.7437 235.447 37.911L248.916 22.9461C238.62 23.415 217.13 25.9391 197.536 41.2332 191.924 45.6203 186.895 50.7063 182.571 56.3677 185.564 55.4798 189.046 54.5819 192.907 53.7837 190.513 54.3624 188.059 55.0508 185.564 55.8689 183.719 56.4774 181.953 57.1259 180.247 57.7943 177.793 57.0561 174.261 56.0983 169.931 55.2004 160.915 53.3605 151.737 52.4247 142.535 52.407 145.463 59.8303 149.007 66.9953 153.131 73.8267 146.968 79.1367 141.567 85.27 137.078 92.0539 128.057 92.1541 119.053 91.2269 110.241 89.2904 104.118 87.9441 98.1131 86.1092 92.2834 83.8033 96.7564 99.4343 108.059 112.204 123.031 118.542 120.072 126.03 117.795 133.77 116.227 141.667 122.16 143.031 127.318 146.676 130.583 151.814 130.285 153.15 130.238 154.53 130.444 155.884L109.204 167.168 124.169 178.082 106.211 206.645 106.56 207.234C107.705 209.173 109.112 210.945 110.74 212.501 110.97 212.721 111.209 212.94 111.458 213.15L112.266 213.838C114.207 215.396 116.387 216.629 118.721 217.489 120.212 218.045 121.757 218.443 123.33 218.677L123.769 218.747 123.899 218.747C126.209 219.107 128.555 219.181 130.883 218.966 135.133 219.097 139.315 220.074 143.184 221.839 147.534 223.835 150.477 226.488 153.659 225.451 153.911 225.37 154.155 225.267 154.388 225.141 155.549 224.479 156.505 223.509 157.151 222.338L157.221 222.518C157.238 222.799 157.288 223.077 157.371 223.346 157.281 223.515 157.211 223.665 157.151 223.795 157.51 224.873 158.21 225.805 159.146 226.448 159.456 226.659 159.791 226.83 160.144 226.957 160.588 227.352 161.081 227.687 161.611 227.955 164.733 229.501 167.656 228.055 172.335 227.586 176.624 227.18 180.951 227.645 185.056 228.953 193.432 216.844 204.114 206.507 216.492 198.534 219.528 200.394 222.227 202.755 224.473 205.518 225.72 207.064 228.115 210.346 230.459 217.489 232.711 224.419 233.889 231.653 233.951 238.939 237.525 229.529 238.048 219.233 235.447 209.508 240.36 217.689 243.899 226.62 245.923 235.946 246.684 239.404 247.257 242.901 247.639 246.422 247.639 246.761 247.709 247.09 247.738 247.419 248.72 259.96 246.928 272.562 242.491 284.333 242.012 285.49 241.493 286.657 240.934 287.824 231.676 307.049 216.342 316.687 210.506 320.248 208.86 321.246 207.204 322.174 205.518 323.042L203.921 323.84 202.574 324.498 200.988 325.217 199.851 325.715C199.053 326.055 198.265 326.374 197.476 326.713L197.377 326.713C190.242 329.371 182.795 331.097 175.219 331.851 165.48 321.436 158.51 308.744 154.946 294.938 154.901 297.388 154.681 299.832 154.288 302.25 153.84 304.96 153.172 307.63 152.292 310.232 140.275 295.01 131.041 277.785 125.017 259.351 119.888 281.061 124.269 303.927 137.058 322.204 125.779 320.596 116.034 313.493 111.049 303.248 111.779 312.95 115.856 322.098 122.582 329.127L116.726 328.229C114.671 327.9 112.466 327.521 110.171 327.082 107.789 325.552 105.63 323.699 103.756 321.575 103.756 322.792 103.756 324.219 103.826 325.805 99.7758 324.937 95.436 323.89 90.8567 322.643 75.0065 297.91 66.2451 269.303 65.5262 239.937 57.6122 251.486 53.8554 265.381 54.8712 279.344 52.7091 276.297 50.8132 273.069 49.2045 269.697 47.9757 267.11 46.9224 264.444 46.0519 261.716 45.8819 264.487 45.8819 267.265 46.0519 270.036 46.2017 272.487 46.4814 274.928 46.8899 277.349 43.6542 273.922 40.7575 270.19 38.2402 266.205 34.2739 259.91 31.2805 253.052 29.3611 245.863 25.6398 225.122 26.9368 209.598 27.0964 207.952 28.105 197.611 30.301 187.421 33.641 177.583L22.557 193.047C20.5085 182.791 19.4843 177.636 19.4843 177.583 18.7161 180.726 17.6885 185.335 16.8105 190.952 12.1415 220.991 17.3692 244.686 19.9532 256.398 35.3869 326.354 78.815 368.136 78.815 368.136 140.949 427.916 220.941 424.224 232.454 423.506 239.578 423.057 327.721 416.103 384.597 341.199 401.085 319.352 413.094 294.463 419.934 267.961 419.645 270.545 419.326 271.014 419.106 271.024ZM166.399 61.6553 165.94 61.4358 166.1 61.5056ZM145.728 53.4346 145.079 53.2251ZM163.087 60.1388 162.918 60.069ZM153.999 56.3876 153.41 56.1582ZM151.225 55.39 150.487 55.1206ZM148.481 54.3923 147.723 54.1329ZM131.691 100.763C131.172 101.651 130.633 102.599 130.075 103.597 132.07 100.035 133.985 96.7728 135.931 93.8098 134.345 96.264 132.958 98.6085 131.691 100.763ZM129.067 105.452C129.147 105.313 129.217 105.193 129.286 105.053L129.007 105.582ZM133.427 158.209 134.185 162.119C133.058 160.134 133.187 158.907 133.427 158.209Z" stroke="#000000" stroke-width="8.97892" stroke-linecap="butt" stroke-linejoin="miter" stroke-miterlimit="10" stroke-opacity="1" fill="#000000" fill-rule="nonzero" fill-opacity="1" transform="matrix(1.00059 0 0 1 454.398 137.642)"/><path d="M107.747 205.518 134.185 162.119C133.197 152.16 125.976 143.935 116.227 141.667 119.053 127.263 124.281 113.435 131.691 100.763 136.14 93.1813 141.997 83.4042 153.141 73.8267 162.688 65.8034 173.698 59.7052 185.564 55.8689 206.425 49.0349 223.974 51.0202 234.948 52.377 254.153 54.7515 267.821 60.6875 278.347 65.3466 292.992 71.8314 311.858 80.1917 329.726 99.267 342.787 113.473 352.652 130.312 358.658 148.651 367.797 176.326 365.532 199.362 364.145 212.002 361.699 234.673 354.564 256.586 343.194 276.351 327.92 302.56 309.224 317.405 299.796 324.738 287.685 334.159 274.447 342.034 260.389 348.183 246.192 354.686 231.296 359.54 215.993 362.649 201.263 365.912 186.173 367.254 171.098 366.639 148.412 365.642 131.821 360.204 121.215 356.663 105.522 351.425 93.7799 347.504 81.3091 337.208 72.8893 330.215 65.7932 321.767 60.3583 312.267 78.4649 319.756 97.3813 325.113 116.726 328.229 147.374 333.138 180.646 338.465 210.506 320.248 216.342 316.687 231.676 307.049 240.934 287.824 251.909 265.098 247.489 243.209 245.923 235.946 243.899 226.62 240.36 217.689 235.447 209.508 238.048 219.233 237.525 229.529 233.951 238.939 233.889 231.653 232.711 224.419 230.459 217.489 228.115 210.346 225.72 207.064 224.473 205.518 222.227 202.755 219.528 200.394 216.492 198.534 204.117 206.511 193.438 216.851 185.066 228.963 179.728 225.461 175.458 224.882 172.595 224.972 166.419 225.161 162.06 228.623 159.126 226.468 157.59 225.341 157.221 223.236 157.131 221.819 156.513 223.186 155.435 224.922 153.639 225.471 150.886 226.309 148.122 224.284 145.159 222.478 140.809 219.903 136.102 217.984 131.192 216.781 127.05 217.804 122.692 217.514 118.721 215.953 113.89 213.965 109.976 210.243 107.747 205.518Z" stroke="#8C5019" stroke-width="1.99532" stroke-linecap="butt" stroke-linejoin="miter" stroke-miterlimit="10" stroke-opacity="1" fill="#C77D36" fill-rule="nonzero" fill-opacity="1" transform="matrix(1.00059 0 0 1 454.398 137.642)"/><path d="M123.031 118.542C108.059 112.204 96.7564 99.4343 92.2834 83.8033 98.1131 86.1092 104.118 87.9441 110.241 89.2904 119.053 91.2269 128.057 92.1541 137.078 92.0539 131.465 100.357 126.756 109.237 123.031 118.542Z" stroke="#8C5019" stroke-width="1.99532" stroke-linecap="butt" stroke-linejoin="miter" stroke-miterlimit="10" stroke-opacity="1" fill="#C77D36" fill-rule="nonzero" fill-opacity="1" transform="matrix(1.00059 0 0 1 454.398 137.642)"/><path d="M165.94 91.7845C161.962 87.0395 158.296 82.0407 154.966 76.8197 150.048 69.1006 145.885 60.9252 142.535 52.407 172.7 61.8031 200.051 78.5625 222.119 101.173 210.027 86.9659 193.426 80.0421 179.219 84.0527 174.228 85.5071 169.669 88.1617 165.94 91.7845Z" stroke="#8C5019" stroke-width="1.99532" stroke-linecap="butt" stroke-linejoin="miter" stroke-miterlimit="10" stroke-opacity="1" fill="#F9EDC7" fill-rule="nonzero" fill-opacity="1" transform="matrix(1.00059 0 0 1 454.398 137.642)"/><path d="M142.535 52.407C151.737 52.4247 160.915 53.3605 169.931 55.2004 174.478 56.1256 178.965 57.3216 183.37 58.782 188.104 60.3853 192.727 62.3017 197.207 64.5185 211.434 71.4473 220.925 85.3953 222.149 101.173 218.507 97.4512 214.447 93.6003 209.927 89.7194 190.252 72.8198 167.328 60.1223 142.565 52.407Z" fill="#C77D36" fill-rule="nonzero" fill-opacity="1" transform="matrix(1.00059 0 0 1 454.398 137.642)"/><path d="M142.535 52.407 145.758 52.3471 148.97 52.3471C151.125 52.3471 153.27 52.4868 155.415 52.6265 159.705 52.9158 163.985 53.3947 168.245 54.103 172.502 54.8212 176.718 55.7636 180.875 56.9264 185.038 58.1286 189.122 59.5845 193.107 61.2861 195.102 62.1541 197.047 63.0021 199.023 64.0097 200.979 65.0292 202.862 66.1826 204.66 67.4616 215.656 75.2901 222.602 87.6027 223.615 101.063L223.924 105.163 221.081 102.17C210.187 90.9792 197.996 81.1291 184.766 72.829 178.154 68.6521 171.309 64.8549 164.264 61.4557 157.195 58.0378 149.941 55.0168 142.535 52.407ZM142.535 52.407C150.138 54.4845 157.591 57.0743 164.843 60.1588 172.109 63.2441 179.162 66.8103 185.953 70.8337 192.762 74.8845 199.297 79.3769 205.518 84.2822 211.735 89.185 217.634 94.48 223.176 100.135L220.642 101.292C219.637 88.6962 213.239 77.1484 203.093 69.6166 201.42 68.3793 199.663 67.2592 197.836 66.2645 196 65.2668 194.054 64.3589 192.139 63.471 184.397 59.9476 176.286 57.3007 167.956 55.5795 159.589 53.797 151.084 52.7356 142.535 52.407Z" fill="#8C5019" fill-rule="nonzero" fill-opacity="1" transform="matrix(1.00059 0 0 1 454.398 137.642)"/><path d="M182.571 56.3677C186.895 50.7063 191.924 45.6203 197.536 41.2332 217.13 25.9391 238.62 23.415 248.916 22.9461L235.447 37.911C240.361 37.7267 245.254 37.1698 250.083 36.2449 260.309 34.2496 270.585 30.5483 270.705 30.8975 268.127 34.5069 264.85 37.5605 261.067 39.8764 256.189 42.6 251.16 44.8647 251.091 44.8647 257.436 48.3465 261.835 48.3465 264.808 47.5085 266.704 46.9797 268.33 46.022 268.709 46.5108 269.318 47.299 266.285 51.0801 262.723 53.4944 260.511 55.0018 258.022 56.0563 255.4 56.5971 231.667 49.4159 206.35 49.3361 182.571 56.3677Z" stroke="#66330E" stroke-width="1.99532" stroke-linecap="butt" stroke-linejoin="miter" stroke-miterlimit="10" stroke-opacity="1" fill="#8C5019" fill-rule="nonzero" fill-opacity="1" transform="matrix(1.00059 0 0 1 454.398 137.642)"/><path d="M216.492 198.534C233.551 180.816 257.249 171.048 281.838 171.597 278.941 164.114 273.453 157.919 266.375 154.138 268.175 154.535 270.019 154.703 271.862 154.637 276.146 154.448 280.293 153.066 283.834 150.646 282.617 150.646 276.96 150.397 273.149 145.987 272.064 144.718 271.234 143.251 270.705 141.667 282.131 138.259 292.156 131.263 299.297 121.714 286.721 123.502 273.897 121.595 262.384 116.227L270.715 104.255C266.724 105.632 262.414 106.979 257.905 108.246 253.056 109.613 248.387 110.76 243.937 111.738 249.74 107.797 252.976 101.041 252.407 94.0492 249.565 98.1878 246.214 101.952 242.431 105.253 229.142 116.806 218.278 115.559 208.511 124.208 203.891 128.309 198.265 135.731 196.04 150.148L172.595 165.112 150.646 155.136 133.427 158.209 134.185 162.119 106.251 206.645C107.799 209.431 109.881 211.885 112.376 213.868 119.809 219.724 128.448 219.215 130.863 218.986 135.113 219.117 139.295 220.094 143.164 221.859 147.514 223.855 150.457 226.508 153.639 225.471 155.14 224.888 156.38 223.782 157.131 222.358 157.871 224.724 159.473 226.726 161.621 227.965 164.743 229.511 167.666 228.065 172.345 227.596 176.634 227.19 180.961 227.655 185.066 228.963 193.438 216.851 204.117 206.511 216.492 198.534Z" stroke="#8C5019" stroke-width="1.99532" stroke-linecap="butt" stroke-linejoin="miter" stroke-miterlimit="10" stroke-opacity="1" fill="#F9EDC7" fill-rule="nonzero" fill-opacity="1" transform="matrix(1.00059 0 0 1 454.398 137.642)"/><path d="M107.747 205.518C112.686 205.534 117.529 204.151 121.714 201.527 127.122 197.965 127.341 194.074 134.684 183.569 140.799 174.82 143.852 170.44 148.651 168.854 153.639 167.188 155.635 169.432 165.611 168.355 169.673 167.914 173.683 167.078 177.583 165.861 181.624 164.504 190.712 160.663 199.202 149.07L160.124 144.162C155.714 145.788 152.023 146.915 149.399 147.653 142.476 149.649 139.014 150.008 136.18 153.141 134.89 154.599 133.949 156.332 133.427 158.209L134.185 162.119Z" stroke="#8C5019" stroke-width="1.99532" stroke-linecap="butt" stroke-linejoin="miter" stroke-miterlimit="10" stroke-opacity="1" fill="#C77D36" fill-rule="nonzero" fill-opacity="1" transform="matrix(1.00059 0 0 1 454.398 137.642)"/><path d="M106.251 206.645C113.26 206.088 119.89 203.238 125.116 198.534 128.008 198.682 130.552 200.491 131.641 203.173 132.482 205.549 132.129 208.185 130.693 210.256 128.752 208.947 126.217 208.919 124.248 210.187 125.019 213.698 127.136 216.768 130.144 218.737 126.292 219.269 122.368 218.841 118.721 217.489 113.429 215.437 109.018 211.601 106.251 206.645Z" fill="#040308" fill-rule="nonzero" fill-opacity="1" transform="matrix(1.00059 0 0 1 454.398 137.642)"/><path d="M123.38 177.224 108.206 166.17 129.446 154.886C129.026 152.572 129.447 150.183 130.633 148.152 133.377 143.763 140.41 141.977 147.653 144.66L197.397 116.467C197.856 119.709 198.324 122.951 198.783 126.204 199.848 133.706 200.928 141.189 202.026 148.651L166.11 164.564 149.649 154.138C140.4 152.632 133.556 153.979 132.429 157.211 132.19 157.909 132.06 159.136 133.187 161.122 129.915 166.489 126.646 171.857 123.38 177.224Z" fill="#000000" fill-rule="nonzero" fill-opacity="1" transform="matrix(1.00059 0 0 1 454.398 137.642)"/><path d="M235.447 209.508C242.381 210.586 264.14 214.886 280.342 233.951 301.482 258.822 296.873 289.64 295.806 296.803 294.65 304.984 292.121 312.911 288.323 320.248 281.863 332.031 272.171 341.723 260.389 348.183 229.362 362.509 195.168 368.604 161.102 365.881 134.675 362.58 109.166 354.072 86.048 340.85 75.5374 333.271 66.7767 323.524 60.3583 312.267 78.4709 319.964 97.3731 325.652 116.726 329.227 130.254 331.711 143.922 334.136 162.109 332.928 176.436 331.981 190.433 331.053 206.006 322.782 212.162 319.51 233.232 308.815 242.441 284.333 251.774 259.647 249.194 232.036 235.447 209.508Z" stroke="#8C5019" stroke-width="1.99532" stroke-linecap="butt" stroke-linejoin="miter" stroke-miterlimit="10" stroke-opacity="1" fill="#F9EDC7" fill-rule="nonzero" fill-opacity="1" transform="matrix(1.00059 0 0 1 454.398 137.642)"/><path d="M238.44 358.159C231.646 358.209 202.145 357.67 178.252 334.884 166.949 323.991 158.888 310.177 154.966 294.978 154.921 297.428 154.701 299.872 154.308 302.29 153.86 305 153.192 307.67 152.312 310.272 140.295 295.05 131.061 277.825 125.036 259.391 119.908 281.101 124.289 303.967 137.078 322.244 125.799 320.635 116.054 313.533 111.069 303.288 111.901 314.241 116.977 324.437 125.216 331.701 122.329 331.63 119.468 331.132 116.726 330.225 111.718 328.532 107.244 325.548 103.756 321.575 103.547 327.731 104.681 333.859 107.079 339.533 113.005 353.4 124.707 359.696 128.369 361.481 164.668 370.502 202.751 369.352 238.44 358.159Z" stroke="#8C5019" stroke-width="1.99532" stroke-linecap="butt" stroke-linejoin="miter" stroke-miterlimit="10" stroke-opacity="1" fill="#8C5019" fill-rule="nonzero" fill-opacity="1" transform="matrix(1.00059 0 0 1 454.398 137.642)"/><path d="M122.542 358.987C102.362 341.783 86.67 319.928 76.8197 295.307 69.8311 277.657 66.0049 258.914 65.5162 239.937 57.6058 251.487 53.8525 265.382 54.8712 279.344 52.7091 276.297 50.8132 273.069 49.2045 269.697 47.9756 267.11 46.9224 264.444 46.0519 261.716 45.8819 264.487 45.8819 267.265 46.0519 270.036 46.2017 272.487 46.4814 274.928 46.8899 277.349 43.6542 273.922 40.7575 270.19 38.2402 266.205 33.7058 259.001 30.4457 251.07 28.6029 242.76 30.4633 257.465 34.498 271.811 40.5748 285.33 44.8747 294.898 53.4845 313.564 72.5996 330.973 86.9206 343.959 103.995 353.536 122.542 358.987Z" stroke="#8C5019" stroke-width="1.99532" stroke-linecap="butt" stroke-linejoin="miter" stroke-miterlimit="10" stroke-opacity="1" fill="#8C5019" fill-rule="nonzero" fill-opacity="1" transform="matrix(1.00059 0 0 1 454.398 137.642)"/><path d="M365.143 205.518 400.061 216.991 418.797 251.909 419.934 267.961C415.899 293.837 406.562 318.601 392.509 340.7 340.381 421.94 243.568 430.31 233.951 430.988 224.084 431.677 137.268 436.346 71.3326 371.129 67.9106 367.737 23.1756 322.373 13.1092 257.396 10.6849 241.723 12.3011 216.751 16.8105 190.952 18.7915 179.673 21.4569 168.525 24.7918 157.57L28.4033 152.442C22.7669 159.625 19.6347 168.454 19.4843 177.583 19.4718 182.891 20.5164 188.147 22.557 193.047L33.641 177.583C30.2995 187.428 28.1035 197.624 27.0964 207.972 26.817 210.825 23.0359 256.298 48.8852 297.761 87.5644 359.865 163.327 366.081 171.098 366.599 215.437 366.717 258.76 353.333 295.307 328.229 324.973 306.962 346.978 276.684 358.05 241.902 360.404 229.771 362.768 217.642 365.143 205.518Z" fill="#8C5019" fill-rule="nonzero" fill-opacity="1" transform="matrix(1.00059 0 0 1 454.398 137.642)"/><path d="M155.325 222.957C157.468 218.679 160.907 215.187 165.152 212.98 169.346 210.828 174.111 210.053 178.77 210.765L177.194 212.082 177.683 204.939 177.773 203.742 178.91 203.742 187.56 203.941 186.562 204.939 186.762 196.459 186.762 195.661 187.52 195.661 192.508 195.441 191.85 196.02C192.369 193.394 193.384 190.892 194.843 188.647 196.331 186.425 198.402 184.654 200.829 183.529 201.996 182.961 203.163 182.422 204.251 181.763 205.346 181.101 206.378 180.34 207.333 179.489 209.273 177.77 210.92 175.749 212.212 173.503 211.008 175.807 209.446 177.905 207.583 179.718 206.642 180.623 205.624 181.444 204.54 182.172 203.452 182.901 202.285 183.509 201.168 184.168 198.923 185.315 197.043 187.067 195.741 189.226 194.48 191.402 193.65 193.8 193.296 196.289L193.206 196.818 192.638 196.818 187.65 197.267 188.418 196.439 188.617 204.919 188.617 205.917 187.57 205.917 178.92 206.116 180.147 204.949 179.978 212.102 179.978 213.579 178.431 213.419C174.398 212.993 170.332 213.845 166.808 215.853 163.349 217.849 160.608 220.887 158.977 224.533Z" fill="#8C5019" fill-rule="nonzero" fill-opacity="1" transform="matrix(1.00059 0 0 1 454.398 137.642)"/><path d="M345.778 120.717C365.521 130.265 382.364 144.9 394.574 163.117 402.525 175.14 408.268 188.485 411.534 202.525 407.104 195.03 400.947 188.702 393.576 184.068 389.386 181.458 384.853 179.443 380.108 178.082 406.099 202.053 421.288 235.519 422.219 270.864 414.555 252.027 401.891 235.641 385.595 223.475 392.706 241.705 391.428 262.142 382.103 279.344 383.667 266.162 381.953 252.797 377.115 240.436 373.794 232.05 369.071 224.291 363.148 217.489 364.056 207.377 364.136 197.207 363.387 187.081 361.616 164.07 355.648 141.578 345.778 120.717Z" stroke="#8C5019" stroke-width="1.99532" stroke-linecap="butt" stroke-linejoin="miter" stroke-miterlimit="10" stroke-opacity="1" fill="#C77D36" fill-rule="nonzero" fill-opacity="1" transform="matrix(1.00059 0 0 1 454.398 137.642)"/><path d="M262.384 58.8618C272.641 52.2232 285.605 51.37 296.644 56.6071 304.05 60.1174 311.876 62.6655 319.929 64.1893 325.407 65.2267 330.965 65.7808 336.54 65.8454L325.905 70.1653C334.742 72.1709 343.175 75.6589 350.846 80.4811 362.554 87.9172 372.169 98.2191 378.781 110.411 372.555 105.211 365.12 101.664 357.162 100.095 352.997 99.3081 348.745 99.0866 344.521 99.4366 347.774 101.124 350.702 103.373 353.171 106.081 357.12 110.483 359.77 115.895 360.823 121.714 354.978 117.335 348.165 114.427 340.96 113.234 321.395 87.0296 293.802 67.9364 262.384 58.8618Z" stroke="#66330E" stroke-width="1.99532" stroke-linecap="butt" stroke-linejoin="miter" stroke-miterlimit="10" stroke-opacity="1" fill="#AA6531" fill-rule="nonzero" fill-opacity="1" transform="matrix(1.00059 0 0 1 454.398 137.642)"/><path d="M361.99 226.069C370.251 250.741 369.562 270.655 368.136 282.337 361.152 339.134 315.509 373.413 301.293 384.098 291.326 391.582 280.63 398.043 269.368 403.383 279.836 394.773 285.847 381.889 285.719 368.335 275.327 375.703 263.562 380.911 251.121 383.649 230.08 388.189 209.877 384.707 209.698 382.043 209.568 380.108 220.014 379.639 235.348 371.668 240.301 369.091 245.035 366.115 249.504 362.768 240.388 363.066 231.316 361.392 222.907 357.86 210.731 352.615 200.458 343.759 193.476 332.49 216.687 340.011 241.303 342.164 265.467 338.785 258.065 337.515 250.943 334.955 244.426 331.222 240.493 328.962 236.814 326.287 233.452 323.241 241.972 324.448 279.025 328.718 314.262 304.286 354.278 276.541 361.003 233.232 361.99 226.069Z" stroke="#8C5019" stroke-width="1.99532" stroke-linecap="butt" stroke-linejoin="miter" stroke-miterlimit="10" stroke-opacity="1" fill="#C77D36" fill-rule="nonzero" fill-opacity="1" transform="matrix(1.00059 0 0 1 454.398 137.642)"/><path d="" stroke="#C77D36" stroke-width="1.99532" stroke-linecap="butt" stroke-linejoin="miter" stroke-miterlimit="10" stroke-opacity="1" fill="none" fill-rule="nonzero" transform="matrix(1.00059 0 0 1 454.398 137.642)"/><path d="M220.223 13.3886C104.814 13.3886 11.2536 106.949 11.2536 222.358 11.2536 337.767 104.814 431.327 220.223 431.327 335.632 431.327 429.193 337.767 429.193 222.358 429.193 106.949 335.632 13.3886 220.223 13.3886ZM220.632 426.858C107.687 426.858 16.1122 335.293 16.1122 222.338 16.1122 109.383 107.687 17.8182 220.632 17.8182 333.577 17.8182 425.152 109.383 425.152 222.338 425.152 335.293 333.587 426.858 220.632 426.858Z" stroke="#000000" stroke-width="7.98126" stroke-linecap="butt" stroke-linejoin="miter" stroke-miterlimit="10" stroke-opacity="1" fill="#000000" fill-rule="nonzero" fill-opacity="1" transform="matrix(1.00059 0 0 1 454.398 137.642)"/></g></g></g></g></svg>