<svg width="1595" height="1595" xmlns="http://www.w3.org/2000/svg" xmlns:xlink="http://www.w3.org/1999/xlink" overflow="hidden"><defs><clipPath id="clip0"><rect x="1274" y="320" width="1595" height="1595"/></clipPath><clipPath id="clip1"><rect x="1334" y="380" width="1477" height="1478"/></clipPath><clipPath id="clip2"><rect x="1334" y="380" width="1477" height="1478"/></clipPath><clipPath id="clip3"><rect x="1334" y="380" width="1477" height="1478"/></clipPath></defs><g clip-path="url(#clip0)" transform="translate(-1274 -320)"><path d="M1277 1119.5C1277 680.158 1633.16 324 2072.5 324 2511.84 324 2868 680.158 2868 1119.5 2868 1558.84 2511.84 1915 2072.5 1915 1633.16 1915 1277 1558.84 1277 1119.5Z" fill="#FFFFFF" fill-rule="evenodd" fill-opacity="1"/><g clip-path="url(#clip1)"><g clip-path="url(#clip2)"><g clip-path="url(#clip3)"><path d="M2072.5 627.167 1727.87 627.167C1673.49 627.167 1629.4 671.252 1629.4 725.633L1629.4 1513.37C1629.4 1567.74 1648.87 1611.83 1703.25 1611.83L2072.5 1611.83C2344.42 1611.83 2564.83 1391.42 2564.83 1119.5 2564.83 847.584 2344.42 627.167 2072.5 627.167ZM2281.37 1328.37C2166.01 1443.73 1978.97 1443.72 1863.61 1328.36 1748.26 1212.99 1748.26 1025.96 1863.63 910.6 1978.99 795.243 2166.03 795.249 2281.39 910.614 2336.78 966.015 2367.9 1041.15 2367.9 1119.5 2368.12 1197.89 2336.96 1273.1 2281.37 1328.37Z" fill="#050404" fill-rule="nonzero" fill-opacity="1"/><path d="M2168.23 1023.77 2089.9 945.435C2080.29 935.826 2064.71 935.826 2055.1 945.435L1976.77 1023.77C1923.89 1076.64 1923.89 1162.36 1976.76 1215.24 2029.63 1268.11 2115.36 1268.12 2168.23 1215.24 2221.11 1162.37 2221.11 1076.64 2168.24 1023.77 2168.24 1023.77 2168.24 1023.77 2168.23 1023.77Z" fill="#FF7915" fill-rule="nonzero" fill-opacity="1"/></g></g></g></g></svg>