<svg xmlns="http://www.w3.org/2000/svg" xmlns:xlink="http://www.w3.org/1999/xlink" viewBox="0 0 359.2 477.31"><defs><style>.cls-1{isolation:isolate;}.cls-2{fill:url(#linear-gradient);}.cls-3{fill:url(#linear-gradient-2);}.cls-4{fill:url(#linear-gradient-3);}.cls-5{fill:url(#linear-gradient-4);}.cls-6{opacity:0.8;fill:url(#linear-gradient-5);}.cls-7{fill:#fff;}.cls-8{fill:url(#linear-gradient-6);}.cls-9{fill:url(#linear-gradient-7);}.cls-10{fill:url(#linear-gradient-8);}.cls-11{fill:url(#linear-gradient-9);}.cls-12{fill:url(#linear-gradient-10);}.cls-13{fill:url(#linear-gradient-11);}.cls-14{fill:url(#linear-gradient-12);}.cls-15{fill:url(#linear-gradient-13);}.cls-16{fill:#b80088;}.cls-17{fill:url(#linear-gradient-14);}.cls-18{fill:url(#linear-gradient-15);}.cls-19,.cls-20,.cls-23{mix-blend-mode:multiply;}.cls-19{fill:url(#linear-gradient-16);}.cls-20,.cls-23,.cls-24,.cls-25,.cls-26,.cls-27{opacity:0.32;}.cls-20{fill:url(#linear-gradient-17);}.cls-21{fill:url(#linear-gradient-18);}.cls-22{fill:url(#linear-gradient-19);}.cls-23{fill:url(#linear-gradient-20);}.cls-24,.cls-25,.cls-26,.cls-27{mix-blend-mode:color-dodge;}.cls-24{fill:url(#radial-gradient);}.cls-25{fill:url(#radial-gradient-2);}.cls-26{fill:url(#radial-gradient-3);}.cls-27{fill:url(#radial-gradient-4);}.cls-28{fill:none;stroke:#000;stroke-miterlimit:10;stroke-width:3px;}</style><linearGradient id="linear-gradient" x1="169.22" y1="426.48" x2="185.22" y2="292.08" gradientUnits="userSpaceOnUse"><stop offset="0" stop-color="#f372e3"/><stop offset="0.29" stop-color="#eb9ced"/><stop offset="0.6" stop-color="#e4c2f6"/><stop offset="0.85" stop-color="#e0d9fc"/><stop offset="1" stop-color="#dee2fe"/></linearGradient><linearGradient id="linear-gradient-2" x1="122.95" y1="73.07" x2="257.75" y2="250.27" gradientUnits="userSpaceOnUse"><stop offset="0" stop-color="#777af7"/><stop offset="0.54" stop-color="#787cf7"/><stop offset="0.74" stop-color="#7a83f8"/><stop offset="0.87" stop-color="#7f8ef9"/><stop offset="0.99" stop-color="#869ffb"/><stop offset="1" stop-color="#87a2fb"/></linearGradient><linearGradient id="linear-gradient-3" x1="304.26" y1="184.68" x2="320.26" y2="177.08" gradientUnits="userSpaceOnUse"><stop offset="0" stop-color="#7ca4fb"/><stop offset="0.35" stop-color="#9bbffc"/><stop offset="0.6" stop-color="#accefc"/><stop offset="0.72" stop-color="#b3d3fc"/><stop offset="0.89" stop-color="#c8e1fe"/><stop offset="1" stop-color="#d9ecff"/></linearGradient><linearGradient id="linear-gradient-4" x1="137.76" y1="285.73" x2="135.36" y2="145.73" gradientUnits="userSpaceOnUse"><stop offset="0.33" stop-color="#7c38ef"/><stop offset="1" stop-color="#7e69ea"/></linearGradient><linearGradient id="linear-gradient-5" x1="179.45" y1="133.1" x2="128.25" y2="288.3" gradientUnits="userSpaceOnUse"><stop offset="0.01" stop-color="#7862eb"/><stop offset="0.04" stop-color="#745dec"/><stop offset="0.18" stop-color="#614bee"/><stop offset="0.34" stop-color="#5740f0"/><stop offset="0.51" stop-color="#533cf0"/><stop offset="1" stop-color="#7e69ea"/></linearGradient><linearGradient id="linear-gradient-6" x1="205.16" y1="101.59" x2="165.96" y2="49.59" gradientUnits="userSpaceOnUse"><stop offset="0" stop-color="#adb2fb"/><stop offset="0.52" stop-color="#afb4fb"/><stop offset="0.71" stop-color="#b4bbfc"/><stop offset="0.84" stop-color="#bec6fd"/><stop offset="0.95" stop-color="#cbd7fe"/><stop offset="1" stop-color="#d5e3ff"/></linearGradient><linearGradient id="linear-gradient-7" x1="126.6" y1="91.43" x2="51.4" y2="235.43" gradientUnits="userSpaceOnUse"><stop offset="0" stop-color="#adb2fb"/><stop offset="0.45" stop-color="#afb2fb"/><stop offset="0.63" stop-color="#b6b2fc"/><stop offset="0.77" stop-color="#c2b2fc"/><stop offset="0.88" stop-color="#d4b1fd"/><stop offset="0.97" stop-color="#eab1ff"/><stop offset="1" stop-color="#f2b1ff"/></linearGradient><linearGradient id="linear-gradient-8" x1="14.4" y1="338.24" x2="148" y2="338.24" gradientUnits="userSpaceOnUse"><stop offset="0" stop-color="#c913a5"/><stop offset="0.07" stop-color="#ca0fae"/><stop offset="0.32" stop-color="#cb04ca"/><stop offset="0.47" stop-color="#cc00d4"/><stop offset="0.58" stop-color="#c100ca"/><stop offset="0.79" stop-color="#a200b0"/><stop offset="1" stop-color="#7c0090"/></linearGradient><linearGradient id="linear-gradient-9" x1="208.46" y1="432.81" x2="214.86" y2="312.81" gradientUnits="userSpaceOnUse"><stop offset="0" stop-color="#a700aa"/><stop offset="1" stop-color="#5300c8"/></linearGradient><linearGradient id="linear-gradient-10" x1="254.1" y1="389.42" x2="303.7" y2="251.02" gradientUnits="userSpaceOnUse"><stop offset="0" stop-color="#bcabfe"/><stop offset="0.37" stop-color="#98a6fd"/><stop offset="0.6" stop-color="#87a4fc"/><stop offset="0.67" stop-color="#819dfb"/><stop offset="0.77" stop-color="#7288f9"/><stop offset="0.89" stop-color="#5966f5"/><stop offset="1" stop-color="#3e42f1"/></linearGradient><linearGradient id="linear-gradient-11" x1="136.71" y1="459.1" x2="335.11" y2="426.3" gradientUnits="userSpaceOnUse"><stop offset="0" stop-color="#8d009a"/><stop offset="0.01" stop-color="#8d009a"/><stop offset="0.6" stop-color="#7c0090"/><stop offset="0.71" stop-color="#7a0097"/><stop offset="0.86" stop-color="#7600ac"/><stop offset="1" stop-color="#7100c3"/></linearGradient><linearGradient id="linear-gradient-12" x1="332.94" y1="254.1" x2="344.14" y2="355.7" gradientUnits="userSpaceOnUse"><stop offset="0" stop-color="#3e42f1"/><stop offset="0.01" stop-color="#3f44f1"/><stop offset="0.19" stop-color="#5864f5"/><stop offset="0.38" stop-color="#6c7ef7"/><stop offset="0.57" stop-color="#7a90f9"/><stop offset="0.77" stop-color="#829afb"/><stop offset="1" stop-color="#859efb"/></linearGradient><linearGradient id="linear-gradient-13" x1="349.19" y1="412.67" x2="290.79" y2="365.47" xlink:href="#linear-gradient-9"/><linearGradient id="linear-gradient-14" x1="66.23" y1="244.68" x2="318.23" y2="233.48" gradientUnits="userSpaceOnUse"><stop offset="0" stop-color="#c711a5" stop-opacity="0.3"/><stop offset="0.22" stop-color="#c711a5" stop-opacity="0.29"/><stop offset="0.3" stop-color="#c812a6" stop-opacity="0.26"/><stop offset="0.36" stop-color="#ca14a8" stop-opacity="0.2"/><stop offset="0.41" stop-color="#cc17ab" stop-opacity="0.11"/><stop offset="0.45" stop-color="#cf1aaf" stop-opacity="0"/><stop offset="0.45" stop-color="#cf1aaf" stop-opacity="0"/></linearGradient><linearGradient id="linear-gradient-15" x1="204.18" y1="456.07" x2="168.98" y2="229.67" gradientUnits="userSpaceOnUse"><stop offset="0" stop-color="#c711a5" stop-opacity="0.1"/><stop offset="0.21" stop-color="#c812a6" stop-opacity="0.09"/><stop offset="0.29" stop-color="#ca15a9" stop-opacity="0.06"/><stop offset="0.34" stop-color="#cf1aaf" stop-opacity="0"/></linearGradient><linearGradient id="linear-gradient-16" x1="254.1" y1="389.42" x2="303.7" y2="251.02" gradientUnits="userSpaceOnUse"><stop offset="0" stop-color="#606060" stop-opacity="0"/><stop offset="0.14" stop-color="#5c457d" stop-opacity="0.11"/><stop offset="0.33" stop-color="#58279e" stop-opacity="0.24"/><stop offset="0.54" stop-color="#5511b5" stop-opacity="0.33"/><stop offset="0.76" stop-color="#5404c3" stop-opacity="0.38"/><stop offset="1" stop-color="#5300c8" stop-opacity="0.4"/></linearGradient><linearGradient id="linear-gradient-17" x1="80.93" y1="195.47" x2="67.33" y2="188.27" gradientUnits="userSpaceOnUse"><stop offset="0" stop-color="#5100c8"/><stop offset="0.33" stop-color="#5202c8"/><stop offset="0.47" stop-color="#5409c9"/><stop offset="0.57" stop-color="#5815c9"/><stop offset="0.65" stop-color="#5f27ca"/><stop offset="0.73" stop-color="#673ecc"/><stop offset="0.79" stop-color="#705acd"/><stop offset="0.85" stop-color="#7c7bcf"/><stop offset="0.9" stop-color="#8aa2d2"/><stop offset="0.95" stop-color="#99cdd4"/><stop offset="1" stop-color="#a9fcd7"/><stop offset="1" stop-color="#aaffd7"/></linearGradient><linearGradient id="linear-gradient-18" x1="242.92" y1="450.28" x2="201.32" y2="390.28" gradientUnits="userSpaceOnUse"><stop offset="0" stop-color="#510094" stop-opacity="0.5"/><stop offset="1" stop-color="#7100c3" stop-opacity="0"/></linearGradient><linearGradient id="linear-gradient-19" x1="293.6" y1="549.98" x2="234.4" y2="437.98" gradientUnits="userSpaceOnUse"><stop offset="0" stop-color="#9c20b6"/><stop offset="0.39" stop-color="#9b20b6" stop-opacity="0.99"/><stop offset="0.53" stop-color="#981eb4" stop-opacity="0.95"/><stop offset="0.62" stop-color="#941cb2" stop-opacity="0.89"/><stop offset="0.7" stop-color="#8d19af" stop-opacity="0.79"/><stop offset="0.77" stop-color="#8416ab" stop-opacity="0.67"/><stop offset="0.83" stop-color="#7811a6" stop-opacity="0.52"/><stop offset="0.89" stop-color="#6b0ba0" stop-opacity="0.35"/><stop offset="0.94" stop-color="#5c0599" stop-opacity="0.15"/><stop offset="0.97" stop-color="#510094" stop-opacity="0"/></linearGradient><linearGradient id="linear-gradient-20" x1="298.2" y1="620.74" x2="173.4" y2="258.34" gradientUnits="userSpaceOnUse"><stop offset="0" stop-color="#510094"/><stop offset="0.16" stop-color="#520095" stop-opacity="0.97"/><stop offset="0.32" stop-color="#509" stop-opacity="0.89"/><stop offset="0.49" stop-color="#5900a0" stop-opacity="0.75"/><stop offset="0.66" stop-color="#5f00a9" stop-opacity="0.55"/><stop offset="0.83" stop-color="#6800b5" stop-opacity="0.3"/><stop offset="1" stop-color="#7100c3" stop-opacity="0"/></linearGradient><radialGradient id="radial-gradient" cx="228.8" cy="84.51" r="364.27" gradientUnits="userSpaceOnUse"><stop offset="0" stop-color="#fff"/><stop offset="0.05" stop-color="#fff" stop-opacity="0.81"/><stop offset="0.11" stop-color="#fff" stop-opacity="0.62"/><stop offset="0.17" stop-color="#fff" stop-opacity="0.45"/><stop offset="0.24" stop-color="#fff" stop-opacity="0.31"/><stop offset="0.3" stop-color="#fff" stop-opacity="0.2"/><stop offset="0.37" stop-color="#fff" stop-opacity="0.11"/><stop offset="0.45" stop-color="#fff" stop-opacity="0.05"/><stop offset="0.54" stop-color="#fff" stop-opacity="0.01"/><stop offset="0.66" stop-color="#fff" stop-opacity="0"/></radialGradient><radialGradient id="radial-gradient-2" cx="200" cy="294.11" r="158.21" xlink:href="#radial-gradient"/><radialGradient id="radial-gradient-3" cx="272" cy="434.91" fx="331.12584733232546" r="124.6" gradientUnits="userSpaceOnUse"><stop offset="0.02" stop-color="#fff"/><stop offset="0.08" stop-color="#fff" stop-opacity="0.81"/><stop offset="0.15" stop-color="#fff" stop-opacity="0.62"/><stop offset="0.22" stop-color="#fff" stop-opacity="0.45"/><stop offset="0.3" stop-color="#fff" stop-opacity="0.31"/><stop offset="0.38" stop-color="#fff" stop-opacity="0.2"/><stop offset="0.47" stop-color="#fff" stop-opacity="0.11"/><stop offset="0.56" stop-color="#fff" stop-opacity="0.05"/><stop offset="0.66" stop-color="#fff" stop-opacity="0.01"/><stop offset="0.81" stop-color="#fff" stop-opacity="0"/></radialGradient><radialGradient id="radial-gradient-4" cx="188.8" cy="127.71" fx="188.8000000000011" r="79.45" xlink:href="#radial-gradient-3"/></defs><title>Eternaal_cryptomines_Svg-06</title><g class="cls-1"><g id="cryptomines_Image" data-name="cryptomines Image"><polygon class="cls-2" points="201.33 5.31 124.26 71.44 7.46 296.78 27.2 348.78 121.06 462.51 178.93 473.04 275.6 457.84 345.6 413.84 354.66 357.31 339.46 220.24 201.33 5.31"/><polygon class="cls-3" points="320 226.38 228.32 95.93 192.26 123.44 203.46 292.24 222.4 319.44 320 226.38"/><polygon class="cls-4" points="339.46 220.24 320 226.38 287.73 140.24 339.46 220.24"/><polygon class="cls-5" points="195.79 289.04 157.93 305.04 78.86 232.51 132.06 105.84 182.28 125.04 195.79 289.04"/><polygon class="cls-6" points="195.79 289.04 157.93 305.04 78.86 232.51 132.06 105.84 182.28 125.04 195.79 289.04"/><polygon class="cls-7" points="320 226.38 284.53 135.44 201.33 5.31 224.79 90.91 320 226.38"/><polygon class="cls-8" points="224.79 90.91 219.19 90.91 187.73 115.84 133.59 97.84 124.26 71.44 201.33 5.31 224.79 90.91"/><polygon class="cls-9" points="119.46 78.64 128 99.18 68 230.11 8.53 294.38 119.46 78.64"/><polygon class="cls-10" points="68.26 241.04 14.4 294.38 138.93 435.44 148 310.91 68.26 241.04"/><polygon class="cls-11" points="145.59 435.44 272.53 407.71 198.4 294.38 158.4 311.98 145.59 435.44"/><polygon class="cls-12" points="276.8 405.84 328.8 339.44 320 226.38 222.4 319.44 276.8 405.84"/><polygon class="cls-13" points="345.6 413.84 279.19 413.84 142.4 442.38 123.19 462.11 178.93 473.04 275.6 457.84 345.6 413.84"/><polygon class="cls-14" points="345.6 413.84 332 339.44 320 226.38 339.46 220.24 354.66 357.31 345.6 413.84"/><polygon class="cls-15" points="328.8 348.78 283.73 407.18 340 409.58 328.8 348.78"/><polygon class="cls-16" points="119.4 458.8 136.87 438.51 7 296.91 26.73 346.78 119.4 458.8"/><polygon class="cls-17" points="201.33 5.31 124.26 71.44 7.46 296.78 27.2 348.78 121.06 462.51 178.93 473.04 275.6 457.84 345.6 413.84 354.66 357.31 339.46 220.24 201.33 5.31"/><polygon class="cls-18" points="201.33 5.31 124.26 71.44 7.46 296.78 27.2 348.78 121.06 462.51 178.93 473.04 275.6 457.84 345.6 413.84 354.66 357.31 339.46 220.24 201.33 5.31"/><polygon class="cls-19" points="276.8 405.84 328.8 339.44 320 226.38 222.4 319.44 276.8 405.84"/><polygon class="cls-20" points="119.46 78.64 128 99.18 68 230.11 8.53 294.38 119.46 78.64"/><polygon class="cls-21" points="345.6 413.84 279.19 413.84 142.4 442.38 123.19 462.11 178.93 473.04 275.6 457.84 345.6 413.84"/><polygon class="cls-22" points="345.6 413.84 279.19 413.84 142.4 442.38 123.19 462.11 178.93 473.04 275.6 457.84 345.6 413.84"/><polygon class="cls-23" points="201.33 5.31 124.26 71.44 7.46 296.78 27.2 348.78 121.06 462.51 178.93 473.04 275.6 457.84 345.6 413.84 354.66 357.31 339.46 220.24 201.33 5.31"/><polygon class="cls-24" points="201.33 5.31 124.26 71.44 7.46 296.78 27.2 348.78 121.06 462.51 178.93 473.04 275.6 457.84 345.6 413.84 354.66 357.31 339.46 220.24 201.33 5.31"/><polygon class="cls-25" points="201.33 5.31 124.26 71.44 7.46 296.78 27.2 348.78 121.06 462.51 178.93 473.04 275.6 457.84 345.6 413.84 354.66 357.31 339.46 220.24 201.33 5.31"/><polygon class="cls-26" points="201.33 5.31 124.26 71.44 7.46 296.78 27.2 348.78 121.06 462.51 178.93 473.04 275.6 457.84 345.6 413.84 354.66 357.31 339.46 220.24 201.33 5.31"/><polygon class="cls-27" points="201.33 5.31 124.26 71.44 7.46 296.78 27.2 348.78 121.06 462.51 178.93 473.04 275.6 457.84 345.6 413.84 354.66 357.31 339.46 220.24 201.33 5.31"/><polygon class="cls-28" points="201.33 5.31 124.26 71.44 7.46 296.78 27.2 348.78 121.06 462.51 178.93 473.04 275.6 457.84 345.6 413.84 354.66 357.31 339.46 220.24 201.33 5.31"/></g></g></svg>