<svg width="835" height="834" xmlns="http://www.w3.org/2000/svg" xmlns:xlink="http://www.w3.org/1999/xlink" overflow="hidden"><defs><clipPath id="clip0"><rect x="-2310" y="728" width="835" height="834"/></clipPath><clipPath id="clip1"><rect x="-2151" y="751" width="492" height="795"/></clipPath><clipPath id="clip2"><rect x="-2151" y="751" width="492" height="795"/></clipPath><clipPath id="clip3"><rect x="-2151" y="751" width="492" height="795"/></clipPath></defs><g clip-path="url(#clip0)" transform="translate(2310 -728)"><path d="M-2306.5 1144C-2306.5 916.183-2121.82 731.5-1894 731.5-1666.18 731.5-1481.5 916.183-1481.5 1144-1481.5 1371.82-1666.18 1556.5-1894 1556.5-2121.82 1556.5-2306.5 1371.82-2306.5 1144Z" stroke="#FFFFFF" stroke-width="4.58333" stroke-linecap="butt" stroke-linejoin="miter" stroke-miterlimit="8" stroke-opacity="1" fill="#FFFFFF" fill-rule="evenodd" fill-opacity="1"/><g clip-path="url(#clip1)"><g clip-path="url(#clip2)"><g clip-path="url(#clip3)"><path d="M0 432.952C86.4823 478.88 176.725 526.955 246.424 564.153L490.831 432.952C402.335 564.421 328.599 673.87 246.424 795 164.102 674.137 73.1888 540.773 0 432.952ZM9.3999 396.689 246.691 270.068 480.893 395.763 246.825 522.523ZM246.424 229.501 0 359.226 245.349 0 490.831 360.031 246.424 229.501Z" fill="#3AB83A" fill-rule="nonzero" fill-opacity="1" transform="matrix(1.00026 0 0 1 -2150.98 751)"/><path d="M246.424 564.153 490.831 432.952C402.335 564.421 246.424 795 246.424 795ZM246.691 270.068 480.893 395.763 246.825 522.523 246.691 270.068ZM246.424 229.51 245.349 0 490.831 360.031Z" fill="#0B8311" fill-rule="nonzero" fill-opacity="1" transform="matrix(1.00026 0 0 1 -2150.98 751)"/><path d="M9.3999 396.692 246.704 416.166 480.906 395.887 246.825 522.657Z" fill="#0B8311" fill-rule="nonzero" fill-opacity="1" transform="matrix(1.00026 0 0 1 -2150.98 751)"/><path d="M246.691 416.166 480.893 395.887 246.825 522.657 246.691 416.166Z" fill="#146714" fill-rule="nonzero" fill-opacity="1" transform="matrix(1.00026 0 0 1 -2150.98 751)"/></g></g></g></g></svg>