<svg width="834" height="834" xmlns="http://www.w3.org/2000/svg" xmlns:xlink="http://www.w3.org/1999/xlink" overflow="hidden"><defs><clipPath id="clip0"><rect x="-2296" y="742" width="834" height="834"/></clipPath><clipPath id="clip1"><rect x="-2082" y="830" width="406" height="661"/></clipPath><clipPath id="clip2"><rect x="-2082" y="830" width="406" height="661"/></clipPath><clipPath id="clip3"><rect x="-2082" y="830" width="406" height="661"/></clipPath></defs><g clip-path="url(#clip0)" transform="translate(2296 -742)"><path d="M-2290.5 1161C-2290.5 933.182-2105.82 748.5-1878 748.5-1650.18 748.5-1465.5 933.182-1465.5 1161-1465.5 1388.82-1650.18 1573.5-1878 1573.5-2105.82 1573.5-2290.5 1388.82-2290.5 1161Z" stroke="#FFFFFF" stroke-width="4.58333" stroke-linecap="butt" stroke-linejoin="miter" stroke-miterlimit="8" stroke-opacity="1" fill="#FFFFFF" fill-rule="evenodd" fill-opacity="1"/><g clip-path="url(#clip1)"><g clip-path="url(#clip2)"><g clip-path="url(#clip3)"><path d="M202.441 0 198.016 15.0306 198.016 451.145 202.441 455.56 404.876 335.898Z" fill="#343434" fill-rule="nonzero" fill-opacity="1" transform="matrix(1 0 0 1.00049 -2081 830.055)"/><path d="M202.441 0 0 335.898 202.441 455.56 202.441 243.882Z" fill="#8C8C8C" fill-rule="nonzero" fill-opacity="1" transform="matrix(1 0 0 1.00049 -2081 830.055)"/><path d="M202.441 493.888 199.947 496.929 199.947 652.279 202.441 659.56 405 374.288Z" fill="#3C3C3B" fill-rule="nonzero" fill-opacity="1" transform="matrix(1 0 0 1.00049 -2081 830.055)"/><path d="M202.441 659.56 202.441 493.888 0 374.288Z" fill="#8C8C8C" fill-rule="nonzero" fill-opacity="1" transform="matrix(1 0 0 1.00049 -2081 830.055)"/><path d="M202.441 455.56 404.876 335.898 202.441 243.882Z" fill="#141414" fill-rule="nonzero" fill-opacity="1" transform="matrix(1 0 0 1.00049 -2081 830.055)"/><path d="M0 335.898 202.441 455.56 202.441 243.882Z" fill="#393939" fill-rule="nonzero" fill-opacity="1" transform="matrix(1 0 0 1.00049 -2081 830.055)"/></g></g></g></g></svg>