<svg width="715" height="715" xmlns="http://www.w3.org/2000/svg" xmlns:xlink="http://www.w3.org/1999/xlink" overflow="hidden"><defs><clipPath id="clip0"><rect x="-1925" y="880" width="715" height="715"/></clipPath><clipPath id="clip1"><rect x="-1796" y="1020" width="457" height="435"/></clipPath><clipPath id="clip2"><rect x="-1796" y="1020" width="457" height="435"/></clipPath><clipPath id="clip3"><rect x="-1796" y="1020" width="457" height="435"/></clipPath><clipPath id="clip4"><rect x="-1796" y="1020" width="456" height="434"/></clipPath></defs><g clip-path="url(#clip0)" transform="translate(1925 -880)"><path d="M-1925 1237.5C-1925 1040.06-1764.94 880-1567.5 880-1370.06 880-1210 1040.06-1210 1237.5-1210 1434.94-1370.06 1595-1567.5 1595-1764.94 1595-1925 1434.94-1925 1237.5Z" fill="#FFFFFF" fill-rule="evenodd" fill-opacity="1"/><g clip-path="url(#clip1)"><g clip-path="url(#clip2)"><g clip-path="url(#clip3)"><g clip-path="url(#clip4)"><path d="M399.161 325.793C394.409 382.868 326.962 431.293 225.846 428.687L225.676 428.687C130.427 426.041 63.7811 386.309 59.012 329.206 58.4759 321.851 58.7409 314.459 59.8023 307.161 62.9689 283.903 72.6441 259.685 81.9517 244.725L89.0861 247.984C107.89 240.761 127.332 235.32 147.154 231.735 175.011 226.697 206.303 228.36 225.764 229.238 245.219 228.36 276.511 226.697 304.362 231.735 324.183 235.32 343.623 240.761 362.425 247.984L369.559 244.725 374.526 242.464C383.751 258.022 394.557 282.465 398.157 305.295 399.298 312.064 399.633 318.945 399.156 325.793" fill="#F4A427" fill-rule="nonzero" fill-opacity="1" transform="matrix(1.00252 0 0 1 -1795 1021)"/><path d="M399.161 325.793C394.409 382.868 328.048 428.785 225.846 428.687L225.676 428.687C130.427 426.041 63.7811 386.309 59.012 329.206 58.4759 321.851 58.7409 314.459 59.8023 307.161 69.9271 304.966 80.3734 304.688 90.6007 306.344 109.984 309.488 120.988 321.391 134.373 327.554 142.325 331.22 150.145 325.2 157.389 318.675 179.945 297.162 206.024 288.892 229.249 288.59 256.595 288.244 278.476 298.968 302.398 320.782 304.845 322.879 311.93 329.239 320.442 328.301 327.576 327.516 334.886 320.618 337.361 318.971 347.739 312.056 367.6 301.481 398.163 305.29 399.303 312.059 399.639 318.939 399.161 325.787" fill="#FFFFFF" fill-rule="nonzero" fill-opacity="1" transform="matrix(1.00252 0 0 1 -1795 1021)"/><path d="M119.22 185.109C110.143 193.939 100.144 197.424 95.0734 198.34L91.5172 198.982C85.6835 200.146 82.9176 200.991 80.2175 200.909 79.4229 200.884 78.6321 200.781 77.8577 200.601 75.8398 200.081 73.874 199.376 71.9856 198.494 64.511 195.256 56.548 189.357 53.985 187.161 44.5073 179.034 37.6474 173.249 24.7232 155.88-0.312864 122.2-9.1869 51.6087 47.2568 6.67331 52.0313 2.87564 58.9078 7.2221 57.5138 13.1491 53.0411 32.1978 49.5672 62.6506 67.5842 88.455 82.9505 110.434 115.961 131.585 135.542 131.118 140.025 155.375 133.346 171.411 119.22 185.142" fill="#F79422" fill-rule="nonzero" fill-opacity="1" transform="matrix(1.00252 0 0 1 -1795 1021)"/><path d="M119.22 185.109C110.143 193.939 100.144 197.424 95.0734 198.34L91.5172 198.982C85.6835 200.146 82.9176 200.991 80.2175 200.909 79.4229 200.884 78.6321 200.781 77.8577 200.601 75.8398 200.081 73.874 199.376 71.9856 198.494 64.511 195.256 56.548 189.357 53.985 187.161 44.5073 179.034 37.6474 173.249 24.7232 155.88-0.312864 122.2-9.1869 51.6087 47.2568 6.67331 52.0313 2.87564 58.9078 7.2221 57.5138 13.1491 53.0411 32.1978 49.5672 62.6506 67.5842 88.455 82.9505 110.434 115.961 131.585 135.542 131.118 140.025 155.331 133.33 171.378 119.22 185.109Z" stroke="#221F1F" stroke-width="10.4271" stroke-linecap="butt" stroke-linejoin="round" stroke-miterlimit="4" stroke-opacity="1" fill="none" fill-rule="nonzero" transform="matrix(1.00252 0 0 1 -1795 1021)"/><path d="M205.82 101.549 198.077 178.929C197.918 178.957 197.753 178.968 197.589 178.99 185.296 180.554 169.369 183.013 147.099 186.536 126.399 189.829 98.7449 203.856 82.6158 213.383L80.2066 200.898C82.9066 200.98 85.6945 200.135 91.5063 198.972L95.0625 198.329C100.155 197.413 110.154 193.939 119.209 185.098 133.319 171.378 140.014 155.331 135.531 131.074L137.808 131.843C141.82 126.827 148.554 121.471 163.179 112.887 178.304 104.035 195.794 102.147 205.82 101.549Z" fill="#5A595C" fill-rule="nonzero" fill-opacity="1" transform="matrix(1.00252 0 0 1 -1795 1021)"/><path d="M205.82 101.549 198.077 178.929C197.918 178.957 197.753 178.968 197.589 178.99 185.296 180.554 169.369 183.013 147.099 186.536 126.399 189.829 98.7449 203.856 82.6158 213.383L80.2066 200.898C82.9066 200.98 85.6945 200.135 91.5063 198.972L95.0625 198.329C100.155 197.413 110.154 193.939 119.209 185.098 133.319 171.378 140.014 155.331 135.531 131.074L137.808 131.843C141.82 126.827 148.554 121.471 163.179 112.887 178.304 104.035 195.794 102.147 205.82 101.549Z" stroke="#221F1F" stroke-width="10.4271" stroke-linecap="butt" stroke-linejoin="round" stroke-miterlimit="4" stroke-opacity="1" fill="none" fill-rule="nonzero" transform="matrix(1.00252 0 0 1 -1795 1021)"/><path d="M381.77 240.153C380.091 240.921 378.411 241.695 376.727 242.453L371.76 244.714 364.626 247.974C345.823 240.75 326.383 235.309 306.563 231.724 278.712 226.686 247.419 223.832 227.964 224.705 208.504 223.832 177.212 226.686 149.355 231.724 129.535 235.31 110.095 240.75 91.2922 247.974 88.9105 246.876 86.532 245.789 84.1579 244.714L74.1588 240.142C74.4552 231.724 73.8515 227.059 74.1588 218.635 76.1839 217.29 78.7907 215.649 81.842 213.844L82.6213 213.383C98.7504 203.856 126.404 189.812 147.105 186.536 169.386 183.013 185.312 180.554 197.594 178.99 205.464 178.479 213.701 178.139 222.257 178.029 234.813 177.876 246.695 178.233 257.835 178.929 270.2 180.494 286.247 182.969 308.835 186.536 329.744 189.829 357.744 204.141 373.812 213.674L374.405 214.02C377.319 215.765 379.816 217.312 381.775 218.635 382.077 227.059 381.479 231.724 381.775 240.142" fill="#929497" fill-rule="nonzero" fill-opacity="1" transform="matrix(1.00252 0 0 1 -1795 1021)"/><path d="M381.77 240.153C380.091 240.921 378.411 241.695 376.727 242.453L371.76 244.714 364.626 247.974C345.823 240.75 326.383 235.309 306.563 231.724 278.706 226.675 247.529 225.341 228.041 225.325L227.871 225.325C208.817 225.325 177.206 226.697 149.349 231.735 129.529 235.321 110.089 240.761 91.2867 247.984 88.905 246.887 86.5265 245.8 84.1524 244.725L74.1533 240.153C74.4497 231.735 73.846 227.07 74.1533 218.646 76.1784 217.301 78.7852 215.66 81.8365 213.855L82.6158 213.394C98.7449 203.867 126.399 189.823 147.099 186.547 169.38 183.023 185.307 180.565 197.589 179.001 205.458 178.49 213.696 178.15 222.251 178.04 234.808 177.887 246.689 178.243 257.83 178.94 270.194 180.505 286.241 182.98 308.83 186.547 329.739 189.84 357.738 204.152 373.807 213.685L374.4 214.03C377.314 215.776 379.811 217.323 381.77 218.646 382.072 227.07 381.474 231.735 381.77 240.153Z" stroke="#221F1F" stroke-width="10.9759" stroke-linecap="round" stroke-linejoin="round" stroke-miterlimit="4" stroke-opacity="1" fill="none" fill-rule="nonzero" transform="matrix(1.00252 0 0 1 -1795 1021)"/><path d="M257.83 178.929C246.689 178.233 234.808 177.876 222.251 178.029 213.696 178.139 205.458 178.479 197.589 178.99 197.753 178.99 197.918 178.957 198.077 178.929L205.82 101.549 207.396 85.8537C213.527 82.4193 220.427 80.5902 227.454 80.5358L228.425 80.5358C235.451 80.5896 242.349 82.4193 248.478 85.8537L250.026 101.302 250.075 101.725 257.83 178.929Z" fill="#929497" fill-rule="nonzero" fill-opacity="1" transform="matrix(1.00252 0 0 1 -1795 1021)"/><path d="M257.83 178.929C246.689 178.233 234.808 177.876 222.251 178.029 213.696 178.139 205.458 178.479 197.589 178.99 197.753 178.99 197.918 178.957 198.077 178.929L205.82 101.549 207.396 85.8537C213.527 82.4193 220.427 80.5902 227.454 80.5358L228.425 80.5358C235.451 80.5896 242.349 82.4193 248.478 85.8537L250.026 101.302 250.075 101.725 257.83 178.929Z" stroke="#221F1F" stroke-width="10.9759" stroke-linecap="round" stroke-linejoin="round" stroke-miterlimit="4" stroke-opacity="1" fill="none" fill-rule="nonzero" transform="matrix(1.00252 0 0 1 -1795 1021)"/><path d="M376.727 242.464 376.727 242.453" stroke="#221F1F" stroke-width="7.13435" stroke-linecap="round" stroke-linejoin="round" stroke-miterlimit="4" stroke-opacity="1" fill="none" fill-rule="nonzero" transform="matrix(1.00252 0 0 1 -1795 1021)"/><path d="M399.255 326.523C394.508 383.598 321.644 429.411 225.939 429.411L225.775 429.411C130.526 426.766 63.8799 387.033 59.1108 329.936 58.5752 322.583 58.8403 315.193 59.9011 307.897 63.0676 284.639 72.7374 260.42 82.0505 245.46 84.4323 246.558 86.8102 247.644 89.1849 248.72 107.984 241.496 127.423 236.056 147.242 232.476 175.099 227.432 206.951 225.16 225.764 225.418L225.928 225.418C245.389 224.54 276.599 227.432 304.45 232.476 324.271 236.057 343.711 241.496 362.513 248.72 364.895 247.622 367.272 246.536 369.647 245.46L374.586 243.199C383.812 258.763 394.617 283.201 398.212 306.036 399.372 312.8 399.722 319.676 399.255 326.523Z" stroke="#221F1F" stroke-width="7.13435" stroke-linecap="round" stroke-linejoin="round" stroke-miterlimit="4" stroke-opacity="1" fill="none" fill-rule="nonzero" transform="matrix(1.00252 0 0 1 -1795 1021)"/><path d="M428.632 155.847C415.708 173.227 408.842 179.012 399.37 187.129 396.785 189.324 388.844 195.245 381.391 198.483 380.217 198.999 379.196 199.411 378.28 199.751 377.588 200.003 376.957 200.212 376.375 200.382 372.122 201.573 369.905 200.574 361.849 198.972L358.298 198.329C353.2 197.413 343.206 193.939 334.151 185.098 320.047 171.378 313.346 155.331 317.835 131.074 337.416 131.541 370.432 110.39 385.793 88.4111 403.81 62.6176 400.33 32.154 395.852 13.1053 394.464 7.16179 401.34 2.83177 406.12 6.62946 462.564 51.5374 453.69 122.157 428.654 155.836" fill="#F79422" fill-rule="nonzero" fill-opacity="1" transform="matrix(1.00252 0 0 1 -1795 1021)"/><path d="M428.632 155.847C415.708 173.227 408.842 179.012 399.37 187.129 396.785 189.324 388.844 195.245 381.391 198.483 380.217 198.999 379.196 199.411 378.28 199.751 377.588 200.003 376.957 200.212 376.375 200.382 372.122 201.573 369.905 200.574 361.849 198.972L358.298 198.329C353.2 197.413 343.206 193.939 334.151 185.098 320.047 171.378 313.346 155.331 317.835 131.074 337.416 131.541 370.432 110.39 385.793 88.4111 403.81 62.6176 400.33 32.154 395.852 13.1053 394.464 7.16179 401.34 2.83177 406.12 6.62946 462.536 51.5484 453.662 122.168 428.632 155.847Z" stroke="#221F1F" stroke-width="10.4271" stroke-linecap="butt" stroke-linejoin="round" stroke-miterlimit="4" stroke-opacity="1" fill="none" fill-rule="nonzero" transform="matrix(1.00252 0 0 1 -1795 1021)"/><path d="M376.37 200.393 373.807 213.685C357.738 204.152 329.739 189.851 308.83 186.547 286.241 182.98 270.194 180.51 257.83 178.94L250.092 101.697C260.371 102.499 276.269 104.749 290.154 112.898 304.779 121.482 311.513 126.838 315.525 131.854L317.802 131.085C313.313 155.342 319.998 171.378 334.118 185.109 343.195 193.939 353.189 197.424 358.265 198.34 358.814 198.434 361.289 199.531 361.816 199.63 369.872 201.233 372.089 201.584 376.342 200.393" fill="#5A595C" fill-rule="nonzero" fill-opacity="1" transform="matrix(1.00252 0 0 1 -1795 1021)"/><path d="M376.37 200.393 373.807 213.685C357.738 204.152 329.739 189.851 308.83 186.547 286.241 182.98 270.194 180.51 257.83 178.94L250.092 101.697C260.371 102.499 276.269 104.749 290.154 112.898 304.779 121.482 311.513 126.838 315.525 131.854L317.802 131.085C313.313 155.342 319.998 171.378 334.118 185.109 343.195 193.939 353.189 197.424 358.265 198.34L361.816 198.982C369.911 200.585 372.106 201.584 376.37 200.393Z" stroke="#221F1F" stroke-width="10.4271" stroke-linecap="butt" stroke-linejoin="round" stroke-miterlimit="4" stroke-opacity="1" fill="none" fill-rule="nonzero" transform="matrix(1.00252 0 0 1 -1795 1021)"/><path d="M250.092 101.697C249.181 101.632 248.33 101.566 247.513 101.522" stroke="#221F1F" stroke-width="10.4271" stroke-linecap="butt" stroke-linejoin="round" stroke-miterlimit="4" stroke-opacity="1" fill="none" fill-rule="nonzero" transform="matrix(1.00252 0 0 1 -1795 1021)"/><path d="M376.941 197.44C376.941 197.44 384.459 207.214 373.648 214.585Z" fill="#F79422" fill-rule="nonzero" fill-opacity="1" transform="matrix(1.00252 0 0 1 -1795 1021)"/><path d="M376.941 197.44C376.941 197.44 384.459 207.214 373.648 214.585" stroke="#221F1F" stroke-width="10.4271" stroke-linecap="butt" stroke-linejoin="miter" stroke-miterlimit="10" stroke-opacity="1" fill="none" fill-rule="nonzero" transform="matrix(1.00252 0 0 1 -1795 1021)"/><path d="M79.5206 197.44C79.5206 197.44 72.0021 207.214 82.8133 214.585Z" fill="#F79422" fill-rule="nonzero" fill-opacity="1" transform="matrix(1.00252 0 0 1 -1795 1021)"/><path d="M79.5206 197.44C79.5206 197.44 72.0021 207.214 82.8133 214.585" stroke="#221F1F" stroke-width="10.4271" stroke-linecap="butt" stroke-linejoin="miter" stroke-miterlimit="10" stroke-opacity="1" fill="none" fill-rule="nonzero" transform="matrix(1.00252 0 0 1 -1795 1021)"/><path d="M205.7 349.303C210.052 350.088 214.843 349.819 218.64 347.739 224.167 344.715 228.475 342.109 229.155 331.445 229.155 342.169 234.138 344.715 239.659 347.739 243.451 349.814 248.231 350.088 252.561 349.314" stroke="#171717" stroke-width="6.03676" stroke-linecap="round" stroke-linejoin="round" stroke-miterlimit="4" stroke-opacity="1" fill="none" fill-rule="nonzero" transform="matrix(1.00252 0 0 1 -1795 1021)"/><path d="M252.55 311.107C252.55 318.148 241.64 328.059 228.184 328.059 214.727 328.059 203.817 318.565 203.817 311.524 203.817 304.483 214.727 302.03 228.184 302.03 241.64 302.03 252.55 304.06 252.55 311.107Z" fill="#171717" fill-rule="nonzero" fill-opacity="1" transform="matrix(1.00252 0 0 1 -1795 1021)"/><path d="M238.463 308.391C238.463 310.037 233.858 312.353 228.184 312.353 222.509 312.353 217.905 310.158 217.905 308.511 217.905 306.865 222.509 307.167 228.184 307.167 233.858 307.167 238.463 306.772 238.463 308.412" fill="#FFFFFF" fill-rule="nonzero" fill-opacity="1" transform="matrix(1.00252 0 0 1 -1795 1021)"/><path d="M190.778 331.561C190.778 341.23 195.679 346.927 204.141 348.974 204.657 349.1 205.178 349.21 205.7 349.303" stroke="#171717" stroke-width="6.03676" stroke-linecap="round" stroke-linejoin="round" stroke-miterlimit="4" stroke-opacity="1" fill="none" fill-rule="nonzero" transform="matrix(1.00252 0 0 1 -1795 1021)"/><path d="M229.057 323.219C229.057 326.342 229.106 328.52 229.155 331.451" stroke="#171717" stroke-width="6.03676" stroke-linecap="round" stroke-linejoin="round" stroke-miterlimit="4" stroke-opacity="1" fill="none" fill-rule="nonzero" transform="matrix(1.00252 0 0 1 -1795 1021)"/><path d="M252.561 349.314C253.11 349.221 253.659 349.106 254.169 348.974 262.632 346.916 267.527 341.23 267.527 331.561" stroke="#171717" stroke-width="6.03676" stroke-linecap="round" stroke-linejoin="round" stroke-miterlimit="4" stroke-opacity="1" fill="none" fill-rule="nonzero" transform="matrix(1.00252 0 0 1 -1795 1021)"/><path d="M406.093 6.64043C462.536 51.5484 453.662 122.168 428.626 155.847" stroke="#221F1F" stroke-width="10.4271" stroke-linecap="butt" stroke-linejoin="round" stroke-miterlimit="4" stroke-opacity="1" fill="none" fill-rule="nonzero" transform="matrix(1.00252 0 0 1 -1795 1021)"/><path d="M119.22 185.109C110.143 193.939 100.144 197.424 95.0734 198.34L91.5172 198.982C85.6835 200.146 82.9176 200.991 80.2175 200.909 79.4229 200.884 78.6321 200.781 77.8577 200.601 75.8398 200.081 73.874 199.376 71.9856 198.494 64.511 195.256 56.548 189.357 53.985 187.161 44.5073 179.034 37.6474 173.249 24.7232 155.88-0.312864 122.2-9.1869 51.6087 47.2568 6.67331 52.0313 2.87564 58.9078 7.2221 57.5138 13.1491 53.0411 32.1978 49.5672 62.6506 67.5842 88.455 82.9505 110.434 115.961 131.585 135.542 131.118 140.025 155.331 133.33 171.378 119.22 185.109Z" stroke="#221F1F" stroke-width="10.4271" stroke-linecap="butt" stroke-linejoin="round" stroke-miterlimit="4" stroke-opacity="1" fill="none" fill-rule="nonzero" transform="matrix(1.00252 0 0 1 -1795 1021)"/><path d="M184.461 271.758C184.461 284.886 176.751 295.527 167.24 295.527 157.729 295.527 150.013 284.886 150.013 271.758 150.013 260.234 155.962 250.613 163.854 248.445L183.254 263C184.063 265.848 184.47 268.797 184.461 271.758Z" fill="#221F1F" fill-rule="nonzero" fill-opacity="1" transform="matrix(1.00252 0 0 1 -1795 1021)"/><path d="M178.101 268.597C178.101 273.295 175.357 277.109 171.938 277.109 168.519 277.109 165.758 273.322 165.758 268.597 165.758 263.872 168.502 260.085 171.921 260.085 175.34 260.085 178.084 263.927 178.084 268.597" fill="#FFFFFF" fill-rule="nonzero" fill-opacity="1" transform="matrix(1.00252 0 0 1 -1795 1021)"/><path d="M163.442 289.567C156.857 295.236 150.518 301.157 145.332 307.787 142.744 311.04 140.535 314.577 138.747 318.329 136.996 322.115 135.745 326.113 135.026 330.222 134.647 332.307 134.367 334.442 134.159 336.599L133.851 339.837C133.775 340.934 133.731 342.004 133.67 343.091 133.491 347.46 133.57 351.836 133.906 356.196 134.259 360.588 134.869 364.954 135.734 369.274 136.189 371.436 136.672 373.598 137.27 375.728 137.819 377.867 138.536 379.959 139.416 381.984 138.29 380.053 137.323 378.035 136.524 375.947 135.673 373.878 134.938 371.765 134.23 369.636 131.445 361.043 129.711 352.145 129.066 343.135 129 341.999 128.918 340.863 128.868 339.727L128.802 336.302C128.77 334.019 128.885 331.725 129.071 329.409 129.456 324.689 130.452 320.038 132.035 315.574 133.67 311.119 135.805 306.864 138.401 302.892 143.483 294.983 149.629 288.129 155.924 281.576 156.408 281.003 157.005 280.535 157.677 280.201 158.349 279.867 159.082 279.675 159.832 279.636 160.581 279.597 161.331 279.712 162.034 279.974 162.737 280.236 163.379 280.639 163.92 281.16 164.461 281.679 164.89 282.305 165.18 282.997 165.47 283.69 165.614 284.434 165.605 285.184 165.596 285.935 165.432 286.675 165.126 287.36 164.819 288.045 164.375 288.66 163.821 289.166 163.706 289.287 163.58 289.402 163.459 289.512L163.442 289.567Z" fill="#221F1F" fill-rule="nonzero" fill-opacity="1" transform="matrix(1.00252 0 0 1 -1795 1021)"/><path d="M159.464 287.816C159.029 287.777 158.597 287.701 158.174 287.591L157.444 287.399 156.056 287.048C155.139 286.828 154.217 286.631 153.312 286.466 151.457 286.126 149.584 285.899 147.703 285.786 143.916 285.544 140.115 285.883 136.431 286.79 134.565 287.252 132.749 287.896 131.009 288.711 129.228 289.527 127.535 290.519 125.954 291.674 122.691 294.085 119.864 297.036 117.596 300.4 119.137 296.472 121.34 292.838 124.11 289.655 125.543 288.02 127.135 286.533 128.863 285.215 130.609 283.86 132.484 282.68 134.461 281.692 138.467 279.685 142.757 278.304 147.182 277.598 149.398 277.234 151.633 277.005 153.877 276.912 155.004 276.864 156.127 276.847 157.247 276.862L158.893 276.901 159.683 276.928C159.886 276.928 160.232 276.928 159.919 276.884 161.29 277.05 162.547 277.727 163.44 278.779 164.334 279.831 164.798 281.181 164.74 282.56 164.683 283.939 164.108 285.247 163.13 286.22 162.152 287.194 160.843 287.764 159.464 287.816" fill="#221F1F" fill-rule="nonzero" fill-opacity="1" transform="matrix(1.00252 0 0 1 -1795 1021)"/><path d="M308.259 271.758C308.259 284.886 300.548 295.527 291.038 295.527 281.527 295.527 273.811 284.886 273.811 271.758 273.802 268.758 274.219 265.772 275.051 262.89L294.336 248.424C302.266 250.542 308.259 260.184 308.259 271.758Z" fill="#221F1F" fill-rule="nonzero" fill-opacity="1" transform="matrix(1.00252 0 0 1 -1795 1021)"/><path d="M280.171 268.597C280.171 273.295 282.915 277.109 286.334 277.109 289.753 277.109 292.53 273.322 292.53 268.597 292.53 263.872 289.786 260.085 286.362 260.085 282.937 260.085 280.199 263.927 280.199 268.597" fill="#FFFFFF" fill-rule="nonzero" fill-opacity="1" transform="matrix(1.00252 0 0 1 -1795 1021)"/><path d="M302.332 281.604C308.495 288.091 314.493 294.868 319.548 302.546 322.122 306.392 324.31 310.484 326.078 314.762 327.831 319.067 329.028 323.578 329.64 328.186 330.201 332.727 330.22 337.32 329.695 341.867 329.201 346.257 328.515 350.648 327.62 355 326.74 359.33 325.624 363.61 324.278 367.82 323.587 369.911 322.868 371.996 322.028 374.032 321.232 376.081 320.266 378.06 319.141 379.948 320.06 377.967 320.808 375.913 321.38 373.807 322.001 371.716 322.478 369.587 322.956 367.468 323.841 363.214 324.498 358.914 324.92 354.588 325.348 350.275 325.568 345.945 325.601 341.626 325.651 337.431 325.2 333.244 324.256 329.157 323.288 325.145 321.813 321.272 319.866 317.632 317.892 313.991 315.561 310.555 312.907 307.375 307.622 300.91 301.327 295.115 294.797 289.561 293.734 288.603 293.087 287.268 292.995 285.839 292.902 284.411 293.371 283.004 294.302 281.917 295.232 280.829 296.551 280.148 297.976 280.019 299.401 279.89 300.82 280.323 301.931 281.225 302.077 281.35 302.216 281.481 302.348 281.62" fill="#221F1F" fill-rule="nonzero" fill-opacity="1" transform="matrix(1.00252 0 0 1 -1795 1021)"/><path d="M298.353 276.884C298.293 276.884 298.15 276.934 298.353 276.923L298.71 276.923 299.549 276.923 301.3 276.89C302.474 276.89 303.649 276.91 304.823 276.95 307.169 277.044 309.508 277.262 311.831 277.603 316.474 278.274 321.006 279.566 325.304 281.445 329.544 283.309 333.395 285.952 336.659 289.237 339.778 292.454 342.241 296.247 343.909 300.406 341.59 296.877 338.599 293.84 335.105 291.47 331.611 289.1 327.684 287.442 323.548 286.592 319.553 285.776 315.466 285.501 311.398 285.775 309.374 285.904 307.359 286.14 305.361 286.483 304.357 286.653 303.364 286.845 302.376 287.07L300.877 287.415 300.104 287.602 299.648 287.701C299.374 287.757 299.098 287.797 298.819 287.822 297.44 287.77 296.131 287.2 295.153 286.226 294.175 285.252 293.6 283.945 293.542 282.566 293.485 281.187 293.949 279.837 294.843 278.785 295.736 277.733 296.994 277.056 298.364 276.89" fill="#221F1F" fill-rule="nonzero" fill-opacity="1" transform="matrix(1.00252 0 0 1 -1795 1021)"/></g></g></g></g></g></svg>