<svg width="1311" height="1310" xmlns="http://www.w3.org/2000/svg" xmlns:xlink="http://www.w3.org/1999/xlink" overflow="hidden"><defs><clipPath id="clip0"><rect x="1544" y="582" width="1311" height="1310"/></clipPath><clipPath id="clip1"><rect x="1774" y="810" width="852" height="855"/></clipPath><clipPath id="clip2"><rect x="1774" y="810" width="852" height="855"/></clipPath><clipPath id="clip3"><rect x="1774" y="810" width="852" height="855"/></clipPath></defs><g clip-path="url(#clip0)" transform="translate(-1544 -582)"><path d="M1549 1237.5C1549 877.687 1840.46 586 2200 586 2559.54 586 2851 877.687 2851 1237.5 2851 1597.31 2559.54 1889 2200 1889 1840.46 1889 1549 1597.31 1549 1237.5Z" fill="#22363D" fill-rule="evenodd" fill-opacity="1"/><g clip-path="url(#clip1)"><g clip-path="url(#clip2)"><g clip-path="url(#clip3)"><path d="M765.403 0C812.793-2.4388e-14 851.21 38.4173 851.21 85.8075L851.21 766.192C851.21 813.582 812.793 852 765.403 852L85.8075 852C38.4173 852 0 813.582 0 766.192L0 85.8075C-2.4388e-14 38.4173 38.4173-1.30932e-05 85.8075-1.30932e-05Z" fill="#22373D" fill-rule="nonzero" fill-opacity="1" transform="matrix(1 0 0 1.00117 1774.39 811)"/><path d="M139.66 270.088 73.3139 231.783 73.3139 620.217 139.66 581.912 139.66 270.088Z" fill="#CCCCCC" fill-rule="nonzero" fill-opacity="1" transform="matrix(1 0 0 1.00117 1774.39 811)"/><path d="M777.896 231.783 777.896 620.217 711.516 581.912 711.516 270.088 777.896 231.783Z" fill="#8247E5" fill-rule="nonzero" fill-opacity="1" transform="matrix(1 0 0 1.00117 1774.39 811)"/><path d="M146.628 599.794 80.2815 638.099 416.647 832.298 416.647 755.689 146.628 599.794Z" fill="#E6E6E6" fill-rule="nonzero" fill-opacity="1" transform="matrix(1 0 0 1.00117 1774.39 811)"/><path d="M704.583 599.794 770.929 638.099 434.563 832.298 434.563 755.689 704.583 599.794Z" fill="#FFFFFF" fill-rule="nonzero" fill-opacity="1" transform="matrix(1 0 0 1.00117 1774.39 811)"/><path d="M434.563 19.7014 770.929 213.901 704.583 252.205 434.563 96.3103 434.563 19.7014Z" fill="#FFFFFF" fill-rule="nonzero" fill-opacity="1" transform="matrix(1 0 0 1.00117 1774.39 811)"/><path d="M416.681 19.7014 80.2815 213.901 146.628 252.205 416.647 96.3103 416.681 19.7014Z" fill="#E6E6E6" fill-rule="nonzero" fill-opacity="1" transform="matrix(1 0 0 1.00117 1774.39 811)"/><path d="M492.569 513.575 492.569 338.425 537.189 364.03 537.189 487.661 492.569 513.575Z" fill="#8247E5" fill-rule="nonzero" fill-opacity="1" transform="matrix(1 0 0 1.00117 1774.39 811)"/><path d="M432.573 469.813 432.573 382.187 459.86 397.838 459.86 453.956 432.573 469.813Z" fill="#8247E5" fill-rule="nonzero" fill-opacity="1" transform="matrix(1 0 0 1.00117 1774.39 811)"/><path d="M586.752 566.707 586.752 285.293 653.098 323.357 653.098 528.162 586.752 566.707Z" fill="#8247E5" fill-rule="nonzero" fill-opacity="1" transform="matrix(1 0 0 1.00117 1774.39 811)"/></g></g></g></g></svg>