<?xml version="1.0" encoding="utf-8"?>
<!-- Generator: Adobe Illustrator 16.2.0, SVG Export Plug-In . SVG Version: 6.00 Build 0)  -->
<!DOCTYPE svg PUBLIC "-//W3C//DTD SVG 1.1//EN" "http://www.w3.org/Graphics/SVG/1.1/DTD/svg11.dtd">
<svg version="1.1" id="圖層_1" xmlns="http://www.w3.org/2000/svg" xmlns:xlink="http://www.w3.org/1999/xlink" x="0px" y="0px"
	 width="250px" height="250px" viewBox="0 -112 250 250" enable-background="new 0 -112 250 250" xml:space="preserve">
<g>
	<path fill="#A3C947" d="M193.187,83.568c-9.412,14.197-25.764,26.499-42.084,34.638l-2.344,1.034c0,0.026,0,0.026-0.027,0.026
		c-7.002,2.704-14.777,4.245-22.977,4.305H124.8c-32.904-0.224-52.932-25.387-60.135-36.422c-0.045-0.039-0.063-0.096-0.115-0.156
		l-2.867-4.818c-0.043-0.071-0.068-0.118-0.068-0.118c0.246-0.132,0.516-0.237,0.762-0.369c1.91-0.984,3.867-1.925,5.848-2.804
		c0.561-0.281,1.113-0.545,1.658-0.773c0.063-0.041,0.127-0.057,0.186-0.102c1.318-0.58,2.645-1.16,3.967-1.694
		c0.305-0.159,0.621-0.29,0.91-0.38c0.75-0.299,1.488-0.596,2.236-0.887c5.221-2.049,10.578-3.758,16.02-4.984
		c0.025,0,0.055-0.004,0.078-0.004c0.689-0.164,1.371-0.33,2.043-0.461c0.225-0.061,0.4-0.072,0.623-0.133
		c1.17-0.244,2.318-0.43,3.508-0.625c0.43-0.064,0.852-0.132,1.289-0.191c0.096-0.014,0.188-0.014,0.275-0.031
		c0.764-0.102,1.559-0.193,2.311-0.267c2.451-0.223,4.92-0.335,7.371-0.31c4.201,0.061,8.43,0.509,12.613,1.451
		c9.758,2.346,16.701,9.162,25.473,13.097C162.259,88.71,178.989,87.91,193.187,83.568"/>
	<path fill="#B5D027" d="M125.755,123.571H124.8c-32.904-0.224-52.932-25.387-60.135-36.422c-0.045-0.039-0.057-0.096-0.115-0.156
		l-2.867-4.818c-0.043-0.071-0.068-0.118-0.068-0.118c0.246-0.132,0.516-0.237,0.762-0.369c1.91-0.984,3.867-1.925,5.848-2.804
		c0.561-0.281,1.113-0.545,1.658-0.773c0.063-0.041,0.127-0.057,0.186-0.102c0.785-0.334,1.539-0.711,2.314-1.041
		c0.559-0.237,1.121-0.475,1.652-0.677c0.305-0.153,0.621-0.267,0.91-0.374c0.75-0.288,1.488-0.578,2.242-0.892
		c5.256-1.999,10.66-3.668,16.014-4.966c0.025,0,0.064-0.018,0.078-0.018c0.689-0.158,1.371-0.313,2.043-0.457
		c0.225-0.057,0.4-0.074,0.623-0.137c1.176-0.227,2.336-0.43,3.508-0.607c0.43-0.086,0.852-0.132,1.289-0.201
		c0.096-0.021,0.188-0.021,0.275-0.036c0.764-0.094,1.559-0.183,2.311-0.252c2.494-0.247,5.025-0.401,7.551-0.354
		c-0.063,0.012-0.141,0.027-0.197,0.027c-0.014,0.031-0.014,0.031-0.053,0.031c-0.158,0.031-0.365,0.088-0.535,0.132
		c-0.105,0.032-0.244,0.075-0.375,0.097c-19.4,4.676-25.207,24.342-13.061,36.443c1.29,1.311,2.809,2.531,4.518,3.623
		c2.996,1.914,6.248,3.694,9.551,5.496C116.077,116.782,121.466,119.757,125.755,123.571"/>
	<path fill="#F48923" d="M206.122,31.286c0,14.238-4.633,27.679-12.936,39.626c-4.168,1.248-8.467,2.175-12.746,2.78
		c-10.711,1.482-22.158,0.52-31.633-3.752c-8.795-4.012-15.715-10.783-25.471-13.111c-9.752-2.358-20.381-1.755-30.055,0.535
		c-9.334,2.222-18.59,5.649-27.396,9.861c-3.043,1.424-6.002,2.975-8.914,4.58v-0.012c-8.764-12.589-13.094-26.446-13.094-40.283
		c0-0.665,0.018-1.314,0.045-1.978c3.99-0.229,7.963-0.515,11.932-1.028c1.91-0.243,3.807-0.533,5.695-0.864
		c12.393-2.269,22.201-7.362,31.635-14.016c8.5-6.009,16.629-12.616,26.717-16.752c13.086-5.367,28.682-6.165,42.973-3.48
		c14.691,2.739,27.822,8.819,39.592,16.3V9.71C204.868,16.607,206.122,23.844,206.122,31.286"/>
	<g opacity="0.4">
		<path fill="#FFB476" d="M206.134,31.155c0,14.238-4.645,27.676-12.947,39.629c-11.566,3.473-24.363,4.707-36.213,1.793
			c0.088,0,0.178,0.027,0.246,0.027c15.266,0.703,29.227-7.613,33.727-19.81c1.063-2.862,1.922-5.78,2.598-8.737
			c5.23-23.246-12.125-46.205-39.592-51.939c-0.143-0.031-0.275-0.049-0.422-0.088c18.1,1.406,34.768,8.467,48.912,17.543
			C204.851,16.49,206.134,23.7,206.134,31.155"/>
		<rect x="153.54" y="-7.981" fill="none" width="52.594" height="82.187"/>
	</g>
	<path fill="#F5C417" d="M202.456-2.986c-11.76-7.493-24.908-13.57-39.592-16.3c-14.309-2.676-29.891-1.885-42.969,3.485
		c-10.084,4.131-18.215,10.718-26.719,16.72C83.745,7.591,73.919,12.69,61.55,14.958c-5.826,1.049-11.721,1.582-17.645,1.887
		C44.644-9.2,60.688-34.983,91.478-51.933c6.512-3.577,11.809-8.143,15.682-13.356c7.305-9.85,28.387-9.797,35.523,0.196
		c3.699,5.201,9.037,9.691,15.463,13.279C179.774-39.751,195.663-22.665,202.456-2.986"/>
	<g opacity="0.2">
		<path fill="#F4EFCE" d="M202.642-2.986c-1.557-1.011-3.164-1.989-4.805-2.948c-7.305-18.439-22.67-34.428-43.201-45.889
			c-6.416-3.593-11.775-8.075-15.461-13.279c-1.027-1.414-2.311-2.629-3.797-3.635c-3.34-2.288-7.707-3.572-12.16-3.855
			c0.119-0.003,0.201-0.003,0.295-0.003c0.732-0.04,1.487-0.023,2.242,0c0.404,0,0.826,0.018,1.248,0.058
			c0.158,0.004,0.316,0.021,0.486,0.039c6.275,0.498,12.199,2.965,15.398,7.406c3.691,5.201,9.031,9.68,15.451,13.279
			C179.96-39.751,195.876-22.665,202.642-2.986"/>
		<rect x="123.218" y="-72.636" fill="none" width="79.443" height="69.649"/>
	</g>
	<g opacity="0.4">
		<path fill="#EEDB6D" d="M135.36-68.737c-1.424,0.967-2.65,2.109-3.621,3.441c-3.867,5.216-9.166,9.786-15.68,13.354
			C95.837-40.788,81.952-25.829,74.628-9.484c-2.906,6.454-1.15,13.745,4.545,18.735c-3.32,1.594-6.791,2.95-10.477,4.018
			c-2.295,0.668-4.682,1.227-7.189,1.689c-2.18,0.385-4.359,0.712-6.566,0.979l0,0c-2.197,0.255-4.4,0.46-6.605,0.645
			c-1.469,0.098-2.936,0.186-4.43,0.264c0.586-20.336,10.482-40.521,29.48-56.479c0.754-0.648,1.541-1.28,2.318-1.896
			c4.736-3.74,9.984-7.227,15.773-10.402c2.438-1.333,4.689-2.816,6.785-4.433c0-0.015,0.018,0,0.018,0
			c3.492-2.669,6.453-5.671,8.879-8.944c0.227-0.296,0.463-0.602,0.713-0.891c0.242-0.283,0.516-0.533,0.797-0.811
			c0.248-0.271,0.535-0.514,0.846-0.771c0.299-0.256,0.598-0.484,0.932-0.718c0.315-0.237,0.648-0.469,0.984-0.665
			c0.334-0.209,0.701-0.416,1.047-0.606c0.357-0.196,0.711-0.363,1.096-0.534c0.369-0.186,0.748-0.33,1.145-0.492
			c1.539-0.608,3.188-1.068,4.902-1.381c0.486-0.086,0.992-0.177,1.506-0.229c0.357-0.041,0.711-0.091,1.068-0.126
			c0.338-0.004,0.67-0.044,1.002-0.062h0.023C127.671-72.31,132.024-71.019,135.36-68.737"/>
		<rect x="43.905" y="-72.593" fill="none" width="91.455" height="89.439"/>
	</g>
	<g opacity="0.15">
		<path fill="#FFFFFF" d="M56.972,71.806v-0.012c-8.77-12.589-13.105-26.446-13.105-40.283c0-0.665,0.018-1.318,0.039-1.978
			c3.986-0.229,7.969-0.515,11.924-1.028c-0.041,0.337-0.059,0.672-0.059,1.002c-0.01,0.668-0.039,1.339-0.039,2.004
			c0,12.19,3.361,24.402,10.154,35.715C62.843,68.649,59.862,70.2,56.972,71.806"/>
		<rect x="43.866" y="28.505" fill="none" width="22.02" height="43.301"/>
	</g>
	<g opacity="0.5">
		<path fill="#EF6600" d="M170.784,64.456c-0.58,0.494-1.885,1.628-3.691,1.405c-1.635-0.192-2.518-1.378-2.623-1.556
			c-0.693-0.982-0.535-1.959-0.471-2.361c0.219-1.333,1.344-3.202,3.582-3.605c1.646-0.309,3.756,0.178,4.563,1.424
			c0.58,0.937,0.254,1.959,0.082,2.559C171.892,63.383,171.185,64.08,170.784,64.456"/>
		<rect x="163.919" y="58.253" fill="none" width="8.543" height="7.654"/>
	</g>
	<g opacity="0.5">
		<path fill="#EF6600" d="M181.241,61.959c-0.201,0.164-0.623,0.539-1.246,0.433c-0.574-0.11-0.926-0.555-0.979-0.611
			c-0.268-0.369-0.244-0.725-0.244-0.857c0.041-0.475,0.375-1.114,1.16-1.221c0.561-0.07,1.309,0.153,1.641,0.622
			c0.246,0.328,0.158,0.7,0.115,0.908C181.595,61.608,181.362,61.837,181.241,61.959"/>
		<rect x="178.772" y="59.702" fill="none" width="2.959" height="2.707"/>
	</g>
	<g opacity="0.5">
		<path fill="#EF6600" d="M175.571,53.786c-0.516-0.118-1.662-0.385-2.027-1.334c-0.334-0.876,0.246-1.699,0.313-1.808
			c0.467-0.683,1.178-0.935,1.469-1.04c0.975-0.343,2.578-0.406,3.516,0.574c0.676,0.712,0.934,1.907,0.307,2.71
			c-0.463,0.604-1.244,0.779-1.705,0.897C176.616,53.981,175.942,53.876,175.571,53.786"/>
		<rect x="173.446" y="49.379" fill="none" width="6.057" height="4.512"/>
	</g>
	<g opacity="0.5">
		<path fill="#F2E600" d="M170.229-23.128c0.572,0.486,1.873,1.641,3.654,1.436c1.637-0.199,2.531-1.377,2.639-1.556
			c0.709-0.961,0.563-1.944,0.51-2.358c-0.219-1.333-1.313-3.205-3.568-3.642c-1.654-0.316-3.756,0.167-4.564,1.419
			c-0.594,0.916-0.289,1.943-0.117,2.536C169.114-24.209,169.808-23.497,170.229-23.128"/>
		<rect x="168.56" y="-29.327" fill="none" width="8.525" height="7.668"/>
	</g>
	<g opacity="0.5">
		<path fill="#F2E600" d="M159.794-25.68c0.18,0.164,0.602,0.545,1.24,0.428c0.574-0.103,0.922-0.546,0.984-0.606
			c0.24-0.354,0.24-0.7,0.223-0.844c-0.021-0.48-0.355-1.122-1.146-1.219c-0.553-0.085-1.301,0.137-1.631,0.589
			c-0.25,0.347-0.176,0.703-0.135,0.909C159.411-26.044,159.647-25.812,159.794-25.68"/>
		<rect x="159.306" y="-27.947" fill="none" width="2.953" height="2.712"/>
	</g>
	<g opacity="0.5">
		<path fill="#F2E600" d="M165.536-33.818c0.49-0.108,1.65-0.374,2.021-1.313c0.334-0.871-0.223-1.701-0.289-1.82
			c-0.467-0.672-1.178-0.936-1.469-1.047c-0.969-0.331-2.557-0.422-3.516,0.533c-0.676,0.706-0.951,1.907-0.328,2.729
			c0.457,0.603,1.248,0.799,1.688,0.916C164.47-33.63,165.159-33.735,165.536-33.818"/>
		<rect x="161.599" y="-38.236" fill="none" width="6.063" height="4.509"/>
	</g>
	<path fill="#B5D027" d="M89.604-86.558c4.107,5.961,5.318,13.061,3.955,19.634c-1.086,5.232-6.055,8.663-11.338,7.823
		c-6.645-1.062-12.84-4.738-16.941-10.697c-5.813-8.432-5.84-19.137-0.967-27.398C73.796-98.817,83.79-94.981,89.604-86.558"/>
	<g opacity="0.25">
		<path fill="#98C117" d="M91.54-62.652c-2.178,2.695-5.67,4.154-9.318,3.552c-6.635-1.062-12.84-4.727-16.941-10.697
			c-5.813-8.432-5.84-19.137-0.967-27.398c0.031-0.018,0.041,0,0.059,0c1.16,6.331,3.674,12.533,7.566,18.196
			C77.04-71.599,83.886-66.08,91.54-62.652"/>
		<rect x="60.771" y="-97.214" fill="none" width="30.744" height="38.253"/>
	</g>
	<g opacity="0.15">
		<path fill="#FFFFFF" d="M93.36-78.077c-0.688-1.638-1.555-3.202-2.596-4.72c-6.318-9.149-17.199-13.349-27.488-11.591
			c-0.514,0.859-0.979,1.748-1.371,2.689c0.58-1.921,1.395-3.77,2.408-5.516c9.482-1.604,19.477,2.232,25.291,10.656
			C91.419-83.907,92.69-81.03,93.36-78.077"/>
		<rect x="61.905" y="-97.569" fill="none" width="31.455" height="19.492"/>
	</g>
	<g opacity="0.5">
		<path fill="#92C12B" d="M84.147-60.426c2.209,0.351,4.389-0.032,6.234-1.038c-2.137,1.92-5.092,2.848-8.178,2.371
			c-6.627-1.069-12.822-4.746-16.941-10.705c-5.801-8.432-5.822-19.137-0.949-27.398c0.439-0.091,0.886-0.158,1.307-0.189
			c-4.219,8.088-3.955,18.213,1.582,26.262C71.315-65.172,77.515-61.499,84.147-60.426"/>
		<rect x="60.771" y="-97.386" fill="none" width="29.611" height="38.436"/>
	</g>
	<g opacity="0.3">
		<path fill="#F2E600" d="M92.409-71.233c-0.023-0.232-0.068-0.734-0.516-0.988c-0.416-0.228-0.889-0.069-0.949-0.043
			c-0.381,0.132-0.566,0.416-0.65,0.535c-0.24,0.382-0.416,1.05,0,1.547c0.295,0.364,0.891,0.588,1.361,0.411
			c0.332-0.135,0.502-0.463,0.597-0.64C92.429-70.768,92.429-71.063,92.409-71.233"/>
		<rect x="90.054" y="-72.341" fill="none" width="2.355" height="2.622"/>
	</g>
</g>
</svg>
