<svg version="1.2" baseProfile="tiny-ps" xmlns="http://www.w3.org/2000/svg" viewBox="0 0 207 207" width="207" height="207">
	<title>FRUIT-svg</title>
	<style>
		tspan { white-space:pre }
		.shp0 { fill: #000707 } 
		.shp1 { fill: #a3c947 } 
		.shp2 { fill: #b5d027 } 
		.shp3 { fill: #f48923 } 
		.shp4 { opacity: 0.4;fill: #ffb476 } 
		.shp5 { fill: #f5c417 } 
		.shp6 { opacity: 0.2;fill: #f4efce } 
		.shp7 { opacity: 0.4;fill: #eedb6d } 
		.shp8 { opacity: 0.149;fill: #ffffff } 
		.shp9 { opacity: 0.498;fill: #ef6600 } 
		.shp10 { opacity: 0.498;fill: #f2e600 } 
		.shp11 { opacity: 0.247;fill: #98c117 } 
		.shp12 { opacity: 0.498;fill: #92c12b } 
		.shp13 { opacity: 0.298;fill: #f2e600 } 
	</style>
	<path id="Layer" class="shp0" d="M103.5 0.38C46.55 0.38 0.38 46.55 0.38 103.5C0.38 160.45 46.55 206.63 103.5 206.63C160.45 206.63 206.63 160.45 206.63 103.5C206.63 46.55 160.45 0.38 103.5 0.38Z" />
	<path id="Layer" class="shp1" d="M144.41 145.84C138.77 154.36 128.95 161.74 119.16 166.63L117.75 167.24C117.75 167.26 117.75 167.26 117.74 167.26C113.54 168.88 108.87 169.8 103.95 169.84L103.38 169.84C83.64 169.71 71.62 154.61 67.3 147.99C67.27 147.96 67.26 147.93 67.23 147.89L65.51 145C65.48 144.96 65.47 144.93 65.47 144.93C65.62 144.86 65.78 144.79 65.93 144.71C67.07 144.12 68.25 143.56 69.43 143.03C69.77 142.86 70.1 142.7 70.43 142.57C70.47 142.54 70.51 142.53 70.54 142.5C71.33 142.16 72.13 141.81 72.92 141.49C73.11 141.39 73.29 141.32 73.47 141.26C73.92 141.08 74.36 140.9 74.81 140.73C77.94 139.5 81.16 138.47 84.42 137.74C84.44 137.74 84.45 137.73 84.47 137.73C84.88 137.64 85.29 137.54 85.7 137.46C85.83 137.42 85.93 137.42 86.07 137.38C86.77 137.23 87.46 137.12 88.17 137C88.43 136.96 88.68 136.93 88.95 136.89C89 136.88 89.06 136.88 89.11 136.87C89.57 136.81 90.05 136.75 90.5 136.71C91.97 136.58 93.45 136.51 94.92 136.52C97.44 136.56 99.98 136.83 102.49 137.39C108.34 138.8 112.51 142.89 117.77 145.25C125.86 148.93 135.89 148.45 144.41 145.84Z" />
	<path id="Layer" class="shp2" d="M103.95 169.84L103.38 169.84C83.64 169.71 71.62 154.61 67.3 147.99C67.27 147.96 67.27 147.93 67.23 147.89L65.51 145C65.48 144.96 65.47 144.93 65.47 144.93C65.62 144.86 65.78 144.79 65.93 144.71C67.07 144.12 68.25 143.56 69.43 143.03C69.77 142.86 70.1 142.7 70.43 142.57C70.47 142.54 70.51 142.53 70.54 142.5C71.01 142.3 71.46 142.08 71.93 141.88C72.27 141.74 72.6 141.6 72.92 141.47C73.11 141.38 73.29 141.31 73.47 141.25C73.92 141.08 74.36 140.9 74.81 140.71C77.96 139.52 81.21 138.52 84.42 137.73C84.44 137.73 84.46 137.72 84.47 137.72C84.88 137.63 85.29 137.54 85.69 137.45C85.83 137.42 85.93 137.41 86.07 137.37C86.77 137.23 87.47 137.11 88.17 137C88.43 136.95 88.68 136.93 88.95 136.88C89 136.87 89.06 136.87 89.11 136.86C89.57 136.8 90.05 136.75 90.5 136.71C91.99 136.56 93.51 136.47 95.03 136.5C94.99 136.5 94.94 136.52 94.91 136.52C94.9 136.53 94.9 136.53 94.88 136.53C94.78 136.55 94.66 136.59 94.55 136.61C94.49 136.63 94.41 136.66 94.33 136.67C82.69 139.48 79.21 151.28 86.5 158.54C87.27 159.32 88.18 160.05 89.21 160.71C91 161.86 92.95 162.93 94.94 164.01C98.14 165.77 101.38 167.55 103.95 169.84Z" />
	<path id="Layer" class="shp3" d="M152.17 114.47C152.17 123.02 149.39 131.08 144.41 138.25C141.91 139 139.33 139.55 136.77 139.91C130.34 140.8 123.47 140.23 117.79 137.66C112.51 135.26 108.36 131.2 102.5 129.8C96.65 128.38 90.27 128.75 84.47 130.12C78.87 131.45 73.32 133.51 68.03 136.04C66.21 136.89 64.43 137.82 62.68 138.78L62.68 138.78C57.43 131.22 54.83 122.91 54.83 114.61C54.83 114.21 54.84 113.82 54.85 113.42C57.25 113.28 59.63 113.11 62.01 112.8C63.16 112.66 64.3 112.48 65.43 112.29C72.86 110.92 78.75 107.87 84.41 103.88C89.51 100.27 94.39 96.3 100.44 93.82C108.29 90.6 117.65 90.13 126.22 91.73C135.04 93.38 142.92 97.03 149.98 101.52L149.98 101.53C151.42 105.66 152.17 110.01 152.17 114.47Z" />
	<path id="Layer" class="shp4" d="M152.18 114.39C152.18 122.94 149.39 131 144.41 138.17C137.47 140.25 129.79 141 122.68 139.25C122.74 139.25 122.79 139.26 122.83 139.26C131.99 139.68 140.37 134.7 143.07 127.38C143.71 125.66 144.22 123.91 144.63 122.13C147.77 108.19 137.35 94.41 120.87 90.97C120.79 90.95 120.71 90.94 120.62 90.92C131.48 91.76 141.48 96 149.96 101.45C151.41 105.59 152.18 109.92 152.18 114.39Z" />
	<path id="Layer" class="shp5" d="M149.97 93.91C142.92 89.41 135.03 85.77 126.22 84.13C117.63 82.52 108.29 83 100.44 86.22C94.39 88.7 89.51 92.65 84.41 96.25C78.75 100.25 72.85 103.31 65.43 104.68C61.93 105.3 58.4 105.63 54.84 105.81C55.29 90.18 64.91 74.71 83.39 64.54C87.29 62.39 90.47 59.66 92.8 56.53C97.18 50.62 109.83 50.65 114.11 56.64C116.33 59.77 119.53 62.46 123.39 64.61C136.36 71.85 145.9 82.1 149.97 93.91Z" />
	<path id="Layer" class="shp6" d="M150.09 93.91C149.15 93.3 148.19 92.71 147.2 92.14C142.82 81.08 133.6 71.48 121.28 64.61C117.43 62.45 114.21 59.76 112 56.64C111.39 55.79 110.62 55.06 109.73 54.46C107.72 53.09 105.1 52.32 102.43 52.14C102.5 52.14 102.55 52.14 102.61 52.14C103.05 52.12 103.5 52.13 103.95 52.14C104.2 52.14 104.45 52.15 104.7 52.18C104.8 52.18 104.89 52.19 104.99 52.2C108.76 52.5 112.31 53.98 114.23 56.64C116.45 59.77 119.65 62.45 123.5 64.61C136.48 71.85 146.03 82.1 150.09 93.91Z" />
	<path id="Layer" class="shp7" d="M109.71 54.46C108.86 55.04 108.13 55.72 107.54 56.52C105.22 59.65 102.04 62.39 98.14 64.54C86 71.23 77.67 80.2 73.28 90.01C71.53 93.88 72.59 98.26 76 101.25C74.01 102.21 71.93 103.02 69.72 103.66C68.34 104.06 66.91 104.4 65.4 104.68C64.1 104.91 62.79 105.1 61.46 105.26C60.14 105.41 58.82 105.54 57.5 105.65C56.62 105.71 55.74 105.76 54.84 105.81C55.2 93.61 61.13 81.5 72.53 71.92C72.98 71.53 73.46 71.15 73.92 70.78C76.77 68.54 79.91 66.45 83.39 64.54C84.85 63.74 86.2 62.85 87.46 61.88C87.46 61.87 87.47 61.88 87.47 61.88C89.56 60.28 91.34 58.48 92.8 56.52C92.93 56.34 93.07 56.15 93.22 55.98C93.37 55.81 93.53 55.66 93.7 55.49C93.85 55.33 94.02 55.19 94.21 55.03C94.39 54.88 94.57 54.74 94.77 54.6C94.96 54.46 95.16 54.32 95.36 54.2C95.56 54.08 95.78 53.95 95.99 53.84C96.2 53.72 96.41 53.62 96.64 53.52C96.87 53.41 97.09 53.32 97.33 53.22C98.25 52.86 99.25 52.58 100.27 52.39C100.56 52.34 100.87 52.29 101.18 52.26C101.39 52.23 101.6 52.2 101.82 52.18C102.02 52.18 102.22 52.16 102.42 52.14L102.43 52.14C105.1 52.31 107.71 53.09 109.71 54.46Z" />
	<path id="Layer" class="shp8" d="M62.68 138.79L62.68 138.78C57.42 131.22 54.82 122.91 54.82 114.61C54.82 114.21 54.83 113.82 54.84 113.42C57.23 113.28 59.63 113.11 62 112.8C61.97 113 61.96 113.21 61.96 113.4C61.96 113.8 61.94 114.21 61.94 114.61C61.94 121.92 63.96 129.25 68.03 136.04C66.21 136.89 64.42 137.82 62.68 138.79Z" />
	<path id="Layer" class="shp9" d="M130.97 134.38C130.62 134.67 129.84 135.35 128.75 135.21C127.77 135.1 127.25 134.39 127.18 134.28C126.77 133.7 126.86 133.11 126.9 132.87C127.03 132.07 127.71 130.95 129.05 130.7C130.04 130.52 131.3 130.81 131.79 131.56C132.13 132.12 131.94 132.73 131.84 133.09C131.64 133.73 131.21 134.15 130.97 134.38Z" />
	<path id="Layer" class="shp9" d="M137.25 132.88C137.13 132.97 136.87 133.2 136.5 133.14C136.15 133.07 135.94 132.8 135.91 132.77C135.75 132.55 135.76 132.33 135.76 132.25C135.79 131.97 135.99 131.59 136.46 131.52C136.8 131.48 137.25 131.61 137.45 131.89C137.59 132.09 137.54 132.32 137.51 132.44C137.46 132.66 137.32 132.8 137.25 132.88Z" />
	<path id="Layer" class="shp9" d="M133.84 127.97C133.53 127.9 132.84 127.74 132.63 127.17C132.43 126.64 132.77 126.15 132.81 126.09C133.09 125.68 133.52 125.52 133.7 125.46C134.28 125.26 135.24 125.22 135.8 125.81C136.21 126.23 136.37 126.95 135.99 127.43C135.71 127.8 135.24 127.9 134.96 127.97C134.47 128.09 134.07 128.03 133.84 127.97Z" />
	<path id="Layer" class="shp10" d="M130.64 81.82C130.98 82.11 131.76 82.81 132.83 82.68C133.81 82.57 134.35 81.86 134.41 81.75C134.84 81.18 134.75 80.59 134.72 80.34C134.59 79.54 133.93 78.41 132.58 78.15C131.59 77.96 130.32 78.25 129.84 79C129.48 79.55 129.67 80.17 129.77 80.52C129.97 81.18 130.39 81.6 130.64 81.82Z" />
	<path id="Layer" class="shp10" d="M124.38 80.29C124.48 80.39 124.74 80.62 125.12 80.55C125.46 80.49 125.67 80.22 125.71 80.18C125.86 79.97 125.86 79.77 125.84 79.68C125.83 79.39 125.63 79 125.16 78.95C124.82 78.89 124.38 79.03 124.18 79.3C124.03 79.51 124.07 79.72 124.1 79.85C124.15 80.07 124.29 80.21 124.38 80.29Z" />
	<path id="Layer" class="shp10" d="M127.82 75.41C128.12 75.34 128.81 75.18 129.04 74.62C129.23 74.1 128.9 73.6 128.86 73.53C128.58 73.13 128.15 72.97 127.98 72.9C127.4 72.7 126.45 72.65 125.87 73.22C125.46 73.64 125.3 74.36 125.67 74.86C125.95 75.22 126.42 75.34 126.69 75.41C127.18 75.52 127.59 75.46 127.82 75.41Z" />
	<path id="Layer" class="shp2" d="M82.26 43.77C84.73 47.34 85.45 51.6 84.64 55.55C83.98 58.68 81 60.74 77.83 60.24C73.84 59.6 70.13 57.4 67.67 53.82C64.18 48.76 64.16 42.34 67.09 37.38C72.78 36.41 78.77 38.71 82.26 43.77Z" />
	<path id="Layer" class="shp11" d="M83.43 58.11C82.12 59.73 80.02 60.6 77.83 60.24C73.85 59.6 70.13 57.4 67.67 53.82C64.18 48.76 64.16 42.34 67.09 37.38C67.11 37.37 67.11 37.38 67.13 37.38C67.82 41.18 69.33 44.9 71.66 48.3C74.72 52.74 78.83 56.05 83.43 58.11Z" />
	<path id="Layer" class="shp8" d="M84.52 48.86C84.1 47.87 83.58 46.93 82.96 46.02C79.17 40.53 72.64 38.01 66.46 39.07C66.16 39.58 65.88 40.12 65.64 40.68C65.99 39.53 66.48 38.42 67.09 37.37C72.78 36.41 78.77 38.71 82.26 43.77C83.35 45.36 84.11 47.08 84.52 48.86Z" />
	<path id="Layer" class="shp12" d="M78.99 59.45C80.31 59.66 81.62 59.43 82.73 58.82C81.45 59.97 79.67 60.53 77.82 60.25C73.84 59.6 70.13 57.4 67.66 53.82C64.18 48.76 64.16 42.34 67.09 37.38C67.35 37.33 67.62 37.29 67.87 37.27C65.34 42.12 65.5 48.2 68.82 53.03C71.29 56.6 75.01 58.8 78.99 59.45Z" />
	<path id="Layer" class="shp13" d="M83.95 52.96C83.93 52.82 83.91 52.52 83.64 52.37C83.39 52.23 83.1 52.32 83.07 52.34C82.84 52.42 82.73 52.59 82.68 52.66C82.53 52.89 82.43 53.29 82.68 53.59C82.85 53.81 83.21 53.95 83.49 53.84C83.69 53.76 83.79 53.56 83.85 53.45C83.96 53.24 83.96 53.06 83.95 52.96Z" />
</svg>