<svg width="36" height="36" viewBox="0 0 36 36" fill="none" xmlns="http://www.w3.org/2000/svg">
<path d="M35.5218 18C35.5218 27.677 27.677 35.5218 18 35.5218C8.32298 35.5218 0.478197 27.677 0.478197 18C0.478197 8.32298 8.32298 0.478197 18 0.478197C27.677 0.478197 35.5218 8.32298 35.5218 18Z" fill="url(#paint0_linear_1149_10)"/>
<path d="M35.5218 18C35.5218 27.677 27.677 35.5218 18 35.5218C8.32298 35.5218 0.478197 27.677 0.478197 18C0.478197 8.32298 8.32298 0.478197 18 0.478197C27.677 0.478197 35.5218 8.32298 35.5218 18Z" stroke="url(#paint1_linear_1149_10)" stroke-width="0.956393"/>
<path d="M35.5218 18C35.5218 27.677 27.677 35.5218 18 35.5218C8.32298 35.5218 0.478197 27.677 0.478197 18C0.478197 8.32298 8.32298 0.478197 18 0.478197C27.677 0.478197 35.5218 8.32298 35.5218 18Z" stroke="url(#paint2_linear_1149_10)" stroke-opacity="0.2" stroke-width="0.956393"/>
<path d="M35.5217 18C35.5217 27.6769 27.677 35.5216 18.0001 35.5216C8.32324 35.5216 0.478563 27.6769 0.478563 18C0.478563 8.32309 8.32324 0.47841 18.0001 0.47841C27.677 0.47841 35.5217 8.32309 35.5217 18Z" fill="#E8E8E8"/>
<path d="M35.5217 18C35.5217 27.6769 27.677 35.5216 18.0001 35.5216C8.32324 35.5216 0.478563 27.6769 0.478563 18C0.478563 8.32309 8.32324 0.47841 18.0001 0.47841C27.677 0.47841 35.5217 8.32309 35.5217 18Z" stroke="url(#paint3_linear_1149_10)" stroke-width="0.956393"/>
<path d="M35.5217 18C35.5217 27.6769 27.677 35.5216 18.0001 35.5216C8.32324 35.5216 0.478563 27.6769 0.478563 18C0.478563 8.32309 8.32324 0.47841 18.0001 0.47841C27.677 0.47841 35.5217 8.32309 35.5217 18Z" stroke="url(#paint4_linear_1149_10)" stroke-opacity="0.2" stroke-width="0.956393"/>
<path d="M8.86725 14.1614C8.81315 14.3387 8.73834 14.6184 8.73834 14.6184C8.73834 14.6207 8.73719 14.6241 8.73604 14.6264C8.53232 15.378 8.42413 16.1445 8.42413 16.9065C8.42413 16.9606 8.42413 17.0135 8.42413 17.0665C8.43564 17.9988 8.32054 18.9253 8.11221 19.8323L8.01899 20.204C7.54133 20.0176 7.05217 19.6631 6.58488 19.0715C5.28889 17.429 5.7205 14.7945 7.3192 14.1741C7.94532 13.9312 8.46441 13.9934 8.8661 14.1603L8.86725 14.1614Z" fill="url(#paint5_linear_1149_10)"/>
<path d="M29.4161 19.0724C28.9522 19.6594 28.4665 20.0139 27.9923 20.2004L27.9014 19.8321C27.6942 18.924 27.5791 17.9986 27.5895 17.0663C27.5895 17.0134 27.5895 16.9604 27.5895 16.9063C27.5895 16.1409 27.4813 15.3709 27.2753 14.617L27.136 14.1601C27.5365 13.9944 28.0556 13.9334 28.6806 14.1751C30.2793 14.7954 30.7109 17.43 29.4149 19.0724H29.4161Z" fill="url(#paint6_linear_1149_10)"/>
<path d="M26.8329 19.6121C26.6476 18.8018 26.5452 17.9766 26.5544 17.1444C26.5544 17.0972 26.5544 17.05 26.5544 17.0017C26.5544 16.3192 26.4577 15.632 26.2735 14.9599L26.1101 14.4258C26.01 14.1312 25.8937 13.8411 25.7637 13.5557C25.6681 13.3474 25.5657 13.1425 25.454 12.9399C24.4688 11.1387 22.9 9.60326 21.0689 8.75845C20.7995 8.63414 20.1999 7.25759 20.1999 7.25759L18.7888 8.1047C18.7324 8.09779 18.676 8.09204 18.6184 8.08743C18.5137 8.07822 18.4113 8.07132 18.3054 8.06672L17.8323 6.92841C16.0932 7.52115 15.0665 8.69284 14.7305 8.85858C12.9902 9.72066 11.502 11.2077 10.5548 12.9399C10.4443 13.1425 10.3407 13.3474 10.2451 13.5557C10.1139 13.8411 9.99768 14.1323 9.89755 14.427C9.88028 14.4166 9.73526 14.961 9.73526 14.961C9.73526 14.9633 9.73411 14.9656 9.73296 14.9691C9.55111 15.6389 9.45443 16.3238 9.45443 17.0028C9.45443 17.0512 9.45443 17.0984 9.45443 17.1456C9.46478 17.9777 9.3612 18.8029 9.17589 19.6132L9.02051 20.2394C9.0136 20.2693 9.0067 20.2981 9.00094 20.328C8.90772 20.7527 8.85938 21.1878 8.85938 21.6332C8.85938 24.6775 11.1049 27.2948 14.3219 28.4469C15.055 28.7105 15.8377 28.8969 16.6572 28.9948C17.0646 29.0431 17.4801 29.0707 17.9037 29.0742C17.9359 29.0742 17.9693 29.0742 18.0027 29.0742C23.0508 29.0742 27.1437 25.7421 27.1437 21.632C27.1437 21.1866 27.0965 20.7504 27.0032 20.3268C26.9963 20.2969 26.9906 20.2681 26.9837 20.2394L26.8283 19.6121H26.8329Z" fill="url(#paint7_linear_1149_10)"/>
<path d="M20.3998 14.876C19.9838 14.876 19.6758 14.956 19.4758 15.116C19.2758 15.276 19.1438 15.544 19.0798 15.92L18.9958 16.388H20.2198L20.0278 17.504H18.8038L17.8318 23H16.4518L17.4238 17.504H16.6438L16.8358 16.388H17.6158L17.6998 15.92C17.8358 15.16 18.1358 14.608 18.5998 14.264C19.0638 13.912 19.7278 13.736 20.5918 13.736L20.3998 14.876Z" fill="white"/>
<defs>
<linearGradient id="paint0_linear_1149_10" x1="-286.413" y1="-74.9888" x2="65.2322" y2="-197.308" gradientUnits="userSpaceOnUse">
<stop stop-color="#1B1A1D"/>
<stop offset="0.300869" stop-color="#3E3B7A"/>
<stop offset="0.639638" stop-color="#6560C5"/>
<stop offset="1" stop-color="#E07753"/>
</linearGradient>
<linearGradient id="paint1_linear_1149_10" x1="18" y1="0" x2="18" y2="36" gradientUnits="userSpaceOnUse">
<stop stop-color="white" stop-opacity="0.17"/>
<stop offset="1" stop-color="white" stop-opacity="0"/>
</linearGradient>
<linearGradient id="paint2_linear_1149_10" x1="26.3324" y1="34.7983" x2="12.7941" y2="1.70451" gradientUnits="userSpaceOnUse">
<stop/>
<stop offset="1" stop-opacity="0"/>
</linearGradient>
<linearGradient id="paint3_linear_1149_10" x1="18.0001" y1="0.000213623" x2="18.0001" y2="35.9998" gradientUnits="userSpaceOnUse">
<stop stop-color="white" stop-opacity="0.17"/>
<stop offset="1" stop-color="white" stop-opacity="0"/>
</linearGradient>
<linearGradient id="paint4_linear_1149_10" x1="26.3325" y1="34.798" x2="12.7943" y2="1.7047" gradientUnits="userSpaceOnUse">
<stop/>
<stop offset="1" stop-opacity="0"/>
</linearGradient>
<linearGradient id="paint5_linear_1149_10" x1="-18.3962" y1="1.11697" x2="13.9896" y2="-4.42233" gradientUnits="userSpaceOnUse">
<stop stop-color="#1B1A1D"/>
<stop offset="0.300869" stop-color="#3E3B7A"/>
<stop offset="0.639638" stop-color="#6560C5"/>
<stop offset="1" stop-color="#E07753"/>
</linearGradient>
<linearGradient id="paint6_linear_1149_10" x1="2.94416" y1="1.12858" x2="35.2939" y2="-4.40269" gradientUnits="userSpaceOnUse">
<stop stop-color="#1B1A1D"/>
<stop offset="0.300869" stop-color="#3E3B7A"/>
<stop offset="0.639638" stop-color="#6560C5"/>
<stop offset="1" stop-color="#E07753"/>
</linearGradient>
<linearGradient id="paint7_linear_1149_10" x1="-136.609" y1="-39.2018" x2="48.3457" y2="-92.3197" gradientUnits="userSpaceOnUse">
<stop stop-color="#1B1A1D"/>
<stop offset="0.300869" stop-color="#3E3B7A"/>
<stop offset="0.639638" stop-color="#6560C5"/>
<stop offset="1" stop-color="#E07753"/>
</linearGradient>
</defs>
</svg>
