<svg width="1833" height="1838" xmlns="http://www.w3.org/2000/svg" xmlns:xlink="http://www.w3.org/1999/xlink" overflow="hidden"><defs><clipPath id="clip0"><rect x="1173" y="357" width="1833" height="1838"/></clipPath><clipPath id="clip1"><rect x="1177" y="360" width="1830" height="1831"/></clipPath><clipPath id="clip2"><rect x="1177" y="360" width="1830" height="1831"/></clipPath><clipPath id="clip3"><rect x="1177" y="360" width="1830" height="1831"/></clipPath></defs><g clip-path="url(#clip0)" transform="translate(-1173 -357)"><path d="M1176 1276C1176 770.659 1585.66 361 2091 361 2596.34 361 3006 770.659 3006 1276 3006 1781.34 2596.34 2191 2091 2191 1585.66 2191 1176 1781.34 1176 1276Z" fill="#FFFFFF" fill-rule="evenodd" fill-opacity="1"/><g clip-path="url(#clip1)"><g clip-path="url(#clip2)"><g clip-path="url(#clip3)"><path d="M877.92 1355.75C877.92 1347.06 872.89 1344.77 833.567 1336.08L789.214 1326.03 777.782 1337.46 765.894 1348.43 732.057 1330.14C657.068 1289.45 589.395 1222.23 554.644 1154.56 533.611 1113.4 533.154 1112.95 510.291 1106.09 495.659 1101.97 486.971 1096.94 486.971 1092.83 486.971 1088.26 481.484 1085.51 470.968 1084.6 462.28 1083.68 451.306 1079.57 447.191 1075.91 437.131 1066.76 436.674 1063.56 450.849 1125.29L462.28 1176.96 492.916 1210.8C536.354 1259.27 554.187 1280.3 551.901 1280.3 550.986 1280.3 527.667 1270.7 500.232 1259.27 472.797 1247.84 441.704 1235.03 430.73 1230.92 408.782 1222.23 381.804 1190.68 369.001 1157.76 364.886 1147.24 348.882 1112.03 333.793 1080.02 318.703 1047.56 306.358 1017.38 306.358 1012.35 306.358 1001.38 404.209 823.05 414.269 815.734 417.927 812.533 441.704 807.961 466.395 804.76L512.12 799.273 512.12 782.812C512.12 773.667 509.834 738.002 507.09 703.708L502.061 641.522 527.667 599.912C569.734 531.782 620.488 472.339 652.953 451.763 666.671 443.075 669.871 443.075 697.306 448.562 723.37 453.592 727.942 453.592 734.801 447.191 745.775 437.131 780.069 424.328 828.994 411.525 851.4 405.581 870.604 397.808 871.519 394.607 877.92 374.031 876.548 374.945 890.266 381.804 906.27 390.492 918.158 390.492 934.162 381.804 947.879 374.945 946.508 374.031 952.909 394.607 953.824 397.808 979.43 407.41 1010.07 415.64 1040.7 423.871 1073.17 435.759 1082.77 442.161 1099.23 453.592 1100.6 453.592 1128.04 448.105 1154.56 443.075 1157.76 443.533 1171.47 451.763 1203.94 472.339 1254.69 531.782 1296.76 599.912L1322.37 641.522 1317.34 703.708C1314.59 738.002 1312.31 773.667 1312.31 782.812L1312.31 799.273 1358.03 804.76C1382.72 807.961 1406.5 812.533 1410.16 815.734 1420.22 823.05 1518.07 1001.38 1518.07 1012.35 1518.07 1017.38 1505.72 1047.56 1490.64 1080.02 1475.55 1112.03 1459.54 1147.24 1455.43 1157.76 1442.62 1190.68 1415.65 1222.23 1393.7 1230.92 1382.72 1235.03 1351.63 1247.84 1324.2 1259.27 1296.76 1270.7 1273.44 1280.3 1272.53 1280.3 1270.24 1280.3 1288.07 1259.27 1331.51 1210.8L1362.15 1176.96 1373.58 1124.84C1380.44 1096.49 1384.55 1072.25 1383.64 1071.34 1382.72 1070.42 1379.52 1072.71 1376.32 1076.82 1373.12 1080.94 1363.06 1083.68 1353 1083.68 1338.37 1083.68 1335.17 1085.51 1335.17 1092.37 1335.17 1099.23 1329.68 1102.43 1312.76 1107 1292.65 1112.03 1288.99 1114.78 1282.13 1131.24 1248.29 1207.6 1176.5 1283.5 1097.4 1327.4L1067.68 1343.86 1058.08 1334.71 1048.02 1325.11 997.262 1335.63C951.995 1345.23 946.508 1347.06 946.508 1355.75 946.508 1364.89 944.221 1365.81 912.214 1365.81 880.206 1365.81 877.92 1364.89 877.92 1355.75ZM477.826 1039.79C488.343 1032.93 489.258 1029.73 489.258 994.519 489.258 963.426 487.886 956.11 481.484 953.824 471.882 949.708 465.938 956.11 445.819 992.233L428.901 1021.95 443.99 1034.3C461.823 1049.39 463.194 1049.39 477.826 1039.79ZM1380.44 1034.3 1395.53 1021.95 1378.61 992.233C1358.49 956.11 1352.55 949.708 1342.94 953.824 1336.54 956.11 1335.17 963.426 1335.17 994.519 1335.17 1028.36 1336.08 1032.93 1345.69 1039.33 1359.86 1049.39 1363.06 1048.93 1380.44 1034.3ZM735.258 1033.39C778.697 1006.86 778.697 945.593 735.258 919.073 692.734 893.467 635.578 925.931 635.578 976.229 635.578 1026.53 692.734 1058.99 735.258 1033.39ZM1155.93 1036.13C1162.79 1032.47 1173.3 1024.24 1179.71 1017.38 1189.31 1006.86 1191.14 1000.92 1191.14 975.772 1191.14 948.337 1190.22 945.593 1174.22 930.047 1160.04 915.415 1154.1 912.671 1133.07 911.299 1104.72 909.013 1084.6 919.073 1069.97 942.85 1037.04 997.262 1100.14 1065.39 1155.93 1036.13ZM955.653 941.478C992.233 925.017 1012.81 897.582 1018.3 857.344 1026.07 798.816 971.656 736.173 912.214 736.173 852.771 736.173 798.359 798.816 806.132 857.344 813.905 912.214 857.344 951.08 912.214 951.08 925.474 951.08 943.764 946.965 955.653 941.478ZM729.771 736.63C738.916 731.143 747.147 720.169 752.176 706.909 763.15 678.102 758.578 656.611 736.173 634.663 720.626 619.117 716.511 617.288 695.477 617.288 682.217 617.288 665.756 620.488 657.983 624.146 618.659 644.723 615.459 706.909 652.039 735.715 668.5 748.518 709.652 748.976 729.771 736.63ZM1172.39 735.715C1208.97 706.909 1205.77 644.723 1166.44 624.146 1158.67 620.488 1142.21 617.288 1128.95 617.288 1107.92 617.288 1103.8 619.117 1088.26 634.663 1065.85 656.611 1061.28 678.102 1072.25 706.909 1082.77 734.344 1100.6 745.318 1134.44 745.318 1153.64 745.318 1163.24 743.031 1172.39 735.715Z" fill="#000000" fill-rule="nonzero" fill-opacity="1" transform="matrix(1 0 0 -1 1177 2190)"/></g></g></g></g></svg>