<svg width="669" height="670" xmlns="http://www.w3.org/2000/svg" xmlns:xlink="http://www.w3.org/1999/xlink" overflow="hidden"><defs><clipPath id="clip0"><rect x="1865" y="902" width="669" height="670"/></clipPath><clipPath id="clip1"><rect x="1941" y="972" width="455" height="531"/></clipPath><clipPath id="clip2"><rect x="1941" y="972" width="455" height="531"/></clipPath><clipPath id="clip3"><rect x="1941" y="972" width="455" height="531"/></clipPath></defs><g clip-path="url(#clip0)" transform="translate(-1865 -902)"><path d="M1867 1237.5C1867 1053.31 2016.09 904 2200 904 2383.91 904 2533 1053.31 2533 1237.5 2533 1421.69 2383.91 1571 2200 1571 2016.09 1571 1867 1421.69 1867 1237.5Z" fill="#FFFFFF" fill-rule="evenodd" fill-opacity="1"/><g clip-path="url(#clip1)"><g clip-path="url(#clip2)"><g clip-path="url(#clip3)"><path d="M424.808 418.938C424.601 419.079 410.849 430.886 403.991 436.453 282.612 535.036 99.0149 478.941 52.7681 329.174 25.9028 242.19 56.5971 146.369 129.514 89.6021 201.207 33.7807 303.699 27.9812 380.399 75.7089 388.264 80.6041 386.667 79.3596 392.43 84.5202 376.674 101.425 361.213 118.222 347.1 133.364 310.913 112.53 299.6 111.477 273.187 110.124 157.292 104.176 73.5642 227.538 128.058 336.455 158.537 397.379 229.077 431.694 298.571 416.49 365.332 401.892 413.101 345.361 419.05 276.074L419.071 276.083 419.282 242.895C419.282 242.895 291.66 242.526 257.614 242.854L257.614 287.437C265.421 287.416 344.001 287.221 370.405 287.221 370.854 295.481 367.543 309.876 355.932 327.573 321.96 379.341 250.877 390.592 199.946 353.907 149.692 317.729 138.96 248.89 175.823 199.241 212.109 150.372 282.641 140.462 331.277 177.346 336.293 181.15 341.358 184.887 347.465 189.38L451.528 79.5172C445.675 72.5395 445.007 71.295 439.95 66.7857 349.016-14.3328 215.486-22.3144 115.177 47.0018 14.4863 116.579-26.1642 246.687 17.2575 360.379 82.2593 530.543 297.235 586.016 436.088 468.375 442.796 462.696 449.388 456.585 454.768 449.686 454.876 449.537 454.946 449.392 455.058 449.246Z" fill="#046CFC" fill-rule="evenodd" fill-opacity="1" transform="matrix(1.00102 0 0 1 1941 972)"/></g></g></g></g></svg>