<?xml version="1.0" encoding="UTF-8" standalone="yes"?><svg xmlns="http://www.w3.org/2000/svg" xmlns:xlink="http://www.w3.org/1999/xlink" width="428px" height="500px" viewBox="0 0 428 500" version="1.1"><g id='iconGroup'>
<g id="surface1">
<path style=" stroke:none;fill-rule:evenodd;fill:rgb(1.568627%,42.352941%,98.823529%);fill-opacity:1;" d="M 400.007812 394.480469 C 399.8125 394.613281 386.863281 405.730469 380.40625 410.972656 C 266.113281 503.800781 93.234375 450.980469 49.6875 309.957031 C 24.390625 228.050781 53.292969 137.824219 121.953125 84.371094 C 189.460938 31.808594 285.96875 26.347656 358.191406 71.289062 C 365.597656 75.898438 364.09375 74.726562 369.519531 79.585938 C 354.683594 95.503906 340.125 111.320312 326.835938 125.578125 C 292.761719 105.960938 282.109375 104.96875 257.238281 103.695312 C 148.109375 98.09375 69.269531 214.253906 120.582031 316.8125 C 149.28125 374.179688 215.703125 406.492188 281.140625 392.175781 C 344.003906 378.429688 388.984375 325.199219 394.585938 259.957031 L 394.605469 259.964844 L 394.804688 228.714844 C 394.804688 228.714844 274.632812 228.367188 242.574219 228.675781 L 242.574219 270.65625 C 249.925781 270.636719 323.917969 270.453125 348.78125 270.453125 C 349.203125 278.230469 346.085938 291.785156 335.152344 308.449219 C 303.164062 357.195312 236.230469 367.789062 188.273438 333.246094 C 140.953125 299.179688 130.847656 234.359375 165.558594 187.609375 C 199.726562 141.59375 266.140625 132.261719 311.9375 166.992188 C 316.660156 170.574219 321.429688 174.09375 327.179688 178.324219 L 425.167969 74.875 C 419.65625 68.304688 419.027344 67.132812 414.265625 62.886719 C 328.640625 -13.496094 202.90625 -21.011719 108.453125 44.257812 C 13.640625 109.773438 -24.636719 232.285156 16.25 339.339844 C 77.457031 499.570312 279.882812 551.804688 410.628906 441.03125 C 416.945312 435.683594 423.152344 429.929688 428.21875 423.433594 C 428.320312 423.292969 428.386719 423.15625 428.492188 423.019531 Z M 400.007812 394.480469 "/>
</g>
</g></svg>