<?xml version="1.0" encoding="utf-8"?>
<!-- Generator: Adobe Illustrator 25.2.3, SVG Export Plug-In . SVG Version: 6.00 Build 0)  -->
<svg version="1.1" id="Layer_1" xmlns="http://www.w3.org/2000/svg" xmlns:xlink="http://www.w3.org/1999/xlink" x="0px" y="0px"
	 viewBox="0 0 500 500" style="enable-background:new 0 0 500 500;" xml:space="preserve">
<style type="text/css">
	.st0{fill:#696360;}
	.st1{fill:url(#SVGID_1_);}
	.st2{fill:#696665;}
	.st3{fill:url(#SVGID_2_);}
	.st4{fill:url(#SVGID_3_);}
	.st5{fill:url(#SVGID_4_);}
	.st6{fill:#25736B;}
	.st7{fill:#66E5D9;}
	.st8{fill:#575757;}
	.st9{fill:url(#SVGID_5_);}
	.st10{fill:#10877B;}
	.st11{fill:url(#SVGID_6_);}
	.st12{fill:url(#SVGID_7_);}
	.st13{fill:url(#SVGID_8_);}
	.st14{fill:url(#SVGID_9_);}
	.st15{fill:url(#SVGID_10_);}
	.st16{fill:url(#SVGID_11_);}
	.st17{fill:url(#SVGID_12_);}
	.st18{fill:#6D6D6C;}
	.st19{fill:url(#SVGID_13_);}
	.st20{fill:url(#SVGID_14_);}
	.st21{fill:url(#SVGID_15_);}
	.st22{fill:url(#SVGID_16_);}
	.st23{fill:url(#SVGID_17_);}
	.st24{fill:url(#SVGID_18_);}
	.st25{fill:#E0E3E3;}
	.st26{fill:#D2D6D6;}
	.st27{fill:url(#SVGID_19_);}
	.st28{fill:#5E5E5E;}
	.st29{fill:url(#SVGID_20_);}
	.st30{fill:url(#SVGID_21_);}
	.st31{fill:#00C4BA;}
	.st32{fill:url(#SVGID_22_);}
</style>
<path class="st0" d="M371.3,281.3c0,0-5.6,24.1-7.9,27.1c-0.4-1.6-6.5-23-6.5-23l4.1-16.8L371.3,281.3z"/>
<linearGradient id="SVGID_1_" gradientUnits="userSpaceOnUse" x1="341.5607" y1="198.3192" x2="340.7781" y2="242.5366">
	<stop  offset="0" style="stop-color:#7A7A7A"/>
	<stop  offset="0.2535" style="stop-color:#979797"/>
	<stop  offset="1" style="stop-color:#EBEBEB"/>
</linearGradient>
<path class="st1" d="M330.6,218.1l6,1.3l32.7,32.3l-10,3l-38.3-7.2l-8.6-19.4L330.6,218.1z"/>
<path class="st2" d="M188.2,336.2c-5.5-0.3-36.5,0.8-44.6,0.5c-2.9-6.6-3.3-8.6-5.5-14.6c-3.1-14.8-6.5-28.5-9.8-43.3
	c-1.2-5.4-4.2-24.6-5-30.1c10.1-0.7,29-0.1,40.4,1.3c21.3,6.3,67.1,24,72.9,29.1C232.5,284.8,193.1,329.8,188.2,336.2z"/>
<linearGradient id="SVGID_2_" gradientUnits="userSpaceOnUse" x1="313.1739" y1="260.0714" x2="371.3054" y2="260.0714">
	<stop  offset="0" style="stop-color:#5C5C5C"/>
	<stop  offset="1" style="stop-color:#6D7A7A"/>
</linearGradient>
<path class="st3" d="M327.2,238.9l18.4,4.6l23.7,8.1l2,29.6h-15.2l-23.9-15.2L320,254.6l-6.8-10.8L327.2,238.9z"/>
<linearGradient id="SVGID_3_" gradientUnits="userSpaceOnUse" x1="284.2831" y1="314.0802" x2="363.7802" y2="353.0881">
	<stop  offset="0" style="stop-color:#474747"/>
	<stop  offset="1" style="stop-color:#787878"/>
</linearGradient>
<path class="st4" d="M252.6,353.4l41.5,44.9l52.8-43.4l17.1-47.6l-9.4-37.9l-66.6-5.8L252.6,353.4z"/>
<linearGradient id="SVGID_4_" gradientUnits="userSpaceOnUse" x1="257.0909" y1="260.6612" x2="337.6996" y2="225.4438">
	<stop  offset="0" style="stop-color:#5C5C5C"/>
	<stop  offset="0.1053" style="stop-color:#636363"/>
	<stop  offset="0.2583" style="stop-color:#767676"/>
	<stop  offset="0.2821" style="stop-color:#7A7A7A"/>
	<stop  offset="0.4553" style="stop-color:#858585"/>
	<stop  offset="0.6648" style="stop-color:#BABABA"/>
	<stop  offset="0.721" style="stop-color:#C9C9C9"/>
	<stop  offset="0.7841" style="stop-color:#B5B5B5"/>
	<stop  offset="0.9122" style="stop-color:#828282"/>
	<stop  offset="0.9134" style="stop-color:#828282"/>
</linearGradient>
<path class="st5" d="M358,267.3l13.3,14l-12.4,5.3L332.5,275l-42.2,15.3l-63.4-19.4l-3.8-9.5l30.7-69.7l52.1,26.7L317,228l10.1,10.8
	L358,267.3z"/>
<path class="st6" d="M217.1,144.5c-0.8,2.3-2.4,4.1-3.8,6c-1.9,2.7-4,5.3-6.2,7.9C210.2,153.6,213.2,148.7,217.1,144.5L217.1,144.5z
	"/>
<path class="st6" d="M214.9,141.6c0.2-0.6,0.6-1.1,1.2-1.5C216,141,215.5,141.4,214.9,141.6C214.9,141.6,214.9,141.6,214.9,141.6z"
	/>
<path class="st7" d="M229.9,202.3c-4.6,2.6-8.5,5.4-11.5,9.2c-2.9,3.6-4.9,7.6-5.2,12.3c-0.1,1.4-0.6,1.7-1.9,1.6
	c-4.1-0.3-8.2-0.8-12.2,0.8c-0.8,0.3-1.5,0-2.2-0.3c-4.8-2-9.8-2.2-14.9-1.4c-0.2,0-0.4,0-0.6,0.1c-0.9,0.2-1.5,0-1.7-1
	c-0.3-1.1,0.7-1.1,1.3-1.2c4.1-0.8,8-2.1,11.6-4.1c7.4-3.9,14.4-8.3,19-15.6c1.2-1.9,2.4-3.8,3.3-5.9c0.3-0.7,0.7-1.3,1.5-0.7
	C220.1,199.1,224.8,200.5,229.9,202.3z"/>
<path class="st8" d="M208.1,274l-14.3,2.8l-15.8,5.5l-29.2,45.9l-1.6,17.1l5.5,13.6l57.2,7.4l47.3,1.4l35.1-4.9l-5.4-38.8l3.3-33.8
	c0,0-36.5-20.9-42.1-23.4c-8.1-0.6-22.6-1-27-1.1L208.1,274z"/>
<linearGradient id="SVGID_5_" gradientUnits="userSpaceOnUse" x1="223.7352" y1="353.5005" x2="222.9526" y2="420.4135">
	<stop  offset="0" style="stop-color:#454545"/>
	<stop  offset="0.5724" style="stop-color:#666666"/>
	<stop  offset="1" style="stop-color:#7A7A7A"/>
</linearGradient>
<path class="st9" d="M152.7,359.1l65.3-5.8l74.2,9.6l1.8,35.3l-71.9,3.6C222.2,401.8,177.5,381.1,152.7,359.1z"/>
<path class="st10" d="M332.9,329.2l6.4-24.4l11.2-9.3l4.4-10.8l-8.3-16.7l6.9,5.6l8.1,11.8l-1.2,7.1l-4.7,9.3l-7.6,5l-8.6,17.7
	L332.9,329.2z"/>
<linearGradient id="SVGID_6_" gradientUnits="userSpaceOnUse" x1="215.3562" y1="129.0362" x2="206.3171" y2="275.0516">
	<stop  offset="0" style="stop-color:#6B6B6B"/>
	<stop  offset="0.23" style="stop-color:#6E6E6E"/>
	<stop  offset="0.4133" style="stop-color:#787878"/>
	<stop  offset="0.5805" style="stop-color:#898989"/>
	<stop  offset="0.7382" style="stop-color:#A1A1A1"/>
	<stop  offset="0.8877" style="stop-color:#BFBFBF"/>
	<stop  offset="1" style="stop-color:#DBDBDB"/>
</linearGradient>
<path class="st11" d="M230.1,107.5l23,4.3l9.3,61.7l-7.7,26.8c0,0-9.6,35.3-19.7,53.2c-2.6,4.7-5.4,9.4-7.9,14.2
	c-1.1,2.1-2.4,3.2-4.8,2.9c-5.3-1-10.8-1-16.1-1.6c-2.5-0.3-9.1-0.7-11.6-1c-7.8-0.9-10.5-0.3-10.5-0.3l-15.6-0.4l-10.8-8.6
	c0,0,21.3-87.4,22.2-88.8C181.4,167,230.1,107.5,230.1,107.5z"/>
<linearGradient id="SVGID_7_" gradientUnits="userSpaceOnUse" x1="186.4157" y1="154.9768" x2="230.9188" y2="89.4774">
	<stop  offset="0" style="stop-color:#8A8A8A"/>
	<stop  offset="0.5223" style="stop-color:#6B6B6B"/>
	<stop  offset="0.7826" style="stop-color:#6E6E6E"/>
	<stop  offset="0.9598" style="stop-color:#777777"/>
	<stop  offset="1" style="stop-color:#7A7A7A"/>
</linearGradient>
<path class="st12" d="M207.2,168.7l16.5-41.2c0,0,9.1-4.7,15-10.2c8.1-7.6,18.3-18.4,18.3-28.8c-2.7-0.6-21.2-4.2-26.3-4.5
	c-20.1,18.5-39.4,31.8-64.7,56.9c-0.5,0.7-5.8,14.5-5.8,14.5l28.5,15.6L207.2,168.7z"/>
<g>
	<linearGradient id="SVGID_8_" gradientUnits="userSpaceOnUse" x1="167.2143" y1="164.7596" x2="164.4546" y2="253.3445">
		<stop  offset="0" style="stop-color:#8A8A8A"/>
		<stop  offset="1" style="stop-color:#C1C1C1"/>
	</linearGradient>
	<polygon class="st13" points="168.4,267.3 187.8,189.1 207.2,168.7 208.4,165.7 186.7,155.4 160,155.4 123.4,248.7 	"/>
</g>
<linearGradient id="SVGID_9_" gradientUnits="userSpaceOnUse" x1="249.6371" y1="204.3559" x2="327.1699" y2="204.3559">
	<stop  offset="0" style="stop-color:#474747"/>
	<stop  offset="1" style="stop-color:#787878"/>
</linearGradient>
<polygon class="st14" points="325.4,214.7 313.8,187.7 295.9,169.8 249.6,181.1 254.7,200.3 292.5,224.3 327.2,238.9 "/>
<linearGradient id="SVGID_10_" gradientUnits="userSpaceOnUse" x1="301.0934" y1="160.8927" x2="276.1008" y2="99.3605">
	<stop  offset="0" style="stop-color:#8A8A8A"/>
	<stop  offset="0.1073" style="stop-color:#949494"/>
	<stop  offset="1" style="stop-color:#E8E8E8"/>
</linearGradient>
<path class="st15" d="M317.7,145.6c2.7,5.4,8.4,17.7,10.9,22.9c-2.8,6-29,12.6-29,12.6l-2.2-6.5l-15.9-1.5c0,0-25.5-68.2-23-84.4
	c10.1,2.6,15.4,3.9,25,6.2C285.8,97.9,315.5,142.5,317.7,145.6z"/>
<linearGradient id="SVGID_11_" gradientUnits="userSpaceOnUse" x1="321.9009" y1="222.0116" x2="318.3087" y2="183.1327">
	<stop  offset="0" style="stop-color:#616161"/>
	<stop  offset="0.2979" style="stop-color:#666666"/>
	<stop  offset="0.6484" style="stop-color:#747474"/>
	<stop  offset="1" style="stop-color:#8A8A8A"/>
</linearGradient>
<path class="st16" d="M313.2,219.2l13.9,19.6l15.1-13.9c0,0-12.4-52.3-13.6-56.5c-10,4.3-24.8,3.5-31.2,6.1
	C297.5,174.7,313.2,219.2,313.2,219.2z"/>
<linearGradient id="SVGID_12_" gradientUnits="userSpaceOnUse" x1="233.8206" y1="94.35" x2="256.4727" y2="94.35">
	<stop  offset="0" style="stop-color:#777777"/>
	<stop  offset="1" style="stop-color:#3A9E9E"/>
</linearGradient>
<path class="st17" d="M250.8,95.6l-9.2,3.6l-7.8,0.5l12.3-5.5l0.2-1.8l5.1-1.6l5-2L250.8,95.6z"/>
<path class="st18" d="M361.6,297.3"/>
<linearGradient id="SVGID_13_" gradientUnits="userSpaceOnUse" x1="147.246" y1="318.1507" x2="147.246" y2="343.5855">
	<stop  offset="0" style="stop-color:#1B7A74"/>
	<stop  offset="1" style="stop-color:#379696"/>
</linearGradient>
<path class="st19" d="M138,321.5c5.1,7.4,9.9,3.6,18.5-5.3c-5.1,9.7-9,16.8-8.6,31.1C144.4,337.1,139.9,330.5,138,321.5z"/>
<linearGradient id="SVGID_14_" gradientUnits="userSpaceOnUse" x1="244.051" y1="314.1318" x2="262.6509" y2="288.4892" gradientTransform="matrix(1.0391 1.565361e-02 1.565361e-02 1.2969 -12.4337 -82.4212)">
	<stop  offset="0.1051" style="stop-color:#525252"/>
	<stop  offset="0.1801" style="stop-color:#4D5554"/>
	<stop  offset="0.2739" style="stop-color:#3D5E5B"/>
	<stop  offset="0.3773" style="stop-color:#246C67"/>
	<stop  offset="0.4693" style="stop-color:#077D74"/>
	<stop  offset="0.5571" style="stop-color:#216E68"/>
	<stop  offset="0.6691" style="stop-color:#3C5F5C"/>
	<stop  offset="0.7687" style="stop-color:#4C5555"/>
	<stop  offset="0.8452" style="stop-color:#525252"/>
</linearGradient>
<path class="st20" d="M292.3,362.9l-40.2-31.6l-41.2-55.9l12.1-9.6l34.8,37.1l31.5,37.7L292.3,362.9z"/>
<linearGradient id="SVGID_15_" gradientUnits="userSpaceOnUse" x1="229.8736" y1="101.8681" x2="225.0476" y2="90.5203">
	<stop  offset="0" style="stop-color:#777777"/>
	<stop  offset="0.5638" style="stop-color:#4DADA4"/>
	<stop  offset="1" style="stop-color:#7A7A7A"/>
</linearGradient>
<path class="st21" d="M227.1,97.7l-22.8,11.6l8.1-8l6.8-6.5l13.6-5.1l13.3-3.1l6.3,1.2l-12.7,5.8L227.1,97.7z"/>
<linearGradient id="SVGID_16_" gradientUnits="userSpaceOnUse" x1="289.5001" y1="199.4714" x2="302.4884" y2="199.4714">
	<stop  offset="0" style="stop-color:#777777"/>
	<stop  offset="0.5638" style="stop-color:#48A198"/>
	<stop  offset="1" style="stop-color:#7A7A7A"/>
</linearGradient>
<path class="st22" d="M302.5,189.1l-0.6,6.2l-4.3,14.8l-5.2,14.3l-3-1.9l2.3-13.7l3-13.8l2.6-20.3l2.2,6.5L302.5,189.1z"/>
<linearGradient id="SVGID_17_" gradientUnits="userSpaceOnUse" x1="322.1087" y1="196.8038" x2="336" y2="196.8038">
	<stop  offset="0" style="stop-color:#777777"/>
	<stop  offset="0.5638" style="stop-color:#4DADA4"/>
	<stop  offset="1" style="stop-color:#7A7A7A"/>
</linearGradient>
<path class="st23" d="M333,197.9c0,0,1.3,2.7,3,5c0,6.6-0.1,16.6-0.1,16.6l-7.3-9.3l-6.5-4.7l5.9-11.1l2.1-20.2l3.9,16.1L333,197.9z
	"/>
<linearGradient id="SVGID_18_" gradientUnits="userSpaceOnUse" x1="325.9962" y1="250.4917" x2="331.7192" y2="250.4917" gradientTransform="matrix(0.87 -1.4548 1.1808 0.7061 -265.3953 539.3018)">
	<stop  offset="0" style="stop-color:#4DADA4"/>
	<stop  offset="1" style="stop-color:#777777"/>
</linearGradient>
<path class="st24" d="M312.4,230.2l10.5,5.8l4.3,2.9l7.4,6.8l3.9,3.6l-15.7-3.8l-14-6.6l-10.6-10.4l-3.3-3.1L312.4,230.2z"/>
<path class="st25" d="M283.6,94.9l-1.8,3.4l-8.8,2l-15.2-1.8l0.8-9.8L283.6,94.9z"/>
<path class="st26" d="M277.4,115.8l-12.2-7l-8-19.3l1.4-0.7l14.9,11.6L277.4,115.8z"/>
<linearGradient id="SVGID_19_" gradientUnits="userSpaceOnUse" x1="268.5139" y1="131.5782" x2="290.2852" y2="131.5782">
	<stop  offset="0" style="stop-color:#079188"/>
	<stop  offset="0.2535" style="stop-color:#248A84"/>
	<stop  offset="1" style="stop-color:#787878"/>
</linearGradient>
<path class="st27" d="M290.3,153.9l-6.2-8.8l-3.5-12.7l-10.7-13.2l-1.3-10l8.9,6.5l12.3,32.8L290.3,153.9z"/>
<polygon class="st28" points="254.7,200.3 297.5,174.6 281.9,130.4 276.1,125 258.6,88.7 257,88.4 223.6,127.5 244.9,163 "/>
<linearGradient id="SVGID_20_" gradientUnits="userSpaceOnUse" x1="220.3881" y1="281.8823" x2="212.2578" y2="255.5943">
	<stop  offset="0" style="stop-color:#50D9D9"/>
	<stop  offset="0.8133" style="stop-color:#077D74"/>
</linearGradient>
<path class="st29" d="M182.9,267.7l8.6,4.5l2.4,4.7l6.8,0.6l8.6,0.8l7.6,5.4c0,0,3.1-6.2,6.6-9.4c3.5-3.3,16.6-8.3,16.6-8.3
	s-3-3.9-1.6-9.9s2.5-14.8,2.5-14.8s-8.7,6.7-15.7,7.7c-7,1-14.5-2.5-14.5-2.5s-4.5,10.1-10.7,14.8
	C193.8,265.8,182.9,267.7,182.9,267.7z"/>
<linearGradient id="SVGID_21_" gradientUnits="userSpaceOnUse" x1="205.0321" y1="274.401" x2="228.8088" y2="243.5502">
	<stop  offset="0" style="stop-color:#5EFEFE"/>
	<stop  offset="0.1586" style="stop-color:#5DFBFB"/>
	<stop  offset="0.2727" style="stop-color:#58F2F2"/>
	<stop  offset="0.3728" style="stop-color:#50E3E2"/>
	<stop  offset="0.4649" style="stop-color:#45CDCC"/>
	<stop  offset="0.5514" style="stop-color:#36B1AF"/>
	<stop  offset="0.6329" style="stop-color:#258F8C"/>
	<stop  offset="0.6397" style="stop-color:#238C89"/>
	<stop  offset="0.6724" style="stop-color:#1D8E89"/>
	<stop  offset="0.757" style="stop-color:#13918A"/>
	<stop  offset="0.8187" style="stop-color:#11B0A6"/>
	<stop  offset="0.8927" style="stop-color:#0ECFC1"/>
	<stop  offset="0.9557" style="stop-color:#0DE1D2"/>
	<stop  offset="1" style="stop-color:#0CE8D8"/>
</linearGradient>
<path class="st30" d="M222.2,270.6c-10.5-3-19.9-2.6-28.9-3.3c3.4-1,7.8-1.8,12.3-6.3c3.6-3.6,6.1-8.2,7.5-9.9
	c3.4,0.4,6.5,1.8,11.7,1.9c6,0.1,11.4-3.8,13-5.1c-2.3,6-5.3,8.9-8.5,17.4C227.2,266.5,223.1,269.7,222.2,270.6z"/>
<path class="st31" d="M352.1,279.2l-5.5-11.1l6.9,5.6l3.7,5.4l4.4,6.4L352.1,279.2z"/>
<linearGradient id="SVGID_22_" gradientUnits="userSpaceOnUse" x1="295.6497" y1="363.8405" x2="314.0992" y2="338.4052" gradientTransform="matrix(9.732457e-02 0.9953 -0.9953 9.732457e-02 632.6484 25.7619)">
	<stop  offset="0.1051" style="stop-color:#595959"/>
	<stop  offset="0.1762" style="stop-color:#545B5B"/>
	<stop  offset="0.2651" style="stop-color:#446260"/>
	<stop  offset="0.3635" style="stop-color:#2B6D68"/>
	<stop  offset="0.4682" style="stop-color:#077D74"/>
	<stop  offset="0.4693" style="stop-color:#077D74"/>
	<stop  offset="0.5065" style="stop-color:#177B73"/>
	<stop  offset="0.6066" style="stop-color:#3C7570"/>
	<stop  offset="0.6996" style="stop-color:#57706F"/>
	<stop  offset="0.782" style="stop-color:#676E6D"/>
	<stop  offset="0.8452" style="stop-color:#6D6D6D"/>
</linearGradient>
<path class="st32" d="M292.8,372.9l7.1-14.9l15.2-19.7l17.7-9.1L320,372l-25.9,26.2L292.8,372.9z"/>
</svg>
