<svg width="512" height="512" viewBox="0 0 512 512" fill="none" xmlns="http://www.w3.org/2000/svg">
<path d="M512 256C512 397.349 397.349 512 256 512C248.686 512 241.371 511.634 234.057 511.086C102.949 499.931 0 390.034 0 256C0 114.651 114.651 0 256 0C287.086 0 316.709 5.48571 344.32 15.5429C442.149 51.5657 512 145.554 512 256Z" fill="#333333"/>
<path d="M391.862 149.51L371.199 150.424L369.736 109.647C369.553 105.442 372.844 101.967 377.05 101.784L382.353 101.602C386.559 101.419 390.033 104.71 390.216 108.916L391.862 149.51Z" fill="url(#paint0_linear)"/>
<path d="M410.698 166.149C412.526 185.531 411.612 205.463 407.772 225.577C385.829 338.583 276.481 412.457 163.475 390.514C143.361 386.674 124.526 379.909 107.155 370.949C105.875 370.217 94.5377 363.086 87.5891 352.846C84.1148 347.726 81.5548 341.874 81.9205 335.657C81.9205 335.657 81.9205 335.657 81.9205 335.474C81.9205 334.743 82.1034 334.011 82.2863 333.463C82.4691 332.731 82.652 332.183 83.0177 331.634C85.5777 326.88 91.9777 323.954 100.206 322.126C118.126 318.103 144.275 319.383 155.246 318.834H155.429C158.172 318.834 160.732 318.651 163.475 318.469C163.658 318.469 163.841 318.469 163.841 318.469C166.766 318.286 169.692 318.103 172.618 317.737C173.532 317.737 174.446 317.554 175.178 317.554C175.909 317.371 176.641 317.371 177.555 317.189C178.286 317.189 179.018 317.006 179.749 316.823C180.846 316.64 181.761 316.64 182.858 316.457C184.869 316.091 186.881 315.909 188.709 315.543C189.806 315.36 190.903 315.177 192.183 314.811C195.292 314.263 198.401 313.531 201.326 312.8C202.241 312.617 203.155 312.434 204.252 312.069C205.166 311.886 206.081 311.52 207.178 311.337C209.921 310.606 212.846 309.691 215.589 308.777C215.772 308.777 215.955 308.594 216.138 308.594L216.869 308.411C220.892 307.131 224.915 305.669 228.938 304.023C232.595 302.56 236.435 300.914 240.092 299.269C240.641 299.086 241.006 298.903 241.555 298.537L242.103 298.354C244.481 297.257 246.858 295.977 249.235 294.697C249.418 294.514 249.783 294.514 249.966 294.331C250.332 294.149 250.515 293.966 250.881 293.783C257.646 290.126 264.046 286.286 270.446 281.897C271.726 281.166 272.823 280.251 274.103 279.337C275.201 278.606 276.298 277.691 277.578 276.777C277.761 276.594 277.943 276.411 278.126 276.411C278.675 275.863 279.406 275.497 279.955 274.949C281.783 273.486 283.612 272.023 285.441 270.56C286.355 269.829 287.269 269.097 288.183 268.366C289.463 267.269 290.926 265.989 292.206 264.709C292.755 264.16 293.303 263.794 293.669 263.246C295.498 261.6 297.326 259.954 298.972 258.126C306.652 250.446 313.966 242.217 320.366 233.257C320.549 233.074 320.549 232.891 320.732 232.709C323.292 229.417 325.669 225.943 327.863 222.286C328.961 220.64 330.058 218.994 330.972 217.349C331.703 216.069 332.618 214.606 333.349 213.326C333.532 213.143 333.715 212.777 333.715 212.594C335.361 209.669 337.006 206.56 338.469 203.451C346.881 186.811 353.098 168.709 356.755 149.691C357.121 147.68 357.486 145.669 357.852 143.657C357.852 143.657 358.035 143.109 358.401 142.194C358.583 141.829 358.583 141.646 358.766 141.28C358.766 141.097 358.949 140.914 358.949 140.731C358.949 140.549 359.132 140.366 359.132 140.183C360.778 136.709 364.069 131.954 369.921 128.846C374.126 126.651 379.612 125.371 386.743 126.469C393.509 127.566 398.446 131.954 402.103 137.623C407.589 146.4 409.783 158.651 410.698 166.149Z" fill="url(#paint1_linear)"/>
<path d="M386.743 126.286C386.743 126.469 386.743 126.469 386.743 126.651C388.937 145.12 388.754 164.137 385.646 183.337C385.28 185.897 384.731 188.457 384.366 191.017C362.423 304.023 253.074 377.897 140.068 355.954C123.246 352.663 107.52 347.543 92.5256 340.777C90.3313 339.68 88.1371 338.766 85.9428 337.669C84.6628 336.937 83.1999 336.206 81.9199 335.657C81.9199 334.926 82.1028 334.194 82.2856 333.646C82.4685 332.914 82.6514 332.366 83.0171 331.817C85.5771 327.063 91.9771 324.137 100.206 322.309C118.126 318.286 144.274 319.566 155.246 319.017H155.428C158.171 319.017 160.731 318.834 163.474 318.651C163.657 318.651 163.84 318.651 163.84 318.651C166.766 318.469 169.691 318.286 172.617 317.92C172.8 317.92 173.166 317.92 173.349 317.92C173.897 317.92 174.629 317.737 175.177 317.737C175.909 317.554 176.64 317.554 177.554 317.371C178.468 317.189 179.017 317.189 179.749 317.006C180.846 316.823 181.76 316.823 182.857 316.64C184.868 316.274 186.88 315.909 188.708 315.726C189.806 315.543 190.903 315.36 192.183 314.994C194.194 314.629 196.023 314.263 197.851 313.714C198.948 313.531 200.046 313.166 201.326 312.983C202.24 312.8 203.154 312.434 204.251 312.251C205.166 312.069 206.08 311.703 207.177 311.52C209.92 310.789 212.846 309.874 215.589 308.96C215.771 308.96 215.954 308.777 216.137 308.777L216.868 308.594C217.6 308.411 218.331 308.046 219.063 307.863C222.354 306.766 225.646 305.486 228.937 304.206C232.228 302.926 235.337 301.463 238.628 300C239.177 299.817 239.543 299.634 240.091 299.269C240.64 299.086 241.006 298.903 241.554 298.537L242.103 298.354C243.566 297.623 245.028 296.891 246.491 296.16C247.406 295.611 248.32 295.246 249.234 294.88C249.417 294.697 249.783 294.697 249.966 294.514C250.331 294.331 250.514 294.149 250.88 293.966C252.16 293.234 253.44 292.503 254.72 291.771C255.634 291.223 256.548 290.674 257.463 290.126C257.828 289.943 258.377 289.577 258.743 289.394C260.023 288.663 261.303 287.749 262.583 287.017C263.863 286.286 264.96 285.554 266.057 284.64C267.52 283.726 268.8 282.811 270.263 281.897C271.543 280.983 272.64 280.251 273.92 279.337C275.017 278.423 276.114 277.691 277.394 276.777C277.577 276.594 277.76 276.411 277.943 276.411C278.491 275.863 279.223 275.497 279.771 274.949C281.6 273.486 283.428 272.023 285.257 270.56C286.171 269.829 287.086 269.097 288 268.366C289.28 267.269 290.743 265.989 292.023 264.709C292.571 264.16 293.12 263.794 293.486 263.246C294.034 262.697 294.583 262.331 294.948 261.783C296.228 260.503 297.508 259.406 298.788 258.126C299.886 257.029 300.8 256.114 301.897 255.017C303.177 253.737 304.274 252.64 305.371 251.36C305.92 250.811 306.468 250.08 307.2 249.349C307.566 248.8 308.114 248.251 308.48 247.886C309.577 246.789 310.491 245.509 311.588 244.411C312.686 243.131 313.6 242.034 314.697 240.754C315.429 239.84 316.343 238.743 317.074 237.829C318.171 236.366 319.268 234.903 320.366 233.44C320.548 233.257 320.548 233.074 320.731 232.891C321.828 231.429 322.743 230.149 323.657 228.686C324.206 227.771 324.937 226.857 325.486 225.943C326.217 224.846 326.948 223.566 327.863 222.469C328.594 221.371 329.143 220.457 329.874 219.36C330.24 218.811 330.606 218.08 330.971 217.531C331.703 216.251 332.617 214.789 333.348 213.509C333.531 213.326 333.714 212.96 333.714 212.777C334.263 211.68 334.994 210.583 335.543 209.303C336.091 208.389 336.457 207.474 337.006 206.56C337.554 205.646 337.92 204.731 338.469 203.634C339.2 202.354 339.748 200.891 340.48 199.429C340.846 198.697 341.211 197.966 341.577 197.234C342.491 195.406 343.223 193.577 343.954 191.749C344.503 190.469 345.051 189.371 345.417 188.091C346.148 186.263 346.88 184.434 347.611 182.606C347.977 181.326 348.526 180.046 348.891 178.766C349.623 176.937 350.171 174.926 350.72 172.914C351.086 171.634 351.451 170.537 351.817 169.257C352.548 167.063 353.097 164.869 353.646 162.857C353.828 161.943 354.011 161.211 354.377 160.297C354.377 159.931 354.56 159.566 354.56 159.383C355.291 156.274 356.023 152.983 356.754 149.874C357.12 147.863 357.486 145.851 357.851 143.84C357.851 143.84 358.034 143.291 358.4 142.377C358.583 142.011 358.583 141.829 358.766 141.463C358.766 141.28 358.948 141.097 358.948 140.914C358.948 140.731 359.131 140.549 359.131 140.366C360.777 136.891 364.068 132.137 369.92 129.029C374.126 126.469 379.611 125.189 386.743 126.286Z" fill="url(#paint2_linear)"/>
<path d="M100.389 321.76C90.8805 329.988 86.1262 340.046 87.5891 352.663C84.1148 347.543 81.5548 341.691 81.9205 335.474C81.9205 335.474 81.9205 335.474 81.9205 335.291C81.9205 334.56 82.1034 333.828 82.2863 333.28C82.4691 332.548 82.652 332 83.0177 331.451C85.7605 326.514 92.3434 323.588 100.389 321.76Z" fill="url(#paint3_linear)"/>
<defs>
<linearGradient id="paint0_linear" x1="342.887" y1="84.6284" x2="387.088" y2="135.574" gradientUnits="userSpaceOnUse">
<stop stop-color="#FFE988"/>
<stop offset="0.25" stop-color="#BA801E"/>
<stop offset="0.5" stop-color="#FBEC83"/>
<stop offset="0.75" stop-color="#BA801F"/>
<stop offset="1" stop-color="#FFE97F"/>
</linearGradient>
<linearGradient id="paint1_linear" x1="76.6547" y1="243.876" x2="641.836" y2="286.968" gradientUnits="userSpaceOnUse">
<stop stop-color="#FFE988"/>
<stop offset="0.25" stop-color="#BA801E"/>
<stop offset="0.5" stop-color="#FBEC83"/>
<stop offset="0.75" stop-color="#BA801F"/>
<stop offset="1" stop-color="#FFE97F"/>
</linearGradient>
<linearGradient id="paint2_linear" x1="61.059" y1="268.096" x2="443.854" y2="225.026" gradientUnits="userSpaceOnUse">
<stop stop-color="#FFE988"/>
<stop offset="0.25" stop-color="#BA801E"/>
<stop offset="0.5" stop-color="#FBEC83"/>
<stop offset="0.75" stop-color="#BA801F"/>
<stop offset="1" stop-color="#FFE97F"/>
</linearGradient>
<linearGradient id="paint3_linear" x1="69.7609" y1="312.072" x2="95.5201" y2="338.785" gradientUnits="userSpaceOnUse">
<stop stop-color="#FFE988"/>
<stop offset="0.25" stop-color="#BA801E"/>
<stop offset="0.5" stop-color="#FBEC83"/>
<stop offset="0.75" stop-color="#BA801F"/>
<stop offset="1" stop-color="#FFE97F"/>
</linearGradient>
</defs>
</svg>
