<svg width="60" height="60" viewBox="0 0 60 60" fill="none" xmlns="http://www.w3.org/2000/svg">
<path d="M60 30C60 46.5643 46.5643 60 30 60C29.1429 60 28.2857 59.9571 27.4286 59.8929C12.0643 58.5857 0 45.7071 0 30C0 13.4357 13.4357 0 30 0C33.6429 0 37.1143 0.642857 40.35 1.82143C51.8143 6.04286 60 17.0571 60 30Z" fill="#333333"/>
<path d="M45.9204 16.1137L43.4989 16.2208L43.3275 11.4422C43.3061 10.9494 43.6918 10.5422 44.1847 10.5208L44.8061 10.4994C45.2989 10.478 45.7061 10.8637 45.7275 11.3565L45.9204 16.1137Z" fill="url(#paint0_linear)"/>
<path d="M45.9201 16.1143L44.7201 16.1572L44.5059 10.4786L44.8273 10.4572C45.3201 10.4357 45.7273 10.8214 45.7487 11.3143L45.9201 16.1143Z" fill="url(#paint1_linear)"/>
<path d="M48.1279 18.0642C48.3421 20.3356 48.235 22.6713 47.785 25.0285C45.2136 38.2713 32.3993 46.9285 19.1564 44.357C16.7993 43.907 14.5921 43.1142 12.5564 42.0642C12.4064 41.9785 11.0779 41.1428 10.2636 39.9428C9.85644 39.3428 9.55644 38.657 9.59929 37.9285C9.59929 37.9285 9.59929 37.9285 9.59929 37.907C9.59929 37.8213 9.62072 37.7356 9.64215 37.6713C9.66358 37.5856 9.68501 37.5213 9.72786 37.457C10.0279 36.8999 10.7779 36.557 11.7421 36.3428C13.8421 35.8713 16.9064 36.0213 18.1921 35.957H18.2136C18.535 35.957 18.835 35.9356 19.1564 35.9142C19.1779 35.9142 19.1993 35.9142 19.1993 35.9142C19.5421 35.8928 19.885 35.8713 20.2279 35.8285C20.335 35.8285 20.4421 35.807 20.5279 35.807C20.6136 35.7856 20.6993 35.7856 20.8064 35.7642C20.8921 35.7642 20.9779 35.7428 21.0636 35.7213C21.1921 35.6999 21.2993 35.6999 21.4279 35.6785C21.6636 35.6356 21.8993 35.6142 22.1136 35.5713C22.2421 35.5499 22.3707 35.5285 22.5207 35.4856C22.885 35.4213 23.2493 35.3356 23.5921 35.2499C23.6993 35.2285 23.8064 35.207 23.935 35.1642C24.0421 35.1428 24.1493 35.0999 24.2779 35.0785C24.5993 34.9928 24.9421 34.8856 25.2636 34.7785C25.285 34.7785 25.3064 34.757 25.3279 34.757L25.4136 34.7356C25.885 34.5856 26.3564 34.4142 26.8279 34.2213C27.2564 34.0499 27.7064 33.857 28.135 33.6642C28.1993 33.6428 28.2421 33.6213 28.3064 33.5785L28.3707 33.557C28.6493 33.4285 28.9279 33.2785 29.2064 33.1285C29.2279 33.107 29.2707 33.107 29.2921 33.0856C29.335 33.0642 29.3564 33.0428 29.3993 33.0213C30.1921 32.5928 30.9421 32.1428 31.6921 31.6285C31.8421 31.5428 31.9707 31.4356 32.1207 31.3285C32.2493 31.2428 32.3779 31.1356 32.5279 31.0285C32.5493 31.007 32.5707 30.9856 32.5921 30.9856C32.6564 30.9213 32.7421 30.8785 32.8064 30.8142C33.0207 30.6428 33.235 30.4713 33.4493 30.2999C33.5564 30.2142 33.6636 30.1285 33.7707 30.0428C33.9207 29.9142 34.0921 29.7642 34.2421 29.6142C34.3064 29.5499 34.3707 29.507 34.4136 29.4428C34.6279 29.2499 34.8421 29.057 35.035 28.8428C35.935 27.9428 36.7921 26.9785 37.5421 25.9285C37.5636 25.907 37.5636 25.8856 37.585 25.8642C37.885 25.4785 38.1636 25.0713 38.4207 24.6428C38.5493 24.4499 38.6779 24.257 38.785 24.0642C38.8707 23.9142 38.9779 23.7428 39.0636 23.5928C39.085 23.5713 39.1064 23.5285 39.1064 23.507C39.2993 23.1642 39.4921 22.7999 39.6636 22.4356C40.6493 20.4856 41.3779 18.3642 41.8064 16.1356C41.8493 15.8999 41.8921 15.6642 41.935 15.4285C41.935 15.4285 41.9564 15.3642 41.9993 15.257C42.0207 15.2142 42.0207 15.1928 42.0421 15.1499C42.0421 15.1285 42.0636 15.107 42.0636 15.0856C42.0636 15.0642 42.085 15.0428 42.085 15.0213C42.2779 14.6142 42.6636 14.057 43.3493 13.6928C43.8421 13.4356 44.485 13.2856 45.3207 13.4142C46.1136 13.5428 46.6921 14.057 47.1207 14.7213C47.7636 15.7499 48.0207 17.1856 48.1279 18.0642Z" fill="url(#paint2_linear)"/>
<path d="M45.3205 13.3928C45.3205 13.4142 45.3205 13.4142 45.3205 13.4356C45.5777 15.5999 45.5563 17.8285 45.192 20.0785C45.1491 20.3785 45.0848 20.6785 45.042 20.9785C42.4705 34.2214 29.6563 42.8785 16.4134 40.3071C14.442 39.9214 12.5991 39.3214 10.842 38.5285C10.5848 38.3999 10.3277 38.2928 10.0705 38.1642C9.92055 38.0785 9.74912 37.9928 9.59912 37.9285C9.59912 37.8428 9.62055 37.7571 9.64198 37.6928C9.66341 37.6071 9.68484 37.5428 9.72769 37.4785C10.0277 36.9214 10.7777 36.5785 11.742 36.3642C13.842 35.8928 16.9063 36.0428 18.192 35.9785H18.2134C18.5348 35.9785 18.8348 35.9571 19.1563 35.9356C19.1777 35.9356 19.1991 35.9356 19.1991 35.9356C19.542 35.9142 19.8848 35.8928 20.2277 35.8499C20.2491 35.8499 20.292 35.8499 20.3134 35.8499C20.3777 35.8499 20.4634 35.8285 20.5277 35.8285C20.6134 35.8071 20.6991 35.8071 20.8063 35.7856C20.9134 35.7642 20.9777 35.7642 21.0634 35.7428C21.192 35.7214 21.2991 35.7214 21.4277 35.6999C21.6634 35.6571 21.8991 35.6142 22.1134 35.5928C22.242 35.5714 22.3705 35.5499 22.5205 35.5071C22.7563 35.4642 22.9705 35.4214 23.1848 35.3571C23.3134 35.3356 23.442 35.2928 23.592 35.2714C23.6991 35.2499 23.8063 35.2071 23.9348 35.1856C24.042 35.1642 24.1491 35.1214 24.2777 35.0999C24.5991 35.0142 24.942 34.9071 25.2634 34.7999C25.2848 34.7999 25.3063 34.7785 25.3277 34.7785L25.4134 34.7571C25.4991 34.7356 25.5848 34.6928 25.6705 34.6714C26.0563 34.5428 26.442 34.3928 26.8277 34.2428C27.2134 34.0928 27.5777 33.9214 27.9634 33.7499C28.0277 33.7285 28.0705 33.7071 28.1348 33.6642C28.1991 33.6428 28.242 33.6214 28.3063 33.5785L28.3705 33.5571C28.542 33.4714 28.7134 33.3856 28.8848 33.2999C28.992 33.2356 29.0991 33.1928 29.2063 33.1499C29.2277 33.1285 29.2705 33.1285 29.292 33.1071C29.3348 33.0856 29.3563 33.0642 29.3991 33.0428C29.5491 32.9571 29.6991 32.8714 29.8491 32.7856C29.9563 32.7214 30.0634 32.6571 30.1705 32.5928C30.2134 32.5714 30.2777 32.5285 30.3205 32.5071C30.4705 32.4214 30.6205 32.3142 30.7705 32.2285C30.9205 32.1428 31.0491 32.0571 31.1777 31.9499C31.3491 31.8428 31.4991 31.7356 31.6705 31.6285C31.8205 31.5214 31.9491 31.4356 32.0991 31.3285C32.2277 31.2214 32.3563 31.1356 32.5063 31.0285C32.5277 31.0071 32.5491 30.9856 32.5705 30.9856C32.6348 30.9214 32.7205 30.8785 32.7848 30.8142C32.9991 30.6428 33.2134 30.4714 33.4277 30.2999C33.5348 30.2142 33.642 30.1285 33.7491 30.0428C33.8991 29.9142 34.0705 29.7642 34.2205 29.6142C34.2848 29.5499 34.3491 29.5071 34.392 29.4428C34.4563 29.3785 34.5205 29.3356 34.5634 29.2714C34.7134 29.1214 34.8634 28.9928 35.0134 28.8428C35.142 28.7142 35.2491 28.6071 35.3777 28.4785C35.5277 28.3285 35.6563 28.1999 35.7848 28.0499C35.8491 27.9856 35.9134 27.8999 35.9991 27.8142C36.042 27.7499 36.1063 27.6856 36.1491 27.6428C36.2777 27.5142 36.3848 27.3642 36.5134 27.2356C36.642 27.0856 36.7491 26.9571 36.8777 26.8071C36.9634 26.6999 37.0705 26.5714 37.1563 26.4642C37.2848 26.2928 37.4134 26.1214 37.542 25.9499C37.5634 25.9285 37.5634 25.9071 37.5848 25.8856C37.7134 25.7142 37.8205 25.5642 37.9277 25.3928C37.992 25.2856 38.0777 25.1785 38.142 25.0714C38.2277 24.9428 38.3134 24.7928 38.4205 24.6642C38.5063 24.5356 38.5705 24.4285 38.6563 24.2999C38.6991 24.2356 38.742 24.1499 38.7848 24.0856C38.8705 23.9356 38.9777 23.7642 39.0634 23.6142C39.0848 23.5928 39.1063 23.5499 39.1063 23.5285C39.1705 23.3999 39.2563 23.2714 39.3205 23.1214C39.3848 23.0142 39.4277 22.9071 39.492 22.7999C39.5563 22.6928 39.5991 22.5856 39.6634 22.4571C39.7491 22.3071 39.8134 22.1356 39.8991 21.9642C39.942 21.8785 39.9848 21.7928 40.0277 21.7071C40.1348 21.4928 40.2205 21.2785 40.3063 21.0642C40.3705 20.9142 40.4348 20.7856 40.4777 20.6356C40.5634 20.4214 40.6491 20.2071 40.7348 19.9928C40.7777 19.8428 40.842 19.6928 40.8848 19.5428C40.9705 19.3285 41.0348 19.0928 41.0991 18.8571C41.142 18.7071 41.1848 18.5785 41.2277 18.4285C41.3134 18.1714 41.3777 17.9142 41.442 17.6785C41.4634 17.5714 41.4848 17.4856 41.5277 17.3785C41.5277 17.3356 41.5491 17.2928 41.5491 17.2714C41.6348 16.9071 41.7205 16.5214 41.8063 16.1571C41.8491 15.9214 41.892 15.6856 41.9348 15.4499C41.9348 15.4499 41.9563 15.3856 41.9991 15.2785C42.0205 15.2356 42.0205 15.2142 42.042 15.1714C42.042 15.1499 42.0634 15.1285 42.0634 15.1071C42.0634 15.0856 42.0848 15.0642 42.0848 15.0428C42.2777 14.6356 42.6634 14.0785 43.3491 13.7142C43.842 13.4142 44.4848 13.2642 45.3205 13.3928Z" fill="url(#paint3_linear)"/>
<path d="M11.7636 36.3C10.6493 37.2643 10.0921 38.4429 10.2636 39.9215C9.85644 39.3215 9.55644 38.6358 9.59929 37.9072C9.59929 37.9072 9.59929 37.9072 9.59929 37.8858C9.59929 37.8001 9.62072 37.7143 9.64215 37.65C9.66358 37.5643 9.68501 37.5 9.72786 37.4358C10.0493 36.8572 10.8207 36.5143 11.7636 36.3Z" fill="url(#paint4_linear)"/>
<defs>
<linearGradient id="paint0_linear" x1="40.1812" y1="8.51034" x2="45.361" y2="14.4805" gradientUnits="userSpaceOnUse">
<stop stop-color="#FFE988"/>
<stop offset="0.25" stop-color="#BA801E"/>
<stop offset="0.5" stop-color="#FBEC83"/>
<stop offset="0.75" stop-color="#BA801F"/>
<stop offset="1" stop-color="#FFE97F"/>
</linearGradient>
<linearGradient id="paint1_linear" x1="40.5373" y1="8.20187" x2="45.717" y2="14.172" gradientUnits="userSpaceOnUse">
<stop stop-color="#FFE988"/>
<stop offset="0.25" stop-color="#BA801E"/>
<stop offset="0.5" stop-color="#FBEC83"/>
<stop offset="0.75" stop-color="#BA801F"/>
<stop offset="1" stop-color="#FFE97F"/>
</linearGradient>
<linearGradient id="paint2_linear" x1="8.9822" y1="27.1729" x2="75.2144" y2="32.2227" gradientUnits="userSpaceOnUse">
<stop stop-color="#FFE988"/>
<stop offset="0.25" stop-color="#BA801E"/>
<stop offset="0.5" stop-color="#FBEC83"/>
<stop offset="0.75" stop-color="#BA801F"/>
<stop offset="1" stop-color="#FFE97F"/>
</linearGradient>
<linearGradient id="paint3_linear" x1="7.15448" y1="30.0111" x2="52.0132" y2="24.964" gradientUnits="userSpaceOnUse">
<stop stop-color="#FFE988"/>
<stop offset="0.25" stop-color="#BA801E"/>
<stop offset="0.5" stop-color="#FBEC83"/>
<stop offset="0.75" stop-color="#BA801F"/>
<stop offset="1" stop-color="#FFE97F"/>
</linearGradient>
<linearGradient id="paint4_linear" x1="8.17433" y1="35.1648" x2="11.193" y2="38.2952" gradientUnits="userSpaceOnUse">
<stop stop-color="#FFE988"/>
<stop offset="0.25" stop-color="#BA801E"/>
<stop offset="0.5" stop-color="#FBEC83"/>
<stop offset="0.75" stop-color="#BA801F"/>
<stop offset="1" stop-color="#FFE97F"/>
</linearGradient>
</defs>
</svg>
