<svg xmlns="http://www.w3.org/2000/svg" xmlns:xlink="http://www.w3.org/1999/xlink" viewBox="0 0 264.99 264.99"><defs><style>.cls-1{fill:url(#Sfumatura_senza_nome_12);}.cls-2{fill:#fff;}</style><linearGradient id="Sfumatura_senza_nome_12" x1="-22" y1="-24.24" x2="109.11" y2="108.77" gradientUnits="userSpaceOnUse"><stop offset="0" stop-color="#f9f9f9"/><stop offset="0.34" stop-color="#96d0be"/><stop offset="1" stop-color="#26a17b"/></linearGradient></defs><title>Risorsa 3</title><g id="Livello_2" data-name="Livello 2"><g id="Livello_1-2" data-name="Livello 1"><circle class="cls-1" cx="132.49" cy="132.49" r="132.49"/><path class="cls-2" d="M105.5,215.79c-30.64-6.24-58.87-43.4-60.8-79.22-2.3-42.56,23.12-80.12,63-93.14,36.38-11.87,80.63,2.34,100.06,32.75-2.71,1.87-5.47,3.8-8.25,5.7s-5.73,3.88-9.46,6.4c-2.68-2.94-5.12-6-7.92-8.63-28.6-27.07-74.95-23.79-100.14,7s-19,77.15,13,99.95c3.54,2.51,9.24,4.63,10,7.85C106.59,201.21,105.5,208.55,105.5,215.79Z"/><path class="cls-2" d="M153.91,85.36c-12.64,3.29-19.92,12.29-25.2,24-.24-2-.59-3.59-.62-5.21-.23-9.68,4-16.67,12.79-20.84a44.34,44.34,0,0,1,15.39-3.79c2-.17,4-.24,6.29-.37-.59,2.29-1.06,4.3-1.63,6.29a63.57,63.57,0,0,1-5.7,14.28,25.32,25.32,0,0,1-12.24,11,51.58,51.58,0,0,0-7.36,3.68c-4.35,2.8-6.33,7.29-7.82,12-.12.37-.23.75-.35,1.15-.52-7,1.67-16.63,6.94-25.11A42.45,42.45,0,0,1,153.91,85.36Z"/><path class="cls-2" d="M126.6,128.38c-1-1.93-2-4.12-3.21-6.15-1.72-2.8-4.31-4.79-6.86-6.79-1.21-.94-2.4-1.9-3.55-2.9-3.88-3.4-5.42-7.82-5.44-12.84,0-1.89.19-3.79.29-5.8,3.82,1.86,7.54,3.58,11.15,5.48a17.69,17.69,0,0,1,4.2,3.08c3.49,3.53,4.33,7.93,3.76,12.7a11.69,11.69,0,0,1-.45,2.09c-2.36-7.38-6.11-13.68-13.2-17.49A37,37,0,0,1,126.6,128.38Z"/><path class="cls-2" d="M126.42,105.08c-1.1-1.88-2.19-4-3.54-6-1.86-2.7-4.55-4.55-7.21-6.41-1.25-.88-2.49-1.78-3.69-2.72-4.06-3.18-5.83-7.51-6.11-12.53-.1-1.89,0-3.79,0-5.81,3.91,1.66,7.71,3.18,11.42,4.89a17.48,17.48,0,0,1,4.35,2.85c3.67,3.34,4.74,7.69,4.42,12.49a11.66,11.66,0,0,1-.33,2.11c-2.75-7.25-6.83-13.34-14.11-16.77A37,37,0,0,1,126.42,105.08Z"/><path class="cls-2" d="M137.33,76.24c-4.31,1.37-6.66,4.62-8.27,8.76-.12-.68-.27-1.24-.31-1.8a7.2,7.2,0,0,1,4-7.43A15.15,15.15,0,0,1,138,74.18c.68-.1,1.37-.16,2.17-.25-.16.8-.29,1.51-.45,2.21a21.87,21.87,0,0,1-1.71,5,8.79,8.79,0,0,1-4,4,16.85,16.85,0,0,0-2.48,1.41,7,7,0,0,0-2.48,4.3c0,.13-.07.26-.1.4a15.28,15.28,0,0,1,1.94-8.81A14.75,14.75,0,0,1,137.33,76.24Z"/><path class="cls-2" d="M194.8,138.73c-2.09-.19-3.82-.49-5.56-.49-15,0-30,0-45.51,0-.16,3.14-.38,5.53-.39,7.93,0,22.88-.24,41.31,0,64.19.07,5.36-1.17,9.36-6.61,9.54-14.35.46-15,0-15-14.47,0-21.76-.14-38.95.08-60.71.05-4.95-1.39-6.74-6.47-6.56-9.64.33-19.29,0-28.94.11-3.76.05-5.15-1.34-5.09-5.12.32-20.28-2.46-16.26,15.36-16.36,37-.2,74,.08,111.06-.2,6.16,0,8.06,2,8.47,7.88,2.69,39-14.77,71.92-47.48,88.76-1.91,1-3.94,1.73-6.91,3,0-7.72-.39-14.41.23-21,.2-2.05,2.87-4.21,4.87-5.7,16-11.85,25.56-27.36,27.8-47.23A34.39,34.39,0,0,0,194.8,138.73Z"/></g></g></svg>