<svg id="Layer_1" data-name="Layer 1" xmlns="http://www.w3.org/2000/svg" xmlns:xlink="http://www.w3.org/1999/xlink" viewBox="0 0 1000 916.09"><defs><style>.cls-1{fill:url(#New_Gradient_Swatch_1);}</style><linearGradient id="New_Gradient_Swatch_1" x1="500" y1="916.09" x2="500" gradientUnits="userSpaceOnUse"><stop offset="0" stop-color="#00ff72"/><stop offset="1" stop-color="#06ffd2"/></linearGradient></defs><path class="cls-1" d="M523.37,476.63,638.84,361.18V833.82a418.81,418.81,0,0,1-57.74,4H523.37V476.63ZM884.53,0H704L638.84,0,581.1,0A416,416,0,0,0,342.76,74.9a427.46,427.46,0,0,0-65.13,55.93C206.2,206.06,162.2,307.58,162.2,418.9v335L118.87,797.2,0,916.07l163.29,0,41.17-41.18,37.11-37.11H458.24v-296L342.76,657.22v65.15H277.63V418.9a301.74,301.74,0,0,1,65.13-187.1,307.41,307.41,0,0,1,115.48-90.12A300.38,300.38,0,0,1,581.1,115.45H884.53V418.9A301.45,301.45,0,0,1,819.4,606V180.6L704,296V819.32a418.59,418.59,0,0,0,115.43-56.4,425.31,425.31,0,0,0,65.13-56C956,631.75,1000,530.2,1000,418.9V0Z"/></svg>