<svg width="100" height="100" viewBox="0 0 100 100" fill="none" xmlns="http://www.w3.org/2000/svg">
<circle cx="50" cy="50" r="50" fill="#C4C4C4"/>
<circle cx="50" cy="50" r="50" fill="url(#paint0_linear_9858_74643)"/>
<path fill-rule="evenodd" clip-rule="evenodd" d="M46.4615 25.2121C51.845 24.5033 57.312 25.5908 62.0144 28.3057C64.0073 29.4563 66.5556 28.7735 67.7062 26.7806C68.8568 24.7877 68.174 22.2395 66.1811 21.0889C59.8899 17.4567 52.576 16.0018 45.3738 16.95C38.1715 17.8982 31.4834 21.1965 26.3467 26.3332C21.2099 31.4699 17.9117 38.158 16.9635 45.3603C16.0153 52.5626 17.4701 59.8764 21.1024 66.1676C24.7346 72.4588 30.3412 77.3756 37.0526 80.1556C43.7641 82.9356 51.2053 83.4233 58.2221 81.5431C65.239 79.663 71.4395 75.52 75.8617 69.7567C80.284 63.9935 82.6811 56.9321 82.6811 49.6676C82.6811 49.6469 82.6809 49.6262 82.6806 49.6055C82.6832 49.5457 82.6844 49.4856 82.6844 49.4252C82.6845 47.1241 80.819 45.2586 78.5178 45.2586L65.0814 45.2586L45.6672 34.4258C42.2429 32.5151 38.0268 34.9907 38.0268 38.912V59.9385C38.0268 63.8598 42.2429 66.3354 45.6672 64.4247L65.0814 53.5919L74.0336 53.5919C73.3864 57.6083 71.7519 61.4239 69.2505 64.6837C65.9449 68.9916 61.3103 72.0884 56.0653 73.4938C50.8204 74.8991 45.2583 74.5346 40.2416 72.4566C35.225 70.3787 31.0342 66.7034 28.3192 62.001C25.6042 57.2985 24.5168 51.8315 25.2256 46.448C25.9343 41.0645 28.3996 36.0653 32.2392 32.2257C36.0788 28.3862 41.078 25.9208 46.4615 25.2121ZM46.3601 44.3553L55.4464 49.4252L46.3601 54.4952V44.3553Z" fill="white"/>
<defs>
<linearGradient id="paint0_linear_9858_74643" x1="50" y1="0" x2="50" y2="100" gradientUnits="userSpaceOnUse">
<stop stop-color="#009CE1"/>
<stop offset="1" stop-color="#1C77FF"/>
</linearGradient>
</defs>
</svg>
