<svg width="51" height="51" xmlns="http://www.w3.org/2000/svg" xmlns:xlink="http://www.w3.org/1999/xlink" overflow="hidden"><defs><clipPath id="clip0"><rect x="614" y="334" width="51" height="51"/></clipPath><clipPath id="clip1"><path d="M615 360C615 346.193 626.193 335 640 335 653.807 335 665 346.193 665 360 665 373.807 653.807 385 640 385 626.193 385 615 373.807 615 360Z" fill-rule="evenodd" clip-rule="evenodd"/></clipPath><clipPath id="clip2"><rect x="615" y="335" width="50" height="50"/></clipPath><clipPath id="clip3"><rect x="615" y="335" width="50" height="50"/></clipPath></defs><g clip-path="url(#clip0)" transform="translate(-614 -334)"><g clip-path="url(#clip1)"><g clip-path="url(#clip2)"><g clip-path="url(#clip3)"><path d="M607 327 673 327 673 393 607 393Z" fill="#FE733A" fill-rule="nonzero" fill-opacity="1"/><path d="M623.14 354.35C623.131 352.551 623.495 350.771 624.21 349.12 624.904 347.528 625.88 346.075 627.09 344.83 628.316 343.619 629.767 342.658 631.36 342 633.014 341.314 634.79 340.974 636.58 341L650.11 341C651.017 340.994 651.916 341.174 652.75 341.53 653.54 341.884 654.261 342.375 654.88 342.98 655.474 343.564 655.961 344.248 656.32 345 657.04 346.683 657.04 348.587 656.32 350.27 655.985 351.065 655.499 351.789 654.89 352.4 654.279 353.01 653.56 353.502 652.77 353.85 651.941 354.214 651.045 354.398 650.14 354.39L636.64 354.39 636.64 367.85 643.36 367.85 643.36 363.33C643.359 362.435 643.542 361.55 643.9 360.73 644.242 359.931 644.734 359.204 645.35 358.59 645.966 357.975 646.697 357.486 647.5 357.15 649.176 356.43 651.074 356.43 652.75 357.15 654.359 357.836 655.639 359.119 656.32 360.73 656.678 361.55 656.861 362.435 656.86 363.33L656.86 365.59C656.89 367.4 656.55 369.197 655.86 370.87 655.194 372.471 654.215 373.923 652.98 375.14 651.716 376.35 650.242 377.32 648.63 378 646.976 378.714 645.192 379.079 643.39 379.07L636.6 379.07C634.801 379.079 633.021 378.715 631.37 378 629.779 377.315 628.331 376.339 627.1 375.12 625.875 373.892 624.894 372.443 624.21 370.85 623.492 369.183 623.127 367.385 623.14 365.57L623.14 354.35ZM624.77 363.16C624.678 363.62 624.977 364.068 625.437 364.16 625.547 364.182 625.66 364.182 625.77 364.16 626.38 364.16 626.68 363.84 626.68 363.16 626.68 362.48 626.38 362.16 625.77 362.16 625.31 362.068 624.862 362.367 624.77 362.827 624.748 362.937 624.748 363.05 624.77 363.16ZM634.21 344.75C634.1 344.529 633.921 344.35 633.7 344.24 633.268 344.077 632.795 344.056 632.35 344.18 631.541 344.336 630.753 344.585 630 344.92 629.11 345.279 628.303 345.816 627.63 346.5 626.988 347.229 626.499 348.079 626.19 349 625.852 349.908 625.584 350.841 625.39 351.79 625.21 352.73 625.08 353.63 625 354.48 624.92 355.33 624.89 356.14 624.89 356.93 624.89 357.72 624.89 358.38 624.97 359.02 624.971 359.479 625.099 359.929 625.34 360.32 625.53 360.51 625.76 360.48 626.05 360.24 626.425 359.811 626.686 359.296 626.81 358.74 627.07 357.874 627.257 356.987 627.37 356.09 627.51 355.077 627.721 354.074 628 353.09 628.243 352.252 628.579 351.444 629 350.68 629.38 350.006 629.836 349.379 630.36 348.81 630.874 348.26 631.422 347.742 632 347.26 632.57 346.79 633 346.38 633.41 346.05 634 345.48 634.32 345.05 634.21 344.75ZM647.48 361.24C647.896 360.812 648.235 360.314 648.48 359.77 648.521 359.602 648.48 359.424 648.37 359.29 648.235 359.156 648.049 359.087 647.86 359.1 647.58 359.114 647.307 359.2 647.07 359.35 646.729 359.554 646.421 359.81 646.16 360.11 645.859 360.493 645.623 360.922 645.46 361.38 645.306 361.772 645.202 362.182 645.15 362.6 645.04 363.31 645.22 363.48 645.71 363.11 646.03 362.866 646.316 362.58 646.56 362.26 646.846 361.902 647.154 361.562 647.48 361.24Z" fill="#FFFFFF" fill-rule="nonzero" fill-opacity="1"/></g></g></g></g></svg>