<svg id="a0462cca-6f5f-4d2b-b543-885495ee9c38" data-name="Capa 1" xmlns="http://www.w3.org/2000/svg" viewBox="0 0 250 250"><defs><style>.ac83d7eb-0bc8-4556-aa96-3d3befb476b6{fill:#f2e7bf;}.ba12d9f4-8d71-4b81-8230-5e7ba208cbf1{fill:#e7bd42;}</style></defs><circle class="ac83d7eb-0bc8-4556-aa96-3d3befb476b6" cx="125" cy="125" r="122.5"/><path class="ba12d9f4-8d71-4b81-8230-5e7ba208cbf1" d="M174,134.65v12.19a2.66,2.66,0,0,1-2.66,2.66H167a14,14,0,0,0-14,14v1.75a1.75,1.75,0,0,1-1.75,1.75H98.75A1.75,1.75,0,0,1,97,165.25h0A15.75,15.75,0,0,0,81.25,149.5H78.66A2.66,2.66,0,0,1,76,146.84V134.65A2.66,2.66,0,0,1,78.66,132h92.68A2.66,2.66,0,0,1,174,134.65Z"/><rect class="ba12d9f4-8d71-4b81-8230-5e7ba208cbf1" x="93.5" y="174" width="63" height="10.5" rx="2.78"/><path class="ba12d9f4-8d71-4b81-8230-5e7ba208cbf1" d="M129.37,107.5V76.88a4.37,4.37,0,0,1,3.74-4.33.77.77,0,0,0,.64-.76V66.28a.78.78,0,0,0-.77-.78H117a.78.78,0,0,0-.77.78v5.51a.77.77,0,0,0,.64.76,4.37,4.37,0,0,1,3.74,4.33V107.5H109.5a2,2,0,0,0-2,2V123a2,2,0,0,0,2,2h31a2,2,0,0,0,2-2V109.5a2,2,0,0,0-2-2Z"/><path class="ba12d9f4-8d71-4b81-8230-5e7ba208cbf1" d="M234.66,145.49l1.62.3.56-3.13c.1-.52.15-1,.22-1.58l.2-1.58c.13-1.05.28-2.1.39-3.16l.25-3.17-14-1c-.09,1.06-.15,2.12-.25,3.18l-.41,3.16,7.35,1-.21,1.7-.3,1.69-10.57-1.79.27-1.51.2-1.53.39-3.06c.09-1,.15-2,.24-3.07s.18-2.05.18-3.08l17.3.68.11-4.54h-1.65l-.07,2.69-17.3-.41c0,2.53-.26,5-.45,7.56l-.48,3.76c-.05.31-.07.62-.13.94l-.17.93-.33,1.86,13.78,2.56.61-3.43.44-3.45-7.37-.88.21-1.61c.06-.54.08-1.08.13-1.62l10.67.94-.1,1.34c0,.45-.1.89-.16,1.33l-.33,2.67C235.33,142,235,143.73,234.66,145.49Z"/><path class="ba12d9f4-8d71-4b81-8230-5e7ba208cbf1" d="M229,165.3l1.54.6c.82-2,1.45-4,2.14-6,.17-.51.35-1,.5-1.51l.43-1.54.87-3.06L221,150.23l-.88,3.07-.21.77c-.07.25-.15.51-.24.76l-.51,1.51,7,2.34c-.37,1.08-.72,2.17-1.11,3.24L215,158.21c.35-1,.66-1.94,1-2.91l.5-1.46a6.29,6.29,0,0,0,.22-.74l.21-.74.85-3c.15-.49.24-1,.36-1.5l.35-1.5,16.88,3.85.51-2.22c.15-.74.27-1.49.41-2.24l-1.62-.3-.24,1.33-.12.66-.15.65-16.94-3.57-.85,3.69c-.06.31-.16.61-.24.91l-.26.91-.52,1.82c-.31,1.22-.76,2.4-1.15,3.6l-.61,1.8c-.22.59-.46,1.17-.69,1.76L226,164.11l.64-1.62c.21-.54.38-1.09.57-1.64l1.11-3.3-7.07-2.23c.09-.25.16-.51.23-.77l.23-.78.44-1.56,10.32,2.89-.74,2.58c-.11.44-.26.86-.4,1.29l-.43,1.27-.87,2.55c-.07.21-.14.43-.22.64l-.24.62Z"/><path class="ba12d9f4-8d71-4b81-8230-5e7ba208cbf1" d="M219.85,183.74l1.4.87c.59-.89,1.1-1.82,1.63-2.74l1.59-2.76c.5-.94,1-1.89,1.46-2.83l.73-1.42.36-.71.33-.72-12.67-6c-.11.24-.21.48-.33.72l-.36.71-.73,1.42-.73,1.42c-.12.23-.23.47-.37.7l-.39.69,6.48,3.61-1.71,3-9.19-5.51,1.53-2.67.39-.67c.13-.22.24-.45.35-.68l.71-1.37.7-1.37.35-.69c.12-.22.22-.46.33-.7l1.26-2.8,15.88,6.9.47-1,.42-1,.83-2.12-1.54-.6-1,2.51-16-6.65a98.72,98.72,0,0,1-6.92,13.45L217.05,182l.47-.74c.15-.24.29-.5.44-.75l.87-1.5.86-1.51.44-.76c.14-.25.27-.51.4-.77l-6.54-3.5,1.47-2.88,9.61,4.74-1.22,2.4-.62,1.2c-.2.4-.44.78-.65,1.17l-1.34,2.33-.68,1.17C220.35,183,220.09,183.36,219.85,183.74Z"/><path class="ba12d9f4-8d71-4b81-8230-5e7ba208cbf1" d="M207.45,200.16l1.22,1.11c.7-.78,1.39-1.59,2.09-2.39l1-1.21.52-.6c.17-.2.33-.41.49-.62l2-2.5,1-1.26.92-1.29-11.34-8.23c-.31.43-.61.87-.93,1.29l-1,1.26c-.66.83-1.31,1.67-2,2.5l5.71,4.73-2.24,2.59-8-7.09,2-2.33c.65-.8,1.27-1.62,1.91-2.42l1-1.22c.31-.41.6-.83.9-1.25l1.79-2.51,14.33,9.71c.83-1.27,1.64-2.55,2.46-3.82l-1.4-.87L218.4,186l-14.49-9.48a99.31,99.31,0,0,1-9.25,12L205,197.94c.77-.86,1.52-1.75,2.29-2.62l1.13-1.32c.38-.44.73-.91,1.09-1.36L203.73,188l2-2.55,8.57,6.43c-1.1,1.41-2.2,2.83-3.33,4.23S208.64,198.82,207.45,200.16Z"/><path class="ba12d9f4-8d71-4b81-8230-5e7ba208cbf1" d="M192.24,214l1,1.31,2.5-2,1.25-1,1.21-1,2.4-2.08c.2-.18.41-.35.6-.53l.58-.54,1.15-1.1-9.65-10.17c-1.51,1.51-3.15,2.86-4.75,4.26l4.75,5.69c-.42.39-.88.73-1.32,1.09L190.6,209l-6.6-8.44a96.62,96.62,0,0,0,9.21-8.18l12.32,12.16,3.14-3.29-1.22-1.11-1.86,2-12.5-12-1.31,1.37c-.44.45-.91.88-1.37,1.31L189,194.13l-.68.66-.72.62c-1,.82-1.9,1.66-2.87,2.47l-3,2.34,8.46,11.18c1.81-1.44,3.67-2.83,5.4-4.39l-4.85-5.62,1.23-1.06c.4-.35.82-.7,1.2-1.08l7.26,7.89-.49.46-.51.44-1,.88-2,1.76-.51.44-.52.42-1.06.83Z"/><path class="ba12d9f4-8d71-4b81-8230-5e7ba208cbf1" d="M174.73,224.87l.74,1.48,2.83-1.46.71-.36.69-.4,1.38-.79c.92-.53,1.85-1.05,2.76-1.6l2.68-1.71-7.63-11.76c-.89.57-1.78,1.16-2.69,1.71l-2.76,1.59,3.63,6.47c-.5.28-1,.58-1.49.84l-1.53.78-4.94-9.51,1.37-.7c.46-.23.9-.51,1.35-.76l2.67-1.53c.88-.54,1.73-1.11,2.6-1.66l1.3-.83c.43-.27.84-.59,1.26-.88L189.54,218l1.86-1.32.92-.66.46-.33.45-.35-1-1.31-.54.41-.54.39-1.1.78L180,201.55l-1.54,1.1-.77.55-.8.51c-1.07.67-2.12,1.37-3.19,2l-3.29,1.89-.41.24-.42.21-.84.44-1.68.86,6.25,12.54,3.1-1.59c1-.55,2-1.15,3-1.72l-3.73-6.41,1.41-.81c.46-.27.91-.58,1.37-.86l5.68,9.08-1.13.72c-.38.24-.77.46-1.16.68l-2.33,1.34-1.17.67c-.39.22-.79.42-1.19.62Z"/><path class="ba12d9f4-8d71-4b81-8230-5e7ba208cbf1" d="M155.53,232.31l.45,1.58,1.53-.43.77-.22.38-.11L159,233l3-1,1.5-.51.38-.13.37-.14.74-.3,3-1.16-5.33-13-3,1.17c-.25.1-.49.21-.74.29l-.76.25-1.51.51,2.38,7-1.63.55-.81.28-.82.23-3.1-10.26.74-.21.73-.25,1.46-.49,1.46-.49.73-.25c.24-.08.48-.18.72-.28,1.9-.76,3.84-1.46,5.69-2.35l7.1,15.79c1.38-.63,2.77-1.23,4.11-1.94l-.74-1.48-1.19.61c-.41.2-.82.38-1.23.56L165,210.37a89.26,89.26,0,0,1-14.16,5.28l3.83,13.48,1.67-.47.84-.24.82-.28,3.3-1.11-2.48-7,.76-.26.76-.29,1.51-.6,3.91,10-2.51,1-2.54.86-2.55.86Z"/><path class="ba12d9f4-8d71-4b81-8230-5e7ba208cbf1" d="M135.29,236.08l.15,1.64c1.06-.06,2.11-.21,3.16-.34l3.16-.4c.53-.06,1.05-.17,1.57-.26l1.57-.28c1-.19,2.09-.36,3.13-.57l-2.84-13.73c-1,.21-2.09.38-3.13.57l-1.57.28-.4.07-.39.05-.79.1,1,7.35-3.4.43-1.15-10.65,3.06-.39.76-.1.39,0,.38-.06,1.51-.28c1-.18,2-.35,3-.55l3-.69,4.05,16.83,1.11-.26.55-.13.55-.15,2.19-.62-.45-1.58-2.59.73-4.32-16.76a100.36,100.36,0,0,1-14.91,2.56l1.28,14c1.15-.07,2.3-.25,3.45-.39l1.73-.22.86-.11.43-.05.43-.08-1.15-7.33,3.19-.57,2,10.53C142.41,235.26,138.85,235.74,135.29,236.08Z"/><path class="ba12d9f4-8d71-4b81-8230-5e7ba208cbf1" d="M114.71,236.08l-.15,1.64,3.18.24c.53,0,1.05.09,1.58.12l1.59,0,3.18.08.8,0,.79,0,1.59,0-.28-14-1.59,0h-.8l-.8,0-3.19-.08-.32,7.41-.85,0-.86-.07-1.71-.13.81-10.68,1.54.12.77.06.77,0,3.08.08.77,0h.78l1.54,0,3.08-.08.89,17.29,4.54-.35-.15-1.64-2.68.2L131.44,219l-.94.07c-.32,0-.63.06-.95.06l-1.9.05-1.89.05c-.32,0-.63,0-1,0l-1,0-3.79-.1-3.78-.29-1.28,14,3.47.26.87.07.87,0,1.74,0,.2-7.42,1.62,0,.81,0h.82l0,10.72c-.45,0-.9,0-1.35,0l-1.34,0-2.68-.07c-.9,0-1.79-.11-2.69-.17Z"/><path class="ba12d9f4-8d71-4b81-8230-5e7ba208cbf1" d="M94.47,232.31,94,233.89l1.53.44.77.21.38.11.39.09,3.11.72c2.06.52,4.16.84,6.25,1.22l2.28-13.83-3.14-.56c-.53-.08-1-.21-1.56-.33l-1.55-.36-1.68,7.23-1.67-.38-.83-.2-.83-.23,2.76-10.36.74.21.75.18,1.5.34,1.5.35c.51.12,1,.24,1.51.32l3,.54.75.14.38.06.39,0,1.52.19-2.26,17.17,2.25.28,1.13.14,1.13.09.15-1.64c-.44,0-.89-.06-1.33-.11L112,235.8l2-17.2a89.09,89.09,0,0,1-14.83-2.95l-3.83,13.48,1.68.48.83.24.85.2,3.39.78,1.56-7.25c1,.26,2.12.42,3.18.61L105,234.74c-.88-.16-1.77-.31-2.65-.49l-2.62-.6L97.06,233Z"/><path class="ba12d9f4-8d71-4b81-8230-5e7ba208cbf1" d="M75.27,224.87l-.74,1.48,1.42.72,1.45.66L80.3,229l.73.32.74.29,1.48.59,3,1.16L91,218.23l-3-1.16-1.48-.59c-.49-.2-1-.43-1.46-.65l-3,6.8L79,221.21l4.62-9.66,2.81,1.26c.47.21.93.44,1.41.63l1.43.57c1,.37,1.91.76,2.87,1.12l2.92,1-5.4,16.45,1.08.36.54.18.54.16,2.19.62.45-1.58-2.59-.74L97,215a100.11,100.11,0,0,1-14-5.66l-6.25,12.54c.52.26,1,.54,1.55.78l1.59.72c1.06.47,2.11,1,3.17,1.42L85.93,218l3,1.19-3.84,10-2.5-1c-.42-.17-.84-.32-1.25-.5l-1.22-.56L77.69,226c-.41-.18-.82-.36-1.23-.56Z"/><path class="ba12d9f4-8d71-4b81-8230-5e7ba208cbf1" d="M57.76,214l-1,1.31c.41.34.85.64,1.28.95l1.3.92c.86.61,1.72,1.24,2.6,1.83l2.68,1.72,1.34.86.34.21.34.2.69.4,7.15-12.05c-.94-.51-1.81-1.11-2.71-1.68l-1.34-.86c-.45-.29-.91-.56-1.33-.88l-4.19,6.12-2.79-2,6.33-8.65L71,204.23c.41.31.85.58,1.28.86l1.3.83c1.7,1.15,3.52,2.12,5.29,3.16L70.5,224.24l.49.29.5.26,1,.52,2,1,.74-1.48-2.4-1.23,8.1-15.3a98.29,98.29,0,0,1-12.76-8.12L59.75,211.4c.45.36.93.69,1.4,1l1.42,1c1,.66,1.88,1.36,2.87,2l4.09-6.2L72.26,211l-5.62,9.13-2.26-1.45-1.13-.72-.57-.37c-.19-.12-.37-.25-.55-.38l-2.19-1.56-1.1-.78-.54-.39Z"/><path class="ba12d9f4-8d71-4b81-8230-5e7ba208cbf1" d="M42.55,200.16l-1.22,1.11,2.2,2.31c.73.76,1.45,1.54,2.23,2.26,1.55,1.46,3.05,3,4.68,4.32l9.23-10.54-1.2-1c-.4-.35-.78-.73-1.16-1.09L55,195.29l-5.24,5.25c-.8-.81-1.58-1.65-2.37-2.47l7.8-7.35c.71.74,1.41,1.5,2.13,2.23l2.24,2.13c.37.35.73.71,1.12,1l1.17,1c.78.67,1.54,1.36,2.33,2l-11,13.38,3.57,2.81,1-1.31-2.11-1.66,10.77-13.56A98.25,98.25,0,0,1,55.34,188.5L45,197.94l2.4,2.52c.4.42.79.85,1.21,1.25l1.26,1.2L55,197.57c.78.74,1.55,1.5,2.35,2.23l-7.19,7.95c-1.31-1.22-2.6-2.47-3.9-3.7S43.79,201.46,42.55,200.16Z"/><path class="ba12d9f4-8d71-4b81-8230-5e7ba208cbf1" d="M30.15,183.74l-1.4.87,1.71,2.68.44.66.21.34.23.32.92,1.3,1.85,2.6c.63.85,1.3,1.67,2,2.51l11-8.68-1-1.25-.49-.63c-.17-.21-.31-.43-.47-.64l-1.85-2.6-6.11,4.21-.49-.7c-.17-.23-.31-.48-.47-.72l-.92-1.44,9-5.8.83,1.3c.14.22.27.44.42.65l.45.63,1.79,2.51c.15.21.29.42.45.62l.47.61,1,1.21,1,1.21c.16.2.31.41.48.61l.51.58L38.35,197.84c1,1.15,2,2.3,3,3.43l1.22-1.11c-.6-.66-1.18-1.35-1.77-2l13.07-11.36-1.24-1.43L52.3,185l-.3-.37-.58-.74-1.17-1.49c-.39-.5-.79-1-1.15-1.51l-2.19-3.09-2-3.18L33,182l1.88,2.93c.16.24.31.49.47.72l.51.71,1,1.42,6-4.31.93,1.33c.16.21.31.44.48.65l.5.64-8.52,6.5c-.27-.36-.56-.7-.82-1.07l-.78-1.09-1.56-2.19c-.25-.37-.53-.73-.76-1.11L31.6,186Z"/><path class="ba12d9f4-8d71-4b81-8230-5e7ba208cbf1" d="M21,165.3l-1.54.6,1.17,3c.42,1,.87,1.94,1.3,2.91l.66,1.45.33.73c.1.24.23.47.35.71l1.45,2.83L37.1,171l-1.45-2.84c-.45-1-.88-1.94-1.32-2.9l-6.78,3-.7-1.56c-.23-.52-.43-1.06-.64-1.59l9.93-4c.19.47.36,1,.57,1.43l.63,1.4c.43.93.84,1.87,1.28,2.8l1.4,2.75.71,1.36.77,1.34-15.06,8.53,1.13,2,.57,1c.2.33.4.64.61,1l1.4-.87c-.24-.38-.5-.75-.71-1.14l-.68-1.17,14.93-8.77L42.75,171c-.31-.55-.65-1.09-.92-1.66L40.1,166c-.53-1.15-1-2.3-1.56-3.45l-.39-.86-.35-.88-.69-1.76L24,164.11c.43,1.08.84,2.16,1.29,3.24l1.43,3.17,6.73-3.13c.23.5.44,1,.68,1.48l.74,1.44-9.58,4.82-.61-1.19-.3-.6-.28-.62L23,170.27l-.55-1.22-.28-.62-.25-.62Z"/><path class="ba12d9f4-8d71-4b81-8230-5e7ba208cbf1" d="M15.34,145.49l-1.62.3c.33,2.1.87,4.16,1.33,6.23.13.52.23,1,.38,1.55l.43,1.53.87,3.07,13.4-4.1L29.26,151l-.22-.77c-.07-.25-.14-.51-.2-.77l-.35-1.55-7.23,1.71c-.25-1.12-.52-2.23-.75-3.34L31,144.15c.21,1,.46,2,.68,3l.35,1.5c.05.25.12.5.19.75l.22.74.84,3c.12.5.31,1,.47,1.47l.49,1.46-16.38,5.59.73,2.16c.27.71.55,1.41.83,2.12l1.54-.6-.5-1.25-.24-.62c-.08-.21-.15-.43-.22-.64l16.29-5.86-1.22-3.59c-.1-.29-.18-.6-.27-.9l-.26-.91L34,149.71c-.38-1.21-.62-2.45-.91-3.68l-.43-1.84c-.13-.62-.22-1.24-.34-1.86l-13.78,2.56.31,1.71c.11.57.25,1.13.38,1.7l.78,3.39,7.19-1.82q.09.39.21.78l.22.78.44,1.56-10.29,3-.74-2.59c-.13-.43-.22-.87-.33-1.3l-.3-1.31-.6-2.63-.15-.65-.12-.66Z"/><path class="ba12d9f4-8d71-4b81-8230-5e7ba208cbf1" d="M13.43,125H11.78l.08,3.18,0,1.59c0,.53,0,1.06.07,1.59l.24,3.17c.08,1.06.14,2.12.3,3.17l13.93-1.56c-.16-1-.21-2.12-.3-3.17L26,131.38l-.06-.8c0-.26,0-.53,0-.8l-7.41.36-.09-3.43,10.71-.17.08,3.09c0,.26,0,.51,0,.77l.06.77.12,1.53c.11,2.06.42,4.09.67,6.13L13,141.31c0,.37.08.75.15,1.12l.2,1.12.4,2.24,1.62-.3-.47-2.65L32,140.09A102.82,102.82,0,0,1,30.74,125h-14l.08,3.48.05,1.73a8.46,8.46,0,0,0,.05.87L17,132l7.41-.47.24,3.23-10.67,1-.2-2.68-.1-1.34c0-.45-.08-.89-.08-1.34Z"/><path class="ba12d9f4-8d71-4b81-8230-5e7ba208cbf1" d="M15.34,104.51l-1.62-.3-.56,3.13c-.1.52-.15,1-.22,1.58l-.2,1.58c-.13,1-.28,2.1-.39,3.16l-.25,3.17,14,1c.09-1.06.15-2.12.25-3.18l.41-3.16-7.35-1,.21-1.7.3-1.69,10.57,1.79-.27,1.51-.2,1.53L29.61,115c-.09,1-.15,2.05-.24,3.07s-.18,2-.18,3.08l-17.3-.68L11.78,125h1.65l.07-2.69,17.3.42c0-2.54.26-5,.45-7.57l.48-3.76c.05-.31.07-.62.13-.94l.17-.93.33-1.86-13.78-2.56L18,108.54,17.53,112l7.37.88-.21,1.61c-.06.54-.08,1.08-.13,1.62l-10.67-.94.1-1.34c0-.45.1-.89.16-1.33l.33-2.67C14.67,108,15,106.27,15.34,104.51Z"/><path class="ba12d9f4-8d71-4b81-8230-5e7ba208cbf1" d="M21,84.7l-1.54-.6c-.82,2-1.45,4-2.14,6-.17.51-.35,1-.5,1.51l-.43,1.54-.87,3.06L29,99.77l.88-3.07.21-.77c.07-.25.15-.51.24-.76l.51-1.51-7-2.34c.37-1.08.72-2.17,1.11-3.24L35,91.79c-.35,1-.66,1.94-1,2.91l-.5,1.46a6.29,6.29,0,0,0-.22.74l-.21.74-.85,3c-.15.49-.24,1-.36,1.5l-.35,1.5L14.64,99.75,14.13,102c-.15.74-.27,1.49-.41,2.24l1.62.3.24-1.33.12-.66.15-.65,16.94,3.57.85-3.69c.06-.31.16-.61.24-.91l.26-.91.52-1.82c.31-1.22.76-2.4,1.15-3.6l.61-1.79c.22-.6.46-1.18.69-1.77L24,85.89l-.64,1.62c-.21.54-.38,1.09-.57,1.64l-1.11,3.3,7.07,2.23c-.09.25-.16.51-.23.77l-.23.78-.44,1.56L17.57,94.9l.74-2.58c.11-.44.26-.86.4-1.29l.43-1.27L20,87.21c.07-.21.14-.43.22-.64l.24-.62Z"/><path class="ba12d9f4-8d71-4b81-8230-5e7ba208cbf1" d="M30.15,66.26l-1.4-.87c-.59.89-1.1,1.82-1.63,2.74l-1.59,2.76c-.5.94-1,1.89-1.46,2.83l-.73,1.42-.36.71-.33.72,12.67,6c.11-.24.21-.48.33-.72l.36-.71.73-1.42.73-1.42c.12-.23.23-.47.37-.7l.39-.69L31.75,73.3l1.71-3,9.19,5.51-1.53,2.67-.39.67c-.13.22-.24.45-.35.68l-.71,1.37L39,82.6l-.35.69c-.12.22-.22.46-.33.7L37,86.79l-15.88-6.9-.47,1-.42,1-.83,2.12,1.54.6,1-2.51,16,6.65a98.72,98.72,0,0,1,6.92-13.45L33,68l-.47.74c-.15.24-.29.5-.44.75L31.17,71l-.86,1.51-.44.76c-.14.25-.27.51-.4.77L36,77.53l-1.47,2.88-9.61-4.74,1.22-2.4.62-1.2c.2-.4.44-.78.65-1.17l1.34-2.33.68-1.17C29.65,67,29.91,66.64,30.15,66.26Z"/><path class="ba12d9f4-8d71-4b81-8230-5e7ba208cbf1" d="M42.55,49.84l-1.22-1.11c-.7.78-1.39,1.59-2.09,2.39l-1,1.21-.52.6c-.17.2-.33.41-.49.62l-2,2.5-1,1.26-.92,1.29,11.34,8.23c.31-.43.61-.87.93-1.29l1-1.26c.66-.83,1.31-1.67,2-2.5l-5.71-4.73,2.24-2.59,8,7.09-2,2.33c-.65.8-1.27,1.62-1.91,2.42l-1,1.22c-.31.41-.6.83-.9,1.25l-1.79,2.51L31.21,61.57c-.83,1.27-1.64,2.55-2.46,3.82l1.4.87L31.6,64l14.49,9.48a99.31,99.31,0,0,1,9.25-12L45,52.06c-.77.86-1.52,1.75-2.29,2.62L41.57,56c-.38.44-.73.91-1.09,1.36L46.27,62l-2,2.55L35.7,58.12c1.1-1.41,2.2-2.83,3.33-4.23S41.36,51.18,42.55,49.84Z"/><path class="ba12d9f4-8d71-4b81-8230-5e7ba208cbf1" d="M57.76,36l-1-1.31-2.5,2-1.25,1-1.21,1-2.4,2.08c-.2.18-.41.35-.6.53l-.58.54-1.15,1.1,9.65,10.17c1.51-1.51,3.15-2.86,4.75-4.26l-4.75-5.69c.42-.39.88-.73,1.32-1.09L59.4,41,66,49.42a96.62,96.62,0,0,0-9.21,8.18L44.47,45.44l-3.14,3.29,1.22,1.11,1.86-2,12.5,12,1.31-1.37c.44-.45.91-.88,1.37-1.31L61,55.87l.68-.66.72-.62c1-.82,1.9-1.66,2.87-2.47l3-2.34L59.75,38.6C57.94,40,56.08,41.43,54.35,43l4.85,5.62L58,49.67c-.4.35-.82.7-1.2,1.08l-7.26-7.89L50,42.4l.51-.44,1-.88,2-1.76.51-.44.52-.42,1.06-.83Z"/><path class="ba12d9f4-8d71-4b81-8230-5e7ba208cbf1" d="M75.27,25.13l-.74-1.48L71.7,25.11l-.71.36-.69.4-1.38.79c-.92.53-1.85,1.06-2.76,1.6L63.48,30l7.63,11.76c.89-.57,1.78-1.16,2.69-1.71l2.76-1.59L72.93,32c.5-.28,1-.58,1.49-.84L76,30.34l4.94,9.51-1.37.7c-.46.23-.9.51-1.35.76L75.5,42.84c-.88.54-1.73,1.11-2.6,1.66l-1.3.83c-.43.28-.84.59-1.26.88L60.46,32,58.6,33.32l-.92.66-.46.33-.45.35,1,1.31.54-.41.54-.39,1.1-.78L70.05,48.45l1.54-1.1.77-.55.8-.51c1.07-.67,2.12-1.37,3.19-2l3.29-1.89.41-.24.42-.21.84-.44L83,40.62,76.74,28.08l-3.1,1.59c-1,.55-2,1.15-3,1.72l3.73,6.41-1.41.81c-.46.27-.91.58-1.37.86l-5.68-9.08L67,29.67c.38-.24.77-.46,1.16-.68l2.33-1.34L71.68,27c.39-.22.79-.42,1.19-.62Z"/><path class="ba12d9f4-8d71-4b81-8230-5e7ba208cbf1" d="M94.47,17.69,94,16.11l-1.53.43-.77.22-.38.11L91,17l-3,1-1.5.51-.38.13-.37.14-.74.3-3,1.16,5.33,13,3-1.17.74-.29.76-.25L93.29,31l-2.38-7,1.63-.55.81-.28.82-.23,3.1,10.26-.74.21-.73.25-1.46.49-1.46.49-.73.25c-.24.08-.48.18-.72.28-1.9.76-3.84,1.46-5.69,2.35l-7.1-15.79c-1.38.63-2.77,1.23-4.11,1.94l.74,1.48,1.19-.61c.41-.2.82-.38,1.23-.56L85,39.63A89.26,89.26,0,0,1,99.2,34.35L95.37,20.87l-1.67.47-.84.24-.82.28L88.74,23l2.48,7-.76.26-.76.29-1.51.6-3.91-10,2.51-1,2.54-.86,2.55-.86Z"/><path class="ba12d9f4-8d71-4b81-8230-5e7ba208cbf1" d="M114.71,13.92l-.15-1.64c-1.06.06-2.11.21-3.16.34l-3.16.4c-.53.06-1,.17-1.57.26l-1.57.28c-1,.19-2.09.36-3.13.57l2.84,13.73c1-.21,2.09-.38,3.13-.57l1.57-.28.4-.07.39-.05.79-.1-1-7.35,3.4-.43,1.15,10.65-3.06.39-.76.1-.39.05-.38.06-1.51.28c-1,.18-2,.35-3,.55l-3,.69L98.42,15l-1.11.26-.55.13-.55.15L94,16.11l.45,1.58L97.06,17l4.32,16.76a100.36,100.36,0,0,1,14.91-2.56L115,17.2c-1.15.07-2.3.25-3.45.39l-1.73.22-.86.11-.43,0-.43.08,1.15,7.33-3.19.57-2-10.53C107.59,14.74,111.15,14.26,114.71,13.92Z"/><path class="ba12d9f4-8d71-4b81-8230-5e7ba208cbf1" d="M135.29,13.92l.15-1.64L132.26,12c-.53,0-1-.09-1.58-.12l-1.59,0-3.18-.08-.8,0-.79,0-1.59,0,.28,14,1.59,0h.8l.8,0,3.19.08.32-7.41.85,0,.86.07,1.71.13-.81,10.68-1.54-.12-.77-.06-.77,0-3.08-.08-.77,0h-.78l-1.54,0-3.08.08-.89-17.29-4.54.35.15,1.64,2.68-.2L118.56,31l.94-.07c.32,0,.63-.06,1-.06l1.9-.05,1.89,0c.32,0,.63,0,1,0l1,0,3.79.1,3.78.29,1.28-14-3.47-.26-.87-.07-.87,0L128,16.8l-.2,7.42-1.62,0-.81,0h-.82l0-10.72c.45,0,.9,0,1.35,0l1.34,0,2.68.07c.9,0,1.79.11,2.69.17Z"/><path class="ba12d9f4-8d71-4b81-8230-5e7ba208cbf1" d="M155.53,17.69l.45-1.58-1.53-.44-.77-.21-.38-.11-.39-.09-3.11-.72c-2.06-.52-4.16-.84-6.25-1.22l-2.28,13.83,3.14.56c.53.08,1,.21,1.56.33l1.55.36,1.68-7.23,1.67.38.83.2.83.23-2.76,10.36-.74-.21-.75-.18-1.5-.34-1.5-.35c-.51-.12-1-.24-1.51-.32l-3-.54-.75-.14-.38-.06-.39-.05L137.69,30,140,12.79l-2.25-.28-1.13-.14-1.13-.09-.15,1.64c.44,0,.89.06,1.33.11l1.34.17-2,17.2a89.09,89.09,0,0,1,14.83,3l3.83-13.48L153,20.39l-.83-.24-.85-.2-3.39-.78-1.56,7.25c-1-.26-2.12-.42-3.18-.61l1.91-10.55c.88.16,1.77.31,2.65.49l2.62.6,2.62.61Z"/><path class="ba12d9f4-8d71-4b81-8230-5e7ba208cbf1" d="M174.73,25.13l.74-1.48-1.42-.72-1.45-.66L169.7,21l-.73-.32-.74-.29-1.48-.59-3-1.16L159,31.77l3,1.16,1.48.59c.49.2,1,.43,1.46.65l3-6.8L171,28.79l-4.62,9.66-2.81-1.26c-.47-.21-.93-.44-1.41-.63L160.72,36c-1-.37-1.91-.76-2.87-1.12l-2.92-1,5.4-16.45-1.08-.36-.54-.18-.54-.16L156,16.11l-.45,1.58,2.59.74L153,35a100.11,100.11,0,0,1,14,5.66l6.25-12.54c-.52-.26-1-.54-1.55-.78l-1.59-.72c-1.06-.47-2.11-1-3.17-1.42L164.07,32l-3-1.19,3.84-10,2.5,1c.42.17.84.32,1.25.5l1.22.56L172.31,24c.41.18.82.36,1.23.56Z"/><path class="ba12d9f4-8d71-4b81-8230-5e7ba208cbf1" d="M192.24,36l1-1.31c-.41-.34-.85-.64-1.28-.95l-1.3-.92c-.86-.61-1.72-1.24-2.6-1.83l-2.68-1.72L184,28.38l-.34-.21-.34-.2-.69-.4-7.15,12c.94.51,1.81,1.11,2.71,1.68l1.34.86c.45.29.91.56,1.33.88l4.19-6.12,2.79,2-6.33,8.65L179,45.77c-.41-.31-.85-.58-1.28-.86l-1.3-.83c-1.7-1.15-3.52-2.12-5.29-3.16l8.34-15.16-.49-.29-.5-.26-1-.52-2-1-.74,1.48,2.4,1.23L169,41.66a98.29,98.29,0,0,1,12.76,8.12l8.46-11.18c-.45-.36-.93-.69-1.4-1l-1.42-1c-1-.66-1.88-1.36-2.87-2l-4.09,6.2L177.74,39l5.62-9.13,2.26,1.45,1.13.72.57.37c.19.12.37.25.55.38l2.19,1.56,1.1.78.54.39Z"/><path class="ba12d9f4-8d71-4b81-8230-5e7ba208cbf1" d="M207.45,49.84l1.22-1.11-2.2-2.31c-.73-.76-1.45-1.54-2.23-2.26-1.55-1.46-3.05-3-4.68-4.32l-9.23,10.54,1.2,1c.4.35.78.73,1.16,1.09l2.31,2.2,5.24-5.25c.8.81,1.58,1.65,2.37,2.47l-7.8,7.35c-.71-.74-1.41-1.5-2.13-2.23l-2.24-2.13c-.37-.35-.73-.71-1.12-1.05l-1.17-1c-.78-.67-1.54-1.36-2.33-2l11-13.38-3.57-2.81-1,1.31,2.11,1.66L183.58,51.19A98.25,98.25,0,0,1,194.66,61.5L205,52.06l-2.4-2.52c-.4-.42-.79-.85-1.21-1.25l-1.26-1.2L195,52.43c-.78-.74-1.55-1.5-2.35-2.23l7.19-8c1.31,1.22,2.6,2.47,3.9,3.7S206.21,48.54,207.45,49.84Z"/><path class="ba12d9f4-8d71-4b81-8230-5e7ba208cbf1" d="M219.85,66.26l1.4-.87-1.71-2.68-.44-.66-.21-.34-.23-.32-.92-1.3-1.85-2.6c-.63-.85-1.3-1.67-1.95-2.51l-11,8.68,1,1.25.49.63c.17.21.31.43.47.64l1.85,2.6,6.11-4.21.49.7c.17.23.31.48.47.72l.92,1.44-9,5.8-.83-1.3c-.14-.22-.27-.44-.42-.65l-.45-.63-1.79-2.51c-.15-.21-.29-.42-.45-.62l-.47-.61-1-1.21-1-1.21c-.16-.2-.31-.41-.48-.61l-.51-.58,13.25-11.14c-1-1.15-2-2.3-3-3.43l-1.22,1.11c.6.66,1.18,1.35,1.77,2L196.15,63.22l1.24,1.43.31.36.3.37.58.74,1.17,1.49c.39.5.79,1,1.15,1.51l2.19,3.09,2,3.18L217.05,68l-1.88-2.93c-.16-.24-.31-.49-.47-.72l-.51-.71-1-1.42-6,4.31-.93-1.33c-.16-.21-.31-.44-.48-.65l-.5-.64,8.52-6.5c.27.36.56.7.82,1.07l.78,1.09,1.56,2.19c.25.37.53.73.76,1.11L218.4,64Z"/><path class="ba12d9f4-8d71-4b81-8230-5e7ba208cbf1" d="M229,84.7l1.54-.6-1.17-3c-.42-1-.87-1.94-1.3-2.91l-.66-1.45-.33-.73c-.1-.24-.23-.47-.35-.71l-1.45-2.83L212.9,79l1.45,2.84c.45,1,.88,1.94,1.32,2.9l6.78-3,.7,1.56c.23.52.43,1.06.64,1.59l-9.93,4c-.19-.47-.36-1-.57-1.43l-.63-1.4c-.43-.93-.84-1.87-1.28-2.8L210,80.54l-.71-1.36-.77-1.34,15.06-8.53-1.13-2-.57-1c-.2-.33-.4-.64-.61-1l-1.4.87c.24.38.5.75.71,1.14l.68,1.17-14.93,8.77.94,1.64c.31.55.65,1.09.92,1.66L209.9,84c.53,1.15,1,2.3,1.56,3.45l.39.86.35.88.69,1.76L226,85.89c-.43-1.08-.84-2.17-1.29-3.24l-1.43-3.17-6.73,3.13c-.23-.5-.44-1-.68-1.48l-.74-1.44,9.58-4.82.61,1.19.3.6.28.62L227,79.73l.55,1.22.28.62.25.62Z"/><path class="ba12d9f4-8d71-4b81-8230-5e7ba208cbf1" d="M234.66,104.51l1.62-.3c-.33-2.1-.87-4.16-1.33-6.23-.13-.52-.23-1-.38-1.55l-.43-1.53-.87-3.07-13.4,4.1.87,3.07.22.77c.07.25.14.51.2.77l.35,1.55,7.23-1.71c.25,1.12.52,2.23.75,3.34L219,105.85c-.21-1-.46-2-.68-3l-.35-1.5c-.05-.25-.12-.5-.19-.75l-.22-.74-.84-3c-.12-.5-.31-1-.47-1.47L215.75,94l16.38-5.59-.73-2.16c-.27-.71-.55-1.41-.83-2.12l-1.54.6.5,1.25.24.62c.08.21.15.43.22.64L213.7,93.07l1.22,3.59c.1.29.18.6.27.9l.26.91.51,1.82c.38,1.21.62,2.45.91,3.68l.43,1.84c.13.62.22,1.24.34,1.86l13.78-2.56-.31-1.71c-.11-.57-.25-1.13-.38-1.7L230,98.31l-7.19,1.82q-.09-.39-.21-.78l-.22-.78L221.89,97l10.29-3,.74,2.59c.13.43.22.87.33,1.3l.3,1.31.6,2.63.15.65.12.66Z"/><path class="ba12d9f4-8d71-4b81-8230-5e7ba208cbf1" d="M236.57,125h1.65l-.08-3.18,0-1.59c0-.53,0-1.06-.07-1.59l-.24-3.17c-.08-1.06-.14-2.12-.3-3.17l-13.93,1.56c.16,1,.21,2.12.3,3.17l.12,1.59.06.8c0,.26,0,.53,0,.8l7.41-.36.09,3.43-10.71.17-.08-3.09c0-.26,0-.51,0-.77l-.06-.77-.12-1.53c-.11-2.06-.42-4.09-.67-6.13L237,108.69c-.05-.37-.08-.75-.15-1.12l-.2-1.12-.4-2.24-1.62.3.47,2.65L218,109.91A102.82,102.82,0,0,1,219.26,125h14l-.08-3.48-.05-1.73a8.46,8.46,0,0,0,0-.87l-.06-.87-7.41.47-.24-3.23,10.67-1,.2,2.68.1,1.34c0,.45.08.89.08,1.34Z"/></svg>