<svg version="1.2" baseProfile="tiny-ps" xmlns="http://www.w3.org/2000/svg" viewBox="0 0 207 207" width="207" height="207">
	<title>HIFI-svg</title>
	<style>
		tspan { white-space:pre }
		.shp0 { fill: #000000 } 
		.shp1 { fill: #e83a8d } 
		.shp2 { fill: #0090d1 } 
		.shp3 { fill: #d11076 } 
		.shp4 { fill: #00aae4 } 
		.shp5 { fill: #8ed2f0 } 
		.shp6 { fill: #cc87b1 } 
		.shp7 { fill: #da599c } 
		.shp8 { fill: #f8f9fa } 
	</style>
	<path id="Layer" class="shp0" d="M103.5 0.38C46.55 0.38 0.38 46.55 0.38 103.5C0.38 160.45 46.55 206.63 103.5 206.63C160.45 206.63 206.63 160.45 206.63 103.5C206.63 46.55 160.45 0.38 103.5 0.38Z" />
	<path id="Layer" class="shp1" d="M64.54 160.05L58.47 160.05C58.4 160.05 58.33 159.98 58.33 159.91L58.33 157.7C58.33 157.63 58.4 157.56 58.47 157.56L64.54 157.56C64.62 157.56 64.69 157.63 64.69 157.7L64.69 159.91C64.69 159.98 64.62 160.05 64.54 160.05Z" />
	<path id="Layer" class="shp1" d="M64.54 157.09L58.47 157.09C58.4 157.09 58.33 157.01 58.33 156.94L58.33 154.73C58.33 154.66 58.4 154.59 58.47 154.59L64.54 154.59C64.62 154.59 64.69 154.66 64.69 154.73L64.69 156.94C64.69 157.01 64.62 157.09 64.54 157.09Z" />
	<path id="Layer" class="shp1" d="M64.54 154.11L58.47 154.11C58.4 154.11 58.33 154.04 58.33 153.97L58.33 151.76C58.33 151.69 58.4 151.62 58.47 151.62L64.54 151.62C64.62 151.62 64.69 151.69 64.69 151.76L64.69 153.97C64.69 154.04 64.62 154.11 64.54 154.11Z" />
	<path id="Layer" class="shp1" d="M79.43 151.14L58.47 151.14C58.4 151.14 58.33 151.07 58.33 151L58.33 148.77C58.33 148.7 58.4 148.62 58.47 148.62L79.43 148.62C79.5 148.62 79.57 148.7 79.57 148.77L79.57 150.98C79.57 151.07 79.52 151.14 79.43 151.14Z" />
	<path id="Layer" class="shp1" d="M128.14 142.2L107.19 142.2C107.12 142.2 107.05 142.13 107.05 142.06L107.05 139.85C107.05 139.78 107.12 139.71 107.19 139.71L128.14 139.71C128.21 139.71 128.29 139.78 128.29 139.85L128.29 142.06C128.29 142.16 128.24 142.2 128.14 142.2Z" />
	<path id="Layer" class="shp1" d="M64.54 148.17L58.47 148.17C58.4 148.17 58.33 148.1 58.33 148.03L58.33 145.82C58.33 145.75 58.4 145.68 58.47 145.68L64.54 145.68C64.62 145.68 64.69 145.75 64.69 145.82L64.69 148.03C64.69 148.1 64.62 148.17 64.54 148.17Z" />
	<path id="Layer" class="shp1" d="M64.54 145.2L58.47 145.2C58.4 145.2 58.33 145.13 58.33 145.06L58.33 142.82C58.33 142.75 58.4 142.68 58.47 142.68L64.54 142.68C64.62 142.68 64.69 142.75 64.69 142.82L64.69 145.03C64.69 145.13 64.62 145.2 64.54 145.2Z" />
	<path id="Layer" class="shp1" d="M64.54 142.2L58.47 142.2C58.4 142.2 58.33 142.13 58.33 142.06L58.33 139.85C58.33 139.78 58.4 139.71 58.47 139.71L64.54 139.71C64.62 139.71 64.69 139.78 64.69 139.85L64.69 142.06C64.69 142.16 64.62 142.2 64.54 142.2Z" />
	<path id="Layer" class="shp1" d="M79.43 160.05L73.36 160.05C73.29 160.05 73.21 159.98 73.21 159.91L73.21 157.7C73.21 157.63 73.29 157.56 73.36 157.56L79.43 157.56C79.5 157.56 79.57 157.63 79.57 157.7L79.57 159.91C79.57 159.98 79.52 160.05 79.43 160.05Z" />
	<path id="Layer" class="shp1" d="M79.43 157.09L73.36 157.09C73.29 157.09 73.21 157.01 73.21 156.94L73.21 154.73C73.21 154.66 73.29 154.59 73.36 154.59L79.43 154.59C79.5 154.59 79.57 154.66 79.57 154.73L79.57 156.94C79.57 157.01 79.52 157.09 79.43 157.09Z" />
	<path id="Layer" class="shp1" d="M79.43 154.11L73.36 154.11C73.29 154.11 73.21 154.04 73.21 153.97L73.21 151.76C73.21 151.69 73.29 151.62 73.36 151.62L79.43 151.62C79.5 151.62 79.57 151.69 79.57 151.76L79.57 153.97C79.57 154.04 79.52 154.11 79.43 154.11Z" />
	<path id="Layer" class="shp1" d="M79.43 148.17L73.36 148.17C73.29 148.17 73.21 148.1 73.21 148.03L73.21 145.82C73.21 145.75 73.29 145.68 73.36 145.68L79.43 145.68C79.5 145.68 79.57 145.75 79.57 145.82L79.57 148.03C79.57 148.1 79.52 148.17 79.43 148.17Z" />
	<path id="Layer" class="shp1" d="M79.43 145.2L73.36 145.2C73.29 145.2 73.21 145.13 73.21 145.06L73.21 142.82C73.21 142.75 73.29 142.68 73.36 142.68L79.43 142.68C79.5 142.68 79.57 142.75 79.57 142.82L79.57 145.03C79.57 145.13 79.52 145.2 79.43 145.2Z" />
	<path id="Layer" class="shp1" d="M79.43 142.2L73.36 142.2C73.29 142.2 73.21 142.13 73.21 142.06L73.21 139.85C73.21 139.78 73.29 139.71 73.36 139.71L79.43 139.71C79.5 139.71 79.57 139.78 79.57 139.85L79.57 142.06C79.57 142.16 79.52 142.2 79.43 142.2Z" />
	<path id="Layer" class="shp1" d="M96.33 151.14L90.26 151.14C90.19 151.14 90.12 151.07 90.12 151L90.12 148.77C90.12 148.7 90.19 148.62 90.26 148.62L96.33 148.62C96.41 148.62 96.48 148.7 96.48 148.77L96.48 150.98C96.48 151.07 96.41 151.14 96.33 151.14Z" />
	<path id="Layer" class="shp1" d="M101.95 160.05L84.66 160.05C84.59 160.05 84.52 159.98 84.52 159.91L84.52 157.7C84.52 157.63 84.59 157.56 84.66 157.56L101.95 157.56C102.02 157.56 102.09 157.63 102.09 157.7L102.09 159.91C102.09 159.98 102.02 160.05 101.95 160.05Z" />
	<path id="Layer" class="shp1" d="M124.5 151.14L107.21 151.14C107.14 151.14 107.07 151.07 107.07 151L107.07 148.77C107.07 148.7 107.14 148.62 107.21 148.62L124.5 148.62C124.57 148.62 124.64 148.7 124.64 148.77L124.64 150.98C124.64 151.07 124.57 151.14 124.5 151.14Z" />
	<path id="Layer" class="shp1" d="M96.33 157.09L90.26 157.09C90.19 157.09 90.12 157.01 90.12 156.94L90.12 154.73C90.12 154.66 90.19 154.59 90.26 154.59L96.33 154.59C96.41 154.59 96.48 154.66 96.48 154.73L96.48 156.94C96.48 157.01 96.41 157.09 96.33 157.09Z" />
	<path id="Layer" class="shp1" d="M96.33 154.11L90.26 154.11C90.19 154.11 90.12 154.04 90.12 153.97L90.12 151.76C90.12 151.69 90.19 151.62 90.26 151.62L96.33 151.62C96.41 151.62 96.48 151.69 96.48 151.76L96.48 153.97C96.48 154.04 96.41 154.11 96.33 154.11Z" />
	<path id="Layer" class="shp1" d="M96.33 148.17L90.26 148.17C90.19 148.17 90.12 148.1 90.12 148.03L90.12 145.82C90.12 145.75 90.19 145.68 90.26 145.68L96.33 145.68C96.41 145.68 96.48 145.75 96.48 145.82L96.48 148.03C96.48 148.1 96.41 148.17 96.33 148.17Z" />
	<path id="Layer" class="shp1" d="M96.33 145.2L90.26 145.2C90.19 145.2 90.12 145.13 90.12 145.06L90.12 142.82C90.12 142.75 90.19 142.68 90.26 142.68L96.33 142.68C96.41 142.68 96.48 142.75 96.48 142.82L96.48 145.03C96.48 145.13 96.41 145.2 96.33 145.2Z" />
	<path id="Layer" class="shp1" d="M101.95 142.2L84.66 142.2C84.59 142.2 84.52 142.13 84.52 142.06L84.52 139.85C84.52 139.78 84.59 139.71 84.66 139.71L101.95 139.71C102.02 139.71 102.09 139.78 102.09 139.85L102.09 142.06C102.09 142.16 102.02 142.2 101.95 142.2Z" />
	<path id="Layer" class="shp1" d="M143.12 151.14L137.05 151.14C136.98 151.14 136.91 151.07 136.91 151L136.91 148.77C136.91 148.7 136.98 148.62 137.05 148.62L143.12 148.62C143.2 148.62 143.27 148.7 143.27 148.77L143.27 150.98C143.27 151.07 143.2 151.14 143.12 151.14Z" />
	<path id="Layer" class="shp1" d="M148.72 160.05L131.43 160.05C131.36 160.05 131.29 159.98 131.29 159.91L131.29 157.7C131.29 157.63 131.36 157.56 131.43 157.56L148.72 157.56C148.79 157.56 148.86 157.63 148.86 157.7L148.86 159.91C148.86 159.98 148.81 160.05 148.72 160.05Z" />
	<path id="Layer" class="shp1" d="M143.12 157.09L137.05 157.09C136.98 157.09 136.91 157.01 136.91 156.94L136.91 154.73C136.91 154.66 136.98 154.59 137.05 154.59L143.12 154.59C143.2 154.59 143.27 154.66 143.27 154.73L143.27 156.94C143.27 157.01 143.2 157.09 143.12 157.09Z" />
	<path id="Layer" class="shp1" d="M143.12 154.11L137.05 154.11C136.98 154.11 136.91 154.04 136.91 153.97L136.91 151.76C136.91 151.69 136.98 151.62 137.05 151.62L143.12 151.62C143.2 151.62 143.27 151.69 143.27 151.76L143.27 153.97C143.27 154.04 143.2 154.11 143.12 154.11Z" />
	<path id="Layer" class="shp1" d="M143.12 148.17L137.05 148.17C136.98 148.17 136.91 148.1 136.91 148.03L136.91 145.82C136.91 145.75 136.98 145.68 137.05 145.68L143.12 145.68C143.2 145.68 143.27 145.75 143.27 145.82L143.27 148.03C143.27 148.1 143.2 148.17 143.12 148.17Z" />
	<path id="Layer" class="shp1" d="M143.12 145.2L137.05 145.2C136.98 145.2 136.91 145.13 136.91 145.06L136.91 142.82C136.91 142.75 136.98 142.68 137.05 142.68L143.12 142.68C143.2 142.68 143.27 142.75 143.27 142.82L143.27 145.03C143.27 145.13 143.2 145.2 143.12 145.2Z" />
	<path id="Layer" class="shp1" d="M148.72 142.2L131.43 142.2C131.36 142.2 131.29 142.13 131.29 142.06L131.29 139.85C131.29 139.78 131.36 139.71 131.43 139.71L148.72 139.71C148.79 139.71 148.86 139.78 148.86 139.85L148.86 142.06C148.86 142.16 148.81 142.2 148.72 142.2Z" />
	<path id="Layer" class="shp1" d="M113.26 160.05L107.19 160.05C107.12 160.05 107.05 159.98 107.05 159.91L107.05 157.7C107.05 157.63 107.12 157.56 107.19 157.56L113.26 157.56C113.34 157.56 113.41 157.63 113.41 157.7L113.41 159.91C113.41 159.98 113.34 160.05 113.26 160.05Z" />
	<path id="Layer" class="shp1" d="M113.26 157.09L107.19 157.09C107.12 157.09 107.05 157.01 107.05 156.94L107.05 154.73C107.05 154.66 107.12 154.59 107.19 154.59L113.26 154.59C113.34 154.59 113.41 154.66 113.41 154.73L113.41 156.94C113.41 157.01 113.34 157.09 113.26 157.09Z" />
	<path id="Layer" class="shp1" d="M113.26 154.11L107.19 154.11C107.12 154.11 107.05 154.04 107.05 153.97L107.05 151.76C107.05 151.69 107.12 151.62 107.19 151.62L113.26 151.62C113.34 151.62 113.41 151.69 113.41 151.76L113.41 153.97C113.41 154.04 113.34 154.11 113.26 154.11Z" />
	<path id="Layer" class="shp1" d="M113.26 148.17L107.19 148.17C107.12 148.17 107.05 148.1 107.05 148.03L107.05 145.82C107.05 145.75 107.12 145.68 107.19 145.68L113.26 145.68C113.34 145.68 113.41 145.75 113.41 145.82L113.41 148.03C113.41 148.1 113.34 148.17 113.26 148.17Z" />
	<path id="Layer" class="shp1" d="M113.26 145.2L107.19 145.2C107.12 145.2 107.05 145.13 107.05 145.06L107.05 142.82C107.05 142.75 107.12 142.68 107.19 142.68L113.26 142.68C113.34 142.68 113.41 142.75 113.41 142.82L113.41 145.03C113.41 145.13 113.34 145.2 113.26 145.2Z" />
	<path id="Layer" class="shp2" d="M46.47 119.15C45.33 119.15 44.26 118.58 43.61 117.6C42.97 116.63 42.88 115.39 43.35 114.35L75.36 43.04C75.9 41.8 77.12 41.02 78.47 41.02L126.86 41.02C128 41.02 129.07 41.59 129.71 42.56C130.36 43.51 130.45 44.75 130 45.79L104.36 104.72C103.59 106.45 101.59 107.24 99.86 106.48C98.12 105.72 97.33 103.72 98.09 101.98L121.64 47.81L80.69 47.81L51.78 112.25L73.07 111.99C73.09 111.99 73.09 111.99 73.12 111.99C74.97 111.99 76.52 113.49 76.55 115.37C76.57 117.25 75.05 118.79 73.16 118.82L46.52 119.15C46.5 119.15 46.5 119.15 46.47 119.15Z" />
	<path id="Layer" class="shp3" d="M129.12 118.82L82.71 118.82C81.55 118.82 80.47 118.22 79.86 117.27C79.23 116.3 79.12 115.08 79.59 114.01L106.17 54.33C106.93 52.62 108.95 51.83 110.67 52.59C112.38 53.35 113.17 55.37 112.41 57.09L87.98 111.99L126.88 111.99L155.46 47.81L137 47.77C135.12 47.77 133.6 46.22 133.6 44.34C133.6 42.46 135.12 40.95 137.03 40.95L160.72 41.02C161.89 41.02 162.96 41.61 163.58 42.59C164.2 43.56 164.29 44.77 163.84 45.82L132.24 116.79C131.69 118.03 130.48 118.82 129.12 118.82Z" />
	<path id="Layer" class="shp2" d="M145.2 59.15L132.05 59.15C130.17 59.15 128.62 57.63 128.62 55.73C128.62 53.85 130.14 52.3 132.05 52.3L145.2 52.3C147.07 52.3 148.62 53.83 148.62 55.73C148.6 57.61 147.07 59.15 145.2 59.15Z" />
	<path id="Layer" class="shp2" d="M121.21 83.49C119.34 83.49 117.81 81.97 117.79 80.09C117.79 78.21 119.31 76.67 121.19 76.67L134.05 76.65C135.93 76.65 137.46 78.17 137.48 80.05C137.48 81.92 135.96 83.47 134.07 83.47L121.21 83.49Z" />
	<path id="Layer" class="shp3" d="M92.57 83.64C92.55 83.64 92.52 83.64 92.5 83.64L81.52 83.38C79.64 83.33 78.14 81.76 78.19 79.88C78.23 78.03 79.76 76.55 81.59 76.55C81.62 76.55 81.64 76.55 81.66 76.55L92.64 76.81C94.52 76.86 96.02 78.43 95.98 80.31C95.95 82.16 94.43 83.64 92.57 83.64Z" />
	<path id="Layer" class="shp3" d="M65.36 106.76C64.88 106.76 64.43 106.67 63.97 106.45C62.26 105.7 61.47 103.67 62.26 101.94L83.74 53.97C84.5 52.26 86.52 51.47 88.26 52.26C89.98 53.02 90.76 55.04 89.98 56.77L68.5 104.74C67.9 106 66.66 106.76 65.36 106.76Z" />
	<path id="Layer" class="shp4" d="M46.47 118.29C45.61 118.29 44.8 117.86 44.33 117.13C43.85 116.39 43.78 115.46 44.14 114.68L76.14 43.37C76.55 42.44 77.47 41.85 78.47 41.85L126.86 41.85C127.71 41.85 128.53 42.28 129 43.01C129.48 43.73 129.55 44.65 129.21 45.44L103.57 104.36C103 105.67 101.5 106.27 100.19 105.7C98.88 105.13 98.29 103.63 98.86 102.32L122.93 46.96L80.14 46.96L50.45 113.13L73.07 112.85L73.09 112.85C74.5 112.85 75.64 113.96 75.66 115.37C75.69 116.77 74.55 117.93 73.14 117.96L46.5 118.29C46.5 118.29 46.5 118.29 46.47 118.29Z" />
	<path id="Layer" class="shp1" d="M129.12 117.96L82.71 117.96C81.86 117.96 81.05 117.53 80.57 116.79C80.09 116.06 80.02 115.15 80.38 114.37L106.95 54.68C107.52 53.4 109.05 52.8 110.34 53.38C111.62 53.95 112.21 55.47 111.64 56.75L86.66 112.85L127.45 112.85L156.79 46.96L137.03 46.91C135.62 46.91 134.46 45.75 134.48 44.34C134.48 42.94 135.62 41.8 137.05 41.8L160.74 41.87C161.6 41.87 162.41 42.32 162.89 43.04C163.36 43.77 163.43 44.68 163.08 45.46L131.45 116.46C131.05 117.36 130.14 117.96 129.12 117.96Z" />
	<path id="Layer" class="shp4" d="M145.2 58.3L132.05 58.3C130.64 58.3 129.48 57.16 129.48 55.73C129.48 54.3 130.62 53.16 132.05 53.16L145.2 53.16C146.6 53.16 147.77 54.3 147.77 55.73C147.77 57.16 146.6 58.3 145.2 58.3Z" />
	<path id="Layer" class="shp4" d="M121.21 82.64C119.81 82.64 118.64 81.5 118.64 80.09C118.64 78.69 119.79 77.53 121.19 77.53L134.05 77.5C135.48 77.5 136.62 78.64 136.62 80.05C136.62 81.45 135.48 82.61 134.07 82.61L121.21 82.64Z" />
	<path id="Layer" class="shp1" d="M92.57 82.78C92.55 82.78 92.52 82.78 92.5 82.78L81.52 82.52C80.12 82.5 78.97 81.3 79.02 79.9C79.05 78.5 80.26 77.38 81.64 77.41L92.62 77.67C94.02 77.69 95.17 78.88 95.12 80.29C95.09 81.66 93.95 82.78 92.57 82.78Z" />
	<path id="Layer" class="shp1" d="M65.36 105.91C65 105.91 64.64 105.84 64.3 105.7C63.02 105.13 62.43 103.6 63.02 102.32L84.5 54.35C85.07 53.07 86.59 52.47 87.88 53.07C89.16 53.64 89.76 55.16 89.16 56.44L67.69 104.41C67.26 105.34 66.33 105.91 65.36 105.91Z" />
	<path id="Layer" class="shp5" d="M46.47 117.44C45.9 117.44 45.35 117.15 45.04 116.68C44.73 116.2 44.66 115.58 44.9 115.04L76.9 43.73C77.19 43.11 77.79 42.73 78.47 42.73L126.86 42.73C127.43 42.73 127.98 43.01 128.29 43.49C128.6 43.96 128.64 44.58 128.43 45.11L102.79 104.03C102.41 104.89 101.41 105.29 100.55 104.91C99.69 104.53 99.29 103.53 99.67 102.68L124.27 46.13L79.57 46.13L49.14 113.99L73.09 113.7L73.12 113.7C74.05 113.7 74.81 114.46 74.83 115.39C74.83 116.34 74.09 117.1 73.14 117.13L46.47 117.44C46.5 117.44 46.5 117.44 46.47 117.44Z" />
	<path id="Layer" class="shp6" d="M129.12 117.13L82.71 117.13C82.14 117.13 81.59 116.84 81.29 116.34C80.97 115.87 80.93 115.25 81.16 114.73L107.74 55.04C108.12 54.18 109.14 53.78 110 54.18C110.86 54.57 111.26 55.59 110.86 56.44L85.36 113.7L128.03 113.7L158.13 46.13L137.05 46.05C136.1 46.05 135.34 45.29 135.34 44.34C135.34 43.39 136.1 42.63 137.05 42.63L160.74 42.7C161.32 42.7 161.86 42.99 162.17 43.49C162.48 43.96 162.53 44.58 162.29 45.11L130.69 116.11C130.41 116.72 129.79 117.13 129.12 117.13Z" />
	<path id="Layer" class="shp5" d="M145.2 57.44L132.05 57.44C131.1 57.44 130.34 56.68 130.34 55.73C130.34 54.78 131.1 54.02 132.05 54.02L145.2 54.02C146.15 54.02 146.91 54.78 146.91 55.73C146.89 56.68 146.12 57.44 145.2 57.44Z" />
	<path id="Layer" class="shp5" d="M121.21 81.78C120.26 81.78 119.5 81.02 119.5 80.07C119.5 79.12 120.26 78.36 121.21 78.36L134.07 78.34C135.03 78.34 135.79 79.09 135.79 80.05C135.79 81 135.03 81.76 134.07 81.76L121.21 81.78Z" />
	<path id="Layer" class="shp6" d="M92.57 81.92C92.55 81.92 92.55 81.92 92.52 81.92L81.55 81.66C80.59 81.64 79.86 80.86 79.88 79.93C79.9 79 80.66 78.26 81.59 78.26C81.62 78.26 81.62 78.26 81.64 78.26L92.62 78.52C93.57 78.55 94.31 79.33 94.29 80.26C94.26 81.19 93.5 81.92 92.57 81.92Z" />
	<path id="Layer" class="shp6" d="M65.36 105.05C65.12 105.05 64.88 105 64.66 104.91C63.8 104.53 63.43 103.51 63.8 102.65L85.29 54.68C85.66 53.83 86.69 53.45 87.55 53.83C88.4 54.21 88.79 55.23 88.4 56.09L66.93 104.05C66.62 104.7 66 105.05 65.36 105.05Z" />
	<path id="Layer" class="shp7" d="M129.12 117.13L82.71 117.13C82.14 117.13 81.59 116.84 81.29 116.34C80.97 115.87 80.93 115.25 81.16 114.73L107.74 55.04C108.12 54.18 109.14 53.78 110 54.18C110.86 54.57 111.26 55.59 110.86 56.44L85.36 113.7L128.03 113.7L158.13 46.13L137.05 46.05C136.1 46.05 135.34 45.29 135.34 44.34C135.34 43.39 136.1 42.63 137.05 42.63L160.74 42.7C161.32 42.7 161.86 42.99 162.17 43.49C162.48 43.96 162.53 44.58 162.29 45.11L130.69 116.11C130.41 116.72 129.79 117.13 129.12 117.13Z" />
	<path id="Layer" class="shp7" d="M92.57 81.92C92.55 81.92 92.55 81.92 92.52 81.92L81.55 81.66C80.59 81.64 79.86 80.86 79.88 79.93C79.9 79 80.66 78.26 81.59 78.26C81.62 78.26 81.62 78.26 81.64 78.26L92.62 78.52C93.57 78.55 94.31 79.33 94.29 80.26C94.26 81.19 93.5 81.92 92.57 81.92Z" />
	<path id="Layer" class="shp7" d="M65.36 105.05C65.12 105.05 64.88 105 64.66 104.91C63.8 104.53 63.43 103.51 63.8 102.65L85.29 54.68C85.66 53.83 86.69 53.45 87.55 53.83C88.4 54.21 88.79 55.23 88.4 56.09L66.93 104.05C66.62 104.7 66 105.05 65.36 105.05Z" />
	<path id="Layer" class="shp8" d="M46.47 116.58C46.19 116.58 45.93 116.44 45.76 116.2C45.59 115.96 45.57 115.65 45.69 115.39L77.69 44.08C77.83 43.77 78.14 43.58 78.47 43.58L126.86 43.58C127.14 43.58 127.41 43.73 127.57 43.96C127.74 44.2 127.77 44.51 127.64 44.77L102 103.7C101.81 104.13 101.31 104.32 100.88 104.15C100.45 103.96 100.24 103.46 100.43 103.03L125.55 45.29L79.02 45.29L47.8 114.87L73.12 114.56C73.59 114.56 73.97 114.94 73.97 115.39C73.97 115.87 73.59 116.25 73.14 116.25L46.47 116.58C46.5 116.58 46.47 116.58 46.47 116.58Z" />
	<path id="Layer" class="shp8" d="M129.12 116.27L82.71 116.27C82.43 116.27 82.16 116.13 82 115.89C81.83 115.65 81.81 115.34 81.93 115.08L108.5 55.4C108.69 54.97 109.19 54.78 109.62 54.97C110.05 55.16 110.24 55.66 110.05 56.09L84 114.56L128.53 114.56L159.41 45.27L137.03 45.2C136.55 45.2 136.17 44.82 136.17 44.34C136.17 43.87 136.55 43.49 137.03 43.49L160.72 43.56C161 43.56 161.27 43.7 161.43 43.94C161.6 44.18 161.63 44.48 161.5 44.75L129.91 115.75C129.77 116.06 129.45 116.27 129.12 116.27Z" />
	<path id="Layer" class="shp8" d="M145.2 56.59L132.05 56.59C131.57 56.59 131.19 56.2 131.19 55.73C131.19 55.25 131.57 54.88 132.05 54.88L145.2 54.88C145.67 54.88 146.05 55.25 146.05 55.73C146.03 56.2 145.65 56.59 145.2 56.59Z" />
	<path id="Layer" class="shp8" d="M121.21 80.93C120.74 80.93 120.36 80.55 120.36 80.07C120.36 79.59 120.74 79.21 121.21 79.21L134.07 79.19C134.55 79.19 134.93 79.57 134.93 80.05C134.93 80.52 134.55 80.9 134.07 80.9L121.21 80.93Z" />
	<path id="Layer" class="shp8" d="M92.57 81.07C92.57 81.07 92.55 81.07 92.57 81.07L81.57 80.8C81.09 80.8 80.71 80.4 80.74 79.93C80.74 79.45 81.14 79.07 81.62 79.09L92.59 79.36C93.07 79.36 93.45 79.76 93.43 80.23C93.4 80.71 93.02 81.07 92.57 81.07Z" />
	<path id="Layer" class="shp8" d="M65.36 104.2C65.23 104.2 65.12 104.17 65 104.13C64.57 103.93 64.38 103.44 64.57 103.01L86.05 55.04C86.24 54.61 86.74 54.42 87.16 54.61C87.59 54.8 87.79 55.3 87.59 55.73L66.12 103.7C66 104.03 65.69 104.2 65.36 104.2Z" />
</svg>