<svg version="1.2" baseProfile="tiny-ps" xmlns="http://www.w3.org/2000/svg" viewBox="0 0 497 497" width="497" height="497">
	<title>hifi-bnb</title>
	<style>
		tspan { white-space:pre }
		.shp0 { fill: #ffb357 } 
		.shp1 { fill: #ffce71 } 
		.shp2 { fill: #30cd9c } 
		.shp3 { fill: #18c08b } 
		.shp4 { fill: #70dcba } 
		.shp5 { fill: #e8b5b1 } 
		.shp6 { fill: #d6948c } 
		.shp7 { fill: #ce857a } 
		.shp8 { fill: #fce3a0 } 
		.shp9 { fill: #f3ba2f } 
		.shp10 { fill: #ffffff } 
		.shp11 { fill: #e83a8d } 
		.shp12 { fill: #0090d1 } 
		.shp13 { fill: #d11076 } 
		.shp14 { fill: #00aae4 } 
		.shp15 { fill: #8ed2f0 } 
		.shp16 { fill: #cc87b1 } 
		.shp17 { fill: #da599c } 
		.shp18 { fill: #f8f9fa } 
	</style>
	<g id="g977">
		<g id="g965">
			<path id="path935" class="shp0" d="M130.04 232.67C113.05 240.59 95.32 244.98 77.68 246.15C59.39 247.36 55.29 272.26 72.29 279.13C96.7 288.99 124.99 289.09 150.74 277.08L130.04 232.67Z" />
			<path id="path937" class="shp1" d="M419.32 246.15C401.68 244.98 383.95 240.59 366.96 232.67L346.26 277.08C372.01 289.09 400.3 288.99 424.71 279.13C441.71 272.26 437.61 247.36 419.32 246.15Z" />
			<path id="path939" class="shp2" d="M178.56 129.4C237.13 187.97 234.18 229.34 206.84 256.68C179.5 284.01 138.14 286.97 79.56 228.39C20.98 169.81 -18.49 86.02 8.85 58.69C36.19 31.35 119.98 70.82 178.56 129.4Z" />
			<path id="path941" class="shp2" d="M319.78 129.4C261.2 187.97 264.16 229.34 291.49 256.68C318.83 284.01 360.19 286.97 418.77 228.39C464.52 182.65 497 121.53 497 83.92C497 73.42 495.47 64.67 489.48 58.69C462.15 31.35 378.36 70.82 319.78 129.4Z" />
			<g id="g947">
				<path id="path943" class="shp3" d="M389.92 153.46C383.79 147.88 374.31 148.33 368.73 154.46L291.73 237.09L312.96 258.33L390.92 174.65C396.49 168.52 396.05 159.03 389.92 153.46Z" />
				<path id="path945" class="shp3" d="M107.08 153.46C100.95 159.03 100.51 168.52 106.08 174.65L184.04 258.33L205.27 237.09L128.27 154.46C122.69 148.33 113.21 147.88 107.08 153.46Z" />
			</g>
			<path id="path949" class="shp4" d="M318.5 170C318.5 252.84 287.16 280 248.5 280C209.84 280 178.5 252.84 178.5 170C178.5 87.16 209.84 0 248.5 0C287.16 0 318.5 87.16 318.5 170Z" />
			<path id="path951" class="shp3" d="M263.5 152.83C263.5 144.54 256.78 137.83 248.5 137.83C240.22 137.83 233.5 144.54 233.5 152.83L213.5 423.38L283.5 423.38C283.5 417.19 263.5 155.27 263.5 152.83Z" />
			<g id="g963">
				<g id="g957">
					<path id="path953" class="shp5" d="M255.18 380.7L280.76 369.24C288.98 365.56 298.56 369.95 301.14 378.58L311.18 444.16L246.37 444.16L246.37 394.31C246.37 388.43 249.82 383.11 255.18 380.7Z" />
					<path id="path955" class="shp6" d="M248.83 378.5L217.56 364.49C207.2 359.85 194.21 365.61 192.27 378.38L180.37 454.16L259.6 454.16L259.6 395.13C259.6 387.95 255.38 381.44 248.83 378.5Z" />
				</g>
				<path id="path959" class="shp6" d="M258.2 424.74L292.52 409.36C303.55 404.42 316.41 410.31 319.86 421.89L333.34 497L246.37 497L246.37 442.99C246.37 435.11 251 427.96 258.2 424.74Z" />
				<path id="path961" class="shp7" d="M254.6 465.73L254.6 459.16C254.6 449.36 248.84 440.47 239.9 436.47L207.23 420.35C193.52 414.21 177.54 421.53 173.25 435.93L156.5 497L267.55 497C259.26 488.71 254.6 477.46 254.6 465.73Z" />
			</g>
		</g>
		<g id="g971">
			<path id="path967" class="shp8" d="M196.42 260.4C202.15 242.88 179.93 229.56 167.18 242.87C154.71 255.87 139.67 266.83 122.36 274.9C105.05 282.97 86.99 287.45 69.02 288.64C50.63 289.86 46.55 315.44 63.65 322.31C88.5 332.3 117.27 332.38 143.47 320.16C169.67 307.95 188.1 285.86 196.42 260.4Z" />
			<path id="path969" class="shp8" d="M300.58 260.4C294.85 242.88 317.07 229.56 329.82 242.87C342.29 255.87 357.33 266.83 374.64 274.9C391.95 282.97 410.01 287.45 427.98 288.64C446.37 289.86 450.45 315.44 433.35 322.31C408.5 332.3 379.73 332.38 353.53 320.16C327.33 307.95 308.9 285.86 300.58 260.4Z" />
		</g>
		<path id="path973" class="shp1" d="M232.19 249.45C231.48 228.91 203.65 223.66 195.37 242.46C187.37 260.6 175.94 277.6 161.07 292.47C150.3 303.24 138.4 312.21 125.76 319.38C117.13 324.27 112.49 334.04 114.37 343.78C116.76 356.11 128.6 364.16 140.96 362C162.56 358.24 183.25 348.01 199.93 331.33C222.46 308.8 233.21 278.96 232.19 249.45Z" />
		<path id="path975" class="shp0" d="M264.81 249.45C265.52 228.91 293.35 223.66 301.63 242.46C309.63 260.6 321.06 277.6 335.93 292.47C346.7 303.24 358.6 312.21 371.24 319.38C379.87 324.27 384.51 334.04 382.63 343.78C380.24 356.11 368.4 364.16 356.04 362C334.44 358.24 313.75 348.01 297.07 331.33C274.54 308.8 263.79 278.96 264.81 249.45Z" />
	</g>
	<g id="g1744">
		<path id="circle1740" class="shp9" d="M370.81 427.11C312.83 427.11 265.97 380.25 265.97 322.27C265.97 264.3 312.83 217.44 370.81 217.44C428.78 217.44 475.64 264.3 475.64 322.27C475.64 380.25 428.78 427.11 370.81 427.11Z" />
		<path id="path1742" fill-rule="evenodd" class="shp10" d="M330.55 297.01L370.81 256.75L411.08 297.02L396.27 311.83L370.81 286.37L345.36 311.82L330.55 297.01ZM305.29 322.27L320.09 307.47L334.9 322.27L320.09 337.08L305.29 322.27ZM345.36 332.73L370.81 358.18L396.27 332.72L411.08 347.52L370.81 387.8L330.53 347.52L345.36 332.73ZM406.71 322.27L421.52 307.47L436.33 322.27L421.52 337.08L406.71 322.27ZM385.83 322.26L385.84 322.26L385.84 322.27L370.81 337.3L355.8 322.3L355.77 322.27L355.8 322.25L358.42 319.62L359.7 318.34L370.81 307.24L385.83 322.26Z" />
	</g>
	<g id="Folder 1">
		<g id="Layer">
			<path id="Layer" class="shp11" d="M62.56 411.22L53.64 411.22C53.54 411.22 53.43 411.11 53.43 411.01L53.43 407.76C53.43 407.65 53.54 407.55 53.64 407.55L62.56 407.55C62.66 407.55 62.77 407.65 62.77 407.76L62.77 411.01C62.77 411.11 62.66 411.22 62.56 411.22Z" />
			<path id="Layer" class="shp11" d="M62.56 406.85L53.64 406.85C53.54 406.85 53.43 406.74 53.43 406.64L53.43 403.38C53.43 403.28 53.54 403.17 53.64 403.17L62.56 403.17C62.66 403.17 62.77 403.28 62.77 403.38L62.77 406.64C62.77 406.74 62.66 406.85 62.56 406.85Z" />
			<path id="Layer" class="shp11" d="M62.56 402.48L53.64 402.48C53.54 402.48 53.43 402.37 53.43 402.27L53.43 399.01C53.43 398.91 53.54 398.8 53.64 398.8L62.56 398.8C62.66 398.8 62.77 398.91 62.77 399.01L62.77 402.27C62.77 402.37 62.66 402.48 62.56 402.48Z" />
			<path id="Layer" class="shp11" d="M84.41 398.1L53.64 398.1C53.54 398.1 53.43 398 53.43 397.9L53.43 394.61C53.43 394.5 53.54 394.4 53.64 394.4L84.41 394.4C84.52 394.4 84.62 394.5 84.62 394.61L84.62 397.86C84.62 398 84.55 398.1 84.41 398.1Z" />
			<path id="Layer" class="shp11" d="M155.96 384.96L125.18 384.96C125.08 384.96 124.97 384.85 124.97 384.75L124.97 381.5C124.97 381.39 125.08 381.29 125.18 381.29L155.96 381.29C156.06 381.29 156.16 381.39 156.16 381.5L156.16 384.75C156.16 384.89 156.1 384.96 155.96 384.96Z" />
			<path id="Layer" class="shp11" d="M62.56 393.73L53.64 393.73C53.54 393.73 53.43 393.63 53.43 393.52L53.43 390.27C53.43 390.17 53.54 390.06 53.64 390.06L62.56 390.06C62.66 390.06 62.77 390.17 62.77 390.27L62.77 393.52C62.77 393.63 62.66 393.73 62.56 393.73Z" />
			<path id="Layer" class="shp11" d="M62.56 389.36L53.64 389.36C53.54 389.36 53.43 389.26 53.43 389.15L53.43 385.87C53.43 385.76 53.54 385.66 53.64 385.66L62.56 385.66C62.66 385.66 62.77 385.76 62.77 385.87L62.77 389.12C62.77 389.26 62.66 389.36 62.56 389.36Z" />
			<path id="Layer" class="shp11" d="M62.56 384.96L53.64 384.96C53.54 384.96 53.43 384.85 53.43 384.75L53.43 381.5C53.43 381.39 53.54 381.29 53.64 381.29L62.56 381.29C62.66 381.29 62.77 381.39 62.77 381.5L62.77 384.75C62.77 384.89 62.66 384.96 62.56 384.96Z" />
			<path id="Layer" class="shp11" d="M84.41 411.22L75.5 411.22C75.39 411.22 75.29 411.11 75.29 411.01L75.29 407.76C75.29 407.65 75.39 407.55 75.5 407.55L84.41 407.55C84.52 407.55 84.62 407.65 84.62 407.76L84.62 411.01C84.62 411.11 84.55 411.22 84.41 411.22Z" />
			<path id="Layer" class="shp11" d="M84.41 406.85L75.5 406.85C75.39 406.85 75.29 406.74 75.29 406.64L75.29 403.38C75.29 403.28 75.39 403.17 75.5 403.17L84.41 403.17C84.52 403.17 84.62 403.28 84.62 403.38L84.62 406.64C84.62 406.74 84.55 406.85 84.41 406.85Z" />
			<path id="Layer" class="shp11" d="M84.41 402.48L75.5 402.48C75.39 402.48 75.29 402.37 75.29 402.27L75.29 399.01C75.29 398.91 75.39 398.8 75.5 398.8L84.41 398.8C84.52 398.8 84.62 398.91 84.62 399.01L84.62 402.27C84.62 402.37 84.55 402.48 84.41 402.48Z" />
			<path id="Layer" class="shp11" d="M84.41 393.73L75.5 393.73C75.39 393.73 75.29 393.63 75.29 393.52L75.29 390.27C75.29 390.17 75.39 390.06 75.5 390.06L84.41 390.06C84.52 390.06 84.62 390.17 84.62 390.27L84.62 393.52C84.62 393.63 84.55 393.73 84.41 393.73Z" />
			<path id="Layer" class="shp11" d="M84.41 389.36L75.5 389.36C75.39 389.36 75.29 389.26 75.29 389.15L75.29 385.87C75.29 385.76 75.39 385.66 75.5 385.66L84.41 385.66C84.52 385.66 84.62 385.76 84.62 385.87L84.62 389.12C84.62 389.26 84.55 389.36 84.41 389.36Z" />
			<path id="Layer" class="shp11" d="M84.41 384.96L75.5 384.96C75.39 384.96 75.29 384.85 75.29 384.75L75.29 381.5C75.29 381.39 75.39 381.29 75.5 381.29L84.41 381.29C84.52 381.29 84.62 381.39 84.62 381.5L84.62 384.75C84.62 384.89 84.55 384.96 84.41 384.96Z" />
			<path id="Layer" class="shp11" d="M109.24 398.1L100.32 398.1C100.22 398.1 100.11 398 100.11 397.9L100.11 394.61C100.11 394.5 100.22 394.4 100.32 394.4L109.24 394.4C109.34 394.4 109.45 394.5 109.45 394.61L109.45 397.86C109.45 398 109.34 398.1 109.24 398.1Z" />
			<path id="Layer" class="shp11" d="M117.49 411.22L92.11 411.22C92 411.22 91.9 411.11 91.9 411.01L91.9 407.76C91.9 407.65 92 407.55 92.11 407.55L117.49 407.55C117.6 407.55 117.7 407.65 117.7 407.76L117.7 411.01C117.7 411.11 117.6 411.22 117.49 411.22Z" />
			<path id="Layer" class="shp11" d="M150.61 398.1L125.22 398.1C125.11 398.1 125.01 398 125.01 397.9L125.01 394.61C125.01 394.5 125.11 394.4 125.22 394.4L150.61 394.4C150.71 394.4 150.82 394.5 150.82 394.61L150.82 397.86C150.82 398 150.71 398.1 150.61 398.1Z" />
			<path id="Layer" class="shp11" d="M109.24 406.85L100.32 406.85C100.22 406.85 100.11 406.74 100.11 406.64L100.11 403.38C100.11 403.28 100.22 403.17 100.32 403.17L109.24 403.17C109.34 403.17 109.45 403.28 109.45 403.38L109.45 406.64C109.45 406.74 109.34 406.85 109.24 406.85Z" />
			<path id="Layer" class="shp11" d="M109.24 402.48L100.32 402.48C100.22 402.48 100.11 402.37 100.11 402.27L100.11 399.01C100.11 398.91 100.22 398.8 100.32 398.8L109.24 398.8C109.34 398.8 109.45 398.91 109.45 399.01L109.45 402.27C109.45 402.37 109.34 402.48 109.24 402.48Z" />
			<path id="Layer" class="shp11" d="M109.24 393.73L100.32 393.73C100.22 393.73 100.11 393.63 100.11 393.52L100.11 390.27C100.11 390.17 100.22 390.06 100.32 390.06L109.24 390.06C109.34 390.06 109.45 390.17 109.45 390.27L109.45 393.52C109.45 393.63 109.34 393.73 109.24 393.73Z" />
			<path id="Layer" class="shp11" d="M109.24 389.36L100.32 389.36C100.22 389.36 100.11 389.26 100.11 389.15L100.11 385.87C100.11 385.76 100.22 385.66 100.32 385.66L109.24 385.66C109.34 385.66 109.45 385.76 109.45 385.87L109.45 389.12C109.45 389.26 109.34 389.36 109.24 389.36Z" />
			<path id="Layer" class="shp11" d="M117.49 384.96L92.11 384.96C92 384.96 91.9 384.85 91.9 384.75L91.9 381.5C91.9 381.39 92 381.29 92.11 381.29L117.49 381.29C117.6 381.29 117.7 381.39 117.7 381.5L117.7 384.75C117.7 384.89 117.6 384.96 117.49 384.96Z" />
			<path id="Layer" class="shp11" d="M177.95 398.1L169.03 398.1C168.93 398.1 168.82 398 168.82 397.9L168.82 394.61C168.82 394.5 168.93 394.4 169.03 394.4L177.95 394.4C178.05 394.4 178.16 394.5 178.16 394.61L178.16 397.86C178.16 398 178.05 398.1 177.95 398.1Z" />
			<path id="Layer" class="shp11" d="M186.17 411.22L160.78 411.22C160.68 411.22 160.57 411.11 160.57 411.01L160.57 407.76C160.57 407.65 160.68 407.55 160.78 407.55L186.17 407.55C186.27 407.55 186.38 407.65 186.38 407.76L186.38 411.01C186.38 411.11 186.31 411.22 186.17 411.22Z" />
			<path id="Layer" class="shp11" d="M177.95 406.85L169.03 406.85C168.93 406.85 168.82 406.74 168.82 406.64L168.82 403.38C168.82 403.28 168.93 403.17 169.03 403.17L177.95 403.17C178.05 403.17 178.16 403.28 178.16 403.38L178.16 406.64C178.16 406.74 178.05 406.85 177.95 406.85Z" />
			<path id="Layer" class="shp11" d="M177.95 402.48L169.03 402.48C168.93 402.48 168.82 402.37 168.82 402.27L168.82 399.01C168.82 398.91 168.93 398.8 169.03 398.8L177.95 398.8C178.05 398.8 178.16 398.91 178.16 399.01L178.16 402.27C178.16 402.37 178.05 402.48 177.95 402.48Z" />
			<path id="Layer" class="shp11" d="M177.95 393.73L169.03 393.73C168.93 393.73 168.82 393.63 168.82 393.52L168.82 390.27C168.82 390.17 168.93 390.06 169.03 390.06L177.95 390.06C178.05 390.06 178.16 390.17 178.16 390.27L178.16 393.52C178.16 393.63 178.05 393.73 177.95 393.73Z" />
			<path id="Layer" class="shp11" d="M177.95 389.36L169.03 389.36C168.93 389.36 168.82 389.26 168.82 389.15L168.82 385.87C168.82 385.76 168.93 385.66 169.03 385.66L177.95 385.66C178.05 385.66 178.16 385.76 178.16 385.87L178.16 389.12C178.16 389.26 178.05 389.36 177.95 389.36Z" />
			<path id="Layer" class="shp11" d="M186.17 384.96L160.78 384.96C160.68 384.96 160.57 384.85 160.57 384.75L160.57 381.5C160.57 381.39 160.68 381.29 160.78 381.29L186.17 381.29C186.27 381.29 186.38 381.39 186.38 381.5L186.38 384.75C186.38 384.89 186.31 384.96 186.17 384.96Z" />
			<path id="Layer" class="shp11" d="M134.1 411.22L125.18 411.22C125.08 411.22 124.97 411.11 124.97 411.01L124.97 407.76C124.97 407.65 125.08 407.55 125.18 407.55L134.1 407.55C134.21 407.55 134.31 407.65 134.31 407.76L134.31 411.01C134.31 411.11 134.21 411.22 134.1 411.22Z" />
			<path id="Layer" class="shp11" d="M134.1 406.85L125.18 406.85C125.08 406.85 124.97 406.74 124.97 406.64L124.97 403.38C124.97 403.28 125.08 403.17 125.18 403.17L134.1 403.17C134.21 403.17 134.31 403.28 134.31 403.38L134.31 406.64C134.31 406.74 134.21 406.85 134.1 406.85Z" />
			<path id="Layer" class="shp11" d="M134.1 402.48L125.18 402.48C125.08 402.48 124.97 402.37 124.97 402.27L124.97 399.01C124.97 398.91 125.08 398.8 125.18 398.8L134.1 398.8C134.21 398.8 134.31 398.91 134.31 399.01L134.31 402.27C134.31 402.37 134.21 402.48 134.1 402.48Z" />
			<path id="Layer" class="shp11" d="M134.1 393.73L125.18 393.73C125.08 393.73 124.97 393.63 124.97 393.52L124.97 390.27C124.97 390.17 125.08 390.06 125.18 390.06L134.1 390.06C134.21 390.06 134.31 390.17 134.31 390.27L134.31 393.52C134.31 393.63 134.21 393.73 134.1 393.73Z" />
			<path id="Layer" class="shp11" d="M134.1 389.36L125.18 389.36C125.08 389.36 124.97 389.26 124.97 389.15L124.97 385.87C124.97 385.76 125.08 385.66 125.18 385.66L134.1 385.66C134.21 385.66 134.31 385.76 134.31 385.87L134.31 389.12C134.31 389.26 134.21 389.36 134.1 389.36Z" />
		</g>
		<g id="Layer">
			<g id="Layer">
				<path id="Layer" class="shp12" d="M36.02 351.04C34.34 351.04 32.77 350.2 31.82 348.77C30.88 347.33 30.74 345.52 31.44 343.98L78.43 239.08C79.24 237.26 81.02 236.1 83.02 236.1L154.07 236.1C155.75 236.1 157.32 236.94 158.26 238.38C159.21 239.78 159.35 241.59 158.68 243.13L121.02 329.82C119.9 332.37 116.97 333.52 114.41 332.4C111.86 331.28 110.71 328.35 111.83 325.79L146.41 246.11L86.27 246.11L43.82 340.9L75.08 340.51C75.11 340.51 75.11 340.51 75.15 340.51C77.87 340.51 80.15 342.72 80.18 345.48C80.22 348.24 77.98 350.52 75.22 350.55L36.09 351.04C36.05 351.04 36.05 351.04 36.02 351.04Z" />
			</g>
			<g id="Layer">
				<path id="Layer" class="shp13" d="M157.39 350.55L89.24 350.55C87.53 350.55 85.95 349.68 85.04 348.28C84.13 346.84 83.96 345.06 84.66 343.49L123.68 255.69C124.8 253.17 127.77 252.01 130.29 253.13C132.81 254.25 133.96 257.22 132.84 259.74L96.97 340.51L154.1 340.51L196.06 246.11L168.96 246.04C166.2 246.04 163.96 243.76 163.96 241C163.96 238.24 166.2 236 169 236L169 236L203.79 236.1C205.5 236.1 207.08 236.98 207.99 238.41C208.89 239.85 209.03 241.63 208.37 243.17L161.97 347.58C161.17 349.4 159.38 350.55 157.39 350.55Z" />
			</g>
			<g id="Layer">
				<path id="Layer" class="shp12" d="M180.99 262.78L161.69 262.78C158.93 262.78 156.65 260.55 156.65 257.75C156.65 254.99 158.89 252.71 161.69 252.71L180.99 252.71C183.75 252.71 186.03 254.95 186.03 257.75C185.99 260.51 183.75 262.78 180.99 262.78Z" />
			</g>
			<g id="Layer">
				<path id="Layer" class="shp12" d="M145.78 298.59C143.02 298.59 140.78 296.35 140.74 293.59C140.74 290.83 142.98 288.55 145.74 288.55L164.63 288.52L164.63 288.52C167.39 288.52 169.63 290.76 169.66 293.52C169.66 296.28 167.42 298.56 164.66 298.56L145.78 298.59L145.78 298.59Z" />
			</g>
			<g id="Layer">
				<path id="Layer" class="shp13" d="M103.72 298.8C103.68 298.8 103.65 298.8 103.61 298.8L87.49 298.42C84.73 298.35 82.53 296.04 82.6 293.28C82.67 290.55 84.9 288.38 87.6 288.38C87.63 288.38 87.67 288.38 87.7 288.38L103.82 288.76C106.58 288.83 108.79 291.14 108.72 293.9C108.68 296.63 106.44 298.8 103.72 298.8Z" />
			</g>
			<g id="Layer">
				<path id="Layer" class="shp13" d="M63.75 332.82C63.05 332.82 62.38 332.68 61.72 332.37C59.2 331.25 58.05 328.28 59.2 325.72L90.74 255.16C91.86 252.64 94.83 251.49 97.39 252.64C99.9 253.76 101.06 256.74 99.9 259.29L68.36 329.85C67.49 331.7 65.67 332.82 63.75 332.82Z" />
			</g>
		</g>
		<g id="Layer">
			<g id="Layer">
				<path id="Layer" class="shp14" d="M36.02 349.78C34.76 349.78 33.57 349.15 32.87 348.07C32.17 346.98 32.07 345.62 32.59 344.47L79.59 239.57C80.18 238.2 81.55 237.33 83.02 237.33L154.07 237.33C155.33 237.33 156.51 237.96 157.21 239.04C157.91 240.09 158.02 241.45 157.53 242.61L119.87 329.29C119.03 331.21 116.83 332.09 114.9 331.25C112.98 330.41 112.11 328.21 112.95 326.28L148.3 244.85L85.46 244.85L41.86 342.19L75.08 341.77L75.11 341.77C77.18 341.77 78.85 343.42 78.89 345.48C78.92 347.54 77.25 349.26 75.18 349.29L36.05 349.78C36.05 349.78 36.05 349.78 36.02 349.78Z" />
			</g>
			<g id="Layer">
				<path id="Layer" class="shp11" d="M157.39 349.29L89.24 349.29C87.98 349.29 86.79 348.66 86.09 347.58C85.39 346.49 85.29 345.17 85.81 344.01L124.83 256.21C125.67 254.32 127.91 253.45 129.8 254.29C131.69 255.13 132.56 257.36 131.72 259.25L95.04 341.77L154.94 341.77L198.02 244.85L169 244.78C166.93 244.78 165.22 243.06 165.26 241C165.26 238.94 166.93 237.26 169.03 237.26L169.03 237.26L203.82 237.36C205.08 237.36 206.27 238.03 206.97 239.08C207.67 240.16 207.78 241.49 207.25 242.64L160.82 347.09C160.22 348.42 158.89 349.29 157.39 349.29Z" />
			</g>
			<g id="Layer">
				<path id="Layer" class="shp14" d="M180.99 261.53L161.69 261.53C159.63 261.53 157.91 259.85 157.91 257.75C157.91 255.65 159.59 253.97 161.69 253.97L180.99 253.97C183.05 253.97 184.77 255.65 184.77 257.75C184.77 259.85 183.05 261.53 180.99 261.53Z" />
			</g>
			<g id="Layer">
				<path id="Layer" class="shp14" d="M145.78 297.33C143.72 297.33 142 295.65 142 293.59C142 291.53 143.68 289.81 145.74 289.81L164.63 289.78C166.72 289.78 168.4 291.46 168.4 293.52C168.4 295.58 166.72 297.3 164.66 297.3L145.78 297.33L145.78 297.33Z" />
			</g>
			<g id="Layer">
				<path id="Layer" class="shp11" d="M103.72 297.54C103.68 297.54 103.65 297.54 103.61 297.54L87.49 297.16C85.43 297.12 83.75 295.37 83.82 293.31C83.85 291.25 85.64 289.6 87.67 289.64L103.79 290.02C105.85 290.06 107.53 291.81 107.46 293.87C107.42 295.9 105.74 297.54 103.72 297.54Z" />
			</g>
			<g id="Layer">
				<path id="Layer" class="shp11" d="M63.75 331.56C63.22 331.56 62.7 331.46 62.21 331.25C60.32 330.41 59.45 328.17 60.32 326.28L91.86 255.72C92.7 253.83 94.94 252.96 96.83 253.83C98.71 254.67 99.59 256.91 98.71 258.8L67.18 329.36C66.55 330.72 65.18 331.56 63.75 331.56Z" />
			</g>
		</g>
		<g id="Layer">
			<g id="Layer">
				<path id="Layer" class="shp15" d="M36.02 348.52C35.18 348.52 34.38 348.1 33.92 347.4C33.47 346.7 33.36 345.79 33.71 344.99L80.71 240.09C81.13 239.18 82 238.62 83.02 238.62L154.07 238.62C154.91 238.62 155.71 239.04 156.16 239.74C156.62 240.44 156.69 241.35 156.37 242.12L118.72 328.8C118.16 330.06 116.69 330.65 115.43 330.09C114.17 329.54 113.58 328.07 114.14 326.81L150.26 243.62L84.62 243.62L39.94 343.45L75.11 343.03L75.15 343.03C76.51 343.03 77.63 344.15 77.67 345.52C77.67 346.91 76.58 348.03 75.18 348.07L36.02 348.52C36.05 348.52 36.05 348.52 36.02 348.52Z" />
			</g>
			<g id="Layer">
				<path id="Layer" class="shp16" d="M157.39 348.07L89.24 348.07C88.4 348.07 87.6 347.65 87.14 346.91C86.69 346.21 86.62 345.31 86.97 344.54L125.99 256.74C126.55 255.48 128.05 254.88 129.31 255.48C130.57 256.04 131.16 257.54 130.57 258.8L93.12 343.03L155.78 343.03L199.98 243.62L169.03 243.52C167.63 243.52 166.52 242.4 166.52 241C166.52 239.6 167.63 238.48 169.03 238.48L169.03 238.48L203.82 238.59C204.66 238.59 205.47 239.01 205.92 239.74C206.38 240.44 206.45 241.35 206.1 242.12L159.7 346.56C159.28 347.47 158.37 348.07 157.39 348.07Z" />
			</g>
			<g id="Layer">
				<path id="Layer" class="shp15" d="M180.99 260.27L161.69 260.27C160.29 260.27 159.17 259.15 159.17 257.75C159.17 256.35 160.29 255.23 161.69 255.23L180.99 255.23C182.39 255.23 183.51 256.35 183.51 257.75C183.47 259.15 182.35 260.27 180.99 260.27Z" />
			</g>
			<g id="Layer">
				<path id="Layer" class="shp15" d="M145.78 296.07C144.38 296.07 143.26 294.95 143.26 293.55C143.26 292.16 144.38 291.04 145.78 291.04L164.66 291L164.66 291C166.06 291 167.18 292.12 167.18 293.52C167.18 294.92 166.06 296.04 164.66 296.04L145.78 296.07L145.78 296.07Z" />
			</g>
			<g id="Layer">
				<path id="Layer" class="shp16" d="M103.72 296.28C103.68 296.28 103.68 296.28 103.65 296.28L87.53 295.9C86.13 295.86 85.04 294.71 85.08 293.35C85.11 291.98 86.23 290.9 87.6 290.9C87.63 290.9 87.63 290.9 87.67 290.9L103.79 291.28C105.18 291.32 106.27 292.47 106.23 293.83C106.2 295.2 105.08 296.28 103.72 296.28Z" />
			</g>
			<g id="Layer">
				<path id="Layer" class="shp16" d="M63.75 330.3C63.4 330.3 63.05 330.23 62.73 330.09C61.48 329.54 60.92 328.03 61.48 326.77L93.02 256.21C93.57 254.95 95.08 254.39 96.34 254.95C97.6 255.51 98.16 257.01 97.6 258.27L66.06 328.84C65.6 329.78 64.69 330.3 63.75 330.3Z" />
			</g>
			<g id="Layer">
				<path id="Layer" class="shp17" d="M157.39 348.07L89.24 348.07C88.4 348.07 87.6 347.65 87.14 346.91C86.69 346.21 86.62 345.31 86.97 344.54L125.99 256.74C126.55 255.48 128.05 254.88 129.31 255.48C130.57 256.04 131.16 257.54 130.57 258.8L93.12 343.03L155.78 343.03L199.98 243.62L169.03 243.52C167.63 243.52 166.52 242.4 166.52 241C166.52 239.6 167.63 238.48 169.03 238.48L169.03 238.48L203.82 238.59C204.66 238.59 205.47 239.01 205.92 239.74C206.38 240.44 206.45 241.35 206.1 242.12L159.7 346.56C159.28 347.47 158.37 348.07 157.39 348.07Z" />
			</g>
			<g id="Layer">
				<path id="Layer" class="shp17" d="M103.72 296.28C103.68 296.28 103.68 296.28 103.65 296.28L87.53 295.9C86.13 295.86 85.04 294.71 85.08 293.35C85.11 291.98 86.23 290.9 87.6 290.9C87.63 290.9 87.63 290.9 87.67 290.9L103.79 291.28C105.18 291.32 106.27 292.47 106.23 293.83C106.2 295.2 105.08 296.28 103.72 296.28Z" />
			</g>
			<g id="Layer">
				<path id="Layer" class="shp17" d="M63.75 330.3C63.4 330.3 63.05 330.23 62.73 330.09C61.48 329.54 60.92 328.03 61.48 326.77L93.02 256.21C93.57 254.95 95.08 254.39 96.34 254.95C97.6 255.51 98.16 257.01 97.6 258.27L66.06 328.84C65.6 329.78 64.69 330.3 63.75 330.3Z" />
			</g>
		</g>
		<g id="Layer">
			<g id="Layer">
				<path id="Layer" class="shp18" d="M36.02 347.26C35.6 347.26 35.22 347.05 34.97 346.7C34.73 346.35 34.69 345.9 34.87 345.52L81.86 240.62C82.07 240.16 82.53 239.88 83.02 239.88L154.07 239.88C154.49 239.88 154.87 240.09 155.12 240.44C155.36 240.79 155.4 241.24 155.22 241.63L117.56 328.31C117.28 328.94 116.55 329.22 115.92 328.98C115.29 328.7 114.97 327.96 115.25 327.33L152.14 242.4L83.82 242.4L37.98 344.75L75.15 344.29C75.85 344.29 76.41 344.85 76.41 345.52C76.41 346.21 75.85 346.77 75.18 346.77L36.02 347.26C36.05 347.26 36.02 347.26 36.02 347.26Z" />
			</g>
			<g id="Layer">
				<path id="Layer" class="shp18" d="M157.39 346.81L89.24 346.81C88.82 346.81 88.43 346.6 88.19 346.25C87.95 345.9 87.91 345.45 88.09 345.06L127.11 257.26C127.39 256.63 128.12 256.35 128.75 256.63C129.38 256.91 129.66 257.64 129.38 258.27L91.13 344.29L156.51 344.29L201.87 242.36L169 242.26C168.3 242.26 167.74 241.7 167.74 241C167.74 240.3 168.3 239.74 169 239.74L169 239.74L203.79 239.85C204.21 239.85 204.59 240.06 204.84 240.41C205.08 240.76 205.12 241.21 204.94 241.59L158.54 346.04C158.33 346.49 157.88 346.81 157.39 346.81Z" />
			</g>
			<g id="Layer">
				<path id="Layer" class="shp18" d="M180.99 259.01L161.69 259.01C160.99 259.01 160.43 258.45 160.43 257.75C160.43 257.05 160.99 256.49 161.69 256.49L180.99 256.49C181.69 256.49 182.25 257.05 182.25 257.75C182.22 258.45 181.66 259.01 180.99 259.01Z" />
			</g>
			<g id="Layer">
				<path id="Layer" class="shp18" d="M145.78 294.81C145.08 294.81 144.52 294.25 144.52 293.55C144.52 292.86 145.08 292.3 145.78 292.3L164.66 292.26L164.66 292.26C165.36 292.26 165.92 292.82 165.92 293.52C165.92 294.22 165.36 294.78 164.66 294.78L145.78 294.81L145.78 294.81Z" />
			</g>
			<g id="Layer">
				<path id="Layer" class="shp18" d="M103.72 295.02C103.72 295.02 103.68 295.02 103.72 295.02L87.56 294.64C86.86 294.64 86.3 294.04 86.34 293.35C86.34 292.65 86.93 292.09 87.63 292.12L103.75 292.51C104.45 292.51 105.01 293.1 104.97 293.8C104.94 294.5 104.38 295.02 103.72 295.02Z" />
			</g>
			<g id="Layer">
				<path id="Layer" class="shp18" d="M63.75 329.05C63.57 329.05 63.4 329.01 63.22 328.94C62.59 328.66 62.31 327.93 62.59 327.3L94.13 256.74C94.41 256.11 95.15 255.83 95.78 256.11C96.41 256.39 96.69 257.12 96.41 257.75L64.87 328.31C64.69 328.8 64.24 329.05 63.75 329.05Z" />
			</g>
		</g>
	</g>
</svg>