<svg width="834" height="898" xmlns="http://www.w3.org/2000/svg" xmlns:xlink="http://www.w3.org/1999/xlink" overflow="hidden"><defs><clipPath id="clip0"><rect x="-2296" y="742" width="834" height="898"/></clipPath><clipPath id="clip1"><rect x="-2206" y="748" width="630" height="891"/></clipPath><clipPath id="clip2"><rect x="-2206" y="748" width="630" height="891"/></clipPath><clipPath id="clip3"><rect x="-2206" y="748" width="630" height="891"/></clipPath></defs><g clip-path="url(#clip0)" transform="translate(2296 -742)"><path d="M-2290.5 1161C-2290.5 933.182-2105.82 748.5-1878 748.5-1650.18 748.5-1465.5 933.182-1465.5 1161-1465.5 1388.82-1650.18 1573.5-1878 1573.5-2105.82 1573.5-2290.5 1388.82-2290.5 1161Z" stroke="#FFFFFF" stroke-width="4.58333" stroke-linecap="butt" stroke-linejoin="miter" stroke-miterlimit="8" stroke-opacity="1" fill="#FFFFFF" fill-rule="evenodd" fill-opacity="1"/><g clip-path="url(#clip1)"><g clip-path="url(#clip2)"><g clip-path="url(#clip3)"><path d="M141.163 709.514 114.22 709.514C113.903 709.514 113.586 709.197 113.586 708.88L113.586 699.053C113.586 698.736 113.903 698.419 114.22 698.419L141.163 698.419C141.48 698.419 141.797 698.736 141.797 699.053L141.797 708.88C141.797 709.197 141.48 709.514 141.163 709.514Z" fill="#E83A8D" fill-rule="nonzero" fill-opacity="1" transform="matrix(1 0 0 1.00099 -2205 748.277)"/><path d="M141.163 696.306 114.22 696.306C113.903 696.306 113.586 695.989 113.586 695.672L113.586 685.846C113.586 685.529 113.903 685.212 114.22 685.212L141.163 685.212C141.48 685.212 141.797 685.529 141.797 685.846L141.797 695.672C141.797 695.989 141.48 696.306 141.163 696.306Z" fill="#E83A8D" fill-rule="nonzero" fill-opacity="1" transform="matrix(1 0 0 1.00099 -2205 748.277)"/><path d="M141.163 683.099 114.22 683.099C113.903 683.099 113.586 682.782 113.586 682.465L113.586 672.638C113.586 672.321 113.903 672.004 114.22 672.004L141.163 672.004C141.48 672.004 141.797 672.321 141.797 672.638L141.797 682.465C141.797 682.782 141.48 683.099 141.163 683.099Z" fill="#E83A8D" fill-rule="nonzero" fill-opacity="1" transform="matrix(1 0 0 1.00099 -2205 748.277)"/><path d="M207.201 669.891 114.22 669.891C113.903 669.891 113.586 669.574 113.586 669.257L113.586 659.325C113.586 659.008 113.903 658.691 114.22 658.691L207.201 658.691C207.518 658.691 207.835 659.008 207.835 659.325L207.835 669.151C207.835 669.574 207.624 669.891 207.201 669.891Z" fill="#E83A8D" fill-rule="nonzero" fill-opacity="1" transform="matrix(1 0 0 1.00099 -2205 748.277)"/><path d="M423.384 630.162 330.402 630.162C330.085 630.162 329.768 629.845 329.768 629.528L329.768 619.702C329.768 619.385 330.085 619.068 330.402 619.068L423.384 619.068C423.701 619.068 424.018 619.385 424.018 619.702L424.018 629.528C424.018 629.951 423.806 630.162 423.384 630.162Z" fill="#E83A8D" fill-rule="nonzero" fill-opacity="1" transform="matrix(1 0 0 1.00099 -2205 748.277)"/><path d="M141.163 656.683 114.22 656.683C113.903 656.683 113.586 656.366 113.586 656.049L113.586 646.223C113.586 645.906 113.903 645.589 114.22 645.589L141.163 645.589C141.48 645.589 141.797 645.906 141.797 646.223L141.797 656.049C141.797 656.366 141.48 656.683 141.163 656.683Z" fill="#E83A8D" fill-rule="nonzero" fill-opacity="1" transform="matrix(1 0 0 1.00099 -2205 748.277)"/><path d="M141.163 643.476 114.22 643.476C113.903 643.476 113.586 643.159 113.586 642.842L113.586 632.91C113.586 632.593 113.903 632.276 114.22 632.276L141.163 632.276C141.48 632.276 141.797 632.593 141.797 632.91L141.797 642.736C141.797 643.159 141.48 643.476 141.163 643.476Z" fill="#E83A8D" fill-rule="nonzero" fill-opacity="1" transform="matrix(1 0 0 1.00099 -2205 748.277)"/><path d="M141.163 630.162 114.22 630.162C113.903 630.162 113.586 629.845 113.586 629.528L113.586 619.702C113.586 619.385 113.903 619.068 114.22 619.068L141.163 619.068C141.48 619.068 141.797 619.385 141.797 619.702L141.797 629.528C141.797 629.951 141.48 630.162 141.163 630.162Z" fill="#E83A8D" fill-rule="nonzero" fill-opacity="1" transform="matrix(1 0 0 1.00099 -2205 748.277)"/><path d="M207.201 709.514 180.258 709.514C179.941 709.514 179.624 709.197 179.624 708.88L179.624 699.053C179.624 698.736 179.941 698.419 180.258 698.419L207.201 698.419C207.518 698.419 207.835 698.736 207.835 699.053L207.835 708.88C207.835 709.197 207.624 709.514 207.201 709.514Z" fill="#E83A8D" fill-rule="nonzero" fill-opacity="1" transform="matrix(1 0 0 1.00099 -2205 748.277)"/><path d="M207.201 696.306 180.258 696.306C179.941 696.306 179.624 695.989 179.624 695.672L179.624 685.846C179.624 685.529 179.941 685.212 180.258 685.212L207.201 685.212C207.518 685.212 207.835 685.529 207.835 685.846L207.835 695.672C207.835 695.989 207.624 696.306 207.201 696.306Z" fill="#E83A8D" fill-rule="nonzero" fill-opacity="1" transform="matrix(1 0 0 1.00099 -2205 748.277)"/><path d="M207.201 683.099 180.258 683.099C179.941 683.099 179.624 682.782 179.624 682.465L179.624 672.638C179.624 672.321 179.941 672.004 180.258 672.004L207.201 672.004C207.518 672.004 207.835 672.321 207.835 672.638L207.835 682.465C207.835 682.782 207.624 683.099 207.201 683.099Z" fill="#E83A8D" fill-rule="nonzero" fill-opacity="1" transform="matrix(1 0 0 1.00099 -2205 748.277)"/><path d="M207.201 656.683 180.258 656.683C179.941 656.683 179.624 656.366 179.624 656.049L179.624 646.223C179.624 645.906 179.941 645.589 180.258 645.589L207.201 645.589C207.518 645.589 207.835 645.906 207.835 646.223L207.835 656.049C207.835 656.366 207.624 656.683 207.201 656.683Z" fill="#E83A8D" fill-rule="nonzero" fill-opacity="1" transform="matrix(1 0 0 1.00099 -2205 748.277)"/><path d="M207.201 643.476 180.258 643.476C179.941 643.476 179.624 643.159 179.624 642.842L179.624 632.91C179.624 632.593 179.941 632.276 180.258 632.276L207.201 632.276C207.518 632.276 207.835 632.593 207.835 632.91L207.835 642.736C207.835 643.159 207.624 643.476 207.201 643.476Z" fill="#E83A8D" fill-rule="nonzero" fill-opacity="1" transform="matrix(1 0 0 1.00099 -2205 748.277)"/><path d="M207.201 630.162 180.258 630.162C179.941 630.162 179.624 629.845 179.624 629.528L179.624 619.702C179.624 619.385 179.941 619.068 180.258 619.068L207.201 619.068C207.518 619.068 207.835 619.385 207.835 619.702L207.835 629.528C207.835 629.951 207.624 630.162 207.201 630.162Z" fill="#E83A8D" fill-rule="nonzero" fill-opacity="1" transform="matrix(1 0 0 1.00099 -2205 748.277)"/><path d="M282.221 669.891 255.277 669.891C254.96 669.891 254.643 669.574 254.643 669.257L254.643 659.325C254.643 659.008 254.96 658.691 255.277 658.691L282.221 658.691C282.538 658.691 282.855 659.008 282.855 659.325L282.855 669.151C282.855 669.574 282.538 669.891 282.221 669.891Z" fill="#E83A8D" fill-rule="nonzero" fill-opacity="1" transform="matrix(1 0 0 1.00099 -2205 748.277)"/><path d="M307.157 709.514 230.447 709.514C230.13 709.514 229.813 709.197 229.813 708.88L229.813 699.053C229.813 698.736 230.13 698.419 230.447 698.419L307.157 698.419C307.474 698.419 307.791 698.736 307.791 699.053L307.791 708.88C307.791 709.197 307.474 709.514 307.157 709.514Z" fill="#E83A8D" fill-rule="nonzero" fill-opacity="1" transform="matrix(1 0 0 1.00099 -2205 748.277)"/><path d="M407.218 669.891 330.508 669.891C330.191 669.891 329.874 669.574 329.874 669.257L329.874 659.325C329.874 659.008 330.191 658.691 330.508 658.691L407.218 658.691C407.535 658.691 407.852 659.008 407.852 659.325L407.852 669.151C407.852 669.574 407.535 669.891 407.218 669.891Z" fill="#E83A8D" fill-rule="nonzero" fill-opacity="1" transform="matrix(1 0 0 1.00099 -2205 748.277)"/><path d="M282.221 696.306 255.277 696.306C254.96 696.306 254.643 695.989 254.643 695.672L254.643 685.846C254.643 685.529 254.96 685.212 255.277 685.212L282.221 685.212C282.538 685.212 282.855 685.529 282.855 685.846L282.855 695.672C282.855 695.989 282.538 696.306 282.221 696.306Z" fill="#E83A8D" fill-rule="nonzero" fill-opacity="1" transform="matrix(1 0 0 1.00099 -2205 748.277)"/><path d="M282.221 683.099 255.277 683.099C254.96 683.099 254.643 682.782 254.643 682.465L254.643 672.638C254.643 672.321 254.96 672.004 255.277 672.004L282.221 672.004C282.538 672.004 282.855 672.321 282.855 672.638L282.855 682.465C282.855 682.782 282.538 683.099 282.221 683.099Z" fill="#E83A8D" fill-rule="nonzero" fill-opacity="1" transform="matrix(1 0 0 1.00099 -2205 748.277)"/><path d="M282.221 656.683 255.277 656.683C254.96 656.683 254.643 656.366 254.643 656.049L254.643 646.223C254.643 645.906 254.96 645.589 255.277 645.589L282.221 645.589C282.538 645.589 282.855 645.906 282.855 646.223L282.855 656.049C282.855 656.366 282.538 656.683 282.221 656.683Z" fill="#E83A8D" fill-rule="nonzero" fill-opacity="1" transform="matrix(1 0 0 1.00099 -2205 748.277)"/><path d="M282.221 643.476 255.277 643.476C254.96 643.476 254.643 643.159 254.643 642.842L254.643 632.91C254.643 632.593 254.96 632.276 255.277 632.276L282.221 632.276C282.538 632.276 282.855 632.593 282.855 632.91L282.855 642.736C282.855 643.159 282.538 643.476 282.221 643.476Z" fill="#E83A8D" fill-rule="nonzero" fill-opacity="1" transform="matrix(1 0 0 1.00099 -2205 748.277)"/><path d="M307.157 630.162 230.447 630.162C230.13 630.162 229.813 629.845 229.813 629.528L229.813 619.702C229.813 619.385 230.13 619.068 230.447 619.068L307.157 619.068C307.474 619.068 307.791 619.385 307.791 619.702L307.791 629.528C307.791 629.951 307.474 630.162 307.157 630.162Z" fill="#E83A8D" fill-rule="nonzero" fill-opacity="1" transform="matrix(1 0 0 1.00099 -2205 748.277)"/><path d="M489.845 669.891 462.901 669.891C462.584 669.891 462.267 669.574 462.267 669.257L462.267 659.325C462.267 659.008 462.584 658.691 462.901 658.691L489.845 658.691C490.161 658.691 490.478 659.008 490.478 659.325L490.478 669.151C490.478 669.574 490.161 669.891 489.845 669.891Z" fill="#E83A8D" fill-rule="nonzero" fill-opacity="1" transform="matrix(1 0 0 1.00099 -2205 748.277)"/><path d="M514.675 709.514 437.965 709.514C437.648 709.514 437.331 709.197 437.331 708.88L437.331 699.053C437.331 698.736 437.648 698.419 437.965 698.419L514.675 698.419C514.992 698.419 515.309 698.736 515.309 699.053L515.309 708.88C515.309 709.197 515.097 709.514 514.675 709.514Z" fill="#E83A8D" fill-rule="nonzero" fill-opacity="1" transform="matrix(1 0 0 1.00099 -2205 748.277)"/><path d="M489.845 696.306 462.901 696.306C462.584 696.306 462.267 695.989 462.267 695.672L462.267 685.846C462.267 685.529 462.584 685.212 462.901 685.212L489.845 685.212C490.161 685.212 490.478 685.529 490.478 685.846L490.478 695.672C490.478 695.989 490.161 696.306 489.845 696.306Z" fill="#E83A8D" fill-rule="nonzero" fill-opacity="1" transform="matrix(1 0 0 1.00099 -2205 748.277)"/><path d="M489.845 683.099 462.901 683.099C462.584 683.099 462.267 682.782 462.267 682.465L462.267 672.638C462.267 672.321 462.584 672.004 462.901 672.004L489.845 672.004C490.161 672.004 490.478 672.321 490.478 672.638L490.478 682.465C490.478 682.782 490.161 683.099 489.845 683.099Z" fill="#E83A8D" fill-rule="nonzero" fill-opacity="1" transform="matrix(1 0 0 1.00099 -2205 748.277)"/><path d="M489.845 656.683 462.901 656.683C462.584 656.683 462.267 656.366 462.267 656.049L462.267 646.223C462.267 645.906 462.584 645.589 462.901 645.589L489.845 645.589C490.161 645.589 490.478 645.906 490.478 646.223L490.478 656.049C490.478 656.366 490.161 656.683 489.845 656.683Z" fill="#E83A8D" fill-rule="nonzero" fill-opacity="1" transform="matrix(1 0 0 1.00099 -2205 748.277)"/><path d="M489.845 643.476 462.901 643.476C462.584 643.476 462.267 643.159 462.267 642.842L462.267 632.91C462.267 632.593 462.584 632.276 462.901 632.276L489.845 632.276C490.161 632.276 490.478 632.593 490.478 632.91L490.478 642.736C490.478 643.159 490.161 643.476 489.845 643.476Z" fill="#E83A8D" fill-rule="nonzero" fill-opacity="1" transform="matrix(1 0 0 1.00099 -2205 748.277)"/><path d="M514.675 630.162 437.965 630.162C437.648 630.162 437.331 629.845 437.331 629.528L437.331 619.702C437.331 619.385 437.648 619.068 437.965 619.068L514.675 619.068C514.992 619.068 515.309 619.385 515.309 619.702L515.309 629.528C515.309 629.951 515.097 630.162 514.675 630.162Z" fill="#E83A8D" fill-rule="nonzero" fill-opacity="1" transform="matrix(1 0 0 1.00099 -2205 748.277)"/><path d="M357.346 709.514 330.402 709.514C330.085 709.514 329.768 709.197 329.768 708.88L329.768 699.053C329.768 698.736 330.085 698.419 330.402 698.419L357.346 698.419C357.663 698.419 357.98 698.736 357.98 699.053L357.98 708.88C357.98 709.197 357.663 709.514 357.346 709.514Z" fill="#E83A8D" fill-rule="nonzero" fill-opacity="1" transform="matrix(1 0 0 1.00099 -2205 748.277)"/><path d="M357.346 696.306 330.402 696.306C330.085 696.306 329.768 695.989 329.768 695.672L329.768 685.846C329.768 685.529 330.085 685.212 330.402 685.212L357.346 685.212C357.663 685.212 357.98 685.529 357.98 685.846L357.98 695.672C357.98 695.989 357.663 696.306 357.346 696.306Z" fill="#E83A8D" fill-rule="nonzero" fill-opacity="1" transform="matrix(1 0 0 1.00099 -2205 748.277)"/><path d="M357.346 683.099 330.402 683.099C330.085 683.099 329.768 682.782 329.768 682.465L329.768 672.638C329.768 672.321 330.085 672.004 330.402 672.004L357.346 672.004C357.663 672.004 357.98 672.321 357.98 672.638L357.98 682.465C357.98 682.782 357.663 683.099 357.346 683.099Z" fill="#E83A8D" fill-rule="nonzero" fill-opacity="1" transform="matrix(1 0 0 1.00099 -2205 748.277)"/><path d="M357.346 656.683 330.402 656.683C330.085 656.683 329.768 656.366 329.768 656.049L329.768 646.223C329.768 645.906 330.085 645.589 330.402 645.589L357.346 645.589C357.663 645.589 357.98 645.906 357.98 646.223L357.98 656.049C357.98 656.366 357.663 656.683 357.346 656.683Z" fill="#E83A8D" fill-rule="nonzero" fill-opacity="1" transform="matrix(1 0 0 1.00099 -2205 748.277)"/><path d="M357.346 643.476 330.402 643.476C330.085 643.476 329.768 643.159 329.768 642.842L329.768 632.91C329.768 632.593 330.085 632.276 330.402 632.276L357.346 632.276C357.663 632.276 357.98 632.593 357.98 632.91L357.98 642.736C357.98 643.159 357.663 643.476 357.346 643.476Z" fill="#E83A8D" fill-rule="nonzero" fill-opacity="1" transform="matrix(1 0 0 1.00099 -2205 748.277)"/><path d="M60.9664 527.671C55.8947 527.671 51.1399 525.135 48.2871 520.803 45.4342 516.471 45.0116 510.977 47.1248 506.328L189.133 189.345C191.563 183.85 196.952 180.363 202.975 180.363L417.678 180.363C422.75 180.363 427.505 182.899 430.357 187.231 433.21 191.458 433.633 196.952 431.625 201.601L317.828 463.535C314.447 471.248 305.572 474.735 297.858 471.354 290.145 467.973 286.658 459.097 290.04 451.384L394.538 210.582 212.801 210.582 84.5288 497.029 178.99 495.867C179.095 495.867 179.095 495.867 179.201 495.867 187.443 495.867 194.311 502.524 194.416 510.871 194.522 519.218 187.76 526.086 179.412 526.192L61.1777 527.671C61.0721 527.671 61.0721 527.671 60.9664 527.671Z" fill="#0090D1" fill-rule="nonzero" fill-opacity="1" transform="matrix(1 0 0 1.00099 -2205 748.277)"/><path d="M427.716 526.192 221.782 526.192C216.605 526.192 211.85 523.55 209.103 519.324 206.356 514.992 205.828 509.603 207.941 504.848L325.859 239.534C329.24 231.926 338.221 228.439 345.829 231.82 353.436 235.201 356.923 244.183 353.542 251.79L245.134 495.867 417.784 495.867 544.577 210.582 462.69 210.371C454.342 210.371 447.58 203.503 447.58 195.156 447.58 186.809 454.342 180.046 462.795 180.046 462.795 180.046 462.795 180.046 462.795 180.046L567.928 180.363C573.105 180.363 577.86 183.005 580.607 187.337 583.354 191.669 583.777 197.058 581.77 201.707L441.557 517.211C439.127 522.705 433.738 526.192 427.716 526.192Z" fill="#D11076" fill-rule="nonzero" fill-opacity="1" transform="matrix(1 0 0 1.00099 -2205 748.277)"/><path d="M499.037 260.983 440.712 260.983C432.365 260.983 425.497 254.22 425.497 245.768 425.497 237.42 432.259 230.552 440.712 230.552L499.037 230.552C507.384 230.552 514.252 237.315 514.252 245.768 514.147 254.115 507.384 260.983 499.037 260.983Z" fill="#0090D1" fill-rule="nonzero" fill-opacity="1" transform="matrix(1 0 0 1.00099 -2205 748.277)"/><path d="M392.636 369.18C384.289 369.18 377.527 362.417 377.421 354.07 377.421 345.723 384.183 338.855 392.531 338.855L449.588 338.749C449.588 338.749 449.588 338.749 449.588 338.749 457.935 338.749 464.697 345.512 464.803 353.859 464.803 362.206 458.041 369.074 449.693 369.074L392.636 369.18C392.636 369.18 392.636 369.18 392.636 369.18Z" fill="#0090D1" fill-rule="nonzero" fill-opacity="1" transform="matrix(1 0 0 1.00099 -2205 748.277)"/><path d="M265.526 369.814C265.42 369.814 265.315 369.814 265.209 369.814L216.499 368.651C208.152 368.44 201.496 361.466 201.707 353.119 201.918 344.878 208.681 338.327 216.816 338.327 216.922 338.327 217.028 338.327 217.133 338.327L265.843 339.489C274.19 339.7 280.847 346.674 280.636 355.021 280.53 363.263 273.768 369.814 265.526 369.814Z" fill="#D11076" fill-rule="nonzero" fill-opacity="1" transform="matrix(1 0 0 1.00099 -2205 748.277)"/><path d="M144.756 472.622C142.642 472.622 140.635 472.199 138.627 471.248 131.02 467.867 127.533 458.886 131.02 451.173L226.326 237.949C229.707 230.341 238.688 226.854 246.402 230.341 254.009 233.722 257.496 242.703 254.009 250.417L158.703 463.641C156.061 469.241 150.567 472.622 144.756 472.622Z" fill="#D11076" fill-rule="nonzero" fill-opacity="1" transform="matrix(1 0 0 1.00099 -2205 748.277)"/><path d="M60.9664 523.867C57.1626 523.867 53.5701 521.965 51.4569 518.69 49.3437 515.414 49.0267 511.294 50.6116 507.807L192.62 190.824C194.416 186.703 198.537 184.061 202.975 184.061L417.678 184.061C421.482 184.061 425.074 185.963 427.188 189.239 429.301 192.409 429.618 196.529 428.138 200.016L314.342 461.95C311.806 467.761 305.149 470.403 299.338 467.867 293.526 465.331 290.885 458.674 293.421 452.863L400.244 206.779 210.371 206.779 78.6118 500.939 178.99 499.671C178.99 499.671 179.095 499.671 179.095 499.671 185.329 499.671 190.401 504.637 190.507 510.871 190.612 517.105 185.541 522.282 179.307 522.388L61.0721 523.867C61.0721 523.867 61.0721 523.867 60.9664 523.867Z" fill="#00AAE4" fill-rule="nonzero" fill-opacity="1" transform="matrix(1 0 0 1.00099 -2205 748.277)"/><path d="M427.716 522.388 221.782 522.388C217.979 522.388 214.386 520.486 212.273 517.211 210.16 513.935 209.843 509.92 211.428 506.433L329.345 241.118C331.881 235.413 338.644 232.771 344.349 235.307 350.055 237.843 352.696 244.605 350.161 250.311L239.322 499.671 420.32 499.671 550.494 206.779 462.795 206.567C456.561 206.567 451.384 201.39 451.49 195.156 451.49 188.922 456.561 183.85 462.901 183.85 462.901 183.85 462.901 183.85 462.901 183.85L568.034 184.167C571.837 184.167 575.43 186.175 577.543 189.345 579.656 192.62 579.973 196.635 578.388 200.122L438.071 515.731C436.274 519.747 432.259 522.388 427.716 522.388Z" fill="#E83A8D" fill-rule="nonzero" fill-opacity="1" transform="matrix(1 0 0 1.00099 -2205 748.277)"/><path d="M499.037 257.179 440.712 257.179C434.478 257.179 429.301 252.107 429.301 245.768 429.301 239.428 434.372 234.356 440.712 234.356L499.037 234.356C505.271 234.356 510.448 239.428 510.448 245.768 510.448 252.107 505.271 257.179 499.037 257.179Z" fill="#00AAE4" fill-rule="nonzero" fill-opacity="1" transform="matrix(1 0 0 1.00099 -2205 748.277)"/><path d="M392.636 365.376C386.402 365.376 381.225 360.304 381.225 354.07 381.225 347.836 386.297 342.659 392.531 342.659L449.588 342.553C455.927 342.553 460.999 347.625 460.999 353.859 460.999 360.093 455.927 365.27 449.693 365.27L392.636 365.376C392.636 365.376 392.636 365.376 392.636 365.376Z" fill="#00AAE4" fill-rule="nonzero" fill-opacity="1" transform="matrix(1 0 0 1.00099 -2205 748.277)"/><path d="M265.526 366.01C265.42 366.01 265.315 366.01 265.209 366.01L216.499 364.848C210.265 364.742 205.194 359.459 205.405 353.225 205.511 346.991 210.899 342.025 217.028 342.13L265.737 343.293C271.971 343.398 277.043 348.681 276.832 354.915 276.726 361.044 271.655 366.01 265.526 366.01Z" fill="#E83A8D" fill-rule="nonzero" fill-opacity="1" transform="matrix(1 0 0 1.00099 -2205 748.277)"/><path d="M144.756 468.818C143.171 468.818 141.586 468.501 140.107 467.867 134.401 465.331 131.759 458.569 134.401 452.863L229.707 239.639C232.243 233.934 239.005 231.292 244.711 233.934 250.417 236.469 253.058 243.232 250.417 248.937L155.11 462.161C153.208 466.282 149.088 468.818 144.756 468.818Z" fill="#E83A8D" fill-rule="nonzero" fill-opacity="1" transform="matrix(1 0 0 1.00099 -2205 748.277)"/><path d="M60.9664 520.064C58.4305 520.064 56.0003 518.796 54.6268 516.682 53.2532 514.569 52.9362 511.822 53.9928 509.392L196.001 192.409C197.269 189.662 199.911 187.971 202.975 187.971L417.678 187.971C420.214 187.971 422.644 189.239 424.018 191.352 425.391 193.465 425.603 196.213 424.652 198.537L310.855 460.471C309.164 464.275 304.726 466.071 300.923 464.38 297.119 462.69 295.323 458.252 297.013 454.448L406.161 203.08 207.835 203.08 72.8004 504.743 179.095 503.475C179.095 503.475 179.201 503.475 179.201 503.475 183.322 503.475 186.703 506.856 186.809 510.977 186.809 515.203 183.533 518.584 179.307 518.69L60.9664 520.064C61.0721 520.064 61.0721 520.064 60.9664 520.064Z" fill="#8ED2F0" fill-rule="nonzero" fill-opacity="1" transform="matrix(1 0 0 1.00099 -2205 748.277)"/><path d="M427.716 518.69 221.782 518.69C219.247 518.69 216.816 517.422 215.443 515.203 214.069 513.09 213.858 510.343 214.915 508.018L332.832 242.703C334.523 238.9 339.066 237.103 342.87 238.9 346.674 240.59 348.47 245.134 346.674 248.937L233.511 503.475 422.855 503.475 556.411 203.08 462.901 202.763C458.674 202.763 455.293 199.382 455.293 195.156 455.293 190.929 458.674 187.548 462.901 187.548 462.901 187.548 462.901 187.548 462.901 187.548L568.034 187.865C570.57 187.865 573 189.133 574.373 191.352 575.747 193.465 575.958 196.213 574.902 198.537L434.689 514.147C433.422 516.894 430.674 518.69 427.716 518.69Z" fill="#CC87B1" fill-rule="nonzero" fill-opacity="1" transform="matrix(1 0 0 1.00099 -2205 748.277)"/><path d="M499.037 253.375 440.712 253.375C436.486 253.375 433.105 249.994 433.105 245.768 433.105 241.541 436.486 238.16 440.712 238.16L499.037 238.16C503.263 238.16 506.645 241.541 506.645 245.768 506.539 249.994 503.158 253.375 499.037 253.375Z" fill="#8ED2F0" fill-rule="nonzero" fill-opacity="1" transform="matrix(1 0 0 1.00099 -2205 748.277)"/><path d="M392.636 361.572C388.41 361.572 385.029 358.191 385.029 353.964 385.029 349.738 388.41 346.357 392.636 346.357L449.693 346.251C449.693 346.251 449.693 346.251 449.693 346.251 453.92 346.251 457.301 349.632 457.301 353.859 457.301 358.085 453.92 361.466 449.693 361.466L392.636 361.572C392.636 361.572 392.636 361.572 392.636 361.572Z" fill="#8ED2F0" fill-rule="nonzero" fill-opacity="1" transform="matrix(1 0 0 1.00099 -2205 748.277)"/><path d="M265.526 362.206C265.42 362.206 265.42 362.206 265.315 362.206L216.605 361.044C212.379 360.938 209.103 357.451 209.209 353.33 209.314 349.21 212.696 345.934 216.816 345.934 216.922 345.934 216.922 345.934 217.028 345.934L265.737 347.096C269.964 347.202 273.239 350.689 273.134 354.81 273.028 358.931 269.647 362.206 265.526 362.206Z" fill="#CC87B1" fill-rule="nonzero" fill-opacity="1" transform="matrix(1 0 0 1.00099 -2205 748.277)"/><path d="M144.756 465.014C143.699 465.014 142.642 464.803 141.691 464.38 137.888 462.69 136.197 458.146 137.888 454.342L233.194 241.118C234.884 237.315 239.428 235.624 243.232 237.315 247.035 239.005 248.726 243.549 247.035 247.352L151.729 460.576C150.356 463.429 147.608 465.014 144.756 465.014Z" fill="#CC87B1" fill-rule="nonzero" fill-opacity="1" transform="matrix(1 0 0 1.00099 -2205 748.277)"/><path d="M427.716 518.69 221.782 518.69C219.247 518.69 216.816 517.422 215.443 515.203 214.069 513.09 213.858 510.343 214.915 508.018L332.832 242.703C334.523 238.9 339.066 237.103 342.87 238.9 346.674 240.59 348.47 245.134 346.674 248.937L233.511 503.475 422.855 503.475 556.411 203.08 462.901 202.763C458.674 202.763 455.293 199.382 455.293 195.156 455.293 190.929 458.674 187.548 462.901 187.548 462.901 187.548 462.901 187.548 462.901 187.548L568.034 187.865C570.57 187.865 573 189.133 574.373 191.352 575.747 193.465 575.958 196.213 574.902 198.537L434.689 514.147C433.422 516.894 430.674 518.69 427.716 518.69Z" fill="#DA599C" fill-rule="nonzero" fill-opacity="1" transform="matrix(1 0 0 1.00099 -2205 748.277)"/><path d="M265.526 362.206C265.42 362.206 265.42 362.206 265.315 362.206L216.605 361.044C212.379 360.938 209.103 357.451 209.209 353.33 209.314 349.21 212.696 345.934 216.816 345.934 216.922 345.934 216.922 345.934 217.028 345.934L265.737 347.096C269.964 347.202 273.239 350.689 273.134 354.81 273.028 358.931 269.647 362.206 265.526 362.206Z" fill="#DA599C" fill-rule="nonzero" fill-opacity="1" transform="matrix(1 0 0 1.00099 -2205 748.277)"/><path d="M144.756 465.014C143.699 465.014 142.642 464.803 141.691 464.38 137.888 462.69 136.197 458.146 137.888 454.342L233.194 241.118C234.884 237.315 239.428 235.624 243.232 237.315 247.035 239.005 248.726 243.549 247.035 247.352L151.729 460.576C150.356 463.429 147.608 465.014 144.756 465.014Z" fill="#DA599C" fill-rule="nonzero" fill-opacity="1" transform="matrix(1 0 0 1.00099 -2205 748.277)"/><path d="M60.9664 516.26C59.6985 516.26 58.5362 515.626 57.7966 514.569 57.057 513.513 56.9513 512.139 57.4796 510.977L199.488 193.994C200.122 192.62 201.496 191.775 202.975 191.775L417.678 191.775C418.946 191.775 420.108 192.409 420.848 193.465 421.587 194.522 421.693 195.896 421.165 197.058L307.368 458.991C306.523 460.893 304.304 461.739 302.402 460.999 300.5 460.154 299.549 457.935 300.394 456.033L411.867 199.382 205.405 199.382 66.8834 508.652 179.201 507.279C181.314 507.279 183.005 508.969 183.005 510.977 183.005 513.09 181.314 514.781 179.307 514.781L60.9664 516.26C61.0721 516.26 60.9664 516.26 60.9664 516.26Z" fill="#F8F9FA" fill-rule="nonzero" fill-opacity="1" transform="matrix(1 0 0 1.00099 -2205 748.277)"/><path d="M427.716 514.886 221.782 514.886C220.515 514.886 219.352 514.252 218.613 513.196 217.873 512.139 217.767 510.765 218.296 509.603L336.213 244.288C337.059 242.386 339.278 241.541 341.179 242.386 343.081 243.232 343.927 245.451 343.081 247.352L227.488 507.279 425.074 507.279 562.117 199.277 462.795 198.96C460.682 198.96 458.991 197.269 458.991 195.156 458.991 193.043 460.682 191.352 462.795 191.352 462.795 191.352 462.795 191.352 462.795 191.352L567.928 191.669C569.196 191.669 570.358 192.303 571.098 193.36 571.837 194.416 571.943 195.79 571.415 196.952L431.203 512.562C430.569 513.935 429.195 514.886 427.716 514.886Z" fill="#F8F9FA" fill-rule="nonzero" fill-opacity="1" transform="matrix(1 0 0 1.00099 -2205 748.277)"/><path d="M499.037 249.571 440.712 249.571C438.599 249.571 436.908 247.881 436.908 245.768 436.908 243.654 438.599 241.964 440.712 241.964L499.037 241.964C501.15 241.964 502.841 243.654 502.841 245.768 502.735 247.881 501.045 249.571 499.037 249.571Z" fill="#F8F9FA" fill-rule="nonzero" fill-opacity="1" transform="matrix(1 0 0 1.00099 -2205 748.277)"/><path d="M392.636 357.768C390.523 357.768 388.833 356.078 388.833 353.964 388.833 351.851 390.523 350.161 392.636 350.161L449.693 350.055C449.693 350.055 449.693 350.055 449.693 350.055 451.807 350.055 453.497 351.746 453.497 353.859 453.497 355.972 451.807 357.663 449.693 357.663L392.636 357.768C392.636 357.768 392.636 357.768 392.636 357.768Z" fill="#F8F9FA" fill-rule="nonzero" fill-opacity="1" transform="matrix(1 0 0 1.00099 -2205 748.277)"/><path d="M265.526 358.402C265.526 358.402 265.42 358.402 265.526 358.402L216.711 357.24C214.598 357.24 212.907 355.444 213.013 353.33 213.013 351.217 214.809 349.527 216.922 349.632L265.632 350.795C267.745 350.795 269.436 352.591 269.33 354.704 269.224 356.817 267.534 358.402 265.526 358.402Z" fill="#F8F9FA" fill-rule="nonzero" fill-opacity="1" transform="matrix(1 0 0 1.00099 -2205 748.277)"/><path d="M144.756 461.21C144.227 461.21 143.699 461.105 143.171 460.893 141.269 460.048 140.423 457.829 141.269 455.927L236.575 242.703C237.42 240.801 239.639 239.956 241.541 240.801 243.443 241.647 244.288 243.866 243.443 245.768L148.137 458.991C147.608 460.471 146.235 461.21 144.756 461.21Z" fill="#F8F9FA" fill-rule="nonzero" fill-opacity="1" transform="matrix(1 0 0 1.00099 -2205 748.277)"/></g></g></g></g></svg>