<svg width="880" height="897" xmlns="http://www.w3.org/2000/svg" xmlns:xlink="http://www.w3.org/1999/xlink" overflow="hidden"><defs><clipPath id="clip0"><rect x="-2200" y="-288" width="880" height="897"/></clipPath><clipPath id="clip1"><rect x="-2197" y="-285" width="874" height="894"/></clipPath><clipPath id="clip2"><rect x="-2197" y="-285" width="874" height="894"/></clipPath><clipPath id="clip3"><rect x="-2197" y="-285" width="874" height="940"/></clipPath><clipPath id="clip4"><rect x="-2197" y="-285" width="874" height="940"/></clipPath><clipPath id="clip5"><rect x="-2103" y="-279" width="661" height="933"/></clipPath><clipPath id="clip6"><rect x="-2103" y="-279" width="661" height="933"/></clipPath><clipPath id="clip7"><rect x="-2103" y="-279" width="661" height="933"/></clipPath></defs><g clip-path="url(#clip0)" transform="translate(2200 288)"><path d="M-2197 171.5C-2197-69.5723-2001.35-265-1760-265-1518.65-265-1323-69.5723-1323 171.5-1323 412.572-1518.65 608-1760 608-2001.35 608-2197 412.572-2197 171.5Z" fill="#FFFFFF" fill-rule="evenodd" fill-opacity="1"/><g clip-path="url(#clip1)"><g clip-path="url(#clip2)"><g clip-path="url(#clip3)"><g clip-path="url(#clip4)"><path d="M-2396.06 1214.51C-2396.06 976.19-2202.87 782.997-1964.55 782.997-1726.23 782.997-1533.04 976.19-1533.04 1214.51-1533.04 1452.83-1726.23 1646.02-1964.55 1646.02-2202.87 1646.02-2396.06 1452.83-2396.06 1214.51Z" stroke="#FFFFFF" stroke-width="4.79457" stroke-linecap="butt" stroke-linejoin="miter" stroke-miterlimit="8" stroke-opacity="1" fill="#FFFFFF" fill-rule="evenodd" fill-opacity="1" transform="matrix(1.00179 0 0 1 209.119 -1061.2)"/><g clip-path="url(#clip5)"><g clip-path="url(#clip6)"><g clip-path="url(#clip7)"><path d="M147.815 742.949 119.602 742.949C119.271 742.949 118.939 742.617 118.939 742.285L118.939 731.995C118.939 731.663 119.271 731.331 119.602 731.331L147.815 731.331C148.147 731.331 148.479 731.663 148.479 731.995L148.479 742.285C148.479 742.617 148.147 742.949 147.815 742.949Z" fill="#E83A8D" fill-rule="nonzero" fill-opacity="1" transform="matrix(1.0008 0 0 1 -2101.64 -278.434)"/><path d="M147.815 729.118 119.602 729.118C119.271 729.118 118.939 728.786 118.939 728.455L118.939 718.166C118.939 717.834 119.271 717.502 119.602 717.502L147.815 717.502C148.147 717.502 148.479 717.834 148.479 718.166L148.479 728.455C148.479 728.786 148.147 729.118 147.815 729.118Z" fill="#E83A8D" fill-rule="nonzero" fill-opacity="1" transform="matrix(1.0008 0 0 1 -2101.64 -278.434)"/><path d="M147.815 715.289 119.602 715.289C119.271 715.289 118.939 714.957 118.939 714.625L118.939 704.335C118.939 704.003 119.271 703.671 119.602 703.671L147.815 703.671C148.147 703.671 148.479 704.003 148.479 704.335L148.479 714.625C148.479 714.957 148.147 715.289 147.815 715.289Z" fill="#E83A8D" fill-rule="nonzero" fill-opacity="1" transform="matrix(1.0008 0 0 1 -2101.64 -278.434)"/><path d="M216.965 701.459 119.602 701.459C119.271 701.459 118.939 701.127 118.939 700.795L118.939 690.395C118.939 690.063 119.271 689.731 119.602 689.731L216.965 689.731C217.297 689.731 217.629 690.063 217.629 690.395L217.629 700.684C217.629 701.127 217.408 701.459 216.965 701.459Z" fill="#E83A8D" fill-rule="nonzero" fill-opacity="1" transform="matrix(1.0008 0 0 1 -2101.64 -278.434)"/><path d="M443.335 659.857 345.972 659.857C345.64 659.857 345.308 659.526 345.308 659.194L345.308 648.905C345.308 648.573 345.64 648.241 345.972 648.241L443.335 648.241C443.667 648.241 443.999 648.573 443.999 648.905L443.999 659.194C443.999 659.637 443.777 659.857 443.335 659.857Z" fill="#E83A8D" fill-rule="nonzero" fill-opacity="1" transform="matrix(1.0008 0 0 1 -2101.64 -278.434)"/><path d="M147.815 687.628 119.602 687.628C119.271 687.628 118.939 687.296 118.939 686.964L118.939 676.675C118.939 676.343 119.271 676.011 119.602 676.011L147.815 676.011C148.147 676.011 148.479 676.343 148.479 676.675L148.479 686.964C148.479 687.296 148.147 687.628 147.815 687.628Z" fill="#E83A8D" fill-rule="nonzero" fill-opacity="1" transform="matrix(1.0008 0 0 1 -2101.64 -278.434)"/><path d="M147.815 673.799 119.602 673.799C119.271 673.799 118.939 673.467 118.939 673.135L118.939 662.735C118.939 662.403 119.271 662.071 119.602 662.071L147.815 662.071C148.147 662.071 148.479 662.403 148.479 662.735L148.479 673.024C148.479 673.467 148.147 673.799 147.815 673.799Z" fill="#E83A8D" fill-rule="nonzero" fill-opacity="1" transform="matrix(1.0008 0 0 1 -2101.64 -278.434)"/><path d="M147.815 659.857 119.602 659.857C119.271 659.857 118.939 659.526 118.939 659.194L118.939 648.905C118.939 648.573 119.271 648.241 119.602 648.241L147.815 648.241C148.147 648.241 148.479 648.573 148.479 648.905L148.479 659.194C148.479 659.637 148.147 659.857 147.815 659.857Z" fill="#E83A8D" fill-rule="nonzero" fill-opacity="1" transform="matrix(1.0008 0 0 1 -2101.64 -278.434)"/><path d="M216.965 742.949 188.752 742.949C188.42 742.949 188.089 742.617 188.089 742.285L188.089 731.995C188.089 731.663 188.42 731.331 188.752 731.331L216.965 731.331C217.297 731.331 217.629 731.663 217.629 731.995L217.629 742.285C217.629 742.617 217.408 742.949 216.965 742.949Z" fill="#E83A8D" fill-rule="nonzero" fill-opacity="1" transform="matrix(1.0008 0 0 1 -2101.64 -278.434)"/><path d="M216.965 729.118 188.752 729.118C188.42 729.118 188.089 728.786 188.089 728.455L188.089 718.166C188.089 717.834 188.42 717.502 188.752 717.502L216.965 717.502C217.297 717.502 217.629 717.834 217.629 718.166L217.629 728.455C217.629 728.786 217.408 729.118 216.965 729.118Z" fill="#E83A8D" fill-rule="nonzero" fill-opacity="1" transform="matrix(1.0008 0 0 1 -2101.64 -278.434)"/><path d="M216.965 715.289 188.752 715.289C188.42 715.289 188.089 714.957 188.089 714.625L188.089 704.335C188.089 704.003 188.42 703.671 188.752 703.671L216.965 703.671C217.297 703.671 217.629 704.003 217.629 704.335L217.629 714.625C217.629 714.957 217.408 715.289 216.965 715.289Z" fill="#E83A8D" fill-rule="nonzero" fill-opacity="1" transform="matrix(1.0008 0 0 1 -2101.64 -278.434)"/><path d="M216.965 687.628 188.752 687.628C188.42 687.628 188.089 687.296 188.089 686.964L188.089 676.675C188.089 676.343 188.42 676.011 188.752 676.011L216.965 676.011C217.297 676.011 217.629 676.343 217.629 676.675L217.629 686.964C217.629 687.296 217.408 687.628 216.965 687.628Z" fill="#E83A8D" fill-rule="nonzero" fill-opacity="1" transform="matrix(1.0008 0 0 1 -2101.64 -278.434)"/><path d="M216.965 673.799 188.752 673.799C188.42 673.799 188.089 673.467 188.089 673.135L188.089 662.735C188.089 662.403 188.42 662.071 188.752 662.071L216.965 662.071C217.297 662.071 217.629 662.403 217.629 662.735L217.629 673.024C217.629 673.467 217.408 673.799 216.965 673.799Z" fill="#E83A8D" fill-rule="nonzero" fill-opacity="1" transform="matrix(1.0008 0 0 1 -2101.64 -278.434)"/><path d="M216.965 659.857 188.752 659.857C188.42 659.857 188.089 659.526 188.089 659.194L188.089 648.905C188.089 648.573 188.42 648.241 188.752 648.241L216.965 648.241C217.297 648.241 217.629 648.573 217.629 648.905L217.629 659.194C217.629 659.637 217.408 659.857 216.965 659.857Z" fill="#E83A8D" fill-rule="nonzero" fill-opacity="1" transform="matrix(1.0008 0 0 1 -2101.64 -278.434)"/><path d="M295.52 701.459 267.307 701.459C266.975 701.459 266.643 701.127 266.643 700.795L266.643 690.395C266.643 690.063 266.975 689.731 267.307 689.731L295.52 689.731C295.852 689.731 296.184 690.063 296.184 690.395L296.184 700.684C296.184 701.127 295.852 701.459 295.52 701.459Z" fill="#E83A8D" fill-rule="nonzero" fill-opacity="1" transform="matrix(1.0008 0 0 1 -2101.64 -278.434)"/><path d="M321.631 742.949 241.306 742.949C240.975 742.949 240.643 742.617 240.643 742.285L240.643 731.995C240.643 731.663 240.975 731.331 241.306 731.331L321.631 731.331C321.963 731.331 322.295 731.663 322.295 731.995L322.295 742.285C322.295 742.617 321.963 742.949 321.631 742.949Z" fill="#E83A8D" fill-rule="nonzero" fill-opacity="1" transform="matrix(1.0008 0 0 1 -2101.64 -278.434)"/><path d="M426.408 701.459 346.083 701.459C345.751 701.459 345.419 701.127 345.419 700.795L345.419 690.395C345.419 690.063 345.751 689.731 346.083 689.731L426.408 689.731C426.74 689.731 427.071 690.063 427.071 690.395L427.071 700.684C427.071 701.127 426.74 701.459 426.408 701.459Z" fill="#E83A8D" fill-rule="nonzero" fill-opacity="1" transform="matrix(1.0008 0 0 1 -2101.64 -278.434)"/><path d="M295.52 729.118 267.307 729.118C266.975 729.118 266.643 728.786 266.643 728.455L266.643 718.166C266.643 717.834 266.975 717.502 267.307 717.502L295.52 717.502C295.852 717.502 296.184 717.834 296.184 718.166L296.184 728.455C296.184 728.786 295.852 729.118 295.52 729.118Z" fill="#E83A8D" fill-rule="nonzero" fill-opacity="1" transform="matrix(1.0008 0 0 1 -2101.64 -278.434)"/><path d="M295.52 715.289 267.307 715.289C266.975 715.289 266.643 714.957 266.643 714.625L266.643 704.335C266.643 704.003 266.975 703.671 267.307 703.671L295.52 703.671C295.852 703.671 296.184 704.003 296.184 704.335L296.184 714.625C296.184 714.957 295.852 715.289 295.52 715.289Z" fill="#E83A8D" fill-rule="nonzero" fill-opacity="1" transform="matrix(1.0008 0 0 1 -2101.64 -278.434)"/><path d="M295.52 687.628 267.307 687.628C266.975 687.628 266.643 687.296 266.643 686.964L266.643 676.675C266.643 676.343 266.975 676.011 267.307 676.011L295.52 676.011C295.852 676.011 296.184 676.343 296.184 676.675L296.184 686.964C296.184 687.296 295.852 687.628 295.52 687.628Z" fill="#E83A8D" fill-rule="nonzero" fill-opacity="1" transform="matrix(1.0008 0 0 1 -2101.64 -278.434)"/><path d="M295.52 673.799 267.307 673.799C266.975 673.799 266.643 673.467 266.643 673.135L266.643 662.735C266.643 662.403 266.975 662.071 267.307 662.071L295.52 662.071C295.852 662.071 296.184 662.403 296.184 662.735L296.184 673.024C296.184 673.467 295.852 673.799 295.52 673.799Z" fill="#E83A8D" fill-rule="nonzero" fill-opacity="1" transform="matrix(1.0008 0 0 1 -2101.64 -278.434)"/><path d="M321.631 659.857 241.306 659.857C240.975 659.857 240.643 659.526 240.643 659.194L240.643 648.905C240.643 648.573 240.975 648.241 241.306 648.241L321.631 648.241C321.963 648.241 322.295 648.573 322.295 648.905L322.295 659.194C322.295 659.637 321.963 659.857 321.631 659.857Z" fill="#E83A8D" fill-rule="nonzero" fill-opacity="1" transform="matrix(1.0008 0 0 1 -2101.64 -278.434)"/><path d="M512.928 701.459 484.715 701.459C484.383 701.459 484.051 701.127 484.051 700.795L484.051 690.395C484.051 690.063 484.383 689.731 484.715 689.731L512.928 689.731C513.259 689.731 513.591 690.063 513.591 690.395L513.591 700.684C513.591 701.127 513.259 701.459 512.928 701.459Z" fill="#E83A8D" fill-rule="nonzero" fill-opacity="1" transform="matrix(1.0008 0 0 1 -2101.64 -278.434)"/><path d="M538.928 742.949 458.603 742.949C458.272 742.949 457.94 742.617 457.94 742.285L457.94 731.995C457.94 731.663 458.272 731.331 458.603 731.331L538.928 731.331C539.26 731.331 539.592 731.663 539.592 731.995L539.592 742.285C539.592 742.617 539.37 742.949 538.928 742.949Z" fill="#E83A8D" fill-rule="nonzero" fill-opacity="1" transform="matrix(1.0008 0 0 1 -2101.64 -278.434)"/><path d="M512.928 729.118 484.715 729.118C484.383 729.118 484.051 728.786 484.051 728.455L484.051 718.166C484.051 717.834 484.383 717.502 484.715 717.502L512.928 717.502C513.259 717.502 513.591 717.834 513.591 718.166L513.591 728.455C513.591 728.786 513.259 729.118 512.928 729.118Z" fill="#E83A8D" fill-rule="nonzero" fill-opacity="1" transform="matrix(1.0008 0 0 1 -2101.64 -278.434)"/><path d="M512.928 715.289 484.715 715.289C484.383 715.289 484.051 714.957 484.051 714.625L484.051 704.335C484.051 704.003 484.383 703.671 484.715 703.671L512.928 703.671C513.259 703.671 513.591 704.003 513.591 704.335L513.591 714.625C513.591 714.957 513.259 715.289 512.928 715.289Z" fill="#E83A8D" fill-rule="nonzero" fill-opacity="1" transform="matrix(1.0008 0 0 1 -2101.64 -278.434)"/><path d="M512.928 687.628 484.715 687.628C484.383 687.628 484.051 687.296 484.051 686.964L484.051 676.675C484.051 676.343 484.383 676.011 484.715 676.011L512.928 676.011C513.259 676.011 513.591 676.343 513.591 676.675L513.591 686.964C513.591 687.296 513.259 687.628 512.928 687.628Z" fill="#E83A8D" fill-rule="nonzero" fill-opacity="1" transform="matrix(1.0008 0 0 1 -2101.64 -278.434)"/><path d="M512.928 673.799 484.715 673.799C484.383 673.799 484.051 673.467 484.051 673.135L484.051 662.735C484.051 662.403 484.383 662.071 484.715 662.071L512.928 662.071C513.259 662.071 513.591 662.403 513.591 662.735L513.591 673.024C513.591 673.467 513.259 673.799 512.928 673.799Z" fill="#E83A8D" fill-rule="nonzero" fill-opacity="1" transform="matrix(1.0008 0 0 1 -2101.64 -278.434)"/><path d="M538.928 659.857 458.603 659.857C458.272 659.857 457.94 659.526 457.94 659.194L457.94 648.905C457.94 648.573 458.272 648.241 458.603 648.241L538.928 648.241C539.26 648.241 539.592 648.573 539.592 648.905L539.592 659.194C539.592 659.637 539.37 659.857 538.928 659.857Z" fill="#E83A8D" fill-rule="nonzero" fill-opacity="1" transform="matrix(1.0008 0 0 1 -2101.64 -278.434)"/><path d="M374.185 742.949 345.972 742.949C345.64 742.949 345.308 742.617 345.308 742.285L345.308 731.995C345.308 731.663 345.64 731.331 345.972 731.331L374.185 731.331C374.517 731.331 374.849 731.663 374.849 731.995L374.849 742.285C374.849 742.617 374.517 742.949 374.185 742.949Z" fill="#E83A8D" fill-rule="nonzero" fill-opacity="1" transform="matrix(1.0008 0 0 1 -2101.64 -278.434)"/><path d="M374.185 729.118 345.972 729.118C345.64 729.118 345.308 728.786 345.308 728.455L345.308 718.166C345.308 717.834 345.64 717.502 345.972 717.502L374.185 717.502C374.517 717.502 374.849 717.834 374.849 718.166L374.849 728.455C374.849 728.786 374.517 729.118 374.185 729.118Z" fill="#E83A8D" fill-rule="nonzero" fill-opacity="1" transform="matrix(1.0008 0 0 1 -2101.64 -278.434)"/><path d="M374.185 715.289 345.972 715.289C345.64 715.289 345.308 714.957 345.308 714.625L345.308 704.335C345.308 704.003 345.64 703.671 345.972 703.671L374.185 703.671C374.517 703.671 374.849 704.003 374.849 704.335L374.849 714.625C374.849 714.957 374.517 715.289 374.185 715.289Z" fill="#E83A8D" fill-rule="nonzero" fill-opacity="1" transform="matrix(1.0008 0 0 1 -2101.64 -278.434)"/><path d="M374.185 687.628 345.972 687.628C345.64 687.628 345.308 687.296 345.308 686.964L345.308 676.675C345.308 676.343 345.64 676.011 345.972 676.011L374.185 676.011C374.517 676.011 374.849 676.343 374.849 676.675L374.849 686.964C374.849 687.296 374.517 687.628 374.185 687.628Z" fill="#E83A8D" fill-rule="nonzero" fill-opacity="1" transform="matrix(1.0008 0 0 1 -2101.64 -278.434)"/><path d="M374.185 673.799 345.972 673.799C345.64 673.799 345.308 673.467 345.308 673.135L345.308 662.735C345.308 662.403 345.64 662.071 345.972 662.071L374.185 662.071C374.517 662.071 374.849 662.403 374.849 662.735L374.849 673.024C374.849 673.467 374.517 673.799 374.185 673.799Z" fill="#E83A8D" fill-rule="nonzero" fill-opacity="1" transform="matrix(1.0008 0 0 1 -2101.64 -278.434)"/><path d="M63.8394 552.537C58.5287 552.537 53.5498 549.881 50.5626 545.345 47.5752 540.809 47.1327 535.056 49.3455 530.188L198.046 198.268C200.59 192.514 206.233 188.862 212.54 188.862L437.36 188.862C442.671 188.862 447.651 191.518 450.637 196.054 453.624 200.48 454.067 206.233 451.965 211.101L332.805 485.378C329.265 493.455 319.972 497.106 311.894 493.566 303.818 490.026 300.166 480.731 303.708 472.655L413.13 220.505 222.829 220.505 88.5121 520.451 187.425 519.234C187.535 519.234 187.535 519.234 187.646 519.234 196.276 519.234 203.468 526.205 203.578 534.945 203.689 543.685 196.608 550.877 187.867 550.988L64.0606 552.537C63.95 552.537 63.95 552.537 63.8394 552.537Z" fill="#0090D1" fill-rule="nonzero" fill-opacity="1" transform="matrix(1.0008 0 0 1 -2101.64 -278.434)"/><path d="M447.871 550.988 232.233 550.988C226.812 550.988 221.833 548.221 218.957 543.796 216.08 539.26 215.527 533.617 217.74 528.638L341.215 250.822C344.755 242.855 354.159 239.204 362.126 242.744 370.091 246.285 373.742 255.69 370.202 263.655L256.686 519.234 437.471 519.234 570.239 220.505 484.494 220.284C475.752 220.284 468.672 213.093 468.672 204.352 468.672 195.612 475.752 188.53 484.604 188.53 484.604 188.53 484.604 188.53 484.604 188.53L594.691 188.862C600.112 188.862 605.091 191.629 607.967 196.165 610.844 200.701 611.287 206.344 609.185 211.212L462.365 541.584C459.82 547.337 454.177 550.988 447.871 550.988Z" fill="#D11076" fill-rule="nonzero" fill-opacity="1" transform="matrix(1.0008 0 0 1 -2101.64 -278.434)"/><path d="M522.553 273.281 461.48 273.281C452.74 273.281 445.548 266.2 445.548 257.349 445.548 248.608 452.629 241.416 461.48 241.416L522.553 241.416C531.294 241.416 538.485 248.498 538.485 257.349 538.375 266.09 531.294 273.281 522.553 273.281Z" fill="#0090D1" fill-rule="nonzero" fill-opacity="1" transform="matrix(1.0008 0 0 1 -2101.64 -278.434)"/><path d="M411.138 386.577C402.398 386.577 395.317 379.495 395.206 370.755 395.206 362.015 402.287 354.823 411.028 354.823L470.774 354.712C470.774 354.712 470.774 354.712 470.774 354.712 479.515 354.712 486.595 361.794 486.706 370.534 486.706 379.274 479.625 386.466 470.884 386.466L411.138 386.577C411.138 386.577 411.138 386.577 411.138 386.577Z" fill="#0090D1" fill-rule="nonzero" fill-opacity="1" transform="matrix(1.0008 0 0 1 -2101.64 -278.434)"/><path d="M278.039 387.241C277.928 387.241 277.818 387.241 277.707 387.241L226.701 386.023C217.961 385.802 210.991 378.5 211.212 369.759 211.433 361.13 218.515 354.27 227.033 354.27 227.144 354.27 227.255 354.27 227.365 354.27L278.37 355.487C287.111 355.708 294.081 363.011 293.861 371.751 293.75 380.381 286.669 387.241 278.039 387.241Z" fill="#D11076" fill-rule="nonzero" fill-opacity="1" transform="matrix(1.0008 0 0 1 -2101.64 -278.434)"/><path d="M151.577 494.894C149.364 494.894 147.262 494.451 145.16 493.455 137.194 489.915 133.543 480.51 137.194 472.434L236.991 249.162C240.532 241.195 249.936 237.544 258.013 241.195 265.979 244.736 269.63 254.14 265.979 262.218L166.182 485.489C163.415 491.353 157.662 494.894 151.577 494.894Z" fill="#D11076" fill-rule="nonzero" fill-opacity="1" transform="matrix(1.0008 0 0 1 -2101.64 -278.434)"/><path d="M63.8394 548.553C59.8563 548.553 56.0945 546.562 53.8817 543.133 51.6689 539.702 51.337 535.388 52.9966 531.737L201.697 199.816C203.578 195.501 207.893 192.735 212.54 192.735L437.36 192.735C441.344 192.735 445.105 194.726 447.319 198.157 449.531 201.476 449.863 205.79 448.313 209.441L329.155 483.719C326.499 489.804 319.529 492.57 313.444 489.915 307.358 487.259 304.593 480.288 307.248 474.204L419.105 216.523 220.284 216.523 82.3163 524.545 187.425 523.217C187.425 523.217 187.535 523.217 187.535 523.217 194.062 523.217 199.373 528.417 199.484 534.945 199.594 541.473 194.284 546.894 187.757 547.005L63.95 548.553C63.95 548.553 63.95 548.553 63.8394 548.553Z" fill="#00AAE4" fill-rule="nonzero" fill-opacity="1" transform="matrix(1.0008 0 0 1 -2101.64 -278.434)"/><path d="M447.871 547.005 232.233 547.005C228.251 547.005 224.489 545.013 222.276 541.584 220.063 538.153 219.732 533.949 221.391 530.298L344.865 252.48C347.52 246.506 354.602 243.74 360.576 246.396 366.551 249.051 369.316 256.132 366.662 262.107L250.6 523.217 440.127 523.217 576.435 216.523 484.604 216.301C478.076 216.301 472.655 210.88 472.766 204.352 472.766 197.825 478.076 192.514 484.715 192.514 484.715 192.514 484.715 192.514 484.715 192.514L594.802 192.846C598.784 192.846 602.546 194.948 604.759 198.268 606.971 201.697 607.303 205.901 605.644 209.552L458.714 540.034C456.833 544.239 452.629 547.005 447.871 547.005Z" fill="#E83A8D" fill-rule="nonzero" fill-opacity="1" transform="matrix(1.0008 0 0 1 -2101.64 -278.434)"/><path d="M522.553 269.298 461.48 269.298C454.952 269.298 449.531 263.987 449.531 257.349 449.531 250.711 454.841 245.4 461.48 245.4L522.553 245.4C529.081 245.4 534.502 250.711 534.502 257.349 534.502 263.987 529.081 269.298 522.553 269.298Z" fill="#00AAE4" fill-rule="nonzero" fill-opacity="1" transform="matrix(1.0008 0 0 1 -2101.64 -278.434)"/><path d="M411.138 382.594C404.611 382.594 399.19 377.283 399.19 370.755 399.19 364.227 404.501 358.806 411.028 358.806L470.774 358.695C477.412 358.695 482.723 364.006 482.723 370.534 482.723 377.062 477.412 382.483 470.884 382.483L411.138 382.594C411.138 382.594 411.138 382.594 411.138 382.594Z" fill="#00AAE4" fill-rule="nonzero" fill-opacity="1" transform="matrix(1.0008 0 0 1 -2101.64 -278.434)"/><path d="M278.039 383.258C277.928 383.258 277.818 383.258 277.707 383.258L226.701 382.041C220.173 381.93 214.863 376.398 215.084 369.87 215.195 363.342 220.837 358.142 227.255 358.252L278.259 359.47C284.787 359.58 290.098 365.112 289.877 371.64 289.766 378.058 284.456 383.258 278.039 383.258Z" fill="#E83A8D" fill-rule="nonzero" fill-opacity="1" transform="matrix(1.0008 0 0 1 -2101.64 -278.434)"/><path d="M151.577 490.91C149.918 490.91 148.258 490.578 146.709 489.915 140.734 487.259 137.968 480.178 140.734 474.204L240.532 250.932C243.187 244.958 250.268 242.191 256.243 244.958 262.218 247.612 264.983 254.694 262.218 260.668L162.419 483.94C160.428 488.255 156.114 490.91 151.577 490.91Z" fill="#E83A8D" fill-rule="nonzero" fill-opacity="1" transform="matrix(1.0008 0 0 1 -2101.64 -278.434)"/><path d="M63.8394 544.571C61.184 544.571 58.6392 543.244 57.201 541.03 55.7627 538.817 55.4307 535.941 56.5371 533.396L205.237 201.476C206.565 198.6 209.332 196.829 212.54 196.829L437.36 196.829C440.016 196.829 442.56 198.157 443.999 200.369 445.437 202.582 445.659 205.459 444.663 207.893L325.504 482.17C323.733 486.153 319.086 488.034 315.104 486.263 311.12 484.494 309.24 479.846 311.009 475.863L425.301 212.65 217.629 212.65 76.231 528.528 187.535 527.201C187.535 527.201 187.646 527.201 187.646 527.201 191.961 527.201 195.501 530.741 195.612 535.056 195.612 539.481 192.182 543.021 187.757 543.133L63.8394 544.571C63.95 544.571 63.95 544.571 63.8394 544.571Z" fill="#8ED2F0" fill-rule="nonzero" fill-opacity="1" transform="matrix(1.0008 0 0 1 -2101.64 -278.434)"/><path d="M447.871 543.133 232.233 543.133C229.579 543.133 227.033 541.805 225.595 539.481 224.157 537.269 223.936 534.392 225.043 531.958L348.516 254.14C350.287 250.158 355.044 248.276 359.027 250.158 363.011 251.927 364.891 256.686 363.011 260.668L244.515 527.201 442.781 527.201 582.631 212.65 484.715 212.318C480.288 212.318 476.748 208.778 476.748 204.352 476.748 199.926 480.288 196.386 484.715 196.386 484.715 196.386 484.715 196.386 484.715 196.386L594.802 196.718C597.457 196.718 600.002 198.046 601.439 200.369 602.878 202.582 603.099 205.459 601.993 207.893L455.173 538.375C453.846 541.252 450.969 543.133 447.871 543.133Z" fill="#CC87B1" fill-rule="nonzero" fill-opacity="1" transform="matrix(1.0008 0 0 1 -2101.64 -278.434)"/><path d="M522.553 265.315 461.48 265.315C457.055 265.315 453.514 261.775 453.514 257.349 453.514 252.923 457.055 249.383 461.48 249.383L522.553 249.383C526.979 249.383 530.52 252.923 530.52 257.349 530.409 261.775 526.869 265.315 522.553 265.315Z" fill="#8ED2F0" fill-rule="nonzero" fill-opacity="1" transform="matrix(1.0008 0 0 1 -2101.64 -278.434)"/><path d="M411.138 378.611C406.713 378.611 403.173 375.07 403.173 370.644 403.173 366.219 406.713 362.679 411.138 362.679L470.884 362.568C470.884 362.568 470.884 362.568 470.884 362.568 475.31 362.568 478.851 366.108 478.851 370.534 478.851 374.959 475.31 378.5 470.884 378.5L411.138 378.611C411.138 378.611 411.138 378.611 411.138 378.611Z" fill="#8ED2F0" fill-rule="nonzero" fill-opacity="1" transform="matrix(1.0008 0 0 1 -2101.64 -278.434)"/><path d="M278.039 379.274C277.928 379.274 277.928 379.274 277.818 379.274L226.812 378.058C222.387 377.947 218.957 374.295 219.068 369.98 219.178 365.666 222.719 362.236 227.033 362.236 227.144 362.236 227.144 362.236 227.255 362.236L278.259 363.452C282.686 363.563 286.115 367.215 286.005 371.53 285.894 375.845 282.354 379.274 278.039 379.274Z" fill="#CC87B1" fill-rule="nonzero" fill-opacity="1" transform="matrix(1.0008 0 0 1 -2101.64 -278.434)"/><path d="M151.577 486.927C150.471 486.927 149.364 486.706 148.368 486.263 144.386 484.494 142.615 479.735 144.386 475.752L244.183 252.48C245.953 248.498 250.711 246.727 254.694 248.498 258.676 250.268 260.447 255.026 258.676 259.008L158.879 482.28C157.441 485.267 154.564 486.927 151.577 486.927Z" fill="#CC87B1" fill-rule="nonzero" fill-opacity="1" transform="matrix(1.0008 0 0 1 -2101.64 -278.434)"/><path d="M447.871 543.133 232.233 543.133C229.579 543.133 227.033 541.805 225.595 539.481 224.157 537.269 223.936 534.392 225.043 531.958L348.516 254.14C350.287 250.158 355.044 248.276 359.027 250.158 363.011 251.927 364.891 256.686 363.011 260.668L244.515 527.201 442.781 527.201 582.631 212.65 484.715 212.318C480.288 212.318 476.748 208.778 476.748 204.352 476.748 199.926 480.288 196.386 484.715 196.386 484.715 196.386 484.715 196.386 484.715 196.386L594.802 196.718C597.457 196.718 600.002 198.046 601.439 200.369 602.878 202.582 603.099 205.459 601.993 207.893L455.173 538.375C453.846 541.252 450.969 543.133 447.871 543.133Z" fill="#DA599C" fill-rule="nonzero" fill-opacity="1" transform="matrix(1.0008 0 0 1 -2101.64 -278.434)"/><path d="M278.039 379.274C277.928 379.274 277.928 379.274 277.818 379.274L226.812 378.058C222.387 377.947 218.957 374.295 219.068 369.98 219.178 365.666 222.719 362.236 227.033 362.236 227.144 362.236 227.144 362.236 227.255 362.236L278.259 363.452C282.686 363.563 286.115 367.215 286.005 371.53 285.894 375.845 282.354 379.274 278.039 379.274Z" fill="#DA599C" fill-rule="nonzero" fill-opacity="1" transform="matrix(1.0008 0 0 1 -2101.64 -278.434)"/><path d="M151.577 486.927C150.471 486.927 149.364 486.706 148.368 486.263 144.386 484.494 142.615 479.735 144.386 475.752L244.183 252.48C245.953 248.498 250.711 246.727 254.694 248.498 258.676 250.268 260.447 255.026 258.676 259.008L158.879 482.28C157.441 485.267 154.564 486.927 151.577 486.927Z" fill="#DA599C" fill-rule="nonzero" fill-opacity="1" transform="matrix(1.0008 0 0 1 -2101.64 -278.434)"/><path d="M63.8394 540.588C62.5117 540.588 61.2946 539.924 60.5202 538.817 59.7457 537.712 59.635 536.273 60.1882 535.056L208.889 203.136C209.552 201.697 210.991 200.812 212.54 200.812L437.36 200.812C438.688 200.812 439.905 201.476 440.68 202.582 441.454 203.689 441.565 205.127 441.012 206.344L321.852 480.62C320.967 482.612 318.644 483.498 316.652 482.723 314.661 481.838 313.665 479.515 314.55 477.523L431.276 208.778 215.084 208.778 70.0352 532.622 187.646 531.184C189.858 531.184 191.629 532.953 191.629 535.056 191.629 537.269 189.858 539.039 187.757 539.039L63.8394 540.588C63.95 540.588 63.8394 540.588 63.8394 540.588Z" fill="#F8F9FA" fill-rule="nonzero" fill-opacity="1" transform="matrix(1.0008 0 0 1 -2101.64 -278.434)"/><path d="M447.871 539.149 232.233 539.149C230.906 539.149 229.689 538.485 228.915 537.38 228.14 536.273 228.029 534.834 228.583 533.617L352.057 255.8C352.942 253.808 355.266 252.923 357.257 253.808 359.248 254.694 360.134 257.018 359.248 259.008L238.208 531.184 445.105 531.184 588.606 208.668 484.604 208.336C482.391 208.336 480.62 206.565 480.62 204.352 480.62 202.14 482.391 200.369 484.604 200.369 484.604 200.369 484.604 200.369 484.604 200.369L594.691 200.701C596.018 200.701 597.235 201.365 598.01 202.472 598.784 203.578 598.895 205.016 598.342 206.233L451.523 536.716C450.859 538.153 449.42 539.149 447.871 539.149Z" fill="#F8F9FA" fill-rule="nonzero" fill-opacity="1" transform="matrix(1.0008 0 0 1 -2101.64 -278.434)"/><path d="M522.553 261.332 461.48 261.332C459.267 261.332 457.497 259.562 457.497 257.349 457.497 255.136 459.267 253.366 461.48 253.366L522.553 253.366C524.766 253.366 526.537 255.136 526.537 257.349 526.426 259.562 524.656 261.332 522.553 261.332Z" fill="#F8F9FA" fill-rule="nonzero" fill-opacity="1" transform="matrix(1.0008 0 0 1 -2101.64 -278.434)"/><path d="M411.138 374.627C408.926 374.627 407.156 372.858 407.156 370.644 407.156 368.431 408.926 366.662 411.138 366.662L470.884 366.551C470.884 366.551 470.884 366.551 470.884 366.551 473.098 366.551 474.867 368.322 474.867 370.534 474.867 372.747 473.098 374.517 470.884 374.517L411.138 374.627C411.138 374.627 411.138 374.627 411.138 374.627Z" fill="#F8F9FA" fill-rule="nonzero" fill-opacity="1" transform="matrix(1.0008 0 0 1 -2101.64 -278.434)"/><path d="M278.039 375.291C278.039 375.291 277.928 375.291 278.039 375.291L226.923 374.074C224.711 374.074 222.94 372.194 223.051 369.98 223.051 367.768 224.932 365.998 227.144 366.108L278.15 367.326C280.362 367.326 282.133 369.206 282.022 371.419 281.911 373.631 280.141 375.291 278.039 375.291Z" fill="#F8F9FA" fill-rule="nonzero" fill-opacity="1" transform="matrix(1.0008 0 0 1 -2101.64 -278.434)"/><path d="M151.577 482.944C151.023 482.944 150.471 482.834 149.918 482.612 147.926 481.727 147.04 479.404 147.926 477.412L247.723 254.14C248.608 252.148 250.932 251.264 252.923 252.148 254.915 253.034 255.8 255.358 254.915 257.349L155.118 480.62C154.564 482.17 153.126 482.944 151.577 482.944Z" fill="#F8F9FA" fill-rule="nonzero" fill-opacity="1" transform="matrix(1.0008 0 0 1 -2101.64 -278.434)"/></g></g></g></g></g></g></g></g></svg>