<svg width="899" height="899" xmlns="http://www.w3.org/2000/svg" xmlns:xlink="http://www.w3.org/1999/xlink" overflow="hidden"><defs><clipPath id="clip0"><rect x="-2310" y="728" width="899" height="899"/></clipPath><clipPath id="clip1"><rect x="-2307" y="731" width="894" height="894"/></clipPath><clipPath id="clip2"><rect x="-2307" y="731" width="894" height="894"/></clipPath><clipPath id="clip3"><rect x="-2307" y="731" width="894" height="894"/></clipPath><linearGradient x1="-1867.51" y1="735.348" x2="-1867.51" y2="1593.59" gradientUnits="userSpaceOnUse" spreadMethod="pad" id="fill4"><stop offset="0" stop-color="#2AAFCC" stop-opacity="1"/><stop offset="0.269955" stop-color="#2AAFCC" stop-opacity="1"/><stop offset="0.391175" stop-color="#2AAFCC" stop-opacity="1"/><stop offset="0.591647" stop-color="#47C8E4" stop-opacity="1"/><stop offset="1" stop-color="#47C8E4" stop-opacity="1"/></linearGradient></defs><g clip-path="url(#clip0)" transform="translate(2310 -728)"><path d="M-2290.5 1161C-2290.5 933.182-2105.82 748.5-1878 748.5-1650.18 748.5-1465.5 933.182-1465.5 1161-1465.5 1388.82-1650.18 1573.5-1878 1573.5-2105.82 1573.5-2290.5 1388.82-2290.5 1161Z" stroke="#FFFFFF" stroke-width="4.58333" stroke-linecap="butt" stroke-linejoin="miter" stroke-miterlimit="8" stroke-opacity="1" fill="#FFFFFF" fill-rule="evenodd" fill-opacity="1"/><g clip-path="url(#clip1)"><g clip-path="url(#clip2)"><g clip-path="url(#clip3)"><path d="M-1438.39 1164.47C-1438.39 1401.46-1630.51 1593.59-1867.51 1593.59-2104.51 1593.59-2296.63 1401.46-2296.63 1164.47-2296.63 927.472-2104.51 735.349-1867.51 735.349-1630.51 735.349-1438.39 927.472-1438.39 1164.47Z" fill="url(#fill4)" fill-rule="nonzero"/><path d="M-2067.42 1090.32C-2026.92 1090.32-1989.94 1090.32-1950.49 1090.32-1963.13 1071.74-1974.26 1054.76-1986.22 1038.39-1988.01 1035.93-1993.65 1035.53-1997.51 1035.5-2030.11 1035.28-2062.71 1035.73-2095.28 1035.03-2100.35 1034.93-2106.79 1031.22-2110.03 1027.15-2119.03 1015.77-2126.7 1003.28-2136.06 989.538-2130.89 989.137-2127.41 988.61-2123.92 988.61-2073.77 988.56-2023.61 988.761-1973.49 988.41-1965.41 988.36-1960.72 990.968-1956.21 997.688-1927.37 1040.67-1898.08 1083.38-1867.99 1127.54-1865.13 1124-1862.7 1121.44-1860.74 1118.56-1833.18 1078.18-1805.85 1037.69-1777.99 997.538-1775.13 993.425-1769.24 988.962-1764.7 988.912-1712.04 988.31-1659.4 988.535-1606.74 988.585-1604.81 988.585-1602.88 989.112-1598.97 989.664-1609.17 1004.73-1618.15 1018.65-1628 1031.92-1629.86 1034.43-1635.28 1035.2-1639.04 1035.23-1671.64 1035.48-1704.24 1035.6-1736.84 1035.2-1744.36 1035.1-1748.95 1037.31-1753.04 1043.8-1762.51 1058.93-1772.92 1073.47-1784.36 1090.32-1745.01 1090.32-1707.85 1090.32-1667.58 1090.32-1678.71 1106.8-1687.86 1121.02-1697.92 1134.58-1699.77 1137.07-1705.27 1137.72-1709.1 1137.74-1740.02 1138.02-1770.96 1138.37-1801.86 1137.72-1812.54 1137.49-1819.24 1140.35-1825.28 1149.7-1838.97 1170.94-1839.38 1170.42-1825.28 1190.45-1811.59 1209.91-1798.07 1229.52-1785.01 1249.43-1761.61 1285.09-1763.39 1331.56-1788.97 1364.43-1815.2 1398.16-1859.08 1411.63-1898.98 1398.19-1938.85 1384.75-1966.36 1347.46-1966.64 1305.03-1966.79 1284.14-1960.85 1264.75-1948.68 1247.35-1932.89 1224.76-1917.74 1201.71-1901.84 1179.19-1897.3 1172.77-1898.03 1168.48-1901.51 1161.49-1911.07 1142.3-1924.66 1135.48-1946.33 1137.34-1972.46 1139.57-1998.94 1138.29-2025.27 1137.54-2030.41 1137.39-2036.98 1133.93-2040.19 1129.84-2049.34 1118.21-2057.17 1105.44-2067.42 1090.32ZM-1865.66 1212.92C-1867.91 1214.63-1869.14 1215.15-1869.77 1216.08-1883.94 1236.72-1898.53 1257.08-1912.02 1278.17-1925.14 1298.63-1920.85 1325.46-1902.99 1342.22-1885.24 1358.87-1858.86 1360.92-1838.37 1347.21-1818.74 1334.07-1808.33 1307.54-1819.16 1286.77-1832.5 1261.17-1849.86 1237.65-1865.66 1212.92Z" stroke="#27293D" stroke-width="3.576" stroke-linecap="butt" stroke-linejoin="miter" stroke-miterlimit="4" stroke-opacity="1" fill="#27293D" fill-rule="nonzero" fill-opacity="1"/></g></g></g></g></svg>