<svg width="25" height="25" viewBox="0 0 25 25" fill="none" xmlns="http://www.w3.org/2000/svg">
<circle cx="12.29" cy="12.1216" r="12" fill="url(#paint0_linear)"/>
<path d="M6.69959 10.0481C7.83211 10.0481 8.86645 10.0481 9.96951 10.0481C9.61608 9.52851 9.30473 9.05377 8.97023 8.59585C8.92044 8.52713 8.76266 8.51591 8.65467 8.51521C7.74305 8.5089 6.83143 8.52152 5.9205 8.50188C5.77885 8.49908 5.59863 8.39529 5.50817 8.28169C5.25642 7.96332 5.04184 7.6141 4.78027 7.22982C4.92473 7.2186 5.0222 7.20387 5.11968 7.20387C6.52217 7.20247 7.92467 7.20808 9.32647 7.19826C9.55227 7.19686 9.6834 7.26979 9.80963 7.45772C10.6161 8.65966 11.4351 9.85389 12.2766 11.0888C12.3566 10.9899 12.4246 10.9184 12.4793 10.8377C13.25 9.70873 14.0143 8.57622 14.7934 7.45352C14.8733 7.33851 15.0381 7.21369 15.1651 7.21229C16.6377 7.19546 18.1096 7.20177 19.5822 7.20317C19.6362 7.20317 19.6902 7.2179 19.7996 7.23332C19.5142 7.65477 19.2632 8.04397 18.9876 8.41493C18.9357 8.48505 18.7842 8.50679 18.679 8.50749C17.7674 8.51451 16.8558 8.51801 15.9441 8.50679C15.7338 8.50399 15.6054 8.5657 15.4911 8.74732C15.2261 9.17017 14.9351 9.5769 14.6153 10.0481C15.7155 10.0481 16.7548 10.0481 17.881 10.0481C17.5696 10.5089 17.3137 10.9065 17.0325 11.2858C16.9806 11.3553 16.827 11.3735 16.7197 11.3742C15.8551 11.3819 14.9898 11.3917 14.1258 11.3735C13.8271 11.3672 13.6398 11.4471 13.4708 11.7087C13.088 12.3027 13.0767 12.2879 13.4708 12.8482C13.8537 13.3924 14.2317 13.9408 14.5971 14.4976C15.2513 15.4947 15.2015 16.7941 14.4863 17.7135C13.7527 18.6567 12.5256 19.0332 11.4099 18.6574C10.2949 18.2815 9.52562 17.2387 9.51791 16.0522C9.5137 15.4681 9.6799 14.926 10.02 14.4394C10.4618 13.8075 10.8853 13.1631 11.3299 12.5334C11.4569 12.3538 11.4365 12.2339 11.3391 12.0383C11.0719 11.5018 10.6918 11.3111 10.0859 11.363C9.35522 11.4254 8.6147 11.3896 7.87839 11.3686C7.73463 11.3644 7.55091 11.2676 7.46115 11.1533C7.20519 10.8279 6.9864 10.471 6.69959 10.0481ZM12.3418 13.4765C12.2787 13.5242 12.2444 13.539 12.2268 13.5649C11.8306 14.142 11.4225 14.7114 11.0452 15.3012C10.6785 15.8734 10.7984 16.6237 11.2977 17.0922C11.7942 17.5578 12.5319 17.6153 13.1048 17.2317C13.6539 16.8643 13.9449 16.1224 13.642 15.5417C13.2689 14.8257 12.7836 14.168 12.3418 13.4765Z" fill="#27293D" stroke="#27293D" stroke-width="0.1"/>
<defs>
<linearGradient id="paint0_linear" x1="12.29" y1="0.121582" x2="12.29" y2="24.1216" gradientUnits="userSpaceOnUse">
<stop offset="0.269955" stop-color="#2AAFCC"/>
<stop offset="0.391175" stop-color="#2AAFCC"/>
<stop offset="0.591647" stop-color="#47C8E4"/>
</linearGradient>
</defs>
</svg>
