<?xml version="1.0" standalone="no"?>
<!DOCTYPE svg PUBLIC "-//W3C//DTD SVG 20010904//EN"
 "http://www.w3.org/TR/2001/REC-SVG-20010904/DTD/svg10.dtd">
<svg version="1.0" xmlns="http://www.w3.org/2000/svg"
 width="1067.000000pt" height="1067.000000pt" viewBox="0 0 1067.000000 1067.000000"
 preserveAspectRatio="xMidYMid meet">

<g transform="translate(0.000000,1067.000000) scale(0.100000,-0.100000)"
fill="#000000" stroke="none">
<path d="M5090 10184 c-25 -2 -106 -8 -180 -14 -1684 -137 -3208 -1182 -3960
-2715 -264 -538 -412 -1052 -480 -1670 -18 -159 -24 -649 -11 -825 80 -1043
464 -1993 1132 -2795 107 -128 384 -411 519 -529 804 -706 1790 -1121 2864
-1206 166 -13 556 -13 722 0 637 50 1218 209 1789 490 1262 620 2197 1753
2565 3110 216 795 224 1654 24 2453 -145 580 -419 1174 -756 1644 -622 866
-1481 1498 -2482 1825 -302 98 -676 177 -1016 213 -136 15 -630 28 -730 19z
m635 -514 c855 -78 1670 -405 2339 -940 871 -695 1447 -1694 1606 -2785 35
-238 44 -368 44 -635 0 -285 -11 -433 -49 -685 -219 -1416 -1139 -2651 -2440
-3276 -634 -304 -1289 -443 -2000 -426 -537 13 -997 106 -1495 300 -191 74
-530 245 -707 355 -572 357 -1058 843 -1415 1415 -110 176 -281 516 -355 707
-339 866 -395 1808 -163 2705 403 1557 1649 2782 3215 3160 243 59 560 105
820 119 108 6 478 -3 600 -14z"/>
<path d="M4580 8010 l0 -250 255 0 255 0 0 250 0 250 -255 0 -255 0 0 -250z"/>
<path d="M6080 7381 l0 -611 -745 0 -745 0 -2 248 -3 247 -247 3 -248 2 0 316
0 316 -32 -7 c-84 -18 -314 -101 -416 -150 -263 -126 -424 -269 -522 -465
-145 -289 -197 -709 -171 -1375 29 -727 100 -1169 270 -1666 193 -567 524
-1090 969 -1536 124 -123 348 -324 387 -346 13 -7 15 181 15 1518 l0 1525 745
0 745 0 2 -1526 3 -1525 105 88 c136 113 358 330 475 463 599 683 919 1456
1019 2465 44 438 48 1157 8 1412 -48 306 -129 519 -254 670 -146 176 -414 327
-758 427 -132 38 -432 100 -537 112 l-63 7 0 -612z m-1990 -366 l0 -245 -245
0 -245 0 0 245 0 245 245 0 245 0 0 -245z m490 -500 l0 -245 -245 0 -245 0 0
245 0 245 245 0 245 0 0 -245z"/>
</g>
</svg>
