<svg version="1.2" baseProfile="tiny-ps" xmlns="http://www.w3.org/2000/svg" viewBox="0 0 340 340" width="340" height="340">
	<title>IHC-svg</title>
	<style>
		tspan { white-space:pre }
		.shp0 { fill: #ffffff } 
		.shp1 { fill: #000000 } 
	</style>
	<path id="Layer 1" class="shp0" d="M170 340C75.99 340 0 264.01 0 170C0 75.99 75.99 0 170 0C264.01 0 340 75.99 340 170C340 264.01 264.01 340 170 340Z" />
	<g id="Layer">
		<path id="Layer" fill-rule="evenodd" class="shp1" d="M182.4 26.65C192.49 27.72 203.6 30.07 212.57 32.98C242.29 42.69 267.8 61.45 286.27 87.17C296.28 101.13 304.41 118.76 308.72 135.99C314.66 159.71 314.42 185.22 308.01 208.83C297.08 249.12 269.31 282.77 231.84 301.18C214.88 309.52 197.63 314.24 178.72 315.73C173.79 316.11 162.21 316.11 157.28 315.73C125.39 313.2 96.11 300.88 72.23 279.91C68.22 276.41 60 268.01 56.82 264.21C36.99 240.39 25.58 212.18 23.21 181.21C22.82 175.98 23 161.43 23.53 156.71C25.55 138.36 29.95 123.1 37.79 107.12C60.12 61.6 105.37 30.57 155.38 26.5C157.57 26.33 159.98 26.15 160.72 26.09C163.69 25.82 178.36 26.21 182.4 26.65ZM161.76 40.94C154.04 41.35 144.63 42.72 137.41 44.47C90.91 55.69 53.91 92.07 41.94 138.3C35.06 164.94 36.72 192.91 46.78 218.63C48.98 224.3 54.06 234.39 57.33 239.62C67.93 256.6 82.36 271.04 99.34 281.64C104.6 284.9 114.67 289.98 120.34 292.18C135.13 297.94 148.78 300.7 164.73 301.09C185.84 301.59 205.29 297.46 224.12 288.44C262.75 269.88 290.07 233.21 296.57 191.16C297.7 183.68 298.03 179.28 298.03 170.82C298.03 162.89 297.76 159.03 296.72 151.96C292 119.57 274.9 89.9 249.03 69.26C229.17 53.38 204.97 43.67 179.58 41.35C175.95 41.02 164.97 40.76 161.76 40.94Z" />
		<path id="Layer" class="shp1" d="M145.58 90.64L145.58 98.07L153.15 98.07L160.72 98.07L160.72 90.64L160.72 83.22L153.15 83.22L145.58 83.22L145.58 90.64Z" />
		<path id="Layer" fill-rule="evenodd" class="shp1" d="M190.12 91.15L191.99 91.36C195.11 91.71 204.02 93.55 207.94 94.68C218.15 97.65 226.11 102.14 230.44 107.36C234.16 111.85 236.56 118.17 237.99 127.26C239.17 134.83 239.06 156.18 237.75 169.18C234.78 199.15 225.28 222.1 207.49 242.38C204.02 246.33 197.42 252.77 193.39 256.13L190.27 258.74L190.18 213.46L190.12 168.15L145.87 168.15L145.87 213.43C145.87 253.13 145.81 258.71 145.43 258.51C144.27 257.85 137.62 251.88 133.94 248.23C120.72 234.99 110.89 219.46 105.16 202.62C100.12 187.86 98.01 174.74 97.15 153.15C96.37 133.37 97.92 120.9 102.22 112.32C105.13 106.5 109.91 102.25 117.72 98.51C120.75 97.06 127.58 94.59 130.08 94.06L131.03 93.85L131.03 112.62L138.39 112.68L145.73 112.77L145.81 120.1L145.87 127.46L190.12 127.46L190.12 91.15ZM131.03 112.91L116.48 112.91L116.48 127.46L131.03 127.46L131.03 112.91ZM145.58 127.76L131.03 127.76L131.03 142.31L145.58 142.31L145.58 127.76Z" />
	</g>
</svg>