<svg width="834" height="834" xmlns="http://www.w3.org/2000/svg" xmlns:xlink="http://www.w3.org/1999/xlink" overflow="hidden"><defs><clipPath id="clip0"><rect x="-2296" y="742" width="834" height="834"/></clipPath><clipPath id="clip1"><rect x="-2174" y="937" width="592" height="513"/></clipPath><clipPath id="clip2"><rect x="-2174" y="937" width="592" height="513"/></clipPath><clipPath id="clip3"><rect x="-2174" y="937" width="592" height="513"/></clipPath><linearGradient x1="135.527" y1="218.561" x2="256.585" y2="466.818" gradientUnits="userSpaceOnUse" spreadMethod="pad" id="fill4"><stop offset="0" stop-color="#00E0FF" stop-opacity="1"/><stop offset="0.445833" stop-color="#0094FF" stop-opacity="1"/><stop offset="1" stop-color="#781FFD" stop-opacity="1"/></linearGradient><linearGradient x1="8.90419" y1="78.6452" x2="415.417" y2="622.672" gradientUnits="userSpaceOnUse" spreadMethod="pad" id="fill5"><stop offset="0" stop-color="#00E0FF" stop-opacity="1"/><stop offset="0.445833" stop-color="#0094FF" stop-opacity="1"/><stop offset="1" stop-color="#781FFD" stop-opacity="1"/></linearGradient></defs><g clip-path="url(#clip0)" transform="translate(2296 -742)"><path d="M-2290.5 1161C-2290.5 933.182-2105.82 748.5-1878 748.5-1650.18 748.5-1465.5 933.182-1465.5 1161-1465.5 1388.82-1650.18 1573.5-1878 1573.5-2105.82 1573.5-2290.5 1388.82-2290.5 1161Z" stroke="#FFFFFF" stroke-width="4.58333" stroke-linecap="butt" stroke-linejoin="miter" stroke-miterlimit="8" stroke-opacity="1" fill="#FFFFFF" fill-rule="evenodd" fill-opacity="1"/><g clip-path="url(#clip1)"><g clip-path="url(#clip2)"><g clip-path="url(#clip3)"><path d="M541.789 123.317C554.437 127.931 561.484 140.204 561.061 153.663 556.539 297.226 504.682 487.435 292.536 487.435 80.3918 487.435 28.5342 297.226 24.0121 153.661 23.5882 140.204 30.6355 127.931 43.2843 123.317 74.3762 111.975 146.992 93.7435 292.536 93.7435 438.08 93.7435 510.697 111.975 541.789 123.317Z" fill="#FFFFFF" fill-rule="nonzero" fill-opacity="1" transform="matrix(1.00804 0 0 1 -2174 937)"/><path d="M35.3649 72.9687C35.3649 36.7166 64.753 7.32857 101.005 7.32857 137.257 7.32857 166.646 36.7167 166.646 72.9687L166.646 94.8488 35.3649 112.353 35.3649 72.9687Z" fill="#FF28FF" fill-rule="nonzero" fill-opacity="1" transform="matrix(1.00804 0 0 1 -2174 937)"/><path d="M419.443 72.9687C419.443 36.7167 448.831 7.32857 485.084 7.32857 521.335 7.32857 550.723 36.7167 550.723 72.9687L550.723 112.353 419.443 94.8488 419.443 72.9687Z" fill="#FF28FF" fill-rule="nonzero" fill-opacity="1" transform="matrix(1.00804 0 0 1 -2174 937)"/><path d="M398.097 372.198C427.099 372.198 450.609 337.805 450.609 295.379 450.609 252.954 427.099 218.561 398.097 218.561 369.095 218.561 345.585 252.954 345.585 295.379 345.585 337.805 369.095 372.198 398.097 372.198ZM188.039 372.205C217.041 372.205 240.551 337.813 240.551 295.387 240.551 252.962 217.041 218.57 188.039 218.57 159.037 218.57 135.527 252.962 135.527 295.387 135.527 337.813 159.037 372.205 188.039 372.205Z" fill="url(#fill4)" fill-rule="evenodd" transform="matrix(1.00804 0 0 1 -2174 937)"/><path d="M44.3701 216.939C51.5273 269.277 66.3595 322.434 93.3097 366.509 130.768 427.773 192.023 472.337 292.548 472.337 393.071 472.337 454.326 427.773 491.784 366.511 520.498 319.549 535.456 262.281 542.031 206.679L515.949 306.964 526.678 238.113C528.91 223.79 523.99 209.374 511.354 202.274 482.726 186.19 417.869 160.981 292.548 160.981 167.594 160.981 102.719 186.09 74.0313 202.122 61.3558 209.206 56.3807 223.633 58.5793 237.985L69.1455 306.964 44.3701 216.939ZM292.548 78.6452C145.842 78.6452 71.3562 97.0091 38.12 109.133 18.4051 116.324 8.33343 135.227 8.92916 154.14 11.227 227.087 25.5317 313.556 67.5429 382.264 110.18 451.997 180.926 502.538 292.548 502.538 404.168 502.538 474.915 451.997 517.551 382.264 559.563 313.556 573.867 227.089 576.165 154.14 576.761 135.228 566.689 116.324 546.974 109.133 513.739 97.0091 439.251 78.6452 292.548 78.6452Z" fill="url(#fill5)" fill-rule="evenodd" transform="matrix(1.00804 0 0 1 -2174 937)"/></g></g></g></g></svg>