<svg width="40" height="35" viewBox="0 0 40 35" fill="none" xmlns="http://www.w3.org/2000/svg">
<path d="M36.9642 8.41343C37.8271 8.72822 38.3079 9.56561 38.279 10.4838C37.9705 20.2786 34.4325 33.2558 19.9586 33.2558C5.48482 33.2558 1.94678 20.2786 1.63825 10.4837C1.60933 9.5656 2.09014 8.72821 2.95312 8.41343C5.0744 7.63965 10.0287 6.39576 19.9586 6.39576C29.8885 6.39576 34.8429 7.63965 36.9642 8.41343Z" fill="white"/>
<path d="M2.41281 4.97837C2.41281 2.50503 4.41785 0.5 6.89119 0.5C9.36452 0.5 11.3696 2.50504 11.3696 4.97837V6.47117L2.41281 7.6654V4.97837Z" fill="#FF28FF"/>
<path d="M28.617 4.97837C28.617 2.50504 30.622 0.5 33.0954 0.5C35.5687 0.5 37.5737 2.50504 37.5737 4.97837V7.6654L28.617 6.47117V4.97837Z" fill="#FF28FF"/>
<path fill-rule="evenodd" clip-rule="evenodd" d="M27.1606 25.3936C29.1393 25.3936 30.7433 23.0471 30.7433 20.1526C30.7433 17.2581 29.1393 14.9116 27.1606 14.9116C25.1819 14.9116 23.5779 17.2581 23.5779 20.1526C23.5779 23.0471 25.1819 25.3936 27.1606 25.3936ZM12.8292 25.3941C14.8079 25.3941 16.4119 23.0477 16.4119 20.1531C16.4119 17.2586 14.8079 14.9122 12.8292 14.9122C10.8505 14.9122 9.24649 17.2586 9.24649 20.1531C9.24649 23.0477 10.8505 25.3941 12.8292 25.3941Z" fill="url(#paint0_linear_330_169)"/>
<path fill-rule="evenodd" clip-rule="evenodd" d="M3.0272 14.8009C3.51551 18.3717 4.52745 21.9984 6.36616 25.0055C8.92181 29.1853 13.101 32.2257 19.9594 32.2257C26.8177 32.2257 30.9969 29.1853 33.5525 25.0056C35.5116 21.8016 36.5321 17.8944 36.9807 14.1009L35.2012 20.943L35.9332 16.2455C36.0855 15.2683 35.7498 14.2848 34.8877 13.8004C32.9345 12.703 28.5096 10.9831 19.9594 10.9831C11.4343 10.9831 7.00812 12.6962 5.05087 13.79C4.18607 14.2733 3.84664 15.2576 3.99664 16.2368L4.71753 20.943L3.0272 14.8009ZM19.9594 5.36566C9.95027 5.36566 4.86836 6.61856 2.60078 7.4457C1.25571 7.93634 0.568558 9.22604 0.609202 10.5164C0.765976 15.4933 1.74193 21.3927 4.60819 26.0804C7.51715 30.838 12.3439 34.2862 19.9594 34.2862C27.5748 34.2862 32.4016 30.838 35.3105 26.0804C38.1768 21.3927 39.1527 15.4934 39.3095 10.5164C39.3502 9.22605 38.663 7.93634 37.3179 7.4457C35.0504 6.61856 29.9684 5.36566 19.9594 5.36566Z" fill="url(#paint1_linear_330_169)"/>
<defs>
<linearGradient id="paint0_linear_330_169" x1="9.24649" y1="14.9116" x2="17.5058" y2="31.8492" gradientUnits="userSpaceOnUse">
<stop stop-color="#00E0FF"/>
<stop offset="0.445833" stop-color="#0094FF"/>
<stop offset="1" stop-color="#781FFD"/>
</linearGradient>
<linearGradient id="paint1_linear_330_169" x1="0.607498" y1="5.36566" x2="28.3423" y2="42.4825" gradientUnits="userSpaceOnUse">
<stop stop-color="#00E0FF"/>
<stop offset="0.445833" stop-color="#0094FF"/>
<stop offset="1" stop-color="#781FFD"/>
</linearGradient>
</defs>
</svg>
