<svg width="30" height="30" viewBox="0 0 30 30" fill="none" xmlns="http://www.w3.org/2000/svg">
<g clip-path="url(#clip0_1861_39)">
<circle cx="15" cy="15" r="15" fill="black"/>
<path d="M19.5522 6.51816C19.7138 6.51841 19.8738 6.48603 20.0232 6.42288C20.1725 6.35973 20.3083 6.26704 20.4227 6.15012C20.5371 6.0332 20.6279 5.89433 20.6899 5.74144C20.7519 5.58855 20.7839 5.42465 20.7841 5.25908C20.7836 4.92475 20.6535 4.60429 20.4225 4.36818C20.1916 4.13207 19.8785 3.99964 19.5522 4C19.226 3.99964 18.9129 4.13207 18.6819 4.36818C18.4509 4.60429 18.3209 4.92475 18.3204 5.25908C18.3209 5.59342 18.4509 5.91388 18.6819 6.14999C18.9129 6.3861 19.226 6.51853 19.5522 6.51816ZM20.9381 24.3032C21.2644 24.3036 21.5775 24.1711 21.8085 23.935C22.0395 23.6989 22.1695 23.3785 22.17 23.0441C22.1695 22.7098 22.0395 22.3893 21.8085 22.1532C21.5775 21.9171 21.2644 21.7847 20.9381 21.785C20.6119 21.7847 20.2988 21.9171 20.0678 22.1532C19.8368 22.3893 19.7068 22.7098 19.7063 23.0441C19.7068 23.3785 19.8368 23.6989 20.0678 23.935C20.2988 24.1711 20.6119 24.3036 20.9381 24.3032ZM19.9039 9.6661C20.0395 9.66628 20.1737 9.63909 20.2991 9.58609C20.4244 9.53308 20.5383 9.4553 20.6343 9.35718C20.7303 9.25906 20.8065 9.14253 20.8586 9.01423C20.9106 8.88593 20.9375 8.74839 20.9377 8.60944C20.9376 8.47046 20.9107 8.33287 20.8587 8.20452C20.8067 8.07617 20.7305 7.95958 20.6345 7.86141C20.5385 7.76324 20.4246 7.68542 20.2992 7.63238C20.1738 7.57935 20.0395 7.55215 19.9039 7.55233C19.7682 7.55215 19.6339 7.57935 19.5085 7.63238C19.3832 7.68542 19.2692 7.76324 19.1732 7.86141C19.0772 7.95958 19.001 8.07617 18.949 8.20452C18.897 8.33287 18.8702 8.47046 18.87 8.60944C18.8702 8.74839 18.8971 8.88593 18.9491 9.01423C19.0012 9.14253 19.0774 9.25906 19.1734 9.35718C19.2694 9.4553 19.3833 9.53308 19.5086 9.58609C19.634 9.63909 19.7683 9.66628 19.9039 9.6661ZM22.6537 10.0705C22.7893 10.0707 22.9236 10.0435 23.0489 9.99048C23.1743 9.93748 23.2882 9.8597 23.3842 9.76158C23.4802 9.66346 23.5564 9.54692 23.6084 9.41862C23.6605 9.29033 23.6874 9.15278 23.6876 9.01384C23.6874 8.87489 23.6605 8.73735 23.6084 8.60905C23.5564 8.48075 23.4802 8.36422 23.3842 8.2661C23.2882 8.16798 23.1743 8.0902 23.0489 8.03719C22.9236 7.98419 22.7893 7.957 22.6537 7.95718C22.5181 7.957 22.3838 7.98419 22.2585 8.03719C22.1332 8.0902 22.0193 8.16798 21.9233 8.2661C21.8273 8.36422 21.7511 8.48075 21.699 8.60905C21.647 8.73735 21.6201 8.87489 21.6199 9.01384C21.6201 9.15278 21.647 9.29033 21.699 9.41862C21.7511 9.54692 21.8273 9.66346 21.9233 9.76158C22.0193 9.8597 22.1332 9.93748 22.2585 9.99048C22.3838 10.0435 22.5181 10.0707 22.6537 10.0705ZM19.5522 12.3412C19.7852 12.3415 20.0088 12.2469 20.1738 12.0783C20.3387 11.9097 20.4316 11.6808 20.432 11.442C20.432 10.9454 20.0378 10.5424 19.5522 10.5424C19.4368 10.5422 19.3224 10.5653 19.2157 10.6104C19.109 10.6556 19.012 10.7218 18.9302 10.8053C18.8485 10.8889 18.7836 10.9881 18.7393 11.0974C18.695 11.2066 18.6722 11.3237 18.672 11.442C18.672 11.9387 19.0662 12.3412 19.5522 12.3412ZM22.3017 12.7236C22.4171 12.7238 22.5314 12.7007 22.6381 12.6556C22.7448 12.6105 22.8417 12.5443 22.9235 12.4608C23.0052 12.3773 23.0701 12.2781 23.1144 12.1689C23.1588 12.0597 23.1817 11.9427 23.1818 11.8244C23.1818 11.3277 22.7877 10.9252 22.3017 10.9252C22.1862 10.9251 22.0719 10.9482 21.9653 10.9934C21.8586 11.0385 21.7616 11.1048 21.68 11.1883C21.5983 11.2718 21.5334 11.3711 21.4892 11.4803C21.4449 11.5895 21.422 11.7066 21.4219 11.8249C21.4219 12.3215 21.8161 12.7236 22.3017 12.7236ZM24.5015 13.6003C24.7345 13.6006 24.958 13.506 25.123 13.3374C25.288 13.1687 25.3808 12.9399 25.3812 12.7011C25.3812 12.2045 24.987 11.8019 24.5015 11.8019C24.386 11.8017 24.2716 11.8249 24.1649 11.87C24.0582 11.9151 23.9612 11.9813 23.8795 12.0649C23.7977 12.1484 23.7328 12.2476 23.6885 12.3569C23.6442 12.4661 23.6214 12.5833 23.6213 12.7016C23.6213 13.1978 24.0154 13.6003 24.5015 13.6003ZM21.4878 14.8824C21.9128 14.8824 22.2573 14.5298 22.2573 14.0951C22.2573 13.6605 21.9124 13.3084 21.4878 13.3084C21.0622 13.3084 20.7173 13.6605 20.7173 14.0951C20.7173 14.5298 21.0622 14.8824 21.4878 14.8824ZM18.7379 14.5C19.1634 14.5 19.5079 14.1475 19.5079 13.7128C19.5079 13.2781 19.163 12.926 18.7374 12.926C18.3128 12.926 17.9679 13.2781 17.9679 13.7128C17.9679 14.1475 18.3128 14.5 18.7379 14.5ZM23.7095 15.7591C24.135 15.7591 24.4799 15.4066 24.4799 14.9719C24.4799 14.5372 24.135 14.1851 23.7095 14.1851C23.6059 14.1807 23.5026 14.1977 23.4056 14.2353C23.3087 14.2728 23.2201 14.3301 23.1453 14.4036C23.0705 14.4771 23.011 14.5654 22.9703 14.6631C22.9297 14.7608 22.9087 14.8659 22.9087 14.9721C22.9087 15.0783 22.9297 15.1834 22.9703 15.2811C23.011 15.3788 23.0705 15.4671 23.1453 15.5406C23.2201 15.6141 23.3087 15.6714 23.4056 15.7089C23.5026 15.7465 23.6059 15.7635 23.7095 15.7591ZM20.3881 16.5233C20.7527 16.5233 21.0479 16.2213 21.0479 15.8486C21.0478 15.6693 20.9783 15.4973 20.8545 15.3706C20.7307 15.2438 20.5628 15.1726 20.3879 15.1727C20.2129 15.1727 20.0451 15.244 19.9214 15.3709C19.7977 15.4977 19.7282 15.6697 19.7283 15.849C19.7283 16.2213 20.0239 16.5233 20.3881 16.5233ZM22.6103 17.378C22.6988 17.3814 22.7871 17.3664 22.8698 17.334C22.9525 17.3016 23.028 17.2524 23.0918 17.1894C23.1556 17.1265 23.2063 17.0509 23.241 16.9674C23.2756 16.8839 23.2935 16.794 23.2935 16.7033C23.2935 16.6125 23.2756 16.5227 23.241 16.4391C23.2063 16.3556 23.1556 16.2801 23.0918 16.2171C23.028 16.1541 22.9525 16.105 22.8698 16.0726C22.7871 16.0402 22.6988 16.0252 22.6103 16.0285C22.2457 16.0285 21.9505 16.331 21.9505 16.7033C21.9505 17.076 22.2461 17.378 22.6103 17.378ZM17.6602 16.1185C18.0248 16.1185 18.3204 15.8165 18.3204 15.4437C18.3204 15.0719 18.0248 14.7694 17.6602 14.7694C17.296 14.7694 17.0004 15.0715 17.0004 15.4442C17.0004 15.8165 17.296 16.1185 17.6602 16.1185ZM19.1787 17.6254C19.4819 17.6254 19.7283 17.3739 19.7283 17.0631C19.7283 16.7529 19.4819 16.5013 19.1787 16.5013C19.1053 16.4991 19.0323 16.5121 18.9639 16.5393C18.8955 16.5666 18.8331 16.6076 18.7805 16.66C18.7279 16.7124 18.686 16.775 18.6574 16.8443C18.6288 16.9135 18.6141 16.9879 18.614 17.0631C18.614 17.1383 18.6287 17.2128 18.6572 17.282C18.6858 17.3513 18.7276 17.414 18.7802 17.4665C18.8328 17.5189 18.8951 17.56 18.9635 17.5873C19.0318 17.6146 19.1049 17.6276 19.1782 17.6254H19.1787ZM20.1238 19.1765C20.1884 19.1785 20.2528 19.1672 20.3131 19.1432C20.3733 19.1193 20.4283 19.0832 20.4747 19.037C20.5211 18.9909 20.558 18.9357 20.5832 18.8747C20.6084 18.8137 20.6214 18.7481 20.6214 18.6819C20.6214 18.6156 20.6084 18.55 20.5832 18.489C20.558 18.428 20.5211 18.3728 20.4747 18.3267C20.4283 18.2806 20.3733 18.2445 20.3131 18.2205C20.2528 18.1966 20.1884 18.1853 20.1238 18.1873C20.0583 18.1837 19.9927 18.1939 19.9312 18.2172C19.8696 18.2404 19.8133 18.2763 19.7657 18.3225C19.7181 18.3688 19.6802 18.4245 19.6543 18.4863C19.6284 18.5481 19.615 18.6146 19.615 18.6819C19.615 18.7491 19.6284 18.8156 19.6543 18.8774C19.6802 18.9392 19.7181 18.9949 19.7657 19.0412C19.8133 19.0875 19.8696 19.1233 19.9312 19.1466C19.9927 19.1698 20.0583 19.18 20.1238 19.1765ZM18.9578 19.4913C19.0109 19.4933 19.0637 19.4842 19.1133 19.4648C19.1628 19.4453 19.208 19.4159 19.2462 19.3781C19.2845 19.3404 19.3149 19.2952 19.3357 19.2452C19.3565 19.1951 19.3672 19.1413 19.3673 19.087C19.3674 19.0326 19.3568 18.9788 19.3362 18.9287C19.3156 18.8786 19.2853 18.8333 19.2472 18.7954C19.2091 18.7575 19.164 18.7279 19.1145 18.7083C19.065 18.6887 19.0122 18.6794 18.9592 18.6812C18.8566 18.6845 18.7594 18.7286 18.6879 18.804C18.6165 18.8795 18.5764 18.9805 18.5763 19.0856C18.5761 19.1907 18.6158 19.2918 18.687 19.3675C18.7582 19.4432 18.8553 19.4876 18.9578 19.4913ZM17.9244 18.3222C17.99 18.3258 18.0555 18.3156 18.1171 18.2924C18.1786 18.2691 18.235 18.2332 18.2826 18.187C18.3302 18.1407 18.3681 18.085 18.394 18.0232C18.4199 17.9614 18.4332 17.8949 18.4332 17.8276C18.4332 17.7604 18.4199 17.6939 18.394 17.6321C18.3681 17.5703 18.3302 17.5146 18.2826 17.4683C18.235 17.422 18.1786 17.3862 18.1171 17.3629C18.0555 17.3397 17.99 17.3295 17.9244 17.333C17.8598 17.331 17.7955 17.3423 17.7352 17.3663C17.6749 17.3902 17.6199 17.4263 17.5735 17.4725C17.5271 17.5186 17.4902 17.5738 17.465 17.6348C17.4399 17.6958 17.4269 17.7614 17.4269 17.8276C17.4269 17.8939 17.4399 17.9595 17.465 18.0205C17.4902 18.0815 17.5271 18.1367 17.5735 18.1828C17.6199 18.2289 17.6749 18.2651 17.7352 18.289C17.7955 18.3129 17.8598 18.3242 17.9244 18.3222ZM16.4284 17.2431C16.5027 17.2469 16.577 17.2352 16.6467 17.2087C16.7165 17.1821 16.7802 17.1414 16.8342 17.0888C16.8881 17.0363 16.931 16.9731 16.9604 16.903C16.9897 16.8329 17.0049 16.7575 17.0049 16.6813C17.0049 16.605 16.9898 16.5296 16.9605 16.4595C16.9313 16.3894 16.8884 16.3261 16.8345 16.2735C16.7806 16.221 16.7169 16.1801 16.6471 16.1536C16.5774 16.127 16.5031 16.1152 16.4288 16.119C16.1251 16.119 15.8787 16.3705 15.8787 16.6808C15.8787 16.9915 16.1251 17.2431 16.4288 17.2431H16.4284ZM16.406 13.016C16.7097 13.016 16.956 12.764 16.956 12.4537C16.956 12.3042 16.8981 12.1608 16.7949 12.0551C16.6918 11.9494 16.5518 11.89 16.406 11.89C16.2601 11.89 16.1202 11.9494 16.017 12.0551C15.9138 12.1608 15.8559 12.3042 15.8559 12.4537C15.8559 12.764 16.1023 13.016 16.406 13.016ZM16.6478 11.0372C16.7125 11.0392 16.7768 11.0279 16.8371 11.004C16.8974 10.98 16.9523 10.9439 16.9987 10.8978C17.0452 10.8516 17.082 10.7964 17.1072 10.7354C17.1324 10.6744 17.1454 10.6088 17.1454 10.5426C17.1454 10.4763 17.1324 10.4108 17.1072 10.3498C17.082 10.2887 17.0452 10.2335 16.9987 10.1874C16.9523 10.1413 16.8974 10.1052 16.8371 10.0812C16.7768 10.0573 16.7125 10.046 16.6478 10.048C16.5823 10.0445 16.5168 10.0546 16.4552 10.0779C16.3936 10.1011 16.3373 10.137 16.2897 10.1833C16.2421 10.2295 16.2042 10.2853 16.1783 10.347C16.1524 10.4088 16.139 10.4754 16.139 10.5426C16.139 10.6098 16.1524 10.6764 16.1783 10.7381C16.2042 10.7999 16.2421 10.8556 16.2897 10.9019C16.3373 10.9482 16.3936 10.9841 16.4552 11.0073C16.5168 11.0306 16.5823 11.0407 16.6478 11.0372ZM17.1764 9.41869C17.2813 9.41887 17.382 9.37634 17.4563 9.30046C17.5306 9.22458 17.5724 9.12156 17.5726 9.01407C17.5728 8.90657 17.5313 8.80341 17.4572 8.72727C17.3832 8.65113 17.2826 8.60825 17.1777 8.60807C17.0752 8.61148 16.978 8.6556 16.9066 8.7311C16.8352 8.80659 16.7952 8.90757 16.7951 9.0127C16.795 9.11784 16.8347 9.21891 16.9059 9.29457C16.9772 9.37024 17.0743 9.41458 17.1768 9.41823L17.1764 9.41869ZM16.2523 8.65397C16.3804 8.65397 16.5032 8.60193 16.5939 8.50926C16.6846 8.41659 16.7357 8.29085 16.7361 8.15961C16.7358 8.02829 16.6848 7.90243 16.5941 7.80966C16.5034 7.71689 16.3805 7.66479 16.2523 7.66479C16.1868 7.66124 16.1212 7.67141 16.0597 7.69466C15.9981 7.71792 15.9418 7.75378 15.8942 7.80005C15.8466 7.84633 15.8087 7.90205 15.7828 7.96383C15.7569 8.0256 15.7435 8.09214 15.7435 8.15938C15.7435 8.22662 15.7569 8.29315 15.7828 8.35493C15.8087 8.41671 15.8466 8.47243 15.8942 8.5187C15.9418 8.56498 15.9981 8.60084 16.0597 8.62409C16.1212 8.64735 16.1868 8.65751 16.2523 8.65397ZM21.378 18.4797C21.4519 18.4827 21.5257 18.4705 21.5949 18.4436C21.6641 18.4167 21.7272 18.3758 21.7806 18.3233C21.8339 18.2707 21.8764 18.2077 21.9054 18.138C21.9344 18.0682 21.9494 17.9932 21.9494 17.9174C21.9494 17.8416 21.9344 17.7665 21.9054 17.6968C21.8764 17.627 21.8339 17.564 21.7806 17.5115C21.7272 17.459 21.6641 17.4181 21.5949 17.3912C21.5257 17.3643 21.4519 17.352 21.378 17.3551C21.0743 17.3551 20.828 17.6071 20.828 17.9174C20.828 18.2277 21.0743 18.4797 21.378 18.4797ZM14.9981 8.00216C15.0724 8.00593 15.1467 7.99419 15.2165 7.96765C15.2862 7.9411 15.35 7.90031 15.4039 7.84775C15.4578 7.79518 15.5007 7.73194 15.53 7.66187C15.5593 7.59179 15.5744 7.51634 15.5744 7.4401C15.5744 7.36385 15.5593 7.2884 15.53 7.21833C15.5007 7.14825 15.4578 7.08501 15.4039 7.03245C15.35 6.97989 15.2862 6.9391 15.2165 6.91255C15.1467 6.88601 15.0724 6.87426 14.9981 6.87803C14.9248 6.87589 14.8517 6.88883 14.7834 6.91611C14.715 6.94339 14.6526 6.98445 14.6 7.03686C14.5474 7.08926 14.5056 7.15195 14.477 7.22121C14.4484 7.29048 14.4337 7.3649 14.4337 7.4401C14.4337 7.51529 14.4484 7.58972 14.477 7.65898C14.5056 7.72825 14.5474 7.79094 14.6 7.84334C14.6526 7.89575 14.715 7.9368 14.7834 7.96408C14.8517 7.99136 14.9248 8.00431 14.9981 8.00216ZM15.3726 10.3854C15.6763 10.3854 15.9226 10.1338 15.9226 9.82354C15.9226 9.51279 15.6763 9.26125 15.3726 9.26125C15.2992 9.2591 15.2262 9.27205 15.1578 9.29933C15.0894 9.32661 15.0271 9.36766 14.9745 9.42007C14.9219 9.47247 14.88 9.53516 14.8515 9.60443C14.8229 9.67369 14.8082 9.74812 14.8082 9.82331C14.8082 9.89851 14.8229 9.97294 14.8515 10.0422C14.88 10.1115 14.9219 10.1741 14.9745 10.2266C15.0271 10.279 15.0894 10.32 15.1578 10.3473C15.2262 10.3746 15.2992 10.3875 15.3726 10.3854ZM14.7567 12.6561C15.1208 12.6561 15.4165 12.3541 15.4165 11.9814C15.4165 11.6096 15.1208 11.3071 14.7567 11.3071C14.392 11.3071 14.0964 11.6091 14.0964 11.9818C14.0964 12.3541 14.392 12.6561 14.7567 12.6561ZM12.7544 12.6561C13.1799 12.6561 13.5248 12.3036 13.5248 11.8694C13.5248 11.4347 13.1799 11.0822 12.7544 11.0822C12.3293 11.0822 11.9849 11.4347 11.9849 11.8694C11.9849 12.3036 12.3298 12.6561 12.7544 12.6561ZM10.4229 13.1964C10.5383 13.1965 10.6526 13.1733 10.7593 13.1282C10.866 13.083 10.9629 13.0168 11.0446 12.9333C11.1263 12.8497 11.1911 12.7505 11.2354 12.6413C11.2797 12.5321 11.3025 12.415 11.3027 12.2967C11.3027 11.8001 10.9085 11.3971 10.4229 11.3971C10.3075 11.3969 10.1931 11.42 10.0864 11.4651C9.97966 11.5102 9.88266 11.5765 9.80092 11.66C9.71918 11.7436 9.65431 11.8428 9.61001 11.952C9.5657 12.0613 9.54284 12.1784 9.54272 12.2967C9.54272 12.7934 9.93691 13.1964 10.4229 13.1964ZM7.87193 14.4775C8.00752 14.4777 8.14182 14.4505 8.26715 14.3975C8.39249 14.3445 8.50641 14.2667 8.60241 14.1686C8.69841 14.0705 8.77461 13.9539 8.82666 13.8256C8.87871 13.6973 8.90559 13.5598 8.90576 13.4209C8.90559 13.2819 8.87871 13.1444 8.82666 13.0161C8.77461 12.8878 8.69841 12.7712 8.60241 12.6731C8.50641 12.575 8.39249 12.4972 8.26715 12.4442C8.14182 12.3912 8.00752 12.364 7.87193 12.3642C7.73631 12.364 7.60196 12.3911 7.47658 12.4441C7.35119 12.4971 7.23722 12.5748 7.14117 12.673C7.04512 12.7711 6.96889 12.8876 6.91681 13.016C6.86473 13.1443 6.83783 13.2819 6.83766 13.4209C6.83783 13.5598 6.86473 13.6974 6.91681 13.8257C6.96889 13.9541 7.04512 14.0706 7.14117 14.1688C7.23722 14.2669 7.35119 14.3447 7.47658 14.3976C7.60196 14.4506 7.73631 14.4777 7.87193 14.4775ZM5.23182 16.6358C5.55808 16.6362 5.87113 16.5037 6.10213 16.2676C6.33312 16.0315 6.46316 15.7111 6.46363 15.3767C6.46316 15.0424 6.33312 14.7219 6.10213 14.4858C5.87113 14.2497 5.55808 14.1173 5.23182 14.1176C4.90555 14.1173 4.5925 14.2497 4.3615 14.4858C4.13051 14.7219 4.00047 15.0424 4 15.3767C4.00047 15.7111 4.13051 16.0315 4.3615 16.2676C4.5925 16.5037 4.90555 16.6362 5.23182 16.6358ZM6.83766 11.8469C6.97324 11.8471 7.10754 11.8199 7.23287 11.7669C7.35821 11.7139 7.47213 11.6361 7.56813 11.538C7.66413 11.4399 7.74033 11.3233 7.79238 11.195C7.84443 11.0667 7.87131 10.9292 7.87149 10.7902C7.87131 10.6513 7.84443 10.5137 7.79238 10.3854C7.74033 10.2571 7.66413 10.1406 7.56813 10.0425C7.47213 9.94437 7.35821 9.86659 7.23287 9.81359C7.10754 9.76058 6.97324 9.73339 6.83766 9.73357C6.70207 9.73339 6.56777 9.76058 6.44244 9.81359C6.3171 9.86659 6.20318 9.94437 6.10718 10.0425C6.01118 10.1406 5.93498 10.2571 5.88293 10.3854C5.83088 10.5137 5.804 10.6513 5.80383 10.7902C5.804 10.9292 5.83088 11.0667 5.88293 11.195C5.93498 11.3233 6.01118 11.4399 6.10718 11.538C6.20318 11.6361 6.3171 11.7139 6.44244 11.7669C6.56777 11.8199 6.70207 11.8471 6.83766 11.8469ZM9.38864 10.5653C9.50408 10.5655 9.61844 10.5424 9.72516 10.4972C9.83188 10.4521 9.92889 10.3859 10.0106 10.3023C10.0924 10.2188 10.1572 10.1196 10.2015 10.0103C10.2458 9.90107 10.2687 9.78395 10.2688 9.66564C10.2688 9.16944 9.87464 8.76643 9.38864 8.76643C9.27322 8.76631 9.15892 8.78948 9.05225 8.83463C8.94558 8.87978 8.84863 8.94601 8.76694 9.02955C8.68524 9.1131 8.62041 9.21231 8.57614 9.32153C8.53186 9.43075 8.50901 9.54783 8.50889 9.6661C8.50889 10.1628 8.90308 10.5653 9.38864 10.5653ZM9.01506 8.18164C9.13047 8.18182 9.24479 8.15871 9.35148 8.11361C9.45817 8.06852 9.55516 8.00234 9.63689 7.91884C9.71862 7.83534 9.78351 7.73616 9.82784 7.62696C9.87216 7.51777 9.89507 7.40069 9.89525 7.28243C9.89525 6.78577 9.50107 6.38275 9.01506 6.38275C8.89965 6.38263 8.78534 6.40581 8.67867 6.45096C8.572 6.4961 8.47505 6.56234 8.39336 6.64588C8.31167 6.72942 8.24683 6.82864 8.20256 6.93786C8.15828 7.04707 8.13544 7.16416 8.13532 7.28243C8.13532 7.77908 8.5295 8.18164 9.01506 8.18164ZM11.347 7.6423C11.7725 7.6423 12.117 7.29023 12.117 6.85554C12.117 6.42085 11.7721 6.06833 11.3466 6.06833C10.9219 6.06833 10.577 6.42085 10.577 6.85554C10.577 7.29023 10.9219 7.6423 11.347 7.6423ZM13.3488 7.6423C13.7134 7.6423 14.0091 7.34026 14.0091 6.96754C14.0091 6.59528 13.7134 6.29325 13.3488 6.29325C12.9846 6.29325 12.689 6.59528 12.689 6.968C12.689 7.34026 12.9846 7.64275 13.3488 7.64275V7.6423ZM13.7228 10.0255C13.8094 10.0256 13.8951 10.0083 13.9751 9.97441C14.0551 9.94055 14.1278 9.89087 14.189 9.8282C14.2503 9.76553 14.2988 9.69111 14.332 9.60918C14.3651 9.52726 14.3822 9.43944 14.3822 9.35075C14.3822 8.97849 14.0866 8.67646 13.7224 8.67646C13.3582 8.67646 13.0626 8.97849 13.0626 9.35121C13.0626 9.72348 13.3582 10.0255 13.7224 10.0255H13.7228ZM11.7215 10.048C12.147 10.048 12.4915 9.69593 12.4915 9.26125C12.4915 8.82656 12.1466 8.47449 11.721 8.47449C11.2964 8.47449 10.9515 8.82656 10.9515 9.26125C10.9515 9.69593 11.2964 10.048 11.7215 10.048ZM9.54362 16.0285C9.62187 16.0284 9.69833 16.0046 9.76333 15.9599C9.82834 15.9153 9.87896 15.8519 9.9088 15.7778C9.93864 15.7037 9.94636 15.6221 9.93098 15.5435C9.91559 15.4649 9.8778 15.3927 9.82237 15.3361C9.76695 15.2795 9.69639 15.241 9.61962 15.2255C9.54285 15.21 9.46332 15.2182 9.39109 15.2491C9.31886 15.2799 9.25717 15.332 9.21384 15.3988C9.17051 15.4655 9.14747 15.5439 9.14765 15.6241C9.14765 15.8477 9.32458 16.0285 9.54362 16.0285ZM11.1266 15.8266C11.1921 15.8301 11.2577 15.8199 11.3192 15.7967C11.3808 15.7734 11.4371 15.7376 11.4847 15.6913C11.5323 15.645 11.5702 15.5893 11.5961 15.5275C11.6221 15.4657 11.6354 15.3992 11.6354 15.332C11.6354 15.2647 11.6221 15.1982 11.5961 15.1364C11.5702 15.0746 11.5323 15.0189 11.4847 14.9726C11.4371 14.9264 11.3808 14.8905 11.3192 14.8673C11.2577 14.844 11.1921 14.8338 11.1266 14.8374C11.0611 14.8338 10.9955 14.844 10.934 14.8673C10.8724 14.8905 10.8161 14.9264 10.7685 14.9726C10.7209 15.0189 10.683 15.0746 10.6571 15.1364C10.6312 15.1982 10.6178 15.2647 10.6178 15.332C10.6178 15.3992 10.6312 15.4657 10.6571 15.5275C10.683 15.5893 10.7209 15.645 10.7685 15.6913C10.8161 15.7376 10.8724 15.7734 10.934 15.7967C10.9955 15.8199 11.0611 15.8301 11.1266 15.8266ZM12.8646 15.1518C12.9385 15.1549 13.0122 15.1426 13.0813 15.1157C13.1504 15.0889 13.2135 15.048 13.2668 14.9955C13.3202 14.943 13.3626 14.8801 13.3916 14.8104C13.4205 14.7407 13.4355 14.6657 13.4355 14.59C13.4355 14.5142 13.4205 14.4392 13.3916 14.3695C13.3626 14.2999 13.3202 14.2369 13.2668 14.1844C13.2135 14.1319 13.1504 14.091 13.0813 14.0642C13.0122 14.0373 12.9385 14.0251 12.8646 14.0281C12.5609 14.0281 12.3145 14.2797 12.3145 14.59C12.3145 14.9007 12.5609 15.1523 12.8646 15.1523V15.1518ZM13.2825 16.9511C13.6471 16.9511 13.9423 16.6487 13.9423 16.2764C13.9423 15.9037 13.6467 15.6016 13.2825 15.6016C12.9179 15.6016 12.6223 15.9037 12.6223 16.2764C12.6223 16.6487 12.9179 16.9511 13.2825 16.9511ZM11.1714 17.378C11.4751 17.378 11.7215 17.126 11.7215 16.8157C11.7215 16.6663 11.6635 16.523 11.5604 16.4173C11.4573 16.3117 11.3175 16.2523 11.1716 16.2523C11.0258 16.2523 10.886 16.3117 10.7828 16.4173C10.6797 16.523 10.6218 16.6663 10.6218 16.8157C10.6218 17.126 10.8682 17.378 11.1714 17.378ZM9.30084 17.3551C9.36546 17.3571 9.42982 17.3458 9.49009 17.3219C9.55037 17.2979 9.60534 17.2618 9.65175 17.2157C9.69815 17.1695 9.73505 17.1143 9.76024 17.0533C9.78544 16.9923 9.79842 16.9267 9.79842 16.8605C9.79842 16.7942 9.78544 16.7287 9.76024 16.6677C9.73505 16.6066 9.69815 16.5514 9.65175 16.5053C9.60534 16.4592 9.55037 16.4231 9.49009 16.3991C9.42982 16.3752 9.36546 16.3639 9.30084 16.3659C9.23532 16.3624 9.16977 16.3725 9.10821 16.3958C9.04664 16.419 8.99034 16.4549 8.94274 16.5012C8.89513 16.5474 8.85722 16.6032 8.83131 16.6649C8.80541 16.7267 8.79204 16.7933 8.79204 16.8605C8.79204 16.9277 8.80541 16.9943 8.83131 17.056C8.85722 17.1178 8.89513 17.1735 8.94274 17.2198C8.99034 17.2661 9.04664 17.302 9.10821 17.3252C9.16977 17.3485 9.23532 17.3586 9.30084 17.3551ZM9.32324 18.9066C9.39659 18.9087 9.46961 18.8958 9.53799 18.8685C9.60637 18.8412 9.66871 18.8001 9.72133 18.7477C9.77395 18.6953 9.81579 18.6326 9.84435 18.5634C9.87291 18.4941 9.88763 18.4197 9.88763 18.3445C9.88763 18.2693 9.87291 18.1949 9.84435 18.1256C9.81579 18.0563 9.77395 17.9937 9.72133 17.9412C9.66871 17.8888 9.60637 17.8478 9.53799 17.8205C9.46961 17.7932 9.39659 17.7803 9.32324 17.7824C9.01909 17.7824 8.77318 18.0344 8.77318 18.3447C8.77318 18.655 9.01954 18.9066 9.32279 18.9066H9.32324ZM11.5669 19.1989C11.9311 19.1989 12.2267 18.8969 12.2267 18.5242C12.2267 18.1524 11.9311 17.8499 11.5669 17.8499C11.2023 17.8499 10.9067 18.1519 10.9067 18.5247C10.9067 18.8969 11.2023 19.1989 11.5669 19.1989ZM14.1851 18.9066C14.6106 18.9066 14.9551 18.5545 14.9551 18.1198C14.9551 17.6851 14.6102 17.333 14.1847 17.333C13.76 17.333 13.4151 17.6851 13.4151 18.1198C13.4151 18.5545 13.76 18.9066 14.1851 18.9066ZM15.7246 20.8624C15.9577 20.8627 16.1812 20.7681 16.3462 20.5995C16.5112 20.4308 16.604 20.202 16.6044 19.9632C16.6044 19.4666 16.2102 19.0635 15.7246 19.0635C15.6092 19.0634 15.4948 19.0865 15.3881 19.1316C15.2814 19.1767 15.1844 19.243 15.1027 19.3265C15.0209 19.4101 14.956 19.5093 14.9117 19.6185C14.8674 19.7278 14.8446 19.8449 14.8445 19.9632C14.8445 20.4599 15.2386 20.8624 15.7246 20.8624ZM12.491 21.1328C12.9166 21.1328 13.2615 20.7803 13.2615 20.3456C13.2615 19.9113 12.9166 19.5588 12.491 19.5588C12.0659 19.5588 11.7215 19.9113 11.7215 20.3456C11.7215 20.7803 12.0659 21.1328 12.491 21.1328ZM10.6648 22.6613C11.0899 22.6613 11.4343 22.3092 11.4343 21.8746C11.4343 21.4399 11.0894 21.0878 10.6648 21.0878C10.2393 21.0878 9.89435 21.4399 9.89435 21.8746C9.89435 22.3092 10.2393 22.6613 10.6648 22.6613ZM12.1833 24.6401C12.2987 24.6402 12.413 24.6171 12.5197 24.5719C12.6263 24.5268 12.7233 24.4605 12.805 24.377C12.8867 24.2935 12.9515 24.1942 12.9958 24.085C13.0401 23.9758 13.0629 23.8587 13.063 23.7405C13.063 23.2443 12.6688 22.8417 12.1833 22.8417C12.0679 22.8415 11.9536 22.8646 11.8469 22.9097C11.7402 22.9548 11.6432 23.021 11.5615 23.1045C11.4797 23.188 11.4148 23.2872 11.3705 23.3964C11.3262 23.5056 11.3033 23.6226 11.3031 23.7409C11.3031 24.2376 11.6973 24.6401 12.1833 24.6401ZM16.2304 25C16.366 25.0002 16.5002 24.973 16.6256 24.92C16.7509 24.867 16.8648 24.7892 16.9608 24.6911C17.0568 24.593 17.133 24.4764 17.1851 24.3481C17.2371 24.2198 17.264 24.0823 17.2642 23.9433C17.264 23.8044 17.2371 23.6669 17.1851 23.5386C17.133 23.4103 17.0568 23.2937 16.9608 23.1956C16.8648 23.0975 16.7509 23.0197 16.6256 22.9667C16.5002 22.9137 16.366 22.8865 16.2304 22.8867C16.0948 22.8865 15.9605 22.9137 15.8351 22.9667C15.7098 23.0197 15.5959 23.0975 15.4999 23.1956C15.4039 23.2937 15.3277 23.4103 15.2756 23.5386C15.2236 23.6669 15.1967 23.8044 15.1965 23.9433C15.1967 24.0823 15.2236 24.2198 15.2756 24.3481C15.3277 24.4764 15.4039 24.593 15.4999 24.6911C15.5959 24.7892 15.7098 24.867 15.8351 24.92C15.9605 24.973 16.0948 25.0002 16.2304 25ZM14.0091 23.1111C14.1245 23.1113 14.2388 23.0881 14.3455 23.0429C14.4521 22.9978 14.5491 22.9316 14.6308 22.848C14.7125 22.7645 14.7773 22.6653 14.8216 22.556C14.8658 22.4468 14.8887 22.3297 14.8888 22.2115C14.8888 21.7153 14.4946 21.3123 14.0091 21.3123C13.8936 21.3121 13.7793 21.3352 13.6725 21.3803C13.5658 21.4255 13.4688 21.4917 13.3871 21.5752C13.3053 21.6588 13.2405 21.758 13.1962 21.8673C13.1519 21.9765 13.129 22.0936 13.1289 22.2119C13.1289 22.7086 13.5231 23.1111 14.0091 23.1111ZM17.924 22.7517C18.0596 22.7519 18.1939 22.7247 18.3192 22.6717C18.4446 22.6187 18.5585 22.5409 18.6545 22.4428C18.7505 22.3447 18.8267 22.2282 18.8787 22.0999C18.9308 21.9716 18.9577 21.834 18.9578 21.6951C18.9577 21.5561 18.9308 21.4186 18.8787 21.2903C18.8267 21.162 18.7505 21.0455 18.6545 20.9473C18.5585 20.8492 18.4446 20.7714 18.3192 20.7184C18.1939 20.6654 18.0596 20.6382 17.924 20.6384C17.7884 20.6382 17.6541 20.6654 17.5288 20.7184C17.4034 20.7714 17.2895 20.8492 17.1935 20.9473C17.0975 21.0455 17.0213 21.162 16.9693 21.2903C16.9172 21.4186 16.8903 21.5561 16.8902 21.6951C16.8903 21.834 16.9172 21.9716 16.9693 22.0999C17.0213 22.2282 17.0975 22.3447 17.1935 22.4428C17.2895 22.5409 17.4034 22.6187 17.5288 22.6717C17.6541 22.7247 17.7884 22.7519 17.924 22.7517ZM9.74071 20.7279C10.1053 20.7279 10.401 20.4259 10.401 20.0532C10.401 19.6814 10.1053 19.3789 9.74116 19.3789C9.37654 19.3789 9.08091 19.6809 9.08091 20.0536C9.08091 20.4259 9.37654 20.7284 9.74116 20.7284L9.74071 20.7279ZM32.0612 6.92623H32.5092V21.6148H32.0612V6.92623ZM41.8656 17.9426H43.4338L45.1498 12.8967L46.8551 17.9426H48.413L50.6025 10.5984H48.9183L47.5812 15.5264L45.9812 10.5984H44.297L42.6969 15.5264L41.3603 10.5984H39.6761L41.8656 17.9426ZM52.7208 17.9426H54.2787V10.5984H52.7208V17.9426ZM56.9439 17.9426H58.4915V15.8899L59.3968 14.9067L61.6176 17.9426H63.5016L60.4808 13.7839L63.3019 10.5984H61.4174L58.4915 13.9657V10.5984H56.9439V17.9426ZM65.4421 17.9426H67V10.5984H65.4421V17.9426Z" fill="white"/>
</g>
<defs>
<clipPath id="clip0_1861_39">
<rect width="30" height="30" fill="white"/>
</clipPath>
</defs>
</svg>
