<?xml version="1.0" encoding="utf-8"?>
<!-- Generator: Adobe Illustrator 25.2.1, SVG Export Plug-In . SVG Version: 6.00 Build 0)  -->
<svg version="1.1" id="Layer_1" xmlns="http://www.w3.org/2000/svg" xmlns:xlink="http://www.w3.org/1999/xlink" x="0px"
      y="0px" viewBox="0 0 36 36" style="enable-background:new 0 0 36 36;" xml:space="preserve">
      <style type="text/css">
            .st0 {
                  fill: #0E615D;
            }

            .st1 {
                  fill: #2D8483;
            }

            .st2 {
                  fill: #70CECC;
            }

            .st3 {
                  fill: #449C9B;
            }

            .st4 {
                  fill: #59B4B3;
            }

            .st5 {
                  fill: #57BAB9;
            }

            .st6 {
                  fill: #318F8D;
            }

            .st7 {
                  fill: #064C49;
            }

            .st8 {
                  fill: #053F3D;
            }

            .st9 {
                  fill: #023834;
            }

            .st10 {
                  fill: #004742;
            }

            .st11 {
                  fill: #024B46;
            }

            .st12 {
                  fill: #064E4B;
            }

            .st13 {
                  fill: #063A38;
            }

            .st14 {
                  fill: #359190;
            }
      </style>
      <g>
            <path class="st0" d="M28.5,3.365c0.986,0.739,1.913,1.543,2.758,2.454c0.578,0.622,1.07,1.305,1.576,1.983
		c0.685,0.919,1.171,1.948,1.658,2.983c0.83,1.763,1.248,3.632,1.426,5.566c0.272,2.956-0.136,5.817-1.27,8.548
		c-0.434,1.045-0.934,2.072-1.589,2.997c-0.505,0.713-0.991,1.447-1.598,2.077c-0.516,0.536-1.015,1.091-1.583,1.573
		c-1,0.848-2.058,1.614-3.204,2.239c-1.521,0.83-3.125,1.44-4.813,1.801c-2.645,0.565-5.289,0.56-7.929-0.053
		c-1.109-0.258-2.184-0.615-3.228-1.078c-1.135-0.503-2.201-1.123-3.218-1.844c-0.573-0.406-1.092-0.875-1.627-1.326
		c-0.582-0.492-1.064-1.079-1.578-1.637c-0.635-0.688-1.121-1.482-1.637-2.259c-0.679-1.022-1.134-2.15-1.578-3.29
		c-0.813-2.088-1.097-4.266-1.065-6.496c0.026-1.81,0.301-3.587,0.899-5.29c0.421-1.197,0.894-2.384,1.577-3.458
		c0.496-0.78,0.976-1.578,1.589-2.269C4.58,6.007,5.068,5.4,5.65,4.893c0.517-0.45,1.017-0.924,1.573-1.325
		C8.245,2.832,9.31,2.171,10.451,1.65c2.623-1.196,5.373-1.745,8.241-1.637c1.532,0.057,3.039,0.297,4.51,0.755
		c0.341,0.106,0.686,0.195,1.011,0.347c-0.016,0.291-0.032,0.582-0.048,0.873c-0.38-0.123-0.758-0.25-1.139-0.368
		c-1.154-0.358-2.328-0.602-3.534-0.673c-0.236-0.068-0.482-0.071-0.721-0.074c-0.56-0.006-1.119-0.006-1.68,0.024
		c-0.72,0.039-1.434,0.113-2.141,0.239c-1.557,0.279-3.052,0.773-4.481,1.465C9.32,3.158,8.248,3.849,7.249,4.648
		C6.521,5.23,5.84,5.872,5.226,6.583C4.563,7.35,3.913,8.128,3.403,9.017c-0.475,0.828-0.943,1.66-1.306,2.55
		c-0.605,1.484-0.905,3.047-1.167,4.62c-0.071,0.429-0.081,0.871-0.088,1.307c-0.016,0.958,0.035,1.908,0.192,2.859
		c0.185,1.12,0.415,2.223,0.782,3.294c0.278,0.922,0.709,1.772,1.171,2.608c0.047,0.085,0.071,0.19,0.165,0.243
		c0.219,0.499,0.522,0.944,0.839,1.38c0.059,0.152,0.193,0.242,0.287,0.365c0.496,0.649,0.994,1.293,1.596,1.85
		c0.513,0.475,1,0.977,1.568,1.391c0.535,0.391,1.06,0.794,1.629,1.137c1.036,0.624,2.117,1.136,3.253,1.541
		c1.631,0.582,3.311,0.874,5.028,0.963c0.959,0.05,1.918-0.012,2.87-0.134c1.167-0.149,2.308-0.426,3.424-0.81
		c1.106-0.381,2.155-0.891,3.171-1.474c0.322-0.185,0.647-0.373,0.929-0.624c0.03-0.021,0.06-0.041,0.09-0.062
		c0.012-0.009,0.024-0.018,0.036-0.028c0.028-0.02,0.056-0.04,0.085-0.059c0.028-0.022,0.057-0.044,0.085-0.066
		c0.066-0.056,0.171-0.053,0.211-0.148l-0.001,0.001c0.026-0.01,0.056-0.014,0.077-0.03c0.549-0.412,1.052-0.881,1.564-1.339
		c0.576-0.516,1.059-1.127,1.561-1.715c0.644-0.754,1.148-1.615,1.637-2.476c0.75-1.322,1.245-2.763,1.613-4.239
		c0.396-1.589,0.522-3.213,0.42-4.854c-0.078-1.255-0.242-2.489-0.619-3.695c-0.427-1.365-0.892-2.705-1.651-3.922
		c-0.494-0.793-0.965-1.596-1.588-2.298c-0.519-0.584-1.006-1.196-1.601-1.705c-0.387-0.331-0.746-0.696-1.162-0.993
		c-0.016-0.032-0.031-0.063-0.047-0.095c-0.001-0.209-0.009-0.418,0.001-0.626C28.462,3.612,28.404,3.478,28.5,3.365z" />
            <path class="st1"
                  d="M24.165,1.988c0.016-0.291,0.032-0.582,0.048-0.873c1.05,0.359,2.046,0.838,2.993,1.426
		c-0.006,0.305-0.011,0.61-0.017,0.916c-0.027,0.002-0.054,0.003-0.081,0.004c-0.617-0.354-1.236-0.706-1.879-1.006
		c-0.304-0.142-0.608-0.289-0.934-0.376c-0.028-0.003-0.057-0.006-0.085-0.009C24.208,2.036,24.197,2.006,24.165,1.988z" />
            <path class="st2" d="M27.189,3.458c0.006-0.305,0.011-0.61,0.017-0.916c0.173,0.064,0.317,0.181,0.47,0.279
		c0.278,0.177,0.55,0.362,0.824,0.544c-0.096,0.113-0.038,0.247-0.043,0.371c-0.01,0.208-0.001,0.417-0.001,0.626
		c-0.447-0.22-0.823-0.553-1.237-0.827C27.2,3.523,27.198,3.484,27.189,3.458z" />
            <path class="st3"
                  d="M28.042,31.869c-0.028,0.022-0.057,0.044-0.085,0.066c-0.04,0.002-0.075,0.011-0.085,0.059
		c-0.012,0.009-0.024,0.018-0.036,0.028c-0.043,0.001-0.08,0.011-0.09,0.062c-0.282,0.251-0.607,0.439-0.929,0.624
		c-1.015,0.584-2.065,1.094-3.171,1.474c-1.116,0.384-2.258,0.662-3.424,0.81c-0.951,0.121-1.91,0.183-2.87,0.134
		c-1.717-0.089-3.398-0.382-5.028-0.963c-1.135-0.405-2.216-0.917-3.253-1.541c-0.569-0.343-1.093-0.745-1.629-1.137
		c-0.567-0.414-1.054-0.916-1.568-1.391c-0.602-0.557-1.099-1.201-1.596-1.85c-0.094-0.123-0.228-0.213-0.287-0.365
		c0.004-0.08,0.055-0.133,0.111-0.176c0.551-0.423,0.979-0.985,1.515-1.423c0.297-0.242,0.547-0.533,0.832-0.787
		c0.284-0.253,0.56-0.522,0.792-0.83c0.067,0.071,0.147,0.126,0.203,0.213c0.481,0.752,0.992,1.474,1.646,2.087
		c0.522,0.49,1.03,0.987,1.615,1.405c1.002,0.717,2.071,1.279,3.224,1.689c1.166,0.415,2.366,0.643,3.593,0.702
		c1.186,0.056,2.361-0.057,3.521-0.332c2.119-0.503,3.978-1.516,5.612-2.975c0.598-0.534,1.114-1.154,1.609-1.786
		c0.688-0.879,1.202-1.877,1.613-2.913c0.763-1.923,1.009-3.933,0.774-6.001c-0.142-1.253-0.42-2.463-0.961-3.609
		c-0.465-0.986-0.948-1.954-1.661-2.782c-0.208-0.242-0.387-0.51-0.621-0.728c-0.252-0.3-0.52-0.587-0.817-0.838
		c-0.464-0.391-0.948-0.759-1.423-1.136c0.04-0.049,0.073-0.108,0.121-0.146c0.481-0.391,0.875-0.877,1.351-1.277
		c0.489-0.412,0.919-0.897,1.375-1.35c0.065-0.064,0.121-0.143,0.227-0.133c0.338,0.31,0.679,0.618,1.013,0.932
		c0.828,0.778,1.537,1.665,2.211,2.58c0.642,0.873,1.125,1.849,1.602,2.821c0.403,0.821,0.668,1.703,0.909,2.589
		c0.241,0.885,0.397,1.786,0.492,2.697c0.049,0.465,0.097,0.931,0.133,1.398c0.051,0.679-0.061,1.35-0.117,2.025
		c-0.062,0.75-0.161,1.493-0.332,2.224c-0.297,1.27-0.664,2.512-1.271,3.676c-0.37,0.71-0.726,1.426-1.163,2.094
		c-0.424,0.648-0.909,1.25-1.408,1.84c-0.516,0.609-1.096,1.148-1.678,1.688c-0.134,0.124-0.329,0.2-0.383,0.407
		c0,0,0.001-0.001,0.001-0.001C28.146,31.716,28.04,31.712,28.042,31.869z M18.442,34.662c0.216-0.008,0.574,0.029,0.927-0.048
		c0.656-0.144,1.259-0.38,1.675-0.969c0.491-0.696,0.37-1.633-0.281-2.103c-0.302-0.218-0.654-0.292-1.008-0.337
		c-0.899-0.115-1.806,0.014-2.706-0.095c-0.064-0.008-0.132,0.004-0.155,0.08c-0.021,0.069-0.025,0.143,0.01,0.21
		c0.031,0.06,0.095,0.051,0.148,0.063c0.41,0.091,0.417,0.1,0.418,0.519c0.002,0.633,0.003,1.266,0.006,1.899
		c0.001,0.347,0.002,0.347-0.342,0.357c-0.122,0.004-0.249,0.002-0.252,0.181c-0.003,0.177,0.125,0.182,0.245,0.196
		C17.517,34.657,17.909,34.668,18.442,34.662z M15.115,31.862c-0.013,0.234-0.005,0.457-0.027,0.68
		c-0.022,0.221-0.01,0.446-0.017,0.669c-0.019,0.586-0.284,0.748-0.794,0.487c-0.044-0.022-0.085-0.05-0.128-0.075
		c-0.136-0.081-0.164-0.15-0.013-0.262c0.241-0.18,0.245-0.429,0.029-0.64c-0.149-0.145-0.329-0.219-0.532-0.224
		c-0.219-0.006-0.356,0.123-0.37,0.35c-0.015,0.248,0.056,0.476,0.213,0.66c0.405,0.475,0.924,0.732,1.537,0.706
		c0.529-0.023,0.932-0.289,0.909-0.97c-0.016-0.481,0.018-0.964,0.029-1.446c0.01-0.471-0.059-0.432,0.417-0.42
		c0.113,0.003,0.196-0.015,0.207-0.149c0.01-0.122-0.047-0.187-0.163-0.208c-0.565-0.104-1.13-0.208-1.681-0.377
		c-0.075-0.023-0.165-0.026-0.191,0.077c-0.025,0.098-0.04,0.204,0.078,0.261c0.051,0.024,0.104,0.043,0.155,0.066
		c0.339,0.151,0.345,0.16,0.341,0.546C15.114,31.687,15.115,31.78,15.115,31.862z M21.987,31.064
		c0.156-0.052,0.202,0.05,0.212,0.254c0.029,0.603,0.066,1.206,0.127,1.806c0.057,0.565,0.083,0.555-0.47,0.735
		c-0.142,0.046-0.153,0.134-0.128,0.243c0.029,0.126,0.127,0.136,0.233,0.106c0.128-0.036,0.258-0.069,0.383-0.113
		c0.45-0.158,0.899-0.321,1.349-0.481c0.137-0.049,0.158-0.156,0.126-0.278c-0.04-0.152-0.143-0.094-0.238-0.065
		c-0.067,0.02-0.135,0.035-0.204,0.049c-0.146,0.028-0.23-0.002-0.242-0.187c-0.038-0.58-0.083-1.161-0.147-1.738
		c-0.046-0.412-0.062-0.785,0.452-0.884c0.007-0.001,0.013-0.005,0.019-0.009c0.114-0.069,0.115-0.175,0.075-0.282
		c-0.046-0.122-0.138-0.096-0.228-0.058c-0.084,0.035-0.168,0.071-0.253,0.105c-0.445,0.175-0.891,0.346-1.357,0.452
		c-0.135,0.031-0.196,0.106-0.172,0.244c0.022,0.129,0.102,0.156,0.219,0.125C21.801,31.071,21.866,31.074,21.987,31.064z" />
            <path class="st1" d="M1.818,23.648c-0.367-1.072-0.597-2.174-0.782-3.294c-0.157-0.951-0.208-1.902-0.192-2.859
		c0.007-0.436,0.017-0.879,0.088-1.307c0.262-1.573,0.562-3.137,1.167-4.62c0.363-0.89,0.831-1.722,1.306-2.55
		c0.509-0.888,1.16-1.667,1.823-2.434C5.84,5.872,6.521,5.23,7.249,4.648c0.999-0.799,2.071-1.49,3.219-2.045
		c1.429-0.692,2.924-1.186,4.481-1.465c0.707-0.127,1.422-0.2,2.141-0.239c0.561-0.031,1.12-0.031,1.68-0.024
		c0.239,0.003,0.485,0.006,0.721,0.074c0.016,0.014,0.03,0.037,0.048,0.039c0.502,0.074,1.004,0.153,1.5,0.267
		c0.989,0.228,1.95,0.549,2.895,0.921c0.08,0.032,0.117,0.075,0.063,0.159l0,0c-0.367,0.283-0.696,0.609-1.009,0.952
		c-0.128,0.099-0.24,0.214-0.338,0.344c-0.276,0.16-0.462,0.418-0.672,0.651c-0.07,0.043-0.127,0.1-0.169,0.172
		c-0.062-0.002-0.104,0.027-0.127,0.086c-0.156,0.128-0.296,0.272-0.423,0.43c-0.098,0.015-0.153,0.073-0.169,0.172
		c-0.2,0.183-0.422,0.343-0.586,0.565c-0.013,0.012-0.027,0.024-0.04,0.036c-0.111-0.015-0.222-0.025-0.332-0.045
		c-1.089-0.202-2.186-0.214-3.282-0.112c-1.096,0.102-2.165,0.361-3.199,0.749c-1.177,0.442-2.261,1.067-3.271,1.826
		C9.798,8.6,9.289,9.124,8.777,9.642c-0.586,0.591-1.044,1.294-1.491,1.993c-0.78,1.218-1.209,2.593-1.565,3.991
		c-0.156,0.612-0.208,1.244-0.239,1.872c-0.025,0.501-0.021,1.004,0.017,1.508c0.028,0.364,0.091,0.725,0.096,1.091
		c-0.055-0.004-0.092,0.03-0.126,0.067c-0.821,0.892-1.775,1.639-2.596,2.531c-0.057,0.062-0.119,0.122-0.189,0.169
		C2.412,23.047,2.2,23.295,1.986,23.54C1.936,23.598,1.892,23.641,1.818,23.648z" />
            <path class="st4" d="M1.818,23.648c0.074-0.006,0.118-0.05,0.169-0.107c0.214-0.245,0.426-0.493,0.698-0.676
		c0.069-0.047,0.132-0.107,0.189-0.169c0.821-0.892,1.775-1.64,2.596-2.531c0.034-0.037,0.071-0.07,0.126-0.067
		c0.071,0.34,0.162,0.674,0.253,1.009c0.147,0.538,0.275,1.081,0.503,1.592c0.063,0.185,0.125,0.369,0.188,0.554
		c-0.393,0.362-0.794,0.716-1.177,1.089c-0.42,0.409-0.838,0.817-1.266,1.217c-0.323,0.302-0.676,0.577-0.942,0.941
		c-0.094-0.053-0.118-0.158-0.165-0.243C2.527,25.42,2.096,24.57,1.818,23.648z" />
            <path class="st5" d="M28.252,31.723c0.054-0.207,0.249-0.283,0.383-0.407c0.582-0.539,1.163-1.078,1.678-1.688
		c0.499-0.59,0.984-1.192,1.408-1.84c0.436-0.668,0.793-1.384,1.163-2.094c0.607-1.164,0.974-2.406,1.271-3.676
		c0.171-0.731,0.27-1.474,0.332-2.224c0.056-0.674,0.169-1.346,0.117-2.025c-0.035-0.466-0.084-0.933-0.133-1.398
		c-0.095-0.91-0.251-1.812-0.492-2.697c-0.241-0.887-0.506-1.769-0.909-2.589c-0.477-0.972-0.96-1.948-1.602-2.821
		c-0.674-0.916-1.383-1.802-2.211-2.58c-0.334-0.314-0.675-0.621-1.013-0.932c0.052-0.129,0.197-0.174,0.258-0.296
		c0.415,0.296,0.775,0.662,1.162,0.993c0.595,0.509,1.083,1.121,1.601,1.705c0.623,0.702,1.094,1.505,1.588,2.298
		c0.758,1.218,1.224,2.558,1.651,3.922c0.377,1.206,0.541,2.44,0.619,3.695c0.102,1.641-0.024,3.265-0.42,4.854
		c-0.368,1.476-0.862,2.917-1.613,4.239c-0.489,0.861-0.993,1.722-1.637,2.476c-0.502,0.588-0.985,1.199-1.561,1.715
		c-0.511,0.458-1.014,0.927-1.564,1.339C28.308,31.709,28.278,31.713,28.252,31.723z" />
            <path class="st6" d="M28.503,4.457c-0.061,0.121-0.206,0.166-0.258,0.296c-0.106-0.01-0.162,0.068-0.227,0.133
		c-0.456,0.453-0.886,0.939-1.375,1.35c-0.476,0.401-0.87,0.886-1.351,1.277c-0.048,0.039-0.081,0.097-0.12,0.146
		c-0.476-0.275-0.951-0.551-1.427-0.826c0.079-0.152,0.238-0.218,0.348-0.339c0.608-0.667,1.325-1.217,1.928-1.889
		c0.023-0.026,0.057-0.042,0.082-0.067c0.243-0.257,0.544-0.45,0.758-0.738c0.122-0.082,0.313-0.111,0.247-0.338
		c0.027-0.002,0.054-0.003,0.081-0.005c0.01,0.026,0.011,0.065,0.03,0.077c0.414,0.273,0.79,0.607,1.237,0.827
		C28.472,4.393,28.487,4.425,28.503,4.457z" />
            <path class="st6" d="M3.153,26.499c0.265-0.364,0.619-0.639,0.942-0.941c0.428-0.4,0.846-0.809,1.266-1.217
		c0.383-0.373,0.784-0.727,1.177-1.089c0.235,0.47,0.47,0.941,0.705,1.411c-0.233,0.308-0.508,0.578-0.792,0.83
		c-0.286,0.254-0.536,0.545-0.832,0.787c-0.536,0.438-0.964,1-1.515,1.423c-0.056,0.043-0.107,0.095-0.111,0.176
		C3.676,27.442,3.372,26.997,3.153,26.499z" />
            <path class="st3" d="M23.996,2.334c0.055-0.084,0.018-0.128-0.063-0.159c-0.945-0.372-1.906-0.693-2.895-0.921
		c-0.496-0.114-0.997-0.193-1.5-0.267c-0.017-0.003-0.032-0.026-0.048-0.039c1.206,0.071,2.38,0.315,3.534,0.673
		c0.381,0.118,0.759,0.245,1.139,0.368c0.032,0.018,0.043,0.047,0.044,0.083C24.085,2.114,24.186,2.347,23.996,2.334z" />
            <path class="st5"
                  d="M28.042,31.869c-0.002-0.158,0.104-0.154,0.211-0.148C28.213,31.816,28.108,31.814,28.042,31.869z" />
            <path class="st5"
                  d="M27.872,31.995c0.009-0.048,0.045-0.057,0.085-0.059C27.929,31.955,27.9,31.975,27.872,31.995z" />
            <path class="st5"
                  d="M27.746,32.085c0.01-0.051,0.047-0.061,0.09-0.062C27.806,32.044,27.776,32.064,27.746,32.085z" />
            <path class="st4" d="M23.996,2.334c0.189,0.013,0.089-0.22,0.212-0.263c0.028,0.003,0.057,0.006,0.085,0.009
		c-0.131,0.167-0.066,0.247,0.11,0.315c0.253,0.099,0.505,0.208,0.743,0.339c0.49,0.269,0.973,0.551,1.454,0.837
		c0.097,0.057,0.219,0.099,0.26,0.229c-0.214,0.288-0.515,0.481-0.758,0.738c-0.024,0.025-0.058,0.041-0.082,0.067
		c-0.603,0.672-1.32,1.222-1.928,1.889c-0.11,0.121-0.269,0.186-0.348,0.339c-0.46-0.19-0.918-0.385-1.382-0.567
		c-0.603-0.236-1.236-0.361-1.859-0.524c0-0.012,0-0.023,0-0.035c0.164-0.222,0.386-0.382,0.586-0.565
		c0.102-0.01,0.158-0.068,0.169-0.172c0.127-0.158,0.266-0.303,0.423-0.43c0.061,0,0.122,0,0.127-0.086
		c0.042-0.072,0.098-0.13,0.169-0.172c0.308-0.125,0.495-0.383,0.672-0.651c0.098-0.13,0.21-0.245,0.338-0.344
		c0.193,0.01,0.267-0.173,0.384-0.272C23.604,2.815,23.85,2.62,23.996,2.334L23.996,2.334z" />
            <path class="st2" d="M26.86,3.801c-0.041-0.131-0.163-0.172-0.26-0.229c-0.481-0.286-0.964-0.568-1.454-0.837
		c-0.239-0.131-0.49-0.24-0.743-0.339c-0.176-0.068-0.24-0.149-0.11-0.315c0.326,0.087,0.63,0.234,0.934,0.376
		c0.643,0.3,1.262,0.651,1.879,1.006C27.174,3.689,26.982,3.718,26.86,3.801z" />
            <path class="st7" d="M7.243,24.663c-0.235-0.47-0.47-0.941-0.705-1.411c-0.062-0.185-0.125-0.369-0.188-0.554
		c0.055-0.075,0.024-0.15-0.001-0.224c-0.183-0.535-0.326-1.081-0.433-1.637c-0.122-0.629-0.275-1.255-0.274-1.901
		c0.001-0.8-0.018-1.597,0.151-2.395c0.14-0.656,0.247-1.319,0.451-1.958c0.309-0.971,0.683-1.91,1.254-2.759
		c0.495-0.736,0.968-1.484,1.611-2.104c0.551-0.53,1.091-1.062,1.715-1.51c0.819-0.589,1.682-1.084,2.605-1.467
		c0.79-0.328,1.603-0.58,2.444-0.738C16.43,5.9,16.989,5.817,17.551,5.8c0.726-0.022,1.452-0.016,2.178,0.07
		c0.793,0.093,1.562,0.278,2.325,0.505c0.443,0.132,0.865,0.324,1.295,0.496c0.702,0.282,1.35,0.67,1.971,1.094
		c0.696,0.476,1.366,0.998,1.943,1.63c0.035,0.039,0.074,0.127,0.148,0.039c0.234,0.218,0.413,0.486,0.621,0.728
		c0.713,0.828,1.195,1.796,1.661,2.782c0.541,1.146,0.819,2.356,0.961,3.609c0.235,2.067-0.011,4.078-0.774,6.001
		c-0.411,1.036-0.924,2.034-1.613,2.913c-0.495,0.632-1.011,1.252-1.609,1.786c-1.634,1.459-3.494,2.472-5.612,2.975
		c-1.161,0.275-2.335,0.389-3.521,0.332c-1.228-0.058-2.427-0.286-3.593-0.702c-1.152-0.41-2.222-0.972-3.224-1.689
		c-0.585-0.418-1.093-0.916-1.615-1.405c-0.654-0.613-1.165-1.335-1.646-2.087C7.39,24.789,7.31,24.734,7.243,24.663z
		 M29.249,13.833c-0.011-0.018-0.026-0.034-0.033-0.054c-0.391-1.057-0.96-2.008-1.641-2.891c-0.187-0.242-0.368-0.49-0.585-0.707
		c-0.021-0.023-0.043-0.047-0.064-0.07c-0.022-0.027-0.045-0.055-0.067-0.082c-0.696-0.7-1.404-1.385-2.268-1.871
		c-0.442-0.316-0.893-0.615-1.416-0.772c-0.056-0.082-0.148-0.105-0.23-0.142c-0.522-0.243-1.061-0.437-1.616-0.581
		c-0.519-0.135-1.036-0.289-1.577-0.3c-0.046-0.016-0.09-0.043-0.137-0.048c-0.766-0.073-1.531-0.113-2.303-0.058
		c-1.117,0.08-2.196,0.304-3.254,0.677c-1.306,0.46-2.475,1.166-3.565,2.024c-0.614,0.483-1.131,1.071-1.642,1.658
		C8.16,11.407,7.663,12.338,7.2,13.281c-0.34,0.693-0.549,1.442-0.722,2.199c-0.16,0.7-0.239,1.411-0.285,2.126
		c-0.023,0.358-0.027,0.722,0.004,1.079c0.021,0.239-0.008,0.486,0.072,0.72c0.083,1.143,0.36,2.235,0.799,3.287
		c0.18,0.528,0.489,0.987,0.758,1.467c0.057,0.164,0.162,0.299,0.248,0.445c0.346,0.581,0.778,1.094,1.227,1.592
		c-0.01,0.101,0.026,0.178,0.099,0.247c0.309,0.292,0.579,0.624,0.911,0.893c0.63,0.51,1.256,1.017,1.971,1.408
		c0.799,0.437,1.618,0.811,2.485,1.082c0.98,0.306,1.987,0.447,3.003,0.507c0.93,0.055,1.856-0.044,2.771-0.215
		c1.638-0.305,3.137-0.973,4.528-1.9c0.604-0.403,1.147-0.893,1.662-1.406c0.748-0.747,1.392-1.584,1.92-2.512
		c0.525-0.923,0.892-1.914,1.201-2.929c0.246-0.804,0.313-1.641,0.372-2.474c0.056-0.795-0.028-1.59-0.128-2.379
		c-0.103-0.807-0.364-1.571-0.641-2.329c-0.023-0.063-0.028-0.151-0.13-0.136c-0.008-0.028-0.016-0.056-0.024-0.084
		C29.323,13.905,29.375,13.833,29.249,13.833z" />
            <path class="st8" d="M27.411,9.633c-0.074,0.089-0.112,0-0.148-0.039c-0.577-0.632-1.246-1.154-1.943-1.63
		c-0.621-0.424-1.27-0.812-1.971-1.094c-0.429-0.172-0.851-0.364-1.295-0.496c-0.762-0.227-1.531-0.412-2.325-0.505
		c-0.727-0.085-1.453-0.092-2.178-0.07c-0.562,0.017-1.122,0.1-1.678,0.204c-0.841,0.158-1.655,0.41-2.444,0.738
		c-0.923,0.383-1.786,0.878-2.605,1.467C10.2,8.657,9.66,9.189,9.109,9.719c-0.644,0.62-1.116,1.368-1.611,2.104
		c-0.571,0.848-0.945,1.788-1.254,2.759c-0.204,0.639-0.311,1.302-0.451,1.958c-0.17,0.797-0.15,1.594-0.151,2.395
		c-0.001,0.646,0.152,1.272,0.274,1.901c0.108,0.556,0.251,1.102,0.433,1.637c0.025,0.074,0.056,0.149,0.001,0.224
		c-0.228-0.511-0.355-1.054-0.503-1.592c-0.092-0.335-0.182-0.669-0.253-1.009c-0.005-0.366-0.068-0.727-0.096-1.091
		c-0.039-0.504-0.042-1.007-0.017-1.508c0.031-0.629,0.084-1.26,0.239-1.872c0.356-1.398,0.785-2.773,1.565-3.991
		c0.448-0.699,0.906-1.402,1.491-1.993C9.289,9.124,9.798,8.6,10.38,8.161c1.01-0.76,2.094-1.385,3.271-1.826
		c1.034-0.388,2.102-0.647,3.199-0.749c1.096-0.102,2.193-0.089,3.282,0.112c0.11,0.02,0.221,0.03,0.332,0.045
		c0,0,0.02,0.003,0.02,0.003l0.02-0.004c0.623,0.163,1.256,0.288,1.859,0.524c0.463,0.182,0.921,0.378,1.382,0.567
		c0.476,0.275,0.951,0.551,1.427,0.826c0.475,0.378,0.959,0.745,1.423,1.136C26.891,9.046,27.159,9.333,27.411,9.633z" />
            <path class="st9" d="M18.442,34.662c-0.533,0.006-0.925-0.004-1.315-0.048c-0.12-0.014-0.248-0.018-0.245-0.196
		c0.003-0.179,0.13-0.178,0.252-0.181c0.343-0.01,0.343-0.01,0.342-0.357c-0.002-0.633-0.004-1.266-0.006-1.899
		c-0.001-0.418-0.008-0.427-0.418-0.519c-0.054-0.012-0.117-0.004-0.148-0.063c-0.035-0.067-0.031-0.141-0.01-0.21
		c0.023-0.076,0.091-0.088,0.155-0.08c0.9,0.109,1.807-0.02,2.706,0.095c0.354,0.045,0.706,0.119,1.008,0.337
		c0.652,0.47,0.772,1.407,0.281,2.103c-0.416,0.589-1.018,0.825-1.675,0.969C19.016,34.691,18.658,34.653,18.442,34.662z
		 M20.463,32.88c0.034-0.634-0.293-0.999-0.853-1.229c-0.4-0.165-0.822-0.137-1.242-0.111c-0.122,0.008-0.102,0.095-0.101,0.171
		c0.008,0.761-0.002,1.523,0.036,2.284c0.008,0.164,0.076,0.246,0.232,0.279c0.252,0.053,0.502,0.045,0.75-0.008
		C19.937,34.127,20.5,33.676,20.463,32.88z M18.187,32.898c-0.02-0.347,0.011-0.769-0.03-1.194
		c-0.021-0.213-0.099-0.272-0.269-0.284c-0.098-0.007-0.196-0.003-0.294-0.002c-0.041,0-0.089-0.007-0.108,0.044
		c-0.022,0.06,0.016,0.095,0.06,0.122c0.076,0.046,0.143,0.1,0.135,0.2c-0.019,0.231,0.04,0.457,0.042,0.686
		c0.004,0.54,0,1.08,0.002,1.619c0,0.117-0.006,0.228-0.08,0.327c-0.08,0.107-0.039,0.155,0.082,0.156
		c0.196,0,0.393,0.001,0.589-0.001c0.032,0,0.078-0.006,0.094-0.027c0.035-0.045-0.013-0.077-0.04-0.107
		c-0.136-0.151-0.179-0.337-0.182-0.534C18.184,33.593,18.187,33.283,18.187,32.898z M20.304,34.154
		c0.8-0.395,1.123-1.269,0.86-1.919c-0.181-0.449-1.196-0.899-1.587-0.714c0.51,0.228,0.973,0.501,1.089,1.104
		C20.774,33.183,20.66,33.699,20.304,34.154z" />
            <path class="st9" d="M15.115,31.862c0-0.082-0.001-0.176,0-0.269c0.004-0.386-0.002-0.395-0.341-0.546
		c-0.051-0.023-0.104-0.042-0.155-0.066c-0.119-0.056-0.103-0.163-0.078-0.261c0.026-0.102,0.115-0.1,0.191-0.077
		c0.551,0.17,1.116,0.273,1.681,0.377c0.116,0.021,0.173,0.086,0.163,0.208c-0.011,0.134-0.094,0.152-0.207,0.149
		c-0.476-0.012-0.407-0.051-0.417,0.42c-0.01,0.482-0.045,0.965-0.029,1.446c0.023,0.681-0.379,0.947-0.909,0.97
		c-0.613,0.026-1.132-0.231-1.537-0.706c-0.157-0.184-0.228-0.412-0.213-0.66c0.014-0.227,0.151-0.356,0.37-0.35
		c0.204,0.006,0.384,0.079,0.532,0.224c0.216,0.211,0.212,0.46-0.029,0.64c-0.15,0.112-0.123,0.182,0.013,0.262
		c0.042,0.025,0.084,0.052,0.128,0.075c0.51,0.261,0.775,0.099,0.794-0.487c0.007-0.223-0.005-0.448,0.017-0.669
		C15.11,32.319,15.102,32.096,15.115,31.862z M14.993,34.111c0.626-0.055,0.836-0.283,0.836-0.891c0-0.432-0.019-0.865,0.008-1.294
		c0.014-0.234-0.044-0.506,0.205-0.7c-0.276-0.059-0.526-0.111-0.775-0.167c-0.049-0.011-0.099-0.036-0.129,0.023
		c-0.036,0.071,0.022,0.111,0.066,0.138c0.171,0.107,0.203,0.266,0.208,0.459c0.011,0.408-0.148,0.8-0.09,1.211
		c0.013,0.092,0.009,0.188,0,0.28c-0.02,0.206-0.034,0.412-0.097,0.612C15.182,33.914,15.04,33.973,14.993,34.111z M13.51,33.088
		c0.007,0.218,0.1,0.397,0.249,0.547c0.033,0.034,0.066,0.082,0.124,0.047c0.041-0.025,0.06-0.071,0.041-0.111
		c-0.057-0.12,0.029-0.178,0.1-0.226c0.103-0.071,0.231-0.159,0.187-0.277c-0.053-0.141-0.199-0.235-0.355-0.264
		C13.602,32.757,13.512,32.837,13.51,33.088z" />
            <path class="st9" d="M21.987,31.064c-0.121,0.01-0.186,0.007-0.246,0.023c-0.117,0.031-0.196,0.003-0.219-0.125
		c-0.024-0.138,0.037-0.214,0.172-0.244c0.466-0.106,0.913-0.277,1.357-0.452c0.085-0.033,0.169-0.069,0.253-0.105
		c0.09-0.038,0.182-0.064,0.228,0.058c0.04,0.108,0.04,0.213-0.075,0.282c-0.006,0.004-0.013,0.007-0.019,0.009
		c-0.515,0.099-0.498,0.472-0.452,0.884c0.065,0.578,0.109,1.158,0.147,1.738c0.012,0.185,0.096,0.215,0.242,0.187
		c0.069-0.013,0.137-0.028,0.204-0.049c0.094-0.029,0.197-0.087,0.238,0.065c0.032,0.122,0.011,0.229-0.126,0.278
		c-0.45,0.16-0.898,0.323-1.349,0.481c-0.126,0.044-0.255,0.077-0.383,0.113c-0.105,0.03-0.204,0.02-0.233-0.106
		c-0.025-0.109-0.014-0.197,0.128-0.243c0.553-0.181,0.527-0.17,0.47-0.735c-0.06-0.6-0.098-1.203-0.127-1.806
		C22.189,31.114,22.142,31.012,21.987,31.064z M22.123,30.93c0.176,0.129,0.307,0.248,0.312,0.435
		c0.022,0.73,0.128,1.454,0.134,2.184c0.001,0.121-0.08,0.297,0.017,0.347c0.08,0.042,0.233-0.054,0.35-0.097
		c0.098-0.036,0.223-0.058,0.279-0.131c0.067-0.088-0.084-0.135-0.117-0.221c-0.11-0.283-0.073-0.579-0.106-0.868
		c-0.035-0.304-0.067-0.611-0.077-0.917c-0.009-0.293-0.097-0.583-0.039-0.877c0.023-0.115-0.029-0.106-0.101-0.082
		C22.572,30.775,22.368,30.845,22.123,30.93z" />
            <path class="st3" d="M23.996,2.334c-0.147,0.286-0.393,0.481-0.626,0.68c-0.117,0.099-0.19,0.282-0.384,0.272
		C23.3,2.943,23.629,2.617,23.996,2.334z" />
            <path class="st3"
                  d="M22.649,3.631c-0.177,0.268-0.363,0.525-0.672,0.651C22.187,4.049,22.373,3.791,22.649,3.631z" />
            <path class="st3"
                  d="M21.259,4.97c-0.011,0.104-0.067,0.162-0.169,0.172C21.106,5.043,21.162,4.985,21.259,4.97z" />
            <path class="st3"
                  d="M21.809,4.454C21.804,4.54,21.743,4.54,21.682,4.54C21.705,4.48,21.747,4.452,21.809,4.454z" />
            <path class="st3" d="M20.504,5.742l-0.02,0.004c0,0-0.02-0.003-0.02-0.003c0.013-0.012,0.027-0.024,0.04-0.036
		C20.504,5.719,20.504,5.731,20.504,5.742z" />
            <path class="st3"
                  d="M26.925,10.111c0.021,0.023,0.043,0.047,0.064,0.07c-0.011,0.076,0.016,0.135,0.063,0.196
		c0.458,0.59,0.818,1.248,1.18,1.899c0.398,0.715,0.663,1.498,0.883,2.293c0.347,1.256,0.505,2.536,0.483,3.841
		c-0.003,0.186-0.031,0.373-0.035,0.556c-0.014,0.698-0.125,1.384-0.282,2.057c-0.256,1.1-0.598,2.172-1.168,3.154
		c-0.289,0.497-0.563,1.002-0.887,1.476c-0.11,0.161-0.274,0.291-0.279,0.513c-0.021,0.023-0.042,0.045-0.063,0.068
		c-0.043,0.009-0.128-0.017-0.069,0.082c-0.168,0.236-0.416,0.382-0.616,0.582c-0.02,0.02-0.063,0.015-0.096,0.022
		c-0.096-0.21-0.249-0.379-0.382-0.563c-0.466-0.649-1.004-1.23-1.576-1.782c-0.44-0.424-0.907-0.812-1.381-1.191
		c-0.118-0.095-0.147-0.171-0.041-0.296c0.077-0.091,0.159-0.184,0.197-0.303c0.094-0.084,0.21-0.113,0.327-0.131
		c0.666-0.103,1.312-0.294,1.96-0.47c1.156-0.314,2.3-0.675,3.453-1.002c0.211-0.06,0.247-0.173,0.211-0.362
		c-0.064-0.337-0.192-0.648-0.381-0.928c-0.41-0.607-0.929-1.11-1.492-1.563c-0.154-0.124-0.125-0.19-0.03-0.318
		c0.277-0.375,0.493-0.784,0.628-1.237c0.081-0.273,0.084-0.537-0.073-0.786c-0.013-0.033-0.036-0.05-0.072-0.045l0.003-0.001
		c-0.033-0.119-0.141-0.146-0.23-0.154c-0.342-0.029-0.682-0.013-0.996,0.159c-0.15-0.022-0.068-0.113-0.039-0.169
		c0.168-0.323,0.304-0.662,0.442-0.996c0.354-0.857,0.491-1.765,0.475-2.695c-0.003-0.197-0.025-0.405-0.191-0.551
		c-0.228-0.242-0.5-0.212-0.753-0.085c-0.757,0.378-1.383,0.918-1.813,1.67c-0.079,0.138-0.13,0.136-0.252,0.066
		c-0.219-0.126-0.448-0.237-0.679-0.34c-0.874-0.39-1.778-0.692-2.705-0.921c0.046-0.054,0.088-0.111,0.138-0.161
		c0.332-0.339,0.672-0.667,1.027-0.982c0.476-0.421,0.91-0.893,1.363-1.342c0.04-0.04,0.085-0.075,0.129-0.109
		c0.449-0.345,0.806-0.791,1.219-1.175c0.864,0.486,1.572,1.171,2.268,1.871C26.798,10.128,26.881,10.102,26.925,10.111z" />
            <path class="st1" d="M6.269,19.404c-0.081-0.233-0.052-0.48-0.072-0.72c-0.031-0.357-0.027-0.721-0.004-1.079
		c0.047-0.715,0.125-1.426,0.285-2.126c0.173-0.757,0.382-1.506,0.722-2.199c0.463-0.942,0.96-1.874,1.649-2.665
		c0.511-0.587,1.028-1.175,1.642-1.658c1.089-0.858,2.258-1.564,3.565-2.024c1.058-0.372,2.137-0.597,3.254-0.677
		c0.773-0.055,1.537-0.016,2.303,0.058c0.047,0.004,0.092,0.031,0.137,0.048c-0.006,0.072-0.058,0.113-0.104,0.157
		c-0.633,0.609-1.27,1.214-1.9,1.827c-0.914,0.89-1.817,1.792-2.756,2.655c-0.386,0.355-0.725,0.762-1.12,1.108
		c-0.085,0.074-0.23,0.1-0.231,0.257c0,0,0.001-0.005,0.001-0.005c-0.036,0-0.069,0.009-0.087,0.046
		c-0.541,0.231-1.077,0.473-1.597,0.752c-0.119-0.028-0.15-0.143-0.206-0.228c-0.294-0.449-0.652-0.832-1.09-1.135
		c-0.228-0.166-0.465-0.314-0.736-0.394c-0.391-0.116-0.691,0.066-0.749,0.479c-0.096,0.676,0.02,1.337,0.167,1.994
		c0.01,0.029,0.02,0.058,0.03,0.087c0.004,0.028,0.009,0.056,0.013,0.085c0.02,0.082,0.034,0.166,0.06,0.247
		c0.18,0.577,0.398,1.138,0.666,1.679c-0.315-0.112-0.63-0.221-0.973-0.196c-0.229,0.017-0.441,0.077-0.512,0.326
		c-0.072,0.254-0.098,0.519,0.041,0.767c0.002,0.061,0.003,0.123,0.005,0.184c-0.014,0.068-0.068,0.108-0.113,0.151
		c-0.487,0.472-0.963,0.955-1.467,1.407C6.809,18.867,6.569,19.168,6.269,19.404z" />
            <path class="st4" d="M13.64,12.367c0.001-0.156,0.146-0.183,0.231-0.257c0.395-0.347,0.734-0.753,1.12-1.108
		c0.939-0.863,1.842-1.765,2.756-2.655c0.629-0.613,1.267-1.218,1.9-1.827c0.045-0.044,0.097-0.085,0.104-0.157
		c0.542,0.012,1.058,0.166,1.577,0.301c0.555,0.144,1.094,0.338,1.616,0.581c0.081,0.038,0.173,0.06,0.229,0.142
		c-0.569,0.418-0.989,1.004-1.548,1.437c-0.322,0.249-0.58,0.58-0.882,0.858c-0.634,0.584-1.25,1.189-1.872,1.786
		c-0.045,0.044-0.098,0.085-0.094,0.16c-0.112,0.002-0.223,0.009-0.335,0.005c-1.329-0.047-2.635,0.105-3.918,0.47
		C14.228,12.187,13.948,12.326,13.64,12.367z" />
            <path class="st3" d="M9.301,26.194c-0.449-0.498-0.88-1.01-1.227-1.592c-0.087-0.146-0.192-0.281-0.248-0.445
		c0.043-0.036,0.088-0.07,0.128-0.109c0.364-0.344,0.728-0.688,1.091-1.033c0.363-0.345,0.742-0.673,1.058-1.068
		c0.035,0.003,0.071,0,0.105,0.009c1.041,0.284,2.08,0.581,3.143,0.772c0.118,0.021,0.183,0.096,0.201,0.216
		c-0.044,0.136-0.103,0.268-0.127,0.408c-0.04,0.23-0.183,0.366-0.341,0.518c-0.58,0.559-1.24,1.032-1.741,1.677
		c-0.383,0.493-0.812,0.947-1.152,1.475c-0.062,0-0.099-0.045-0.142-0.081C9.775,26.718,9.548,26.445,9.301,26.194z" />
            <path class="st6" d="M18.776,11.628c-0.003-0.075,0.049-0.116,0.094-0.16c0.623-0.597,1.238-1.202,1.872-1.786
		c0.302-0.279,0.561-0.609,0.882-0.858c0.559-0.433,0.978-1.019,1.548-1.437c0.524,0.158,0.975,0.456,1.416,0.772
		c-0.413,0.384-0.77,0.83-1.219,1.175c-0.045,0.034-0.089,0.069-0.129,0.109c-0.453,0.449-0.887,0.92-1.363,1.342
		c-0.356,0.315-0.696,0.643-1.027,0.982c-0.049,0.05-0.092,0.107-0.138,0.161c-0.334-0.069-0.669-0.135-1.008-0.175
		C19.395,11.715,19.086,11.669,18.776,11.628z" />
            <path class="st8" d="M9.301,26.194c0.247,0.251,0.474,0.523,0.746,0.748c0.043,0.036,0.08,0.081,0.142,0.081
		c0.005,0.088,0.045,0.114,0.123,0.073c0.01,0.098,0.064,0.154,0.157,0.174c0.018,0.135,0.148,0.14,0.226,0.205
		c0.976,0.817,2.071,1.415,3.253,1.852c0.626,0.232,1.263,0.425,1.921,0.534c0.14,0.051,0.285,0.049,0.431,0.041
		c0.073,0.065,0.169,0.061,0.255,0.078c0.152,0.031,0.271,0.021,0.378-0.155c0.113-0.186,0.23-0.387,0.411-0.526
		c0.051,0.011,0.121-0.028,0.147,0.04c0.021,0.055-0.037,0.087-0.071,0.119c-0.107,0.103-0.204,0.213-0.275,0.344
		c-0.032,0.059-0.117,0.108-0.08,0.184c0.043,0.089,0.135,0.035,0.206,0.042c0.544,0.076,1.088,0.062,1.633,0.016
		c0.109-0.009,0.163-0.053,0.205-0.141c0.104,0.169,0.255,0.094,0.395,0.079c0.198,0.029,0.318-0.043,0.391-0.248
		c0.091-0.257,0.152-0.533,0.343-0.743c0.128,0.018,0.081,0.096,0.061,0.174c-0.054,0.216-0.205,0.384-0.275,0.592
		c-0.036,0.107-0.013,0.148,0.094,0.146c0.069-0.001,0.14,0.007,0.2-0.04c0.049-0.004,0.099-0.003,0.146-0.013
		c1.278-0.277,2.503-0.706,3.634-1.385c0.608-0.365,1.221-0.727,1.729-1.24c0.128-0.068,0.234-0.156,0.275-0.306
		c0.033-0.007,0.076-0.002,0.096-0.022c0.2-0.2,0.449-0.346,0.616-0.582c0.023-0.027,0.046-0.055,0.069-0.082
		c0.021-0.023,0.042-0.045,0.063-0.068c0.515-0.523,0.927-1.133,1.328-1.743c0.763-1.16,1.182-2.479,1.534-3.818
		c0.098-0.374,0.141-0.761,0.178-1.147c0.13-1.357,0.11-2.703-0.266-4.026c-0.131-0.461-0.244-0.927-0.398-1.381
		c0.103-0.014,0.107,0.073,0.13,0.136c0.277,0.758,0.538,1.522,0.641,2.329c0.101,0.789,0.184,1.584,0.128,2.379
		c-0.059,0.833-0.127,1.67-0.372,2.474c-0.31,1.014-0.676,2.006-1.201,2.929c-0.528,0.928-1.172,1.766-1.92,2.512
		c-0.514,0.514-1.058,1.003-1.662,1.406c-1.39,0.927-2.889,1.596-4.528,1.9c-0.915,0.17-1.841,0.269-2.771,0.215
		c-1.016-0.06-2.023-0.2-3.003-0.507c-0.867-0.271-1.685-0.644-2.485-1.082c-0.715-0.391-1.341-0.898-1.971-1.408
		c-0.332-0.269-0.602-0.601-0.911-0.893C9.326,26.372,9.29,26.295,9.301,26.194z" />
            <path class="st4" d="M6.269,19.404c0.3-0.236,0.54-0.537,0.824-0.792c0.504-0.452,0.98-0.936,1.467-1.407
		c0.045-0.044,0.098-0.083,0.113-0.151c0.153,0.218,0.267,0.461,0.419,0.681c0.109,0.158,0.269,0.29,0.294,0.502
		c-0.169,0.125-0.349,0.237-0.505,0.378c-0.683,0.618-1.273,1.307-1.538,2.228c-0.028,0.097-0.061,0.219,0.09,0.261
		c0.316,0.109,0.631,0.217,0.947,0.326c-0.394,0.468-0.84,0.878-1.312,1.261C6.629,21.64,6.352,20.547,6.269,19.404z" />
            <path class="st5" d="M29.324,14.05c0.154,0.454,0.267,0.92,0.398,1.381c0.376,1.324,0.396,2.669,0.266,4.026
		c-0.037,0.386-0.08,0.773-0.178,1.147c-0.352,1.34-0.771,2.658-1.534,3.818c-0.401,0.61-0.813,1.22-1.328,1.743
		c0.004-0.221,0.169-0.352,0.279-0.513c0.324-0.474,0.598-0.98,0.887-1.476c0.571-0.982,0.912-2.054,1.168-3.154
		c0.157-0.673,0.267-1.358,0.282-2.057c0.004-0.184,0.031-0.37,0.035-0.556c0.023-1.305-0.135-2.585-0.483-3.841
		c-0.22-0.795-0.485-1.578-0.883-2.293c-0.362-0.65-0.723-1.308-1.18-1.899c-0.047-0.061-0.074-0.12-0.063-0.196
		c0.217,0.216,0.398,0.464,0.585,0.707c0.681,0.883,1.25,1.834,1.641,2.891c0.007,0.019,0.022,0.036,0.033,0.054
		c0.011,0.047,0.011,0.098,0.051,0.133C29.308,13.994,29.316,14.022,29.324,14.05z" />
            <path class="st6" d="M7.068,22.691c0.471-0.383,0.918-0.793,1.312-1.261c0.208,0.058,0.419,0.111,0.625,0.176
		c0.365,0.116,0.743,0.191,1.098,0.342c-0.316,0.395-0.695,0.722-1.058,1.068c-0.363,0.345-0.727,0.689-1.091,1.033
		c-0.041,0.038-0.085,0.073-0.128,0.109C7.557,23.678,7.248,23.219,7.068,22.691z" />
            <path class="st8"
                  d="M29.3,13.966c-0.04-0.035-0.04-0.086-0.051-0.133C29.375,13.833,29.323,13.905,29.3,13.966z" />
            <path class="st5"
                  d="M26.925,10.111c-0.044-0.009-0.127,0.017-0.067-0.082C26.88,10.057,26.903,10.084,26.925,10.111z" />
            <path class="st3" d="M20.463,32.88c0.037,0.796-0.526,1.247-1.178,1.386c-0.248,0.053-0.498,0.061-0.75,0.008
		c-0.155-0.033-0.223-0.115-0.232-0.279c-0.038-0.761-0.028-1.523-0.036-2.284c-0.001-0.076-0.021-0.163,0.101-0.171
		c0.42-0.026,0.842-0.054,1.242,0.111C20.17,31.881,20.497,32.246,20.463,32.88z" />
            <path class="st10" d="M18.187,32.898c0,0.385-0.003,0.695,0.001,1.004c0.003,0.197,0.046,0.383,0.182,0.534
		c0.027,0.03,0.074,0.062,0.04,0.107c-0.016,0.021-0.062,0.027-0.094,0.027c-0.196,0.002-0.393,0.001-0.589,0.001
		c-0.121,0-0.162-0.049-0.082-0.156c0.074-0.099,0.08-0.209,0.08-0.327c-0.002-0.54,0.001-1.08-0.002-1.619
		c-0.002-0.229-0.061-0.455-0.042-0.686c0.008-0.101-0.058-0.155-0.135-0.2c-0.044-0.026-0.082-0.062-0.06-0.122
		c0.019-0.051,0.067-0.044,0.108-0.044c0.098-0.001,0.197-0.005,0.294,0.002c0.169,0.012,0.248,0.071,0.269,0.284
		C18.198,32.128,18.166,32.551,18.187,32.898z" />
            <path class="st10" d="M20.304,34.154c0.357-0.455,0.47-0.971,0.363-1.529c-0.116-0.603-0.579-0.877-1.089-1.104
		c0.392-0.184,1.406,0.266,1.587,0.714C21.427,32.885,21.103,33.759,20.304,34.154z" />
            <path class="st10"
                  d="M14.993,34.111c0.047-0.138,0.189-0.198,0.231-0.33c0.063-0.199,0.077-0.406,0.097-0.612
		c0.009-0.093,0.013-0.189,0-0.28c-0.058-0.411,0.101-0.803,0.09-1.211c-0.005-0.193-0.037-0.352-0.208-0.459
		c-0.044-0.028-0.102-0.067-0.066-0.138c0.03-0.059,0.079-0.034,0.129-0.023c0.249,0.056,0.499,0.108,0.775,0.167
		c-0.249,0.195-0.191,0.466-0.205,0.7c-0.027,0.43-0.008,0.863-0.008,1.294C15.829,33.828,15.618,34.056,14.993,34.111z" />
            <path class="st10" d="M13.51,33.088c0.002-0.251,0.092-0.331,0.345-0.285c0.156,0.029,0.303,0.122,0.355,0.264
		c0.044,0.118-0.084,0.207-0.187,0.277c-0.071,0.049-0.157,0.106-0.1,0.226c0.019,0.04,0,0.086-0.041,0.111
		c-0.058,0.035-0.091-0.013-0.124-0.047C13.61,33.484,13.517,33.306,13.51,33.088z" />
            <path class="st10"
                  d="M22.123,30.93c0.245-0.085,0.449-0.155,0.653-0.225c0.072-0.025,0.124-0.034,0.101,0.082
		c-0.059,0.294,0.029,0.584,0.039,0.877c0.01,0.305,0.043,0.613,0.077,0.917c0.033,0.288-0.005,0.584,0.106,0.868
		c0.034,0.086,0.184,0.134,0.117,0.221c-0.056,0.074-0.182,0.096-0.279,0.131c-0.118,0.043-0.27,0.139-0.35,0.097
		c-0.097-0.051-0.016-0.227-0.017-0.347c-0.006-0.731-0.113-1.455-0.134-2.184C22.43,31.178,22.299,31.059,22.123,30.93z" />
            <path class="st11" d="M10.102,21.949c-0.355-0.151-0.733-0.226-1.098-0.342c-0.206-0.066-0.417-0.118-0.625-0.176
		c-0.316-0.109-0.631-0.217-0.947-0.326c0.113-0.09,0.05-0.228,0.085-0.342c0.17-0.554,0.5-1.002,0.865-1.429
		c0.304-0.356,0.673-0.637,1.034-0.927c0.107-0.087,0.121-0.139-0.03-0.169c-0.025-0.211-0.186-0.344-0.294-0.502
		c-0.152-0.22-0.266-0.463-0.419-0.681c-0.002-0.061-0.003-0.123-0.005-0.184c0.001-0.079,0.006-0.158,0.002-0.236
		c-0.02-0.488,0.144-0.75,0.779-0.697c0.249,0.021,0.483,0.08,0.715,0.168c0.016-0.078-0.038-0.094-0.053-0.131
		c-0.267-0.541-0.486-1.102-0.666-1.679c-0.025-0.081-0.04-0.165-0.06-0.247c0.047-0.037,0.041-0.065-0.013-0.085
		c-0.01-0.029-0.02-0.058-0.03-0.087c0.066-0.058,0.046-0.13,0.029-0.2c-0.135-0.535-0.121-1.082-0.108-1.627
		c0.007-0.328,0.207-0.502,0.524-0.511c0.189-0.006,0.358,0.043,0.524,0.129c0.11,0.057,0.212,0.147,0.35,0.13
		c0.438,0.302,0.796,0.686,1.09,1.135c0.056,0.086,0.088,0.2,0.206,0.228c-0.005,0.115,0,0.185,0.149,0.11
		c0.603-0.301,1.205-0.602,1.847-0.815c0.779-0.258,1.568-0.462,2.38-0.568c-0.014,0.084-0.029,0.168-0.043,0.252
		c-0.061,0.014-0.122,0.033-0.184,0.042c-1.439,0.207-2.784,0.697-4.059,1.404c-0.297,0.165-0.314,0.156-0.477-0.157
		c-0.374-0.714-0.929-1.236-1.629-1.597c-0.273-0.141-0.363-0.074-0.387,0.238c-0.025,0.332,0.024,0.66,0.053,0.989
		c0.065,0.746,0.324,1.439,0.593,2.126c0.091,0.233,0.179,0.477,0.321,0.677c0.178,0.25,0.32,0.521,0.498,0.769
		c0.069,0.096,0.078,0.202-0.028,0.286c-0.112,0.089-0.214,0.058-0.294-0.043c-0.289-0.364-0.692-0.529-1.109-0.653
		c-0.17-0.051-0.4-0.157-0.533,0.022c-0.129,0.173-0.043,0.397,0.028,0.597c0.173,0.488,0.468,0.899,0.783,1.295
		c0.092,0.116,0.078,0.196-0.028,0.265c-0.321,0.208-0.605,0.466-0.89,0.719c-0.481,0.427-0.884,0.922-1.113,1.545
		c-0.027,0.074-0.061,0.151,0.042,0.196c0,0.12,0.091,0.122,0.172,0.147c0.886,0.276,1.777,0.534,2.672,0.78
		c0.994,0.274,1.982,0.575,3.011,0.685c0.057-0.002,0.086,0.036,0.117,0.078c0.142,0.195,0.286,0.389,0.43,0.583
		c0.301,0.405,0.611,0.805,0.964,1.163c0.287,0.291,0.614,0.54,0.923,0.807c0.038,0.137,0.158,0.172,0.265,0.219
		c0.339,0.148,0.703,0.206,1.062,0.212c0.671,0.011,1.345,0.056,2.014-0.037c0.297-0.041,0.593-0.103,0.855-0.262
		c0.618-0.375,1.05-0.959,1.535-1.481c0.306-0.33,0.563-0.708,0.841-1.065c0.062,0.032,0.124,0.065,0.187,0.097
		c-0.039,0.119-0.12,0.212-0.197,0.303c-0.106,0.125-0.077,0.202,0.041,0.296c0.475,0.379,0.942,0.767,1.381,1.191
		c0.573,0.552,1.11,1.133,1.576,1.782c0.132,0.184,0.285,0.353,0.382,0.563c-0.041,0.15-0.148,0.238-0.276,0.306
		c-0.288-0.512-0.671-0.946-1.042-1.395c-0.542-0.657-1.161-1.219-1.808-1.757c-0.041-0.034-0.07-0.095-0.161-0.069
		c0.021,0.232,0.09,0.456,0.159,0.678c0.032,0.103,0.021,0.162-0.042,0.248c-0.554,0.749-1.066,1.527-1.479,2.369
		c-0.139,0.282-0.283,0.561-0.425,0.842c-0.28,0.555-0.535,1.121-0.71,1.722c-0.06,0.048-0.131,0.039-0.2,0.04
		c-0.107,0.001-0.13-0.039-0.094-0.146c0.07-0.209,0.221-0.376,0.275-0.592c0.019-0.077,0.067-0.155-0.061-0.174
		c0.018-0.076,0.007-0.144-0.088-0.109c-0.411,0.153-0.834,0.259-1.3,0.313c0.27,0.247,0.498,0.486,0.653,0.786
		c-0.139,0.015-0.29,0.089-0.395-0.079c-0.195-0.448-0.598-0.671-1.179-0.653c-0.309,0.01-0.691,0.46-0.659,0.777
		c-0.071-0.007-0.163,0.047-0.206-0.042c-0.037-0.076,0.048-0.125,0.08-0.184c0.07-0.131,0.168-0.242,0.275-0.344
		c0.033-0.032,0.092-0.063,0.071-0.119c-0.026-0.068-0.097-0.029-0.147-0.04c0.058-0.089,0.028-0.117-0.069-0.132
		c-0.275-0.041-0.55-0.085-0.815-0.176c-0.188-0.065-0.375-0.132-0.586-0.207c0.133,0.398,0.323,0.741,0.427,1.117
		c-0.146,0.008-0.291,0.01-0.431-0.041c-0.032-0.095-0.064-0.189-0.095-0.284c-0.163-0.493-0.462-0.915-0.686-1.375
		c-0.507-1.043-1.036-2.073-1.787-2.957c-0.215-0.253-0.31-0.5-0.173-0.817c0.002-0.005-0.014-0.018-0.041-0.051
		c-0.506,0.548-1.116,0.973-1.58,1.57c-0.344,0.442-0.65,0.918-1.039,1.323c-0.093-0.02-0.147-0.076-0.157-0.174
		c0.102-0.191,0.28-0.32,0.4-0.492c0.515-0.74,1.123-1.39,1.786-1.988c0.225-0.203,0.436-0.429,0.68-0.604
		c0.326-0.233,0.342-0.602,0.451-0.932c0.022-0.066-0.024-0.107-0.078-0.134c-0.019-0.12-0.083-0.195-0.201-0.216
		c-1.063-0.191-2.102-0.487-3.143-0.772C10.174,21.949,10.137,21.951,10.102,21.949z M20.416,26.364
		c-0.015-0.077,0.055-0.185-0.077-0.217c-0.037-0.131-0.079-0.261-0.109-0.393c-0.026-0.119-0.089-0.152-0.197-0.12
		c-0.357,0.106-0.723,0.151-1.094,0.175c-0.904,0.06-1.802,0.062-2.676-0.229c-0.113-0.038-0.148-0.002-0.177,0.099
		c-0.227,0.794-0.312,1.614-0.419,2.43c-0.01,0.074,0.018,0.125,0.079,0.161c0.001,0.067,0.041,0.1,0.094,0.129
		c0.593,0.326,1.234,0.499,1.898,0.55c0.856,0.066,1.695-0.035,2.51-0.341c0.432-0.163,0.488-0.244,0.436-0.699
		c-0.029-0.255-0.058-0.511-0.102-0.763c-0.045-0.263-0.027-0.542-0.167-0.784L20.416,26.364z M20.882,27.617
		c0.005,0.043,0.007,0.097,0.059,0.099c0.061,0.002,0.067-0.064,0.088-0.106c0.287-0.554,0.515-1.141,0.9-1.642
		c0.241-0.314,0.434-0.666,0.667-0.987c0.089-0.123,0.093-0.209,0.002-0.315c-0.143-0.245-0.146-0.535-0.243-0.796
		c-0.054-0.147-0.103-0.181-0.2-0.044c-0.287,0.402-0.671,0.708-0.999,1.069c-0.168,0.184-0.354,0.35-0.565,0.479
		c-0.125,0.076-0.155,0.16-0.113,0.3c0.112,0.377,0.174,0.767,0.247,1.154C20.776,27.091,20.739,27.373,20.882,27.617z
		 M15.875,25.498c0.014-0.101-0.045-0.157-0.117-0.209c-0.32-0.233-0.616-0.494-0.884-0.79c-0.305-0.337-0.591-0.69-0.867-1.052
		c-0.03-0.039-0.054-0.097-0.106-0.096c-0.064,0.001-0.053,0.074-0.072,0.117c-0.167,0.379-0.266,0.78-0.361,1.183
		c-0.022,0.093-0.009,0.152,0.048,0.232c0.144,0.203,0.323,0.373,0.468,0.577c0.476,0.671,0.873,1.387,1.226,2.131
		c0.054,0.113,0.096,0.244,0.239,0.282c0.009,0.051-0.016,0.119,0.076,0.145c0.09-0.564,0.13-1.133,0.263-1.685
		c0.057-0.236,0.11-0.473,0.177-0.706C15.992,25.526,15.973,25.49,15.875,25.498z" />
            <path class="st12" d="M16.291,12.138c0.014-0.084,0.029-0.168,0.043-0.252c0.51-0.089,1.026-0.108,1.541-0.125
		c0.6-0.02,1.197,0.049,1.794,0.119c0.793,0.094,1.565,0.281,2.323,0.526c0.754,0.244,1.489,0.542,2.194,0.913
		c0.076,0.04,0.159,0.122,0.223-0.017c0.207-0.449,0.583-0.747,0.922-1.074c0.443-0.427,0.912-0.813,1.586-0.693
		c0.166,0.146,0.188,0.354,0.191,0.551c0.016,0.93-0.122,1.838-0.475,2.695c-0.138,0.334-0.274,0.673-0.442,0.996
		c-0.029,0.056-0.111,0.148,0.039,0.169c-0.029,0.166-0.022,0.179,0.054,0.141c0.375-0.187,0.778-0.128,1.171-0.146
		c0,0-0.003,0.001-0.003,0.001c0.012,0.035,0.039,0.044,0.072,0.045c0.157,0.249,0.154,0.513,0.073,0.786
		c-0.134,0.453-0.35,0.862-0.628,1.237c-0.095,0.128-0.124,0.195,0.03,0.318c0.563,0.452,1.082,0.956,1.492,1.563
		c0.189,0.28,0.317,0.591,0.381,0.928c0.036,0.189,0.001,0.302-0.211,0.362c-1.153,0.327-2.297,0.688-3.453,1.002
		c-0.648,0.176-1.295,0.367-1.96,0.47c-0.117,0.018-0.233,0.047-0.327,0.131c-0.062-0.032-0.124-0.065-0.187-0.097
		c0.07-0.176,0.181-0.279,0.383-0.265c0.101,0.007,0.206-0.027,0.308-0.05c1.666-0.386,3.305-0.876,4.944-1.363
		c0.216-0.064,0.227-0.12,0.079-0.308c-0.073-0.154-0.124-0.325-0.221-0.46c-0.333-0.46-0.691-0.898-1.106-1.285
		c-0.253-0.236-0.544-0.417-0.811-0.63c0.027-0.008,0.06-0.007,0.079-0.024c0.501-0.439,0.8-1.006,0.97-1.648
		c0.028-0.107,0.042-0.248-0.103-0.314c-0.014-0.122-0.086-0.179-0.2-0.172c-0.569,0.034-1.082,0.202-1.469,0.663
		c-0.094,0.111-0.188,0.206-0.33,0.07c0.336-0.545,0.673-1.089,0.891-1.698c0.182-0.508,0.392-1.007,0.521-1.535
		c0.098-0.398,0.1-0.808,0.141-1.212c0.018-0.174,0.012-0.374-0.118-0.528c-0.074-0.198-0.203-0.2-0.367-0.119
		c-0.763,0.379-1.298,1.008-1.77,1.705c-0.143,0.212-0.222,0.246-0.448,0.13c-0.358-0.183-0.721-0.351-1.087-0.516
		c-0.74-0.334-1.509-0.572-2.292-0.77c-0.592-0.15-1.195-0.229-1.8-0.29c-0.376-0.037-0.756-0.055-1.133-0.043
		C17.294,12.044,16.793,12.099,16.291,12.138z" />
            <path class="st13" d="M26.916,11.536c-0.674-0.12-1.143,0.266-1.586,0.693c-0.339,0.327-0.715,0.625-0.922,1.074
		c-0.064,0.139-0.147,0.057-0.223,0.017c-0.705-0.371-1.441-0.669-2.194-0.913c-0.758-0.245-1.53-0.432-2.323-0.526
		c-0.597-0.071-1.194-0.139-1.794-0.119c-0.514,0.017-1.031,0.035-1.541,0.125c-0.812,0.106-1.601,0.31-2.38,0.568
		c-0.643,0.213-1.244,0.514-1.847,0.815c-0.149,0.075-0.155,0.004-0.149-0.11c0.52-0.278,1.056-0.521,1.597-0.752
		c0.034-0.005,0.07-0.006,0.087-0.046c0,0-0.001,0.005-0.001,0.005c0.308-0.041,0.587-0.18,0.883-0.264
		c1.283-0.365,2.589-0.517,3.918-0.47c0.111,0.004,0.223-0.003,0.335-0.005c0.31,0.042,0.619,0.088,0.929,0.124
		c0.339,0.04,0.674,0.106,1.008,0.175c0.927,0.228,1.83,0.531,2.705,0.921c0.231,0.103,0.46,0.214,0.679,0.34
		c0.122,0.07,0.173,0.072,0.252-0.066c0.43-0.752,1.056-1.292,1.813-1.67C26.416,11.324,26.688,11.295,26.916,11.536z" />
            <path class="st8" d="M27.455,15.943c-0.394,0.018-0.796-0.042-1.171,0.146c-0.077,0.038-0.083,0.025-0.054-0.141
		c0.314-0.172,0.653-0.188,0.996-0.159C27.314,15.796,27.422,15.823,27.455,15.943z" />
            <path class="st5"
                  d="M26.884,26.234c-0.023,0.027-0.046,0.055-0.069,0.082C26.757,26.217,26.841,26.243,26.884,26.234z" />
            <path class="st8"
                  d="M27.523,15.988c-0.032-0.001-0.059-0.011-0.072-0.045C27.488,15.938,27.51,15.956,27.523,15.988z" />
            <path class="st13"
                  d="M10.661,11.796c-0.138,0.018-0.239-0.072-0.35-0.13c-0.166-0.086-0.335-0.135-0.524-0.129
		c-0.317,0.009-0.517,0.183-0.524,0.511c-0.012,0.545-0.027,1.091,0.108,1.627c0.017,0.069,0.037,0.142-0.029,0.2
		c-0.147-0.656-0.263-1.317-0.167-1.994c0.058-0.413,0.358-0.595,0.749-0.479C10.196,11.482,10.433,11.629,10.661,11.796z" />
            <path class="st9" d="M10.111,15.972c0.015,0.038,0.069,0.053,0.053,0.131c-0.232-0.088-0.466-0.147-0.715-0.168
		c-0.635-0.053-0.799,0.209-0.779,0.697c0.003,0.078-0.001,0.157-0.002,0.236c-0.139-0.248-0.113-0.513-0.041-0.767
		c0.07-0.249,0.282-0.309,0.512-0.326C9.481,15.751,9.796,15.86,10.111,15.972z" />
            <path class="st13"
                  d="M9.373,13.961c0.054,0.02,0.06,0.048,0.013,0.085C9.382,14.018,9.377,13.99,9.373,13.961z" />
            <path class="st4"
                  d="M13.641,12.361c-0.017,0.04-0.053,0.041-0.087,0.046C13.573,12.37,13.605,12.362,13.641,12.361z" />
            <path class="st9" d="M13.552,22.945c0.055,0.027,0.1,0.069,0.078,0.134c-0.109,0.331-0.125,0.699-0.451,0.932
		c-0.245,0.175-0.455,0.4-0.68,0.604c-0.663,0.599-1.271,1.248-1.786,1.988c-0.12,0.172-0.298,0.301-0.4,0.492
		c-0.078,0.041-0.118,0.015-0.123-0.073c0.34-0.528,0.769-0.983,1.152-1.475c0.501-0.644,1.161-1.118,1.741-1.677
		c0.158-0.152,0.301-0.289,0.341-0.518C13.449,23.214,13.508,23.081,13.552,22.945z" />
            <path class="st14"
                  d="M20.319,29.864c0.175-0.601,0.43-1.167,0.71-1.722c0.142-0.281,0.286-0.56,0.425-0.842
		c0.413-0.842,0.925-1.62,1.479-2.369c0.063-0.085,0.074-0.145,0.042-0.248c-0.069-0.221-0.138-0.446-0.159-0.678
		c0.091-0.026,0.12,0.035,0.161,0.069c0.646,0.538,1.266,1.1,1.808,1.757c0.371,0.449,0.754,0.882,1.042,1.395
		c-0.508,0.513-1.122,0.876-1.729,1.24c-1.131,0.678-2.356,1.107-3.634,1.385C20.418,29.861,20.368,29.86,20.319,29.864z" />
            <path class="st14" d="M10.469,27.269c0.389-0.405,0.695-0.88,1.039-1.323c0.464-0.597,1.074-1.022,1.58-1.57
		c0.026,0.032,0.043,0.046,0.041,0.051c-0.137,0.316-0.043,0.563,0.173,0.817c0.752,0.884,1.28,1.914,1.787,2.957
		c0.224,0.461,0.523,0.882,0.686,1.375c0.031,0.095,0.063,0.189,0.095,0.284c-0.659-0.109-1.295-0.302-1.921-0.534
		c-1.181-0.438-2.277-1.035-3.253-1.852C10.618,27.409,10.487,27.404,10.469,27.269z" />
            <path class="st14" d="M17.272,30.028c-0.032-0.317,0.35-0.768,0.659-0.777c0.581-0.018,0.984,0.205,1.179,0.653
		c-0.042,0.087-0.096,0.131-0.205,0.141C18.359,30.089,17.816,30.103,17.272,30.028z" />
            <path class="st14" d="M16.3,29.901c-0.104-0.377-0.294-0.719-0.427-1.117c0.211,0.075,0.398,0.142,0.586,0.207
		c0.265,0.092,0.54,0.135,0.815,0.176c0.097,0.015,0.128,0.042,0.069,0.132c-0.181,0.139-0.297,0.34-0.411,0.526
		c-0.107,0.176-0.226,0.186-0.378,0.155C16.469,29.962,16.373,29.966,16.3,29.901z" />
            <path class="st6"
                  d="M19.505,29.983c-0.155-0.301-0.383-0.539-0.653-0.786c0.466-0.054,0.888-0.16,1.3-0.313
		c0.094-0.035,0.105,0.032,0.088,0.109c-0.192,0.209-0.252,0.486-0.343,0.743C19.823,29.94,19.702,30.012,19.505,29.983z" />
            <path class="st13" d="M9.386,18.237c0.152,0.03,0.138,0.083,0.03,0.169c-0.36,0.29-0.729,0.571-1.034,0.927
		c-0.365,0.427-0.695,0.875-0.865,1.429c-0.035,0.114,0.028,0.252-0.085,0.342c-0.152-0.042-0.118-0.164-0.09-0.261
		c0.265-0.922,0.856-1.61,1.538-2.228C9.036,18.474,9.217,18.362,9.386,18.237z" />
            <path class="st14" d="M16.291,12.138c0.501-0.039,1.002-0.094,1.504-0.111c0.377-0.013,0.757,0.005,1.133,0.043
		c0.605,0.06,1.208,0.14,1.8,0.29c0.782,0.198,1.552,0.436,2.292,0.77c0.366,0.165,0.729,0.333,1.087,0.516
		c0.226,0.115,0.305,0.081,0.448-0.13c0.472-0.697,1.007-1.325,1.77-1.705c0.164-0.081,0.293-0.079,0.367,0.119
		c0.01,0.593-0.018,1.176-0.184,1.756c-0.163,0.572-0.354,1.131-0.577,1.68c-0.173,0.426-0.41,0.814-0.649,1.202
		c-0.06,0.098-0.181,0.211-0.025,0.335c0.142,0.136,0.236,0.042,0.33-0.07c0.387-0.461,0.899-0.629,1.469-0.663
		c0.114-0.007,0.186,0.05,0.2,0.172c-0.032,0.627-0.34,1.116-0.72,1.578c-0.094,0.115-0.292,0.192-0.225,0.408
		c0.268,0.213,0.559,0.394,0.811,0.63c0.415,0.388,0.773,0.826,1.106,1.285c0.098,0.135,0.149,0.306,0.222,0.46
		c0.037,0.15-0.089,0.143-0.165,0.165c-1.178,0.341-2.347,0.712-3.535,1.014c-0.59,0.15-1.177,0.316-1.779,0.413
		c-0.123,0.02-0.209,0.068-0.28,0.164c-0.333,0.451-0.652,0.911-1.037,1.321c-0.287,0.305-0.555,0.628-0.856,0.92
		c-0.307,0.297-0.658,0.499-1.074,0.596c-0.637,0.149-1.281,0.122-1.923,0.118c-0.562-0.004-1.118-0.063-1.638-0.309
		c-0.309-0.267-0.636-0.516-0.923-0.807c-0.352-0.357-0.662-0.757-0.964-1.163c-0.144-0.194-0.288-0.388-0.43-0.583
		c-0.03-0.042-0.06-0.08-0.117-0.078c-0.04-0.134-0.144-0.162-0.263-0.17c-0.104-0.007-0.211-0.008-0.313-0.029
		c-1.258-0.251-2.49-0.612-3.722-0.969c-0.518-0.15-1.038-0.297-1.557-0.445c-0.103-0.045-0.069-0.122-0.042-0.196
		c0.23-0.622,0.632-1.118,1.113-1.545c0.285-0.253,0.569-0.51,0.89-0.719c0.106-0.069,0.121-0.149,0.028-0.265
		c-0.315-0.396-0.61-0.807-0.783-1.295c-0.071-0.2-0.157-0.424-0.028-0.597c0.133-0.178,0.363-0.072,0.533-0.022
		c0.417,0.124,0.82,0.29,1.109,0.653c0.08,0.101,0.183,0.132,0.294,0.043c0.106-0.085,0.097-0.19,0.028-0.286
		c-0.177-0.248-0.32-0.519-0.498-0.769c-0.142-0.2-0.23-0.444-0.321-0.677c-0.268-0.688-0.528-1.38-0.593-2.126
		C9.579,12.728,9.53,12.4,9.555,12.067c0.024-0.312,0.113-0.379,0.387-0.238c0.7,0.361,1.255,0.883,1.629,1.597
		c0.164,0.313,0.181,0.322,0.477,0.157c1.275-0.707,2.62-1.197,4.059-1.404C16.169,12.171,16.23,12.152,16.291,12.138z
		 M19.152,21.576c0.101,0.054,0.138-0.018,0.129-0.093c-0.039-0.315,0.193-0.391,0.397-0.493c0.172-0.087,0.367-0.068,0.548-0.116
		c0.145-0.039,0.2-0.119,0.11-0.262c-0.032-0.026-0.06-0.066-0.096-0.077c-0.443-0.134-1.151,0.339-1.203,0.805
		C19.027,21.437,19.013,21.549,19.152,21.576z M17.092,23.551c0.056-0.017,0.111-0.034,0.167-0.052
		c0.036,0.006,0.066-0.003,0.085-0.038c0.317-0.097,0.588-0.293,0.883-0.437c0.467,0.278,0.956,0.508,1.484,0.634
		c0.256,0.061,0.499,0.05,0.734-0.13c0.344-0.264,0.661-0.552,0.93-0.895c0.088-0.112,0.166-0.147,0.261-0.014
		c0.085,0.12,0.179,0.116,0.283,0.025c0.064-0.056,0.135-0.103,0.196-0.161c0.568-0.541,0.851-1.213,0.869-2.006
		c0.001-0.052-0.03-0.128,0.045-0.148c0.056-0.015,0.108,0.029,0.145,0.071c0.102,0.117,0.184,0.25,0.233,0.399
		c0.03,0.093,0.08,0.136,0.169,0.111c0.083-0.023,0.135-0.085,0.115-0.177c-0.044-0.197-0.092-0.393-0.282-0.506
		c-0.184-0.105-0.367-0.21-0.592-0.132c-0.097,0.033-0.153,0.071-0.136,0.197c0.09,0.651-0.109,1.222-0.499,1.725
		c-0.121,0.156-0.236,0.343-0.454,0.389c-0.011-0.064-0.051-0.098-0.111-0.109c-0.164-0.168-0.196-0.167-0.336,0.024
		c-0.258,0.352-0.564,0.654-0.904,0.923c-0.236,0.186-0.47,0.254-0.775,0.165c-0.421-0.124-0.787-0.371-1.2-0.507l0.001,0.002
		c-0.098-0.133-0.197-0.136-0.337-0.043c-0.49,0.325-1.028,0.531-1.601,0.64c-0.495-0.353-0.945-0.757-1.329-1.235
		c-0.093-0.115-0.188-0.134-0.277-0.018c-0.129,0.169-0.22,0.114-0.347-0.012c-0.558-0.554-0.777-1.226-0.703-2.01
		c0.004-0.065-0.046-0.084-0.09-0.103c-0.471-0.202-0.884,0.216-0.915,0.647c-0.006,0.083,0.03,0.139,0.12,0.141
		c0.123,0.021,0.156-0.048,0.17-0.158c0.018-0.148,0.093-0.269,0.204-0.365c0.041-0.036,0.089-0.084,0.148-0.055
		c0.053,0.027,0.03,0.09,0.029,0.137c-0.031,0.895,0.407,1.551,1.021,2.118c0.117,0.108,0.237,0.158,0.357,0.001
		c0.072-0.095,0.138-0.076,0.2,0.013c0.216,0.316,0.538,0.517,0.806,0.777c0.309,0.3,0.658,0.419,1.066,0.214
		c0.028-0.003,0.056-0.005,0.083-0.008C17.041,23.593,17.071,23.585,17.092,23.551z M16.119,20.844
		c0.073,0.047,0.156,0.062,0.239,0.068c0.231,0.015,0.431,0.116,0.624,0.233c0.098,0.06,0.187,0.138,0.132,0.28
		c-0.035,0.09-0.023,0.163,0.081,0.176c0.106,0.014,0.149-0.054,0.152-0.157c0.009-0.286-0.137-0.486-0.341-0.654
		c-0.077-0.047-0.154-0.096-0.232-0.141c-0.175-0.101-0.364-0.147-0.565-0.125c-0.099,0.011-0.173,0.063-0.197,0.166
		C15.992,20.776,16.042,20.823,16.119,20.844z M16.165,16.768c0.033-0.021,0.04-0.052,0.032-0.088
		c0.003-0.028,0.007-0.056,0.01-0.085c0.049-0.156,0.122-0.309,0.053-0.478c-0.017-0.137-0.134-0.135-0.223-0.158
		c-0.305-0.078-0.613-0.145-0.92-0.218c-0.749-0.179-1.499-0.357-2.247-0.541c-0.168-0.041-0.275,0.016-0.281,0.185
		c-0.014,0.394-0.023,0.79,0.121,1.168c0.192,0.883,0.839,1.449,1.688,1.548c0.028,0.002,0.055,0.003,0.083,0.005
		c0.112,0.061,0.225,0.058,0.338,0.003C15.54,18.065,15.981,17.525,16.165,16.768z M23.418,16.687
		c0.046-0.082,0.072-0.169,0.075-0.264c0.032-0.022,0.038-0.053,0.03-0.089c0.002-0.028,0.005-0.057,0.007-0.085
		c0.068-0.299,0.125-0.599,0.048-0.907c-0.044-0.169-0.158-0.172-0.296-0.139c-1.007,0.246-2.014,0.491-3.021,0.732
		c-0.438,0.105-0.461,0.137-0.363,0.586c0.015,0.069,0.002,0.146,0.055,0.204c0.097,0.538,0.404,0.933,0.837,1.218
		c0.25,0.165,0.538,0.262,0.849,0.164c0.77-0.021,1.441-0.52,1.684-1.254C23.43,16.844,23.404,16.753,23.418,16.687z M18.499,17.154
		c-0.224-0.259-0.539-0.231-0.753,0.083c-0.498,0.733-0.655,1.57-0.689,2.442c-0.003,0.086,0.003,0.178,0.117,0.196
		c0.136-0.003,0.13-0.105,0.129-0.2c-0.002-0.194,0.005-0.386,0.039-0.578c0.103-0.581,0.223-1.156,0.558-1.653
		c0.185-0.274,0.358-0.266,0.534,0.004c0.251,0.386,0.425,0.803,0.518,1.257c0.066,0.322,0.137,0.644,0.206,0.966
		c0.019,0.09,0.056,0.175,0.163,0.155c0.101-0.019,0.093-0.113,0.084-0.192c-0.008-0.071-0.026-0.14-0.04-0.211
		c-0.12-0.62-0.248-1.237-0.523-1.809C18.759,17.44,18.708,17.232,18.499,17.154z M19.532,15.392
		c0.104,0.092,0.157-0.008,0.201-0.069c0.353-0.492,0.82-0.857,1.287-1.222c0.457-0.358,0.971-0.568,1.551-0.573
		c0.289-0.002,0.434,0.135,0.508,0.415c0.043,0.164,0.023,0.329,0.037,0.493c0.009,0.105,0.043,0.2,0.167,0.214
		c0.128,0.014,0.194-0.061,0.23-0.175c0.104-0.331-0.071-0.863-0.352-1.077c-0.097-0.156-0.255-0.198-0.415-0.216
		c-0.665-0.075-1.248,0.155-1.795,0.518c-0.294,0.195-0.55,0.44-0.832,0.651c-0.247,0.185-0.449,0.432-0.611,0.704
		C19.441,15.166,19.386,15.29,19.532,15.392z M15.501,13.655c-0.246-0.168-0.517-0.284-0.795-0.379
		c-0.356-0.121-0.722-0.191-1.093-0.072c-0.429,0.137-0.748,0.868-0.583,1.313c0.019,0.05,0.048,0.087,0.1,0.101
		c0.182,0.09,0.226-0.042,0.247-0.176c0.018-0.12,0.001-0.244,0.01-0.366c0.024-0.338,0.203-0.521,0.53-0.549
		c0.204-0.017,0.403,0.012,0.599,0.076c0.79,0.258,1.42,0.753,1.963,1.379c0.107,0.123,0.209,0.25,0.313,0.376
		c0.057,0.069,0.127,0.092,0.205,0.047c0.074-0.043,0.106-0.115,0.091-0.201c-0.016-0.093-0.051-0.181-0.125-0.241
		c-0.089-0.072-0.155-0.164-0.228-0.25c-0.296-0.346-0.627-0.651-1.015-0.887c-0.034-0.029-0.069-0.059-0.103-0.088
		C15.58,13.71,15.541,13.682,15.501,13.655z" />
            <path class="st14" d="M15.746,28.269c-0.06-0.036-0.089-0.087-0.079-0.161c0.107-0.816,0.192-1.636,0.419-2.43
		c0.029-0.101,0.064-0.137,0.177-0.099c0.874,0.291,1.771,0.289,2.676,0.229c0.371-0.025,0.737-0.069,1.094-0.175
		c0.108-0.032,0.171,0.002,0.197,0.12c0.029,0.133,0.072,0.262,0.109,0.393c0.015,0.077,0.013,0.159,0.077,0.217
		c0,0-0.001-0.001-0.001-0.001c0.013,0.532,0.149,1.048,0.19,1.577c0.018,0.228-0.047,0.356-0.24,0.436
		c-1.156,0.478-2.34,0.585-3.556,0.29C16.438,28.575,16.097,28.409,15.746,28.269z" />
            <path class="st14" d="M15.448,27.871c-0.142-0.037-0.185-0.169-0.239-0.282c-0.353-0.745-0.75-1.461-1.226-2.131
		c-0.144-0.204-0.324-0.374-0.468-0.577c-0.056-0.08-0.07-0.139-0.048-0.232c0.096-0.403,0.195-0.804,0.361-1.183
		c0.019-0.042,0.007-0.115,0.072-0.117c0.052-0.001,0.076,0.057,0.106,0.096c0.276,0.362,0.563,0.715,0.867,1.052
		c0.267,0.296,0.563,0.557,0.884,0.79c0.073,0.053,0.132,0.108,0.117,0.209C15.632,26.27,15.516,27.066,15.448,27.871z" />
            <path class="st14" d="M20.882,27.617c-0.143-0.243-0.106-0.526-0.156-0.789c-0.073-0.387-0.135-0.776-0.247-1.154
		c-0.042-0.141-0.012-0.224,0.113-0.3c0.211-0.129,0.397-0.294,0.565-0.479c0.329-0.361,0.712-0.667,0.999-1.069
		c0.098-0.137,0.146-0.103,0.2,0.044c0.097,0.261,0.099,0.551,0.243,0.796c0,0.062-0.034,0.106-0.069,0.152
		c-0.301,0.384-0.561,0.8-0.835,1.203C21.361,26.511,21.132,27.073,20.882,27.617z" />
            <path class="st9" d="M16.162,25.101c0.52,0.246,1.076,0.305,1.638,0.309c0.643,0.005,1.287,0.031,1.923-0.118
		c0.416-0.097,0.767-0.299,1.074-0.596c0.301-0.291,0.569-0.615,0.856-0.92c0.385-0.409,0.705-0.87,1.037-1.321
		c0.071-0.096,0.157-0.144,0.28-0.164c0.601-0.097,1.188-0.263,1.779-0.413c1.188-0.302,2.358-0.673,3.535-1.014
		c0.076-0.022,0.201-0.014,0.165-0.165c0.148,0.188,0.138,0.244-0.079,0.308c-1.64,0.487-3.278,0.977-4.944,1.363
		c-0.102,0.024-0.207,0.057-0.308,0.05c-0.203-0.014-0.313,0.089-0.383,0.265c-0.279,0.357-0.535,0.735-0.841,1.065
		c-0.484,0.522-0.916,1.106-1.535,1.481c-0.261,0.159-0.558,0.221-0.855,0.262c-0.669,0.093-1.343,0.048-2.014,0.037
		c-0.359-0.006-0.723-0.063-1.062-0.212C16.32,25.273,16.2,25.238,16.162,25.101z" />
            <path class="st13" d="M15.746,28.269c0.351,0.14,0.692,0.306,1.062,0.396c1.217,0.295,2.4,0.189,3.556-0.29
		c0.193-0.08,0.258-0.207,0.24-0.436c-0.041-0.529-0.176-1.046-0.19-1.577c0.14,0.242,0.122,0.521,0.167,0.784
		c0.043,0.252,0.072,0.508,0.102,0.763c0.053,0.455-0.003,0.536-0.436,0.699c-0.815,0.306-1.654,0.407-2.51,0.341
		c-0.664-0.051-1.305-0.224-1.898-0.55C15.787,28.369,15.747,28.335,15.746,28.269z" />
            <path class="st13" d="M7.874,20.858c0.519,0.148,1.038,0.295,1.557,0.445c1.232,0.357,2.464,0.718,3.722,0.969
		c0.102,0.02,0.208,0.022,0.313,0.029c0.119,0.008,0.223,0.036,0.263,0.17c-1.029-0.11-2.017-0.411-3.011-0.685
		c-0.895-0.246-1.786-0.505-2.672-0.78C7.966,20.98,7.874,20.978,7.874,20.858z" />
            <path class="st9"
                  d="M20.882,27.617c0.25-0.544,0.479-1.105,0.813-1.596c0.274-0.403,0.534-0.818,0.835-1.203
		c0.036-0.046,0.069-0.09,0.069-0.152c0.091,0.106,0.087,0.192-0.002,0.315c-0.233,0.321-0.426,0.673-0.667,0.987
		c-0.385,0.501-0.613,1.087-0.9,1.642c-0.022,0.042-0.028,0.108-0.088,0.106C20.89,27.714,20.888,27.659,20.882,27.617z" />
            <path class="st13"
                  d="M15.448,27.871c0.068-0.805,0.183-1.602,0.427-2.374c0.098-0.008,0.117,0.028,0.089,0.128
		c-0.066,0.233-0.12,0.47-0.177,0.706c-0.133,0.552-0.173,1.121-0.263,1.685C15.433,27.99,15.458,27.923,15.448,27.871z" />
            <path class="st13"
                  d="M20.416,26.364c-0.064-0.058-0.062-0.141-0.077-0.217C20.471,26.179,20.401,26.287,20.416,26.364z" />
            <path class="st13"
                  d="M25.257,16.901c-0.157-0.123-0.036-0.237,0.025-0.335c0.239-0.388,0.476-0.776,0.649-1.202
		c0.223-0.549,0.414-1.108,0.577-1.68c0.166-0.58,0.194-1.163,0.184-1.756c0.13,0.154,0.136,0.354,0.118,0.528
		c-0.041,0.404-0.043,0.814-0.141,1.212c-0.129,0.528-0.339,1.026-0.521,1.535C25.929,15.812,25.593,16.357,25.257,16.901z" />
            <path class="st13" d="M26.31,18.326c-0.067-0.216,0.131-0.293,0.225-0.408c0.38-0.462,0.689-0.951,0.72-1.578
		c0.145,0.066,0.132,0.207,0.103,0.314c-0.17,0.642-0.469,1.209-0.97,1.648C26.37,18.318,26.336,18.318,26.31,18.326z" />
            <path class="st11" d="M14.398,18.102c-0.849-0.099-1.496-0.665-1.688-1.548c0.056-0.042,0.041-0.098,0.032-0.156
		c-0.041-0.253-0.08-0.506-0.073-0.765c0.007-0.257,0.095-0.338,0.34-0.282c0.386,0.089,0.77,0.19,1.157,0.28
		c0.697,0.164,1.396,0.324,2.094,0.486c0.068,0.17-0.004,0.323-0.053,0.478c-0.044-0.028-0.064-0.094-0.13-0.088
		c0.003-0.093-0.055-0.117-0.132-0.134c-0.356-0.078-0.711-0.157-1.065-0.243c-0.127-0.031-0.166,0.032-0.181,0.139
		c-0.025,0.171,0.064,0.299,0.234,0.304c0.074,0.002,0.102,0.011,0.102,0.087c-0.001,0.203-0.006,0.405-0.11,0.586
		c-0.079,0.137-0.16,0.291-0.335,0.295c-0.19,0.004-0.325-0.117-0.416-0.284c-0.027-0.05-0.053-0.102-0.072-0.156
		c-0.122-0.336-0.159-0.682-0.101-1.037c0.013-0.079,0.027-0.137-0.077-0.159c-0.35-0.073-0.699-0.146-1.046-0.231
		c-0.11-0.027-0.123,0.017-0.116,0.105c0.063,0.755,0.255,1.445,0.919,1.894c0,0.09,0.068,0.104,0.129,0.143
		C13.997,17.934,14.231,17.946,14.398,18.102z" />
            <path class="st12" d="M21.64,18.109c-0.311,0.098-0.599,0-0.849-0.164c-0.433-0.285-0.74-0.68-0.837-1.218
		c0.088-0.078,0.007-0.159,0.006-0.238c-0.002-0.151-0.054-0.318,0.176-0.37c0.653-0.147,1.301-0.314,1.953-0.46
		c0.496-0.111,0.976-0.299,1.49-0.316c0.076,0.307,0.019,0.607-0.048,0.907c-0.075-0.092-0.024-0.201-0.038-0.302
		c-0.009-0.064,0.027-0.147-0.071-0.171c-0.017-0.057-0.006-0.144-0.106-0.12c-0.442,0.107-0.886,0.204-1.324,0.329
		c-0.171,0.048-0.163,0.243-0.167,0.386c-0.004,0.129,0.077,0.23,0.227,0.227c0.055-0.001,0.098,0.012,0.1,0.079
		c0.008,0.279-0.018,0.548-0.217,0.764c-0.145,0.157-0.29,0.174-0.469,0.062c-0.145-0.091-0.229-0.231-0.286-0.388
		c-0.088-0.245-0.134-0.498-0.125-0.759c0.005-0.129-0.037-0.167-0.161-0.135c-0.217,0.057-0.434,0.118-0.654,0.148
		c-0.163,0.022-0.186,0.095-0.136,0.228c0.171,0.457,0.358,0.904,0.775,1.193c0.044,0.171,0.21,0.162,0.322,0.233
		C21.337,18.109,21.507,18.01,21.64,18.109z" />
            <path class="st11" d="M13.807,20.225c-0.074,0.784,0.146,1.456,0.703,2.01c0.127,0.126,0.218,0.181,0.347,0.012
		c0.089-0.116,0.184-0.097,0.277,0.018c0.384,0.478,0.834,0.882,1.329,1.235c0.007,0.123,0.101,0.079,0.168,0.099
		c0.1,0.03,0.194-0.095,0.292-0.006c-0.408,0.205-0.757,0.085-1.066-0.214c-0.268-0.26-0.59-0.46-0.806-0.777
		c-0.061-0.089-0.127-0.108-0.2-0.013c-0.12,0.157-0.24,0.107-0.357-0.001c-0.614-0.567-1.052-1.223-1.021-2.118
		c0.002-0.047,0.025-0.11-0.029-0.137c-0.059-0.03-0.107,0.019-0.148,0.055c-0.111,0.095-0.186,0.217-0.204,0.365
		c-0.013,0.11-0.047,0.18-0.17,0.158c-0.023-0.313,0.141-0.51,0.392-0.645C13.469,20.181,13.642,20.241,13.807,20.225z" />
            <path class="st7"
                  d="M15.722,13.826c0.388,0.236,0.719,0.541,1.015,0.887c0.074,0.086,0.139,0.178,0.228,0.25
		c0.074,0.06,0.109,0.148,0.125,0.241c0.015,0.086-0.017,0.158-0.091,0.201c-0.078,0.045-0.148,0.022-0.205-0.047
		c-0.104-0.126-0.206-0.253-0.313-0.376c-0.543-0.627-1.174-1.121-1.963-1.379c-0.196-0.064-0.395-0.093-0.599-0.076
		c-0.328,0.028-0.506,0.211-0.53,0.549c-0.009,0.122,0.008,0.246-0.01,0.366c-0.02,0.133-0.065,0.266-0.247,0.176
		c0.001-0.158-0.002-0.316,0.004-0.473c0.016-0.411,0.247-0.705,0.633-0.798c0.478-0.115,0.924,0.007,1.356,0.21
		c0.122,0.057,0.237,0.123,0.377,0.098c0.039,0.028,0.079,0.056,0.118,0.084C15.619,13.809,15.66,13.831,15.722,13.826z" />
            <path class="st12" d="M23.161,13.396c0.281,0.214,0.456,0.746,0.352,1.077c-0.036,0.114-0.102,0.189-0.23,0.175
		c-0.124-0.014-0.158-0.109-0.167-0.214c-0.015-0.164,0.006-0.329-0.037-0.493c-0.074-0.28-0.219-0.417-0.508-0.415
		c-0.58,0.005-1.094,0.215-1.551,0.573c-0.466,0.365-0.934,0.73-1.287,1.222c-0.044,0.061-0.097,0.161-0.201,0.069
		c-0.004-0.099,0.04-0.178,0.094-0.256c0.215-0.31,0.479-0.568,0.775-0.797c0.35-0.27,0.668-0.59,1.079-0.763
		C22.02,13.349,22.574,13.193,23.161,13.396z" />
            <path class="st12"
                  d="M21.614,22.296c0.06,0.012,0.1,0.045,0.111,0.11c0.106,0.178,0.222,0.101,0.327,0.006
		c0.181-0.163,0.318-0.366,0.433-0.578c0.234-0.432,0.382-0.89,0.297-1.397c-0.025-0.147,0.031-0.2,0.179-0.218
		c0.152-0.018,0.297,0.099,0.445,0.008c0.19,0.112,0.238,0.309,0.282,0.506c0.021,0.093-0.032,0.154-0.115,0.177
		c-0.089,0.025-0.139-0.018-0.169-0.111c-0.048-0.149-0.13-0.282-0.233-0.399c-0.037-0.043-0.09-0.086-0.145-0.071
		c-0.074,0.019-0.044,0.095-0.045,0.148c-0.018,0.793-0.301,1.465-0.869,2.006c-0.061,0.058-0.132,0.106-0.196,0.161
		c-0.104,0.091-0.198,0.095-0.283-0.025c-0.094-0.133-0.173-0.098-0.261,0.014c-0.268,0.343-0.585,0.631-0.93,0.895
		c-0.235,0.18-0.478,0.191-0.734,0.13c-0.528-0.126-1.016-0.356-1.484-0.634c0.014-0.107,0.09-0.121,0.174-0.122
		c0,0-0.001-0.002-0.001-0.002c-0.005,0.062,0.036,0.092,0.081,0.114c0.445,0.224,0.881,0.476,1.374,0.573
		c0.137,0.027,0.285,0.036,0.422-0.065c0.377-0.277,0.718-0.591,1.015-0.959C21.375,22.458,21.421,22.275,21.614,22.296z" />
            <path class="st12" d="M18.499,17.154c0.209,0.079,0.26,0.286,0.343,0.459c0.274,0.571,0.403,1.189,0.523,1.809
		c0.014,0.07,0.032,0.14,0.04,0.211c0.009,0.079,0.016,0.173-0.084,0.192c-0.107,0.02-0.143-0.065-0.163-0.155
		c-0.069-0.322-0.14-0.643-0.206-0.966c-0.093-0.454-0.266-0.871-0.518-1.257c-0.176-0.27-0.349-0.278-0.534-0.004
		c-0.335,0.497-0.456,1.072-0.558,1.653c-0.034,0.192-0.041,0.384-0.039,0.578c0.001,0.095,0.007,0.196-0.129,0.2
		c0.009-0.271-0.015-0.542,0.043-0.812c0.12-0.558,0.229-1.118,0.56-1.6C17.995,17.147,18.136,17.081,18.499,17.154z" />
            <path class="st13" d="M23.161,13.396c-0.587-0.203-1.14-0.047-1.68,0.18c-0.411,0.173-0.729,0.492-1.079,0.763
		c-0.297,0.23-0.56,0.487-0.775,0.797c-0.054,0.078-0.098,0.157-0.094,0.256c-0.146-0.102-0.091-0.227-0.024-0.339
		c0.162-0.272,0.364-0.519,0.611-0.704c0.282-0.211,0.539-0.455,0.832-0.651c0.547-0.364,1.13-0.593,1.795-0.518
		C22.905,13.198,23.064,13.241,23.161,13.396z" />
            <path class="st13" d="M21.64,18.109c-0.133-0.098-0.303,0-0.44-0.086c-0.113-0.07-0.279-0.062-0.322-0.233
		c0.713,0.358,1.688,0.01,2.091-0.621c0.272-0.426,0.349-0.913,0.453-1.393c0.099,0.024,0.062,0.107,0.071,0.171
		c0.014,0.1-0.037,0.209,0.038,0.302c-0.002,0.028-0.005,0.057-0.007,0.085c-0.055,0.014-0.094,0.033-0.03,0.089
		c-0.003,0.095-0.03,0.182-0.075,0.264c-0.125,0-0.087,0.098-0.095,0.167C23.081,17.588,22.41,18.088,21.64,18.109z" />
            <path class="st13"
                  d="M23.579,15.341c-0.514,0.017-0.995,0.205-1.49,0.316c-0.653,0.146-1.301,0.313-1.953,0.46
		c-0.23,0.052-0.178,0.219-0.176,0.37c0.001,0.08,0.081,0.161-0.006,0.238c-0.053-0.058-0.04-0.136-0.055-0.204
		c-0.098-0.45-0.074-0.482,0.363-0.586c1.008-0.242,2.015-0.487,3.021-0.732C23.422,15.169,23.535,15.173,23.579,15.341z" />
            <path class="st13" d="M16.261,16.117c-0.698-0.162-1.396-0.322-2.094-0.486c-0.386-0.091-0.77-0.191-1.157-0.28
		c-0.245-0.057-0.333,0.025-0.34,0.282c-0.007,0.259,0.031,0.512,0.073,0.765c0.009,0.058,0.024,0.114-0.032,0.156
		c-0.143-0.378-0.134-0.774-0.121-1.168c0.006-0.169,0.113-0.226,0.281-0.185c0.748,0.184,1.498,0.362,2.247,0.541
		c0.306,0.073,0.614,0.14,0.92,0.218C16.126,15.982,16.244,15.98,16.261,16.117z" />
            <path class="st13" d="M16.077,16.507c0.066-0.006,0.086,0.06,0.13,0.088c-0.003,0.028-0.007,0.056-0.01,0.085
		c-0.053,0.013-0.094,0.031-0.032,0.088c-0.184,0.757-0.625,1.297-1.346,1.342c-0.112-0.071-0.225-0.068-0.338-0.003
		c-0.028-0.002-0.055-0.003-0.083-0.005c-0.167-0.156-0.401-0.168-0.587-0.286c-0.061-0.039-0.129-0.053-0.129-0.143
		c0.177,0.064,0.351,0.139,0.532,0.192c0.683,0.2,1.273-0.045,1.591-0.641C15.926,16.996,15.988,16.747,16.077,16.507z" />
            <path class="st9" d="M21.614,22.296c-0.193-0.022-0.239,0.162-0.323,0.267c-0.297,0.368-0.637,0.681-1.015,0.959
		c-0.138,0.101-0.285,0.092-0.422,0.065c-0.493-0.098-0.929-0.349-1.374-0.573c-0.045-0.022-0.085-0.053-0.081-0.114
		c0.413,0.136,0.779,0.383,1.2,0.507c0.305,0.09,0.539,0.021,0.775-0.165c0.341-0.268,0.646-0.57,0.904-0.923
		C21.418,22.13,21.45,22.129,21.614,22.296z" />
            <path class="st13"
                  d="M15.501,13.655c-0.14,0.026-0.256-0.041-0.377-0.098c-0.432-0.203-0.878-0.325-1.356-0.21
		c-0.385,0.093-0.617,0.387-0.633,0.798c-0.006,0.157-0.003,0.315-0.004,0.473c-0.052-0.014-0.082-0.051-0.1-0.101
		c-0.165-0.446,0.154-1.176,0.583-1.313c0.371-0.119,0.737-0.049,1.093,0.072C14.985,13.37,15.255,13.487,15.501,13.655z" />
            <path class="st13" d="M18.499,17.154c-0.363-0.073-0.504-0.006-0.721,0.309c-0.332,0.481-0.44,1.041-0.56,1.6
		c-0.058,0.27-0.034,0.541-0.043,0.812c-0.114-0.018-0.121-0.11-0.117-0.196c0.034-0.872,0.191-1.71,0.689-2.442
		C17.96,16.923,18.275,16.895,18.499,17.154z" />
            <path class="st13" d="M23.407,20.227c-0.149,0.091-0.294-0.027-0.445-0.008c-0.148,0.018-0.203,0.071-0.179,0.218
		c0.085,0.507-0.063,0.965-0.297,1.397c-0.115,0.212-0.252,0.416-0.433,0.578c-0.106,0.095-0.222,0.172-0.327-0.006
		c0.218-0.046,0.333-0.233,0.454-0.389c0.39-0.502,0.59-1.074,0.499-1.725c-0.018-0.127,0.039-0.164,0.136-0.197
		C23.039,20.018,23.222,20.122,23.407,20.227z" />
            <path class="st11" d="M17.006,20.79c0.205,0.168,0.35,0.368,0.341,0.654c-0.003,0.103-0.046,0.171-0.152,0.157
		c-0.103-0.013-0.116-0.087-0.081-0.176c0.055-0.141-0.033-0.22-0.132-0.28c-0.193-0.117-0.394-0.218-0.624-0.233
		c-0.083-0.006-0.166-0.021-0.239-0.068c0.018-0.138,0.099-0.185,0.229-0.189c0.164-0.006,0.311,0.04,0.456,0.112
		C16.865,20.797,16.929,20.875,17.006,20.79z" />
            <path class="st9" d="M18.4,22.902c-0.084,0.001-0.16,0.014-0.174,0.122c-0.295,0.145-0.566,0.34-0.883,0.437
		c-0.059-0.059-0.072-0.011-0.085,0.038c-0.056,0.017-0.111,0.034-0.167,0.052c-0.056-0.062-0.073-0.02-0.086,0.034
		c-0.028,0.003-0.056,0.005-0.083,0.008c-0.098-0.089-0.192,0.036-0.292,0.006c-0.066-0.02-0.161,0.024-0.168-0.099
		c0.573-0.109,1.111-0.315,1.601-0.64C18.204,22.766,18.302,22.769,18.4,22.902z" />
            <path class="st12" d="M20.336,20.611c0.089,0.143,0.034,0.224-0.11,0.262c-0.181,0.048-0.376,0.03-0.548,0.116
		c-0.204,0.102-0.436,0.178-0.397,0.493c0.009,0.075-0.028,0.147-0.129,0.093c0.007-0.356,0.265-0.688,0.605-0.836
		C19.947,20.658,20.153,20.697,20.336,20.611z" />
            <path class="st13"
                  d="M20.336,20.611c-0.183,0.085-0.39,0.046-0.579,0.129c-0.34,0.148-0.597,0.48-0.605,0.836
		c-0.139-0.027-0.125-0.14-0.115-0.237c0.052-0.466,0.76-0.939,1.203-0.805C20.277,20.545,20.305,20.585,20.336,20.611z" />
            <path class="st9" d="M13.807,20.225c-0.165,0.016-0.338-0.044-0.494,0.04c-0.25,0.135-0.415,0.332-0.392,0.645
		c-0.09-0.003-0.126-0.059-0.12-0.141c0.031-0.43,0.444-0.849,0.915-0.647C13.761,20.142,13.811,20.16,13.807,20.225z" />
            <path class="st13" d="M17.006,20.79c-0.077,0.085-0.141,0.007-0.202-0.023c-0.145-0.072-0.292-0.118-0.456-0.112
		c-0.13,0.005-0.211,0.051-0.229,0.189c-0.077-0.022-0.127-0.068-0.107-0.155c0.024-0.102,0.098-0.155,0.197-0.166
		c0.201-0.022,0.389,0.024,0.565,0.125C16.852,20.694,16.929,20.743,17.006,20.79z" />
            <path class="st11"
                  d="M14.481,18.107c0.113-0.065,0.226-0.068,0.338,0.003C14.706,18.165,14.593,18.168,14.481,18.107z" />
            <path class="st12"
                  d="M23.324,16.855c0.008-0.07-0.031-0.167,0.095-0.167C23.404,16.753,23.43,16.844,23.324,16.855z" />
            <path class="st12"
                  d="M23.494,16.423c-0.064-0.056-0.025-0.076,0.03-0.089C23.532,16.37,23.526,16.401,23.494,16.423z" />
            <path class="st11"
                  d="M17.006,23.585c0.013-0.054,0.03-0.096,0.086-0.034C17.071,23.585,17.041,23.593,17.006,23.585z" />
            <path class="st11"
                  d="M17.258,23.499c0.012-0.05,0.026-0.098,0.085-0.038C17.324,23.496,17.295,23.506,17.258,23.499z" />
            <path class="st11"
                  d="M16.165,16.768c-0.062-0.057-0.021-0.075,0.032-0.088C16.205,16.716,16.198,16.747,16.165,16.768z" />
            <path class="st13"
                  d="M15.722,13.826c-0.062,0.004-0.102-0.017-0.103-0.088C15.653,13.768,15.688,13.797,15.722,13.826z" />
            <path class="st3" d="M16.077,16.507c-0.089,0.24-0.151,0.489-0.273,0.717c-0.318,0.596-0.908,0.84-1.591,0.641
		c-0.18-0.053-0.355-0.127-0.532-0.192c-0.664-0.449-0.855-1.139-0.919-1.894c-0.007-0.088,0.006-0.132,0.116-0.105
		c0.347,0.084,0.697,0.158,1.046,0.231c0.103,0.021,0.09,0.08,0.077,0.159c-0.058,0.354-0.021,0.701,0.101,1.037
		c0.019,0.054,0.045,0.106,0.072,0.156c0.091,0.167,0.226,0.288,0.416,0.284c0.174-0.004,0.256-0.158,0.335-0.295
		c0.104-0.181,0.109-0.383,0.11-0.586c0-0.075-0.028-0.084-0.102-0.087c-0.171-0.005-0.26-0.133-0.234-0.304
		c0.016-0.107,0.055-0.17,0.181-0.139c0.354,0.087,0.709,0.166,1.065,0.243C16.022,16.391,16.08,16.414,16.077,16.507z" />
            <path class="st3" d="M23.421,15.776c-0.103,0.481-0.181,0.967-0.453,1.393c-0.402,0.631-1.378,0.979-2.091,0.621
		c-0.417-0.29-0.604-0.736-0.775-1.193c-0.05-0.133-0.027-0.206,0.136-0.228c0.221-0.03,0.438-0.092,0.654-0.148
		c0.123-0.032,0.165,0.005,0.161,0.135c-0.009,0.261,0.037,0.515,0.125,0.759c0.057,0.158,0.141,0.297,0.286,0.388
		c0.179,0.112,0.324,0.095,0.469-0.062c0.199-0.216,0.225-0.485,0.217-0.764c-0.002-0.067-0.044-0.08-0.1-0.079
		c-0.15,0.004-0.231-0.098-0.227-0.227c0.004-0.142-0.003-0.337,0.167-0.386c0.437-0.124,0.882-0.222,1.324-0.329
		C23.416,15.632,23.404,15.719,23.421,15.776z" />
      </g>
</svg>