<svg width="738" height="738" xmlns="http://www.w3.org/2000/svg" xmlns:xlink="http://www.w3.org/1999/xlink" overflow="hidden"><defs><clipPath id="clip0"><rect x="1796" y="733" width="738" height="738"/></clipPath><clipPath id="clip1"><rect x="1917" y="896" width="500" height="451"/></clipPath><clipPath id="clip2"><rect x="1917" y="896" width="500" height="451"/></clipPath><clipPath id="clip3"><rect x="1917" y="896" width="3409" height="451"/></clipPath></defs><g clip-path="url(#clip0)" transform="translate(-1796 -733)"><path d="M1800 1102.5C1800 900.088 1964.09 736 2166.5 736 2368.91 736 2533 900.088 2533 1102.5 2533 1304.91 2368.91 1469 2166.5 1469 1964.09 1469 1800 1304.91 1800 1102.5Z" fill="#000000" fill-rule="evenodd" fill-opacity="1"/><g clip-path="url(#clip1)"><g clip-path="url(#clip2)"><g clip-path="url(#clip3)"><path d="M202.839 64.5175 213.385 168.742 252.426 49.9328 202.839 64.5175Z" fill="#C9CED6" fill-rule="nonzero" fill-opacity="1" transform="matrix(1.00041 0 0 1 1917 896)"/><path d="M138.651 0 202.823 64.5088 252.411 49.9243 138.651 0Z" fill="#E1E4E8" fill-rule="nonzero" fill-opacity="1" transform="matrix(1.00041 0 0 1 1917 896)"/><path d="M188.801 161.441 213.369 168.732 202.823 64.5088 138.651 0 188.801 161.441Z" fill="#F1F2F4" fill-rule="nonzero" fill-opacity="1" transform="matrix(1.00041 0 0 1 1917 896)"/><path d="M86.1613 10.8843 144.612 206.319 84.9272 308.298 0 116.342 86.1613 10.8843Z" fill="#C9CED6" fill-rule="nonzero" fill-opacity="1" transform="matrix(1.00041 0 0 1 1917 896)"/><path d="M313.124 45.4363 370.004 133.056 266.453 183.766 313.124 45.4363Z" fill="#F1F2F4" fill-rule="nonzero" fill-opacity="1" transform="matrix(1.00041 0 0 1 1917 896)"/><path d="M433.957 14.2508 370.009 133.059 313.129 45.4394 433.957 14.2508Z" fill="#F7F8F9" fill-rule="nonzero" fill-opacity="1" transform="matrix(1.00041 0 0 1 1917 896)"/><path d="M493.06 144.727 369.988 133.059 433.937 14.2508 493.06 144.727Z" fill="#E1E4E8" fill-rule="nonzero" fill-opacity="1" transform="matrix(1.00041 0 0 1 1917 896)"/><path d="M424.848 237.725C422.381 233.349 369.988 133.052 369.988 133.052L493.396 144.271 424.848 237.725Z" fill="#C9CED6" fill-rule="nonzero" fill-opacity="1" transform="matrix(1.00041 0 0 1 1917 896)"/><path d="M266.453 183.762 424.866 237.725 370.004 133.052 266.453 183.762Z" fill="#E1E4E8" fill-rule="nonzero" fill-opacity="1" transform="matrix(1.00041 0 0 1 1917 896)"/><path d="M200.811 216.518 281.25 439.436 386.82 281.923 200.811 216.518Z" fill="#A83C3B" fill-rule="nonzero" fill-opacity="1" transform="matrix(1.00041 0 0 1 1917 896)"/><path d="M224.828 449.998 84.9282 308.303 144.613 206.323 224.828 449.998Z" fill="#C73C38" fill-rule="nonzero" fill-opacity="1" transform="matrix(1.00041 0 0 1 1917 896)"/><path d="M271.602 284.953 281.25 439.436 200.811 216.518 271.602 284.953Z" fill="#F1F2F4" fill-rule="nonzero" fill-opacity="1" transform="matrix(1.00041 0 0 1 1917 896)"/><path d="M386.82 281.923 271.602 284.953 200.811 216.518 386.82 281.923Z" fill="#E1E4E8" fill-rule="nonzero" fill-opacity="1" transform="matrix(1.00041 0 0 1 1917 896)"/><path d="M281.261 439.446 271.614 284.963 386.831 281.933 281.261 439.446Z" fill="#C9CED6" fill-rule="nonzero" fill-opacity="1" transform="matrix(1.00041 0 0 1 1917 896)"/><path d="M0 116.342 144.612 206.319 86.1613 10.8843 0 116.342Z" fill="#E1E4E8" fill-rule="nonzero" fill-opacity="1" transform="matrix(1.00041 0 0 1 1917 896)"/><path d="M144.613 206.323 84.9282 308.303 184.664 327.936 144.613 206.323Z" fill="#DB4545" fill-rule="nonzero" fill-opacity="1" transform="matrix(1.00041 0 0 1 1917 896)"/><path d="M224.828 449.998 84.9282 308.303 144.613 206.323 224.828 449.998Z" fill="#C9CED6" fill-rule="nonzero" fill-opacity="1" transform="matrix(1.00041 0 0 1 1917 896)"/><path d="M144.613 206.323 84.9282 308.303 184.664 327.936 144.613 206.323Z" fill="#E1E4E8" fill-rule="nonzero" fill-opacity="1" transform="matrix(1.00041 0 0 1 1917 896)"/><path d="M2843.6 95.8603 2794.13 365.104 2839 365.104 2847.2 305.421 2886.57 335.6 2905.41 364.881 2950.3 364.881 2900.7 95.6359 2843.6 95.8603ZM2853.59 265.036 2871.98 149.597 2872.66 149.597 2899.48 304.3 2853.59 265.036Z" fill="#FFFFFF" fill-rule="nonzero" fill-opacity="1" transform="matrix(1.00041 0 0 1 1917 896)"/><path d="M865.551 95.6359 819.331 95.6359 770.979 195.144 770.305 195.144 770.305 95.6359 724.085 95.6359 724.085 364.656 770.305 364.656 770.305 269.298 786.685 239.569 787.357 239.569 825.052 364.656 871.946 364.656 815.516 195.93 865.551 95.6359Z" fill="#FFFFFF" fill-rule="nonzero" fill-opacity="1" transform="matrix(1.00041 0 0 1 1917 896)"/><path d="M1397.98 175.175C1397.98 147.054 1391.58 126.749 1378.8 114.259 1366.01 101.918 1346.37 95.6359 1319.79 95.6359L1255.05 95.6359 1255.05 364.879 1301.16 364.879 1301.16 254.377C1309.14 254.464 1317.12 254.126 1325.06 253.368L1357.82 364.656 1404.71 364.656 1365.56 242.823C1387.25 232.951 1398.05 210.401 1397.98 175.175ZM1344.24 207.596C1340.69 210.913 1336.47 213.422 1331.86 214.952 1327.25 216.482 1322.37 216.996 1317.54 216.46L1301.16 216.46 1301.16 133.667 1317.54 133.667C1322.37 133.13 1327.25 133.645 1331.86 135.174 1336.47 136.704 1340.69 139.213 1344.24 142.529 1350.31 152.269 1352.96 163.76 1351.76 175.175 1352.94 186.519 1350.29 197.929 1344.24 207.596Z" fill="#FFFFFF" fill-rule="nonzero" fill-opacity="1" transform="matrix(1.00041 0 0 1 1917 896)"/><path d="M1608.89 95.6359 1540.35 95.6359 1540.35 364.879 1608.89 364.879C1657.43 364.879 1681.73 337.844 1681.81 283.77L1681.81 177.194C1681.81 122.897 1657.51 95.7108 1608.89 95.6359ZM1635.59 289.379C1636.67 299.763 1634.09 310.196 1628.29 318.884 1624.81 321.961 1620.69 324.278 1616.26 325.687 1611.82 327.097 1607.13 327.569 1602.5 327.074L1586.57 327.074 1586.57 133.667 1602.5 133.667C1607.13 133.171 1611.82 133.643 1616.26 135.053 1620.69 136.462 1624.81 138.779 1628.29 141.856 1634.09 150.543 1636.67 160.978 1635.59 171.362L1635.59 289.379Z" fill="#FFFFFF" fill-rule="nonzero" fill-opacity="1" transform="matrix(1.00041 0 0 1 1917 896)"/><path d="M1878.25 95.6359 1832.03 95.6359 1832.03 364.656 1878.25 364.656 1878.25 95.6359Z" fill="#FFFFFF" fill-rule="nonzero" fill-opacity="1" transform="matrix(1.00041 0 0 1 1917 896)"/><path d="M2059.88 95.6359 2010.41 364.879 2055.28 364.879 2063.46 305.198 2103.51 335.6 2122.36 364.879 2167.23 364.879 2117.54 95.6359 2059.88 95.6359ZM2069.86 264.811 2088.14 149.26 2088.93 149.26 2115.63 304.076 2069.86 264.811Z" fill="#FFFFFF" fill-rule="nonzero" fill-opacity="1" transform="matrix(1.00041 0 0 1 1917 896)"/><path d="M1023.06 95.6359 973.585 364.879 1018.46 364.879 1026.65 305.198 1066.7 335.6 1085.55 364.879 1130.42 364.879 1080.39 95.6359 1023.06 95.6359ZM1033.04 264.811 1051.44 149.26 1052.11 149.26 1078.93 304.076 1033.04 264.811Z" fill="#FFFFFF" fill-rule="nonzero" fill-opacity="1" transform="matrix(1.00041 0 0 1 1917 896)"/><path d="M3364.14 96.0846 3364.14 252.358 3363.12 252.358C3361.9 249.89 3360.44 247.423 3359.43 244.842 3340.8 196.452 3322.11 148.101 3303.34 99.7869 3302.66 97.9918 3300.3 95.6359 3298.74 95.6359 3286.17 95.6359 3273.49 95.6359 3260.7 95.6359L3260.7 364.881 3303.67 364.881 3303.67 210.065C3305.11 210.605 3306.28 211.694 3306.92 213.094 3326.37 262.231 3345.81 311.368 3365.26 360.505 3366.05 362.187 3367.51 364.992 3368.73 364.992 3381.53 364.992 3394.32 364.992 3407 364.992L3407 95.7481 3364.14 96.0846Z" fill="#FFFFFF" fill-rule="nonzero" fill-opacity="1" transform="matrix(1.00041 0 0 1 1917 896)"/><path d="M2633.59 209.84 2581.99 209.84 2581.99 95.8603 2540.93 95.8603 2540.93 365.104 2582.55 365.104 2582.55 245.851 2634.04 245.851 2634.04 364.881 2675.31 364.881 2675.31 95.6359 2633.59 95.6359 2633.59 209.84Z" fill="#FFFFFF" fill-rule="nonzero" fill-opacity="1" transform="matrix(1.00041 0 0 1 1917 896)"/><path d="M2371.4 278.47C2371.4 284.752 2371.4 290.473 2371.4 296.307 2370.76 302.892 2367.51 308.951 2362.42 313.155 2357.31 317.361 2350.74 319.37 2344.15 318.745 2328.22 315.603 2321.71 311.453 2321.71 290.361 2321.04 245.488 2321.71 199.829 2321.71 154.506 2321.47 148.513 2322.55 142.54 2324.86 137.005 2327.32 131.466 2331.53 126.893 2336.85 123.991 2340.8 122.333 2345.09 121.711 2349.34 122.185 2353.58 122.659 2357.65 124.213 2361.12 126.699 2364.59 129.186 2367.37 132.521 2369.2 136.387 2371.02 140.253 2371.82 144.521 2371.52 148.784 2371.52 153.384 2371.52 157.871 2371.52 162.583L2414.83 162.583C2414.83 154.842 2414.83 147.55 2414.83 140.146 2414.47 132.455 2412.58 124.913 2409.24 117.974 2405.91 111.034 2401.2 104.839 2395.41 99.7592 2384.94 90.9525 2372.27 85.1453 2358.77 82.953 2345.26 80.7607 2331.4 82.2651 2318.69 87.3067 2307.49 91.4479 2297.76 98.8169 2290.76 108.482 2283.75 118.147 2279.76 129.674 2279.3 141.604 2279.97 195.453 2279.3 249.189 2279.3 303.038 2279.44 311.188 2281.56 319.18 2285.47 326.332 2289.38 333.484 2294.97 339.58 2301.75 344.099 2317.76 355.251 2337.41 359.865 2356.71 356.999 2372.69 355.87 2387.67 348.784 2398.68 337.143 2405.57 329.297 2410.57 319.952 2413.24 309.846 2415.91 299.739 2416.18 289.151 2414.04 278.918L2371.4 278.47Z" fill="#FFFFFF" fill-rule="nonzero" fill-opacity="1" transform="matrix(1.00041 0 0 1 1917 896)"/><path d="M3078.18 364.879 3118.9 364.879 3118.9 95.6359 3078.18 95.6359 3078.18 364.879Z" fill="#FFFFFF" fill-rule="nonzero" fill-opacity="1" transform="matrix(1.00041 0 0 1 1917 896)"/></g></g></g></g></svg>