<svg width="1010" height="1010" viewBox="0 0 1010 1010" fill="none" xmlns="http://www.w3.org/2000/svg">
<circle cx="505" cy="505" r="439" fill="#ECB743"/>
<path fill-rule="evenodd" clip-rule="evenodd" d="M505 1010C783.902 1010 1010 783.903 1010 505C1010 226.097 783.902 0 505 0C226.098 0 0 226.097 0 505C0 783.903 226.098 1010 505 1010ZM802 789.099C872.619 715.294 916 615.213 916 505C916 404.31 879.792 312.078 819.686 240.612L802 384.1L655.014 508.604L802 637.156V789.099ZM560.74 912.252V745.971L432 637.156V909.537C455.691 913.783 480.087 916 505 916C523.905 916 542.512 914.724 560.74 912.252ZM432 374.99L560.74 265.164V99.1589L562.235 97.9533C543.53 95.3472 524.422 94 505 94C479.903 94 455.332 96.2495 431.476 100.558L432 101V374.99Z" fill="#3B220B"/>
</svg>
