<svg xmlns="http://www.w3.org/2000/svg" viewBox="0 0 32 32"><defs><style>.cls-1{fill:#151d28;}.cls-2{fill:#fff;}</style></defs><g id="Layer_2" data-name="Layer 2"><g id="Layer_1-2" data-name="Layer 1"><rect class="cls-1" width="32" height="32" rx="16"/><path class="cls-2" d="M15.21,12.9c0-.55-.29-.77-.77-1-1.44-.54-2.87-1.14-4.3-1.72l-.37-.13-.07.1c.32.36.58.85,1,1.06,1.47.77,3,1.45,4.6,2.21A5.29,5.29,0,0,1,15.21,12.9Z"/><path class="cls-2" d="M12.66,14.32c.77-.14,1.54-.3,2.3-.46l0-.08-4.2-1.44a21.79,21.79,0,0,0,1.53,1.87A.42.42,0,0,0,12.66,14.32Z"/><path class="cls-2" d="M15.78,11.53a.5.5,0,0,0,.34,0c2.07-.85,4.13-1.72,6.2-2.59,0,0,.07,0,.15-.1-.5-1.21-1-2.43-1.5-3.71a1.77,1.77,0,0,0-.12.28A1.67,1.67,0,0,1,17.56,5a1.12,1.12,0,0,0-.36-.9c-.42-.42-.92-1.17-1.25-1.52-.33.35-.83,1.1-1.26,1.52a1.12,1.12,0,0,0-.36.9,1.67,1.67,0,0,1-3.28.45c0-.08-.07-.15-.12-.28L9.43,8.84a.63.63,0,0,0,.15.1C11.64,9.81,13.71,10.68,15.78,11.53Z"/><path class="cls-2" d="M22.19,10.19l-.06-.1-.38.13c-1.43.58-2.85,1.18-4.3,1.72-.48.19-.79.41-.77,1a3.35,3.35,0,0,1-.06.56c1.6-.76,3.12-1.44,4.59-2.21C21.61,11,21.87,10.55,22.19,10.19Z"/><path class="cls-2" d="M19.23,14.32a.42.42,0,0,0,.34-.11,21.88,21.88,0,0,0,1.54-1.87l-4.2,1.44,0,.08C17.7,14,18.46,14.18,19.23,14.32Z"/><path class="cls-2" d="M27.11,19.34C25.52,16,24,17.94,22.4,14.56l-.21-.4s-.06.06-.06.08c-.14.94-.83,1.38-1.56,1.8-.47.28-.92.59-1.4.9.21.45.39.88.58,1.3l-.08.05-2.74-2.94-.07.05.34.67a1.71,1.71,0,0,1-2.4,0l.34-.67-.07-.05-2.74,2.94-.08-.05c.19-.42.37-.85.58-1.3-.48-.31-.93-.62-1.4-.9-.73-.42-1.42-.86-1.56-1.8,0,0,0,0-.06-.08l-.21.4C8,17.94,6.48,16,4.89,19.34a.55.55,0,0,0,.18.8q5.32,4.53,10.62,9.07l.31.25.31-.25q5.31-4.53,10.62-9.07A.55.55,0,0,0,27.11,19.34Zm-9.86,2.38c-.07.05-.2,0-.31,0a.3.3,0,0,1-.16-.08,1.24,1.24,0,0,0-1.68,0,.42.42,0,0,1-.62-.05c-.27-.25-.56-.47-1-.8a6.31,6.31,0,0,0,.92-.81,1.77,1.77,0,0,1,1.68-.72,1.41,1.41,0,0,1,1.11.49,13.24,13.24,0,0,0,1.16,1C17.92,21.18,17.6,21.46,17.25,21.72Z"/></g></g></svg>