<?xml version="1.0" encoding="UTF-8"?>
<svg width="200px" height="201px" viewBox="0 0 200 201" version="1.1" xmlns="http://www.w3.org/2000/svg" xmlns:xlink="http://www.w3.org/1999/xlink">
    <title>Artboard</title>
    <defs>
        <linearGradient x1="18.7894737%" y1="-67.0316744%" x2="195.830294%" y2="90.1889205%" id="linearGradient-1">
            <stop stop-color="#FF9100" offset="0%"></stop>
            <stop stop-color="#979BBF" offset="47.5635128%"></stop>
            <stop stop-color="#FB008A" offset="100%"></stop>
        </linearGradient>
        <filter x="-81.1%" y="-80.0%" width="262.1%" height="260.1%" filterUnits="objectBoundingBox" id="filter-2">
            <feGaussianBlur stdDeviation="23" in="SourceGraphic"></feGaussianBlur>
        </filter>
    </defs>
    <g id="Artboard" stroke="none" stroke-width="1" fill="none" fill-rule="evenodd">
        <g id="Group">
            <circle id="Oval" fill="#030203" cx="100" cy="100" r="100"></circle>
            <path d="M127,107 C155.718807,107 159.373646,101.403347 159.373646,72.6845401 C159.373646,58.9296312 155.522198,52.305882 144.12404,41.2908286 C131.724041,29.307606 111.691584,20.8010904 96.7276856,20.8010904 C68.0088786,20.8010904 75,26.281193 75,55 C75,83.718807 98.281193,107 127,107 Z" id="Oval" fill="url(#linearGradient-1)" filter="url(#filter-2)"></path>
            <text id="y" fill-rule="nonzero" font-family="Helvetica-Bold, Helvetica" font-size="120" font-weight="bold" fill="#FFFFFF">
                <tspan x="68" y="151">y</tspan>
            </text>
            <g id="kite" transform="translate(108.551398, 62.477085) rotate(-31.000000) translate(-108.551398, -62.477085) translate(70.477176, 15.757371)" fill="#FFFFFF">
                <g id="Group-2" transform="translate(38.074222, 46.719713) rotate(14.000000) translate(-38.074222, -46.719713) translate(9.034295, 5.810207)">
                    <path d="M26.9150537,28.5614526 L9.78679572,76.3644122 C11.9037796,52.8397839 3.30613679,24.7564572 1.8887757,20.3307851 C10.0873328,24.1765029 18.8320739,26.7888422 26.9150537,28.5614526" id="Fill-287"></path>
                    <path d="M27.1835364,28.26475 C19.4750669,26.5441976 11.1418828,24.0215323 3.30535748,20.321905 C20.5463853,19.9786738 32.6289186,7.29670111 35.8867383,3.47110965 L27.1835364,28.26475" id="Fill-288"></path>
                    <path d="M27.9898517,28.7606228 C40.1705335,31.3657562 50.6955591,32.0426793 55.2466893,32.2182778 C38.0077442,42.7020674 15.6756291,70.684648 10.8604603,76.860285 L27.9898517,28.7606228" id="Fill-289"></path>
                    <path d="M28.3316355,27.8486889 L37.1805987,2.97523684 C39.1702123,22.3248895 50.9790183,29.4362628 54.7744953,31.2399868 C50.0422144,31.0379994 39.9513291,30.328683 28.3316355,27.8486889" id="Fill-290"></path>
                    <path d="M57.6420564,32.2299232 C57.8873656,32.2093635 58.0798528,32.0200498 58.0798528,31.7889589 C58.0798528,31.5445452 57.8640881,31.3463497 57.5978291,31.3460208 C57.2830455,31.3463497 25.8111244,31.2121361 0.70918578,18.8960566 C0.474261903,18.779771 0.182218576,18.8618453 0.0570571504,19.0774754 C-0.0684623909,19.2932699 0.0199921789,19.5615328 0.254916056,19.6765026 C25.5747681,32.0998214 57.2807177,32.2317324 57.5981872,32.2317324 L57.6420564,32.2299232" id="Fill-291" fill-opacity="0"></path>
                    <path d="M9.01802699,81.8173639 C9.20047814,81.8012638 9.36471953,81.6851736 9.42712773,81.5077336 L37.7507241,0.601712258 C37.8343475,0.362752973 37.6994539,0.104134625 37.4507051,0.0241425808 C37.2012491,-0.0568663117 36.9316386,0.0727818113 36.8480152,0.311402147 L8.52441884,81.2172541 C8.4406186,81.4562133 8.57498185,81.7151706 8.82426104,81.7948237 C8.88861396,81.8160081 8.95438124,81.8224481 9.01802699,81.8173639" id="Fill-292" fill-opacity="0"></path>
                </g>
            </g>
        </g>
    </g>
</svg>