<svg version="1.2" baseProfile="tiny-ps" xmlns="http://www.w3.org/2000/svg" viewBox="0 0 91 91" width="91" height="91">
	<title>LAND-svg</title>
	<style>
		tspan { white-space:pre }
		.shp0 { fill: #ffffff } 
		.shp1 { fill: #24bc48 } 
		.shp2 { fill: #239942 } 
		.shp3 { fill: #0b6c96 } 
		.shp4 { fill: #131414 } 
		.shp5 { fill: #e07103 } 
	</style>
	<path id="Layer 1" class="shp0" d="M45.5 91C20.34 91 0 70.66 0 45.5C0 20.34 20.34 0 45.5 0C70.66 0 91 20.34 91 45.5C91 70.66 70.66 91 45.5 91Z" />
	<path id="Layer" class="shp1" d="M24.13 43.76C23.31 45.09 21.92 45.86 19.99 46.04L19.99 47.2L18.43 47.37L18.43 46.07C16.33 45.96 14.85 45.15 14.04 43.67C11.21 38.51 18.23 26.71 18.53 26.21L19.24 25.04L19.89 26.24C22.9 31.83 26.61 39.73 24.13 43.76Z" />
	<path id="Layer" class="shp2" d="M33.67 45.96C33.17 46.77 32.35 47.25 31.21 47.38L31.21 49.76L30.28 49.86L30.28 48.56C30.17 48.56 30.06 48.55 29.96 48.54L29.96 47.4C28.72 47.31 27.84 46.8 27.34 45.9C25.63 42.78 29.59 36.03 30.04 35.27L30.61 34.33L31.12 35.3C32.94 38.68 35.19 43.47 33.67 45.96Z" />
	<path id="Layer" class="shp3" d="M79.22 51.2C79.19 51.47 79.15 51.74 79.11 52.01C78.96 53.01 78.76 53.99 78.52 54.96C78.45 55.25 78.37 55.54 78.29 55.82C78.22 56.07 78.15 56.31 78.07 56.56C77.7 57.8 77.26 59.02 76.75 60.21L75.06 60.17L71.46 60.11L67.4 60.03L54.09 59.78L50.03 59.7L47.26 59.65L42.53 56.64L41.12 55.74L40.41 55.28L36.84 52.92L37.31 52.32L42.9 45.31L46.02 40.95L51 36.59L54.12 35.34L55.37 35.96L59.11 40.33L60.98 43.44L62.22 45.31L64.09 42.82L66.59 40.32L68.46 39.7L70.33 40.32L72.82 44.06L75.93 47.18L77.84 49.51L79.22 51.2Z" />
	<path id="Layer" class="shp2" d="M44.39 55.36L33.01 77.07L32.28 78.46C31.65 78.2 31.04 77.93 30.44 77.64C30.1 77.48 29.75 77.3 29.41 77.12C29.26 77.04 29.11 76.97 28.97 76.89C19.95 72.01 13.35 63.2 11.49 52.78L11.25 51.23C11.72 51.11 12.23 50.99 12.77 50.87C14.64 50.46 16.53 50.15 18.43 49.94L18.43 48.81L19.99 48.78L19.99 49.8C23.07 49.56 26.49 49.59 29.96 50.18L29.96 48.57L31.2 48.54L31.2 50.41C33.1 50.8 34.96 51.36 36.75 52.09C37.09 51.57 37.59 50.79 38.24 49.84L39.41 50.89C38.96 51.56 38.55 52.19 38.19 52.73C39.56 53.38 40.87 54.15 42.1 55.02C42.46 54.77 42.82 54.52 43.19 54.28L44.39 55.36Z" />
	<path id="Layer" class="shp1" d="M78.29 55.82C78.22 56.07 78.15 56.31 78.07 56.56C77.43 58.73 76.56 60.84 75.48 62.84C75.34 63.1 75.2 63.37 75.05 63.63C74.94 63.83 74.82 64.02 74.7 64.21C73.58 66.1 72.28 67.88 70.81 69.52C70.47 69.9 70.11 70.28 69.75 70.65C63.8 76.75 55.59 80.65 46.49 80.97C46.07 80.99 45.65 81 45.24 81C45.14 81 45.03 81 44.93 80.99C42.73 80.98 40.54 80.75 38.39 80.31C38.06 80.25 37.74 80.18 37.42 80.1C37.23 80.06 37.03 80.01 36.84 79.96C34.64 79.4 32.49 78.63 30.44 77.64C30.1 77.48 29.75 77.3 29.41 77.12L29.7 75.51L30.43 71.49L33.55 65.88L35.42 62.77L40.4 57.16L41.52 56.52L42.99 55.68L44.77 54.67L48.51 52.17L54.12 50.93L58.48 50.3L66.59 50.93L72.82 52.8L76.56 54.67L76.92 54.91L78.29 55.82Z" />
	<path id="Layer" class="shp2" d="M75.05 63.63C74.94 63.83 74.82 64.02 74.7 64.21C73.58 66.1 72.28 67.88 70.81 69.52C70.47 69.9 70.11 70.28 69.75 70.65C63.8 76.75 55.59 80.65 46.49 80.97C46.07 80.99 45.65 81 45.24 81C45.14 81 45.03 81 44.93 80.99C42.73 80.98 40.54 80.75 38.39 80.31C38.06 80.25 37.74 80.18 37.42 80.1L37.91 78.97L37.99 78.63L39.16 73.36L41.65 67.13L46.64 62.77L49.75 60.9L54.74 59.03L60.35 57.78L64.72 58.4L69.7 59.65L72.82 62.14L73.75 62.76L75.05 63.63Z" />
	<path id="Layer" class="shp1" d="M46.02 80.22L46.64 75.86L49.76 70.87L54.74 67.13L60.98 65.88L65.96 67.75L68.46 69L69.7 69.62L65.96 73.36L59.73 77.1L52.87 79.6L47.89 80.22L46.02 80.22Z" />
	<path id="Layer" class="shp4" d="M67.61 20.77C67.6 20.76 67.6 20.75 67.6 20.75C67.14 20.36 66.66 19.97 66.18 19.59L66.18 19.59C66.13 19.55 66.08 19.51 66.03 19.47C65.96 19.42 65.89 19.37 65.83 19.32C65.68 19.24 65.52 19.17 65.36 19.1C64.77 18.86 64.15 18.71 63.51 18.68C63.4 18.67 63.28 18.66 63.16 18.66C62.84 18.66 62.52 18.69 62.21 18.74C63.18 19.33 64.12 19.98 65.03 20.66C65.58 20.94 66.06 21.33 66.45 21.81C66.63 21.97 66.8 22.12 66.98 22.28C67.65 22.87 68.29 23.49 68.92 24.14C74.52 30.02 77.96 37.97 77.96 46.71C77.96 47.27 77.95 47.84 77.92 48.4L77.92 48.4C77.9 48.78 77.87 49.14 77.84 49.51C77.81 49.85 77.78 50.19 77.74 50.52C77.6 51.7 77.4 52.88 77.13 54.04C77.07 54.33 77 54.62 76.92 54.91C76.86 55.15 76.79 55.39 76.72 55.63C76.29 57.19 75.73 58.7 75.06 60.17C74.81 60.75 74.53 61.31 74.24 61.86C74.08 62.16 73.92 62.47 73.75 62.76C73.66 62.92 73.57 63.07 73.48 63.23C72.38 65.12 71.08 66.89 69.62 68.52C69.28 68.91 68.92 69.29 68.55 69.66C62.9 75.4 55.15 79.08 46.55 79.41C46.12 79.43 45.68 79.44 45.24 79.44C45.16 79.44 45.08 79.44 44.99 79.43C42.8 79.42 40.62 79.19 38.48 78.74C38.32 78.71 38.15 78.67 37.99 78.63C37.64 78.55 37.3 78.47 36.95 78.38C35.61 78.02 34.29 77.59 33.01 77.07C32.22 76.75 31.43 76.39 30.67 76.01C30.35 75.85 30.02 75.68 29.7 75.51C29.54 75.42 29.37 75.33 29.21 75.24C20.83 70.52 14.73 62.21 13.01 52.41C12.92 51.9 12.84 51.39 12.77 50.87C12.23 50.99 11.72 51.11 11.25 51.23L11.49 52.78C13.35 63.2 19.95 72.01 28.97 76.89C29.11 76.97 29.26 77.04 29.41 77.12C29.75 77.3 30.1 77.48 30.45 77.64C31.04 77.93 31.65 78.2 32.28 78.46C33.76 79.07 35.29 79.57 36.84 79.96C37.03 80.01 37.23 80.06 37.42 80.1C37.74 80.18 38.06 80.25 38.39 80.32C40.54 80.75 42.73 80.98 44.93 80.99C45.03 81 45.14 81 45.24 81C45.65 81 46.07 80.99 46.49 80.97C55.59 80.65 63.8 76.75 69.75 70.65C70.11 70.28 70.47 69.9 70.81 69.52C72.28 67.88 73.58 66.1 74.7 64.21C74.82 64.02 74.94 63.83 75.05 63.63C75.2 63.36 75.35 63.1 75.48 62.83C75.94 61.98 76.37 61.1 76.75 60.2C77.26 59.02 77.7 57.8 78.07 56.56C78.15 56.31 78.22 56.07 78.28 55.82C78.37 55.54 78.45 55.25 78.52 54.96C78.76 53.99 78.96 53.01 79.11 52.01C79.15 51.74 79.19 51.47 79.22 51.2C79.28 50.8 79.33 50.39 79.36 49.98C79.47 48.9 79.52 47.82 79.52 46.72C79.52 36.36 74.9 27.05 67.61 20.77Z" />
	<path id="Layer" fill-rule="evenodd" class="shp4" d="M67.05 23.19C67.05 24.29 66.74 25.36 66.15 26.29C65.56 27.22 64.71 27.96 63.71 28.42C62.72 28.88 61.61 29.05 60.52 28.9C59.43 28.75 58.4 28.3 57.56 27.59C56.72 26.88 56.11 25.94 55.78 24.89C55.46 23.84 55.44 22.72 55.73 21.66C56.02 20.6 56.61 19.64 57.43 18.91C58.25 18.17 59.26 17.68 60.34 17.5C60.65 17.45 60.97 17.42 61.29 17.42C62.22 17.42 63.13 17.64 63.96 18.07C63.97 18.09 64 18.09 64.01 18.11C64.02 18.11 64.02 18.11 64.02 18.12C64.52 18.38 64.97 18.71 65.36 19.1C65.49 19.23 65.61 19.36 65.73 19.5C65.73 19.51 65.73 19.51 65.74 19.52C65.78 19.56 65.81 19.61 65.84 19.66C66.44 20.42 66.83 21.32 66.98 22.28C67.01 22.49 67.04 22.69 67.05 22.9C67.05 23 67.05 23.09 67.05 23.19ZM63.53 26.75C64.2 26.33 64.73 25.73 65.08 25.01C65.42 24.3 65.56 23.51 65.47 22.72C65.38 21.93 65.07 21.19 64.58 20.57C64.19 20.09 63.71 19.69 63.16 19.42C62.58 19.13 61.94 18.97 61.29 18.98C60.17 18.98 59.1 19.42 58.31 20.21C57.52 21 57.08 22.07 57.08 23.19C57.08 24.3 57.52 25.37 58.31 26.16C59.1 26.95 60.17 27.39 61.29 27.39C62.08 27.39 62.86 27.17 63.53 26.75Z" />
	<path id="Layer" class="shp4" d="M43.41 56C42.97 56.31 42.53 56.63 42.1 56.96C41.67 56.62 41.23 56.31 40.79 56C34.16 51.53 26.34 50.84 19.99 51.35C19.46 51.39 18.94 51.44 18.43 51.5C16.61 51.7 14.8 52.01 13.01 52.41C12.47 52.53 11.96 52.66 11.49 52.77L11.25 51.23C11.72 51.11 12.23 50.99 12.77 50.87C14.64 50.46 16.53 50.15 18.43 49.94C18.94 49.88 19.46 49.83 19.99 49.79C23.07 49.56 26.49 49.59 29.96 50.17C30.18 50.21 30.41 50.25 30.63 50.3L31.2 50.41C33.1 50.79 34.96 51.35 36.75 52.09C37.23 52.29 37.72 52.5 38.19 52.73C39.56 53.38 40.87 54.15 42.1 55.02C42.54 55.33 42.98 55.66 43.41 56Z" />
	<path id="Layer" class="shp4" d="M79.37 49.98C79.33 50.39 79.28 50.8 79.22 51.2C79.19 51.47 79.15 51.74 79.11 52.01C78.74 51.6 78.27 51.1 77.74 50.52C75.14 47.69 71.07 43.21 69.4 41.12C68.99 40.6 68.61 40.34 68.27 40.34C67.88 40.34 67.43 40.66 66.96 41.13C66.49 41.6 65.99 42.23 65.5 42.84C64.93 43.55 64.35 44.29 63.71 44.93C63.47 45.16 62.75 45.89 61.84 45.75C60.78 45.59 60.19 44.49 59.31 42.82C58.43 41.18 57.23 38.93 55.13 36.82C54.72 36.42 54.24 36.25 53.62 36.32C49.76 36.77 43.11 45.45 39.42 50.89C38.96 51.56 38.55 52.18 38.19 52.73C38.03 52.99 37.87 53.24 37.73 53.47L36.84 52.92L36.41 52.64C36.48 52.52 36.6 52.33 36.75 52.09C37.09 51.57 37.6 50.79 38.24 49.84C41.61 44.87 48.65 35.32 53.45 34.78C54.53 34.66 55.49 34.99 56.23 35.73C58.5 38 59.76 40.37 60.68 42.1C61.15 42.97 61.78 44.16 62.07 44.21C62.07 44.21 62.23 44.21 62.61 43.83C63.18 43.25 63.74 42.55 64.27 41.88C65.54 40.29 66.74 38.78 68.26 38.78L68.27 38.78C69.1 38.78 69.9 39.24 70.63 40.15C72.05 41.94 75.38 45.62 77.92 48.4L77.92 48.41C78.44 48.98 78.93 49.51 79.37 49.98Z" />
	<path id="Layer" class="shp4" d="M43.25 52.27L41.92 51.45C42.13 51.11 47.05 43.16 50.29 41.22L51.09 42.55C48.67 44.01 44.61 50.06 43.25 52.27Z" />
	<path id="Layer" class="shp4" d="M48.09 21.79L48.08 23.35L54.31 23.37L54.32 21.82L48.09 21.79Z" />
	<path id="Layer" class="shp4" d="M54.75 25.21L48.82 27.13L49.3 28.61L55.23 26.69L54.75 25.21Z" />
	<path id="Layer" class="shp4" d="M49.59 16.01L48.83 17.37L54.29 20.39L55.04 19.03L49.59 16.01Z" />
	<path id="Layer" class="shp4" d="M53.69 12.17L52.48 13.15L56.41 17.99L57.62 17.01L53.69 12.17Z" />
	<path id="Layer" class="shp4" d="M59.76 10.02L58.22 10.23L59.07 16.41L60.62 16.19L59.76 10.02Z" />
	<path id="Layer" class="shp4" d="M63.8 10L62.26 16.04L63.77 16.43L65.31 10.39L63.8 10Z" />
	<path id="Layer" class="shp4" d="M68.73 12.11L65.06 17.14L66.32 18.06L69.99 13.02L68.73 12.11Z" />
	<path id="Layer" class="shp4" d="M74.24 61.86C73.36 61.21 72.43 60.62 71.46 60.11C68.18 58.34 64.52 57.39 60.79 57.32C57.07 57.25 53.38 58.06 50.03 59.7C42.92 63.18 37.81 70.16 36.95 78.38C36.9 78.9 36.86 79.43 36.84 79.96C37.03 80.01 37.23 80.06 37.42 80.1C37.74 80.18 38.06 80.25 38.39 80.31C38.4 79.78 38.43 79.26 38.48 78.74C39.34 69.72 45.66 62.29 54.09 59.78C57.37 58.8 60.83 58.61 64.2 59.21C67.56 59.8 70.74 61.18 73.48 63.23C73.9 63.54 74.31 63.87 74.7 64.21C74.82 64.02 74.94 63.83 75.05 63.63C75.2 63.37 75.35 63.1 75.48 62.84C75.08 62.49 74.66 62.17 74.24 61.86Z" />
	<path id="Layer" class="shp4" d="M69.62 68.52C66.95 66.5 63.7 65.41 60.35 65.42C52.32 65.42 45.7 71.59 44.99 79.44C44.95 79.9 44.92 80.37 44.93 80.84C44.92 80.89 44.93 80.94 44.93 80.99C45.03 81 45.14 81 45.24 81C45.65 81 46.07 80.99 46.49 80.97C46.48 80.93 46.48 80.89 46.48 80.84C46.48 80.36 46.51 79.88 46.55 79.41C47.27 72.44 53.19 66.98 60.35 66.98C63.3 66.97 66.18 67.91 68.55 69.66C68.97 69.97 69.37 70.3 69.75 70.65C70.11 70.29 70.47 69.91 70.81 69.52C70.43 69.17 70.04 68.83 69.62 68.52Z" />
	<path id="Layer" class="shp4" d="M77.13 54.04C72.04 50.84 66.14 49.17 60.12 49.21C54.11 49.25 48.23 51.01 43.19 54.28C42.82 54.52 42.46 54.77 42.1 55.02C41.77 55.26 41.44 55.5 41.12 55.74L40.79 56C34.83 60.7 30.61 67.49 29.21 75.24C29.12 75.78 29.04 76.33 28.97 76.89C29.11 76.97 29.26 77.04 29.41 77.12C29.75 77.3 30.1 77.48 30.44 77.64C30.5 77.1 30.58 76.55 30.67 76.01C31.92 68.28 36.13 61.53 42.1 56.96C42.24 56.85 42.38 56.75 42.53 56.64C42.82 56.42 43.11 56.21 43.41 56C43.73 55.79 44.06 55.57 44.39 55.36C49.24 52.32 54.87 50.72 60.59 50.77C66.32 50.82 71.92 52.5 76.72 55.63C77.18 55.92 77.63 56.23 78.07 56.56C78.15 56.31 78.22 56.07 78.29 55.82C78.37 55.54 78.45 55.25 78.52 54.96C78.06 54.64 77.61 54.33 77.13 54.04Z" />
	<path id="Layer" class="shp4" d="M19.99 40.33L19.99 51.35C19.46 51.39 18.94 51.44 18.43 51.5L18.43 40.33L19.99 40.33Z" />
	<path id="Layer" fill-rule="evenodd" class="shp4" d="M24.13 43.76C23.31 45.09 21.92 45.86 19.99 46.04C19.67 46.07 19.34 46.09 19.01 46.09C18.91 46.09 18.81 46.09 18.7 46.08C18.61 46.08 18.52 46.07 18.43 46.07C16.33 45.96 14.85 45.15 14.04 43.67C11.21 38.51 18.23 26.71 18.53 26.21L19.24 25.04L19.89 26.24C22.9 31.83 26.61 39.73 24.13 43.76ZM19.17 28.22C17.05 32.09 13.63 39.67 15.41 42.92C15.94 43.89 16.93 44.41 18.43 44.51C18.53 44.52 18.63 44.52 18.74 44.52C19.16 44.53 19.57 44.52 19.99 44.47C21.35 44.32 22.27 43.81 22.8 42.94C24.24 40.6 23.02 35.65 19.17 28.22Z" />
	<path id="Layer" class="shp4" d="M31.21 43.82L29.96 43.82L29.96 50.92L31.21 50.92L31.21 43.82Z" />
	<path id="Layer" fill-rule="evenodd" class="shp4" d="M33.67 45.96C33.17 46.77 32.35 47.25 31.21 47.38C30.96 47.41 30.71 47.43 30.46 47.43L30.27 47.43C30.17 47.43 30.06 47.42 29.96 47.4C28.72 47.31 27.84 46.8 27.34 45.9C25.63 42.78 29.59 36.03 30.04 35.27L30.61 34.33L31.12 35.3C32.94 38.68 35.19 43.47 33.67 45.96ZM30.56 36.89C29.29 39.25 27.43 43.48 28.44 45.3C28.71 45.79 29.21 46.08 29.96 46.16C30.06 46.17 30.18 46.17 30.3 46.18C30.6 46.19 30.91 46.18 31.21 46.13C31.87 46.02 32.33 45.74 32.6 45.31C33.42 43.97 32.73 41.15 30.56 36.89Z" />
	<path id="Layer" class="shp4" d="M66.18 19.6C66.18 19.6 64.63 18.36 64.05 18.12C63.47 17.89 63.47 19.13 63.47 19.13L65.34 19.76L66.18 19.6Z" />
	<path id="Layer" class="shp5" d="M61.29 27.86C63.87 27.86 65.96 25.77 65.96 23.19C65.96 20.6 63.87 18.51 61.29 18.51C58.71 18.51 56.61 20.6 56.61 23.19C56.61 25.77 58.71 27.86 61.29 27.86Z" />
</svg>