<svg id="Layer_1" data-name="Layer 1" xmlns="http://www.w3.org/2000/svg" viewBox="0 0 1024 1024"><defs><style>.cls-1{fill:#fbbf24;}</style></defs><path class="cls-1" d="M517.71,1024c-101.55,1-193.63-27.75-278.05-82.28-51.77-33.44-56.41-72-13.43-116.44,35.67-36.87,71.61-73.52,108.61-109,13.85-13.29,14.67-21.72.62-35.6-89.78-88.71-178.74-178.25-268.08-267.4C30.16,376.1,25.62,358.12,47.44,310.57c79.61-173.5,214.42-277.07,402.63-305C567-11.86,678.81,11.92,780.22,74.93,826,103.38,829.84,143.86,792,182.78c-41.87,43.08-84.09,85.86-127.18,127.72-13.72,13.33-14.6,21.56-.37,35.62C763.8,444.37,862.32,543.46,961.09,642.3c32.49,32.51,36.63,51.64,15.8,92C880.56,920.94,725.75,1015.07,517.71,1024Zm-.94-25.89c24.2-1.84,48.72-1.82,72.56-5.82C752.9,964.79,873,876.76,950.51,730.32c19.64-37.11,18.38-44.29-11.37-74.06l-305-305.19c-20.92-20.94-20.91-24,.51-45.58q68.49-69,137-138c28.52-28.85,25.77-52.24-8.45-74-6.26-4-12.9-7.34-19.46-10.81-94.56-50-195.87-67.83-300.39-50.25C267.41,62.06,142,160.72,69.11,324.32c-14.78,33.15-12.27,42.3,13.51,68.14Q225,535.13,367.44,677.67c19.29,19.34,19.13,21.69.25,40.67q-62.13,62.46-124.23,125c-29.56,29.92-27.59,51.74,7,76a303.22,303.22,0,0,0,32.94,19.81C356.42,977.41,433.53,999.4,516.77,998.09Z"/><path class="cls-1" d="M491.6,653.89c2.71,13.54,4.38,27.42,8.35,40.62,9.28,30.88,20.19,61.28,29.18,92.25,2,7,1.91,18.8-2.38,22.69-19.36,17.52-22.49,38.09-19.3,62.47,1.19,9.1,4.55,23-7.13,28.7-13.65,4.19-23.76-5.72-28.51-13.14-31.09-48.6-49.7-101.93-44.85-160.3C430.23,687.93,455.35,661.35,491.6,653.89Z"/><path class="cls-1" d="M721.48,862.11c.17-18.92-1.16-36.67-18.45-51.75-4-3.46-5.21-13.46-3.6-19.31C711,749,723.84,707.27,735.74,665.3c3-10.45,7.49-12.95,17.42-8.33,28.78,13.39,45.66,36.26,48.85,67,6,57.84-13.09,110.12-40.34,159.9a35.54,35.54,0,0,1-11,11.53c-6.09,4.09-11.16,7.46-21.88,4.17-4.62-1.43-9.87-7.85-8.48-18.36C721,876.15,720.84,870.57,721.48,862.11Z"/><path class="cls-1" d="M728.13,547.8c-10.66-62.6-40.51-113.8-95.15-149-12.44-8-22.5-8.26-35.14-.13C547.2,431.24,517.57,478.16,505,535.78c-18.89,86.57-1.23,168.47,33,248.6,15.26,35.71,31.93,63.54,77.33,49.66,6.75,0,13.67-1,20.22.17,23.92,4.2,36.62-7,47-27.82C723.28,724.48,743.69,639.16,728.13,547.8ZM622.67,618.92c-2.39,1.37-4.71,2.18-6.91,1.93a9,9,0,0,1-1.76-.42,20.81,20.81,0,0,1-19.93-19.79,20.5,20.5,0,0,1,20.11-21.71,20.72,20.72,0,0,1,8.49,40ZM615,535.58a36.78,36.78,0,0,1-36.92-35.07,36.17,36.17,0,0,1,35.48-38.3,36.83,36.83,0,0,1,38.19,35.87C652.21,518.28,635.5,535.33,615,535.58Z"/><path class="cls-1" d="M598.08,846.06h37.14s1.35,27.35-5.06,38.15-12.8,13.17-12.8,13.17-7.46-2.36-14.89-15.53S598.08,846.06,598.08,846.06Z"/></svg>