<svg width="614" height="624" xmlns="http://www.w3.org/2000/svg" xmlns:xlink="http://www.w3.org/1999/xlink" overflow="hidden"><defs><clipPath id="clip0"><rect x="330" y="44" width="614" height="624"/></clipPath><clipPath id="clip1"><rect x="331" y="45" width="612" height="623"/></clipPath><clipPath id="clip2"><rect x="331" y="45" width="612" height="623"/></clipPath><linearGradient x1="665.645" y1="580.257" x2="119.535" y2="169.904" gradientUnits="userSpaceOnUse" spreadMethod="pad" id="fill3"><stop offset="0" stop-color="#325FAC" stop-opacity="1"/><stop offset="0.9948" stop-color="#214080" stop-opacity="1"/><stop offset="1" stop-color="#214080" stop-opacity="1"/></linearGradient></defs><g clip-path="url(#clip0)" transform="translate(-330 -44)"><g clip-path="url(#clip1)"><g clip-path="url(#clip2)"><path d="M668.629 355.087C668.629 524.366 533.131 661.594 365.986 661.594 198.841 661.594 63.3425 524.366 63.3425 355.087 63.3425 185.807 198.841 48.5791 365.986 48.5791 533.131 48.5791 668.629 185.807 668.629 355.087Z" fill="url(#fill3)" fill-rule="nonzero" transform="matrix(1.00099 0 0 1 270.983 -0.167986)"/><path d="M544.273 279.511C534.555 256.463 520.663 235.76 502.976 217.973L503.03 217.919 556.924 171.215 440.628 233.67C440.628 233.67 440.621 233.67 440.621 233.67 440.621 233.67 440.621 233.67 440.621 233.67L258.715 331.353 335.194 373.437 263.336 449.915 262.534 450.741C238.244 425.348 223.295 390.97 223.295 353.166 223.295 275.199 286.846 211.764 364.952 211.764 379.808 211.764 394.132 214.062 407.592 218.313 407.592 218.313 407.592 218.313 407.592 218.313L465.065 188.307C457.459 183.757 449.53 179.715 441.3 176.221 417.434 166.093 392.088 160.956 365.978 160.956 339.86 160.956 314.522 166.093 290.657 176.221 267.609 186.001 246.922 199.993 229.158 217.819 211.394 235.645 197.44 256.401 187.698 279.526 177.601 303.476 172.487 328.9 172.487 355.102 172.487 381.305 177.609 406.728 187.698 430.678 196.777 452.206 209.496 471.683 225.548 488.652L178.133 533.074 461.455 372.936 394.217 328.792 466.584 254.882 466.638 254.828C491.367 280.298 506.617 314.985 506.617 353.174 506.617 431.141 443.066 494.576 364.96 494.576 348.854 494.576 333.374 491.876 318.934 486.909L318.926 486.909 260.968 518.195C270.355 524.288 280.259 529.564 290.657 533.976 314.522 544.104 339.868 549.241 365.978 549.241 392.088 549.241 417.434 544.104 441.3 533.976 464.347 524.196 485.035 510.203 502.799 492.378 520.562 474.552 534.516 453.795 544.258 430.67 554.355 406.72 559.469 381.297 559.469 355.094 559.484 328.884 554.363 303.461 544.273 279.511Z" fill="#FFFFFF" fill-rule="nonzero" fill-opacity="1" transform="matrix(1.00099 0 0 1 270.983 -0.167986)"/></g></g></g></svg>