<svg width="280" height="280" viewBox="0 0 280 280" fill="none" xmlns="http://www.w3.org/2000/svg">
<path d="M139.9 279.8C217.165 279.8 279.8 217.165 279.8 139.9C279.8 62.6354 217.165 0 139.9 0C62.6354 0 0 62.6354 0 139.9C0 217.165 62.6354 279.8 139.9 279.8Z" fill="url(#paint0_linear)"/>
<path d="M194.9 80.6701L185.42 160.32L130.18 87.9701C129.806 87.4642 129.376 87.0014 128.9 86.5901L130.51 73.0201C130.642 71.8904 131.185 70.8488 132.035 70.0929C132.885 69.3371 133.983 68.9197 135.12 68.9201C135.306 68.9054 135.494 68.9054 135.68 68.9201L190.83 75.4801C191.439 75.5519 192.027 75.7433 192.562 76.0434C193.096 76.3435 193.566 76.7463 193.944 77.2286C194.323 77.7109 194.602 78.2633 194.766 78.8539C194.93 79.4445 194.975 80.0617 194.9 80.6701Z" fill="#FFF3F4"/>
<path d="M182.12 173.65L175.52 178.7L172.94 180.7L170.34 182.7L168.39 184.19L165.99 186.02C165.898 186.096 165.801 186.167 165.7 186.23C164.42 187.23 163.2 188.12 162.03 189.04C161.94 189.1 161.85 189.18 161.76 189.25C152.63 196.4 146.76 202.25 143.26 207.16C141.834 209.074 140.648 211.157 139.73 213.36C135.58 223.69 143.31 228.36 145.91 232.25C150.16 238.56 149.09 249.12 141.16 250.7C132.06 252.53 126.16 243.5 132.48 228.91C134.482 224.256 134.707 219.029 133.11 214.22C132.739 212.954 132.291 211.712 131.77 210.5C131.45 209.76 131.11 209.02 130.77 208.27C130.43 207.52 130.05 206.88 129.66 206.18C128.75 204.54 127.74 202.89 126.66 201.26C126.24 200.61 125.8 199.98 125.36 199.33C122.93 195.76 120.3 192.21 117.87 188.71C117.87 188.71 117.87 188.63 117.8 188.6L73.84 130.98C73.0936 130.001 72.766 128.766 72.9291 127.545C73.0922 126.325 73.7327 125.219 74.71 124.47L118.9 90.77C119.713 90.1369 120.71 89.7858 121.74 89.77C122.451 89.7807 123.151 89.9507 123.788 90.2674C124.425 90.5841 124.982 91.0394 125.42 91.6L125.97 92.31L127.9 94.9L183.01 167.1C183.383 167.588 183.657 168.145 183.814 168.738C183.972 169.332 184.01 169.951 183.927 170.56C183.845 171.169 183.642 171.755 183.332 172.286C183.022 172.816 182.61 173.28 182.12 173.65Z" fill="#FFF3F4"/>
<path d="M162.03 188.98C163.2 188.06 164.42 187.13 165.7 186.17L162.03 188.98Z" fill="#FFF3F4"/>
<path d="M165.99 185.96L168.39 184.13C168.213 184.308 168.022 184.472 167.82 184.62L165.99 185.96Z" fill="#FFF3F4"/>
<path d="M165.99 185.96L167.82 184.62C168.022 184.472 168.213 184.308 168.39 184.13L165.99 185.96Z" fill="#FFF3F4"/>
<path d="M168.39 184.13C168.213 184.308 168.022 184.472 167.82 184.62L165.99 185.96L168.39 184.13Z" fill="#FFF3F4"/>
<defs>
<linearGradient id="paint0_linear" x1="0" y1="139.9" x2="279.8" y2="139.9" gradientUnits="userSpaceOnUse">
<stop stop-color="#D22A82"/>
<stop offset="1" stop-color="#EB4947"/>
</linearGradient>
</defs>
</svg>
