<svg width="880" height="880" xmlns="http://www.w3.org/2000/svg" xmlns:xlink="http://www.w3.org/1999/xlink" overflow="hidden"><defs><clipPath id="clip0"><rect x="1760" y="-1320" width="880" height="880"/></clipPath><clipPath id="clip1"><rect x="1892" y="-1242" width="616" height="724"/></clipPath><clipPath id="clip2"><rect x="1892" y="-1242" width="616" height="724"/></clipPath><clipPath id="clip3"><rect x="1892" y="-1242" width="616" height="724"/></clipPath></defs><g clip-path="url(#clip0)" transform="translate(-1760 1320)"><path d="M1763-880C1763-1121.35 1958.65-1317 2200-1317 2441.35-1317 2637-1121.35 2637-880 2637-638.652 2441.35-443 2200-443 1958.65-443 1763-638.652 1763-880Z" fill="#FFFFFF" fill-rule="evenodd" fill-opacity="1"/><g clip-path="url(#clip1)"><g clip-path="url(#clip2)"><g clip-path="url(#clip3)"><path d="M308 0 242.815 37.4815 65.1852 140.148 0 177.63 0 532.889 65.1852 570.37 244.444 673.037 309.63 710.519 374.815 673.037 550.815 570.37 616 532.889 616 177.63 550.815 140.148 373.185 37.4815ZM130.37 457.926 130.37 252.593 308 149.926 485.63 252.593 485.63 457.926 308 560.593Z" fill="#2A5ADA" fill-rule="nonzero" fill-opacity="1" transform="matrix(1 0 0 1.01505 1892 -1240.61)"/></g></g></g></g></svg>