<svg width="1500" height="1500" viewBox="0 0 1500 1500" fill="none" xmlns="http://www.w3.org/2000/svg">
<path d="M843.692 1494C644.973 1519.04 448.391 1465.15 290.164 1342.34C131.937 1219.49 31.0322 1042.41 5.99672 843.692C-19.0387 644.973 34.8486 448.392 157.66 290.164C280.509 131.937 457.589 31.0322 656.308 5.99672C855.027 -19.0387 1051.61 34.8485 1209.84 157.66C1368.06 280.509 1468.97 457.589 1494 656.308C1519.04 855.027 1465.15 1051.65 1342.34 1209.84C1219.53 1368.06 1042.45 1468.97 843.692 1494ZM661.918 50.3431C276.158 98.9256 1.79871 452.284 50.3812 838.082C98.9637 1223.84 452.322 1498.2 838.12 1449.62C1223.88 1401.04 1498.24 1047.68 1449.66 661.88C1401.07 276.12 1047.72 1.76054 661.918 50.3431Z" fill="#4B4B64"/>
<path d="M570.67 490.368V294.459L1097.29 595.955V1186.23L917.935 1084.46V950.516C917.935 913.678 898.507 879.572 866.822 860.785L739.85 785.503V650.235C739.85 613.428 720.455 579.345 688.812 560.548L570.67 490.368Z" fill="#4B4B64"/>
<path d="M570.67 490.368V889.818L915.391 1087L736.034 1183.68L400.217 992.861V589.594L570.67 490.368Z" fill="#4B4B64"/>
</svg>
