<?xml version="1.0" encoding="utf-8"?>
<!-- Generator: Adobe Illustrator 25.2.1, SVG Export Plug-In . SVG Version: 6.00 Build 0)  -->
<svg version="1.1" id="Layer_1" xmlns="http://www.w3.org/2000/svg" xmlns:xlink="http://www.w3.org/1999/xlink" x="0px" y="0px"
	 viewBox="0 0 1469.6 1416.3" style="enable-background:new 0 0 1469.6 1416.3;" xml:space="preserve">
<style type="text/css">
	.st0{fill:url(#SVGID_1_);}
	.st1{fill:url(#SVGID_2_);}
	.st2{fill-rule:evenodd;clip-rule:evenodd;fill:#AFB9CE;}
	.st3{fill:url(#SVGID_3_);}
	.st4{fill:#555379;}
	.st5{fill:url(#SVGID_4_);}
	.st6{fill:url(#SVGID_5_);}
</style>
<g>
	
		<linearGradient id="SVGID_1_" gradientUnits="userSpaceOnUse" x1="267.0526" y1="1209.7385" x2="1263.4965" y2="213.6655" gradientTransform="matrix(1 0 0 -1 0 1416.296)">
		<stop  offset="0" style="stop-color:#8B8AA6"/>
		<stop  offset="1" style="stop-color:#6B6A89"/>
	</linearGradient>
	<path class="st0" d="M1263.3,1202.8c275-275.2,275-721.3,0-996.4c-275.1-275.2-721-275.2-996.1,0s-275.1,721.3,0,996.4
		S988.2,1478,1263.3,1202.8z"/>
	
		<linearGradient id="SVGID_2_" gradientUnits="userSpaceOnUse" x1="206.102" y1="1202.6229" x2="1202.549" y2="206.558" gradientTransform="matrix(1 0 0 -1 0 1416.296)">
		<stop  offset="0" style="stop-color:#DAE0EE"/>
		<stop  offset="1" style="stop-color:#BAC1D0"/>
	</linearGradient>
	<path class="st1" d="M1202.4,1209.9c275.1-275.2,275.1-721.3,0-996.4c-275.1-275.2-721-275.2-996.1,0
		c-275.1,275.2-275.1,721.3,0,996.4C481.3,1485.1,927.3,1485.1,1202.4,1209.9z"/>
	<path class="st2" d="M1232.6,354.1c-0.6-0.8-1.1-1.6-1.7-2.4L947.5,515.2L895,484.9l303.7-175.2c-0.6-0.7-1.2-1.5-1.9-2.2
		L892.1,483.3l-47.8-27.5l252.1-145.5c5.1,2.2,12.3,1.9,17-0.8c5.1-2.9,5.1-7.8,0-10.7c-5.1-2.9-13.4-2.9-18.6,0
		c-4.6,2.7-5,6.8-1.3,9.8L841.4,454.1l-46.1-26.6l301.6-174h48.8c-1-1-2.1-2-3.1-2.9h-46.4l-0.3,0.2L792.4,425.8L773.8,415l-0.7,0.4
		l-13.6,7.9l-72.3-41.7v-58l59.7-34.5v0.2h93.7l103.1-59.5c5.2,2.2,12.3,1.9,17-0.8c5.1-2.9,5.1-7.8,0-10.7
		c-5.2-2.9-13.4-2.9-18.6,0c-4.6,2.7-5,6.8-1.3,9.8l-101,58.3h-88.1l175.5-101.3c5.1,2.3,12.6,2.1,17.3-0.6c5.2-2.9,5.2-7.8,0-10.7
		c-5.1-2.9-13.4-2.9-18.6,0c-4.5,2.6-5,6.6-1.6,9.6L705.4,309.7v-27.9l130.3-75.1v-53.1l73.2-42.2c-1.2-0.4-2.5-0.8-3.7-1.2
		L832.8,152v53.1l-130.3,75.1v31.3l-18.3,10.5v61.4l72.3,41.7L709,452.5l-148.7-85.8v-97.5l101-58.3c5.1,2.3,12.6,2.1,17.3-0.6
		c5.1-2.9,5.1-7.8,0-10.7c-5.1-2.9-13.4-2.9-18.6,0c-4.5,2.6-5,6.6-1.6,9.6l-98.1,56.6v-78.8l77.5-44.7V82.1c-1,0.1-2,0.2-2.9,0.3
		v58.3l-74.5,43V95.1c-1,0.2-2,0.5-2.9,0.7v272.8l148.7,85.8l-53.3,30.7L458.5,372.9V127.7c-1,0.4-2,0.8-2.9,1.2v245.7l194.3,112.1
		l-39.5,22.8L348.1,358.3V186.9c-1,0.7-2,1.3-2.9,2v171.1l0.7,0.4l261.5,150.9l-64,37L186.7,342.4c-0.6,0.8-1.1,1.6-1.7,2.4
		l164.5,94.9H155.5l-21.3-12.3c-0.4,0.9-0.9,1.7-1.3,2.6l21.8,12.6h200l185.8,107.2l-74.4,43l-159.7-92.1H102.1
		c-0.3,0.9-0.7,1.9-1,2.8h204.2l44.7,25.8H241l-0.3,0.2L186,561.1H83.4c-0.2,1-0.5,2-0.7,2.9H181l-61.6,35.5
		c-5.1-2.2-12.3-1.9-17,0.8c-5.1,2.9-5.1,7.8,0,10.7c5.1,2.9,13.4,2.9,18.6,0c4.6-2.7,5-6.8,1.3-9.8l119.6-69h113.4l107.8,62.2
		l-39.8,23l2.2,1.3l23.4,13.5h-74.5L277,576.1c3.7-2.9,3.3-7.1-1.3-9.8c-5.1-2.9-13.4-2.9-18.6,0c-5.1,2.9-5.1,7.8,0,10.7
		c4.6,2.7,11.8,2.9,17,0.8l99.6,57.4H454l54.5,31.5L475,686h-59.5l-0.3,0.2l-52,29.9h-39l-88.1-50.8c3.9-3,3.6-7.2-1.1-10
		c-5.1-2.9-13.4-2.9-18.6,0c-5.1,2.9-5.1,7.8,0,10.7c4.5,2.6,11.5,2.9,16.7,0.9l90.3,52.1H364l0.3-0.2l52-29.9h53.6l-107.2,61.8
		h-58.1L184,681.1H64.6c-0.1,1-0.1,2-0.2,2.9h118.7l120.6,69.6h59.5l0.3-0.2l147.6-85.2l38.7,22.3l-166.8,96.2H265.5l-97-56H63.6
		c0,1,0,2,0.1,2.9h103.9l91.9,53.1H67c0.1,1,0.2,2,0.3,3h316.5l0.4-0.2l168.6-97.3l44,25.4L364.3,851.6H77.1c0.2,1,0.4,2,0.6,2.9
		h176.2l-151.2,87.3c0.3,0.9,0.7,1.8,1,2.8l156.2-90.1h102.4L141.8,981.7v28l-7.5,4.3c0.4,0.9,0.9,1.8,1.3,2.6l9.2-5.3v-28.1
		l222.3-128.3l-0.7-1.3L600,719.1l42.5,24.5L402.5,882v227.8L266,1188.5c0.8,0.7,1.5,1.4,2.3,2.1l64.1-37v89.3
		c1,0.7,1.9,1.4,2.9,2.1V1152l70.1-40.4V883.7l240-138.4l37.4,21.6L497.7,873.6v124.9l0.7,0.4l210.4,121.4v42.4l-119,68.7
		c-5.1-2.2-12.3-1.9-17,0.8c-5.1,2.9-5.1,7.8,0,10.7c5.1,2.9,13.4,2.9,18.6,0c4.6-2.7,5-6.8,1.3-9.8l119-68.7v-45.7l-0.7-0.4
		L500.6,996.8V875.3l139.8-80.7v52l-64.1,37c-5.1-2.2-12.3-1.9-17,0.8c-5.1,2.9-5.1,7.8,0,10.7c5.1,2.9,13.4,2.9,18.6,0
		c4.6-2.7,5-6.8,1.3-9.8l64.1-37v-55.4l42.3-24.4l50,28.8V888l-94.3,54.4v62.7l0.7,0.4l198.6,114.6c-3.7,2.9-3.3,7.1,1.3,9.8
		c5.2,2.9,13.4,2.9,18.6,0c5.1-2.9,5.1-7.8,0-10.7c-4.6-2.7-11.8-2.9-17-0.8l-199.3-115v-59.3l91.4-52.7v62.5l122.2,70.5
		c-3.7,3-3.3,7.1,1.3,9.8c5.1,2.9,13.4,2.9,18.6,0c5.1-2.9,5.1-7.8,0-10.7c-4.6-2.7-11.8-2.9-17-0.8l-122.2-70.5V799.1l35.1,20.2
		l0.7-0.4l57.2-33l52.4,30.3v73.5l139.3,80.4v69.3c-2.8,0.2-5.6,0.9-7.8,2.2c-5.1,2.9-5.1,7.8,0,10.7c5.1,2.9,13.4,2.9,18.6,0
		c5.1-2.9,5.1-7.8,0-10.7c-2.2-1.3-5-1.9-7.8-2.2v-70.9L887,888v-70.1L1112.5,948v137.9l-122.3,70.6H877.9l-0.4,0.2L685,1267.9
		c-5.1-2.1-12.3-1.9-17,0.8c-5.1,2.9-5.1,7.8,0,10.7c5.1,2.9,13.4,2.9,18.6,0c4.6-2.7,5-6.8,1.3-9.8l190.8-110.1h106.4l-346.2,199.8
		c1.7,0.2,3.4,0.3,5,0.5l471.6-272.1V946.4l-0.7-0.4L834.6,784.3l56.4-32.5l400.3,231c0.4-0.9,0.8-1.8,1.2-2.7l-398.6-230l53.7-31
		l364.8,210.5c0.3-1,0.6-1.9,1-2.8l-291.2-168h80.3l136.3,78.6h97.9c0.2-1,0.4-2,0.5-2.9h-97.7l-136.3-78.6H1017l-66.5-38.3
		l143.3-82.6l40.7,23.5V720l103.5,59.7c-3.7,2.9-3.3,7.1,1.3,9.8c5.1,2.9,13.4,2.9,18.6,0c5.1-2.9,5.1-7.8,0-10.7
		c-4.6-2.7-11.8-2.9-17-0.8l-103.5-59.7V660l110.4,63.7h52.3l0.3-0.2l46.2-26.7c0-1.1-0.1-2.2-0.1-3.3l-47.2,27.3h-50.7l-151.9-87.6
		l27.6-15.9l-2.2-1.3l-85.9-49.6l41.2-23.8h62.3l44.6,25.7c-3.6,2.9-3.1,7,1.5,9.7c5.1,2.9,13.4,2.9,18.6,0s5.1-7.8,0-10.7
		c-4.7-2.7-12-2.9-17.2-0.7l-46.8-27h-58.1l105.2-60.7l138.8,80.1c-0.3-1.3-0.7-2.7-1.1-4l-80.3-46.4h66.2c-0.3-1-0.7-2-1-2.9h-70.3
		l-49.4-28.5l86.1-49.7c-0.4-0.9-0.9-1.7-1.3-2.6l-242.1,139.7L995.9,543l261.3-150.8c-0.5-0.8-1-1.7-1.5-2.5L992.9,541.3
		l-42.5-24.5L1232.6,354.1z M773.6,816l344.8-198.9L773.6,418.2L428.9,617.1L773.6,816z"/>
	
		<linearGradient id="SVGID_3_" gradientUnits="userSpaceOnUse" x1="705.3427" y1="1337.8319" x2="705.3427" y2="53.6952" gradientTransform="matrix(1 0 0 -1 0 1416.296)">
		<stop  offset="0" style="stop-color:#8B8AA6"/>
		<stop  offset="1" style="stop-color:#6B6A89"/>
	</linearGradient>
	<path class="st3" d="M785.5,1357.5c-170.1,21.4-338.3-24.7-473.7-129.8C176.4,1122.5,90.1,970.9,68.6,800.7
		C47.2,630.6,93.3,462.3,198.4,326.9C303.6,191.4,455.1,105,625.2,83.6c170.1-21.4,338.3,24.7,473.7,129.8
		c135.4,105.2,221.8,256.8,243.2,426.9c21.4,170.1-24.7,338.4-129.8,473.9C1107.1,1249.6,955.6,1336,785.5,1357.5z M630,121.6
		C299.8,163.2,65.1,465.7,106.6,795.9c41.6,330.2,344,565.1,674.1,523.5c330.1-41.6,564.9-344.1,523.3-674.4
		C1262.5,314.8,960.1,80,630,121.6z"/>
	<path class="st4" d="M574.5,498.2V330.5l450.7,258.1V1094l-153.5-87.1V892.2c0-31.5-16.6-60.7-43.7-76.8l-108.7-64.4V635.1
		c0-31.5-16.6-60.7-43.7-76.8L574.5,498.2z"/>
	<path class="st4" d="M574.5,498.2v342l295,168.8L716,1091.8L428.6,928.4V583.2L574.5,498.2z"/>
	
		<linearGradient id="SVGID_4_" gradientUnits="userSpaceOnUse" x1="777.2075" y1="1085.7729" x2="777.2075" y2="322.338" gradientTransform="matrix(1 0 0 -1 0 1416.296)">
		<stop  offset="0" style="stop-color:#6B6A89"/>
		<stop  offset="1" style="stop-color:#8685A0"/>
	</linearGradient>
	<path class="st5" d="M551.9,498.2V330.5l450.7,258.1V1094l-153.5-87.1V892.2c0-31.5-16.6-60.7-43.8-76.8l-108.7-64.4V635.1
		c0-31.5-16.6-60.7-43.7-76.8L551.9,498.2z"/>
	
		<linearGradient id="SVGID_5_" gradientUnits="userSpaceOnUse" x1="626.4435" y1="1085.7729" x2="626.4435" y2="322.338" gradientTransform="matrix(1 0 0 -1 0 1416.296)">
		<stop  offset="0" style="stop-color:#6B6A89"/>
		<stop  offset="1" style="stop-color:#8685A0"/>
	</linearGradient>
	<path class="st6" d="M551.9,498.2v342l295,168.8l-153.5,82.8L406,928.4V583.2L551.9,498.2z"/>
</g>
</svg>
