<svg width="1024" height="1024" viewBox="0 0 1024 1024" fill="none" xmlns="http://www.w3.org/2000/svg">
<path d="M980.292 441.65L764.282 145.955C748.182 123.905 723.331 111.305 696.031 111.305C668.731 111.305 643.881 123.963 627.78 145.955L604.272 178.097L580.763 145.955C564.663 123.905 539.813 111.305 512.513 111.305C485.212 111.305 460.362 123.963 444.262 145.955L421.045 177.747L397.828 145.955C381.728 123.905 356.878 111.305 329.577 111.305C302.277 111.305 277.427 123.963 261.327 145.955L45.3162 441.65C14.5743 483.708 14.5743 540.292 45.3162 582.351L261.327 878.046C277.427 900.096 302.277 912.696 329.577 912.696C356.878 912.696 381.728 900.038 397.828 878.046L512.804 720.661L536.546 753.153C536.604 753.269 536.721 753.386 536.779 753.503L627.78 878.046C643.881 900.096 668.731 912.696 696.031 912.696C723.331 912.696 748.182 900.038 764.282 878.046L980.292 582.351C1011.03 540.292 1011.03 483.708 980.292 441.65ZM478.796 171.155C486.787 160.247 499.096 154.005 512.571 154.005C526.046 154.005 538.413 160.247 546.346 171.155L577.905 214.322L512.863 303.34L447.529 213.914L478.796 171.155ZM363.411 852.845C355.419 863.754 343.111 869.996 329.636 869.996C316.161 869.996 303.794 863.754 295.86 852.845L79.85 557.151C60.1331 530.142 60.1331 493.859 79.85 466.792L295.86 171.097C303.852 160.189 316.161 153.947 329.636 153.947C343.111 153.947 355.478 160.189 363.411 171.097L394.678 213.856L228.31 441.591C197.568 483.65 197.568 540.234 228.368 582.351L241.027 599.501L352.561 753.094C366.736 772.52 387.795 784.653 411.303 787.22L363.411 852.845ZM454.645 728.011C446.654 738.861 434.345 745.161 420.812 745.161C407.336 745.161 394.97 738.919 387.095 728.069L272.41 570.159L272.352 570.218L262.785 557.209C243.068 530.201 243.068 493.917 262.785 466.85L421.103 250.139L486.437 339.565L411.828 441.708C381.086 483.767 381.086 540.351 411.828 582.409L486.437 684.552L454.645 728.011ZM512.863 375.674L579.422 466.792C599.138 493.8 599.138 530.084 579.422 557.151L512.863 648.268L446.304 557.151C426.587 530.142 426.587 493.859 446.304 466.792L512.863 375.674ZM613.897 582.351C644.639 540.292 644.639 483.708 613.897 441.65L539.288 339.507L604.33 250.49L762.357 466.85C782.074 493.859 782.074 530.142 762.24 557.326L736.923 592.501L638.514 728.011C630.522 738.919 618.214 745.161 604.738 745.161C591.38 745.161 579.188 739.036 571.255 728.361L539.23 684.552L613.897 582.351ZM945.875 557.151L729.865 852.845C721.873 863.754 709.565 869.996 696.089 869.996C682.614 869.996 670.248 863.754 662.314 852.845L614.422 787.278C637.872 784.711 658.931 772.578 673.164 753.094L757.69 636.66L757.807 636.718L771.69 617.468L787.849 595.185L787.732 595.126L796.89 582.351C827.632 540.292 827.632 483.708 796.89 441.65L630.814 214.322L662.372 171.155C670.364 160.247 682.673 154.005 696.148 154.005C709.623 154.005 721.931 160.247 729.923 171.155L945.934 466.85C965.592 493.859 965.592 530.142 945.875 557.151Z" fill="url(#paint0_linear_3004_1394)"/>
<path opacity="0.4" d="M420.797 787.803C417.53 787.803 414.264 787.628 411.114 787.278L364.738 851.212L399.739 875.888L484.556 759.453C468.456 777.537 445.356 787.803 420.797 787.803Z" fill="url(#paint1_linear_3004_1394)"/>
<path opacity="0.4" d="M604.596 787.798C607.863 787.798 611.129 787.623 614.279 787.273L660.655 851.207L625.655 875.882L541.304 759.564C557.346 777.648 580.037 787.798 604.596 787.798Z" fill="url(#paint2_linear_3004_1394)"/>
<path opacity="0.4" d="M486.099 684.215L513.049 721.024L472.04 776.091L445.09 740.332L486.099 684.215Z" fill="url(#paint3_linear_3004_1394)"/>
<path opacity="0.6" d="M394.685 213.912L421.169 250.371L325.151 382.264L291.609 355.722L394.685 213.912Z" fill="url(#paint4_linear_3004_1394)"/>
<path opacity="0.6" d="M486.456 339.453L512.707 375.912L451.514 460.554L417.914 434.012L486.456 339.453Z" fill="url(#paint5_linear_3004_1394)"/>
<path opacity="0.6" d="M577.914 214.262L604.28 250.545L539.355 339.388L512.871 303.163L577.914 214.262Z" fill="url(#paint6_linear_3004_1394)"/>
<defs>
<linearGradient id="paint0_linear_3004_1394" x1="203.355" y1="821.485" x2="822.326" y2="202.515" gradientUnits="userSpaceOnUse">
<stop stop-color="#FF8506"/>
<stop offset="0.5805" stop-color="#FD3947"/>
<stop offset="1" stop-color="#FB0078"/>
</linearGradient>
<linearGradient id="paint1_linear_3004_1394" x1="457.639" y1="758.568" x2="385.333" y2="860.895" gradientUnits="userSpaceOnUse">
<stop stop-color="#78005B"/>
<stop offset="0.3483" stop-color="#7A025A" stop-opacity="0.6517"/>
<stop offset="0.51" stop-color="#820955" stop-opacity="0.49"/>
<stop offset="0.6332" stop-color="#8E154E" stop-opacity="0.3668"/>
<stop offset="0.7369" stop-color="#A12643" stop-opacity="0.2631"/>
<stop offset="0.8283" stop-color="#B83C36" stop-opacity="0.1717"/>
<stop offset="0.9111" stop-color="#D65725" stop-opacity="0.0889"/>
<stop offset="0.9857" stop-color="#F87711" stop-opacity="0.0143"/>
<stop offset="1" stop-color="#FF7E0D" stop-opacity="0"/>
</linearGradient>
<linearGradient id="paint2_linear_3004_1394" x1="634.294" y1="853.273" x2="566.242" y2="755.389" gradientUnits="userSpaceOnUse">
<stop stop-color="#FF7E0D" stop-opacity="0"/>
<stop offset="0.00928743" stop-color="#F97811" stop-opacity="0.0127"/>
<stop offset="0.0651" stop-color="#D65825" stop-opacity="0.0888"/>
<stop offset="0.1269" stop-color="#B93D36" stop-opacity="0.1729"/>
<stop offset="0.1949" stop-color="#A12643" stop-opacity="0.2657"/>
<stop offset="0.272" stop-color="#8F154E" stop-opacity="0.3707"/>
<stop offset="0.3632" stop-color="#820955" stop-opacity="0.495"/>
<stop offset="0.4822" stop-color="#7A025A" stop-opacity="0.6573"/>
<stop offset="0.7336" stop-color="#78005B"/>
</linearGradient>
<linearGradient id="paint3_linear_3004_1394" x1="460.027" y1="758.058" x2="515.058" y2="678.908" gradientUnits="userSpaceOnUse">
<stop stop-color="#FF7E0D" stop-opacity="0"/>
<stop offset="0.0133" stop-color="#F97910" stop-opacity="0.0192"/>
<stop offset="0.1144" stop-color="#D25427" stop-opacity="0.1659"/>
<stop offset="0.219" stop-color="#B1363A" stop-opacity="0.3175"/>
<stop offset="0.3263" stop-color="#981E48" stop-opacity="0.4731"/>
<stop offset="0.4375" stop-color="#860D53" stop-opacity="0.6344"/>
<stop offset="0.5551" stop-color="#7B0359" stop-opacity="0.8048"/>
<stop offset="0.6897" stop-color="#78005B"/>
</linearGradient>
<linearGradient id="paint4_linear_3004_1394" x1="296.922" y1="361.059" x2="419.376" y2="238.606" gradientUnits="userSpaceOnUse">
<stop stop-color="#FF4630" stop-opacity="0"/>
<stop offset="0.5722" stop-color="#B31F48" stop-opacity="0.5722"/>
<stop offset="1" stop-color="#78005B"/>
</linearGradient>
<linearGradient id="paint5_linear_3004_1394" x1="426.445" y1="442.523" x2="508.011" y2="360.957" gradientUnits="userSpaceOnUse">
<stop stop-color="#FF4630" stop-opacity="0"/>
<stop offset="0.5722" stop-color="#B31F48" stop-opacity="0.5722"/>
<stop offset="1" stop-color="#78005B"/>
</linearGradient>
<linearGradient id="paint6_linear_3004_1394" x1="517.713" y1="317.746" x2="599.548" y2="235.911" gradientUnits="userSpaceOnUse">
<stop stop-color="#FF4630" stop-opacity="0"/>
<stop offset="0.5722" stop-color="#B31F48" stop-opacity="0.5722"/>
<stop offset="1" stop-color="#78005B"/>
</linearGradient>
</defs>
</svg>
