<svg width="288" height="288" viewBox="0 0 288 288" fill="none" xmlns="http://www.w3.org/2000/svg">
<g filter="url(#filter0_d)">
<circle cx="144" cy="140" r="130" fill="#F6931A" stroke="#F6931A" stroke-width="20"/>
<path d="M111.142 229C120.385 229 127.878 222.908 127.878 215.392C127.878 207.877 120.385 201.785 111.142 201.785C101.899 201.785 94.4053 207.877 94.4053 215.392C94.4053 222.908 101.899 229 111.142 229Z" fill="#F6931A"/>
<path fill-rule="evenodd" clip-rule="evenodd" d="M79.5278 83.5194C79.4256 83.8215 79.4099 84.4243 79.4934 84.8593C81.1105 93.2958 82.7795 101.176 83.3614 103.122C85.4272 110.031 89.6018 117.373 95.4809 124.437C98.6049 128.191 99.5795 129.061 103.931 131.985C108.061 134.76 110.265 136.011 115.765 138.702C117.996 139.793 120.182 140.876 120.624 141.109L121.428 141.532L120.769 141.905C119.501 142.622 116.908 143.604 115.041 144.075C111.433 144.984 100.422 144.862 94.041 143.842C87.7824 142.842 84.8885 141.898 68.1919 135.412C64.6488 134.036 61.365 132.853 60.8948 132.783C59.8889 132.635 59.1303 133.14 57.3747 135.131C55.6431 137.094 55.2179 138.247 55.2848 140.799L55.3427 142.998L54.271 143.407C50.7146 144.763 49.3564 147.639 50.2821 151.852C50.7844 154.138 51.3484 155.143 53.1045 156.884L54.2481 158.017L52.9481 159.087C51.0903 160.617 50.3224 162.413 50.5208 164.766C50.7213 167.143 51.576 168.48 54.2136 170.543C56.9911 172.715 57.4508 173.535 57.5033 176.414C57.5374 178.298 57.6559 178.856 58.1947 179.665C59.4248 181.513 62.5244 183.313 65.9117 184.147C68.5148 184.788 69.7207 185.795 70.629 188.085C72.1697 191.969 76.6159 194.978 83.1685 196.57C85.365 197.104 86.8692 197.14 87.7532 196.682C88.8701 196.103 91.0043 193.524 97.2328 185.227C104.288 175.829 104.905 175.11 107.66 173.089C110.798 170.786 111.809 170.542 118.227 170.544C124.198 170.546 125.906 170.769 133 172.477C145.381 175.458 152.272 176.386 160.372 176.163C169.083 175.923 176.352 174.229 183.582 170.753C189.932 167.701 194.605 163.47 199.338 156.49C202.482 151.853 205.076 146.397 208.198 137.851C209.24 134.998 210.788 131.803 212.033 129.937C214.215 126.666 216.259 125.279 220.447 124.231C223.389 123.494 225.753 123.399 231.338 123.794C236.867 124.185 238 124.093 238 123.258C238 122.851 237.147 122.214 234.09 120.339C229.356 117.436 228.143 116.452 226.511 114.191C224.913 111.977 222.441 110.111 219.897 109.2C216.297 107.91 210.705 107.344 207.329 107.929C203.464 108.598 200.737 109.959 193.972 114.594C189.046 117.97 187.518 118.924 184.703 120.379C179.671 122.981 176.682 123.732 173.209 123.266C169.967 122.831 163.823 120.162 160.631 117.803C158.459 116.197 158.616 116.4 154.19 109.505C150.293 103.438 146.848 100.689 140.402 98.504C138.248 97.7738 127.506 95.1154 114.896 92.1924C110.754 91.232 105.28 89.9618 102.731 89.3695C96.4556 87.9115 90.5342 86.2169 85.5249 84.4458C80.9225 82.8182 79.8233 82.6484 79.5278 83.5194Z" fill="white"/>
<path d="M140.888 72.2886C148.047 72.2886 153.851 65.2844 153.851 56.6443C153.851 48.0042 148.047 41 140.888 41C133.73 41 127.926 48.0042 127.926 56.6443C127.926 65.2844 133.73 72.2886 140.888 72.2886Z" fill="#F6931A"/>
<path d="M194.227 96.3248C199.179 96.3248 203.193 92.5171 203.193 87.82C203.193 83.1229 199.179 79.3152 194.227 79.3152C189.275 79.3152 185.261 83.1229 185.261 87.82C185.261 92.5171 189.275 96.3248 194.227 96.3248Z" fill="#F6931A"/>
</g>
<defs>
<filter id="filter0_d" x="0" y="0" width="288" height="288" filterUnits="userSpaceOnUse" color-interpolation-filters="sRGB">
<feFlood flood-opacity="0" result="BackgroundImageFix"/>
<feColorMatrix in="SourceAlpha" type="matrix" values="0 0 0 0 0 0 0 0 0 0 0 0 0 0 0 0 0 0 127 0"/>
<feOffset dy="4"/>
<feGaussianBlur stdDeviation="2"/>
<feColorMatrix type="matrix" values="0 0 0 0 0 0 0 0 0 0 0 0 0 0 0 0 0 0 0.25 0"/>
<feBlend mode="normal" in2="BackgroundImageFix" result="effect1_dropShadow"/>
<feBlend mode="normal" in="SourceGraphic" in2="effect1_dropShadow" result="shape"/>
</filter>
</defs>
</svg>
