<svg width="835" height="834" xmlns="http://www.w3.org/2000/svg" xmlns:xlink="http://www.w3.org/1999/xlink" overflow="hidden"><defs><clipPath id="clip0"><rect x="-2310" y="728" width="835" height="834"/></clipPath><clipPath id="clip1"><rect x="-2257" y="899" width="723" height="409"/></clipPath><clipPath id="clip2"><rect x="-2257" y="899" width="723" height="409"/></clipPath><clipPath id="clip3"><rect x="-2257" y="899" width="723" height="409"/></clipPath><linearGradient x1="0" y1="258.404" x2="178.641" y2="258.404" gradientUnits="userSpaceOnUse" spreadMethod="pad" id="fill4"><stop offset="0" stop-color="#1B6FF5" stop-opacity="1"/><stop offset="1" stop-color="#1B46F5" stop-opacity="1"/></linearGradient><linearGradient x1="357.282" y1="258.404" x2="180.593" y2="258.404" gradientUnits="userSpaceOnUse" spreadMethod="pad" id="fill5"><stop offset="0" stop-color="#6CC5FF" stop-opacity="1"/><stop offset="1.4e-07" stop-color="#6CC5FF" stop-opacity="1"/><stop offset="1" stop-color="#3B8BFA" stop-opacity="1"/></linearGradient><linearGradient x1="357.282" y1="258.404" x2="535.923" y2="258.404" gradientUnits="userSpaceOnUse" spreadMethod="pad" id="fill6"><stop offset="0" stop-color="#1B6FF5" stop-opacity="1"/><stop offset="1" stop-color="#1B46F5" stop-opacity="1"/></linearGradient><linearGradient x1="717.167" y1="258.404" x2="538.208" y2="258.404" gradientUnits="userSpaceOnUse" spreadMethod="pad" id="fill7"><stop offset="0" stop-color="#6CC5FF" stop-opacity="1"/><stop offset="1.4e-07" stop-color="#6CC5FF" stop-opacity="1"/><stop offset="1" stop-color="#3B8BFA" stop-opacity="1"/></linearGradient><linearGradient x1="218.99" y1="83.5049" x2="495.574" y2="83.5049" gradientUnits="userSpaceOnUse" spreadMethod="pad" id="fill8"><stop offset="0" stop-color="#F69B10" stop-opacity="1"/><stop offset="0.2317" stop-color="#F9AE0A" stop-opacity="1"/><stop offset="0.9727" stop-color="#FBB807" stop-opacity="1"/><stop offset="1" stop-color="#FBB807" stop-opacity="1"/></linearGradient></defs><g clip-path="url(#clip0)" transform="translate(2310 -728)"><path d="M-2306.5 1144C-2306.5 916.183-2121.82 731.5-1894 731.5-1666.18 731.5-1481.5 916.183-1481.5 1144-1481.5 1371.82-1666.18 1556.5-1894 1556.5-2121.82 1556.5-2306.5 1371.82-2306.5 1144Z" stroke="#FFFFFF" stroke-width="4.58333" stroke-linecap="butt" stroke-linejoin="miter" stroke-miterlimit="8" stroke-opacity="1" fill="#FFFFFF" fill-rule="evenodd" fill-opacity="1"/><g clip-path="url(#clip1)"><g clip-path="url(#clip2)"><g clip-path="url(#clip3)"><path d="M0 408 178.63 300.129 178.63 108.795 0 216.666Z" fill="url(#fill4)" fill-rule="nonzero" transform="matrix(1.00849 0 0 1 -2255.33 900)"/><path d="M357.26 408 178.63 300.129 178.63 108.795 357.26 216.666Z" fill="url(#fill5)" fill-rule="nonzero" transform="matrix(1.00849 0 0 1 -2255.33 900)"/><path d="M357.26 408 535.89 300.129 535.89 108.795 357.26 216.666Z" fill="url(#fill6)" fill-rule="nonzero" transform="matrix(1.00849 0 0 1 -2255.33 900)"/><path d="M714.597 408 535.89 300.129 535.89 108.795 714.597 216.666Z" fill="url(#fill7)" fill-rule="nonzero" transform="matrix(1.00849 0 0 1 -2255.33 900)"/><path d="M357.26 0 218.976 83.5403 357.26 167.004 495.544 83.5403Z" fill="url(#fill8)" fill-rule="nonzero" transform="matrix(1.00849 0 0 1 -2255.33 900)"/></g></g></g></g></svg>