<svg width="200" height="200" xmlns="http://www.w3.org/2000/svg" xmlns:xlink="http://www.w3.org/1999/xlink" overflow="hidden"><defs><clipPath id="clip0"><rect x="540" y="260" width="200" height="200"/></clipPath><clipPath id="clip1"><path d="M540 360C540 304.772 584.772 260 640 260 695.228 260 740 304.772 740 360 740 415.228 695.228 460 640 460 584.772 460 540 415.228 540 360Z" fill-rule="evenodd" clip-rule="evenodd"/></clipPath></defs><g clip-path="url(#clip0)" transform="translate(-540 -260)"><g clip-path="url(#clip1)"><path d="M724 260C732.837 260 740 267.163 740 276L740 444C740 452.837 732.837 460 724 460L556 460C547.163 460 540 452.837 540 444L540 276C540 267.163 547.163 260 556 260Z" fill="#040203" fill-rule="nonzero" fill-opacity="1"/><path d="M650.37 299.368C650.37 296.572 648.103 294.305 645.307 294.305L593.521 294.305C590.725 294.305 588.458 296.572 588.458 299.368L588.458 351.153C588.458 353.95 590.725 356.217 593.521 356.217L613.244 356.217C613.703 356.561 614.193 356.89 614.715 357.203 617.968 359.147 620.328 363.944 619.548 367.653 619.446 368.14 619.347 368.631 619.248 369.123 619.223 369.246 619.198 369.368 619.174 369.491 617.872 375.886 616.354 383.141 607.555 390.349 606.97 390.83 606.612 391.548 606.649 392.314 606.687 393.069 607.074 393.768 607.706 394.203 609.719 395.567 611.111 398.003 609.152 399.444 604.684 402.733 598.962 405.913 594.729 407.881 593.88 408.278 593.305 409.138 593.295 410.073 593.295 411.008 593.814 411.858 594.653 412.264 600.904 415.246 608.693 416.394 614.808 416.809 617.388 416.985 618.993 419.916 617.061 421.635 616.307 422.306 616.099 423.336 616.458 424.28 616.816 425.215 617.721 425.867 618.721 425.867 642.27 425.867 658.605 422.514 662.858 420.879 663.792 420.521 664.442 419.614 664.442 418.612 664.442 412.656 662.628 404.47 660.743 397.72 660.176 395.688 658.355 394.304 656.279 393.933 642.948 391.551 638.329 381.391 638.111 380.902 637.573 379.674 638.092 378.267 639.318 377.728 640.535 377.19 641.949 377.719 642.487 378.937 642.683 379.367 646.9 388.286 659.268 389.48 659.545 389.507 659.829 389.507 660.106 389.479 663.607 389.124 665.579 388.127 667.508 387.151L667.611 387.099 667.656 387.077C670.025 385.885 672.27 384.756 678.249 384.756 685.473 384.756 691 376.283 691 372.816 691 370.54 689.746 369.708 686.096 367.375L684.285 366.241C681.998 364.765 677.72 361.981 674.104 359.628 672.81 358.786 671.601 357.999 670.599 357.347 669.46 356.607 668.751 355.391 668.089 354.205 667.113 352.457 665.496 351.428 664.065 350.825 660.716 349.418 656.055 347.822 650.37 346.879L650.37 341.996C656.893 342.996 662.231 344.801 665.951 346.366 666.096 346.427 666.238 346.491 666.378 346.555 668.294 347.44 670.578 347.732 672.272 346.474 677.394 342.672 681.652 337.125 683.682 329.816 684.012 328.616 683.333 327.313 682.173 326.869 681.013 326.425 679.711 326.954 679.155 328.078 678.032 330.354 670.591 338.809 660.67 338.809 656.982 338.809 656.633 337.751 656.596 332.385L656.596 332.38C656.562 327.959 656.515 321.911 650.37 318.902L650.37 299.368ZM650.37 318.902C648.019 317.751 644.776 317.045 640.299 317.045 639.205 317.045 638.243 317.8 637.96 318.858 637.677 319.916 638.139 321.031 639.092 321.579 645.75 325.405 645.354 327.53 644.675 331.025L644.664 331.085C644.223 333.364 641.817 335.118 639.845 333.895 638.39 332.993 636.972 331.823 635.772 330.345 632.641 326.482 631.679 321.38 632.981 315.155 633.188 314.154 632.801 313.124 631.924 312.586 631.057 312.047 629.925 312.085 629.133 312.737 625.843 315.429 624.207 318.628 623.597 321.819 622.849 325.731 619.233 329.369 615.777 327.388 612.895 325.736 610.129 323.564 608.158 320.823 605.442 317.035 604.81 312.737 606.348 308.127 606.64 307.239 606.423 306.285 605.744 305.633 605.235 305.151 604.537 304.896 603.858 304.953 603.631 304.972 603.396 305.019 603.179 305.104 602.915 305.208 596.841 307.683 596.841 318.178 596.841 324.672 599.735 330.115 603.792 334.386 605.097 335.759 607.17 335.862 609.064 335.862 610.139 335.862 611.252 336.079 612.232 336.542 613.157 336.986 614.156 337.222 615.326 337.222 616.83 337.222 618.557 336.857 620.392 336.468 620.514 336.442 620.636 336.417 620.758 336.391L620.766 336.389C623.206 335.889 625.92 335.333 628.906 335.333 633.808 335.333 638.156 336.887 642.062 340.069 642.998 340.832 644.131 341.327 645.335 341.419 647.081 341.552 648.761 341.749 650.37 341.996L650.37 318.902ZM650.37 346.879C648.25 346.527 645.988 346.267 643.598 346.14 642.215 346.067 640.919 345.464 639.894 344.533 636.07 341.064 632.325 340.128 628.755 340.169 626.322 340.198 623.908 340.689 621.664 341.152L621.614 341.162C617.653 341.98 613.924 342.75 610.12 340.925 609.347 340.557 608.422 340.585 607.706 341.076 606.998 341.558 606.659 342.408 606.725 343.268 607.06 347.784 608.637 352.765 613.244 356.217L645.307 356.217C648.103 356.217 650.37 353.95 650.37 351.153L650.37 346.879ZM656.418 366.193C658.984 365.066 657.413 361.881 654.703 361.165L653.615 360.877C650.923 360.166 648.006 362.131 649.666 364.367 650.403 365.359 651.468 366.12 652.748 366.468 654.019 366.812 655.301 366.683 656.418 366.193Z" fill="#B7F014" fill-rule="evenodd" fill-opacity="1"/></g></g></svg>