<svg xmlns="http://www.w3.org/2000/svg" xmlns:xlink="http://www.w3.org/1999/xlink" viewBox="0 0 400 400"><defs><style>.a{fill:none;}.b{fill:url(#a);}.c{fill:url(#b);}.d{fill:url(#c);}.e{fill:url(#d);}.f{fill:url(#e);}.g{fill:url(#f);}.h{fill:url(#g);}.i{fill:url(#h);}</style><linearGradient id="a" x1="87.4" y1="89.4" x2="347.28" y2="349.28" gradientTransform="matrix(1, 0, 0, -1, 0, 402)" gradientUnits="userSpaceOnUse"><stop offset="0" stop-color="#172347"/><stop offset="0.1" stop-color="#025385"/><stop offset="0.2" stop-color="#038298"/><stop offset="0.26" stop-color="#07aaa8"/><stop offset="0.32" stop-color="#0bd2b8"/><stop offset="0.37" stop-color="#0deac1"/><stop offset="0.4" stop-color="#0ef3c5"/><stop offset="0.6" stop-color="#0ef3c5"/><stop offset="0.63" stop-color="#0dedc3"/><stop offset="0.67" stop-color="#0cddbc"/><stop offset="0.72" stop-color="#09c2b1"/><stop offset="0.77" stop-color="#069ca2"/><stop offset="0.8" stop-color="#038298"/><stop offset="1" stop-color="#015268"/></linearGradient><linearGradient id="b" x1="134.99" y1="203.34" x2="189.8" y2="258.15" gradientTransform="matrix(1, 0, 0, -1, 0, 402)" gradientUnits="userSpaceOnUse"><stop offset="0" stop-color="#172347" stop-opacity="0.3"/><stop offset="1" stop-color="#0ef3c5" stop-opacity="0"/></linearGradient><linearGradient id="c" x1="799.87" y1="1529.09" x2="829.96" y2="1529.09" gradientTransform="matrix(-0.71, 0.71, 0.71, 0.71, -242.37, -1416.72)" gradientUnits="userSpaceOnUse"><stop offset="0" stop-color="#172347" stop-opacity="0.15"/><stop offset="0.6" stop-color="#0ef3c5" stop-opacity="0"/></linearGradient><linearGradient id="d" x1="-317.81" y1="335.01" x2="-282.06" y2="370.76" gradientTransform="matrix(0.71, -0.71, -0.71, -0.71, 730.84, 209.07)" gradientUnits="userSpaceOnUse"><stop offset="0" stop-color="#172347" stop-opacity="0.15"/><stop offset="1" stop-color="#038298" stop-opacity="0"/></linearGradient><linearGradient id="e" x1="139.19" y1="301.87" x2="179.32" y2="301.87" gradientTransform="matrix(1, 0, 0, -1, 0, 402)" gradientUnits="userSpaceOnUse"><stop offset="0" stop-color="#172347" stop-opacity="0.3"/><stop offset="0.88" stop-color="#0ef3c5" stop-opacity="0"/></linearGradient><linearGradient id="f" x1="727.83" y1="1382.41" x2="757.82" y2="1412.4" gradientTransform="translate(733.98 -1420.3) rotate(45)" xlink:href="#b"/><linearGradient id="g" x1="202.55" y1="265.79" x2="151.31" y2="317.03" gradientTransform="matrix(0.71, 0.71, 0.71, -0.71, -151.22, 190.29)" gradientUnits="userSpaceOnUse"><stop offset="0" stop-color="#172347" stop-opacity="0.2"/><stop offset="0.63" stop-color="#0ef3c5" stop-opacity="0"/></linearGradient><linearGradient id="h" x1="195.77" y1="1751.36" x2="144.54" y2="1802.59" gradientTransform="matrix(-0.71, -0.71, -0.71, 0.71, 1596.87, -978.22)" xlink:href="#g"/></defs><circle class="a" cx="200" cy="200" r="200"/><path class="b" d="M269.23,50A14.38,14.38,0,0,0,259,54.22h0l-59,59-59-59a14.42,14.42,0,0,0-24.61,10.2V335.58a14.42,14.42,0,1,0,28.84,0V208.86L200,154.05l54.81,54.81V335.58a14.42,14.42,0,1,0,28.84,0V64.42A14.42,14.42,0,0,0,269.23,50Zm-124,118.06V99.23l34.41,34.41Zm75.21-34.41,34.41-34.42v68.82Z"/><polygon class="c" points="145.19 208.86 200 154.05 179.6 133.65 145.19 168.06 145.19 208.86"/><path class="d" d="M254.81,208.86v50.56h28.84V244.88a17.28,17.28,0,0,0-5.07-12.24Z"/><polygon class="e" points="283.65 196.91 283.65 146.35 254.81 146.35 254.81 168.06 283.65 196.91"/><path class="f" d="M155,68.3l45,45-20.4,20.4L145.19,99.23V72.38A5.77,5.77,0,0,1,155,68.3Z"/><path class="g" d="M283.65,84.32V121H254.81V99.23l19-19a5.77,5.77,0,0,1,9.84,4.09Z"/><rect class="h" x="165.53" y="99.68" width="28.85" height="27.85" transform="translate(-27.62 160.52) rotate(-45)"/><rect class="i" x="205.63" y="139.78" width="28.85" height="27.85" transform="translate(-44.23 200.62) rotate(-45)"/></svg>