<svg width="190" height="189" xmlns="http://www.w3.org/2000/svg" xmlns:xlink="http://www.w3.org/1999/xlink" xml:space="preserve" overflow="hidden"><defs><clipPath id="clip0"><rect x="548" y="268" width="190" height="189"/></clipPath><clipPath id="clip1"><rect x="548" y="269" width="190" height="188"/></clipPath><clipPath id="clip2"><rect x="548" y="269" width="190" height="188"/></clipPath><clipPath id="clip3"><rect x="548" y="269" width="190" height="188"/></clipPath></defs><g clip-path="url(#clip0)" transform="translate(-548 -268)"><g clip-path="url(#clip1)"><g clip-path="url(#clip2)"><g clip-path="url(#clip3)"><path d="M115.317 40.7135C115.317 40.7135 136.065 21.9807 146.787 28.6245 152.98 32.4639 143.375 39.947 143.375 39.947 168.561 29.1317 167.858 55.7524 167.858 55.7524L192.698 73.7414C208.974 97.1528 206.831 115.713 203.547 116.274 200.263 116.836 195.341 111.02 195.341 111.02 208.639 134.8 204.548 157.961 201.12 159.815 197.692 161.669 194.797 157.927 194.797 157.927 192.493 170.953 183.888 182.592 171.201 191.285 171.201 191.285 167.007 196.077 163.657 191.285 163.657 191.285 153.783 206.183 115.319 206.183 77.1054 206.188 66.9839 191.285 66.9839 191.285 63.6313 196.077 59.4394 191.285 59.4394 191.285 46.75 182.587 38.1478 170.949 35.8506 157.932 35.8506 157.932 32.9506 161.676 29.5252 159.82 26.0998 157.964 22.0057 134.8 35.3047 111.025 35.3047 111.025 30.3804 116.85 27.0983 116.279 23.8162 115.708 21.6737 97.1483 37.9477 73.746L62.7874 55.757C62.7874 55.757 62.0778 29.1454 87.261 39.9492 87.261 39.9492 77.6558 32.4662 83.8493 28.6268 94.5713 21.9785 115.317 40.7135 115.317 40.7135Z" stroke="#181243" stroke-width="8.95469" stroke-linecap="round" stroke-linejoin="round" stroke-miterlimit="4" stroke-opacity="1" fill="#181243" fill-rule="nonzero" fill-opacity="1" transform="matrix(1 0 0 1.00025 527.682 246.277)"/><path d="M115.317 40.7135C115.317 40.7135 136.065 21.9807 146.787 28.6245 152.98 32.4639 143.375 39.947 143.375 39.947 168.561 29.1317 167.858 55.7524 167.858 55.7524L192.698 73.7414C208.974 97.1528 206.831 115.713 203.547 116.274 200.263 116.836 195.341 111.02 195.341 111.02 208.639 134.8 204.548 157.961 201.12 159.815 197.692 161.669 194.797 157.927 194.797 157.927 192.493 170.953 183.888 182.592 171.201 191.285 171.201 191.285 167.007 196.077 163.657 191.285 163.657 191.285 153.783 206.183 115.319 206.183 77.1054 206.188 66.9839 191.285 66.9839 191.285 64.2431 195.675 59.4394 191.285 59.4394 191.285 46.75 182.587 38.1478 170.949 35.8506 157.932 35.8506 157.932 32.9506 161.676 29.5252 159.82 26.0998 157.964 22.0057 134.8 35.3047 111.025 35.3047 111.025 30.3804 116.85 27.0983 116.279 23.8162 115.708 21.6737 97.1483 37.9477 73.746L62.7874 55.757C62.7874 55.757 62.0778 29.1454 87.261 39.9492 87.261 39.9492 77.6558 32.4662 83.8493 28.6268 94.5713 21.9785 115.317 40.7135 115.317 40.7135Z" fill="#FFFFFF" fill-rule="nonzero" fill-opacity="1" transform="matrix(1 0 0 1.00025 527.682 246.277)"/><path d="M187.732 77.3101C207.177 65.692 212.033 37.5064 205.041 31.3198 202.119 28.736 196.626 29.3319 193.757 32.0363 193.757 32.0363 173.116 47.9714 163.418 50.8441 163.418 50.8441 181.794 73.746 187.732 77.3101Z" stroke="#181243" stroke-width="4.24193" stroke-linecap="round" stroke-linejoin="round" stroke-miterlimit="4" stroke-opacity="1" fill="#00A5E3" fill-rule="nonzero" fill-opacity="1" transform="matrix(1 0 0 1.00025 527.682 246.277)"/><path d="M180.256 68.2508C183.779 72.0788 187.061 75.3154 189.011 76.4822 208.455 64.8641 213.311 36.6785 206.319 30.4919 206.313 30.4919 203.112 56.6691 180.256 68.2508Z" fill="#2278B0" fill-rule="nonzero" fill-opacity="1" transform="matrix(1 0 0 1.00025 527.682 246.277)"/><path d="M187.732 77.1486C207.177 65.5305 212.033 37.3449 205.041 31.1606 202.119 28.5768 196.626 29.1727 193.757 31.8771 193.757 31.8771 173.116 47.8122 163.418 50.6826 163.418 50.6826 181.794 73.5845 187.732 77.1486Z" stroke="#181243" stroke-width="4.24193" stroke-linecap="round" stroke-linejoin="round" stroke-miterlimit="4" stroke-opacity="1" fill="none" fill-rule="nonzero" transform="matrix(1 0 0 1.00025 527.682 246.277)"/><path d="M192.017 77.3101C192.017 77.3101 188.879 68.5624 177.663 67.6662 177.663 67.6662 172.955 55.1065 163.311 50.1708L155.237 58.2453 181.477 87.1769Z" fill="#FFFFFF" fill-rule="nonzero" fill-opacity="1" transform="matrix(1 0 0 1.00025 527.682 246.277)"/><path d="M192.017 82.1093C192.017 82.1093 188.879 68.5579 177.663 67.6617 177.663 67.6617 171.495 50.1663 158.557 49.5817" stroke="#181243" stroke-width="4.24193" stroke-linecap="round" stroke-linejoin="round" stroke-miterlimit="4" stroke-opacity="1" fill="none" fill-rule="nonzero" transform="matrix(1 0 0 1.00025 527.682 246.277)"/><path d="M43.8477 77.3101C24.4053 65.692 19.5607 37.4973 26.5411 31.3198 29.4638 28.736 34.9567 29.3319 37.8249 32.0363 37.8249 32.0363 58.4636 47.9714 68.1644 50.8441 68.1644 50.8441 49.7887 73.746 43.8477 77.3101Z" stroke="#181243" stroke-width="4.24193" stroke-linecap="round" stroke-linejoin="round" stroke-miterlimit="4" stroke-opacity="1" fill="#00A5E3" fill-rule="nonzero" fill-opacity="1" transform="matrix(1 0 0 1.00025 527.682 246.277)"/><path d="M51.324 68.2508C47.7963 72.0788 44.521 75.3154 42.5763 76.4822 23.1339 64.8641 18.2778 36.6785 25.2696 30.4919 25.2696 30.4919 28.4721 56.6691 51.324 68.2508Z" fill="#2278B0" fill-rule="nonzero" fill-opacity="1" transform="matrix(1 0 0 1.00025 527.682 246.277)"/><path d="M43.8477 77.1486C24.4053 65.5305 19.5607 37.3381 26.5411 31.1606 29.4638 28.5768 34.9567 29.1727 37.8249 31.8771 37.8249 31.8771 58.4636 47.8122 68.1644 50.6826 68.1644 50.6826 49.7887 73.5845 43.8477 77.1486Z" stroke="#181243" stroke-width="4.24193" stroke-linecap="round" stroke-linejoin="round" stroke-miterlimit="4" stroke-opacity="1" fill="none" fill-rule="nonzero" transform="matrix(1 0 0 1.00025 527.682 246.277)"/><path d="M39.5762 77.3101C39.5762 77.3101 42.715 68.5624 53.9283 67.6662 53.9283 67.6662 58.6388 55.1065 68.2826 50.1708L76.3571 58.2453 50.1049 87.1769Z" fill="#FFFFFF" fill-rule="nonzero" fill-opacity="1" transform="matrix(1 0 0 1.00025 527.682 246.277)"/><path d="M39.5762 82.1093C39.5762 82.1093 42.715 68.5579 53.9283 67.6617 53.9283 67.6617 60.0967 50.1663 73.0341 49.5817" stroke="#181243" stroke-width="4.24193" stroke-linecap="round" stroke-linejoin="round" stroke-miterlimit="4" stroke-opacity="1" fill="none" fill-rule="nonzero" transform="matrix(1 0 0 1.00025 527.682 246.277)"/><path d="M115.783 194.924 115.783 194.924C146.434 195.12 162.788 176.835 162.788 176.835 162.788 176.835 162.333 181.962 166.593 181.402 181.689 179.408 186.295 144.512 186.509 145.113 187.846 149.032 190.621 145.147 190.621 145.147 196.237 135.323 186.768 109.344 186.768 109.344 188.831 111.569 190.635 111.619 190.88 108.275 191.69 96.773 176.096 84.8865 176.096 84.8865 176.096 84.8865 175.709 93.4317 159.915 90.095 146.992 87.3656 146.268 77.8378 146.268 77.8378 146.268 77.8378 128.909 87.998 115.815 69.9044 102.723 87.998 85.3641 77.8378 85.3641 77.8378 85.3641 77.8378 84.6317 87.3656 71.7171 90.095 55.923 93.4317 55.5364 84.8865 55.5364 84.8865 55.5364 84.8865 39.9333 96.773 40.7521 108.275 40.9796 111.625 42.7992 111.569 44.8644 109.344 44.8644 109.344 35.3957 135.323 41.0092 145.147 41.0092 145.147 43.7863 149.032 45.1237 145.113 45.3307 144.503 49.9366 179.399 65.0324 181.386 69.288 181.946 68.8376 176.819 68.8376 176.819 68.8376 176.819 85.1321 195.113 115.783 194.924" fill="#A2CEE3" fill-rule="nonzero" fill-opacity="1" transform="matrix(1 0 0 1.00025 527.682 246.277)"/><path d="M115.79 188.965C151.329 189.42 180.072 160.548 179.788 126.719 179.697 115.79 176.01 105.684 169.693 97.2028 169.693 97.2028 152.034 105.323 141.178 87.8524 141.178 87.8524 123.53 93.6296 115.79 80.3648 108.057 93.6296 90.4044 87.8524 90.4044 87.8524 79.5482 105.323 61.8868 97.2028 61.8868 97.2028 55.5728 105.684 51.879 115.79 51.7948 126.719 51.5105 160.548 80.251 189.422 115.79 188.965Z" fill="#00A5E3" fill-rule="nonzero" fill-opacity="1" transform="matrix(1 0 0 1.00025 527.682 246.277)"/><path d="M115.79 188.965C151.329 189.42 180.072 160.548 179.788 126.719 179.697 115.79 176.01 105.684 169.693 97.2028 169.693 97.2028 152.034 105.323 141.178 87.8524 141.178 87.8524 123.53 93.6296 115.79 80.3648 108.057 93.6296 90.4044 87.8524 90.4044 87.8524 79.5482 105.323 61.8868 97.2028 61.8868 97.2028 55.5728 105.684 51.879 115.79 51.7948 126.719 51.5105 160.548 80.251 189.422 115.79 188.965Z" stroke="#181243" stroke-width="4.24193" stroke-linecap="round" stroke-linejoin="round" stroke-miterlimit="4" stroke-opacity="1" fill="none" fill-rule="nonzero" transform="matrix(1 0 0 1.00025 527.682 246.277)"/><path d="M157.395 106.342C148.056 103.03 126.266 107.167 126.266 107.167 119.505 109.121 112.329 109.121 105.568 107.167 105.568 107.167 83.7788 103.03 74.4397 106.342 65.1006 109.653 64.5024 138.319 83.913 138.155 103.324 137.991 111.612 123.391 111.612 114.955L120.218 114.955C120.218 123.398 129.51 137.996 148.92 138.155 168.331 138.314 166.721 109.651 157.395 106.342Z" fill="#011C5C" fill-rule="nonzero" fill-opacity="1" transform="matrix(1 0 0 1.00025 527.682 246.277)"/><path d="M76.0839 121.109 109.825 121.109 109.825 123.158 76.0839 123.158Z" fill="#91C5F0" fill-rule="nonzero" fill-opacity="1" transform="matrix(0.32077 -0.947371 0.947129 0.320852 475.141 417.32)"/><path d="M69.731 119.43 103.472 119.43 103.472 123.335 69.731 123.335Z" fill="#91C5F0" fill-rule="nonzero" fill-opacity="1" transform="matrix(0.32077 -0.947371 0.947129 0.320852 471.538 410.79)"/><path d="M129.308 119.78 163.049 119.78 163.049 121.83 129.308 121.83Z" fill="#91C5F0" fill-rule="nonzero" fill-opacity="1" transform="matrix(0.32077 -0.947371 0.947129 0.320852 512.552 466.841)"/><path d="M122.958 118.099 156.699 118.099 156.699 122.005 122.958 122.005Z" fill="#91C5F0" fill-rule="nonzero" fill-opacity="1" transform="matrix(0.32077 -0.947371 0.947129 0.320852 508.949 460.312)"/><path d="M157.395 106.342C148.056 103.03 126.266 107.167 126.266 107.167 119.505 109.121 112.329 109.121 105.568 107.167 105.568 107.167 83.7788 103.03 74.4397 106.342 65.1006 109.653 64.5024 138.319 83.913 138.155 103.324 137.991 111.612 123.391 111.612 114.955L120.218 114.955C120.218 123.398 129.51 137.996 148.92 138.155 168.331 138.314 166.721 109.651 157.395 106.342Z" stroke="#181243" stroke-width="3.30029" stroke-linecap="round" stroke-linejoin="round" stroke-miterlimit="4" stroke-opacity="1" fill="none" fill-rule="nonzero" transform="matrix(1 0 0 1.00025 527.682 246.277)"/><path d="M116.111 170.36C138.817 170.36 155.077 156.349 147.615 147.076 141.039 138.901 129.316 150.13 116.111 149.764 102.905 150.13 91.1823 138.901 84.6067 147.076 77.1463 156.349 93.4067 170.36 116.111 170.36Z" stroke="#181243" stroke-width="2.40187" stroke-linecap="round" stroke-linejoin="round" stroke-miterlimit="4" stroke-opacity="1" fill="#9E255A" fill-rule="nonzero" fill-opacity="1" transform="matrix(1 0 0 1.00025 527.682 246.277)"/><path d="M99.7844 152.453C97.685 151.088 92.5697 158.917 90.5477 162.206 90.0223 163.061 89.7038 163.614 89.7038 163.614 93.1291 166.07 96.812 168.145 100.687 169.802 100.915 169.305 101.142 168.826 101.37 168.365 101.37 168.201 101.386 168.026 101.395 167.842 101.606 163.409 101.813 153.774 99.7844 152.453Z" fill="#FFFFFF" fill-rule="nonzero" fill-opacity="1" transform="matrix(1 0 0 1.00025 527.682 246.277)"/><path d="M141.521 161.96C139.406 158.548 134.486 151.12 132.437 152.453 130.429 153.763 130.617 163.234 130.818 167.719 130.881 169.141 130.95 170.066 130.95 170.066 135.04 168.365 138.921 166.2 142.518 163.614 142.518 163.614 142.138 162.954 141.521 161.96Z" fill="#FFFFFF" fill-rule="nonzero" fill-opacity="1" transform="matrix(1 0 0 1.00025 527.682 246.277)"/><path d="M116.111 170.36C138.817 170.36 155.077 156.349 147.615 147.076 141.039 138.901 129.316 150.13 116.111 149.764 102.905 150.13 91.1823 138.901 84.6067 147.076 77.1463 156.349 93.4067 170.36 116.111 170.36Z" stroke="#181243" stroke-width="3.94625" stroke-linecap="round" stroke-linejoin="round" stroke-miterlimit="4" stroke-opacity="1" fill="none" fill-rule="nonzero" transform="matrix(1 0 0 1.00025 527.682 246.277)"/></g></g></g></g></svg>