<svg width="100" height="100" viewBox="0 0 100 100" fill="none" xmlns="http://www.w3.org/2000/svg">
<circle cx="50" cy="50" r="50" fill="url(#paint0_linear)"/>
<path d="M32.0864 47.3335H34.0312C34.0312 40.8852 33.9036 37.4031 36.7411 33.0827H29.3765C32.2139 37.4031 32.0864 40.8852 32.0864 47.3335Z" fill="white"/>
<path d="M33.0449 35.2429C35.3868 35.2429 37.2852 33.323 37.2852 30.9548C37.2852 28.5865 35.3868 26.6666 33.0449 26.6666C30.7031 26.6666 28.8047 28.5865 28.8047 30.9548C28.8047 33.323 30.7031 35.2429 33.0449 35.2429Z" fill="white"/>
<path d="M33.0428 71.8051C36.5643 71.8051 39.4191 68.9181 39.4191 65.3568C39.4191 61.7955 36.5643 58.9085 33.0428 58.9085C29.5213 58.9085 26.6665 61.7955 26.6665 65.3568C26.6665 68.9181 29.5213 71.8051 33.0428 71.8051Z" fill="white"/>
<path d="M34.0299 47.3337H32.0852C32.0852 53.782 30.7461 57.2641 27.9087 61.5844H38.2064C35.369 57.2318 34.0299 53.7497 34.0299 47.3337Z" fill="white"/>
<path d="M68.0458 51.1703H66.101C66.101 57.6187 66.2286 61.1008 63.3911 65.4211H70.7557C67.9502 61.0685 68.0458 57.5864 68.0458 51.1703Z" fill="white"/>
<path d="M67.0894 71.8049C69.4312 71.8049 71.3296 69.885 71.3296 67.5167C71.3296 65.1485 69.4312 63.2286 67.0894 63.2286C64.7475 63.2286 62.8491 65.1485 62.8491 67.5167C62.8491 69.885 64.7475 71.8049 67.0894 71.8049Z" fill="white"/>
<path d="M67.0911 39.5633C70.6127 39.5633 73.4674 36.6763 73.4674 33.115C73.4674 29.5537 70.6127 26.6666 67.0911 26.6666C63.5696 26.6666 60.7148 29.5537 60.7148 33.115C60.7148 36.6763 63.5696 39.5633 67.0911 39.5633Z" fill="white"/>
<path d="M66.132 51.1702H68.0768C68.0768 44.7219 69.4158 41.2398 72.2533 36.9194H61.9556C64.7611 41.2398 66.132 44.7219 66.132 51.1702Z" fill="white"/>
<path d="M50.0669 54.5558C53.5533 54.5558 56.3795 51.6976 56.3795 48.1719C56.3795 44.6462 53.5533 41.7881 50.0669 41.7881C46.5806 41.7881 43.7544 44.6462 43.7544 48.1719C43.7544 51.6976 46.5806 54.5558 50.0669 54.5558Z" fill="white"/>
<defs>
<linearGradient id="paint0_linear" x1="5.20479" y1="76.7681" x2="91.1817" y2="14.7667" gradientUnits="userSpaceOnUse">
<stop offset="0.0363128" stop-color="#92FE9D"/>
<stop offset="1" stop-color="#00C9FF"/>
</linearGradient>
</defs>
</svg>
