<svg width="834" height="834" xmlns="http://www.w3.org/2000/svg" xmlns:xlink="http://www.w3.org/1999/xlink" overflow="hidden"><defs><clipPath id="clip0"><rect x="-2296" y="742" width="834" height="834"/></clipPath><clipPath id="clip1"><rect x="-2261" y="786" width="764" height="764"/></clipPath><clipPath id="clip2"><rect x="-2261" y="786" width="764" height="764"/></clipPath><clipPath id="clip3"><rect x="-2261" y="786" width="764" height="764"/></clipPath><linearGradient x1="-2000.08" y1="975.269" x2="-1757.81" y2="975.269" gradientUnits="userSpaceOnUse" spreadMethod="pad" id="fill4"><stop offset="0" stop-color="#77FFFF" stop-opacity="1"/><stop offset="1" stop-color="#77FFFF" stop-opacity="1"/></linearGradient><linearGradient x1="-1878.5" y1="1432.45" x2="-1878.5" y2="936.666" gradientUnits="userSpaceOnUse" spreadMethod="pad" id="fill5"><stop offset="0" stop-color="#3D1616" stop-opacity="1"/><stop offset="1" stop-color="#832B2B" stop-opacity="1"/></linearGradient><linearGradient x1="-1888.93" y1="1092.89" x2="-1785.99" y2="992.309" gradientUnits="userSpaceOnUse" spreadMethod="pad" id="fill6"><stop offset="0" stop-color="#2EBAFF" stop-opacity="1"/><stop offset="1" stop-color="#39D5FF" stop-opacity="1"/></linearGradient><linearGradient x1="-1962.71" y1="996.169" x2="-1879.89" y2="1082.55" gradientUnits="userSpaceOnUse" spreadMethod="pad" id="fill7"><stop offset="0" stop-color="#17BFFF" stop-opacity="1"/><stop offset="1" stop-color="#36D5FF" stop-opacity="1"/></linearGradient><linearGradient x1="-1959.12" y1="994.883" x2="-1884.58" y2="870.643" gradientUnits="userSpaceOnUse" spreadMethod="pad" id="fill8"><stop offset="0" stop-color="#0580FF" stop-opacity="1"/><stop offset="1" stop-color="#4AFFFF" stop-opacity="1"/></linearGradient><linearGradient x1="-1874.95" y1="1046.31" x2="-1874.95" y2="901.955" gradientUnits="userSpaceOnUse" spreadMethod="pad" id="fill9"><stop offset="0" stop-color="#0A59E2" stop-opacity="1"/><stop offset="0.2804" stop-color="#0A59E2" stop-opacity="1"/><stop offset="1" stop-color="#41DDFF" stop-opacity="1"/></linearGradient><linearGradient x1="-1843.8" y1="978.308" x2="-1861.94" y2="871.027" gradientUnits="userSpaceOnUse" spreadMethod="pad" id="fill10"><stop offset="0" stop-color="#BBFFFF" stop-opacity="1"/><stop offset="0.9217" stop-color="#FDFFFF" stop-opacity="1"/><stop offset="1" stop-color="#FDFFFF" stop-opacity="1"/></linearGradient><linearGradient x1="-1849.67" y1="957.009" x2="-1829.16" y2="893.902" gradientUnits="userSpaceOnUse" spreadMethod="pad" id="fill11"><stop offset="0" stop-color="#BBFFFF" stop-opacity="1"/><stop offset="0.307" stop-color="#BBFFFF" stop-opacity="1"/><stop offset="1" stop-color="#FDFFFF" stop-opacity="1"/></linearGradient><linearGradient x1="-1791.43" y1="1008.99" x2="-1836.39" y2="900.126" gradientUnits="userSpaceOnUse" spreadMethod="pad" id="fill12"><stop offset="0" stop-color="#BBFFFF" stop-opacity="1"/><stop offset="0.307" stop-color="#BBFFFF" stop-opacity="1"/><stop offset="1" stop-color="#FDFFFF" stop-opacity="1"/></linearGradient><linearGradient x1="-1878.08" y1="1182.73" x2="-1688.76" y2="983.946" gradientUnits="userSpaceOnUse" spreadMethod="pad" id="fill13"><stop offset="0" stop-color="#FFC64D" stop-opacity="1"/><stop offset="1" stop-color="#FFE754" stop-opacity="1"/></linearGradient><linearGradient x1="-1685.63" y1="1409.37" x2="-1685.63" y2="965.064" gradientUnits="userSpaceOnUse" spreadMethod="pad" id="fill14"><stop offset="0" stop-color="#FFC64D" stop-opacity="1"/><stop offset="1" stop-color="#FFF6A9" stop-opacity="1"/></linearGradient><linearGradient x1="-2071.67" y1="1409.37" x2="-2071.67" y2="965.064" gradientUnits="userSpaceOnUse" spreadMethod="pad" id="fill15"><stop offset="0" stop-color="#FF8119" stop-opacity="1"/><stop offset="1" stop-color="#B9691F" stop-opacity="1"/></linearGradient><linearGradient x1="-1878.5" y1="1014.76" x2="-1878.5" y2="1362.04" gradientUnits="userSpaceOnUse" spreadMethod="pad" id="fill16"><stop offset="0" stop-color="#BC8644" stop-opacity="1"/><stop offset="1" stop-color="#7C2A10" stop-opacity="1"/></linearGradient><linearGradient x1="-1778.81" y1="1316.19" x2="-1778.81" y2="1133.08" gradientUnits="userSpaceOnUse" spreadMethod="pad" id="fill17"><stop offset="0" stop-color="#DC6118" stop-opacity="1"/><stop offset="1" stop-color="#C56119" stop-opacity="1"/></linearGradient><linearGradient x1="-1804.33" y1="1338.6" x2="-1767.94" y2="1302.21" gradientUnits="userSpaceOnUse" spreadMethod="pad" id="fill18"><stop offset="0" stop-color="#E97325" stop-opacity="1"/><stop offset="1" stop-color="#DE6B22" stop-opacity="1"/></linearGradient><linearGradient x1="-1784.73" y1="1330.93" x2="-1669.36" y2="1389.5" gradientUnits="userSpaceOnUse" spreadMethod="pad" id="fill19"><stop offset="0" stop-color="#B94810" stop-opacity="1"/><stop offset="1" stop-color="#D55113" stop-opacity="1"/></linearGradient><linearGradient x1="-1886.49" y1="1266.49" x2="-1761.07" y2="1141.07" gradientUnits="userSpaceOnUse" spreadMethod="pad" id="fill20"><stop offset="0" stop-color="#F27E1E" stop-opacity="1"/><stop offset="1" stop-color="#FC9929" stop-opacity="1"/></linearGradient><linearGradient x1="-1869.87" y1="1265.85" x2="-1998.16" y2="1137.57" gradientUnits="userSpaceOnUse" spreadMethod="pad" id="fill21"><stop offset="0" stop-color="#CD5C13" stop-opacity="1"/><stop offset="1" stop-color="#DD751E" stop-opacity="1"/></linearGradient><linearGradient x1="-1976.76" y1="1317.08" x2="-1976.76" y2="1128.94" gradientUnits="userSpaceOnUse" spreadMethod="pad" id="fill22"><stop offset="0" stop-color="#FFBF4D" stop-opacity="1"/><stop offset="1" stop-color="#FFF784" stop-opacity="1"/></linearGradient></defs><g clip-path="url(#clip0)" transform="translate(2296 -742)"><path d="M-2290.5 1161C-2290.5 933.182-2105.82 748.5-1878 748.5-1650.18 748.5-1465.5 933.182-1465.5 1161-1465.5 1388.82-1650.18 1573.5-1878 1573.5-2105.82 1573.5-2290.5 1388.82-2290.5 1161Z" stroke="#FFFFFF" stroke-width="4.58333" stroke-linecap="butt" stroke-linejoin="miter" stroke-miterlimit="8" stroke-opacity="1" fill="#FFFFFF" fill-rule="evenodd" fill-opacity="1"/><g clip-path="url(#clip1)"><g clip-path="url(#clip2)"><g clip-path="url(#clip3)"><path d="M-1878.79 831.945-1835.32 894.961-1816.39 878.088-1757.81 1005.26-1878.5 1118.6-2000.08 998.783Z" fill="url(#fill4)" fill-rule="nonzero"/><path d="M-1878.79 1150.83-1668.48 936.671-1668.48 1327.14-1649.55 1432.44-1819.94 1345.49-1807.5 1321.22-1806.91 1223.01-1878.79 1295.18-1950.09 1223.01-1950.09 1320.63-1938.26 1345.49-2107.45 1432.44-2088.52 1326.55-2089.13 936.671Z" fill="url(#fill5)" fill-rule="nonzero"/><path d="M-1769.05 1005.26-1816.39 1006.47-1878.5 1053.21-1878.5 1109.41Z" fill="url(#fill6)" fill-rule="nonzero"/><path d="M-1989.53 998.993-1933.53 998.783-1878.5 1053.21-1878.5 1109.41Z" fill="url(#fill7)" fill-rule="nonzero"/><path d="M-1878.79 847.137-1878.79 875.735-1933.53 998.783-1989.53 998.993Z" fill="url(#fill8)" fill-rule="nonzero"/><path d="M-1878.79 875.735-1863.12 965.058-1835.32 946.126-1816.39 1006.47-1878.5 1053.21-1933.53 998.783Z" fill="url(#fill9)" fill-rule="nonzero"/><path d="M-1878.79 847.137-1838.47 905.509-1863.12 965.058-1878.79 875.735Z" fill="url(#fill10)" fill-rule="nonzero"/><path d="M-1838.47 905.509-1818.74 892.881-1835.32 946.126-1863.12 965.058Z" fill="url(#fill11)" fill-rule="nonzero"/><path d="M-1818.74 892.881-1769.05 1005.26-1816.39 1006.47-1835.32 946.126Z" fill="url(#fill12)" fill-rule="nonzero"/><path d="M-1818.74 892.881-1816.05 898.975-1835.32 946.126Z" fill="#FFFFFF" fill-rule="nonzero" fill-opacity="1"/><path d="M-1878.5 1168.18-1679.11 965.058-1705.74 1014.75-1878.5 1198.17Z" fill="url(#fill13)" fill-rule="nonzero"/><path d="M-1679.11 965.058-1679.11 1321.22-1665.52 1409.36-1695.1 1362.04-1703.38 1325.36-1705.74 1014.75Z" fill="url(#fill14)" fill-rule="nonzero"/><path d="M-2077.89 965.058-1878.5 1168.18-1878.5 1198.17-2052.44 1015.36Z" fill="#FEFF97" fill-rule="nonzero" fill-opacity="1"/><path d="M-2077.89 965.058-2052.44 1015.36-2053.03 1320.04-2061.9 1360.87-2090.89 1409.36-2077.89 1323.59Z" fill="url(#fill15)" fill-rule="nonzero"/><path d="M-2061.9 1360.87-1982.03 1317.67-1989.53 1303.46-1989.53 1128.93-1878.5 1247.28-1769.05 1133.09-1766.08 1304.07-1774.38 1318.25-1695.1 1362.04-1703.38 1325.36-1705.74 1014.75-1878.5 1198.17-2052.44 1015.36-2053.03 1320.04Z" fill="url(#fill16)" fill-rule="nonzero"/><path d="M-1769.05 1133.09-1791.53 1184.55-1791.53 1316.2-1766.08 1304.07Z" fill="url(#fill17)" fill-rule="nonzero"/><path d="M-1791.53 1316.2-1804.56 1338.38-1774.38 1318.25-1766.08 1304.07Z" fill="url(#fill18)" fill-rule="nonzero"/><path d="M-1774.38 1318.25-1695.1 1362.04-1665.52 1409.36-1804.56 1338.38Z" fill="url(#fill19)" fill-rule="nonzero"/><path d="M-1769.05 1133.09-1791.53 1184.55-1878.5 1274.49-1878.5 1247.28Z" fill="url(#fill20)" fill-rule="nonzero"/><path d="M-1989.53 1128.93-1878.5 1247.28-1878.5 1274.49-1964 1185.73Z" fill="url(#fill21)" fill-rule="nonzero"/><path d="M-1989.53 1128.93-1964 1185.73-1964 1317.08-1989.53 1303.46Z" fill="url(#fill22)" fill-rule="nonzero"/><path d="M-1989.53 1303.46-1964 1317.08-1953.93 1338.38-1982.03 1317.67Z" fill="#FFE35C" fill-rule="nonzero" fill-opacity="1"/><path d="M-2061.9 1360.87-1982.03 1317.67-1953.93 1338.38-2090.89 1409.36Z" fill="#F46814" fill-rule="nonzero" fill-opacity="1"/></g></g></g></g></svg>