<?xml version="1.0" encoding="utf-8"?>
<!-- Generator: Adobe Illustrator 24.2.0, SVG Export Plug-In . SVG Version: 6.00 Build 0)  -->
<svg version="1.1" id="Layer_1" xmlns="http://www.w3.org/2000/svg" xmlns:xlink="http://www.w3.org/1999/xlink" x="0px" y="0px"
	 viewBox="0 0 363.12 363.12" style="enable-background:new 0 0 363.12 363.12;" xml:space="preserve">
<style type="text/css">
	.st0{fill:url(#SVGID_1_);}
	.st1{fill:url(#SVGID_2_);}
	.st2{fill:url(#SVGID_3_);}
	.st3{fill:url(#SVGID_4_);}
	.st4{fill:url(#SVGID_5_);}
	.st5{fill:url(#SVGID_6_);}
	.st6{fill:url(#SVGID_7_);}
	.st7{fill:url(#SVGID_8_);}
	.st8{fill:url(#SVGID_9_);}
	.st9{fill:#FFFFFF;}
	.st10{fill:url(#SVGID_10_);}
	.st11{fill:url(#SVGID_11_);}
	.st12{fill:#FEFF97;}
	.st13{fill:url(#SVGID_12_);}
	.st14{fill:url(#SVGID_13_);}
	.st15{fill:url(#SVGID_14_);}
	.st16{fill:url(#SVGID_15_);}
	.st17{fill:url(#SVGID_16_);}
	.st18{fill:url(#SVGID_17_);}
	.st19{fill:url(#SVGID_18_);}
	.st20{fill:url(#SVGID_19_);}
	.st21{fill:#FFE35C;}
	.st22{fill:#F46814;}
</style>
<g>
	<linearGradient id="SVGID_1_" gradientUnits="userSpaceOnUse" x1="123.6995" y1="89.5994" x2="238.9982" y2="89.5994">
		<stop  offset="0" style="stop-color:#77FFFF"/>
		<stop  offset="1" style="stop-color:#77FFFF"/>
	</linearGradient>
	<polygon class="st0" points="181.42,21.39 202.11,51.38 211.12,43.35 239,103.87 181.56,157.81 123.7,100.79 	"/>
	<linearGradient id="SVGID_2_" gradientUnits="userSpaceOnUse" x1="181.56" y1="307.1746" x2="181.56" y2="71.2276">
		<stop  offset="0" style="stop-color:#3D1616"/>
		<stop  offset="1" style="stop-color:#832B2B"/>
	</linearGradient>
	<polygon class="st1" points="181.42,173.15 281.51,71.23 281.51,257.06 290.52,307.17 209.43,265.79 215.35,254.24 215.63,207.5 
		181.42,241.85 147.49,207.5 147.49,253.96 153.12,265.79 72.6,307.17 81.61,256.78 81.32,71.23 	"/>
	<linearGradient id="SVGID_3_" gradientUnits="userSpaceOnUse" x1="176.5969" y1="145.5741" x2="225.5883" y2="97.7089">
		<stop  offset="0" style="stop-color:#2EBAFF"/>
		<stop  offset="1" style="stop-color:#39D5FF"/>
	</linearGradient>
	<polygon class="st2" points="233.65,103.87 211.12,104.45 181.56,126.69 181.56,153.44 	"/>
	<linearGradient id="SVGID_4_" gradientUnits="userSpaceOnUse" x1="141.4816" y1="99.5459" x2="180.8999" y2="140.6537">
		<stop  offset="0" style="stop-color:#17BFFF"/>
		<stop  offset="1" style="stop-color:#36D5FF"/>
	</linearGradient>
	<polygon class="st3" points="128.72,100.89 155.37,100.79 181.56,126.69 181.56,153.44 	"/>
	<linearGradient id="SVGID_5_" gradientUnits="userSpaceOnUse" x1="143.1904" y1="98.934" x2="178.6669" y2="39.8065">
		<stop  offset="0" style="stop-color:#0580FF"/>
		<stop  offset="1" style="stop-color:#4AFFFF"/>
	</linearGradient>
	<polygon class="st4" points="181.42,28.62 181.42,42.23 155.37,100.79 128.72,100.89 	"/>
	<linearGradient id="SVGID_6_" gradientUnits="userSpaceOnUse" x1="183.2494" y1="123.41" x2="183.2494" y2="54.7084">
		<stop  offset="0.2804" style="stop-color:#0A59E2"/>
		<stop  offset="1" style="stop-color:#41DDFF"/>
	</linearGradient>
	<polygon class="st5" points="181.42,42.23 188.88,84.74 202.11,75.73 211.12,104.45 181.56,126.69 155.37,100.79 	"/>
	<linearGradient id="SVGID_7_" gradientUnits="userSpaceOnUse" x1="198.0744" y1="91.0455" x2="189.4399" y2="39.9894">
		<stop  offset="0" style="stop-color:#BBFFFF"/>
		<stop  offset="0.9217" style="stop-color:#FDFFFF"/>
	</linearGradient>
	<polygon class="st6" points="181.42,28.62 200.61,56.4 188.88,84.74 181.42,42.23 	"/>
	<linearGradient id="SVGID_8_" gradientUnits="userSpaceOnUse" x1="195.2789" y1="80.9092" x2="205.0396" y2="50.8761">
		<stop  offset="0.307" style="stop-color:#BBFFFF"/>
		<stop  offset="1" style="stop-color:#FDFFFF"/>
	</linearGradient>
	<polygon class="st7" points="200.61,56.4 210,50.39 202.11,75.73 188.88,84.74 	"/>
	<linearGradient id="SVGID_9_" gradientUnits="userSpaceOnUse" x1="222.9987" y1="105.6452" x2="201.6002" y2="53.8382">
		<stop  offset="0.307" style="stop-color:#BBFFFF"/>
		<stop  offset="1" style="stop-color:#FDFFFF"/>
	</linearGradient>
	<polygon class="st8" points="210,50.39 233.65,103.87 211.12,104.45 202.11,75.73 	"/>
	<polygon class="st9" points="210,50.39 211.28,53.29 202.11,75.73 	"/>
	<linearGradient id="SVGID_10_" gradientUnits="userSpaceOnUse" x1="181.7604" y1="188.3328" x2="271.8595" y2="93.7287">
		<stop  offset="0" style="stop-color:#FFC64D"/>
		<stop  offset="1" style="stop-color:#FFE754"/>
	</linearGradient>
	<polygon class="st10" points="181.56,181.41 276.45,84.74 263.78,108.39 181.56,195.68 	"/>
	<linearGradient id="SVGID_11_" gradientUnits="userSpaceOnUse" x1="273.3484" y1="296.1938" x2="273.3484" y2="84.7425">
		<stop  offset="0" style="stop-color:#FFC64D"/>
		<stop  offset="1" style="stop-color:#FFF6A9"/>
	</linearGradient>
	<polygon class="st11" points="276.45,84.74 276.45,254.24 282.92,296.19 268.84,273.67 264.9,256.21 263.78,108.39 	"/>
	<polygon class="st12" points="86.67,84.74 181.56,181.41 181.56,195.68 98.78,108.68 	"/>
	<linearGradient id="SVGID_12_" gradientUnits="userSpaceOnUse" x1="89.6308" y1="296.1938" x2="89.6308" y2="84.7425">
		<stop  offset="0" style="stop-color:#FF8119"/>
		<stop  offset="1" style="stop-color:#B9691F"/>
	</linearGradient>
	<polygon class="st13" points="86.67,84.74 98.78,108.68 98.5,253.68 94.28,273.11 80.48,296.19 86.67,255.37 	"/>
	<linearGradient id="SVGID_13_" gradientUnits="userSpaceOnUse" x1="181.56" y1="108.3935" x2="181.56" y2="273.669">
		<stop  offset="0" style="stop-color:#BC8644"/>
		<stop  offset="1" style="stop-color:#7C2A10"/>
	</linearGradient>
	<polygon class="st14" points="94.28,273.11 132.29,252.55 128.72,245.79 128.72,162.73 181.56,219.05 233.65,164.71 235.06,246.08 
		231.11,252.83 268.84,273.67 264.9,256.21 263.78,108.39 181.56,195.68 98.78,108.68 98.5,253.68 	"/>
	<linearGradient id="SVGID_14_" gradientUnits="userSpaceOnUse" x1="229.0028" y1="251.8481" x2="229.0028" y2="164.7054">
		<stop  offset="0" style="stop-color:#DC6118"/>
		<stop  offset="1" style="stop-color:#C56119"/>
	</linearGradient>
	<polygon class="st15" points="233.65,164.71 222.95,189.2 222.95,251.85 235.06,246.08 	"/>
	<linearGradient id="SVGID_15_" gradientUnits="userSpaceOnUse" x1="216.8605" y1="262.5122" x2="234.1765" y2="245.1963">
		<stop  offset="0" style="stop-color:#E97325"/>
		<stop  offset="1" style="stop-color:#DE6B22"/>
	</linearGradient>
	<polygon class="st16" points="222.95,251.85 216.75,262.41 231.11,252.83 235.06,246.08 	"/>
	<linearGradient id="SVGID_16_" gradientUnits="userSpaceOnUse" x1="226.1874" y1="258.8612" x2="281.0915" y2="286.7356">
		<stop  offset="0" style="stop-color:#B94810"/>
		<stop  offset="1" style="stop-color:#D55113"/>
	</linearGradient>
	<polygon class="st17" points="231.11,252.83 268.84,273.67 282.92,296.19 216.75,262.41 	"/>
	<linearGradient id="SVGID_17_" gradientUnits="userSpaceOnUse" x1="177.7583" y1="228.1965" x2="237.4478" y2="168.5071">
		<stop  offset="0" style="stop-color:#F27E1E"/>
		<stop  offset="1" style="stop-color:#FC9929"/>
	</linearGradient>
	<polygon class="st18" points="233.65,164.71 222.95,189.2 181.56,232 181.56,219.05 	"/>
	<linearGradient id="SVGID_18_" gradientUnits="userSpaceOnUse" x1="185.6661" y1="227.8921" x2="124.6146" y2="166.8406">
		<stop  offset="0" style="stop-color:#CD5C13"/>
		<stop  offset="1" style="stop-color:#DD751E"/>
	</linearGradient>
	<polygon class="st19" points="128.72,162.73 181.56,219.05 181.56,232 140.87,189.76 	"/>
	<linearGradient id="SVGID_19_" gradientUnits="userSpaceOnUse" x1="134.7976" y1="252.2705" x2="134.7976" y2="162.7345">
		<stop  offset="0" style="stop-color:#FFBF4D"/>
		<stop  offset="1" style="stop-color:#FFF784"/>
	</linearGradient>
	<polygon class="st20" points="128.72,162.73 140.87,189.76 140.87,252.27 128.72,245.79 	"/>
	<polygon class="st21" points="128.72,245.79 140.87,252.27 145.66,262.41 132.29,252.55 	"/>
	<polygon class="st22" points="94.28,273.11 132.29,252.55 145.66,262.41 80.48,296.19 	"/>
</g>
</svg>
