<svg width="834" height="834" xmlns="http://www.w3.org/2000/svg" xmlns:xlink="http://www.w3.org/1999/xlink" overflow="hidden"><defs><clipPath id="clip0"><rect x="-2296" y="742" width="834" height="834"/></clipPath><clipPath id="clip1"><rect x="-2142" y="869" width="511" height="583"/></clipPath><clipPath id="clip2"><rect x="-2142" y="869" width="511" height="583"/></clipPath><clipPath id="clip3"><rect x="-2142" y="869" width="511" height="583"/></clipPath></defs><g clip-path="url(#clip0)" transform="translate(2296 -742)"><path d="M-2290.5 1161C-2290.5 933.182-2105.82 748.5-1878 748.5-1650.18 748.5-1465.5 933.182-1465.5 1161-1465.5 1388.82-1650.18 1573.5-1878 1573.5-2105.82 1573.5-2290.5 1388.82-2290.5 1161Z" stroke="#FFFFFF" stroke-width="4.58333" stroke-linecap="butt" stroke-linejoin="miter" stroke-miterlimit="8" stroke-opacity="1" fill="#FFFFFF" fill-rule="evenodd" fill-opacity="1"/><g clip-path="url(#clip1)"><g clip-path="url(#clip2)"><g clip-path="url(#clip3)"><path d="M0 163.597 0 434.915 78.5582 480.202 78.5582 286.116 156.836 331.327 156.836 525.286 235.419 570.574 235.419 299.23 0 163.597Z" fill="#2AC98B" fill-rule="evenodd" fill-opacity="1" transform="matrix(1 0 0 1.00079 -2141.86 869)"/><path d="M178.446 138.772 257.157 92.642 354.953 149.87 276.293 195.796ZM257.259 0 19.9776 138.823 275.859 288.846 275.859 582.54 353.473 537.329 353.473 240.216 431.904 194.29 431.904 491.148 510.666 444.789 510.666 148.263Z" fill="#2AC98B" fill-rule="evenodd" fill-opacity="1" transform="matrix(1 0 0 1.00079 -2141.86 869)"/></g></g></g></g></svg>