<svg width="834" height="834" xmlns="http://www.w3.org/2000/svg" xmlns:xlink="http://www.w3.org/1999/xlink" overflow="hidden"><defs><clipPath id="clip0"><rect x="-2296" y="742" width="834" height="834"/></clipPath><clipPath id="clip1"><rect x="-2214" y="822" width="637" height="644"/></clipPath><clipPath id="clip2"><rect x="-2214" y="822" width="637" height="644"/></clipPath><clipPath id="clip3"><rect x="-2214" y="822" width="637" height="644"/></clipPath><linearGradient x1="704.698" y1="642.427" x2="25.0271" y2="94.2015" gradientUnits="userSpaceOnUse" spreadMethod="pad" id="fill4"><stop offset="0" stop-color="#E71D73" stop-opacity="1"/><stop offset="0.3204" stop-color="#82368C" stop-opacity="1"/><stop offset="0.3595" stop-color="#6A3489" stop-opacity="1"/><stop offset="0.4129" stop-color="#4F3187" stop-opacity="1"/><stop offset="0.4675" stop-color="#3C2F85" stop-opacity="1"/><stop offset="0.5235" stop-color="#312E83" stop-opacity="1"/><stop offset="0.5832" stop-color="#2D2E83" stop-opacity="1"/><stop offset="0.6135" stop-color="#2D2E83" stop-opacity="1"/><stop offset="0.8046" stop-color="#2D2E83" stop-opacity="1"/><stop offset="1" stop-color="#36A9E1" stop-opacity="1"/></linearGradient></defs><g clip-path="url(#clip0)" transform="translate(2296 -742)"><path d="M-2290.5 1161C-2290.5 933.182-2105.82 748.5-1878 748.5-1650.18 748.5-1465.5 933.182-1465.5 1161-1465.5 1388.82-1650.18 1573.5-1878 1573.5-2105.82 1573.5-2290.5 1388.82-2290.5 1161Z" stroke="#FFFFFF" stroke-width="4.58333" stroke-linecap="butt" stroke-linejoin="miter" stroke-miterlimit="8" stroke-opacity="1" fill="#E7E6E6" fill-rule="evenodd" fill-opacity="1"/><g clip-path="url(#clip1)"><g clip-path="url(#clip2)"><g clip-path="url(#clip3)"><path d="M574.045 210.013C569.073 195.939 563.185 182.318 556.563 168.955 550.739 157.2 548.15 144.118 543.944 131.758 538.023 114.341 528.619 98.9941 517.112 84.7042 503.706 68.0524 487.647 53.4928 469.896 41.5971 454.689 31.4055 437.627 22.605 419.876 17.8705 396.559 11.6584 371.754 9.64165 347.703 9.27497 312.307 8.73572 276.48 12.8879 242.519 23.0472 203.24 34.8027 166.475 55.0027 137.291 84.0247 109.747 111.407 88.522 145.822 72.7114 181.11 62.7678 203.305 54.7978 226.341 49.0495 249.982 42.6972 276.135 39.6559 302.666 37.4773 329.445 35.4821 354.099 33.9291 378.818 33.9723 403.558 34.0262 429.754 35.989 455.875 39.8176 481.791 41.8775 495.747 44.509 509.605 47.5719 523.367 47.8308 524.553 48.4887 525.556 49.3514 526.333 49.3622 526.344 49.373 526.354 49.3946 526.365 49.5024 526.462 49.6103 526.548 49.7181 526.635 49.977 526.84 50.2466 527.044 50.5486 527.228 56.793 531.003 63.9757 533.505 70.7378 536.158 82.7197 540.871 94.8527 545.195 107.018 549.401 123.573 555.128 140.225 560.575 156.93 565.848 176.71 572.082 196.575 578.057 216.516 583.773 238.205 589.985 259.969 595.906 281.83 601.46 304.1 607.122 326.457 612.417 348.922 617.195 370.459 621.779 392.094 625.898 413.858 629.252 433.788 632.326 453.826 634.85 473.951 636.122 490.193 637.147 506.596 637.449 522.806 635.734 535.737 634.365 548.884 631.949 560.521 625.877 562.624 624.777 564.651 623.536 566.56 622.124 566.646 622.059 566.733 621.983 566.819 621.919 568.124 621.121 569.138 619.87 569.537 618.252 573.247 603.38 572.47 587.817 569.127 572.945 566.215 560.025 560.143 548.14 555.387 535.845 553.004 529.687 550.965 523.378 549.844 516.874 560.887 514.081 570.4 507.341 576.428 497.311 579.879 491.552 582.489 484.908 584.269 478.437 585.132 475.31 585.725 471.977 585.52 468.731 585.412 467.016 585.142 465.258 584.592 463.63 584.355 462.939 584.042 462.271 583.73 461.613 583.622 461.3 583.503 461.009 583.352 460.729 583.277 460.502 583.126 460.103 583.072 459.898 583.029 459.758 582.996 459.661 582.964 459.585 582.975 459.488 582.985 459.359 582.996 459.175 583.018 458.733 582.985 458.291 583.007 457.86 583.061 456.35 583.007 456.9 583.309 455.336 583.848 452.532 584.679 449.782 585.531 447.053 587.321 441.348 588.82 435.718 590.006 429.852 593.026 414.925 595.183 399.805 596.531 384.631 601.73 325.616 593.749 265.803 574.045 210.013ZM422.41 92.5771C391.943 91.5202 361.389 97.6675 332.605 107.32 296.098 119.572 261.586 137.474 229.07 157.966 196.316 178.608 165.332 202.022 135.76 227.021 143.546 215.017 151.549 203.143 160.133 191.701 160.727 190.913 161.32 190.126 161.924 189.339 162.204 188.972 162.474 188.605 162.754 188.249 162.916 188.045 163.067 187.84 163.229 187.635 164.48 186.028 165.731 184.421 167.003 182.835 169.689 179.471 172.439 176.16 175.243 172.903 180.991 166.227 186.988 159.767 193.264 153.598 199.843 147.127 206.724 140.958 213.907 135.156 214.791 134.444 215.675 133.732 216.56 133.031 216.969 132.707 217.39 132.384 217.8 132.06 217.843 132.017 217.929 131.963 218.005 131.899 218.199 131.748 218.393 131.607 218.576 131.456 220.485 130.001 222.405 128.566 224.357 127.164 228.412 124.231 232.543 121.416 236.749 118.709 245.452 113.122 254.458 108.032 263.722 103.437 268.715 100.957 273.784 98.6382 278.918 96.4381 279.004 96.4057 279.069 96.3734 279.112 96.3518 279.392 96.2332 279.673 96.1145 279.953 95.9959 280.535 95.7586 281.107 95.5214 281.689 95.2841 283.059 94.7233 284.429 94.1732 285.798 93.6448 288.495 92.5879 291.202 91.5741 293.919 90.5927 305.567 86.3866 317.463 82.8599 329.488 79.9265 336.034 78.3303 342.613 76.9175 349.235 75.6557 352.459 75.0409 355.684 74.4693 358.92 73.984 359.728 73.8654 360.548 73.7467 361.357 73.6281 362.123 73.5203 361.519 73.6066 361.368 73.6281 361.713 73.585 362.058 73.5418 362.403 73.4987 363.999 73.3046 365.595 73.1212 367.192 72.9595 378.85 71.8055 390.616 71.6976 402.285 72.8085 403.601 72.9379 404.906 73.0781 406.211 73.2291 406.783 73.2938 407.354 73.3693 407.915 73.4448 408.088 73.4664 408.994 73.5958 409.252 73.6281 411.981 74.0272 414.688 74.5017 417.395 75.0302 422.442 76.0331 427.446 77.2734 432.386 78.7401 437.239 80.1853 442.017 81.8462 446.719 83.7227 447.226 83.9277 447.722 84.1326 448.229 84.3375 448.455 84.4345 448.682 84.5316 448.908 84.6179 448.908 84.6179 448.908 84.6179 448.919 84.6179 450.062 85.114 451.216 85.6101 452.349 86.1278 454.516 87.1092 456.673 88.1445 458.798 89.223 467.07 93.4075 475.008 98.2499 482.557 103.653 484.261 104.872 485.943 106.123 487.615 107.395 487.809 107.546 488.111 107.784 488.305 107.935 488.564 108.14 488.812 108.334 489.071 108.539 468.343 98.444 445.457 93.3644 422.41 92.5771ZM200.134 194.106C199.023 203.909 198.118 213.734 197.266 223.559 196.198 235.886 195.238 248.224 194.375 260.562 193.502 273.029 192.704 285.507 192.067 297.985 191.701 305.103 191.377 312.221 191.172 319.339 166.162 302.838 141.853 285.248 118.482 266.537 117.059 265.393 115.657 264.239 114.233 263.096 141.713 238.119 170.174 214.5 200.275 192.952 200.231 193.34 200.177 193.717 200.134 194.106ZM218.21 131.726C218.274 131.683 218.296 131.672 218.21 131.726ZM50.3113 330.771C51.3466 317.926 52.3065 305.049 54.0968 292.28 57.6126 267.302 63.4472 242.648 71.6329 218.781 78.6215 198.398 87.217 178.931 97.646 159.993 102.176 151.775 107.018 143.73 112.173 135.9 114.611 132.201 117.113 128.555 119.69 124.964 120.866 123.325 122.052 121.707 123.249 120.089 123.832 119.302 124.425 118.515 125.018 117.738 125.255 117.425 125.492 117.123 125.719 116.811 125.891 116.584 125.956 116.487 125.978 116.466 126.042 116.39 126.14 116.261 126.291 116.066 150.837 84.6502 181.66 60.9991 218.361 45.3718 218.695 45.2316 219.569 44.8649 219.515 44.8865 219.946 44.714 220.367 44.5306 220.798 44.3581 221.866 43.9267 222.934 43.4953 224.001 43.0747 226.352 42.158 228.703 41.2628 231.076 40.4108 235.563 38.7931 240.081 37.294 244.643 35.9027 253.368 33.2497 262.212 31.0064 271.131 29.1514 275.596 28.2239 280.072 27.3935 284.569 26.6493 286.683 26.3042 288.797 25.9699 290.91 25.6679 291.892 25.5277 292.884 25.3875 293.865 25.2473 294.006 25.2257 294.167 25.2042 294.221 25.2042 295.052 25.0963 295.893 24.9885 296.723 24.8914 305.06 23.8669 313.429 23.1335 321.809 22.6913 337.091 21.8824 352.416 22.0011 367.688 23.0364 374.115 23.4786 380.522 24.0718 386.917 24.8591 387.64 24.9453 388.351 25.0424 389.074 25.1287 389.268 25.1503 389.398 25.1718 389.505 25.1826 389.602 25.1934 389.71 25.215 389.883 25.2365 391.371 25.4414 392.859 25.6571 394.337 25.8836 396.968 26.2827 399.589 26.7248 402.199 27.1994 411.399 28.8818 420.296 31.1466 429.01 34.5546 449.588 42.6001 468.558 54.8841 484.843 69.4975 492.328 76.2165 499.349 83.4747 505.788 91.2074 510.9 97.344 515.688 103.89 520.25 111.332 522.202 114.524 524.046 117.792 525.718 121.135 526.441 122.57 527.12 124.015 527.778 125.471 527.918 125.784 528.047 126.096 528.188 126.398 528.188 126.398 528.188 126.398 528.188 126.409 528.651 127.649 529.137 128.89 529.622 130.119 520.876 119.712 511.202 110.005 500.654 101.356 485.437 88.8887 468.688 78.697 450.418 71.3525 430.024 63.156 407.991 59.1225 386.033 59.0902 359.933 59.047 333.769 64.6875 308.846 72.0859 286.445 78.7294 264.628 87.6484 244.255 99.0911 226.611 109.002 210.067 120.877 194.936 134.314 181.552 146.199 169.333 159.357 158.138 173.312 147.612 186.438 137.917 200.199 128.663 214.252 120.477 226.676 112.626 239.316 104.419 251.729 102.758 254.242 101.065 256.744 99.35 259.235 99.0156 259.613 98.746 260.044 98.5303 260.486 98.1744 261.112 97.9587 261.78 97.8832 262.482 97.7646 263.193 97.7862 263.916 97.9695 264.617 98.0774 265.361 98.3254 266.062 98.7029 266.698 104.947 283.426 113.694 299.085 124.252 313.472 135.867 329.304 149.284 343.713 163.843 356.86 164.383 357.345 164.933 357.82 165.472 358.305 155.55 355.932 145.552 353.915 135.468 352.373 117.253 349.569 98.8647 348.189 80.4226 348.642 70.2956 348.89 60.1902 349.666 50.1387 350.853 49.675 350.906 49.2328 350.971 48.8122 351.068 49.2652 344.306 49.7721 337.533 50.3113 330.771ZM537.139 518.859C538.412 526.742 540.914 534.346 543.901 541.798 545.702 546.306 547.644 550.76 549.499 555.247 520.94 554.298 492.846 549.682 464.945 543.373 448.531 539.652 432.257 535.273 416.198 530.215 401.811 525.686 386.572 520.25 373.285 514.653 338.45 499.985 304.855 482.428 270.786 466.099 253.358 457.741 235.8 449.652 217.983 442.135 201.105 435.017 184.022 428.881 166.119 424.826 131.316 416.942 95.1439 415.443 59.7912 420.231 55.5959 420.803 51.4221 421.461 47.2592 422.205 46.6229 403.86 46.9249 385.483 47.8523 367.148 47.9171 365.93 47.9925 364.711 48.0573 363.482 48.7367 363.74 49.4377 363.87 50.1279 363.794 70.1338 361.422 90.3123 360.807 110.394 362.371 115.818 362.791 121.232 363.363 126.625 364.075 143.147 366.34 159.475 369.877 175.566 374.245 180.301 375.528 185.025 376.887 189.727 378.3 197.524 384.253 205.505 389.948 213.637 395.426 231.378 407.365 249.831 418.236 268.694 428.277 287.621 438.361 306.991 447.614 326.641 456.177 345.881 464.568 365.38 472.355 385.105 479.526 402.76 485.943 420.598 491.886 438.587 497.311 453.697 501.873 468.914 506.068 484.261 509.756 495.736 512.517 507.297 515.041 518.967 516.853 524.855 517.791 531.078 518.902 537.139 518.859ZM550.458 616.375C550.286 616.451 550.113 616.516 549.93 616.591 549.261 616.861 548.593 617.109 547.913 617.357 542.197 619.417 536.255 620.797 530.269 621.789 529.514 621.919 528.759 622.037 528.004 622.145 527.562 622.21 527.12 622.275 526.689 622.339 526.678 622.339 526.678 622.339 526.667 622.339 524.974 622.544 523.281 622.749 521.587 622.922 517.888 623.288 514.189 623.547 510.479 623.72 502.304 624.097 494.108 624.065 485.933 623.785 476.83 623.472 467.739 622.835 458.679 621.994 453.848 621.541 449.016 621.034 444.185 620.463 441.747 620.182 439.31 619.88 436.872 619.568 435.643 619.406 434.403 619.244 433.173 619.082 433.011 619.061 432.904 619.05 432.817 619.039 432.774 619.028 432.72 619.028 432.666 619.018 431.998 618.931 431.34 618.834 430.671 618.748 409.328 615.804 388.114 612.029 366.997 607.769 344.662 603.261 322.434 598.203 300.315 592.767 278.378 587.375 256.539 581.594 234.786 575.512 214.446 569.817 194.17 563.864 173.981 557.63 156.445 552.216 138.963 546.608 121.578 540.741 108.269 536.244 95.0037 531.617 81.857 526.656 77.1548 524.877 72.4634 523.065 67.8259 521.145 67.4053 520.973 66.9954 520.8 66.5748 520.628 66.5317 520.606 66.4886 520.584 66.4346 520.563 65.5826 520.196 64.7414 519.829 63.9002 519.452 62.5521 518.848 61.204 518.233 59.8882 517.575 59.7696 517.511 59.6402 517.446 59.5215 517.381 53.9458 491.832 49.9985 465.97 48.1975 439.871 48.0788 438.167 47.9925 436.473 47.8955 434.769 48.7691 434.899 49.675 434.888 50.5917 434.726 84.2188 428.654 119.345 428.924 152.951 435.287 189.242 442.168 222.772 457.601 255.957 473.314 290.49 489.664 324.484 507.168 359.426 522.644 388.955 535.716 419.757 545.735 451.108 553.403 482.913 561.189 515.602 566.884 548.366 568.167 550.383 568.243 552.4 568.297 554.427 568.34 554.546 568.706 554.675 569.073 554.794 569.451 556.422 574.703 557.501 580.063 558.277 585.498 559.205 592.821 559.431 600.209 558.536 607.543 558.277 609.247 557.965 610.951 557.598 612.633 556.401 613.399 555.171 614.111 553.92 614.758 552.756 615.329 551.612 615.836 550.458 616.375ZM567.477 486.591C562.829 496.286 554.416 503.868 543.502 505.076 543.038 505.13 542.585 505.216 542.154 505.335 541.798 505.378 541.442 505.442 541.097 505.561 540.806 505.658 540.526 505.712 540.234 505.777 539.102 505.841 537.98 505.874 536.848 505.852 533.461 505.777 530.075 505.421 526.71 505 526.57 504.979 526.43 504.968 526.29 504.946 525.869 504.892 525.448 504.828 525.028 504.774 523.917 504.612 522.806 504.439 521.695 504.267 519.215 503.868 516.734 503.436 514.254 502.984 508.451 501.916 502.671 500.708 496.912 499.414 482.449 496.167 468.105 492.404 453.869 488.305 436.614 483.344 419.487 477.887 402.523 471.999 383.574 465.42 364.819 458.291 346.301 450.58 345.115 450.084 343.939 449.588 342.764 449.102 342.764 449.102 342.753 449.102 342.753 449.092 342.818 449.124 342.893 449.156 342.98 449.189 342.883 449.146 342.785 449.102 342.688 449.07 342.548 449.016 342.354 448.93 342.279 448.898 342.214 448.876 342.16 448.844 342.095 448.822 341.427 448.542 340.769 448.261 340.1 447.97 337.652 446.924 335.215 445.867 332.766 444.81 327.999 442.729 323.254 440.615 318.53 438.447 308.846 434.014 299.236 429.399 289.724 424.599 270.7 414.99 252.053 404.604 234.02 393.237 225.177 387.661 216.473 381.848 207.975 375.755 204.168 373.026 200.415 370.233 196.694 367.396 196.608 367.332 196.521 367.267 196.435 367.202 196.09 366.943 195.745 366.685 195.411 366.426 195.378 366.404 195.357 366.383 195.324 366.361 195.26 366.307 195.173 366.242 195.044 366.145 194.548 365.757 194.052 365.38 193.566 364.991 192.52 364.172 191.485 363.352 190.45 362.522 188.508 360.969 186.589 359.405 184.669 357.809 169.732 345.395 155.668 331.871 143.255 316.923 141.745 315.101 140.257 313.267 138.801 311.402 138.672 311.24 138.542 311.067 138.413 310.905 138.1 310.496 137.787 310.086 137.474 309.665 136.752 308.705 136.029 307.746 135.317 306.775 132.675 303.162 130.13 299.474 127.714 295.71 125.525 292.291 123.433 288.807 121.459 285.259 141.476 300.8 162.075 315.597 183.202 329.596 186.729 331.936 190.277 334.244 193.836 336.541 193.879 336.573 193.933 336.606 193.976 336.638 219.385 353.009 245.517 368.238 272.263 382.312 303.065 398.511 334.686 413.124 366.954 426.174 398.651 438.986 430.995 450.213 463.845 459.704 496.771 469.216 531.984 475.655 566.334 471.902 568.426 471.675 570.507 471.405 572.589 471.104 572.416 473.325 571.672 475.525 570.982 477.618 569.968 480.648 568.868 483.689 567.477 486.591ZM578.607 420.749C577.474 426.821 576.374 432.947 574.541 438.846 572.988 443.85 571.219 448.811 570.464 454.02 570.249 455.519 570.108 456.986 570.098 458.442 539.63 462.885 507.06 457.881 477.294 449.987 444.67 441.327 412.563 430.218 381.147 417.934 349.806 405.672 319.102 391.803 289.099 376.445 259.958 361.54 231.529 345.234 203.941 327.611 204.017 320.612 204.276 313.612 204.588 306.624 205.052 296.195 205.656 285.766 206.325 275.348 207.037 264.229 207.835 253.12 208.697 242.012 209.485 231.917 210.326 221.833 211.275 211.75 211.976 204.243 212.709 196.748 213.659 189.274 213.745 188.605 213.831 187.937 213.917 187.268 213.842 187.84 213.766 188.411 213.691 188.994 213.95 187.031 214.122 184.906 214.608 182.932 217.034 181.282 219.472 179.632 221.92 178.004 238.906 166.723 256.388 156.154 274.42 146.631 290.953 137.906 306.937 130.518 323.416 124.295 338.439 118.622 353.829 113.899 369.532 110.534 373.253 109.736 377.006 109.013 380.759 108.377 382.441 108.096 384.124 107.827 385.806 107.579 386.486 107.482 387.165 107.385 387.845 107.288 387.618 107.32 389.57 107.061 390.023 107.007 397.001 106.155 404.022 105.616 411.043 105.443 417.729 105.282 424.427 105.454 431.092 106.004 432.591 106.123 434.079 106.274 435.578 106.436 436.355 106.522 437.131 106.608 437.908 106.705 438.296 106.748 438.684 106.802 439.083 106.856 439.105 106.856 439.116 106.856 439.126 106.867 442.297 107.352 445.468 107.848 448.617 108.485 454.635 109.693 460.578 111.256 466.401 113.187 469.324 114.158 472.225 115.214 475.083 116.368 475.45 116.519 475.816 116.67 476.194 116.821 475.978 116.735 477.251 117.264 477.596 117.425 479.052 118.072 480.508 118.73 481.942 119.421 487.324 122.009 492.544 124.932 497.548 128.178 500.115 129.839 502.638 131.586 505.097 133.419 505.615 133.808 506.133 134.196 506.65 134.595 506.65 134.595 506.65 134.595 506.661 134.606 506.974 134.854 507.297 135.102 507.61 135.35 508.829 136.32 510.026 137.302 511.202 138.305 522.795 148.195 532.922 160.101 542.726 171.738 543.2 172.299 543.675 172.87 544.138 173.431 544.268 173.647 544.408 173.862 544.57 174.057 544.764 174.359 544.904 174.542 545.001 174.661 547.288 179.535 549.811 184.313 552.011 189.231 554.859 195.594 557.436 202.076 559.841 208.622 564.705 221.833 568.933 235.304 572.459 248.936 579.599 276.545 583.762 304.855 584.851 333.349 585.973 362.586 583.988 391.986 578.607 420.749ZM342.268 448.908C342.408 448.962 342.548 449.027 342.678 449.081 342.699 449.092 342.721 449.102 342.732 449.102 342.225 448.887 342.16 448.865 342.268 448.908ZM556.832 290.306C555.01 287.459 550.998 286.036 547.978 287.988 545.12 289.832 543.707 293.79 545.659 296.842 548.215 300.843 550.415 305.038 552.313 309.385 555.29 316.654 557.328 324.257 558.45 332.033 559.442 340.132 559.442 348.318 558.428 356.418 557.318 364.053 555.301 371.527 552.378 378.667 550.998 381.827 549.455 384.911 547.719 387.898 546.015 390.832 546.943 395.113 550.038 396.753 553.133 398.392 557.08 397.562 558.892 394.434 566.172 381.88 570.335 367.86 571.715 353.452 573.031 339.647 571.456 325.357 567.11 312.189 564.597 304.521 561.179 297.101 556.832 290.306Z" fill="url(#fill4)" fill-rule="nonzero" transform="matrix(1.00245 0 0 1 -2212.99 823)"/></g></g></g></g></svg>