<svg width="834" height="834" xmlns="http://www.w3.org/2000/svg" xmlns:xlink="http://www.w3.org/1999/xlink" overflow="hidden"><defs><clipPath id="clip0"><rect x="-2296" y="742" width="834" height="834"/></clipPath><clipPath id="clip1"><rect x="-2107" y="940" width="454" height="454"/></clipPath><clipPath id="clip2"><rect x="-2107" y="940" width="454" height="454"/></clipPath><clipPath id="clip3"><rect x="-2107" y="940" width="454" height="454"/></clipPath></defs><g clip-path="url(#clip0)" transform="translate(2296 -742)"><path d="M-2290.5 1161C-2290.5 933.182-2105.82 748.5-1878 748.5-1650.18 748.5-1465.5 933.182-1465.5 1161-1465.5 1388.82-1650.18 1573.5-1878 1573.5-2105.82 1573.5-2290.5 1388.82-2290.5 1161Z" stroke="#FFFFFF" stroke-width="4.58333" stroke-linecap="butt" stroke-linejoin="miter" stroke-miterlimit="8" stroke-opacity="1" fill="#FFFFFF" fill-rule="evenodd" fill-opacity="1"/><g clip-path="url(#clip1)"><g clip-path="url(#clip2)"><g clip-path="url(#clip3)"><path d="M-1743 964.379-1837.52 1104.65C-1844.05 1114.21-1831.49 1125.77-1822.44 1117.73L-1729.42 1036.78C-1726.91 1034.77-1723.39 1036.28-1723.39 1039.8L-1723.39 1292.69C-1723.39 1296.21-1727.91 1297.72-1729.92 1295.2L-2011.48 958.346C-2020.53 947.285-2033.6 941.251-2048.18 941.251L-2058.24 941.251C-2084.38 941.251-2106 962.871-2106 989.518L-2106 1345.48C-2106 1372.13-2084.38 1393.75-2057.73 1393.75-2041.14 1393.75-2025.56 1385.2-2016.51 1370.62L-1921.98 1230.35C-1915.45 1220.79-1928.02 1209.23-1937.07 1217.27L-2030.08 1297.72C-2032.6 1299.73-2036.11 1298.22-2036.11 1294.7L-2036.11 1042.31C-2036.11 1038.79-2031.59 1037.28-2029.58 1039.8L-1748.02 1376.65C-1738.97 1387.72-1725.4 1393.75-1711.32 1393.75L-1701.27 1393.75C-1674.62 1393.75-1653 1372.13-1653 1345.48L-1653 989.518C-1653 962.871-1674.62 941.251-1701.27 941.251-1718.36 941.251-1733.95 949.798-1743 964.379Z" fill="#000000" fill-rule="nonzero" fill-opacity="1"/></g></g></g></g></svg>