<svg width="479" height="480" xmlns="http://www.w3.org/2000/svg" xmlns:xlink="http://www.w3.org/1999/xlink" overflow="hidden"><defs><clipPath id="clip0"><rect x="342" y="65" width="479" height="480"/></clipPath><clipPath id="clip1"><rect x="343" y="66" width="478" height="479"/></clipPath><clipPath id="clip2"><rect x="343" y="66" width="478" height="480"/></clipPath></defs><g clip-path="url(#clip0)" transform="translate(-342 -65)"><g clip-path="url(#clip1)"><g clip-path="url(#clip2)"><path d="M528.609 297.038C528.609 425.361 424.931 529.388 297.038 529.388 169.145 529.388 65.4674 425.361 65.4674 297.038 65.4674 168.715 169.145 64.689 297.038 64.689 424.931 64.689 528.609 168.715 528.609 297.038Z" fill="#191919" fill-rule="nonzero" fill-opacity="1" transform="matrix(1 0 0 1.00209 284.982 9.91495)"/><path d="M370.969 202.889 397.395 156.084 425.678 203.069 398.094 187.39Z" fill="#FFC209" fill-rule="nonzero" fill-opacity="1" transform="matrix(1 0 0 1.00209 284.982 9.91495)"/><path d="M370.969 202.889 398.094 187.39 398.223 187.46 397.205 156.423Z" fill="#FFC209" fill-rule="nonzero" fill-opacity="1" transform="matrix(1 0 0 1.00209 284.982 9.91495)"/><path d="M397.395 156.084 397.205 156.423 398.223 187.46 425.678 203.069Z" fill="#FFC209" fill-rule="nonzero" fill-opacity="1" transform="matrix(1 0 0 1.00209 284.982 9.91495)"/><path d="M195.574 433.821 195.574 156.772 195.574 156.423 195.574 156.074 425.678 363.683 425.678 433.811 241.591 267.528 241.591 433.821 195.574 433.821Z" fill="#FFC209" fill-rule="nonzero" fill-opacity="1" transform="matrix(1 0 0 1.00209 284.982 9.91495)"/><path d="M391.208 282.348C389.391 282.348 387.924 280.871 387.924 279.055L387.924 228.278C387.924 226.461 389.391 224.984 391.208 224.984 393.024 224.984 394.491 226.461 394.491 228.278L394.491 279.055C394.491 280.871 393.024 282.348 391.208 282.348Z" fill="#FFC209" fill-rule="nonzero" fill-opacity="1" transform="matrix(1 0 0 1.00209 284.982 9.91495)"/><path d="M405.439 282.348C403.622 282.348 402.155 280.871 402.155 279.055L402.155 228.278C402.155 226.461 403.622 224.984 405.439 224.984 407.255 224.984 408.722 226.461 408.722 228.278L408.722 279.055C408.722 280.871 407.255 282.348 405.439 282.348Z" fill="#FFC209" fill-rule="nonzero" fill-opacity="1" transform="matrix(1 0 0 1.00209 284.982 9.91495)"/></g></g></g></svg>