<svg xmlns="http://www.w3.org/2000/svg" xmlns:xlink="http://www.w3.org/1999/xlink" width="1080" zoomAndPan="magnify" viewBox="0 0 810 809.999993" height="1080" preserveAspectRatio="xMidYMid meet" version="1.0"><defs><clipPath id="id1"><path d="M 179.921875 226.574219 L 629.921875 226.574219 L 629.921875 583.574219 L 179.921875 583.574219 Z M 179.921875 226.574219 " clip-rule="nonzero"/></clipPath></defs><path fill="#0000d8" d="M 405 0 C 181.324219 0 0 181.324219 0 405 C 0 628.675781 181.324219 810 405 810 C 628.675781 810 810 628.675781 810 405 C 810 181.324219 628.675781 0 405 0 " fill-opacity="1" fill-rule="nonzero"/><g clip-path="url(#id1)"><path fill="#ffffff" d="M 179.921875 226.824219 L 179.921875 583.328125 L 323.066406 583.328125 L 323.066406 423.925781 L 221.847656 325.375 L 323.066406 226.824219 Z M 323.066406 226.824219 L 323.066406 423.925781 L 486.777344 583.328125 L 486.777344 386.222656 Z M 486.78125 226.824219 L 486.78125 386.222656 L 588 484.777344 L 486.78125 583.328125 L 629.921875 583.328125 L 629.921875 226.824219 Z M 486.78125 226.824219 " fill-opacity="1" fill-rule="nonzero"/></g></svg>