<svg width="2099" height="2100" xmlns="http://www.w3.org/2000/svg" xmlns:xlink="http://www.w3.org/1999/xlink" overflow="hidden"><defs><clipPath id="clip0"><rect x="1150" y="187" width="2099" height="2100"/></clipPath><clipPath id="clip1"><rect x="1454" y="447" width="1492" height="1527"/></clipPath><clipPath id="clip2"><rect x="1454" y="447" width="1492" height="1527"/></clipPath></defs><g clip-path="url(#clip0)" transform="translate(-1150 -187)"><path d="M1153 1237.5C1153 659.534 1621.76 191 2200 191 2778.24 191 3247 659.534 3247 1237.5 3247 1815.47 2778.24 2284 2200 2284 1621.76 2284 1153 1815.47 1153 1237.5Z" fill="#FDDD96" fill-rule="evenodd" fill-opacity="1"/><g clip-path="url(#clip1)"><g clip-path="url(#clip2)"><path d="M475.605 1431.41C484.178 1288.67 495.994 1187.32 511.06 1127.33 541.619 1005.63 596.628 904.526 651.798 825.179 795.741 618.171 1105.76 479.741 1137.32 479.741 1168.9 479.741 1281.94 535.076 1340.94 570.854 1471.01 649.718 1557.21 740.649 1597.07 797.821 1832.27 1135.22 1799.03 1429.49 1799.03 1431.4 1799.03 1433.26 1640.63 1797.94 1137.32 1797.94 895.647 1797.94 691.224 1700.82 545.354 1546.18 524.824 1524.41 501.573 1486.15 475.601 1431.4Z" fill="#8C5431" fill-rule="evenodd" fill-opacity="1" transform="matrix(1 0 0 1.00021 1060.88 87.9197)"/><path d="M1340.94 570.854C1391.67 601.611 1435.72 634.205 1472.95 665.913L1478.63 670.785 1484.19 675.636C1490.48 681.162 1496.69 686.773 1502.83 692.469L1507.91 697.225 1510.41 699.594 1515.33 704.309 1520.13 708.982 1524.84 713.631C1526.39 715.174 1527.92 716.712 1529.43 718.242L1533.91 722.816 1538.28 727.349C1539.72 728.85 1541.15 730.347 1542.55 731.836L1546.7 736.282C1548.76 738.495 1550.77 740.687 1552.73 742.858L1556.62 747.184 1560.39 751.456 1564.05 755.674 1567.61 759.831 1571.05 763.933 1574.38 767.974 1576.01 769.967 1579.17 773.913 1582.23 777.788 1585.17 781.593 1588.01 785.331 1590.74 788.996 1592.05 790.799 1594.61 794.351 1597.06 797.821C1787.58 1071.12 1801.97 1316.11 1800.57 1400.36L1800.43 1406.3C1800.38 1408.18 1800.32 1409.97 1800.26 1411.65L1800.05 1416.38 1799.95 1418.51 1799.73 1422.31 1799.42 1426.79 1799.03 1431.44 1798.85 1431.93 1797.95 1434.02 1796.29 1437.61 1794.63 1441.04 1792.09 1446.06 1789.52 1450.95 1787.15 1455.31 1785.19 1458.82 1783.06 1462.54 1780.79 1466.45 1778.35 1470.55 1776.63 1473.38 1774.83 1476.29 1772.01 1480.81 1770.03 1483.91 1723.97 1482.01 1714.37 1447.13 1708.72 1426.76 1703.17 1406.8 1695.89 1380.85 1688.77 1355.63 1680.09 1325.16 1671.65 1295.84 1663.45 1267.69 1657.07 1245.99 1652.38 1230.22 1647.78 1214.85 1643.27 1199.91 1638.84 1185.38 1635.94 1175.93 1633.08 1166.66 1628.86 1153.11 1623.37 1135.68 1619.35 1123.11 1616.72 1114.95 1612.85 1103.07 1610.32 1095.38 1607.82 1087.87 1604.15 1076.96 1600.57 1066.47 1597.08 1056.4 1593.67 1046.74 1591.45 1040.54 1589.26 1034.52 1587.12 1028.68 1585.01 1023.03 1582.94 1017.57 1580.92 1012.29 1578.93 1007.2 1577.29 1003.09 1575.16 997.84 1573.58 994.027 1571.87 989.974 1569.06 983.448 1567.02 978.803 1564.85 973.932 1562.54 968.832 1561.33 966.202 1558.81 960.772 1556.15 955.131 1553.35 949.275 1551.89 946.272 1548.87 940.106 1545.7 933.737C1545.16 932.661 1544.61 931.578 1544.05 930.482L1540.66 923.823 1537.11 916.966 1535.27 913.468 1531.49 906.334 1529.54 902.698 1525.53 895.295 1521.34 887.711C1480.16 813.574 1416.26 715.256 1322 608.592 1320.24 606.602 1318.45 604.639 1316.63 602.703L1313.76 599.692C1312.78 598.679 1311.78 597.662 1310.77 596.632L1307.65 593.534C1306.58 592.48 1305.5 591.433 1304.42 590.391L1301.06 587.207 1297.58 583.969C1296.38 582.871 1295.18 581.779 1293.98 580.693L1290.25 577.372 1286.4 574.01 1282.43 570.598 1280.4 568.877 1276.25 565.403 1271.97 561.884 1267.57 558.319 1263.05 554.713 1258.41 551.061 1253.65 547.363 1248.76 543.625 1243.75 539.841 1238.62 536.011 1233.37 532.14 1227.99 528.224 1222.49 524.261 1216.87 520.258 1211.13 516.205 1205.26 512.111 1199.27 507.975 1193.16 503.798 1186.93 499.571 1177.35 493.149 1170.82 488.814 1167.5 486.627C1178.69 490.39 1191.69 495.51 1205.63 501.507L1212.13 504.332 1215.42 505.792 1222.08 508.786C1226.56 510.812 1231.09 512.909 1235.65 515.06L1242.51 518.314 1249.41 521.639 1256.31 525.018 1263.21 528.447 1270.07 531.908 1276.9 535.395 1283.65 538.894 1290.32 542.396C1292.53 543.567 1294.72 544.733 1296.89 545.895L1303.34 549.373 1306.51 551.106 1312.74 554.539 1315.79 556.243 1321.75 559.609 1327.52 562.918C1328.46 563.46 1329.39 564.001 1330.32 564.543L1335.75 567.74C1337.52 568.795 1339.25 569.833 1340.94 570.854ZM1085.41 497.111 1087.15 499.952C934.113 618.344 825.022 737.672 759.872 857.921 725.343 921.656 689.942 1010.05 653.672 1123.1L649.561 1136 647.505 1142.53 643.382 1155.75 641.318 1162.44 637.187 1175.97 633.051 1189.72C632.356 1192.03 631.666 1194.34 630.975 1196.67L626.823 1210.73C625.441 1215.45 624.052 1220.21 622.666 1225.01L618.502 1239.49 616.413 1246.81 612.236 1261.61 608.055 1276.62C606.657 1281.66 605.259 1286.73 603.861 1291.84L599.663 1307.26C598.96 1309.86 598.257 1312.45 597.558 1315.06L593.348 1330.81 589.13 1346.77 584.907 1362.94C583.497 1368.36 582.087 1373.82 580.672 1379.32L576.433 1395.9 572.186 1412.7 567.926 1429.71 563.666 1446.94 561.532 1455.62 557.26 1473.16 555.118 1482.01 554.891 1481.95 554.378 1481.75C554.175 1481.66 553.977 1481.56 553.782 1481.46L553.112 1481.07C552.989 1480.99 552.866 1480.91 552.744 1480.84L551.958 1480.31 551.086 1479.68 550.134 1478.96 548.567 1477.7 547.421 1476.74 545.56 1475.13 542.794 1472.65 540.519 1470.54 538.058 1468.21 533.571 1463.86 530.643 1460.97 525.37 1455.67 521.966 1452.21 515.903 1445.97 509.348 1439.14 503.748 1433.24 496.304 1425.34 487.549 1415.96 479.91 1407.73C479.042 1406.78 478.157 1405.83 477.268 1404.87L478.665 1384.18 479.823 1368.1 481.006 1352.43 482.226 1337.17 483.161 1326 483.794 1318.68 484.761 1307.89 486.077 1293.87 487.086 1283.62 488.111 1273.6 489.154 1263.82 490.216 1254.27 491.296 1244.95 492.028 1238.86 493.517 1227 494.65 1218.38 495.415 1212.76 496.581 1204.52 497.367 1199.15 498.566 1191.3 499.778 1183.68 500.597 1178.73 501.424 1173.88 502.26 1169.13 503.103 1164.49 503.955 1159.95 504.815 1155.51 506.118 1149.05 506.999 1144.87 507.888 1140.79 508.782 1136.82 509.691 1132.94 510.601 1129.18 511.056 1127.33C535.759 1028.97 576.429 944.064 620.247 873.223L624.713 866.068C625.458 864.882 626.206 863.703 626.955 862.528L631.446 855.518 635.954 848.603C638.212 845.171 640.475 841.78 642.737 838.417L647.265 831.75C648.779 829.542 650.289 827.354 651.802 825.179 746.398 689.131 912.732 582.703 1024.61 525.726L1032.6 521.693 1040.39 517.835C1052.14 512.057 1064 506.514 1075.97 501.209L1082.34 498.43C1083.37 497.979 1084.4 497.541 1085.42 497.107Z" fill="#B67C4C" fill-rule="evenodd" fill-opacity="1" transform="matrix(1 0 0 1.00021 1060.88 87.9197)"/><path d="M616.893 1532.77C678.779 1275.38 734.417 1093.23 783.805 986.306 833.194 879.381 919.03 759.07 1041.32 625.371 986.624 813.57 950.337 963.82 932.459 1076.13 914.58 1188.44 897.636 1372.54 881.631 1628.45 816.432 1616.52 768.396 1604.79 737.531 1593.28 706.666 1581.77 666.455 1561.6 616.893 1532.78ZM956.793 1644.95C980.739 1335.13 1003.55 1117.04 1025.24 990.673 1046.92 864.307 1084.28 731.754 1137.32 593.022 1192.27 718.077 1230.13 841.428 1250.91 963.075 1271.69 1084.72 1295.38 1321.82 1322 1674.37 1203.88 1678.9 1116.67 1678.9 1060.39 1674.37 1004.11 1669.83 969.577 1660.03 956.797 1644.95ZM1391.95 1644.43C1365.95 1343.65 1342.63 1126.27 1322 992.302 1301.37 858.331 1272.37 736.022 1235.01 625.371 1344.69 726.646 1423.86 829.881 1472.53 935.077 1521.18 1040.28 1584.77 1245.64 1663.26 1551.16 1616.94 1582.32 1577.28 1603.56 1544.29 1614.91 1511.29 1626.25 1460.51 1636.09 1391.95 1644.43Z" fill="#B67C4C" fill-rule="evenodd" fill-opacity="1" transform="matrix(1 0 0 1.00021 1060.88 87.9197)"/><path d="M1799.03 1431.41 1798.99 1431.57 1798.6 1432.53 1797.82 1434.31 1796.64 1436.87C1775.17 1482.53 1605.41 1797.94 1137.32 1797.94 895.651 1797.94 691.228 1700.82 545.358 1546.18 539.758 1540.24 533.956 1533.07 527.951 1524.69L525.539 1521.26 523.108 1517.71C521.433 1515.23 519.788 1512.73 518.174 1510.22L515.676 1506.27 513.153 1502.2 511.888 1500.11 509.332 1495.84 506.759 1491.44 504.162 1486.9 501.544 1482.24 500.229 1479.86 497.582 1475C497.135 1474.17 496.69 1473.34 496.246 1472.51L493.566 1467.46 492.214 1464.88 489.501 1459.63 486.763 1454.25 484.009 1448.73 482.619 1445.93 479.832 1440.21 477.019 1434.37 475.605 1431.4C476.081 1423.46 476.569 1415.64 477.065 1407.95 620.698 1556.64 862.83 1654.28 1137.32 1654.28 1413.67 1654.28 1657.21 1555.32 1800.48 1404.95L1800.31 1410.58 1800.1 1415.57 1799.76 1421.81 1799.49 1425.86 1799.04 1431.41Z" fill="#5E2417" fill-rule="evenodd" fill-opacity="1" transform="matrix(1 0 0 1.00021 1060.88 87.9197)"/></g></g></g></svg>