<?xml version="1.0" encoding="utf-8"?>
<!-- Generator: Adobe Illustrator 25.2.3, SVG Export Plug-In . SVG Version: 6.00 Build 0)  -->
<svg version="1.1" id="Layer_1" xmlns="http://www.w3.org/2000/svg" xmlns:xlink="http://www.w3.org/1999/xlink" x="0px" y="0px"
	 viewBox="0 0 131.74 125" style="enable-background:new 0 0 131.74 125;" xml:space="preserve">
<style type="text/css">
	.st0{fill:#E2AD78;}
	.st1{fill:#76403D;}
	.st2{fill:#BB6F50;}
	.st3{fill:#211E1F;}
	.st4{fill:#F2727A;}
	.st5{fill:#C48058;}
</style>
<g>
	<g>
		<path class="st0" d="M44.37,71.89c0.34,0,32.89,0,32.89,0v9.32h4.72v-4.65h4.73v9.43h-4.73v4.7H49.1v-4.7h-4.77L44.37,71.89z"/>
		<polygon class="st1" points="58.49,39.01 77.28,39.01 77.28,43.71 86.67,43.71 86.67,48.4 91.36,48.4 91.29,57.9 86.63,57.89 
			86.63,62.5 81.85,62.5 81.78,57.9 77.28,57.9 77.2,62.5 72.54,62.5 72.54,67.19 44.37,67.19 44.37,62.48 39.67,62.48 39.67,48.41 
			44.41,48.41 44.41,43.71 49.1,43.71 53.8,43.71 53.8,39.01 		"/>
		<rect x="58.48" y="34.32" class="st2" width="14.07" height="4.7"/>
		<polyline class="st3" points="72.54,63.99 72.54,62.5 77.2,62.5 77.2,57.89 81.85,57.89 81.85,62.5 86.63,62.5 86.63,57.89 
			91.29,57.89 91.29,48.41 96.75,48.41 96.75,76.55 77.28,76.55 77.28,67.19 72.54,67.19 72.54,63.99 		"/>
		<rect x="39.71" y="43.72" class="st3" width="4.7" height="4.7"/>
		<rect x="44.41" y="85.99" class="st3" width="4.7" height="4.7"/>
		<rect x="49.1" y="76.55" class="st3" width="4.7" height="4.7"/>
		<rect x="49.1" y="81.29" class="st4" width="4.7" height="4.7"/>
		<rect x="63.19" y="81.29" class="st4" width="4.7" height="4.7"/>
		<rect x="49.1" y="71.89" class="st3" width="4.7" height="4.7"/>
		<rect x="44.37" y="67.19" class="st5" width="32.91" height="4.7"/>
		<rect x="49.1" y="53.09" class="st2" width="14.09" height="4.7"/>
		<rect x="53.78" y="48.41" class="st2" width="14.09" height="4.7"/>
		<rect x="63.19" y="43.71" class="st2" width="9.39" height="4.7"/>
		<rect x="63.19" y="76.55" class="st3" width="4.7" height="4.7"/>
		<rect x="63.19" y="71.89" class="st3" width="4.7" height="4.7"/>
		<rect x="49.1" y="90.68" class="st3" width="32.91" height="4.7"/>
		<rect x="44.4" y="39.01" class="st3" width="4.7" height="4.7"/>
		<rect x="49.1" y="39.01" class="st3" width="4.7" height="4.7"/>
		<rect x="53.8" y="39.01" class="st3" width="4.7" height="4.7"/>
		<rect x="53.8" y="34.32" class="st3" width="4.7" height="4.7"/>
		<rect x="53.8" y="29.62" class="st3" width="4.7" height="4.7"/>
		<rect x="58.49" y="29.62" class="st3" width="4.7" height="4.7"/>
		<rect x="63.19" y="34.32" class="st3" width="4.7" height="4.7"/>
		<rect x="67.88" y="29.62" class="st3" width="4.7" height="4.7"/>
		<rect x="72.58" y="29.62" class="st3" width="4.7" height="4.7"/>
		<rect x="72.58" y="34.32" class="st3" width="4.7" height="4.7"/>
		<rect x="77.28" y="39.01" class="st3" width="4.7" height="4.7"/>
		<rect x="81.97" y="39.01" class="st3" width="4.7" height="4.7"/>
		<rect x="86.67" y="43.71" class="st3" width="4.7" height="4.7"/>
		<rect x="82.01" y="85.99" class="st3" width="4.7" height="4.7"/>
		<rect x="72.54" y="85.99" class="st5" width="9.43" height="4.7"/>
		<rect x="77.28" y="76.51" class="st3" width="4.7" height="4.7"/>
		<rect x="86.71" y="76.55" class="st3" width="4.7" height="9.43"/>
		<rect x="35" y="48.41" class="st3" width="4.67" height="18.74"/>
		<rect x="39.67" y="62.48" class="st3" width="4.67" height="23.5"/>
	</g>
</g>
</svg>
