<svg width="192" height="192" xmlns="http://www.w3.org/2000/svg" xmlns:xlink="http://www.w3.org/1999/xlink" xml:space="preserve" overflow="hidden"><defs><clipPath id="clip0"><rect x="544" y="264" width="192" height="192"/></clipPath><clipPath id="clip1"><rect x="544" y="265" width="192" height="190"/></clipPath><clipPath id="clip2"><rect x="544" y="265" width="192" height="190"/></clipPath><clipPath id="clip3"><rect x="544" y="265" width="192" height="190"/></clipPath></defs><g clip-path="url(#clip0)" transform="translate(-544 -264)"><g clip-path="url(#clip1)"><g clip-path="url(#clip2)"><g clip-path="url(#clip3)"><path d="M191.555 92.8664C191.846 110.669 187.668 126.966 178.99 141.757 170.312 156.564 158.5 168.069 143.555 176.302 128.594 184.52 112.297 188.483 94.6638 188.191 76.5698 188.483 60.1192 184.151 45.3122 175.181 30.5051 166.211 19.1848 154.506 11.3358 140.083 3.48681 125.66-0.291751 110.361 0.0154491 94.2181-0.291751 77.6139 3.87081 61.9928 12.4571 47.3394 21.0587 32.6859 32.7938 21.0584 47.6776 12.4568 62.5614 3.87055 78.5205-0.276646 95.5701-0.000165466 122.035-0.292006 144.768 8.41711 163.753 26.1272 182.738 43.8526 192.015 66.0939 191.57 92.8511L191.555 92.8664Z" fill="#000000" fill-rule="nonzero" fill-opacity="1" transform="matrix(1 0 0 1.00567 544 265)"/><path d="M72.5299 158.976 130.56 83.4048C139.976 99.4867 142.387 113.664 130.637 126.904 128.317 129.516 125.553 131.359 122.604 132.649 122.604 132.649 114.232 122.465 112.404 122.926L109.532 123.663C109.071 123.786 108.841 124.308 109.056 124.739L111.145 128.686C112.036 130.376 112.374 132.296 112.128 134.185 111.821 136.504 110.315 138.47 108.165 139.377L102.082 141.926C101.483 142.172 100.792 141.926 100.516 141.327L99.5328 139.3 97.9352 141.65C96.2456 144.138 95.1859 147.011 94.8326 150.006 94.7098 151.05 95.4778 151.987 96.5222 152.079 109.701 153.293 128.84 149.176 139.423 137.257 159.252 114.924 155.044 91.0387 139.039 63.8669L133.171 53.6986 64.8192 145.628 72.5451 158.991 72.5299 158.976Z" fill="#FFFFFF" fill-rule="nonzero" fill-opacity="1" transform="matrix(1 0 0 1.00567 544 265)"/><path d="M119.04 29.2301 61.0098 104.801C51.5941 88.7194 49.1826 74.5421 60.933 61.3018 63.2523 58.6906 66.0171 56.8474 68.9662 55.5571 68.9662 55.5571 77.3374 65.7408 79.1653 65.28L82.0376 64.5427C82.4984 64.4198 82.7288 63.8976 82.5138 63.4675L80.4248 59.52C79.5339 57.8304 79.196 55.9104 79.4418 54.0211 79.749 51.7018 81.2542 49.7357 83.4046 48.8294L89.4872 46.2797C90.0862 46.0339 90.7774 46.2797 91.0539 46.8787L92.037 48.9062 93.6344 46.5562C95.324 44.0678 96.3839 41.1955 96.7371 38.2003 96.86 37.1558 96.092 36.2189 95.0475 36.1267 81.8686 34.9133 62.7301 39.0298 52.147 50.9491 32.3173 73.2826 36.5259 97.1674 52.531 124.339L58.3986 134.508 126.766 42.5933 119.04 29.2301Z" fill="#FFFFFF" fill-rule="nonzero" fill-opacity="1" transform="matrix(1 0 0 1.00567 544 265)"/></g></g></g></g></svg>