<svg width="885" height="898" xmlns="http://www.w3.org/2000/svg" xmlns:xlink="http://www.w3.org/1999/xlink" overflow="hidden"><defs><clipPath id="clip0"><rect x="-2328" y="742" width="885" height="898"/></clipPath><clipPath id="clip1"><rect x="-2328" y="755" width="883" height="886"/></clipPath><clipPath id="clip2"><rect x="-2328" y="755" width="883" height="886"/></clipPath><clipPath id="clip3"><rect x="-2328" y="755" width="883" height="886"/></clipPath></defs><g clip-path="url(#clip0)" transform="translate(2328 -742)"><path d="M-2290.5 1161C-2290.5 933.182-2105.82 748.5-1878 748.5-1650.18 748.5-1465.5 933.182-1465.5 1161-1465.5 1388.82-1650.18 1573.5-1878 1573.5-2105.82 1573.5-2290.5 1388.82-2290.5 1161Z" stroke="#FFFFFF" stroke-width="4.58333" stroke-linecap="butt" stroke-linejoin="miter" stroke-miterlimit="8" stroke-opacity="1" fill="#FFFFFF" fill-rule="evenodd" fill-opacity="1"/><g clip-path="url(#clip1)"><g clip-path="url(#clip2)"><g clip-path="url(#clip3)"><path d="M648.475 586.135 232.582 165.827 232.582 375.981M232.759 375.981C232.759 429.844 253.068 483.531 293.686 524.678 374.922 606.797 506.489 606.797 587.725 524.678L293.686 227.284M232.759 165.827 648.652 586.135 648.652 375.981M648.475 375.981C648.475 322.118 628.166 268.432 587.548 227.284 506.312 145.165 374.745 145.165 293.509 227.284L587.725 524.502M232.759 558.939 232.759 638.056M441.5 638.056 441.5 717.172M650.241 632.051 650.241 684.855" stroke="#48A3FF" stroke-width="30.6362" stroke-linecap="round" stroke-linejoin="round" stroke-miterlimit="10" stroke-opacity="1" fill="none" fill-rule="nonzero" transform="matrix(1 0 0 1.00113 -2328 756)"/></g></g></g></g></svg>