<svg width="858" height="857" xmlns="http://www.w3.org/2000/svg" xmlns:xlink="http://www.w3.org/1999/xlink" overflow="hidden"><defs><clipPath id="clip0"><rect x="-2310" y="742" width="858" height="857"/></clipPath><clipPath id="clip1"><rect x="-2307" y="748" width="851" height="852"/></clipPath><clipPath id="clip2"><rect x="-2307" y="748" width="851" height="852"/></clipPath><clipPath id="clip3"><rect x="-2307" y="748" width="851" height="852"/></clipPath><clipPath id="clip4"><rect x="-2307" y="748" width="851" height="852"/></clipPath><clipPath id="clip5"><rect x="-2307" y="748" width="851" height="852"/></clipPath></defs><g clip-path="url(#clip0)" transform="translate(2310 -742)"><path d="M-2290.5 1161C-2290.5 933.182-2105.82 748.5-1878 748.5-1650.18 748.5-1465.5 933.182-1465.5 1161-1465.5 1388.82-1650.18 1573.5-1878 1573.5-2105.82 1573.5-2290.5 1388.82-2290.5 1161Z" stroke="#FFFFFF" stroke-width="4.58333" stroke-linecap="butt" stroke-linejoin="miter" stroke-miterlimit="8" stroke-opacity="1" fill="#FFFFFF" fill-rule="evenodd" fill-opacity="1"/><g clip-path="url(#clip1)"><g clip-path="url(#clip2)"><g clip-path="url(#clip3)"><g clip-path="url(#clip4)"><path d="M234.876 246.223 234.876 246.223 160.555 171.902 160.555 425.5C160.555 490.46 185.234 555.419 234.876 604.777 333.876 703.777 494.715 703.777 593.714 604.777L234.876 246.223Z" fill="#48A3FF" fill-rule="nonzero" fill-opacity="1" transform="matrix(1 0 0 1 -2307 748)"/></g><g clip-path="url(#clip5)"><path d="M616.124 604.777 616.124 604.777 690.444 679.098 690.444 425.5C690.444 360.54 665.765 295.581 616.124 246.223 517.124 147.223 356.285 147.223 257.286 246.223L616.124 604.777Z" fill="#48A3FF" fill-rule="nonzero" fill-opacity="1" transform="matrix(1 0 0 1 -2307 748)"/></g></g></g></g></g></svg>