<svg width="190" height="190" xmlns="http://www.w3.org/2000/svg" xmlns:xlink="http://www.w3.org/1999/xlink" xml:space="preserve" overflow="hidden"><defs><clipPath id="clip0"><rect x="570" y="304" width="190" height="190"/></clipPath><clipPath id="clip1"><rect x="571" y="305" width="188" height="189"/></clipPath><clipPath id="clip2"><rect x="571" y="305" width="188" height="189"/></clipPath><clipPath id="clip3"><rect x="571" y="305" width="188" height="189"/></clipPath><clipPath id="clip4"><path d="M758.991 399.498C758.991 451.69 716.902 493.998 664.991 493.998 613.08 493.998 570.991 451.69 570.991 399.498 570.991 347.306 613.08 304.998 664.991 304.998 716.902 304.998 758.991 347.306 758.991 399.498Z" fill-rule="nonzero" clip-rule="nonzero"/></clipPath></defs><g clip-path="url(#clip0)" transform="translate(-570 -304)"><g clip-path="url(#clip1)"><g clip-path="url(#clip2)"><g clip-path="url(#clip3)"><g clip-path="url(#clip4)"><path d="M188 94C188 145.915 145.915 188 94 188 42.0852 188 0 145.915 0 94-1.66978e-14 42.0852 42.0852 0 94 0 145.915-1.66978e-14 188 42.0852 188 94Z" fill="#000000" fill-rule="nonzero" fill-opacity="1" transform="matrix(1 0 0 1.00532 571 305)"/><path d="M62.9048 0 0 36.3216 0 109.04 62.9048 145.362 125.772 109.04 125.772 36.3216ZM51.8504 71.1392 10.8664 94.2256 10.8664 48.0528ZM57.4904 80.4264 57.4904 129.607 14.3632 104.716 57.4528 80.4264ZM68.3192 80.4264 111.409 104.716 68.3192 129.607 68.3192 80.4264ZM73.9592 71.1392 114.943 48.0528 114.943 94.2632 73.9592 71.1768ZM108.852 39.0288 62.9048 64.8976 16.9576 39.0288 62.9048 12.5208Z" fill="#FFFFFF" fill-rule="nonzero" fill-opacity="1" transform="matrix(1 0 0 1.00532 602.133 326.508)"/><path d="M188 94C188 145.915 145.915 188 94 188 42.0852 188 0 145.915 0 94-1.66978e-14 42.0852 42.0852 0 94 0 145.915-1.66978e-14 188 42.0852 188 94Z" fill="#000000" fill-rule="nonzero" fill-opacity="1" transform="matrix(1 0 0 1.00532 571 305)"/><path d="M62.9048 0 0 36.3216 0 109.04 62.9048 145.362 125.772 109.04 125.772 36.3216ZM51.8504 71.1392 10.8664 94.2256 10.8664 48.0528ZM57.4904 80.4264 57.4904 129.607 14.3632 104.716 57.4528 80.4264ZM68.3192 80.4264 111.409 104.716 68.3192 129.607 68.3192 80.4264ZM73.9592 71.1392 114.943 48.0528 114.943 94.2632 73.9592 71.1768ZM108.852 39.0288 62.9048 64.8976 16.9576 39.0288 62.9048 12.5208Z" fill="#FFFFFF" fill-rule="nonzero" fill-opacity="1" transform="matrix(1 0 0 1.00532 602.133 326.508)"/></g></g></g></g></g></svg>