<svg width="190" height="172" xmlns="http://www.w3.org/2000/svg" xmlns:xlink="http://www.w3.org/1999/xlink" xml:space="preserve" overflow="hidden"><defs><clipPath id="clip0"><rect x="532" y="262" width="190" height="172"/></clipPath><clipPath id="clip1"><rect x="532" y="263" width="190" height="171"/></clipPath><clipPath id="clip2"><rect x="532" y="263" width="190" height="171"/></clipPath><clipPath id="clip3"><rect x="532" y="263" width="190" height="171"/></clipPath></defs><g clip-path="url(#clip0)" transform="translate(-532 -262)"><g clip-path="url(#clip1)"><g clip-path="url(#clip2)"><g clip-path="url(#clip3)"><path d="M10.1646 162.248C9.14293 162.257 8.12259 162.172 7.117 161.992 5.99506 161.822 4.92116 161.422 3.96397 160.816 3.0068 160.21 2.18743 159.413 1.55827 158.474-1.87569 153.103 1.15049 144.384 26.9267 119.272 27.3211 118.848 27.798 118.508 28.3287 118.272 28.8593 118.037 29.4325 117.911 30.0137 117.902 30.5948 117.893 31.1717 118.002 31.7094 118.221 32.247 118.44 32.7343 118.765 33.1416 119.177 33.5489 119.589 33.8678 120.078 34.0789 120.616 34.29 121.154 34.389 121.729 34.3698 122.306 34.3505 122.883 34.2136 123.45 33.9671 123.973 33.7207 124.496 33.3699 124.963 32.9361 125.347 13.2767 144.533 9.73538 151.589 9.13447 153.721 17.6121 155.469 60.9445 138.799 104.362 108.485 147.03 78.7479 178.644 43.2756 180.682 34.3437 178.064 34.3437 169.951 35.7932 146.794 46.6651 146.282 46.9155 145.725 47.062 145.155 47.0962 144.586 47.1304 144.016 47.0515 143.477 46.8642 142.939 46.6768 142.443 46.3848 142.02 46.0051 141.596 45.6254 141.254 45.1657 141.011 44.6528 140.769 44.14 140.631 43.5842 140.608 43.0181 140.584 42.452 140.674 41.8869 140.873 41.3557 141.071 40.8246 141.374 40.3381 141.765 39.9248 142.155 39.5114 142.624 39.1794 143.145 38.9482 175.918 23.621 184.674 23.8342 188.216 29.1422 189.847 31.6363 194.182 38.2447 167.054 66.5327 149.438 84.6535 130.128 101.071 109.385 115.563 76.0752 138.586 28.6866 162.248 10.1646 162.248Z" fill="#1A2B6B" fill-rule="nonzero" fill-opacity="1" transform="matrix(1.00055 0 0 1 532 263)"/><path d="M179.738 72.9929C176.687 92.6135 166.839 110.561 151.892 123.742 136.945 136.922 117.836 144.51 97.8597 145.195L95.5847 145.195 94.7052 145.195C89.9087 145.18 85.1311 144.593 80.4753 143.447L79.7673 143.852C70.152 149.224 60.2151 154.34 50.6859 158.625 63.7126 166.383 78.5783 170.57 93.7661 170.757 108.954 170.945 123.92 167.127 137.137 159.693 150.354 152.259 161.348 141.475 168.999 128.442 176.649 115.408 180.681 100.593 180.683 85.5066 180.685 81.3176 180.37 77.1347 179.738 72.9929Z" fill="#375BD2" fill-rule="nonzero" fill-opacity="1" transform="matrix(1.00055 0 0 1 532 263)"/><path d="M53.582 128.823C45.0252 120.796 39.0298 110.451 36.3397 99.0709 33.6495 87.6899 34.3831 75.7757 38.4495 64.8052 42.5158 53.8352 49.736 44.2927 59.2137 37.3618 68.6915 30.4308 80.0096 26.4167 91.7632 25.8176 71.7652 26.5388 52.6491 34.1764 37.7183 47.4105 22.7876 60.6445 12.9806 78.6435 9.99207 98.2967 12.3437 113.625 18.8587 128.026 28.836 139.951 35.8541 137.265 44.2888 133.513 53.582 128.823Z" fill="#375BD2" fill-rule="nonzero" fill-opacity="1" transform="matrix(1.00055 0 0 1 532 263)"/><path d="M173.17 72.3741 172.096 73.5678C166.774 79.0464 160.979 84.61 154.926 90.1312 153.807 104.642 147.39 118.246 136.88 128.386 126.371 138.527 112.493 144.503 97.8583 145.194 117.834 144.508 136.943 136.921 151.891 123.741 166.837 110.56 176.686 92.6121 179.737 72.992 179.415 70.8606 179.029 68.7288 178.557 66.5969 176.861 68.4515 175.079 70.3703 173.17 72.3741Z" fill="#1A2B6B" fill-rule="nonzero" fill-opacity="1" transform="matrix(1.00055 0 0 1 532 263)"/><path d="M94.8332 0.23642C82.474 0.241772 70.2616 2.89769 59.0309 8.02259 47.7997 13.1475 37.8156 20.6206 29.7603 29.931 21.705 39.2415 15.7687 50.1696 12.3571 61.9686 8.94552 73.7676 8.13913 86.159 9.99301 98.2962 12.9815 78.643 22.7886 60.6441 37.7192 47.41 52.6501 34.176 71.7661 26.5384 91.7642 25.8172 92.7944 25.8172 93.9106 25.8172 94.8549 25.8172 106.257 25.8197 117.423 29.044 127.049 35.1137 136.676 41.1834 144.365 49.8479 149.219 60.0956 152.009 57.3242 154.577 54.6808 156.924 52.1654 161.216 47.5182 164.822 43.3614 167.419 39.9507 159.678 27.7846 148.962 17.7626 136.27 10.8185 123.578 3.87432 109.323 0.233923 94.8332 0.23642Z" fill="#1A2B6B" fill-rule="nonzero" fill-opacity="1" transform="matrix(1.00055 0 0 1 532 263)"/><path d="M10.1646 162.248C9.14293 162.257 8.12259 162.172 7.117 161.992 5.99506 161.822 4.92116 161.422 3.96397 160.816 3.0068 160.21 2.18743 159.413 1.55827 158.474-1.87569 153.103 1.15049 144.384 26.9267 119.272 27.3211 118.848 27.798 118.508 28.3287 118.272 28.8593 118.037 29.4325 117.911 30.0137 117.902 30.5948 117.893 31.1717 118.002 31.7094 118.221 32.247 118.44 32.7343 118.765 33.1416 119.177 33.5489 119.589 33.8678 120.078 34.0789 120.616 34.29 121.154 34.389 121.729 34.3698 122.306 34.3505 122.883 34.2136 123.45 33.9671 123.973 33.7207 124.496 33.3699 124.963 32.9361 125.347 13.2767 144.533 9.73538 151.589 9.13447 153.721 17.6121 155.469 60.9445 138.799 104.362 108.485 147.03 78.7479 178.644 43.2756 180.682 34.3437 178.064 34.3437 169.951 35.7932 146.794 46.6651 146.282 46.9155 145.725 47.062 145.155 47.0962 144.586 47.1304 144.016 47.0515 143.477 46.8642 142.939 46.6768 142.443 46.3848 142.02 46.0051 141.596 45.6254 141.254 45.1657 141.011 44.6528 140.769 44.14 140.631 43.5842 140.608 43.0181 140.584 42.452 140.674 41.8869 140.873 41.3557 141.071 40.8246 141.374 40.3381 141.765 39.9248 142.155 39.5114 142.624 39.1794 143.145 38.9482 175.918 23.621 184.674 23.8342 188.216 29.1422 189.847 31.6363 194.182 38.2447 167.054 66.5327 149.438 84.6535 130.128 101.071 109.385 115.563 76.0752 138.586 28.6866 162.248 10.1646 162.248Z" fill="#375BD2" fill-rule="nonzero" fill-opacity="1" transform="matrix(1.00055 0 0 1 532 263)"/><path d="M179.738 72.9929C176.687 92.6135 166.839 110.561 151.892 123.742 136.945 136.922 117.836 144.51 97.8597 145.195L95.5847 145.195 94.7052 145.195C89.9087 145.18 85.1311 144.593 80.4753 143.447L79.7673 143.852C70.152 149.224 60.2151 154.34 50.6859 158.625 63.7126 166.383 78.5783 170.57 93.7661 170.757 108.954 170.945 123.92 167.127 137.137 159.693 150.354 152.259 161.348 141.475 168.999 128.442 176.649 115.408 180.681 100.593 180.683 85.5066 180.685 81.3176 180.37 77.1347 179.738 72.9929Z" fill="#375BD2" fill-rule="nonzero" fill-opacity="1" transform="matrix(1.00055 0 0 1 532 263)"/><path d="M53.582 128.823C45.0252 120.796 39.0298 110.451 36.3397 99.0709 33.6495 87.6899 34.3831 75.7757 38.4495 64.8052 42.5158 53.8352 49.736 44.2927 59.2137 37.3618 68.6915 30.4308 80.0096 26.4167 91.7632 25.8176 71.7652 26.5388 52.6491 34.1764 37.7183 47.4105 22.7876 60.6445 12.9806 78.6435 9.99207 98.2967 12.3437 113.625 18.8587 128.026 28.836 139.951 35.8541 137.265 44.2888 133.513 53.582 128.823Z" fill="#375BD2" fill-rule="nonzero" fill-opacity="1" transform="matrix(1.00055 0 0 1 532 263)"/><path d="M173.17 72.3741 172.096 73.5678C166.774 79.0464 160.979 84.61 154.926 90.1312 153.807 104.642 147.39 118.246 136.88 128.386 126.371 138.527 112.493 144.503 97.8583 145.194 117.834 144.508 136.943 136.921 151.891 123.741 166.837 110.56 176.686 92.6121 179.737 72.992 179.415 70.8606 179.029 68.7288 178.557 66.5969 176.861 68.4515 175.079 70.3703 173.17 72.3741Z" fill="#1A2B6B" fill-rule="nonzero" fill-opacity="1" transform="matrix(1.00055 0 0 1 532 263)"/><path d="M94.8332 0.23642C82.474 0.241772 70.2616 2.89769 59.0309 8.02259 47.7997 13.1475 37.8156 20.6206 29.7603 29.931 21.705 39.2415 15.7687 50.1696 12.3571 61.9686 8.94552 73.7676 8.13913 86.159 9.99301 98.2962 12.9815 78.643 22.7886 60.6441 37.7192 47.41 52.6501 34.176 71.7661 26.5384 91.7642 25.8172 92.7944 25.8172 93.9106 25.8172 94.8549 25.8172 106.257 25.8197 117.423 29.044 127.049 35.1137 136.676 41.1834 144.365 49.8479 149.219 60.0956 152.009 57.3242 154.577 54.6808 156.924 52.1654 161.216 47.5182 164.822 43.3614 167.419 39.9507 159.678 27.7846 148.962 17.7626 136.27 10.8185 123.578 3.87432 109.323 0.233923 94.8332 0.23642Z" fill="#1A2B6B" fill-rule="nonzero" fill-opacity="1" transform="matrix(1.00055 0 0 1 532 263)"/></g></g></g></g></svg>