<?xml version="1.0" encoding="UTF-8"?>
<svg width="101px" height="101px" viewBox="0 0 101 101" version="1.1" xmlns="http://www.w3.org/2000/svg" xmlns:xlink="http://www.w3.org/1999/xlink">
    <title>coin-pacoca</title>
    <g id="coin-pacoca" stroke="none" stroke-width="1" fill="none" fill-rule="evenodd">
        <circle id="Oval" fill="#FFD8C1" cx="50.5" cy="50.5" r="50.5"></circle>
        <g id="Group-17" transform="translate(28.000000, 23.000000)">
            <path d="M22.5,-1.5 C28.806512,-1.5 34.5214006,-0.705218546 38.6930924,0.56792316 C40.9530493,1.25763026 42.7772391,2.0973031 44.0478806,3.01396608 C45.6686381,4.18320883 46.4348748,5.51566886 46.4959221,6.82588371 L46.4959221,6.82588371 L46.5,48 C46.5,49.3310395 45.7868361,50.6821703 44.196956,51.8763112 C42.9489212,52.813696 41.1282698,53.6749494 38.8555024,54.3820326 C34.6697643,55.6842623 28.8884232,56.5 22.5,56.5 C16.193488,56.5 10.4785994,55.7052185 6.30690761,54.4320768 C4.04695066,53.7423697 2.22276085,52.9026969 0.95211937,51.9860339 C-0.668638077,50.8167912 -1.43487482,49.4843311 -1.49592213,48.1741163 L-1.49592213,48.1741163 L-1.50000388,6.96093015 C-1.4376439,5.61984017 -0.672648359,4.27502219 0.918468989,3.09518151 C2.18341944,2.15719914 3.99969844,1.30226769 6.25148544,0.601711729 C10.4294983,-0.698114508 16.1664282,-1.5 22.5,-1.5 Z" id="Combined-Shape" stroke="#472D1D" stroke-width="3" fill="#D59361"></path>
            <ellipse id="Oval" fill="#FFC69B" cx="22.5" cy="7" rx="22.5" ry="7"></ellipse>
            <ellipse id="Oval" fill="#4F2C13" cx="16" cy="25" rx="2" ry="4"></ellipse>
            <ellipse id="Oval" fill="#4F2C13" cx="29" cy="25" rx="2" ry="4"></ellipse>
            <circle id="Oval" fill="#FFB2B2" opacity="0.962091355" cx="11" cy="35" r="3"></circle>
            <circle id="Oval-Copy-2" fill="#FFB2B2" opacity="0.962091355" cx="34" cy="35" r="3"></circle>
        </g>
    </g>
</svg>