<svg width="194" height="193" xmlns="http://www.w3.org/2000/svg" xmlns:xlink="http://www.w3.org/1999/xlink" xml:space="preserve" overflow="hidden"><defs><clipPath id="clip0"><path d="M561 370C561 316.981 604.205 274 657.5 274 710.795 274 754 316.981 754 370 754 423.019 710.795 466 657.5 466 604.205 466 561 423.019 561 370Z" fill-rule="evenodd" clip-rule="evenodd"/></clipPath></defs><g transform="translate(-560 -273)"><g><g clip-path="url(#clip0)"><g><g><path d="M78.432 138.72C58.752 121.056 57.888 120.096 58.464 114.72 58.752 111.648 62.4 108.48 65.76 108.48 68.064 108.48 70.464 109.92 75.648 114.336 83.136 120.576 87.552 122.88 92.16 122.88 95.616 122.88 101.376 120.672 103.968 118.272 108.864 113.856 111.072 103.872 108.384 98.688 107.808 97.536 105.6 94.656 103.584 92.448 101.568 90.24 99.648 87.264 99.264 85.824 97.92 80.544 103.776 74.976 109.248 76.32 112.8 77.184 124.896 89.76 127.392 95.136 133.152 107.52 130.08 120.192 117.312 136.032 111.36 143.424 99.648 156.48 98.976 156.48 98.592 156.48 89.376 148.512 78.432 138.72Z" fill="#000000" fill-rule="nonzero" fill-opacity="1" transform="matrix(1.00521 0 0 -1 561 466)"/><path d="M82.656 109.248C72.96 101.088 67.2 90.72 67.2 81.408 67.2 76.32 70.464 67.008 74.592 60.576 80.544 51.36 98.016 31.2 99.744 31.872 101.952 32.64 138.816 66.72 139.872 69.024 142.464 74.4 138.432 80.64 132.48 80.64 128.736 80.64 126.912 79.488 118.848 72.384 111.456 65.856 103.104 64.992 96.096 70.08 90.048 74.304 87.456 84 90.72 90.24 91.488 91.776 93.888 94.944 96 97.44 100.8 103.008 101.088 106.464 97.056 110.496 92.832 114.72 88.8 114.336 82.656 109.248Z" fill="#000000" fill-rule="nonzero" fill-opacity="1" transform="matrix(1.00521 0 0 -1 561 466)"/></g></g></g></g></g></svg>