<svg width="32" height="32" viewBox="0 0 32 32" fill="none" xmlns="http://www.w3.org/2000/svg">
<circle cx="16" cy="16" r="16" fill="#13161B"/>
<g clip-path="url(#clip0_27_408)">
<path d="M24.1445 17.1715C23.399 16.9012 22.5656 17.2642 22.2851 17.9824C22.2222 18.1437 22.105 18.3495 21.9374 18.5713C21.6904 18.9062 21.3344 19.2612 20.9533 19.5759C20.5722 19.8905 20.1618 20.1648 19.8267 20.3464C18.8886 20.8547 17.8835 21.0968 16.8826 21.0968C16.4429 21.0968 16.0031 21.0484 15.576 20.9596C14.797 20.7942 14.0264 21.2662 13.8506 22.0166C13.6789 22.7669 14.1688 23.5092 14.9478 23.6787C15.5802 23.8158 16.2293 23.8844 16.8826 23.8844C18.3651 23.8844 19.8728 23.5254 21.2506 22.775C21.9416 22.3958 22.6745 21.8754 23.3446 21.242C23.6796 20.9273 23.9979 20.5804 24.2785 20.2052C24.5591 19.83 24.8062 19.4225 24.9862 18.9667C25.2668 18.2446 24.8899 17.4418 24.1445 17.1715Z" fill="#FCA311"/>
<path d="M25.7274 14.723C25.6395 13.4966 25.2668 12.2622 24.5967 11.1245C24.0062 10.12 23.2273 9.26874 22.3352 8.59505C21.439 7.92536 20.4255 7.42916 19.3576 7.13061C18.5912 6.91681 17.7913 7.34038 17.5694 8.07867C17.3474 8.81693 17.7871 9.58746 18.5535 9.80127C19.278 10.003 19.9607 10.3378 20.5637 10.7896C21.1668 11.2415 21.6861 11.8103 22.0882 12.4921C22.5446 13.2667 22.7875 14.0896 22.8503 14.9167C22.9048 15.6832 23.5958 16.26 24.3915 16.2076C25.183 16.1552 25.7819 15.4895 25.7274 14.723Z" fill="#FCA311"/>
<path d="M15.4336 9.74055C16.2083 9.55496 16.6774 8.80057 16.4848 8.05424C16.2921 7.30791 15.509 6.85606 14.7342 7.04165C13.972 7.22317 13.2223 7.50557 12.502 7.8969C11.0656 8.67954 9.93481 9.80105 9.16843 11.092C8.40204 12.383 8 13.8474 8 15.34C8 15.3925 8 15.4449 8 15.4974V23.9611C8 24.7276 8.64494 25.3529 9.44483 25.3529C10.2447 25.3529 10.8897 24.7317 10.8897 23.9611V15.3319C10.8897 15.3279 10.8897 15.3199 10.8897 15.3158C10.8939 14.3194 11.1661 13.335 11.677 12.4717C12.1921 11.6003 12.9459 10.85 13.9217 10.3174C14.4117 10.0552 14.9184 9.86561 15.4336 9.74055Z" fill="#FCA311"/>
<mask id="mask0_27_408" style="mask-type:alpha" maskUnits="userSpaceOnUse" x="12" y="11" width="9" height="9">
<path d="M19.4562 17.8056C20.8843 16.434 20.8885 14.2031 19.4646 12.8234C18.0407 11.4437 15.7248 11.4437 14.2925 12.8153C12.8644 14.1869 12.655 17.9952 13.367 18.6811C14.0748 19.3669 18.024 19.1773 19.4562 17.8056Z" fill="#14213D"/>
</mask>
<g mask="url(#mask0_27_408)">
<path d="M21.4902 14.694C21.4902 17.9992 18.7087 20.6786 15.2776 20.6786C11.8465 20.6786 9.065 17.9992 9.065 14.694C9.065 11.3889 11.8465 8.70947 15.2776 8.70947C18.7087 8.70947 21.4902 11.3889 21.4902 14.694Z" fill="url(#paint0_linear_27_408)"/>
<path d="M21.4902 14.694C21.4902 17.9992 18.7087 20.6786 15.2776 20.6786C11.8465 20.6786 9.065 17.9992 9.065 14.694C9.065 11.3889 11.8465 8.70947 15.2776 8.70947C18.7087 8.70947 21.4902 11.3889 21.4902 14.694Z" fill="url(#paint1_radial_27_408)"/>
<path d="M21.4902 14.694C21.4902 17.9992 18.7087 20.6786 15.2776 20.6786C11.8465 20.6786 9.065 17.9992 9.065 14.694C9.065 11.3889 11.8465 8.70947 15.2776 8.70947C18.7087 8.70947 21.4902 11.3889 21.4902 14.694Z" fill="url(#paint2_radial_27_408)"/>
<path d="M21.4902 14.694C21.4902 17.9992 18.7087 20.6786 15.2776 20.6786C11.8465 20.6786 9.065 17.9992 9.065 14.694C9.065 11.3889 11.8465 8.70947 15.2776 8.70947C18.7087 8.70947 21.4902 11.3889 21.4902 14.694Z" fill="url(#paint3_radial_27_408)"/>
<path d="M21.4902 14.694C21.4902 17.9992 18.7087 20.6786 15.2776 20.6786C11.8465 20.6786 9.065 17.9992 9.065 14.694C9.065 11.3889 11.8465 8.70947 15.2776 8.70947C18.7087 8.70947 21.4902 11.3889 21.4902 14.694Z" fill="url(#paint4_radial_27_408)"/>
<path d="M21.4902 14.694C21.4902 17.9992 18.7087 20.6786 15.2776 20.6786C11.8465 20.6786 9.065 17.9992 9.065 14.694C9.065 11.3889 11.8465 8.70947 15.2776 8.70947C18.7087 8.70947 21.4902 11.3889 21.4902 14.694Z" fill="url(#paint5_radial_27_408)"/>
<g style="mix-blend-mode:soft-light" opacity="0.5">
<path d="M21.4902 14.694C21.4902 17.9992 18.7087 20.6786 15.2776 20.6786C11.8465 20.6786 9.065 17.9992 9.065 14.694C9.065 11.3889 11.8465 8.70947 15.2776 8.70947C18.7087 8.70947 21.4902 11.3889 21.4902 14.694Z" fill="url(#paint6_linear_27_408)"/>
<path d="M21.4902 14.694C21.4902 17.9992 18.7087 20.6786 15.2776 20.6786C11.8465 20.6786 9.065 17.9992 9.065 14.694C9.065 11.3889 11.8465 8.70947 15.2776 8.70947C18.7087 8.70947 21.4902 11.3889 21.4902 14.694Z" fill="url(#paint7_radial_27_408)"/>
<path d="M21.4902 14.694C21.4902 17.9992 18.7087 20.6786 15.2776 20.6786C11.8465 20.6786 9.065 17.9992 9.065 14.694C9.065 11.3889 11.8465 8.70947 15.2776 8.70947C18.7087 8.70947 21.4902 11.3889 21.4902 14.694Z" fill="url(#paint8_radial_27_408)"/>
<path d="M21.4902 14.694C21.4902 17.9992 18.7087 20.6786 15.2776 20.6786C11.8465 20.6786 9.065 17.9992 9.065 14.694C9.065 11.3889 11.8465 8.70947 15.2776 8.70947C18.7087 8.70947 21.4902 11.3889 21.4902 14.694Z" fill="url(#paint9_radial_27_408)"/>
<path d="M21.4902 14.694C21.4902 17.9992 18.7087 20.6786 15.2776 20.6786C11.8465 20.6786 9.065 17.9992 9.065 14.694C9.065 11.3889 11.8465 8.70947 15.2776 8.70947C18.7087 8.70947 21.4902 11.3889 21.4902 14.694Z" fill="url(#paint10_radial_27_408)"/>
</g>
</g>
</g>
<defs>
<linearGradient id="paint0_linear_27_408" x1="15.2776" y1="10.0809" x2="17.9362" y2="19.1134" gradientUnits="userSpaceOnUse">
<stop stop-color="#A893E8"/>
<stop offset="1" stop-color="#9EA1DC"/>
</linearGradient>
<radialGradient id="paint1_radial_27_408" cx="0" cy="0" r="1" gradientUnits="userSpaceOnUse" gradientTransform="translate(19.937 19.9305) rotate(-131.918) scale(6.19956 5.97058)">
<stop stop-color="#606EF5"/>
<stop offset="1" stop-color="#909ADD" stop-opacity="0"/>
</radialGradient>
<radialGradient id="paint2_radial_27_408" cx="0" cy="0" r="1" gradientUnits="userSpaceOnUse" gradientTransform="translate(18.3839 8.70947) rotate(117.432) scale(6.7427 6.60683)">
<stop stop-color="#8874FF"/>
<stop offset="1" stop-color="#8874FF" stop-opacity="0"/>
</radialGradient>
<radialGradient id="paint3_radial_27_408" cx="0" cy="0" r="1" gradientUnits="userSpaceOnUse" gradientTransform="translate(7.51186 8.21076) rotate(35.5872) scale(11.1408 8.93087)">
<stop stop-color="white" stop-opacity="0.79"/>
<stop offset="1" stop-color="white" stop-opacity="0"/>
</radialGradient>
<radialGradient id="paint4_radial_27_408" cx="0" cy="0" r="1" gradientUnits="userSpaceOnUse" gradientTransform="translate(10.1004 9.7069) rotate(43.929) scale(4.49281 3.26084)">
<stop stop-color="white" stop-opacity="0.49"/>
<stop offset="1" stop-color="white" stop-opacity="0"/>
</radialGradient>
<radialGradient id="paint5_radial_27_408" cx="0" cy="0" r="1" gradientUnits="userSpaceOnUse" gradientTransform="translate(17.6779 14.694) rotate(48.8403) scale(3.43248 2.84829)">
<stop stop-color="white" stop-opacity="0.15"/>
<stop offset="1" stop-color="white" stop-opacity="0"/>
</radialGradient>
<linearGradient id="paint6_linear_27_408" x1="15.2776" y1="10.0809" x2="17.9362" y2="19.1134" gradientUnits="userSpaceOnUse">
<stop stop-color="#A893E8"/>
<stop offset="1" stop-color="#9EA1DC"/>
</linearGradient>
<radialGradient id="paint7_radial_27_408" cx="0" cy="0" r="1" gradientUnits="userSpaceOnUse" gradientTransform="translate(19.937 19.9305) rotate(-131.918) scale(6.19956 5.97058)">
<stop stop-color="#606EF5"/>
<stop offset="1" stop-color="#909ADD" stop-opacity="0"/>
</radialGradient>
<radialGradient id="paint8_radial_27_408" cx="0" cy="0" r="1" gradientUnits="userSpaceOnUse" gradientTransform="translate(18.3839 8.70947) rotate(117.047) scale(7.85837 7.7031)">
<stop stop-color="#8874FF"/>
<stop offset="1" stop-color="#8874FF" stop-opacity="0"/>
</radialGradient>
<radialGradient id="paint9_radial_27_408" cx="0" cy="0" r="1" gradientUnits="userSpaceOnUse" gradientTransform="translate(7.51186 8.21076) rotate(38.6456) scale(11.3624 9.14396)">
<stop stop-color="white" stop-opacity="0.79"/>
<stop offset="1" stop-color="white" stop-opacity="0"/>
</radialGradient>
<radialGradient id="paint10_radial_27_408" cx="0" cy="0" r="1" gradientUnits="userSpaceOnUse" gradientTransform="translate(10.1004 9.7069) rotate(42.4428) scale(6.44543 4.66897)">
<stop stop-color="white" stop-opacity="0.49"/>
<stop offset="1" stop-color="white" stop-opacity="0"/>
</radialGradient>
<clipPath id="clip0_27_408">
<rect width="24" height="24" fill="white" transform="translate(4 4)"/>
</clipPath>
</defs>
</svg>
