<svg width="835" height="834" xmlns="http://www.w3.org/2000/svg" xmlns:xlink="http://www.w3.org/1999/xlink" overflow="hidden"><defs><clipPath id="clip0"><rect x="-2310" y="728" width="835" height="834"/></clipPath><clipPath id="clip1"><rect x="-2307" y="731" width="826" height="826"/></clipPath><clipPath id="clip2"><rect x="-2307" y="731" width="826" height="826"/></clipPath><clipPath id="clip3"><rect x="-2307" y="731" width="826" height="826"/></clipPath><linearGradient x1="-1838.08" y1="1543.78" x2="-2055.44" y2="927.93" gradientUnits="userSpaceOnUse" spreadMethod="pad" id="fill4"><stop offset="0" stop-color="#FDCE09" stop-opacity="1"/><stop offset="0.0018" stop-color="#FDCE09" stop-opacity="1"/><stop offset="0.2519" stop-color="#F58E1F" stop-opacity="1"/><stop offset="0.7008" stop-color="#E91F27" stop-opacity="1"/><stop offset="1" stop-color="#8E192D" stop-opacity="1"/></linearGradient><linearGradient x1="-1919.22" y1="776.9" x2="-1753.94" y2="1428.98" gradientUnits="userSpaceOnUse" spreadMethod="pad" id="fill5"><stop offset="0" stop-color="#FAC414" stop-opacity="1"/><stop offset="0.4012" stop-color="#FAC414" stop-opacity="1"/><stop offset="1" stop-color="#E91F27" stop-opacity="1"/></linearGradient></defs><g clip-path="url(#clip0)" transform="translate(2310 -728)"><path d="M-2306.5 1144C-2306.5 916.183-2121.82 731.5-1894 731.5-1666.18 731.5-1481.5 916.183-1481.5 1144-1481.5 1371.82-1666.18 1556.5-1894 1556.5-2121.82 1556.5-2306.5 1371.82-2306.5 1144Z" stroke="#FFFFFF" stroke-width="4.58333" stroke-linecap="butt" stroke-linejoin="miter" stroke-miterlimit="8" stroke-opacity="1" fill="#FFFFFF" fill-rule="evenodd" fill-opacity="1"/><g clip-path="url(#clip1)"><g clip-path="url(#clip2)"><g clip-path="url(#clip3)"><path d="M-1894.27 1367.02-2117.74 1143.55-1894.27 920.077C-1894.27 920.077-2069.3 749.14-2240.37 919.75-2412.65 1186.18-2231.92 1539.19-1915.05 1555.19-1767.98 1562.6-1628.14 1491.01-1548.17 1367.35-1719.24 1537.96-1894.27 1367.02-1894.27 1367.02Z" fill="url(#fill4)" fill-rule="nonzero"/><path d="M-1676 793.908C-1866.92 674.652-2118.2 730.683-2240.37 919.75-2069.3 749.14-1894.27 920.077-1894.27 920.077L-1670.81 1143.55-1894.27 1367.02C-1894.27 1367.02-1719.24 1537.96-1548.17 1367.35-1423.08 1174.06-1480.66 915.767-1676 793.908Z" fill="url(#fill5)" fill-rule="nonzero"/></g></g></g></g></svg>