<?xml version="1.0" encoding="utf-8"?>
<!-- Generator: Adobe Illustrator 24.0.2, SVG Export Plug-In . SVG Version: 6.00 Build 0)  -->
<svg version="1.1" id="Layer_1" xmlns="http://www.w3.org/2000/svg" xmlns:xlink="http://www.w3.org/1999/xlink" x="0px" y="0px"
	 viewBox="0 0 1080 1080" enable-background="new 0 0 1080 1080" xml:space="preserve">
<circle fill="#635DA8" cx="540" cy="540" r="500"/>
<circle fill="#9590C5" cx="540" cy="540" r="435.382"/>
<g>
	<path fill="none" d="M352.462,759.651c-6.98-2.49-12.391-4.629-16.067-6.153l-0.1,0.213
		C340.466,755.354,345.887,757.389,352.462,759.651z"/>
	<path fill="none" d="M742.818,751.813c-4.406,1.734-8.799,3.404-13.178,5.002c4.396-1.566,8.805-3.195,13.228-4.894
		L742.818,751.813z"/>
	<path fill="#E7E5EA" d="M742.818,751.813l0.05,0.108c-4.423,1.699-8.832,3.328-13.228,4.894c-6.64,2.424-13.245,4.691-19.815,6.815
		c10.544,49.234,35.67,89.355,55.759,115.125c5.197,6.667,10.316,12.719,15.154,18.122c-3.208-31.053-8.412-59.368-13.688-82.699
		c14.301,23.749,26.225,50.172,30.638,76.752c10.429-7.674,20.505-15.8,30.196-24.352c-17.27-53.061-58.802-102.322-82.044-126.986
		c-0.17,7.291-1.04,11.443-1.04,11.443C744.139,751.299,743.479,751.553,742.818,751.813z"/>
	<path fill="#E7E5EA" d="M407.714,775.71c-14.311,63.904-48.74,114.099-76.758,146.273c62.044,34.037,133.281,53.4,209.043,53.4
		c74.484,0,144.594-18.715,205.895-51.689c-28.31-32.131-63.774-83.061-78.306-148.218
		C561.977,800.627,469.066,789.972,407.714,775.71z"/>
	<path fill="#E7E5EA" d="M294.556,896.946c4.857-5.421,9.996-11.497,15.215-18.191c20.032-25.696,45.074-65.662,55.671-114.703
		c-4.79-1.545-9.124-3.026-12.98-4.401c-6.575-2.261-11.997-4.297-16.167-5.939l0.1-0.213c-3.738-1.549-5.689-2.462-5.689-2.462
		s-0.509-2.439-0.825-6.843c-23.763,25.867-61.51,72.44-77.767,122.386c9.691,8.552,19.766,16.678,30.196,24.352
		c3.606-21.721,12.229-43.333,23.066-63.47C301.135,847.974,297.178,871.544,294.556,896.946z"/>
	<path fill="#635DA8" d="M537.785,733.748c-95.109,0-193.382-16.299-199.245-43.736c-9.096,24.634-9.365,44.341-8.659,54.18
		c0.316,4.404,0.825,6.843,0.825,6.843s1.951,0.914,5.689,2.462c3.676,1.523,9.087,3.663,16.067,6.153
		c3.855,1.375,8.19,2.857,12.98,4.401c-10.596,49.041-35.639,89.007-55.671,114.703c-5.219,6.694-10.359,12.771-15.215,18.191
		c-0.086,0.832-0.17,1.665-0.253,2.501c11.812,8.092,24.042,15.617,36.654,22.536c28.018-32.174,62.447-82.369,76.758-146.273
		c61.351,14.262,154.263,24.917,259.874-0.235c14.533,65.157,49.997,116.088,78.306,148.218
		c12.156-6.539,23.964-13.638,35.392-21.264c-0.176-1.859-0.357-3.711-0.548-5.551c-4.839-5.403-9.957-11.456-15.154-18.122
		c-20.089-25.77-45.216-65.891-55.759-115.125c6.569-2.124,13.175-4.391,19.815-6.815c4.378-1.598,8.772-3.268,13.178-5.002
		c0.661-0.26,1.321-0.514,1.983-0.778c0,0,0.87-4.151,1.04-11.443c0.25-10.73-1.022-28.272-8.832-49.47
		C730.907,717.493,632.767,733.748,537.785,733.748z"/>
	<path fill="#635DA8" d="M342.526,687.411c0,20.317,78.46,42.071,195.259,42.071s195.26-21.754,195.26-42.071
		c0-6.285-7.515-12.706-21.342-18.579c-48.288,32.717-107.591,52.01-171.703,52.01c-64.85,0-124.778-19.741-173.364-53.147
		C351.043,673.871,342.526,680.719,342.526,687.411z"/>
	<path fill="#9590C5" d="M733.045,687.411c0,20.317-78.461,42.071-195.26,42.071s-195.259-21.754-195.259-42.071
		c0-6.693,8.517-13.541,24.109-19.716c-1.404-0.965-2.799-1.94-4.183-2.928c-15.206,6.415-24.193,14.012-24.193,22.644
		c0,0.878,0.097,1.745,0.28,2.601c5.863,27.437,104.136,43.736,199.245,43.736c94.982,0,193.122-16.255,199.224-43.625
		c0.199-0.892,0.301-1.796,0.301-2.712c0-8.097-7.911-15.282-21.441-21.437c-1.376,0.967-2.771,1.912-4.166,2.858
		C725.53,674.705,733.045,681.127,733.045,687.411z"/>
	<path fill="#635DA8" d="M903.184,437.02c0-6.145-0.619-12.285-1.84-18.251c-0.297-1.449-0.63-2.892-0.998-4.326
		c-0.002-0.01-0.005-0.019-0.007-0.029c-1.109-4.313-2.54-8.55-4.272-12.644c-2.27-5.366-5.079-10.542-8.35-15.383
		c-3.24-4.795-6.96-9.305-11.059-13.403c-4.098-4.098-8.607-7.819-13.403-11.059c-4.841-3.271-10.017-6.08-15.383-8.35
		c-5.466-2.312-11.185-4.087-16.999-5.277c-5.471-1.119-11.089-1.727-16.722-1.821c12.574,30.684,19.484,64.006,19.484,98.846
		c0,28.526-4.62,56.039-13.197,81.917c3.514-0.301,7.004-0.797,10.435-1.499c5.814-1.19,11.533-2.965,16.999-5.277
		c5.366-2.27,10.542-5.079,15.383-8.35c4.796-3.24,9.306-6.96,13.403-11.059c4.099-4.098,7.818-8.607,11.059-13.403
		c3.271-4.841,6.08-10.017,8.35-15.383c1.732-4.096,3.163-8.334,4.273-12.648c0.002-0.007,0.004-0.014,0.005-0.02
		c0.369-1.436,0.702-2.88,0.999-4.33C902.564,449.305,903.184,443.164,903.184,437.02z M861.93,477.404
		c-9.172,0-16.607-7.435-16.607-16.607s7.435-16.607,16.607-16.607s16.607,7.435,16.607,16.607S871.101,477.404,861.93,477.404z
		 M861.93,429.849c-9.172,0-16.607-7.435-16.607-16.607s7.435-16.607,16.607-16.607s16.607,7.435,16.607,16.607
		S871.101,429.849,861.93,429.849z"/>
	<path fill="#A47C2C" d="M830.873,348.298c5.814,1.19,11.533,2.965,16.999,5.277c5.366,2.27,10.542,5.079,15.383,8.35
		c4.796,3.24,9.306,6.96,13.403,11.059c4.099,4.098,7.818,8.607,11.059,13.403c3.271,4.841,6.08,10.017,8.35,15.383
		c1.732,4.094,3.162,8.332,4.272,12.644c-0.134-0.521-0.258-1.045-0.402-1.565c-0.112-0.404-0.226-0.807-0.343-1.209
		c-0.297-1.018-0.611-2.03-0.944-3.037c-0.133-0.404-0.269-0.807-0.408-1.208c-0.351-1.014-0.719-2.02-1.106-3.021
		c-0.142-0.367-0.286-0.733-0.433-1.098c-0.203-0.506-0.387-1.02-0.599-1.522c-0.219-0.517-0.466-1.022-0.694-1.535
		c-0.142-0.318-0.285-0.635-0.43-0.952c-0.455-0.99-0.927-1.971-1.418-2.945c-0.178-0.353-0.358-0.704-0.54-1.055
		c-0.49-0.941-0.995-1.872-1.518-2.796c-0.196-0.346-0.394-0.692-0.595-1.036c-0.546-0.936-1.109-1.861-1.688-2.777
		c-0.188-0.298-0.378-0.594-0.57-0.89c-0.303-0.466-0.589-0.944-0.9-1.405c-0.318-0.471-0.662-0.925-0.989-1.39
		c-0.183-0.26-0.368-0.52-0.554-0.778c-0.65-0.903-1.315-1.794-1.999-2.674c-0.219-0.282-0.44-0.563-0.662-0.842
		c-0.677-0.851-1.368-1.688-2.075-2.515c-0.237-0.277-0.475-0.552-0.715-0.826c-0.726-0.829-1.467-1.643-2.222-2.444
		c-0.228-0.242-0.457-0.482-0.688-0.722c-0.389-0.404-0.764-0.821-1.16-1.218c-0.398-0.398-0.817-0.774-1.222-1.165
		c-0.235-0.227-0.471-0.452-0.709-0.676c-0.808-0.762-1.63-1.509-2.466-2.242c-0.265-0.232-0.531-0.463-0.799-0.692
		c-0.831-0.711-1.673-1.406-2.528-2.086c-0.281-0.224-0.564-0.446-0.848-0.666c-0.868-0.674-1.746-1.33-2.637-1.972
		c-0.282-0.203-0.565-0.404-0.849-0.604c-0.452-0.318-0.893-0.652-1.351-0.961c-0.449-0.303-0.914-0.582-1.368-0.877
		c-0.316-0.205-0.633-0.409-0.952-0.61c-0.907-0.573-1.823-1.13-2.751-1.671c-0.344-0.201-0.689-0.399-1.035-0.595
		c-0.923-0.522-1.854-1.028-2.794-1.517c-0.354-0.184-0.709-0.366-1.065-0.545c-0.965-0.486-1.936-0.954-2.916-1.404
		c-0.334-0.154-0.669-0.305-1.005-0.454c-0.503-0.224-0.998-0.466-1.504-0.68c-0.488-0.206-0.988-0.385-1.48-0.583
		c-0.392-0.158-0.785-0.312-1.179-0.464c-0.976-0.377-1.958-0.737-2.948-1.079c-0.426-0.147-0.853-0.292-1.281-0.433
		c-0.98-0.323-1.965-0.629-2.956-0.919c-0.432-0.126-0.865-0.249-1.299-0.368c-1.018-0.281-2.039-0.543-3.066-0.788
		c-0.405-0.097-0.811-0.19-1.217-0.281c-0.528-0.118-1.052-0.256-1.581-0.365c-5.479-1.121-11.105-1.729-16.746-1.822
		c0.005,0.013,0.011,0.027,0.016,0.04C819.784,346.571,825.402,347.178,830.873,348.298z"/>
	<path fill="#A47C2C" d="M887.717,487.653c-3.24,4.795-6.96,9.305-11.059,13.403c-4.098,4.098-8.607,7.819-13.403,11.059
		c-4.841,3.271-10.017,6.08-15.383,8.35c-5.466,2.312-11.185,4.087-16.999,5.277c-3.431,0.702-6.921,1.198-10.435,1.499
		c-0.005,0.014-0.009,0.028-0.014,0.041c3.521-0.301,7.018-0.798,10.457-1.501c0.523-0.107,1.041-0.244,1.562-0.36
		c0.419-0.094,0.836-0.19,1.254-0.289c1.014-0.242,2.023-0.501,3.029-0.778c0.446-0.123,0.891-0.249,1.336-0.379
		c0.979-0.286,1.951-0.588,2.92-0.907c0.44-0.145,0.879-0.293,1.316-0.445c0.978-0.339,1.948-0.694,2.913-1.066
		c0.406-0.156,0.81-0.316,1.214-0.478c0.486-0.196,0.981-0.372,1.464-0.577c0.5-0.212,0.99-0.451,1.487-0.672
		c0.347-0.154,0.693-0.31,1.038-0.469c0.969-0.446,1.929-0.908,2.883-1.388c0.367-0.185,0.732-0.372,1.096-0.561
		c0.93-0.484,1.85-0.984,2.763-1.5c0.357-0.202,0.712-0.406,1.066-0.612c0.917-0.535,1.824-1.086,2.721-1.653
		c0.328-0.207,0.655-0.417,0.981-0.629c0.45-0.292,0.91-0.568,1.354-0.868c0.452-0.305,0.889-0.636,1.336-0.95
		c0.294-0.207,0.588-0.415,0.88-0.626c0.88-0.634,1.749-1.283,2.607-1.949c0.294-0.228,0.586-0.457,0.876-0.689
		c0.846-0.673,1.68-1.361,2.502-2.065c0.276-0.236,0.551-0.474,0.825-0.714c0.827-0.725,1.64-1.464,2.44-2.218
		c0.246-0.232,0.49-0.465,0.733-0.699c0.401-0.387,0.817-0.76,1.211-1.154c0.393-0.393,0.765-0.807,1.151-1.207
		c0.237-0.246,0.473-0.493,0.708-0.742c0.749-0.795,1.483-1.602,2.203-2.424c0.246-0.281,0.49-0.562,0.732-0.846
		c0.701-0.82,1.387-1.651,2.058-2.494c0.228-0.286,0.453-0.573,0.677-0.862c0.678-0.874,1.339-1.758,1.984-2.654
		c0.191-0.265,0.38-0.531,0.567-0.798c0.325-0.462,0.666-0.913,0.982-1.381c0.309-0.458,0.593-0.932,0.894-1.396
		c0.196-0.302,0.39-0.604,0.582-0.909c0.575-0.91,1.134-1.829,1.677-2.759c0.204-0.35,0.406-0.701,0.605-1.053
		c0.519-0.918,1.022-1.844,1.509-2.779c0.185-0.356,0.368-0.713,0.548-1.071c0.488-0.969,0.958-1.945,1.41-2.929
		c0.148-0.321,0.293-0.644,0.437-0.967c0.227-0.51,0.473-1.014,0.691-1.528c0.211-0.499,0.394-1.011,0.596-1.514
		c0.149-0.37,0.295-0.741,0.439-1.113c0.384-0.996,0.751-1.997,1.101-3.006c0.141-0.406,0.278-0.814,0.413-1.222
		c0.331-1.003,0.644-2.01,0.94-3.024c0.118-0.406,0.234-0.813,0.346-1.221c0.143-0.519,0.268-1.042,0.401-1.563
		c-1.11,4.314-2.54,8.553-4.273,12.648C893.797,477.636,890.987,482.812,887.717,487.653z"/>
	<path fill="#A47C2C" d="M901.383,418.76c-0.112-0.548-0.255-1.09-0.378-1.636c-0.083-0.37-0.168-0.74-0.256-1.109
		c-0.125-0.527-0.269-1.048-0.404-1.573c0.368,1.434,0.702,2.877,0.998,4.326c1.221,5.966,1.84,12.107,1.84,18.251
		s-0.619,12.285-1.84,18.251c-0.297,1.45-0.63,2.894-0.999,4.33c0.135-0.524,0.279-1.045,0.404-1.572
		c0.089-0.373,0.174-0.745,0.258-1.119c0.122-0.545,0.265-1.085,0.376-1.632c1.221-5.969,1.84-12.112,1.84-18.259
		S902.604,424.729,901.383,418.76z"/>
	<path fill="#A47C2C" d="M900.344,459.601c-0.002,0.007-0.004,0.013-0.005,0.02C900.341,459.615,900.343,459.608,900.344,459.601z"
		/>
	<path fill="#A47C2C" d="M900.338,414.413c0.002,0.01,0.005,0.019,0.007,0.029C900.343,414.432,900.341,414.423,900.338,414.413z"/>
	
		<ellipse transform="matrix(0.3827 -0.9239 0.9239 0.3827 106.3625 1080.7772)" fill="#E7E5EA" cx="861.93" cy="460.797" rx="16.607" ry="16.607"/>
	
		<ellipse transform="matrix(0.3827 -0.9239 0.9239 0.3827 150.2979 1051.4207)" fill="#E7E5EA" cx="861.93" cy="413.242" rx="16.607" ry="16.607"/>
	<path fill="#635DA8" d="M232.128,353.575c-5.366,2.27-10.542,5.079-15.383,8.35c-4.795,3.24-9.305,6.96-13.403,11.059
		s-7.819,8.607-11.059,13.403c-3.271,4.841-6.08,10.017-8.35,15.383c-2.312,5.465-4.087,11.185-5.277,16.999
		c-1.221,5.966-1.84,12.107-1.84,18.251s0.619,12.285,1.84,18.251c1.19,5.814,2.965,11.534,5.277,16.999
		c2.27,5.366,5.079,10.542,8.35,15.383c3.24,4.795,6.96,9.305,11.059,13.403s8.607,7.819,13.403,11.059
		c4.841,3.271,10.017,6.08,15.383,8.35c5.465,2.312,11.185,4.087,16.999,5.277c3.431,0.702,6.92,1.198,10.434,1.499
		c-8.577-25.878-13.197-53.391-13.197-81.917c0-34.84,6.91-68.161,19.484-98.846c-5.633,0.094-11.251,0.701-16.722,1.821
		C243.313,349.488,237.594,351.263,232.128,353.575z M218.07,477.404c-9.172,0-16.607-7.435-16.607-16.607
		s7.435-16.607,16.607-16.607s16.607,7.435,16.607,16.607S227.242,477.404,218.07,477.404z M218.07,429.849
		c-9.172,0-16.607-7.435-16.607-16.607s7.435-16.607,16.607-16.607s16.607,7.435,16.607,16.607S227.242,429.849,218.07,429.849z"/>
	<path fill="#A47C2C" d="M249.127,525.741c-5.814-1.19-11.534-2.965-16.999-5.277c-5.366-2.27-10.542-5.079-15.383-8.35
		c-4.795-3.24-9.305-6.96-13.403-11.059s-7.819-8.607-11.059-13.403c-3.271-4.841-6.08-10.017-8.35-15.383
		c-2.312-5.465-4.087-11.185-5.277-16.999c-1.221-5.966-1.84-12.107-1.84-18.251s0.619-12.285,1.84-18.251
		c1.19-5.814,2.965-11.534,5.277-16.999c2.27-5.366,5.079-10.542,8.35-15.383c3.24-4.795,6.96-9.305,11.059-13.403
		s8.607-7.819,13.403-11.059c4.841-3.271,10.017-6.08,15.383-8.35c5.465-2.312,11.185-4.087,16.999-5.277
		c5.471-1.119,11.089-1.727,16.722-1.821c0.005-0.013,0.011-0.027,0.016-0.04c-5.641,0.093-11.267,0.701-16.746,1.822
		c-0.527,0.108-1.047,0.245-1.572,0.363c-0.412,0.092-0.824,0.187-1.235,0.285c-1.02,0.243-2.034,0.504-3.045,0.782
		c-0.441,0.122-0.882,0.246-1.321,0.375c-0.983,0.287-1.96,0.591-2.932,0.911c-0.437,0.144-0.872,0.291-1.306,0.441
		c-0.98,0.34-1.953,0.696-2.92,1.069c-0.404,0.156-0.806,0.314-1.208,0.476c-0.487,0.196-0.983,0.373-1.466,0.578
		c-0.502,0.212-0.993,0.452-1.491,0.674c-0.344,0.153-0.688,0.308-1.031,0.466c-0.971,0.447-1.934,0.91-2.89,1.392
		c-0.365,0.184-0.729,0.37-1.091,0.558c-0.931,0.485-1.852,0.985-2.765,1.502c-0.357,0.202-0.712,0.406-1.066,0.612
		c-0.919,0.536-1.826,1.088-2.725,1.656c-0.324,0.205-0.647,0.412-0.968,0.62c-0.452,0.294-0.916,0.571-1.362,0.873
		c-0.455,0.308-0.895,0.64-1.345,0.957c-0.289,0.203-0.577,0.408-0.864,0.614c-0.881,0.634-1.75,1.284-2.609,1.951
		c-0.297,0.231-0.593,0.463-0.888,0.698c-0.839,0.668-1.665,1.35-2.481,2.047c-0.285,0.244-0.569,0.49-0.852,0.738
		c-0.818,0.717-1.622,1.449-2.414,2.194c-0.254,0.239-0.507,0.48-0.758,0.722c-0.397,0.383-0.809,0.753-1.199,1.143
		c-0.39,0.39-0.76,0.802-1.143,1.2c-0.242,0.251-0.482,0.503-0.721,0.757c-0.745,0.791-1.476,1.594-2.193,2.412
		c-0.249,0.284-0.497,0.57-0.743,0.858c-0.695,0.813-1.375,1.637-2.041,2.473c-0.237,0.297-0.471,0.596-0.704,0.896
		c-0.664,0.856-1.312,1.723-1.945,2.601c-0.208,0.289-0.414,0.579-0.618,0.87c-0.316,0.449-0.648,0.888-0.955,1.343
		c-0.301,0.446-0.578,0.909-0.872,1.361c-0.21,0.323-0.417,0.647-0.623,0.973c-0.566,0.896-1.117,1.801-1.651,2.717
		c-0.209,0.358-0.415,0.717-0.619,1.077c-0.515,0.911-1.013,1.828-1.496,2.756c-0.19,0.365-0.377,0.731-0.562,1.099
		c-0.48,0.952-0.941,1.911-1.386,2.878c-0.16,0.348-0.318,0.697-0.473,1.047c-0.22,0.495-0.459,0.984-0.67,1.482
		c-0.204,0.482-0.38,0.976-0.576,1.461c-0.163,0.405-0.323,0.811-0.48,1.218c-0.372,0.964-0.727,1.933-1.065,2.909
		c-0.152,0.439-0.3,0.879-0.446,1.32c-0.319,0.968-0.621,1.94-0.907,2.918c-0.13,0.445-0.256,0.89-0.379,1.337
		c-0.277,1.006-0.536,2.014-0.778,3.028c-0.099,0.417-0.196,0.835-0.289,1.253c-0.117,0.522-0.253,1.039-0.361,1.563
		c-1.221,5.969-1.841,12.112-1.841,18.259s0.62,12.291,1.841,18.259c0.107,0.522,0.243,1.038,0.359,1.558
		c0.094,0.422,0.191,0.842,0.291,1.263c0.241,1.01,0.499,2.015,0.775,3.017c0.124,0.45,0.251,0.9,0.382,1.348
		c0.285,0.974,0.585,1.942,0.903,2.905c0.147,0.446,0.297,0.89,0.45,1.333c0.337,0.972,0.69,1.936,1.06,2.894
		c0.159,0.413,0.321,0.824,0.486,1.234c0.194,0.483,0.37,0.974,0.573,1.454c0.21,0.496,0.448,0.982,0.667,1.475
		c0.158,0.355,0.318,0.709,0.48,1.062c0.443,0.962,0.902,1.916,1.378,2.863c0.188,0.373,0.378,0.745,0.571,1.115
		c0.48,0.922,0.975,1.834,1.487,2.739c0.207,0.366,0.417,0.731,0.629,1.095c0.531,0.91,1.078,1.809,1.64,2.7
		c0.21,0.332,0.421,0.662,0.635,0.991c0.292,0.449,0.567,0.908,0.866,1.351c0.305,0.451,0.635,0.887,0.948,1.333
		c0.209,0.297,0.419,0.594,0.632,0.889c0.628,0.872,1.271,1.732,1.93,2.582c0.238,0.307,0.478,0.612,0.719,0.916
		c0.661,0.83,1.335,1.647,2.024,2.453c0.252,0.294,0.505,0.587,0.76,0.878c0.711,0.811,1.435,1.607,2.174,2.392
		c0.245,0.261,0.492,0.52,0.741,0.777c0.38,0.394,0.747,0.802,1.134,1.189c0.386,0.386,0.794,0.752,1.187,1.132
		c0.259,0.25,0.52,0.498,0.782,0.745c0.783,0.738,1.579,1.461,2.388,2.171c0.291,0.255,0.584,0.509,0.878,0.76
		c0.807,0.69,1.624,1.364,2.454,2.025c0.304,0.242,0.609,0.482,0.916,0.72c0.849,0.659,1.708,1.301,2.579,1.928
		c0.297,0.214,0.595,0.426,0.894,0.636c0.445,0.313,0.88,0.642,1.33,0.946c0.442,0.299,0.901,0.573,1.349,0.864
		c0.331,0.215,0.663,0.428,0.997,0.639c0.889,0.562,1.787,1.108,2.696,1.638c0.364,0.213,0.729,0.422,1.096,0.63
		c0.903,0.511,1.814,1.005,2.734,1.485c0.373,0.194,0.747,0.386,1.123,0.575c0.945,0.476,1.897,0.934,2.858,1.376
		c0.354,0.163,0.708,0.323,1.064,0.481c0.493,0.219,0.978,0.457,1.474,0.666c0.478,0.202,0.968,0.377,1.449,0.571
		c0.413,0.166,0.827,0.329,1.242,0.489c0.956,0.368,1.917,0.721,2.886,1.056c0.446,0.155,0.893,0.306,1.342,0.453
		c0.961,0.316,1.925,0.616,2.896,0.9c0.452,0.132,0.904,0.26,1.357,0.385c0.999,0.275,2.001,0.532,3.008,0.773
		c0.423,0.101,0.847,0.199,1.272,0.293c0.519,0.116,1.033,0.252,1.554,0.358c3.438,0.703,6.935,1.2,10.456,1.501
		c-0.005-0.014-0.009-0.028-0.014-0.041C256.048,526.939,252.558,526.443,249.127,525.741z"/>
	
		<ellipse transform="matrix(0.9871 -0.1602 0.1602 0.9871 -70.9958 40.8811)" fill="#E7E5EA" cx="218.07" cy="460.797" rx="16.607" ry="16.607"/>
	
		<ellipse transform="matrix(0.9871 -0.1602 0.1602 0.9871 -63.3782 40.267)" fill="#E7E5EA" cx="218.07" cy="413.242" rx="16.607" ry="16.607"/>
	<path fill="#635DA8" d="M814.151,346.477c-0.005-0.013-0.011-0.027-0.016-0.04C771.779,243.127,665.023,169.804,540,169.804
		s-231.779,73.323-274.135,176.633c-0.005,0.013-0.011,0.027-0.016,0.04c-12.574,30.684-19.484,64.006-19.484,98.846
		c0,28.526,4.62,56.039,13.197,81.917c0.005,0.014,0.009,0.028,0.014,0.041c18.354,55.349,54.82,103.2,102.877,137.486
		c1.385,0.988,2.779,1.963,4.183,2.928C415.222,701.101,475.15,720.842,540,720.842c64.112,0,123.415-19.293,171.703-52.01
		c1.395-0.945,2.79-1.89,4.166-2.858c48.892-34.364,85.986-82.698,104.555-138.693c0.005-0.014,0.009-0.028,0.014-0.041
		c8.577-25.878,13.197-53.391,13.197-81.917C833.635,410.483,826.725,377.162,814.151,346.477z"/>
	<path fill="#E7E5EA" d="M814.151,346.477c-0.005-0.013-0.011-0.027-0.016-0.04C771.779,243.127,665.023,169.804,540,169.804
		s-231.779,73.323-274.135,176.633c-0.005,0.013-0.011,0.027-0.016,0.04c-12.574,30.684-19.484,64.006-19.484,98.846
		c0,28.526,4.62,56.039,13.197,81.917c0.005,0.014,0.009,0.028,0.014,0.041c18.354,55.349,54.82,103.2,102.877,137.486
		c1.385,0.988,2.779,1.963,4.183,2.928C415.222,701.101,475.15,720.842,540,720.842c64.112,0,123.415-19.293,171.703-52.01
		c1.395-0.945,2.79-1.89,4.166-2.858c48.892-34.364,85.986-82.698,104.555-138.693c0.005-0.014,0.009-0.028,0.014-0.041
		c8.577-25.878,13.197-53.391,13.197-81.917C833.635,410.483,826.725,377.162,814.151,346.477z M540,647.561
		c-197.335,0-250.609-94.993-250.609-212.172S401.593,223.218,540,223.218S790.609,318.21,790.609,435.39
		S737.335,647.561,540,647.561z"/>
	<path fill="#E7E5EA" d="M780.739,896.877c0.19,1.84,0.372,3.692,0.548,5.551c5.559-3.71,11.028-7.543,16.403-11.498
		c-4.413-26.581-16.337-53.003-30.638-76.752C772.327,837.509,777.531,865.825,780.739,896.877z"/>
	<path opacity="0.15" fill="#635DA8" d="M780.739,896.877c0.19,1.84,0.372,3.692,0.548,5.551c5.559-3.71,11.028-7.543,16.403-11.498
		c-4.413-26.581-16.337-53.003-30.638-76.752C772.327,837.509,777.531,865.825,780.739,896.877z"/>
	<path fill="#E7E5EA" d="M305.377,827.461c-10.838,20.137-19.461,41.75-23.066,63.47c3.947,2.904,7.946,5.743,11.993,8.516
		c0.083-0.836,0.167-1.669,0.253-2.501C297.178,871.544,301.135,847.974,305.377,827.461z"/>
	<path opacity="0.15" fill="#635DA8" d="M305.377,827.461c-10.838,20.137-19.461,41.75-23.066,63.47
		c3.947,2.904,7.946,5.743,11.993,8.516c0.083-0.836,0.167-1.669,0.253-2.501C297.178,871.544,301.135,847.974,305.377,827.461z"/>
</g>
<g>
</g>
<g>
</g>
<g>
</g>
<g>
</g>
<g>
</g>
<g>
</g>
<g>
</g>
<g>
</g>
<g>
</g>
<g>
</g>
<g>
</g>
</svg>
