<svg width="834" height="834" xmlns="http://www.w3.org/2000/svg" xmlns:xlink="http://www.w3.org/1999/xlink" overflow="hidden"><defs><clipPath id="clip0"><rect x="-2296" y="742" width="834" height="834"/></clipPath><clipPath id="clip1"><rect x="-2159" y="881" width="560" height="559"/></clipPath><clipPath id="clip2"><rect x="-2159" y="881" width="560" height="559"/></clipPath><clipPath id="clip3"><rect x="-2159" y="881" width="560" height="559"/></clipPath><linearGradient x1="-1714.23" y1="1048.06" x2="-2096.05" y2="1309.27" gradientUnits="userSpaceOnUse" spreadMethod="pad" id="fill4"><stop offset="0" stop-color="#FFFFFF" stop-opacity="1"/><stop offset="1" stop-color="#38219F" stop-opacity="1"/></linearGradient><linearGradient x1="-1979.91" y1="1370.76" x2="-1600.8" y2="1150.41" gradientUnits="userSpaceOnUse" spreadMethod="pad" id="fill5"><stop offset="0" stop-color="#75FBFD" stop-opacity="1"/><stop offset="1" stop-color="#121593" stop-opacity="1"/></linearGradient></defs><g clip-path="url(#clip0)" transform="translate(2296 -742)"><path d="M-2290.5 1161C-2290.5 933.182-2105.82 748.5-1878 748.5-1650.18 748.5-1465.5 933.182-1465.5 1161-1465.5 1388.82-1650.18 1573.5-1878 1573.5-2105.82 1573.5-2290.5 1388.82-2290.5 1161Z" stroke="#FFFFFF" stroke-width="4.58333" stroke-linecap="butt" stroke-linejoin="miter" stroke-miterlimit="8" stroke-opacity="1" fill="#FFFFFF" fill-rule="evenodd" fill-opacity="1"/><g clip-path="url(#clip1)"><g clip-path="url(#clip2)"><g clip-path="url(#clip3)"><path d="M-2107.37 931.609C-2195.9 1020.13-2165.02 1194.09-2038.75 1320.7-1912.49 1447.31-1738.18 1477.85-1649.66 1389.32-1561.14 1300.8-1592.02 1126.84-1718.28 1000.23-1844.55 873.623-2018.85 843.086-2107.37 931.609ZM-1757.4 1281.58C-1804.06 1328.25-1896.36 1312.12-1963.27 1245.21-2030.17 1178.31-2046.64 1086.01-1999.64 1039.35-1952.63 992.683-1860.68 1008.81-1793.77 1075.72-1726.86 1142.62-1710.39 1234.92-1757.4 1281.58Z" fill="url(#fill4)" fill-rule="nonzero"/><path d="M-1792.74 1076.75C-1726.52 1143.65-1710.73 1235.26-1757.4 1281.58-1804.06 1327.9-1895.67 1312.12-1962.24 1246.28L-2037.72 1321.76C-1911.46 1447.34-1737.84 1477.88-1649.66 1389.36-1561.48 1300.83-1592.02 1127.56-1717.25 1001.3Z" fill="url(#fill5)" fill-rule="nonzero"/></g></g></g></g></svg>