<svg id="Layer_1" data-name="Layer 1" xmlns="http://www.w3.org/2000/svg" xmlns:xlink="http://www.w3.org/1999/xlink" viewBox="0 0 162.85 162.92"><defs><style>.cls-1{fill:url(#linear-gradient);}.cls-2{fill:url(#linear-gradient-2);}</style><linearGradient id="linear-gradient" x1="137.88" y1="124.77" x2="26.6" y2="48.64" gradientTransform="matrix(1, 0, 0, -1, 0, 182)" gradientUnits="userSpaceOnUse"><stop offset="0" stop-color="#fff"/><stop offset="1" stop-color="#38219f"/></linearGradient><linearGradient id="linear-gradient-2" x1="60.45" y1="30.72" x2="170.94" y2="94.94" gradientTransform="matrix(1, 0, 0, -1, 0, 182)" gradientUnits="userSpaceOnUse"><stop offset="0" stop-color="#75fbfd"/><stop offset="1" stop-color="#121593"/></linearGradient></defs><title>pros_logo1</title><path class="cls-1" d="M23.3,23.29c-25.8,25.8-16.8,76.5,20,113.4s87.6,45.8,113.4,20,16.8-76.5-20-113.4S49.1-2.51,23.3,23.29Zm102,102c-13.6,13.6-40.5,8.9-60-10.6s-24.3-46.4-10.6-60,40.5-8.9,60,10.6S139,111.69,125.3,125.29Z" transform="translate(-8.58 -8.54)"/><path class="cls-2" d="M115,65.59c19.3,19.5,23.9,46.2,10.3,59.7S85,134.19,65.6,115l-22,22c36.8,36.6,87.4,45.5,113.1,19.7s16.8-76.3-19.7-113.1Z" transform="translate(-8.58 -8.54)"/></svg>