<svg width="990" height="990" xmlns="http://www.w3.org/2000/svg" xmlns:xlink="http://www.w3.org/1999/xlink" overflow="hidden"><defs><clipPath id="clip0"><rect x="1705" y="517" width="990" height="990"/></clipPath><clipPath id="clip1"><rect x="1809" y="621" width="782" height="783"/></clipPath><clipPath id="clip2"><rect x="1809" y="621" width="782" height="783"/></clipPath><clipPath id="clip3"><rect x="1809" y="621" width="782" height="783"/></clipPath></defs><g clip-path="url(#clip0)" transform="translate(-1705 -517)"><path d="M1709 1013C1709 741.828 1928.83 522 2200 522 2471.17 522 2691 741.828 2691 1013 2691 1284.17 2471.17 1504 2200 1504 1928.83 1504 1709 1284.17 1709 1013Z" fill="#FFFFFF" fill-rule="evenodd" fill-opacity="1"/><g clip-path="url(#clip1)"><g clip-path="url(#clip2)"><g clip-path="url(#clip3)"><path d="M2569.76 903.53C2520.04 903.53 2471.8 903.367 2423.52 903.724 2417.07 903.789 2415.81 899.83 2413.61 895.611 2382.2 835.382 2335.34 793.618 2272.46 771.583 2160.71 732.383 2034.52 783.396 1978.56 890.452 1973.53 900.057 1968.24 904.016 1957.2 903.822 1912.95 903.043 1868.64 903.498 1823.54 903.498 1827.73 890.549 1831.76 878.445 1835.47 866.276 1837.58 859.396 1842.83 860.045 1847.87 860.207 1872.54 860.954 1897.25 861.473 1921.89 862.772 1931.08 863.258 1937.43 860.565 1942.63 852.614 1949.83 841.581 1957.61 830.904 1965.79 820.618 1970.82 814.257 1971.77 808.513 1968.81 800.725 1959.93 777.133 1952.04 753.151 1943.16 729.56 1940.3 721.901 1940.83 717.293 1948.07 712.555 1961.92 703.469 1975.39 693.668 1988.41 683.349 1995.56 677.67 2000.91 677.54 2008.05 683.349 2027.44 699.088 2047.42 713.983 2066.93 729.56 2073.42 734.752 2079.24 736.081 2087.33 732.87 2100.01 727.774 2113.23 723.913 2126.44 720.31 2133.05 718.526 2136.14 714.729 2137.93 708.336 2144.54 684.777 2151.75 661.38 2158.13 637.755 2161.03 626.981 2165.84 621.238 2177.77 622.081 2193 623.152 2208.36 622.795 2223.65 622.536 2233.03 622.373 2237.53 626.527 2240.02 635.905 2246.5 660.341 2254.18 684.452 2260.92 708.824 2262.96 716.287 2266.93 720.278 2274.1 722.388 2287.23 726.185 2300.22 730.468 2313.09 735.108 2318.98 737.218 2323.35 736.245 2328.23 732.35 2348.09 716.579 2368.36 701.36 2388.12 685.491 2395.01 679.974 2400.36 679 2407.72 685.069 2420.25 695.388 2433.47 704.832 2446.84 713.983 2454.33 719.078 2456.16 724.205 2452.79 733.129 2444.01 756.364 2436.39 780.054 2427.8 803.386 2425.03 810.914 2424.84 817.275 2430.32 823.44 2432.14 825.518 2433.5 828.049 2435.1 830.32 2459.08 864.361 2459.08 864.361 2500.06 862.446 2515.7 861.7 2531.37 861.279 2547.01 860.272 2553.59 859.851 2556.99 862.349 2558.81 868.904 2561.96 880.035 2565.77 891.004 2569.76 903.53Z" fill="#D8091E" fill-rule="nonzero" fill-opacity="1"/><path d="M2099.76 1190.43C2085.47 1190.46 2077.07 1184.14 2072.5 1172.58 2067.94 1161.03 2069.61 1149.93 2078.7 1141.66 2091.61 1129.91 2105.55 1119.4 2118.64 1107.91 2162.23 1069.68 2204.05 1029.47 2244.83 988.164 2253.55 979.338 2258.68 981.641 2265.76 988.716 2276.46 999.393 2276.81 1000.11 2266.83 1011.24 2221.7 1061.67 2175.29 1110.93 2132.49 1163.53 2128.71 1168.14 2125.22 1173.01 2121.88 1177.97 2116.09 1186.7 2108.13 1190.72 2099.76 1190.43Z" fill="#15294C" fill-rule="nonzero" fill-opacity="1"/><path d="M2175.95 960.872C2121.57 953.084 2091.45 997.834 2098.62 1041.97 2089.21 1031.94 2079.84 1021.88 2070.36 1011.95 2061.02 1002.18 2051.73 992.284 2042.04 982.906 2037.07 978.103 2036.03 974.793 2041.54 969.276 2063.97 946.756 2086.04 923.748 2108.19 900.903 2111.37 897.625 2114.08 894.347 2118.76 899.248 2137.68 919.108 2156.81 938.772 2175.82 958.567 2176.2 958.99 2175.91 960.093 2175.95 960.872Z" fill="#15294C" fill-rule="nonzero" fill-opacity="1"/><path d="M2296.13 1041.49C2297.01 1017.47 2293.36 996.346 2276.62 979.406 2260.16 962.726 2239.86 958.734 2216.54 959.774 2236.24 939.783 2256.01 919.858 2275.61 899.738 2279.04 896.234 2281.4 896.98 2284.36 900.063 2307.58 924.044 2330.81 948.025 2354.19 971.877 2357.84 975.61 2357.59 977.979 2354 981.645 2334.59 1001.47 2315.39 1021.53 2296.13 1041.49Z" fill="#15294C" fill-rule="nonzero" fill-opacity="1"/><path d="M2207.29 1101.65C2216.26 1091.72 2225.04 1081.98 2233.82 1072.28 2243.13 1080.71 2252.48 1089.12 2261.79 1097.56 2277.37 1111.67 2292.54 1126.34 2309.66 1138.58 2319.26 1145.42 2323.6 1155.09 2321.87 1166.68 2320.14 1178.13 2313.59 1186.31 2302.39 1190.14 2290.49 1194.2 2280.3 1191.02 2272.87 1181.44 2251.78 1154.31 2230.26 1127.64 2207.29 1101.65Z" fill="#15294C" fill-rule="nonzero" fill-opacity="1"/><path d="M2435.51 1127.45C2427.73 1128.94 2417.95 1121.77 2412.38 1132.57 2393.87 1168.46 2367.66 1197.28 2336.31 1221.52 2329.83 1225.61 2323.47 1229.89 2316.83 1233.72 2267.77 1262.02 2215.12 1273.15 2159.61 1264.32 2078.82 1251.44 2018.15 1207.47 1977.84 1134.07 1975.6 1130.01 1973.56 1126.93 1968.17 1126.96 1920.75 1127.15 1873.35 1127.06 1825.43 1127.06 1826.68 1138.41 1832 1147.5 1834.87 1157.4 1836.98 1164.76 1841.1 1166.39 1847.8 1166.1 1868.54 1165.15 1889.37 1165.58 1909.99 1163.63 1927.14 1162.01 1940.48 1165.12 1948.98 1182.16 1952.5 1189.23 1957.76 1195.5 1962.82 1201.66 1968.46 1208.51 1969.46 1215.03 1966.13 1223.73 1957 1247.61 1949.07 1271.95 1940.26 1295.93 1937.96 1302.19 1938.47 1306.35 1944.04 1310.37 1959.11 1321.18 1974.06 1332.21 1988.76 1343.57 1994.07 1347.69 1997.95 1347.3 2003.14 1343.15 2021.99 1328.06 2041.53 1313.81 2060.16 1298.43 2068.97 1291.16 2076.81 1288.34 2087.73 1293.66 2097.17 1298.27 2107.52 1301.22 2117.75 1303.59 2127.07 1305.73 2131.35 1311.22 2133.83 1320.24 2140.51 1344.58 2148.09 1368.65 2154.73 1393.03 2156.78 1400.55 2160.49 1403.7 2167.88 1403.64 2184.75 1403.51 2201.65 1403.15 2218.46 1403.96 2228.18 1404.45 2232.59 1400.33 2235.1 1391.24 2241.75 1367.29 2249.33 1343.63 2255.66 1319.62 2257.83 1311.44 2261.67 1307.71 2269.47 1305.7 2282.31 1302.39 2295.02 1298.33 2307.39 1293.46 2315.07 1290.45 2320.67 1292.07 2326.81 1296.91 2342.42 1309.24 2358.41 1321.11 2374.23 1333.18 2377.54 1335.98 2381.13 1338.48 2384.08 1341.62 2391.89 1349.8 2398.84 1349.12 2407.44 1341.98 2419.27 1332.15 2431.86 1323.13 2444.82 1314.88 2452.94 1309.72 2453.57 1304.34 2450.42 1295.9 2441.9 1273.09 2434.22 1249.92 2425.72 1227.1 2422.57 1218.67 2423.14 1211.92 2428.96 1204.91 2434.78 1197.93 2439.63 1190.08 2444.92 1182.61 2453.54 1165.87 2466.69 1161.65 2484.7 1163.79 2505.25 1166.26 2526.14 1165.48 2546.91 1165.97 2551.07 1166.06 2555.98 1167.1 2557.86 1161.42 2561.58 1150.29 2565.16 1139.1 2568.97 1127.41 2523.37 1127.45 2479.44 1127.45 2435.51 1127.45Z" fill="#15294C" fill-rule="nonzero" fill-opacity="1"/><path d="M2159.8 1047.87C2157.82 1045.99 2156.12 1044.5 2154.61 1042.88 2143.79 1031.26 2133.28 1019.32 2122.07 1008.06 2117.13 1003.09 2117.54 999.555 2122.04 995.142 2124.27 992.935 2126.16 990.339 2128.21 987.905 2134.44 980.474 2139.6 979.565 2146.87 987.97 2156.72 999.328 2168.21 1009.23 2179.25 1019.41 2183.31 1023.15 2184.26 1025.94 2179.63 1029.86 2173.05 1035.48 2166.79 1041.48 2159.8 1047.87Z" fill="#15294C" fill-rule="nonzero" fill-opacity="1"/><path d="M2088.71 870.007C2087.48 871.403 2086.25 872.928 2084.9 874.323 2061.96 898.013 2038.89 921.638 2016.07 945.488 2012.3 949.415 2009.81 950.486 2005.78 945.781 2002.23 941.66 2000.02 938.803 2004.87 933.871 2028.03 910.377 2050.94 886.622 2073.95 862.966 2075.9 860.953 2077.95 858.455 2080.9 860.791 2083.96 863.16 2087.07 865.627 2088.71 870.007Z" fill="#15294C" fill-rule="nonzero" fill-opacity="1"/><path d="M2029.33 966.879C2024.42 966.424 2022.37 962.596 2019.88 959.707 2017.46 956.852 2019.82 954.58 2021.8 952.536 2045.03 928.652 2068.32 904.832 2091.42 880.819 2095 877.086 2097.65 876.892 2100.95 880.916 2103.69 884.226 2108.06 886.822 2103.25 891.787 2079.77 915.963 2056.3 940.204 2032.79 964.348 2031.75 965.418 2030.33 966.132 2029.33 966.879Z" fill="#15294C" fill-rule="nonzero" fill-opacity="1"/><path d="M2392.9 939.39C2391.96 944.064 2388.4 946.303 2385.54 948.737 2382.17 951.592 2379.84 948.217 2377.67 946.01 2364.89 932.901 2352.15 919.758 2339.4 906.615 2329.99 896.912 2320.65 887.112 2311.14 877.442 2307.3 873.515 2303.97 870.464 2309.47 864.623 2314.73 859.009 2317.53 861.313 2321.68 865.629 2343.74 888.605 2366 911.352 2388.18 934.198 2389.82 935.886 2391.36 937.703 2392.9 939.39Z" fill="#15294C" fill-rule="nonzero" fill-opacity="1"/><path d="M2297.83 877.471C2299.94 879.516 2301.7 881.107 2303.34 882.826 2325.49 905.606 2347.59 928.42 2369.77 951.168 2373.55 955.062 2377.14 958.047 2371.5 963.889 2366.06 969.502 2363.13 966.712 2359.17 962.558 2336.86 939.388 2314.35 916.413 2292.07 893.21 2290.37 891.425 2285.65 889.868 2289.46 885.779 2292.07 882.924 2294.94 880.295 2297.83 877.471Z" fill="#15294C" fill-rule="nonzero" fill-opacity="1"/><path d="M2098.78 1146.07C2107.34 1146.14 2114.61 1153.63 2113.85 1162.43 2113.07 1171.58 2107.75 1177.1 2098.78 1177.75 2090.69 1178.33 2082.82 1170.12 2082.76 1161.84 2082.7 1153.44 2090.28 1145.98 2098.78 1146.07Z" fill="#FFFFFF" fill-rule="nonzero" fill-opacity="1"/><path d="M2101.21 952.759C2101.3 959.379 2098 962.624 2092.9 962.982 2087.61 963.338 2084.02 960.028 2083.77 954.414 2083.49 948.801 2086.6 945.392 2092.02 945.068 2097.55 944.712 2100.29 948.249 2101.21 952.759Z" fill="#FFFFFF" fill-rule="nonzero" fill-opacity="1"/><path d="M2310.29 954.155C2309.19 959.476 2306.74 963.468 2301.1 963.273 2295.79 963.111 2292.04 959.899 2292.14 954.284 2292.23 948.866 2295.66 945.295 2301.07 945.23 2306.61 945.166 2309.1 949.19 2310.29 954.155Z" fill="#FFFFFF" fill-rule="nonzero" fill-opacity="1"/><path d="M2294.46 1178.36C2286.06 1178.62 2278.45 1171.35 2278.23 1162.85 2278.01 1154.76 2285.87 1146.17 2293.87 1146.55 2302.9 1147.01 2308.15 1152.56 2309.19 1161.64 2310.17 1170.24 2302.9 1178.1 2294.46 1178.36Z" fill="#FFFFFF" fill-rule="nonzero" fill-opacity="1"/><path d="M368.486 581.227C348.307 581.745 328.127 581.445 307.947 581.445 287.767 581.445 267.569 582.072 247.407 581.118 240.159 580.763 240.788 586.242 240.788 593.302 240.788 600.551 239.835 606.385 247.569 606.249 286.795 605.512 326.04 605.921 365.285 605.921 375.052 605.921 374.764 605.893 375.105 591.53 375.303 583.681 373.972 581.09 368.486 581.227Z" fill="#D8091E" fill-rule="nonzero" fill-opacity="1" transform="matrix(1 0 0 1.1906 1589.03 332.451)"/><path d="M368.486 581.227C348.307 581.745 328.127 581.445 307.947 581.445 287.767 581.445 267.569 582.072 247.407 581.118 240.159 580.763 240.788 586.242 240.788 593.302 240.788 600.551 239.835 606.385 247.569 606.249 286.795 605.512 326.04 605.921 365.285 605.921 375.052 605.921 374.764 605.893 375.105 591.53 375.303 583.681 373.972 581.09 368.486 581.227Z" fill="#D8091E" fill-rule="nonzero" fill-opacity="1" transform="matrix(1 0 0 -1.1906 1589.03 1693.55)"/><path d="M368.486 581.227C348.307 581.745 328.127 581.445 307.947 581.445 287.767 581.445 267.569 582.072 247.407 581.118 240.159 580.763 240.788 586.242 240.788 593.302 240.788 600.551 239.835 606.385 247.569 606.249 286.795 605.512 326.04 605.921 365.285 605.921 375.052 605.921 374.764 605.893 375.105 591.53 375.303 583.681 373.972 581.09 368.486 581.227Z" fill="#15294C" fill-rule="nonzero" fill-opacity="1" transform="matrix(-1 0 0 1.1906 2810.97 332.451)"/><path d="M368.486 581.227C348.307 581.745 328.127 581.445 307.947 581.445 287.767 581.445 267.569 582.072 247.407 581.118 240.159 580.763 240.788 586.242 240.788 593.302 240.788 600.551 239.835 606.385 247.569 606.249 286.795 605.512 326.04 605.921 365.285 605.921 375.052 605.921 374.764 605.893 375.105 591.53 375.303 583.681 373.972 581.09 368.486 581.227Z" fill="#15294C" fill-rule="nonzero" fill-opacity="1" transform="matrix(-1 0 0 -1.1906 2810.97 1693.55)"/></g></g></g></g></svg>