<?xml version="1.0" encoding="utf-8"?>
<!-- Generator: Adobe Illustrator 25.3.1, SVG Export Plug-In . SVG Version: 6.00 Build 0)  -->
<svg version="1.1" id="Layer_1" xmlns="http://www.w3.org/2000/svg" xmlns:xlink="http://www.w3.org/1999/xlink" x="0px" y="0px"
	 viewBox="0 0 96 96" style="enable-background:new 0 0 96 96;" xml:space="preserve">
<style type="text/css">
	.st0{fill:#8C00E7;}
	.st1{fill:#4F1CDE;}
	.st2{fill:#00B8F3;}
	.st3{fill:#F000E6;}
	.st4{fill:#FFFFFF;}
</style>
<g id="Layer_2_1_">
</g>
<g id="Layer_1_3_">
	<g id="Layer_2_2_">
	</g>
	<g id="Layer_1_2_">
		<g id="Layer_2_3_">
		</g>
		<g id="Layer_1_1_">
			<circle cx="48.1" cy="48" r="45.6"/>
			<g>
				<path class="st0" d="M48,3.4c6,0,11.9,1.2,17.4,3.5c5.3,2.2,10.1,5.5,14.2,9.6s7.3,8.9,9.6,14.2c2.3,5.5,3.5,11.3,3.5,17.4
					S91.5,60,89.2,65.5c-2.2,5.3-5.5,10.1-9.6,14.2s-8.9,7.3-14.2,9.6C59.9,91.4,54,92.6,48,92.6s-11.9-1.2-17.4-3.5
					c-5.3-2.2-10.1-5.5-14.2-9.6s-7.3-8.9-9.6-14.2C4.6,59.9,3.4,54,3.4,48s1.2-11.9,3.5-17.4c2.2-5.3,5.5-10.1,9.6-14.2
					s8.9-7.3,14.2-9.6C36.1,4.6,42,3.4,48,3.4 M48,0C21.5,0,0,21.5,0,48s21.5,48,48,48s48-21.5,48-48S74.5,0,48,0L48,0z"/>
			</g>
			<g>
				<path class="st1" d="M48,8.2c5.4,0,10.6,1,15.5,3.1c4.7,2,9,4.9,12.6,8.5s6.5,7.9,8.5,12.6c2.1,4.9,3.1,10.1,3.1,15.5
					s-1,10.6-3.1,15.5c-2,4.7-4.9,9-8.5,12.6c-3.7,3.6-7.9,6.5-12.6,8.5c-4.9,2.1-10.1,3.1-15.5,3.1s-10.6-1-15.5-3.1
					c-4.7-2-9-4.9-12.6-8.5c-3.6-3.7-6.5-7.9-8.5-12.6c-2.2-4.8-3.2-10-3.2-15.4s1-10.6,3.1-15.5c2-4.7,4.9-9,8.5-12.6
					s7.9-6.5,12.6-8.5C37.4,9.2,42.6,8.2,48,8.2 M48,4.8C24.1,4.8,4.8,24.2,4.8,48S24.1,91.2,48,91.2S91.2,71.9,91.2,48
					S71.8,4.8,48,4.8L48,4.8z"/>
			</g>
			<g>
				<path class="st2" d="M48,12.9c4.7,0,9.3,0.9,13.6,2.8c4.2,1.8,7.9,4.3,11.1,7.5s5.7,7,7.5,11.1C82,38.6,83,43.2,83,47.9
					s-0.9,9.3-2.8,13.6c-1.8,4.2-4.3,7.9-7.5,11.1s-7,5.7-11.1,7.5c-4.3,1.8-8.9,2.8-13.6,2.8s-9.3-0.9-13.6-2.8
					c-4.2-1.8-7.9-4.3-11.1-7.5s-5.7-7-7.5-11.1C14,57.2,13,52.6,13,47.9s0.9-9.3,2.8-13.6c1.8-4.2,4.3-7.9,7.5-11.1s7-5.7,11.1-7.5
					C38.7,13.9,43.3,12.9,48,12.9 M48,9.6C26.8,9.6,9.6,26.8,9.6,48S26.8,86.4,48,86.4S86.4,69.2,86.4,48S69.2,9.6,48,9.6L48,9.6z"
					/>
			</g>
			<g>
				<path class="st3" d="M48,17.6c8.1,0,15.8,3.2,21.5,8.9c5.7,5.8,8.9,13.4,8.9,21.5s-3.2,15.8-8.9,21.5
					c-5.8,5.7-13.4,8.9-21.5,8.9s-15.8-3.2-21.5-8.9c-5.7-5.8-8.9-13.4-8.9-21.5s3.2-15.8,8.9-21.5S39.9,17.6,48,17.6 M48,14.2
					c-18.7,0-33.8,15.2-33.8,33.8S29.3,81.8,48,81.8S81.8,66.7,81.8,48S66.7,14.2,48,14.2L48,14.2z"/>
			</g>
			<g>
				<path class="st4" d="M30.8,31.6c1.6,0,3.2,0,4.8,0c0,0.2,0,0.4,0,0.5c0,3.9,0,7.7,0,11.6c0,2,0.3,3.9,1.1,5.7
					c1,2.3,2.7,3.8,5.1,4.5c0.8,0.2,1.6,0.4,2.4,0.5c0.4,0.1,0.8,0.1,1.3,0.1c0-7.7,0-15.4,0-23.1c1.6,0,3.1,0,4.7,0
					c0,7.7,0,15.4,0,23.2c0.7-0.1,1.4-0.2,2.1-0.3c3.9-0.9,6.1-3.4,7.2-7.1c0.4-1.5,0.6-3.1,0.6-4.7c0-3.5,0-7.1,0-10.6
					c0-0.2,0-0.3,0-0.5c1.6,0,3.2,0,4.9,0c0,0.1,0,0.2,0,0.3c0,3.7,0,7.4,0,11.1c0,3-0.5,5.8-2,8.4c-2,3.5-5,5.6-8.9,6.5
					c-1.2,0.3-2.5,0.5-3.8,0.7c0,3.9,0,7.8,0,11.8c-1.6,0-3.1,0-4.7,0c0-3.9,0-7.9,0-11.9c-0.6,0-1.1-0.1-1.7-0.1
					c-3.1-0.4-5.9-1.3-8.4-3.2c-2.4-1.9-3.8-4.5-4.3-7.5c-0.2-1.2-0.3-2.3-0.3-3.5c0-4.1,0-8.1,0-12.2
					C30.8,31.9,30.8,31.8,30.8,31.6z"/>
			</g>
		</g>
	</g>
</g>
</svg>
