<svg width="236" height="237" viewBox="0 0 236 237" fill="none" xmlns="http://www.w3.org/2000/svg">
<path d="M184.769 216.068V213.728C184.769 187.147 184.769 160.569 184.769 133.993C184.769 128.602 184.942 123.202 184.659 117.828C183.927 104.066 180.258 91.2272 171.773 80.1062C163.022 68.6381 151.198 61.9096 137.445 58.3126C130.928 56.6199 124.297 55.5831 117.53 55.6805C102.338 55.8963 88.7164 60.6993 76.8167 70.0684C64.0072 80.14 55.3617 93.1061 52.4587 109.216C48.4258 131.611 53.851 151.602 69.9359 168.038C78.5306 176.836 89.3216 181.927 101.42 184.157C112.613 186.222 123.692 185.803 134.546 182.257C140.97 180.162 146.531 176.535 151.761 171.724V173.552C151.761 192.413 151.74 211.278 151.799 230.139C151.799 231.599 151.342 232.136 149.997 232.492C142.155 234.592 134.133 235.945 126.036 236.533C110.414 237.634 94.7283 235.599 79.9031 230.55C65.0778 225.501 51.4118 217.538 39.7084 207.131C21.9068 191.293 9.94221 171.855 3.81462 148.817C1.72253 140.843 0.491105 132.667 0.141456 124.43C-1.00958 99.7627 4.85564 76.9027 18.0418 56.0782C34.4822 30.1122 57.7061 13.0793 87.32 4.82316C98.8779 1.5956 110.882 0.260843 122.867 0.870692C154.563 2.46183 181.616 14.6239 203.583 37.5431C219.309 53.9497 229.346 73.4623 233.773 95.8187C236.123 107.775 236.615 120.021 235.233 132.127C232.499 156.824 222.69 178.385 206.414 197.051C200.465 203.815 193.746 209.86 186.394 215.065C186.013 215.349 185.577 215.573 184.769 216.068Z" fill="#621BCE"/>
<path d="M151.897 120.681C151.897 136.652 141.343 150.134 126.455 153.934C108.259 158.589 89.1143 147.163 85.145 128.798C82.4324 116.233 85.1026 104.981 94.2898 95.7094C100.062 89.8865 107.214 86.92 115.423 86.336C123.997 85.7267 131.821 87.7071 138.698 92.8953C146.201 98.5743 150.263 106.293 151.427 115.578C151.622 117.274 151.736 118.98 151.897 120.681Z" fill="#621BCE"/>
</svg>
