<svg width="834" height="834" xmlns="http://www.w3.org/2000/svg" xmlns:xlink="http://www.w3.org/1999/xlink" overflow="hidden"><defs><clipPath id="clip0"><rect x="-2296" y="742" width="834" height="834"/></clipPath><clipPath id="clip1"><rect x="-2250" y="790" width="742" height="743"/></clipPath><clipPath id="clip2"><rect x="-2250" y="790" width="742" height="743"/></clipPath><clipPath id="clip3"><rect x="-2250" y="790" width="742" height="743"/></clipPath></defs><g clip-path="url(#clip0)" transform="translate(2296 -742)"><path d="M-2290.5 1161C-2290.5 933.182-2105.82 748.5-1878 748.5-1650.18 748.5-1465.5 933.182-1465.5 1161-1465.5 1388.82-1650.18 1573.5-1878 1573.5-2105.82 1573.5-2290.5 1388.82-2290.5 1161Z" stroke="#FFFFFF" stroke-width="4.58333" stroke-linecap="butt" stroke-linejoin="miter" stroke-miterlimit="8" stroke-opacity="1" fill="#FFFFFF" fill-rule="evenodd" fill-opacity="1"/><g clip-path="url(#clip1)"><g clip-path="url(#clip2)"><g clip-path="url(#clip3)"><path d="M577.696 675.555 577.696 668.238C577.696 585.131 577.696 502.032 577.696 418.94 577.696 402.085 578.237 385.201 577.352 368.399 575.063 325.371 563.592 285.229 537.062 250.459 509.702 214.603 472.733 193.565 429.733 182.319 409.357 177.027 388.625 173.785 367.467 174.09 319.968 174.764 277.379 189.781 240.174 219.075 200.124 250.564 173.093 291.104 164.016 341.473 151.407 411.493 168.37 473.996 218.66 525.385 245.532 552.892 279.271 568.81 317.098 575.782 352.094 582.239 386.733 580.928 420.669 569.842 440.754 563.291 458.141 551.951 474.493 536.909L474.493 542.625C474.493 601.595 474.428 660.578 474.612 719.549 474.612 724.113 473.183 725.792 468.978 726.906 444.459 733.471 419.378 737.702 394.062 739.54 345.219 742.982 296.176 736.62 249.824 720.834 203.471 705.048 160.743 680.151 124.152 647.612 68.4934 598.093 31.0851 537.319 11.9267 465.289 5.38563 440.357 1.53548 414.794 0.442274 389.041-3.15654 311.916 15.1816 240.443 56.4092 175.333 107.811 94.1483 180.423 40.8935 273.013 15.08 309.15 4.98878 346.682 0.815547 384.154 2.72229 483.254 7.69711 567.837 45.7228 636.519 117.382 685.688 168.678 717.069 229.686 730.911 299.585 738.258 336.967 739.796 375.256 735.475 413.106 726.927 490.323 696.259 557.735 645.37 616.096 626.77 637.245 605.763 656.145 582.776 672.419 581.585 673.307 580.222 674.007 577.696 675.555Z" fill="#621BCE" fill-rule="nonzero" fill-opacity="1" transform="matrix(1.00424 0 0 1 -2249 791)"/><path d="M474.919 377.319C474.919 427.254 441.921 469.406 395.372 481.287 338.481 495.842 278.623 460.117 266.213 402.698 257.732 363.412 266.08 328.232 294.805 299.243 312.852 281.038 335.213 271.763 360.88 269.937 387.687 268.032 412.149 274.224 433.651 290.445 457.11 308.201 469.81 332.334 473.449 361.364 474.059 366.667 474.415 372.001 474.919 377.319Z" fill="#621BCE" fill-rule="nonzero" fill-opacity="1" transform="matrix(1.00424 0 0 1 -2249 791)"/></g></g></g></g></svg>