<?xml version="1.0" encoding="utf-8"?>
<!-- Generator: Adobe Illustrator 19.0.0, SVG Export Plug-In . SVG Version: 6.00 Build 0)  -->
<svg version="1.1" id="Layer_1" xmlns="http://www.w3.org/2000/svg" xmlns:xlink="http://www.w3.org/1999/xlink" x="0px" y="0px"
	 viewBox="0 0 2000 2000" enable-background="new 0 0 2000 2000" xml:space="preserve">
<g id="XMLID_510_">
	<path id="XMLID_514_" fill="#FFFFFF" d="M-3692-4218.3l-235.5-190.4h-474.2h-28.1h-680.8h-28.5h-679.8h-29.5h-476.8l-202.9,200.3
		v-200.3h-514.3l-196,301.9v-111.5l-235.5-190.4h-502.2v1042.5h357.7v119.6h380v-119.6h680.8h29.5h679.8h29.5h679.8h28.5h680.8h28.1
		h329.7v119.6h380v-515.8l-59.8-59.7l59.8-0.5V-4218.3z M-7266.8-3790.9l-31.3-31.3l31.3-0.3V-3790.9z"/>
	<polygon id="XMLID_515_" fill="#FFFFFF" points="-6528,-2978.7 -6528,-3182.6 -7042.4,-3182.6 -7252.1,-2859.6 -7461.8,-3182.6 
		-7976.1,-3182.6 -7976.1,-2140.2 -7469.8,-2140.2 -7266.8,-2340.5 -7266.8,-2140.2 -6557.6,-2140.2 -6528,-2140.2 -6051.2,-2140.2 
		-5818.8,-2369.6 -5818.8,-3182.6 -6325.5,-3182.6 	"/>
</g>
<g id="XMLID_462_">
	<defs>
		<path id="XMLID_507_" d="M-7298.4-4189.7v307.6l-143.6,1.3l143.6,143.3v430.9h-260v-397.9l-97.8-99v377.2h-260v-922.5h421
			L-7298.4-4189.7z M-7558.3-3976.6v-148.5h-97.8v148.5H-7558.3z"/>
	</defs>
	<clipPath id="XMLID_634_">
		<use xlink:href="#XMLID_507_"  overflow="visible"/>
	</clipPath>
	<rect id="XMLID_463_" x="-7656.1" y="-4125.1" clip-path="url(#XMLID_634_)" fill="#8B3BEE" width="97.8" height="24.4"/>
	<rect id="XMLID_464_" x="-7656.1" y="-4100.8" clip-path="url(#XMLID_634_)" fill="#8D3CEE" width="97.8" height="28.4"/>
	<rect id="XMLID_465_" x="-7656.1" y="-4072.4" clip-path="url(#XMLID_634_)" fill="#8E3CEE" width="97.8" height="28.4"/>
	<rect id="XMLID_466_" x="-7656.1" y="-4044" clip-path="url(#XMLID_634_)" fill="#8F3CEE" width="97.8" height="28.4"/>
	<rect id="XMLID_467_" x="-7656.1" y="-4015.7" clip-path="url(#XMLID_634_)" fill="#903DEF" width="97.8" height="28.4"/>
	<rect id="XMLID_468_" x="-7656.1" y="-3987.3" clip-path="url(#XMLID_634_)" fill="#913DEF" width="97.8" height="10.7"/>
	<rect id="XMLID_469_" x="-7916.1" y="-4348.7" clip-path="url(#XMLID_634_)" fill="#8339EC" width="617.7" height="21.1"/>
	<rect id="XMLID_470_" x="-7916.1" y="-4327.6" clip-path="url(#XMLID_634_)" fill="#8339EC" width="617.7" height="28.4"/>
	<rect id="XMLID_471_" x="-7916.1" y="-4299.3" clip-path="url(#XMLID_634_)" fill="#8439EC" width="617.7" height="28.4"/>
	<rect id="XMLID_472_" x="-7916.1" y="-4270.9" clip-path="url(#XMLID_634_)" fill="#853AEC" width="617.7" height="28.4"/>
	<rect id="XMLID_473_" x="-7916.1" y="-4242.6" clip-path="url(#XMLID_634_)" fill="#873AED" width="617.7" height="28.4"/>
	<rect id="XMLID_474_" x="-7916.1" y="-4214.2" clip-path="url(#XMLID_634_)" fill="#883AED" width="617.7" height="28.4"/>
	<rect id="XMLID_475_" x="-7916.1" y="-4185.8" clip-path="url(#XMLID_634_)" fill="#893BED" width="617.7" height="28.4"/>
	<rect id="XMLID_476_" x="-7916.1" y="-4157.5" clip-path="url(#XMLID_634_)" fill="#8A3BED" width="617.7" height="28.4"/>
	<rect id="XMLID_477_" x="-7916.1" y="-4129.1" clip-path="url(#XMLID_634_)" fill="#8B3BEE" width="617.7" height="28.4"/>
	<rect id="XMLID_478_" x="-7916.1" y="-4100.8" clip-path="url(#XMLID_634_)" fill="#8D3CEE" width="617.7" height="28.4"/>
	<rect id="XMLID_479_" x="-7916.1" y="-4072.4" clip-path="url(#XMLID_634_)" fill="#8E3CEE" width="617.7" height="28.4"/>
	<rect id="XMLID_480_" x="-7916.1" y="-4044" clip-path="url(#XMLID_634_)" fill="#8F3CEE" width="617.7" height="28.4"/>
	<rect id="XMLID_481_" x="-7916.1" y="-4015.7" clip-path="url(#XMLID_634_)" fill="#903DEF" width="617.7" height="28.4"/>
	<rect id="XMLID_482_" x="-7916.1" y="-3987.3" clip-path="url(#XMLID_634_)" fill="#913DEF" width="617.7" height="28.4"/>
	<rect id="XMLID_483_" x="-7916.1" y="-3959" clip-path="url(#XMLID_634_)" fill="#923DEF" width="617.7" height="28.4"/>
	<rect id="XMLID_484_" x="-7916.1" y="-3930.6" clip-path="url(#XMLID_634_)" fill="#933EEF" width="617.7" height="28.4"/>
	<rect id="XMLID_485_" x="-7916.1" y="-3902.2" clip-path="url(#XMLID_634_)" fill="#953EEF" width="617.7" height="28.4"/>
	<rect id="XMLID_486_" x="-7916.1" y="-3873.9" clip-path="url(#XMLID_634_)" fill="#963EF0" width="617.7" height="28.4"/>
	<rect id="XMLID_487_" x="-7916.1" y="-3845.5" clip-path="url(#XMLID_634_)" fill="#973EF0" width="617.7" height="28.4"/>
	<rect id="XMLID_488_" x="-7916.1" y="-3817.2" clip-path="url(#XMLID_634_)" fill="#983FF0" width="617.7" height="28.4"/>
	<rect id="XMLID_489_" x="-7916.1" y="-3788.8" clip-path="url(#XMLID_634_)" fill="#993FF0" width="617.7" height="28.4"/>
	<rect id="XMLID_490_" x="-7916.1" y="-3760.4" clip-path="url(#XMLID_634_)" fill="#9A3FF0" width="617.7" height="28.4"/>
	<rect id="XMLID_491_" x="-7916.1" y="-3732.1" clip-path="url(#XMLID_634_)" fill="#9B40F1" width="617.7" height="28.4"/>
	<rect id="XMLID_492_" x="-7916.1" y="-3703.7" clip-path="url(#XMLID_634_)" fill="#9C40F1" width="617.7" height="28.4"/>
	<rect id="XMLID_493_" x="-7916.1" y="-3675.4" clip-path="url(#XMLID_634_)" fill="#9D40F1" width="617.7" height="28.4"/>
	<rect id="XMLID_494_" x="-7916.1" y="-3647" clip-path="url(#XMLID_634_)" fill="#9E41F1" width="617.7" height="28.4"/>
	<rect id="XMLID_495_" x="-7916.1" y="-3618.6" clip-path="url(#XMLID_634_)" fill="#9F41F1" width="617.7" height="28.4"/>
	<rect id="XMLID_496_" x="-7916.1" y="-3590.3" clip-path="url(#XMLID_634_)" fill="#A041F2" width="617.7" height="28.4"/>
	<rect id="XMLID_497_" x="-7916.1" y="-3561.9" clip-path="url(#XMLID_634_)" fill="#A141F2" width="617.7" height="28.4"/>
	<rect id="XMLID_498_" x="-7916.1" y="-3533.6" clip-path="url(#XMLID_634_)" fill="#A242F2" width="617.7" height="28.4"/>
	<rect id="XMLID_499_" x="-7916.1" y="-3505.2" clip-path="url(#XMLID_634_)" fill="#A342F2" width="617.7" height="28.4"/>
	<rect id="XMLID_500_" x="-7916.1" y="-3476.8" clip-path="url(#XMLID_634_)" fill="#A442F2" width="617.7" height="28.4"/>
	<rect id="XMLID_501_" x="-7916.1" y="-3448.5" clip-path="url(#XMLID_634_)" fill="#A442F2" width="617.7" height="28.4"/>
	<rect id="XMLID_502_" x="-7916.1" y="-3420.1" clip-path="url(#XMLID_634_)" fill="#A542F3" width="617.7" height="28.4"/>
	<rect id="XMLID_503_" x="-7916.1" y="-3391.8" clip-path="url(#XMLID_634_)" fill="#A643F3" width="617.7" height="28.4"/>
	<rect id="XMLID_504_" x="-7916.1" y="-3363.4" clip-path="url(#XMLID_634_)" fill="#A643F3" width="617.7" height="28.4"/>
	<rect id="XMLID_505_" x="-7916.1" y="-3335" clip-path="url(#XMLID_634_)" fill="#A743F3" width="617.7" height="28.4"/>
	<rect id="XMLID_506_" x="-7916.1" y="-3306.7" clip-path="url(#XMLID_634_)" fill="#A743F3" width="617.7" height="0"/>
</g>
<g id="XMLID_413_">
	<defs>
		<path id="XMLID_461_" d="M-6588-3426.3h-260v-390h-98.8v390h-260v-618.9l197.1-303.5h421.7V-3426.3z M-6848-3976.4v-189.3
			l-98.8,189.3H-6848z"/>
	</defs>
	<clipPath id="XMLID_690_">
		<use xlink:href="#XMLID_461_"  overflow="visible"/>
	</clipPath>
	<rect id="XMLID_414_" x="-6946.8" y="-4165.8" clip-path="url(#XMLID_690_)" fill="#8A3BED" width="98.8" height="11.4"/>
	<rect id="XMLID_415_" x="-6946.8" y="-4154.3" clip-path="url(#XMLID_690_)" fill="#8B3BEE" width="98.8" height="25.1"/>
	<rect id="XMLID_416_" x="-6946.8" y="-4129.2" clip-path="url(#XMLID_690_)" fill="#8D3CEE" width="98.8" height="25.1"/>
	<rect id="XMLID_417_" x="-6946.8" y="-4104.1" clip-path="url(#XMLID_690_)" fill="#8E3CEE" width="98.8" height="25.1"/>
	<rect id="XMLID_418_" x="-6946.8" y="-4079" clip-path="url(#XMLID_690_)" fill="#8F3CEE" width="98.8" height="25.1"/>
	<rect id="XMLID_419_" x="-6946.8" y="-4053.9" clip-path="url(#XMLID_690_)" fill="#903DEF" width="98.8" height="25.1"/>
	<rect id="XMLID_420_" x="-6946.8" y="-4028.8" clip-path="url(#XMLID_690_)" fill="#913DEF" width="98.8" height="25.1"/>
	<rect id="XMLID_421_" x="-6946.8" y="-4003.7" clip-path="url(#XMLID_690_)" fill="#923DEF" width="98.8" height="25.1"/>
	<rect id="XMLID_422_" x="-6946.8" y="-3978.6" clip-path="url(#XMLID_690_)" fill="#933EEF" width="98.8" height="2.2"/>
	<rect id="XMLID_423_" x="-7206.8" y="-4348.7" clip-path="url(#XMLID_690_)" fill="#8339EC" width="618.8" height="18.7"/>
	<rect id="XMLID_424_" x="-7206.8" y="-4330.1" clip-path="url(#XMLID_690_)" fill="#8339EC" width="618.8" height="25.1"/>
	<rect id="XMLID_425_" x="-7206.8" y="-4304.9" clip-path="url(#XMLID_690_)" fill="#8439EC" width="618.8" height="25.1"/>
	<rect id="XMLID_426_" x="-7206.8" y="-4279.8" clip-path="url(#XMLID_690_)" fill="#853AEC" width="618.8" height="25.1"/>
	<rect id="XMLID_427_" x="-7206.8" y="-4254.7" clip-path="url(#XMLID_690_)" fill="#873AED" width="618.8" height="25.1"/>
	<rect id="XMLID_428_" x="-7206.8" y="-4229.6" clip-path="url(#XMLID_690_)" fill="#883AED" width="618.8" height="25.1"/>
	<rect id="XMLID_429_" x="-7206.8" y="-4204.5" clip-path="url(#XMLID_690_)" fill="#893BED" width="618.8" height="25.1"/>
	<rect id="XMLID_430_" x="-7206.8" y="-4179.4" clip-path="url(#XMLID_690_)" fill="#8A3BED" width="618.8" height="25.1"/>
	<rect id="XMLID_431_" x="-7206.8" y="-4154.3" clip-path="url(#XMLID_690_)" fill="#8B3BEE" width="618.8" height="25.1"/>
	<rect id="XMLID_432_" x="-7206.8" y="-4129.2" clip-path="url(#XMLID_690_)" fill="#8D3CEE" width="618.8" height="25.1"/>
	<rect id="XMLID_433_" x="-7206.8" y="-4104.1" clip-path="url(#XMLID_690_)" fill="#8E3CEE" width="618.8" height="25.1"/>
	<rect id="XMLID_434_" x="-7206.8" y="-4079" clip-path="url(#XMLID_690_)" fill="#8F3CEE" width="618.8" height="25.1"/>
	<rect id="XMLID_435_" x="-7206.8" y="-4053.9" clip-path="url(#XMLID_690_)" fill="#903DEF" width="618.8" height="25.1"/>
	<rect id="XMLID_436_" x="-7206.8" y="-4028.8" clip-path="url(#XMLID_690_)" fill="#913DEF" width="618.8" height="25.1"/>
	<rect id="XMLID_437_" x="-7206.8" y="-4003.7" clip-path="url(#XMLID_690_)" fill="#923DEF" width="618.8" height="25.1"/>
	<rect id="XMLID_438_" x="-7206.8" y="-3978.6" clip-path="url(#XMLID_690_)" fill="#933EEF" width="618.8" height="25.1"/>
	<rect id="XMLID_439_" x="-7206.8" y="-3953.5" clip-path="url(#XMLID_690_)" fill="#953EEF" width="618.8" height="25.1"/>
	<rect id="XMLID_440_" x="-7206.8" y="-3928.4" clip-path="url(#XMLID_690_)" fill="#963EF0" width="618.8" height="25.1"/>
	<rect id="XMLID_441_" x="-7206.8" y="-3903.3" clip-path="url(#XMLID_690_)" fill="#973EF0" width="618.8" height="25.1"/>
	<rect id="XMLID_442_" x="-7206.8" y="-3878.2" clip-path="url(#XMLID_690_)" fill="#983FF0" width="618.8" height="25.1"/>
	<rect id="XMLID_443_" x="-7206.8" y="-3853.1" clip-path="url(#XMLID_690_)" fill="#993FF0" width="618.8" height="25.1"/>
	<rect id="XMLID_444_" x="-7206.8" y="-3828" clip-path="url(#XMLID_690_)" fill="#9A3FF0" width="618.8" height="25.1"/>
	<rect id="XMLID_445_" x="-7206.8" y="-3802.8" clip-path="url(#XMLID_690_)" fill="#9B40F1" width="618.8" height="25.1"/>
	<rect id="XMLID_446_" x="-7206.8" y="-3777.7" clip-path="url(#XMLID_690_)" fill="#9C40F1" width="618.8" height="25.1"/>
	<rect id="XMLID_447_" x="-7206.8" y="-3752.6" clip-path="url(#XMLID_690_)" fill="#9D40F1" width="618.8" height="25.1"/>
	<rect id="XMLID_448_" x="-7206.8" y="-3727.5" clip-path="url(#XMLID_690_)" fill="#9E41F1" width="618.8" height="25.1"/>
	<rect id="XMLID_449_" x="-7206.8" y="-3702.4" clip-path="url(#XMLID_690_)" fill="#9F41F1" width="618.8" height="25.1"/>
	<rect id="XMLID_450_" x="-7206.8" y="-3677.3" clip-path="url(#XMLID_690_)" fill="#A041F2" width="618.8" height="25.1"/>
	<rect id="XMLID_451_" x="-7206.8" y="-3652.2" clip-path="url(#XMLID_690_)" fill="#A141F2" width="618.8" height="25.1"/>
	<rect id="XMLID_452_" x="-7206.8" y="-3627.1" clip-path="url(#XMLID_690_)" fill="#A242F2" width="618.8" height="25.1"/>
	<rect id="XMLID_453_" x="-7206.8" y="-3602" clip-path="url(#XMLID_690_)" fill="#A342F2" width="618.8" height="25.1"/>
	<rect id="XMLID_454_" x="-7206.8" y="-3576.9" clip-path="url(#XMLID_690_)" fill="#A442F2" width="618.8" height="25.1"/>
	<rect id="XMLID_455_" x="-7206.8" y="-3551.8" clip-path="url(#XMLID_690_)" fill="#A442F2" width="618.8" height="25.1"/>
	<rect id="XMLID_456_" x="-7206.8" y="-3526.7" clip-path="url(#XMLID_690_)" fill="#A542F3" width="618.8" height="25.1"/>
	<rect id="XMLID_457_" x="-7206.8" y="-3501.6" clip-path="url(#XMLID_690_)" fill="#A643F3" width="618.8" height="25.1"/>
	<rect id="XMLID_458_" x="-7206.8" y="-3476.5" clip-path="url(#XMLID_690_)" fill="#A643F3" width="618.8" height="25.1"/>
	<rect id="XMLID_459_" x="-7206.8" y="-3451.4" clip-path="url(#XMLID_690_)" fill="#A743F3" width="618.8" height="25.1"/>
	<rect id="XMLID_460_" x="-7206.8" y="-3426.3" clip-path="url(#XMLID_690_)" fill="#A743F3" width="618.8" height="0"/>
</g>
<g id="XMLID_373_">
	<defs>
		<path id="XMLID_412_" d="M-5878.8-3426.3h-261v-698.9h-97.8v698.9h-260v-728l197.1-194.5h421.7V-3426.3z"/>
	</defs>
	<clipPath id="XMLID_691_">
		<use xlink:href="#XMLID_412_"  overflow="visible"/>
	</clipPath>
	<rect id="XMLID_374_" x="-6497.6" y="-4348.7" clip-path="url(#XMLID_691_)" fill="#8339EC" width="618.8" height="18.7"/>
	<rect id="XMLID_375_" x="-6497.6" y="-4330.1" clip-path="url(#XMLID_691_)" fill="#8339EC" width="618.8" height="25.1"/>
	<rect id="XMLID_376_" x="-6497.6" y="-4304.9" clip-path="url(#XMLID_691_)" fill="#8439EC" width="618.8" height="25.1"/>
	<rect id="XMLID_377_" x="-6497.6" y="-4279.8" clip-path="url(#XMLID_691_)" fill="#853AEC" width="618.8" height="25.1"/>
	<rect id="XMLID_378_" x="-6497.6" y="-4254.7" clip-path="url(#XMLID_691_)" fill="#873AED" width="618.8" height="25.1"/>
	<rect id="XMLID_379_" x="-6497.6" y="-4229.6" clip-path="url(#XMLID_691_)" fill="#883AED" width="618.8" height="25.1"/>
	<rect id="XMLID_380_" x="-6497.6" y="-4204.5" clip-path="url(#XMLID_691_)" fill="#893BED" width="618.8" height="25.1"/>
	<rect id="XMLID_381_" x="-6497.6" y="-4179.4" clip-path="url(#XMLID_691_)" fill="#8A3BED" width="618.8" height="25.1"/>
	<rect id="XMLID_382_" x="-6497.6" y="-4154.3" clip-path="url(#XMLID_691_)" fill="#8B3BEE" width="618.8" height="25.1"/>
	<rect id="XMLID_383_" x="-6497.6" y="-4129.2" clip-path="url(#XMLID_691_)" fill="#8D3CEE" width="618.8" height="25.1"/>
	<rect id="XMLID_384_" x="-6497.6" y="-4104.1" clip-path="url(#XMLID_691_)" fill="#8E3CEE" width="618.8" height="25.1"/>
	<rect id="XMLID_385_" x="-6497.6" y="-4079" clip-path="url(#XMLID_691_)" fill="#8F3CEE" width="618.8" height="25.1"/>
	<rect id="XMLID_386_" x="-6497.6" y="-4053.9" clip-path="url(#XMLID_691_)" fill="#903DEF" width="618.8" height="25.1"/>
	<rect id="XMLID_387_" x="-6497.6" y="-4028.8" clip-path="url(#XMLID_691_)" fill="#913DEF" width="618.8" height="25.1"/>
	<rect id="XMLID_388_" x="-6497.6" y="-4003.7" clip-path="url(#XMLID_691_)" fill="#923DEF" width="618.8" height="25.1"/>
	<rect id="XMLID_389_" x="-6497.6" y="-3978.6" clip-path="url(#XMLID_691_)" fill="#933EEF" width="618.8" height="25.1"/>
	<rect id="XMLID_390_" x="-6497.6" y="-3953.5" clip-path="url(#XMLID_691_)" fill="#953EEF" width="618.8" height="25.1"/>
	<rect id="XMLID_391_" x="-6497.6" y="-3928.4" clip-path="url(#XMLID_691_)" fill="#963EF0" width="618.8" height="25.1"/>
	<rect id="XMLID_392_" x="-6497.6" y="-3903.3" clip-path="url(#XMLID_691_)" fill="#973EF0" width="618.8" height="25.1"/>
	<rect id="XMLID_393_" x="-6497.6" y="-3878.2" clip-path="url(#XMLID_691_)" fill="#983FF0" width="618.8" height="25.1"/>
	<rect id="XMLID_394_" x="-6497.6" y="-3853.1" clip-path="url(#XMLID_691_)" fill="#993FF0" width="618.8" height="25.1"/>
	<rect id="XMLID_395_" x="-6497.6" y="-3828" clip-path="url(#XMLID_691_)" fill="#9A3FF0" width="618.8" height="25.1"/>
	<rect id="XMLID_396_" x="-6497.6" y="-3802.8" clip-path="url(#XMLID_691_)" fill="#9B40F1" width="618.8" height="25.1"/>
	<rect id="XMLID_397_" x="-6497.6" y="-3777.7" clip-path="url(#XMLID_691_)" fill="#9C40F1" width="618.8" height="25.1"/>
	<rect id="XMLID_398_" x="-6497.6" y="-3752.6" clip-path="url(#XMLID_691_)" fill="#9D40F1" width="618.8" height="25.1"/>
	<rect id="XMLID_399_" x="-6497.6" y="-3727.5" clip-path="url(#XMLID_691_)" fill="#9E41F1" width="618.8" height="25.1"/>
	<rect id="XMLID_400_" x="-6497.6" y="-3702.4" clip-path="url(#XMLID_691_)" fill="#9F41F1" width="618.8" height="25.1"/>
	<rect id="XMLID_401_" x="-6497.6" y="-3677.3" clip-path="url(#XMLID_691_)" fill="#A041F2" width="618.8" height="25.1"/>
	<rect id="XMLID_402_" x="-6497.6" y="-3652.2" clip-path="url(#XMLID_691_)" fill="#A141F2" width="618.8" height="25.1"/>
	<rect id="XMLID_403_" x="-6497.6" y="-3627.1" clip-path="url(#XMLID_691_)" fill="#A242F2" width="618.8" height="25.1"/>
	<rect id="XMLID_404_" x="-6497.6" y="-3602" clip-path="url(#XMLID_691_)" fill="#A342F2" width="618.8" height="25.1"/>
	<rect id="XMLID_405_" x="-6497.6" y="-3576.9" clip-path="url(#XMLID_691_)" fill="#A442F2" width="618.8" height="25.1"/>
	<rect id="XMLID_406_" x="-6497.6" y="-3551.8" clip-path="url(#XMLID_691_)" fill="#A442F2" width="618.8" height="25.1"/>
	<rect id="XMLID_407_" x="-6497.6" y="-3526.7" clip-path="url(#XMLID_691_)" fill="#A542F3" width="618.8" height="25.1"/>
	<rect id="XMLID_408_" x="-6497.6" y="-3501.6" clip-path="url(#XMLID_691_)" fill="#A643F3" width="618.8" height="25.1"/>
	<rect id="XMLID_409_" x="-6497.6" y="-3476.5" clip-path="url(#XMLID_691_)" fill="#A643F3" width="618.8" height="25.1"/>
	<rect id="XMLID_410_" x="-6497.6" y="-3451.4" clip-path="url(#XMLID_691_)" fill="#A743F3" width="618.8" height="25.1"/>
	<rect id="XMLID_411_" x="-6497.6" y="-3426.3" clip-path="url(#XMLID_691_)" fill="#A743F3" width="618.8" height="0"/>
</g>
<g id="XMLID_333_">
	<defs>
		<path id="XMLID_372_" d="M-5170.5-3426.3h-260v-370.4h-97.8v370.4h-260v-922.5h260v375.2l97.8-96.9v-278.2h260v311.6l-143.6,144.6
			h143.6V-3426.3z"/>
	</defs>
	<clipPath id="XMLID_692_">
		<use xlink:href="#XMLID_372_"  overflow="visible"/>
	</clipPath>
	<rect id="XMLID_334_" x="-5788.3" y="-4348.7" clip-path="url(#XMLID_692_)" fill="#8339EC" width="617.7" height="18.7"/>
	<rect id="XMLID_335_" x="-5788.3" y="-4330.1" clip-path="url(#XMLID_692_)" fill="#8339EC" width="617.7" height="25.1"/>
	<rect id="XMLID_336_" x="-5788.3" y="-4304.9" clip-path="url(#XMLID_692_)" fill="#8439EC" width="617.7" height="25.1"/>
	<rect id="XMLID_337_" x="-5788.3" y="-4279.8" clip-path="url(#XMLID_692_)" fill="#853AEC" width="617.7" height="25.1"/>
	<rect id="XMLID_338_" x="-5788.3" y="-4254.7" clip-path="url(#XMLID_692_)" fill="#873AED" width="617.7" height="25.1"/>
	<rect id="XMLID_339_" x="-5788.3" y="-4229.6" clip-path="url(#XMLID_692_)" fill="#883AED" width="617.7" height="25.1"/>
	<rect id="XMLID_340_" x="-5788.3" y="-4204.5" clip-path="url(#XMLID_692_)" fill="#893BED" width="617.7" height="25.1"/>
	<rect id="XMLID_341_" x="-5788.3" y="-4179.4" clip-path="url(#XMLID_692_)" fill="#8A3BED" width="617.7" height="25.1"/>
	<rect id="XMLID_342_" x="-5788.3" y="-4154.3" clip-path="url(#XMLID_692_)" fill="#8B3BEE" width="617.7" height="25.1"/>
	<rect id="XMLID_343_" x="-5788.3" y="-4129.2" clip-path="url(#XMLID_692_)" fill="#8D3CEE" width="617.7" height="25.1"/>
	<rect id="XMLID_344_" x="-5788.3" y="-4104.1" clip-path="url(#XMLID_692_)" fill="#8E3CEE" width="617.7" height="25.1"/>
	<rect id="XMLID_345_" x="-5788.3" y="-4079" clip-path="url(#XMLID_692_)" fill="#8F3CEE" width="617.7" height="25.1"/>
	<rect id="XMLID_346_" x="-5788.3" y="-4053.9" clip-path="url(#XMLID_692_)" fill="#903DEF" width="617.7" height="25.1"/>
	<rect id="XMLID_347_" x="-5788.3" y="-4028.8" clip-path="url(#XMLID_692_)" fill="#913DEF" width="617.7" height="25.1"/>
	<rect id="XMLID_348_" x="-5788.3" y="-4003.7" clip-path="url(#XMLID_692_)" fill="#923DEF" width="617.7" height="25.1"/>
	<rect id="XMLID_349_" x="-5788.3" y="-3978.6" clip-path="url(#XMLID_692_)" fill="#933EEF" width="617.7" height="25.1"/>
	<rect id="XMLID_350_" x="-5788.3" y="-3953.5" clip-path="url(#XMLID_692_)" fill="#953EEF" width="617.7" height="25.1"/>
	<rect id="XMLID_351_" x="-5788.3" y="-3928.4" clip-path="url(#XMLID_692_)" fill="#963EF0" width="617.7" height="25.1"/>
	<rect id="XMLID_352_" x="-5788.3" y="-3903.3" clip-path="url(#XMLID_692_)" fill="#973EF0" width="617.7" height="25.1"/>
	<rect id="XMLID_353_" x="-5788.3" y="-3878.2" clip-path="url(#XMLID_692_)" fill="#983FF0" width="617.7" height="25.1"/>
	<rect id="XMLID_354_" x="-5788.3" y="-3853.1" clip-path="url(#XMLID_692_)" fill="#993FF0" width="617.7" height="25.1"/>
	<rect id="XMLID_355_" x="-5788.3" y="-3828" clip-path="url(#XMLID_692_)" fill="#9A3FF0" width="617.7" height="25.1"/>
	<rect id="XMLID_356_" x="-5788.3" y="-3802.8" clip-path="url(#XMLID_692_)" fill="#9B40F1" width="617.7" height="25.1"/>
	<rect id="XMLID_357_" x="-5788.3" y="-3777.7" clip-path="url(#XMLID_692_)" fill="#9C40F1" width="617.7" height="25.1"/>
	<rect id="XMLID_358_" x="-5788.3" y="-3752.6" clip-path="url(#XMLID_692_)" fill="#9D40F1" width="617.7" height="25.1"/>
	<rect id="XMLID_359_" x="-5788.3" y="-3727.5" clip-path="url(#XMLID_692_)" fill="#9E41F1" width="617.7" height="25.1"/>
	<rect id="XMLID_360_" x="-5788.3" y="-3702.4" clip-path="url(#XMLID_692_)" fill="#9F41F1" width="617.7" height="25.1"/>
	<rect id="XMLID_361_" x="-5788.3" y="-3677.3" clip-path="url(#XMLID_692_)" fill="#A041F2" width="617.7" height="25.1"/>
	<rect id="XMLID_362_" x="-5788.3" y="-3652.2" clip-path="url(#XMLID_692_)" fill="#A141F2" width="617.7" height="25.1"/>
	<rect id="XMLID_363_" x="-5788.3" y="-3627.1" clip-path="url(#XMLID_692_)" fill="#A242F2" width="617.7" height="25.1"/>
	<rect id="XMLID_364_" x="-5788.3" y="-3602" clip-path="url(#XMLID_692_)" fill="#A342F2" width="617.7" height="25.1"/>
	<rect id="XMLID_365_" x="-5788.3" y="-3576.9" clip-path="url(#XMLID_692_)" fill="#A442F2" width="617.7" height="25.1"/>
	<rect id="XMLID_366_" x="-5788.3" y="-3551.8" clip-path="url(#XMLID_692_)" fill="#A442F2" width="617.7" height="25.1"/>
	<rect id="XMLID_367_" x="-5788.3" y="-3526.7" clip-path="url(#XMLID_692_)" fill="#A542F3" width="617.7" height="25.1"/>
	<rect id="XMLID_368_" x="-5788.3" y="-3501.6" clip-path="url(#XMLID_692_)" fill="#A643F3" width="617.7" height="25.1"/>
	<rect id="XMLID_369_" x="-5788.3" y="-3476.5" clip-path="url(#XMLID_692_)" fill="#A643F3" width="617.7" height="25.1"/>
	<rect id="XMLID_370_" x="-5788.3" y="-3451.4" clip-path="url(#XMLID_692_)" fill="#A743F3" width="617.7" height="25.1"/>
	<rect id="XMLID_371_" x="-5788.3" y="-3426.3" clip-path="url(#XMLID_692_)" fill="#A743F3" width="617.7" height="0"/>
</g>
<g id="XMLID_293_">
	<defs>
		<path id="XMLID_332_" d="M-4461.7-3426.3H-5079v-922.5h617.3v223.6H-4819v148.7h138.3v160.2H-4819v166.4h357.3V-3426.3z"/>
	</defs>
	<clipPath id="XMLID_693_">
		<use xlink:href="#XMLID_332_"  overflow="visible"/>
	</clipPath>
	<rect id="XMLID_294_" x="-5079" y="-4348.7" clip-path="url(#XMLID_693_)" fill="#8339EC" width="617.3" height="18.7"/>
	<rect id="XMLID_295_" x="-5079" y="-4330.1" clip-path="url(#XMLID_693_)" fill="#8339EC" width="617.3" height="25.1"/>
	<rect id="XMLID_296_" x="-5079" y="-4304.9" clip-path="url(#XMLID_693_)" fill="#8439EC" width="617.3" height="25.1"/>
	<rect id="XMLID_297_" x="-5079" y="-4279.8" clip-path="url(#XMLID_693_)" fill="#853AEC" width="617.3" height="25.1"/>
	<rect id="XMLID_298_" x="-5079" y="-4254.7" clip-path="url(#XMLID_693_)" fill="#873AED" width="617.3" height="25.1"/>
	<rect id="XMLID_299_" x="-5079" y="-4229.6" clip-path="url(#XMLID_693_)" fill="#883AED" width="617.3" height="25.1"/>
	<rect id="XMLID_300_" x="-5079" y="-4204.5" clip-path="url(#XMLID_693_)" fill="#893BED" width="617.3" height="25.1"/>
	<rect id="XMLID_301_" x="-5079" y="-4179.4" clip-path="url(#XMLID_693_)" fill="#8A3BED" width="617.3" height="25.1"/>
	<rect id="XMLID_302_" x="-5079" y="-4154.3" clip-path="url(#XMLID_693_)" fill="#8B3BEE" width="617.3" height="25.1"/>
	<rect id="XMLID_303_" x="-5079" y="-4129.2" clip-path="url(#XMLID_693_)" fill="#8D3CEE" width="617.3" height="25.1"/>
	<rect id="XMLID_304_" x="-5079" y="-4104.1" clip-path="url(#XMLID_693_)" fill="#8E3CEE" width="617.3" height="25.1"/>
	<rect id="XMLID_305_" x="-5079" y="-4079" clip-path="url(#XMLID_693_)" fill="#8F3CEE" width="617.3" height="25.1"/>
	<rect id="XMLID_306_" x="-5079" y="-4053.9" clip-path="url(#XMLID_693_)" fill="#903DEF" width="617.3" height="25.1"/>
	<rect id="XMLID_307_" x="-5079" y="-4028.8" clip-path="url(#XMLID_693_)" fill="#913DEF" width="617.3" height="25.1"/>
	<rect id="XMLID_308_" x="-5079" y="-4003.7" clip-path="url(#XMLID_693_)" fill="#923DEF" width="617.3" height="25.1"/>
	<rect id="XMLID_309_" x="-5079" y="-3978.6" clip-path="url(#XMLID_693_)" fill="#933EEF" width="617.3" height="25.1"/>
	<rect id="XMLID_310_" x="-5079" y="-3953.5" clip-path="url(#XMLID_693_)" fill="#953EEF" width="617.3" height="25.1"/>
	<rect id="XMLID_311_" x="-5079" y="-3928.4" clip-path="url(#XMLID_693_)" fill="#963EF0" width="617.3" height="25.1"/>
	<rect id="XMLID_312_" x="-5079" y="-3903.3" clip-path="url(#XMLID_693_)" fill="#973EF0" width="617.3" height="25.1"/>
	<rect id="XMLID_313_" x="-5079" y="-3878.2" clip-path="url(#XMLID_693_)" fill="#983FF0" width="617.3" height="25.1"/>
	<rect id="XMLID_314_" x="-5079" y="-3853.1" clip-path="url(#XMLID_693_)" fill="#993FF0" width="617.3" height="25.1"/>
	<rect id="XMLID_315_" x="-5079" y="-3828" clip-path="url(#XMLID_693_)" fill="#9A3FF0" width="617.3" height="25.1"/>
	<rect id="XMLID_316_" x="-5079" y="-3802.8" clip-path="url(#XMLID_693_)" fill="#9B40F1" width="617.3" height="25.1"/>
	<rect id="XMLID_317_" x="-5079" y="-3777.7" clip-path="url(#XMLID_693_)" fill="#9C40F1" width="617.3" height="25.1"/>
	<rect id="XMLID_318_" x="-5079" y="-3752.6" clip-path="url(#XMLID_693_)" fill="#9D40F1" width="617.3" height="25.1"/>
	<rect id="XMLID_319_" x="-5079" y="-3727.5" clip-path="url(#XMLID_693_)" fill="#9E41F1" width="617.3" height="25.1"/>
	<rect id="XMLID_320_" x="-5079" y="-3702.4" clip-path="url(#XMLID_693_)" fill="#9F41F1" width="617.3" height="25.1"/>
	<rect id="XMLID_321_" x="-5079" y="-3677.3" clip-path="url(#XMLID_693_)" fill="#A041F2" width="617.3" height="25.1"/>
	<rect id="XMLID_322_" x="-5079" y="-3652.2" clip-path="url(#XMLID_693_)" fill="#A141F2" width="617.3" height="25.1"/>
	<rect id="XMLID_323_" x="-5079" y="-3627.1" clip-path="url(#XMLID_693_)" fill="#A242F2" width="617.3" height="25.1"/>
	<rect id="XMLID_324_" x="-5079" y="-3602" clip-path="url(#XMLID_693_)" fill="#A342F2" width="617.3" height="25.1"/>
	<rect id="XMLID_325_" x="-5079" y="-3576.9" clip-path="url(#XMLID_693_)" fill="#A442F2" width="617.3" height="25.1"/>
	<rect id="XMLID_326_" x="-5079" y="-3551.8" clip-path="url(#XMLID_693_)" fill="#A442F2" width="617.3" height="25.1"/>
	<rect id="XMLID_327_" x="-5079" y="-3526.7" clip-path="url(#XMLID_693_)" fill="#A542F3" width="617.3" height="25.1"/>
	<rect id="XMLID_328_" x="-5079" y="-3501.6" clip-path="url(#XMLID_693_)" fill="#A643F3" width="617.3" height="25.1"/>
	<rect id="XMLID_329_" x="-5079" y="-3476.5" clip-path="url(#XMLID_693_)" fill="#A643F3" width="617.3" height="25.1"/>
	<rect id="XMLID_330_" x="-5079" y="-3451.4" clip-path="url(#XMLID_693_)" fill="#A743F3" width="617.3" height="25.1"/>
	<rect id="XMLID_331_" x="-5079" y="-3426.3" clip-path="url(#XMLID_693_)" fill="#A743F3" width="617.3" height="0"/>
</g>
<g id="XMLID_247_">
	<defs>
		<path id="XMLID_292_" d="M-3752-4189.7v307.6l-143.6,1.3l143.6,143.3v430.9h-260v-397.9l-97.8-99v377.2h-260v-922.5h421
			L-3752-4189.7z M-4012-3976.6v-148.5h-97.8v148.5H-4012z"/>
	</defs>
	<clipPath id="XMLID_694_">
		<use xlink:href="#XMLID_292_"  overflow="visible"/>
	</clipPath>
	<rect id="XMLID_248_" x="-4109.8" y="-4125.1" clip-path="url(#XMLID_694_)" fill="#8B3BEE" width="97.8" height="24.4"/>
	<rect id="XMLID_249_" x="-4109.8" y="-4100.8" clip-path="url(#XMLID_694_)" fill="#8D3CEE" width="97.8" height="28.4"/>
	<rect id="XMLID_250_" x="-4109.8" y="-4072.4" clip-path="url(#XMLID_694_)" fill="#8E3CEE" width="97.8" height="28.4"/>
	<rect id="XMLID_251_" x="-4109.8" y="-4044" clip-path="url(#XMLID_694_)" fill="#8F3CEE" width="97.8" height="28.4"/>
	<rect id="XMLID_252_" x="-4109.8" y="-4015.7" clip-path="url(#XMLID_694_)" fill="#903DEF" width="97.8" height="28.4"/>
	<rect id="XMLID_253_" x="-4109.8" y="-3987.3" clip-path="url(#XMLID_694_)" fill="#913DEF" width="97.8" height="10.7"/>
	<rect id="XMLID_254_" x="-4369.7" y="-4348.7" clip-path="url(#XMLID_694_)" fill="#8339EC" width="617.7" height="21.1"/>
	<rect id="XMLID_255_" x="-4369.7" y="-4327.6" clip-path="url(#XMLID_694_)" fill="#8339EC" width="617.7" height="28.4"/>
	<rect id="XMLID_256_" x="-4369.7" y="-4299.3" clip-path="url(#XMLID_694_)" fill="#8439EC" width="617.7" height="28.4"/>
	<rect id="XMLID_257_" x="-4369.7" y="-4270.9" clip-path="url(#XMLID_694_)" fill="#853AEC" width="617.7" height="28.4"/>
	<rect id="XMLID_258_" x="-4369.7" y="-4242.6" clip-path="url(#XMLID_694_)" fill="#873AED" width="617.7" height="28.4"/>
	<rect id="XMLID_259_" x="-4369.7" y="-4214.2" clip-path="url(#XMLID_694_)" fill="#883AED" width="617.7" height="28.4"/>
	<rect id="XMLID_260_" x="-4369.7" y="-4185.8" clip-path="url(#XMLID_694_)" fill="#893BED" width="617.7" height="28.4"/>
	<rect id="XMLID_261_" x="-4369.7" y="-4157.5" clip-path="url(#XMLID_694_)" fill="#8A3BED" width="617.7" height="28.4"/>
	<rect id="XMLID_262_" x="-4369.7" y="-4129.1" clip-path="url(#XMLID_694_)" fill="#8B3BEE" width="617.7" height="28.4"/>
	<rect id="XMLID_263_" x="-4369.7" y="-4100.8" clip-path="url(#XMLID_694_)" fill="#8D3CEE" width="617.7" height="28.4"/>
	<rect id="XMLID_264_" x="-4369.7" y="-4072.4" clip-path="url(#XMLID_694_)" fill="#8E3CEE" width="617.7" height="28.4"/>
	<rect id="XMLID_265_" x="-4369.7" y="-4044" clip-path="url(#XMLID_694_)" fill="#8F3CEE" width="617.7" height="28.4"/>
	<rect id="XMLID_266_" x="-4369.7" y="-4015.7" clip-path="url(#XMLID_694_)" fill="#903DEF" width="617.7" height="28.4"/>
	<rect id="XMLID_267_" x="-4369.7" y="-3987.3" clip-path="url(#XMLID_694_)" fill="#913DEF" width="617.7" height="28.4"/>
	<rect id="XMLID_268_" x="-4369.7" y="-3959" clip-path="url(#XMLID_694_)" fill="#923DEF" width="617.7" height="28.4"/>
	<rect id="XMLID_269_" x="-4369.7" y="-3930.6" clip-path="url(#XMLID_694_)" fill="#933EEF" width="617.7" height="28.4"/>
	<rect id="XMLID_270_" x="-4369.7" y="-3902.2" clip-path="url(#XMLID_694_)" fill="#953EEF" width="617.7" height="28.4"/>
	<rect id="XMLID_271_" x="-4369.7" y="-3873.9" clip-path="url(#XMLID_694_)" fill="#963EF0" width="617.7" height="28.4"/>
	<rect id="XMLID_272_" x="-4369.7" y="-3845.5" clip-path="url(#XMLID_694_)" fill="#973EF0" width="617.7" height="28.4"/>
	<rect id="XMLID_273_" x="-4369.7" y="-3817.2" clip-path="url(#XMLID_694_)" fill="#983FF0" width="617.7" height="28.4"/>
	<rect id="XMLID_274_" x="-4369.7" y="-3788.8" clip-path="url(#XMLID_694_)" fill="#993FF0" width="617.7" height="28.4"/>
	<rect id="XMLID_275_" x="-4369.7" y="-3760.4" clip-path="url(#XMLID_694_)" fill="#9A3FF0" width="617.7" height="28.4"/>
	<rect id="XMLID_276_" x="-4369.7" y="-3732.1" clip-path="url(#XMLID_694_)" fill="#9B40F1" width="617.7" height="28.4"/>
	<rect id="XMLID_277_" x="-4369.7" y="-3703.7" clip-path="url(#XMLID_694_)" fill="#9C40F1" width="617.7" height="28.4"/>
	<rect id="XMLID_278_" x="-4369.7" y="-3675.4" clip-path="url(#XMLID_694_)" fill="#9D40F1" width="617.7" height="28.4"/>
	<rect id="XMLID_279_" x="-4369.7" y="-3647" clip-path="url(#XMLID_694_)" fill="#9E41F1" width="617.7" height="28.4"/>
	<rect id="XMLID_280_" x="-4369.7" y="-3618.6" clip-path="url(#XMLID_694_)" fill="#9F41F1" width="617.7" height="28.4"/>
	<rect id="XMLID_281_" x="-4369.7" y="-3590.3" clip-path="url(#XMLID_694_)" fill="#A041F2" width="617.7" height="28.4"/>
	<rect id="XMLID_282_" x="-4369.7" y="-3561.9" clip-path="url(#XMLID_694_)" fill="#A141F2" width="617.7" height="28.4"/>
	<rect id="XMLID_283_" x="-4369.7" y="-3533.6" clip-path="url(#XMLID_694_)" fill="#A242F2" width="617.7" height="28.4"/>
	<rect id="XMLID_284_" x="-4369.7" y="-3505.2" clip-path="url(#XMLID_694_)" fill="#A342F2" width="617.7" height="28.4"/>
	<rect id="XMLID_285_" x="-4369.7" y="-3476.8" clip-path="url(#XMLID_694_)" fill="#A442F2" width="617.7" height="28.4"/>
	<rect id="XMLID_286_" x="-4369.7" y="-3448.5" clip-path="url(#XMLID_694_)" fill="#A442F2" width="617.7" height="28.4"/>
	<rect id="XMLID_287_" x="-4369.7" y="-3420.1" clip-path="url(#XMLID_694_)" fill="#A542F3" width="617.7" height="28.4"/>
	<rect id="XMLID_288_" x="-4369.7" y="-3391.8" clip-path="url(#XMLID_694_)" fill="#A643F3" width="617.7" height="28.4"/>
	<rect id="XMLID_289_" x="-4369.7" y="-3363.4" clip-path="url(#XMLID_694_)" fill="#A643F3" width="617.7" height="28.4"/>
	<rect id="XMLID_290_" x="-4369.7" y="-3335" clip-path="url(#XMLID_694_)" fill="#A743F3" width="617.7" height="28.4"/>
	<rect id="XMLID_291_" x="-4369.7" y="-3306.7" clip-path="url(#XMLID_694_)" fill="#A743F3" width="617.7" height="0"/>
</g>
<g id="XMLID_187_">
	<defs>
		<path id="XMLID_246_" d="M-7297.3-2394.7l-197.1,194.5h-421.7v-922.4h421.7l197.1,303.5V-2394.7z M-7557.3-2423.8V-2899h-97.8
			v475.3H-7557.3z"/>
	</defs>
	<clipPath id="XMLID_695_">
		<use xlink:href="#XMLID_246_"  overflow="visible"/>
	</clipPath>
	<rect id="XMLID_188_" x="-7655.1" y="-2899" clip-path="url(#XMLID_695_)" fill="#8D3CEE" width="97.8" height="21"/>
	<rect id="XMLID_189_" x="-7655.1" y="-2878" clip-path="url(#XMLID_695_)" fill="#8E3CEE" width="97.8" height="25.1"/>
	<rect id="XMLID_190_" x="-7655.1" y="-2852.9" clip-path="url(#XMLID_695_)" fill="#8F3CEE" width="97.8" height="25.1"/>
	<rect id="XMLID_191_" x="-7655.1" y="-2827.8" clip-path="url(#XMLID_695_)" fill="#903DEF" width="97.8" height="25.1"/>
	<rect id="XMLID_192_" x="-7655.1" y="-2802.7" clip-path="url(#XMLID_695_)" fill="#913DEF" width="97.8" height="25.1"/>
	<rect id="XMLID_193_" x="-7655.1" y="-2777.6" clip-path="url(#XMLID_695_)" fill="#923DEF" width="97.8" height="25.1"/>
	<rect id="XMLID_194_" x="-7655.1" y="-2752.5" clip-path="url(#XMLID_695_)" fill="#933EEF" width="97.8" height="25.1"/>
	<rect id="XMLID_195_" x="-7655.1" y="-2727.4" clip-path="url(#XMLID_695_)" fill="#953EEF" width="97.8" height="25.1"/>
	<rect id="XMLID_196_" x="-7655.1" y="-2702.3" clip-path="url(#XMLID_695_)" fill="#963EF0" width="97.8" height="25.1"/>
	<rect id="XMLID_197_" x="-7655.1" y="-2677.2" clip-path="url(#XMLID_695_)" fill="#973EF0" width="97.8" height="25.1"/>
	<rect id="XMLID_198_" x="-7655.1" y="-2652.1" clip-path="url(#XMLID_695_)" fill="#983FF0" width="97.8" height="25.1"/>
	<rect id="XMLID_199_" x="-7655.1" y="-2627" clip-path="url(#XMLID_695_)" fill="#993FF0" width="97.8" height="25.1"/>
	<rect id="XMLID_200_" x="-7655.1" y="-2601.9" clip-path="url(#XMLID_695_)" fill="#9A3FF0" width="97.8" height="25.1"/>
	<rect id="XMLID_201_" x="-7655.1" y="-2576.8" clip-path="url(#XMLID_695_)" fill="#9B40F1" width="97.8" height="25.1"/>
	<rect id="XMLID_202_" x="-7655.1" y="-2551.7" clip-path="url(#XMLID_695_)" fill="#9C40F1" width="97.8" height="25.1"/>
	<rect id="XMLID_203_" x="-7655.1" y="-2526.6" clip-path="url(#XMLID_695_)" fill="#9D40F1" width="97.8" height="25.1"/>
	<rect id="XMLID_204_" x="-7655.1" y="-2501.5" clip-path="url(#XMLID_695_)" fill="#9E41F1" width="97.8" height="25.1"/>
	<rect id="XMLID_205_" x="-7655.1" y="-2476.3" clip-path="url(#XMLID_695_)" fill="#9F41F1" width="97.8" height="25.1"/>
	<rect id="XMLID_206_" x="-7655.1" y="-2451.2" clip-path="url(#XMLID_695_)" fill="#A041F2" width="97.8" height="25.1"/>
	<rect id="XMLID_207_" x="-7655.1" y="-2426.1" clip-path="url(#XMLID_695_)" fill="#A141F2" width="97.8" height="2.4"/>
	<rect id="XMLID_208_" x="-7916.1" y="-3122.6" clip-path="url(#XMLID_695_)" fill="#8339EC" width="618.8" height="18.7"/>
	<rect id="XMLID_209_" x="-7916.1" y="-3104" clip-path="url(#XMLID_695_)" fill="#8339EC" width="618.8" height="25.1"/>
	<rect id="XMLID_210_" x="-7916.1" y="-3078.9" clip-path="url(#XMLID_695_)" fill="#8439EC" width="618.8" height="25.1"/>
	<rect id="XMLID_211_" x="-7916.1" y="-3053.8" clip-path="url(#XMLID_695_)" fill="#853AEC" width="618.8" height="25.1"/>
	<rect id="XMLID_212_" x="-7916.1" y="-3028.7" clip-path="url(#XMLID_695_)" fill="#873AED" width="618.8" height="25.1"/>
	<rect id="XMLID_213_" x="-7916.1" y="-3003.5" clip-path="url(#XMLID_695_)" fill="#883AED" width="618.8" height="25.1"/>
	<rect id="XMLID_214_" x="-7916.1" y="-2978.4" clip-path="url(#XMLID_695_)" fill="#893BED" width="618.8" height="25.1"/>
	<rect id="XMLID_215_" x="-7916.1" y="-2953.3" clip-path="url(#XMLID_695_)" fill="#8A3BED" width="618.8" height="25.1"/>
	<rect id="XMLID_216_" x="-7916.1" y="-2928.2" clip-path="url(#XMLID_695_)" fill="#8B3BEE" width="618.8" height="25.1"/>
	<rect id="XMLID_217_" x="-7916.1" y="-2903.1" clip-path="url(#XMLID_695_)" fill="#8D3CEE" width="618.8" height="25.1"/>
	<rect id="XMLID_218_" x="-7916.1" y="-2878" clip-path="url(#XMLID_695_)" fill="#8E3CEE" width="618.8" height="25.1"/>
	<rect id="XMLID_219_" x="-7916.1" y="-2852.9" clip-path="url(#XMLID_695_)" fill="#8F3CEE" width="618.8" height="25.1"/>
	<rect id="XMLID_220_" x="-7916.1" y="-2827.8" clip-path="url(#XMLID_695_)" fill="#903DEF" width="618.8" height="25.1"/>
	<rect id="XMLID_221_" x="-7916.1" y="-2802.7" clip-path="url(#XMLID_695_)" fill="#913DEF" width="618.8" height="25.1"/>
	<rect id="XMLID_222_" x="-7916.1" y="-2777.6" clip-path="url(#XMLID_695_)" fill="#923DEF" width="618.8" height="25.1"/>
	<rect id="XMLID_223_" x="-7916.1" y="-2752.5" clip-path="url(#XMLID_695_)" fill="#933EEF" width="618.8" height="25.1"/>
	<rect id="XMLID_224_" x="-7916.1" y="-2727.4" clip-path="url(#XMLID_695_)" fill="#953EEF" width="618.8" height="25.1"/>
	<rect id="XMLID_225_" x="-7916.1" y="-2702.3" clip-path="url(#XMLID_695_)" fill="#963EF0" width="618.8" height="25.1"/>
	<rect id="XMLID_226_" x="-7916.1" y="-2677.2" clip-path="url(#XMLID_695_)" fill="#973EF0" width="618.8" height="25.1"/>
	<rect id="XMLID_227_" x="-7916.1" y="-2652.1" clip-path="url(#XMLID_695_)" fill="#983FF0" width="618.8" height="25.1"/>
	<rect id="XMLID_228_" x="-7916.1" y="-2627" clip-path="url(#XMLID_695_)" fill="#993FF0" width="618.8" height="25.1"/>
	<rect id="XMLID_229_" x="-7916.1" y="-2601.9" clip-path="url(#XMLID_695_)" fill="#9A3FF0" width="618.8" height="25.1"/>
	<rect id="XMLID_230_" x="-7916.1" y="-2576.8" clip-path="url(#XMLID_695_)" fill="#9B40F1" width="618.8" height="25.1"/>
	<rect id="XMLID_231_" x="-7916.1" y="-2551.7" clip-path="url(#XMLID_695_)" fill="#9C40F1" width="618.8" height="25.1"/>
	<rect id="XMLID_232_" x="-7916.1" y="-2526.6" clip-path="url(#XMLID_695_)" fill="#9D40F1" width="618.8" height="25.1"/>
	<rect id="XMLID_233_" x="-7916.1" y="-2501.5" clip-path="url(#XMLID_695_)" fill="#9E41F1" width="618.8" height="25.1"/>
	<rect id="XMLID_234_" x="-7916.1" y="-2476.3" clip-path="url(#XMLID_695_)" fill="#9F41F1" width="618.8" height="25.1"/>
	<rect id="XMLID_235_" x="-7916.1" y="-2451.2" clip-path="url(#XMLID_695_)" fill="#A041F2" width="618.8" height="25.1"/>
	<rect id="XMLID_236_" x="-7916.1" y="-2426.1" clip-path="url(#XMLID_695_)" fill="#A141F2" width="618.8" height="25.1"/>
	<rect id="XMLID_237_" x="-7916.1" y="-2401" clip-path="url(#XMLID_695_)" fill="#A242F2" width="618.8" height="25.1"/>
	<rect id="XMLID_238_" x="-7916.1" y="-2375.9" clip-path="url(#XMLID_695_)" fill="#A342F2" width="618.8" height="25.1"/>
	<rect id="XMLID_239_" x="-7916.1" y="-2350.8" clip-path="url(#XMLID_695_)" fill="#A442F2" width="618.8" height="25.1"/>
	<rect id="XMLID_240_" x="-7916.1" y="-2325.7" clip-path="url(#XMLID_695_)" fill="#A442F2" width="618.8" height="25.1"/>
	<rect id="XMLID_241_" x="-7916.1" y="-2300.6" clip-path="url(#XMLID_695_)" fill="#A542F3" width="618.8" height="25.1"/>
	<rect id="XMLID_242_" x="-7916.1" y="-2275.5" clip-path="url(#XMLID_695_)" fill="#A643F3" width="618.8" height="25.1"/>
	<rect id="XMLID_243_" x="-7916.1" y="-2250.4" clip-path="url(#XMLID_695_)" fill="#A643F3" width="618.8" height="25.1"/>
	<rect id="XMLID_244_" x="-7916.1" y="-2225.3" clip-path="url(#XMLID_695_)" fill="#A743F3" width="618.8" height="25.1"/>
	<rect id="XMLID_245_" x="-7916.1" y="-2200.2" clip-path="url(#XMLID_695_)" fill="#A743F3" width="618.8" height="0"/>
</g>
<g id="XMLID_138_">
	<defs>
		<path id="XMLID_186_" d="M-6588-2200.2h-260v-390h-98.8v390h-260v-618.9l197.1-303.5h421.7V-2200.2z M-6848-2750.3v-189.3
			l-98.8,189.3H-6848z"/>
	</defs>
	<clipPath id="XMLID_696_">
		<use xlink:href="#XMLID_186_"  overflow="visible"/>
	</clipPath>
	<rect id="XMLID_139_" x="-6946.8" y="-2939.7" clip-path="url(#XMLID_696_)" fill="#8A3BED" width="98.8" height="11.4"/>
	<rect id="XMLID_140_" x="-6946.8" y="-2928.2" clip-path="url(#XMLID_696_)" fill="#8B3BEE" width="98.8" height="25.1"/>
	<rect id="XMLID_141_" x="-6946.8" y="-2903.1" clip-path="url(#XMLID_696_)" fill="#8D3CEE" width="98.8" height="25.1"/>
	<rect id="XMLID_142_" x="-6946.8" y="-2878" clip-path="url(#XMLID_696_)" fill="#8E3CEE" width="98.8" height="25.1"/>
	<rect id="XMLID_143_" x="-6946.8" y="-2852.9" clip-path="url(#XMLID_696_)" fill="#8F3CEE" width="98.8" height="25.1"/>
	<rect id="XMLID_144_" x="-6946.8" y="-2827.8" clip-path="url(#XMLID_696_)" fill="#903DEF" width="98.8" height="25.1"/>
	<rect id="XMLID_145_" x="-6946.8" y="-2802.7" clip-path="url(#XMLID_696_)" fill="#913DEF" width="98.8" height="25.1"/>
	<rect id="XMLID_146_" x="-6946.8" y="-2777.6" clip-path="url(#XMLID_696_)" fill="#923DEF" width="98.8" height="25.1"/>
	<rect id="XMLID_147_" x="-6946.8" y="-2752.5" clip-path="url(#XMLID_696_)" fill="#933EEF" width="98.8" height="2.2"/>
	<rect id="XMLID_148_" x="-7206.8" y="-3122.6" clip-path="url(#XMLID_696_)" fill="#8339EC" width="618.8" height="18.7"/>
	<rect id="XMLID_149_" x="-7206.8" y="-3104" clip-path="url(#XMLID_696_)" fill="#8339EC" width="618.8" height="25.1"/>
	<rect id="XMLID_150_" x="-7206.8" y="-3078.9" clip-path="url(#XMLID_696_)" fill="#8439EC" width="618.8" height="25.1"/>
	<rect id="XMLID_151_" x="-7206.8" y="-3053.8" clip-path="url(#XMLID_696_)" fill="#853AEC" width="618.8" height="25.1"/>
	<rect id="XMLID_152_" x="-7206.8" y="-3028.7" clip-path="url(#XMLID_696_)" fill="#873AED" width="618.8" height="25.1"/>
	<rect id="XMLID_153_" x="-7206.8" y="-3003.5" clip-path="url(#XMLID_696_)" fill="#883AED" width="618.8" height="25.1"/>
	<rect id="XMLID_154_" x="-7206.8" y="-2978.4" clip-path="url(#XMLID_696_)" fill="#893BED" width="618.8" height="25.1"/>
	<rect id="XMLID_155_" x="-7206.8" y="-2953.3" clip-path="url(#XMLID_696_)" fill="#8A3BED" width="618.8" height="25.1"/>
	<rect id="XMLID_156_" x="-7206.8" y="-2928.2" clip-path="url(#XMLID_696_)" fill="#8B3BEE" width="618.8" height="25.1"/>
	<rect id="XMLID_157_" x="-7206.8" y="-2903.1" clip-path="url(#XMLID_696_)" fill="#8D3CEE" width="618.8" height="25.1"/>
	<rect id="XMLID_158_" x="-7206.8" y="-2878" clip-path="url(#XMLID_696_)" fill="#8E3CEE" width="618.8" height="25.1"/>
	<rect id="XMLID_159_" x="-7206.8" y="-2852.9" clip-path="url(#XMLID_696_)" fill="#8F3CEE" width="618.8" height="25.1"/>
	<rect id="XMLID_160_" x="-7206.8" y="-2827.8" clip-path="url(#XMLID_696_)" fill="#903DEF" width="618.8" height="25.1"/>
	<rect id="XMLID_161_" x="-7206.8" y="-2802.7" clip-path="url(#XMLID_696_)" fill="#913DEF" width="618.8" height="25.1"/>
	<rect id="XMLID_162_" x="-7206.8" y="-2777.6" clip-path="url(#XMLID_696_)" fill="#923DEF" width="618.8" height="25.1"/>
	<rect id="XMLID_163_" x="-7206.8" y="-2752.5" clip-path="url(#XMLID_696_)" fill="#933EEF" width="618.8" height="25.1"/>
	<rect id="XMLID_164_" x="-7206.8" y="-2727.4" clip-path="url(#XMLID_696_)" fill="#953EEF" width="618.8" height="25.1"/>
	<rect id="XMLID_165_" x="-7206.8" y="-2702.3" clip-path="url(#XMLID_696_)" fill="#963EF0" width="618.8" height="25.1"/>
	<rect id="XMLID_166_" x="-7206.8" y="-2677.2" clip-path="url(#XMLID_696_)" fill="#973EF0" width="618.8" height="25.1"/>
	<rect id="XMLID_167_" x="-7206.8" y="-2652.1" clip-path="url(#XMLID_696_)" fill="#983FF0" width="618.8" height="25.1"/>
	<rect id="XMLID_168_" x="-7206.8" y="-2627" clip-path="url(#XMLID_696_)" fill="#993FF0" width="618.8" height="25.1"/>
	<rect id="XMLID_169_" x="-7206.8" y="-2601.9" clip-path="url(#XMLID_696_)" fill="#9A3FF0" width="618.8" height="25.1"/>
	<rect id="XMLID_170_" x="-7206.8" y="-2576.8" clip-path="url(#XMLID_696_)" fill="#9B40F1" width="618.8" height="25.1"/>
	<rect id="XMLID_171_" x="-7206.8" y="-2551.7" clip-path="url(#XMLID_696_)" fill="#9C40F1" width="618.8" height="25.1"/>
	<rect id="XMLID_172_" x="-7206.8" y="-2526.6" clip-path="url(#XMLID_696_)" fill="#9D40F1" width="618.8" height="25.1"/>
	<rect id="XMLID_173_" x="-7206.8" y="-2501.5" clip-path="url(#XMLID_696_)" fill="#9E41F1" width="618.8" height="25.1"/>
	<rect id="XMLID_174_" x="-7206.8" y="-2476.3" clip-path="url(#XMLID_696_)" fill="#9F41F1" width="618.8" height="25.1"/>
	<rect id="XMLID_175_" x="-7206.8" y="-2451.2" clip-path="url(#XMLID_696_)" fill="#A041F2" width="618.8" height="25.1"/>
	<rect id="XMLID_176_" x="-7206.8" y="-2426.1" clip-path="url(#XMLID_696_)" fill="#A141F2" width="618.8" height="25.1"/>
	<rect id="XMLID_177_" x="-7206.8" y="-2401" clip-path="url(#XMLID_696_)" fill="#A242F2" width="618.8" height="25.1"/>
	<rect id="XMLID_178_" x="-7206.8" y="-2375.9" clip-path="url(#XMLID_696_)" fill="#A342F2" width="618.8" height="25.1"/>
	<rect id="XMLID_179_" x="-7206.8" y="-2350.8" clip-path="url(#XMLID_696_)" fill="#A442F2" width="618.8" height="25.1"/>
	<rect id="XMLID_180_" x="-7206.8" y="-2325.7" clip-path="url(#XMLID_696_)" fill="#A442F2" width="618.8" height="25.1"/>
	<rect id="XMLID_181_" x="-7206.8" y="-2300.6" clip-path="url(#XMLID_696_)" fill="#A542F3" width="618.8" height="25.1"/>
	<rect id="XMLID_182_" x="-7206.8" y="-2275.5" clip-path="url(#XMLID_696_)" fill="#A643F3" width="618.8" height="25.1"/>
	<rect id="XMLID_183_" x="-7206.8" y="-2250.4" clip-path="url(#XMLID_696_)" fill="#A643F3" width="618.8" height="25.1"/>
	<rect id="XMLID_184_" x="-7206.8" y="-2225.3" clip-path="url(#XMLID_696_)" fill="#A743F3" width="618.8" height="25.1"/>
	<rect id="XMLID_185_" x="-7206.8" y="-2200.2" clip-path="url(#XMLID_696_)" fill="#A743F3" width="618.8" height="0"/>
</g>
<g id="XMLID_28_">
	<defs>
		<path id="XMLID_137_" d="M-5878.8-2394.7l-197.1,194.5h-421.7v-724l197.1-198.4h421.7V-2394.7z M-6138.8-2423.8V-2899h-97.8v475.3
			H-6138.8z"/>
	</defs>
	<clipPath id="XMLID_697_">
		<use xlink:href="#XMLID_137_"  overflow="visible"/>
	</clipPath>
	<rect id="XMLID_29_" x="-6236.5" y="-2899" clip-path="url(#XMLID_697_)" fill="#8D3CEE" width="97.8" height="21"/>
	<rect id="XMLID_30_" x="-6236.5" y="-2878" clip-path="url(#XMLID_697_)" fill="#8E3CEE" width="97.8" height="25.1"/>
	<rect id="XMLID_31_" x="-6236.5" y="-2852.9" clip-path="url(#XMLID_697_)" fill="#8F3CEE" width="97.8" height="25.1"/>
	<rect id="XMLID_32_" x="-6236.5" y="-2827.8" clip-path="url(#XMLID_697_)" fill="#903DEF" width="97.8" height="25.1"/>
	<rect id="XMLID_33_" x="-6236.5" y="-2802.7" clip-path="url(#XMLID_697_)" fill="#913DEF" width="97.8" height="25.1"/>
	<rect id="XMLID_34_" x="-6236.5" y="-2777.6" clip-path="url(#XMLID_697_)" fill="#923DEF" width="97.8" height="25.1"/>
	<rect id="XMLID_35_" x="-6236.5" y="-2752.5" clip-path="url(#XMLID_697_)" fill="#933EEF" width="97.8" height="25.1"/>
	<rect id="XMLID_36_" x="-6236.5" y="-2727.4" clip-path="url(#XMLID_697_)" fill="#953EEF" width="97.8" height="25.1"/>
	<rect id="XMLID_37_" x="-6236.5" y="-2702.3" clip-path="url(#XMLID_697_)" fill="#963EF0" width="97.8" height="25.1"/>
	<rect id="XMLID_38_" x="-6236.5" y="-2677.2" clip-path="url(#XMLID_697_)" fill="#973EF0" width="97.8" height="25.1"/>
	<rect id="XMLID_39_" x="-6236.5" y="-2652.1" clip-path="url(#XMLID_697_)" fill="#983FF0" width="97.8" height="25.1"/>
	<rect id="XMLID_40_" x="-6236.5" y="-2627" clip-path="url(#XMLID_697_)" fill="#993FF0" width="97.8" height="25.1"/>
	<rect id="XMLID_68_" x="-6236.5" y="-2601.9" clip-path="url(#XMLID_697_)" fill="#9A3FF0" width="97.8" height="25.1"/>
	<rect id="XMLID_69_" x="-6236.5" y="-2576.8" clip-path="url(#XMLID_697_)" fill="#9B40F1" width="97.8" height="25.1"/>
	<rect id="XMLID_70_" x="-6236.5" y="-2551.7" clip-path="url(#XMLID_697_)" fill="#9C40F1" width="97.8" height="25.1"/>
	<rect id="XMLID_81_" x="-6236.5" y="-2526.6" clip-path="url(#XMLID_697_)" fill="#9D40F1" width="97.8" height="25.1"/>
	<rect id="XMLID_95_" x="-6236.5" y="-2501.5" clip-path="url(#XMLID_697_)" fill="#9E41F1" width="97.8" height="25.1"/>
	<rect id="XMLID_96_" x="-6236.5" y="-2476.3" clip-path="url(#XMLID_697_)" fill="#9F41F1" width="97.8" height="25.1"/>
	<rect id="XMLID_97_" x="-6236.5" y="-2451.2" clip-path="url(#XMLID_697_)" fill="#A041F2" width="97.8" height="25.1"/>
	<rect id="XMLID_98_" x="-6236.5" y="-2426.1" clip-path="url(#XMLID_697_)" fill="#A141F2" width="97.8" height="2.4"/>
	<rect id="XMLID_99_" x="-6497.6" y="-3122.6" clip-path="url(#XMLID_697_)" fill="#8339EC" width="618.8" height="18.7"/>
	<rect id="XMLID_100_" x="-6497.6" y="-3104" clip-path="url(#XMLID_697_)" fill="#8339EC" width="618.8" height="25.1"/>
	<rect id="XMLID_101_" x="-6497.6" y="-3078.9" clip-path="url(#XMLID_697_)" fill="#8439EC" width="618.8" height="25.1"/>
	<rect id="XMLID_102_" x="-6497.6" y="-3053.8" clip-path="url(#XMLID_697_)" fill="#853AEC" width="618.8" height="25.1"/>
	<rect id="XMLID_103_" x="-6497.6" y="-3028.7" clip-path="url(#XMLID_697_)" fill="#873AED" width="618.8" height="25.1"/>
	<rect id="XMLID_104_" x="-6497.6" y="-3003.5" clip-path="url(#XMLID_697_)" fill="#883AED" width="618.8" height="25.1"/>
	<rect id="XMLID_105_" x="-6497.6" y="-2978.4" clip-path="url(#XMLID_697_)" fill="#893BED" width="618.8" height="25.1"/>
	<rect id="XMLID_106_" x="-6497.6" y="-2953.3" clip-path="url(#XMLID_697_)" fill="#8A3BED" width="618.8" height="25.1"/>
	<rect id="XMLID_107_" x="-6497.6" y="-2928.2" clip-path="url(#XMLID_697_)" fill="#8B3BEE" width="618.8" height="25.1"/>
	<rect id="XMLID_108_" x="-6497.6" y="-2903.1" clip-path="url(#XMLID_697_)" fill="#8D3CEE" width="618.8" height="25.1"/>
	<rect id="XMLID_109_" x="-6497.6" y="-2878" clip-path="url(#XMLID_697_)" fill="#8E3CEE" width="618.8" height="25.1"/>
	<rect id="XMLID_110_" x="-6497.6" y="-2852.9" clip-path="url(#XMLID_697_)" fill="#8F3CEE" width="618.8" height="25.1"/>
	<rect id="XMLID_111_" x="-6497.6" y="-2827.8" clip-path="url(#XMLID_697_)" fill="#903DEF" width="618.8" height="25.1"/>
	<rect id="XMLID_112_" x="-6497.6" y="-2802.7" clip-path="url(#XMLID_697_)" fill="#913DEF" width="618.8" height="25.1"/>
	<rect id="XMLID_113_" x="-6497.6" y="-2777.6" clip-path="url(#XMLID_697_)" fill="#923DEF" width="618.8" height="25.1"/>
	<rect id="XMLID_114_" x="-6497.6" y="-2752.5" clip-path="url(#XMLID_697_)" fill="#933EEF" width="618.8" height="25.1"/>
	<rect id="XMLID_115_" x="-6497.6" y="-2727.4" clip-path="url(#XMLID_697_)" fill="#953EEF" width="618.8" height="25.1"/>
	<rect id="XMLID_116_" x="-6497.6" y="-2702.3" clip-path="url(#XMLID_697_)" fill="#963EF0" width="618.8" height="25.1"/>
	<rect id="XMLID_117_" x="-6497.6" y="-2677.2" clip-path="url(#XMLID_697_)" fill="#973EF0" width="618.8" height="25.1"/>
	<rect id="XMLID_118_" x="-6497.6" y="-2652.1" clip-path="url(#XMLID_697_)" fill="#983FF0" width="618.8" height="25.1"/>
	<rect id="XMLID_119_" x="-6497.6" y="-2627" clip-path="url(#XMLID_697_)" fill="#993FF0" width="618.8" height="25.1"/>
	<rect id="XMLID_120_" x="-6497.6" y="-2601.9" clip-path="url(#XMLID_697_)" fill="#9A3FF0" width="618.8" height="25.1"/>
	<rect id="XMLID_121_" x="-6497.6" y="-2576.8" clip-path="url(#XMLID_697_)" fill="#9B40F1" width="618.8" height="25.1"/>
	<rect id="XMLID_122_" x="-6497.6" y="-2551.7" clip-path="url(#XMLID_697_)" fill="#9C40F1" width="618.8" height="25.1"/>
	<rect id="XMLID_123_" x="-6497.6" y="-2526.6" clip-path="url(#XMLID_697_)" fill="#9D40F1" width="618.8" height="25.1"/>
	<rect id="XMLID_124_" x="-6497.6" y="-2501.5" clip-path="url(#XMLID_697_)" fill="#9E41F1" width="618.8" height="25.1"/>
	<rect id="XMLID_125_" x="-6497.6" y="-2476.3" clip-path="url(#XMLID_697_)" fill="#9F41F1" width="618.8" height="25.1"/>
	<rect id="XMLID_126_" x="-6497.6" y="-2451.2" clip-path="url(#XMLID_697_)" fill="#A041F2" width="618.8" height="25.1"/>
	<rect id="XMLID_127_" x="-6497.6" y="-2426.1" clip-path="url(#XMLID_697_)" fill="#A141F2" width="618.8" height="25.1"/>
	<rect id="XMLID_128_" x="-6497.6" y="-2401" clip-path="url(#XMLID_697_)" fill="#A242F2" width="618.8" height="25.1"/>
	<rect id="XMLID_129_" x="-6497.6" y="-2375.9" clip-path="url(#XMLID_697_)" fill="#A342F2" width="618.8" height="25.1"/>
	<rect id="XMLID_130_" x="-6497.6" y="-2350.8" clip-path="url(#XMLID_697_)" fill="#A442F2" width="618.8" height="25.1"/>
	<rect id="XMLID_131_" x="-6497.6" y="-2325.7" clip-path="url(#XMLID_697_)" fill="#A442F2" width="618.8" height="25.1"/>
	<rect id="XMLID_132_" x="-6497.6" y="-2300.6" clip-path="url(#XMLID_697_)" fill="#A542F3" width="618.8" height="25.1"/>
	<rect id="XMLID_133_" x="-6497.6" y="-2275.5" clip-path="url(#XMLID_697_)" fill="#A643F3" width="618.8" height="25.1"/>
	<rect id="XMLID_134_" x="-6497.6" y="-2250.4" clip-path="url(#XMLID_697_)" fill="#A643F3" width="618.8" height="25.1"/>
	<rect id="XMLID_135_" x="-6497.6" y="-2225.3" clip-path="url(#XMLID_697_)" fill="#A743F3" width="618.8" height="25.1"/>
	<rect id="XMLID_136_" x="-6497.6" y="-2200.2" clip-path="url(#XMLID_697_)" fill="#A743F3" width="618.8" height="0"/>
</g>
<g id="XMLID_27_">
	<path id="XMLID_92_" fill="#FFFFFF" d="M-998.1-4161.9v307.6l-143.6,1.3l143.6,143.3v430.9h-260v-397.9l-97.8-99v377.2h-260v-922.4
		h421L-998.1-4161.9z M-1258.1-3948.8v-148.5h-97.8v148.5H-1258.1z"/>
	<path id="XMLID_89_" fill="#FFFFFF" d="M-287.8-3398.5h-260v-390h-98.8v390h-260v-618.9l197.1-303.5h421.7V-3398.5z M-547.8-3948.6
		V-4138l-98.8,189.3H-547.8z"/>
	<path id="XMLID_87_" fill="#FFFFFF" d="M421.4-3398.5h-261v-698.9H62.7v698.9h-260v-728l197.1-194.5h421.7V-3398.5z"/>
	<path id="XMLID_85_" fill="#FFFFFF" d="M1129.7-3398.5h-260v-370.4h-97.8v370.4h-260v-922.4h260v375.2l97.8-96.9v-278.2h260v311.6
		l-143.6,144.6h143.6V-3398.5z"/>
	<path id="XMLID_83_" fill="#FFFFFF" d="M1838.5-3398.5h-617.3v-922.4h617.3v223.6h-357.3v148.7h138.3v160.2h-138.3v166.4h357.3
		V-3398.5z"/>
	<path id="XMLID_79_" fill="#FFFFFF" d="M2548.2-4161.9v307.6l-143.6,1.3l143.6,143.3v430.9h-260v-397.9l-97.8-99v377.2h-260v-922.4
		h421L2548.2-4161.9z M2288.2-3948.8v-148.5h-97.8v148.5H2288.2z"/>
	<path id="XMLID_76_" fill="#FFFFFF" d="M-997.1-2366.9l-197.1,194.5h-421.7v-922.4h421.7l197.1,303.5V-2366.9z M-1257.1-2396
		v-475.3h-97.8v475.3H-1257.1z"/>
	<path id="XMLID_73_" fill="#FFFFFF" d="M-287.8-2172.4h-260v-390h-98.8v390h-260v-618.9l197.1-303.5h421.7V-2172.4z M-547.8-2722.6
		v-189.3l-98.8,189.3H-547.8z"/>
	<path id="XMLID_67_" fill="#FFFFFF" d="M421.4-2366.9l-197.1,194.5h-421.7v-724l197.1-198.4h421.7V-2366.9z M161.5-2396v-475.3
		H63.7v475.3H161.5z"/>
</g>
<polygon id="XMLID_632_" fill="#FEFEFE" points="177.9,526.4 997.5,53.2 1817,526.4 1817,1472.7 997.5,1945.9 177.9,1472.7 "/>
<path id="XMLID_849_" fill="#383838" d="M986.3,1942.2c4-3.7,6.2-8.8,12.8-10.6c7.4-2,14-7.3,20.8-11.3c20.8-12,41.5-24,62.2-36
	c20.4-11.9,40.8-23.8,61.2-35.6c20.4-11.8,40.9-23.5,61.3-35.4c20.6-11.9,41-24,61.6-35.9c20.4-11.8,40.9-23.5,61.3-35.3
	c21.9-12.7,43.8-25.4,65.7-38.1c21.4-12.4,42.8-24.9,64.1-37.3c34.9-20.3,69.8-40.7,104.8-60.9c51.1-29.6,102.4-59,153.5-88.5
	c28.7-16.6,57.4-33.3,86-50c5.5-3.2,3.7-8.8,3.8-13.1c0.5-20.6,0.2-41.3,0.2-61.9c0.1-39.4-0.3-78.8,0.4-118.2
	c1.4-79.1-0.1-158.3,1.1-237.4c1.2-80.3,0-160.6,1.1-240.8c1.2-86,0.4-172,1.1-258c0.1-6.5,0.7-13,1.1-19.4
	c9.4,3,11.5,9.2,11.5,18.9c-0.3,310.8-0.3,621.5-0.2,932.3c0,3.8-0.5,6.4-4.3,8.6c-168.6,97.1-337,194.4-505.5,291.6
	c-102.4,59.1-204.9,118.2-307.1,177.7c-6.6,3.8-10.1,0.5-14.6-2.1C988.9,1944.5,987.6,1943.3,986.3,1942.2z"/>
<path id="XMLID_639_" fill="#BABABA" d="M1787.8,505.3c-40-23.1-80-46.2-120-69.3c-43.8-25.3-87.7-50.5-131.5-75.8
	c-43-24.8-85.9-49.7-128.9-74.5c-43.1-24.9-86.3-49.8-129.5-74.7c-41-23.7-82-47.4-123-71.1c-40.8-23.6-81.6-47.3-122.5-70.7
	c-10.2-5.8-20.8-13.5-31.9-17.7c-0.4-0.5-3.4,1.9-5.1,2.8c4.2,6.2,7.8,10.1,9.5,17.4c-4.7,4.3-10.6,6.6-16,9.7
	c-23.2,13.3-46.5,26.7-69.7,39.9c-20.3,11.6-40.7,23-61,34.6c-25.4,14.5-50.7,29.2-76.1,43.7c-25.4,14.5-50.9,28.8-76.3,43.3
	c-28.2,16.1-56.3,32.4-84.5,48.5c-23.4,13.4-47,26.5-70.4,39.8c-30.7,17.5-61.2,35.2-91.9,52.7c-28.2,16.1-56.5,32.1-84.7,48.2
	c-31.5,18-63,36-94.4,54.1c-26.4,15.1-52.6,30.4-79.2,45.2c-4.7,2.6-6.1,5.4-6.1,10.6c0.1,297.1,0.1,594.3,0.1,891.4
	c0,9.5-0.3,19,2.1,28.4c1.1,4.4-4.3,11.6-8.3,12c-1.9,0.2-4.4-1.1-5.1,2.1c-0.7,3.1,1.7,3.8,3.6,5c31.6,18.2,63.1,36.5,94.7,54.8
	c52.9,30.6,105.8,61.2,158.7,91.8c65.8,38,131.7,75.9,197.5,113.9c61.2,35.3,122.3,70.7,183.5,106c41.2,23.8,82.3,47.6,123.5,71.4
	c13.7,7.9,27.6,15.5,41.3,23.3c4-3.7,6.2-8.8,12.8-10.6c7.4-2,14-7.3,20.8-11.3c20.8-12,41.5-24,62.2-36
	c20.4-11.9,40.8-23.8,61.2-35.6c20.4-11.8,40.9-23.5,61.3-35.4c20.6-11.9,41-24,61.6-35.9c20.4-11.8,40.9-23.5,61.3-35.3
	c21.9-12.7,43.8-25.4,65.7-38.1c21.4-12.4,42.8-24.9,64.1-37.3c34.9-20.3,69.8-40.7,104.8-60.9c51.1-29.6,102.4-59,153.5-88.5
	c28.7-16.6,57.4-33.3,86-50c5.5-3.2,3.7-8.8,3.8-13.1c0.5-20.6,0.2-41.3,0.2-61.9c0.1-39.4-0.3-78.8,0.4-118.2
	c1.4-79.1-0.1-158.3,1.1-237.4c1.2-80.3,0-160.6,1.1-240.8c1.2-86,0.4-172,1.1-258c0.1-6.5,0.7-13,1.1-19.4
	C1803,514,1795.4,509.7,1787.8,505.3z M1711.8,1406.9c0,4.2-1.3,6.3-5,8.4c-32.6,18.6-65.1,37.5-97.6,56.2
	c-31.4,18.1-62.8,36.2-94.1,54.3c-32.7,18.9-65.4,37.8-98.1,56.7c-31.9,18.4-63.8,36.8-95.6,55.2c-32.2,18.6-64.3,37.4-96.4,56
	c-28,16.2-56.2,32.3-84.2,48.6c-28,16.2-56.1,32.5-84.1,48.7c-17.5,10.1-34.9,20.3-52.4,30.4c-5.1,2.9-10.9,0.7-14.6-5.5
	c-5.8-1.1-10.2-4.9-15.1-7.7c-47.3-27.2-94.5-54.4-141.7-81.7c-52.8-30.5-105.6-61.2-158.4-91.7c-47-27.2-94.1-54.3-141.2-81.5
	c-46.2-26.7-92.4-53.5-138.7-80.2c-30.1-17.4-60.1-34.7-90.2-52c-1.8-1-4.1-1.5-4-4.3c-10-0.4-12.6-3.1-12.6-12.9
	c0-268.9,0-537.7-0.1-806.6c0-6.6,1.6-10.2,7.7-13.6c44.2-25,88.1-50.5,132-75.8c66.8-38.5,133.5-77.1,200.3-115.7
	c110.9-64.1,221.7-128.1,332.6-192.2c11.2-6.5,22.4-13,33.7-19.5c6.6-3.8,9-3.4,14.4,2.8c11.5,4.8,21.6,12,32.4,18.1
	c26.7,15.2,53.2,30.7,79.8,46c25.1,14.5,50.2,29,75.3,43.5c26.6,15.4,53.2,30.7,79.8,46c25.9,15,51.9,29.9,77.8,44.9
	c25.9,15,51.9,29.9,77.8,44.9c27.6,15.9,55.1,32,82.7,47.9c23.9,13.8,47.9,27.6,71.9,41.4c27.7,16,55.4,32.1,83.2,48.2
	c11.1,6.4,22.1,12.8,33.2,19.2c1.5,0.8,3.3,1.2,4.1,3c5,0.7,5.8,3.8,5.8,8.4C1711.7,865.3,1711.7,1136.1,1711.8,1406.9z"/>
<path id="XMLID_847_" fill="#BABABA" d="M1001.5,52.3c-0.4-0.5-0.8-1-1.2-1.5C1000.6,51.3,1001.1,51.8,1001.5,52.3z"/>
<path id="XMLID_844_" fill="#979797" d="M989.6,1815.8c-5.8-1.1-10.2-4.9-15.1-7.7c-47.3-27.2-94.5-54.4-141.7-81.7
	c-52.8-30.5-105.6-61.2-158.4-91.7c-47-27.2-94.1-54.3-141.2-81.5c-46.2-26.7-92.4-53.5-138.7-80.2c-30.1-17.4-60.1-34.7-90.2-52
	c-1.8-1-4.1-1.5-4-4.3c1.4-8.5,0.3-17,0.2-25.6c-1-62.3,0.5-124.6-1.1-186.9c-1.6-61.7-0.5-123.4-1-185.1
	c-1.1-137.9-0.3-275.8-0.5-413.6c0-6.2,2.2-9.5,7.4-12.5c19.9-11.2,39.7-22.8,59.5-34.3c23.2-13.5,46.3-27.3,69.5-40.8
	c24.5-14.3,49.1-28.4,73.6-42.7c27.8-16.2,55.4-32.6,83.2-48.8c29.1-17,58.3-33.7,87.4-50.7c30.9-18,61.7-36.2,92.5-54.3
	c22.2-13,44.4-26,66.6-39c22.7-13.3,45.4-26.5,68.1-39.7c20.4-11.9,40.8-23.9,61.3-35.8c13.7-8,27.5-15.8,41.2-23.7
	c11.5,4.8,21.6,12,32.4,18.1c26.7,15.2,53.2,30.7,79.8,46c25.1,14.5,50.2,29,75.3,43.5c26.6,15.4,53.2,30.7,79.8,46
	c25.9,15,51.9,29.9,77.8,44.9c25.9,15,51.9,29.9,77.8,44.9c27.6,15.9,55.1,32,82.7,47.9c23.9,13.8,47.9,27.6,71.9,41.4
	c27.7,16,55.4,32.1,83.2,48.2c11.1,6.4,22.1,12.8,33.2,19.2c1.5,0.8,3.3,1.2,4.1,3c-5.1-0.3-5.7,2.7-5.8,7c-0.3,45.7-0.6,91.4-1,137
	c-0.6,69.8-0.1,139.5-0.8,209.3c-1.2,121.6-1.2,243.2-1.6,364.7c-0.1,28.3-0.4,56.6,0.1,84.9c0.2,9.2-2.5,14.1-10.9,18.9
	c-34.6,19.4-68.6,40.1-102.9,60.2c-37.6,22-75.2,43.7-112.8,65.6c-40.5,23.6-81,47.4-121.4,71.1c-37,21.7-74,43.6-111,65.3
	c-41.5,24.3-83,48.3-124.5,72.6c-33.1,19.4-66.4,38.6-99.2,58.5C1006,1806,995.9,1807.8,989.6,1815.8z M660.7,1149.1l0.5,0.1
	l0.5-0.1c0.8-0.1,1.6-0.1,2.4-0.2c1.5-0.2,3-0.4,4.5-0.6c1.1,0.3,2.1,0.9,3.2,0.9c16.8,0.8,33.6-0.9,50.3-1.5
	c9.1-0.3,18.3-0.2,27.4-0.8c17.7-1.1,35.3-2.8,53.1-2c0.5,5.9,0.6,11.8,1.6,17.6c2.1,12.4,1.8,25,4.2,37.4c2.7,14,4,28.2,8.4,41.8
	c-2,0.6-4,1.2-6,1.7c-31,6.5-62,13.1-93.1,19.2c-10.6,2.1-21,5.3-31.8,5.8c-4.2-1-3.4,2.9-4.3,4.8c-1.5,3.2,1.1,4.8,3.5,6.2
	c-0.7,2.4-0.1,4.5,1.1,6.6c18.7,31.5,37.5,63,56.1,94.5c5.5,9.3,11.9,18.1,16,28.3c0.2,2.3-1.5,3.8-2.6,5.5
	c-4,6.3-8.2,12.4-12.1,18.7c-24.9,40.4-52.4,79-79.1,118.2c-5.1,7.5-5.3,7.4,3.2,11.6c0.6,0.3,1.4,0.4,2.2,0.5
	c0.6,0.7,1.1,1.6,1.9,2.1c12.1,7.2,24.2,14.4,36.2,21.6c31.3,18.7,62.6,37.4,94,56.1c18.3,10.9,36.6,21.8,54.8,32.8
	c3.4,2.1,4.5,1.1,4.9-2.4c1.1-8.8,2.1-17.7,3.4-26.5c3.1-21,6-42,9.4-63c4-24.7,9.3-49.1,14.6-73.5c2-9.1,2.6-17.8-0.8-26.8
	c-2.7-7.1-4.6-14.5-6.3-22c-1.1-4.8-3.8-10.4-0.6-14.7c6.9-9.3,14.8-17.9,22-26.9c10.3-12.9,23.6-22.6,35.7-33.5
	c21-18.9,44.6-34.2,68.1-49.5c17.7-11.5,19.6-11.4,38.4-2.3c3.8,1.8,7.5,3.7,11.3,5.6c1.9,1,3.9,2.1,5.4,4.2
	c-8.3,2.6-16.1,4.8-23.7,7.6c-10.7,4.1-20.3,10-29.8,16.6c-11,7.6-21.8,15.4-31.4,24.7c-21.7,21-37.8,46.5-55.3,70.9
	c-6.4,9-5.7,17.7-1.3,26.2c5.5,10.7,7.7,20.5,4.4,32.8c-9,33.1-16.3,66.7-24.2,100.1c-5.1,21.2-10.1,42.4-15.4,63.6
	c-0.9,3.6,0,5.1,3,7.2c10.5,7,21.6,13,32.3,19.6c17.3,10.7,35.3,20.3,53,30.5c2.1,1.2,3.2,0.9,5-0.1c16.5-8.8,33.3-17.1,49.6-26.3
	c34.7-19.7,69.2-39.7,103.7-59.9c7.8-4.6,16.1-8.5,23.2-14.2c0.9-0.1,2-0.1,2.4-1.2l0,0.1c20.1-11.5,40.3-23.1,60.4-34.7
	c24.4-14.1,48.8-28.1,73-42.5c11.5-6.8,23.5-12.8,34.4-20.7c3.6-0.8,6-2.1,4-6.5c-8.5-19.3-15.7-39.1-23.3-58.7
	c-18.9-48.2-38-96.3-56.8-144.6c-6.7-17.2-12.1-34.9-28.2-46.2c-1.4-1-1.6-2.4-1.4-4.1c1.2-12.1,1.6-24.3,2.4-36.4
	c0.4-6.2,0.3-12.5,1-18.7c1.8-16.8,2.5-33.7,3.4-50.5c0.1-2.4-0.4-4.2-3.1-4.6c-3.1-5-8.6-7.4-12.6-11.5c-3.7-3.8-7.8-4.5-12.9-2.8
	c-5.5,1.8-11.6,2.1-17.1,4c-5.6,1.9-6-0.4-6-5c0.1-9.4,2.3-18.8,1.5-28.2c25.4,0,50.6-2,75.9-3.6c30.4-1.9,60.9-3.3,91.3-4.9
	c6.6-0.1,13.2,1.2,19.8,0.1c5.1-1,9.6-2.4,6.9-9.2c6.3-2.5,1.7-7.7,2.8-11.6c0.5-1.7,1.4-4.8-2.3-5.3c-0.6-0.1-1.1,0-1.7,0.1
	c-2.4-6.4-1-13.1-1.3-19.6c-0.3-8.8-0.2-8.8-8.8-8.1c-1.3-1.9-3.4-1.1-5.2-1.4c-4.9-0.7-9.6,1.3-14.5,0.9c-6.6-0.3-7.2-4.4-7.4-9.9
	c-1-18.6-1.8-37.2-2.9-55.8c-1.3-21.3-2.2-42.5-3.4-63.8c-1.1-21.3-2.2-42.6-3.4-63.8c-1.5-26.8-2.7-53.7-6.2-80.4
	c-1.8-13.9-2.6-28.1-7-41.6c-7.8-24.1-16.7-47.7-29.3-69.8c-2-3.6-2-6.3,1.1-9.1c1-0.9,1.6-2.1,2.5-3.1c11.1-8.4,21.1-18.1,31-27.9
	c7.6-7.5,9-12.4,4.7-21.7c-0.5,1.2-0.2,2.7-1.6,3.5c-3.6-3.2-7.2-6.4-10.8-9.6c-0.3-0.9-1-1.2-1.9-1.1c-7.3-1.8-12.5,2.4-17.4,6.6
	c-10.4,9.1-20.4,18.6-30.6,27.9c-1-4.6-4-8.3-6.8-11.8c-18.9-23.4-37.6-46.9-61-66.3c-20.3-16.8-40.4-33.5-64.8-44
	c-17.1-7.4-34.3-14.7-52.4-19.4c-19.5-5-39.2-9-59.1-11.1c-9.8-1-19.4-3.6-29.3-3.7c-18.1-0.2-36,1-54,2.4c-1.7,0.4-3.3,0.9-5,1.1
	c-12.2,1.5-24.5,2-36.6,4.5c-34.2,7.1-67.2,17.4-97.7,34.9c-46.7,26.8-84.3,62.7-112.1,109c-4.7,7.8-7.7,16.5-14.4,23.2
	c-12.6,12.7-26.3,24.2-37.8,38.1c-19.8,24.2-33.7,51.4-44.5,80.3c-12.6,33.6-16.7,68.4-13.2,104.2c3,31.2,11.4,60.7,27.8,87.6
	c10.3,16.8,21.6,32.9,38.6,43.9c2.5,1.6,4.7,2.4,7.4,1c3.5,0.1,6.4-2.6,10-2.3c0.8,17.3,1.6,34.6,2.6,51.9c0.3,4.9-1.6,7.9-6.3,8.4
	c-3.9,0.5-4.4,2.5-4.2,5.8c1.1,17.2,2,34.5,3.2,51.7c0.7,11.1,0.9,11.1,11.6,10.5C659.1,1149.1,659.9,1149.1,660.7,1149.1z"/>
<path id="XMLID_843_" fill="#FEFEFE" d="M989.6,1815.8c6.3-8,16.4-9.7,24.6-14.6c32.9-19.8,66.1-39.1,99.2-58.5
	c41.5-24.2,83.1-48.3,124.5-72.6c37.1-21.7,74-43.5,111-65.3c40.5-23.7,80.9-47.5,121.4-71.1c37.6-21.9,75.3-43.6,112.8-65.6
	c34.3-20.1,68.2-40.7,102.9-60.2c8.5-4.7,11.1-9.7,10.9-18.9c-0.6-28.3-0.2-56.6-0.1-84.9c0.4-121.6,0.4-243.2,1.6-364.7
	c0.7-69.8,0.2-139.5,0.8-209.3c0.4-45.7,0.7-91.4,1-137c0-4.2,0.7-7.2,5.8-7c5,0.7,5.8,3.8,5.8,8.4c-0.1,270.8-0.1,541.6,0,812.3
	c0,4.2-1.3,6.3-5,8.4c-32.6,18.6-65.1,37.5-97.6,56.2c-31.4,18.1-62.8,36.2-94.1,54.3c-32.7,18.9-65.4,37.8-98.1,56.7
	c-31.9,18.4-63.8,36.8-95.6,55.2c-32.2,18.6-64.3,37.4-96.4,56c-28,16.2-56.2,32.3-84.2,48.6c-28,16.2-56.1,32.5-84.1,48.7
	c-17.5,10.1-34.9,20.3-52.4,30.4C999.1,1824.2,993.3,1822,989.6,1815.8z"/>
<path id="XMLID_842_" fill="#383838" d="M1008.2,183c-13.7,7.9-27.5,15.7-41.2,23.7c-20.5,11.9-40.9,23.8-61.3,35.8
	c-22.7,13.3-45.4,26.5-68.1,39.7c-22.2,13-44.4,26-66.6,39c-30.8,18.1-61.6,36.2-92.5,54.3c-29.1,17-58.3,33.7-87.4,50.7
	c-27.8,16.2-55.4,32.6-83.2,48.8c-24.5,14.3-49.1,28.4-73.6,42.7c-23.2,13.5-46.3,27.3-69.5,40.8c-19.8,11.5-39.5,23.1-59.5,34.3
	c-5.2,2.9-7.4,6.2-7.4,12.5c0.2,137.9-0.6,275.8,0.5,413.6c0.5,61.7-0.6,123.4,1,185.1c1.6,62.3,0.1,124.6,1.1,186.9
	c0.1,8.5,1.2,17-0.2,25.6c-10-0.4-12.6-3.1-12.6-12.9c0-268.9,0-537.7-0.1-806.6c0-6.6,1.6-10.2,7.7-13.6
	c44.2-25,88.1-50.5,132-75.8c66.8-38.5,133.5-77.1,200.3-115.7c110.9-64.1,221.7-128.1,332.6-192.2c11.2-6.5,22.4-13,33.7-19.5
	C1000.5,176.4,1002.8,176.8,1008.2,183z"/>
<path id="XMLID_841_" fill="#545454" d="M816.8,1241.7c-4.4-13.6-5.7-27.9-8.4-41.8c-2.4-12.4-2.1-25-4.2-37.4
	c-1-5.8-1.1-11.8-1.6-17.6c10.8-0.2,21.4-3.3,32.1-3.4c19.4-0.3,38.6-2.6,57.9-2.6c1.2,0,2.3,0,3.1-1c2-1.4,4.3-1.2,6.6-1.2
	c5.1,0,10.3,0.3,15.4-0.1c20.6-1.7,41.2-2.4,61.8-3.2c1.6,1.6,3.6,0.8,5.5,1c5.6,0.6,11-1.1,16.5-1c46,0.7,92-1.8,138-1.2
	c1.1,0,2.3,0.1,3.4-0.1c11-1.9,22-0.9,33.1-0.7c0.8,9.5-1.3,18.8-1.5,28.2c-0.1,4.5,0.4,6.8,6,5c5.5-1.9,11.5-2.2,17.1-4
	c5.1-1.7,9.2-1,12.9,2.8c4,4.1,9.4,6.5,12.6,11.5c-0.8,0.7-1.6,1.4-2.4,2.1c-8.1,0.6-16.5,0.1-24.3,2.4c-17,5-34.3,8.4-51.6,12.1
	c-30.8,6.6-61.4,14-92.1,21.1c-37.9,8.8-75.8,17.6-113.6,26.4c-1.7,0.4-4.5,0.3-4.6,2.5c-0.1,2.1,2.5,2.6,4.3,3.1
	c8.3,2.6,16.7,5.1,25.1,7.6c22.4,6.7,44.8,13.4,67.2,20.1c22.2,6.7,44.4,13.6,66.6,20.3c4.9,1.5,8.2,5.4,8.7,9.6
	c0.5,3.7-0.2,8.3-2.1,12.2c-2.7,5.9-4.9,12-7.6,17.9c-1.7,3.7-0.6,5.8,2.8,7.9c18.9,12,36.6,25.7,52.9,41.2c4.1,3.9,8,8.1,12.1,12
	c17,16.5,33.1,33.7,47.8,52.3c14.3,18.1,28.9,35.9,38.4,57.2c2,4.5,1.3,7.2-1.3,10.7c-8.1,11-16.1,22.1-24.1,33.2
	c-19.2,26.5-38.5,52.8-57.4,79.5c-3.7,5.3-9.3,9.6-10.4,16.6c0,0,0-0.1,0-0.1c-1.1-0.1-1.9,0.1-2.4,1.2c-7.1,5.7-15.4,9.6-23.2,14.2
	c-34.4,20.2-69,40.2-103.7,59.9c-16.3,9.2-33.1,17.5-49.6,26.3c-1.9,1-3,1.3-5,0.1c-17.6-10.2-35.6-19.8-53-30.5
	c-10.7-6.6-21.8-12.6-32.3-19.6c-3.1-2-3.9-3.6-3-7.2c5.3-21.2,10.3-42.4,15.4-63.6c8-33.4,15.3-67,24.2-100.1
	c3.3-12.3,1.2-22.2-4.4-32.8c-4.4-8.4-5.1-17.2,1.3-26.2c17.4-24.4,33.5-49.9,55.3-70.9c9.6-9.3,20.4-17.1,31.4-24.7
	c9.5-6.5,19.1-12.5,29.8-16.6c7.6-2.9,15.5-5,23.7-7.6c-1.5-2.1-3.5-3.2-5.4-4.2c-3.7-1.9-7.5-3.8-11.3-5.6
	c-18.8-9.1-20.7-9.2-38.4,2.3c-23.6,15.3-47.2,30.6-68.1,49.5c-12.1,10.9-25.4,20.6-35.7,33.5c-7.2,9.1-15.1,17.6-22,26.9
	c-3.2,4.3-0.5,9.9,0.6,14.7c1.6,7.4,3.6,14.9,6.3,22c3.4,9,2.8,17.7,0.8,26.8c-5.3,24.4-10.6,48.8-14.6,73.5
	c-3.4,20.9-6.4,42-9.4,63c-1.3,8.8-2.4,17.7-3.4,26.5c-0.4,3.5-1.4,4.5-4.9,2.4c-18.2-11-36.5-21.9-54.8-32.8
	c-31.3-18.7-62.6-37.4-94-56.1c-12.1-7.2-24.2-14.4-36.2-21.6c-0.8-0.5-1.3-1.4-1.9-2.1c0.4-0.7,0.8-1.5,1.2-2.2
	c4.3,2.5,8.5,5,12.8,7.5c10.7,6.5,21.4,13.1,32.2,19.4c3.3,1.9,7.1,3.9,10-0.6c3.1-4.8,6.1-9.7,8.7-14.7c7.4-14.2,15.8-28,27-39.4
	c21.4-21.9,41.4-45.5,68.6-60.9c8.1-4.6,12.7-11.2,14.1-20.7c1.6-10.8,4.5-21.8,11.3-30.3c9.8-12.3,19.5-24.8,30.8-35.8
	c3.1-3,3.6-5.5,2.1-9.4c-11.8-30.2-23.5-60.4-35.1-90.7c-4.6-12.1-10-23.9-13.6-36.3c1-0.4,2-1.1,3.1-1.3
	c19.1-4.6,38.2-9.2,57.3-13.7c21.9-5.1,43.9-9.8,65.6-15.3c11.1-2.8,22.3-4.8,33.2-8.6c5.1-1.8,6.4-4.3,4.2-9
	c1.1-1.4,2.7-2.2,4.4-2.5c17.7-3.5,35.4-7,53.1-10.5c15.8-3.1,31.7-6.2,47.5-9.4c2.9-0.6,4.4-1.5,3.7-5.3
	c-1.3-7.3-1.8-14.7-2.4-22.1c-0.8-10.8-0.7-10.7-11.2-10.4c-19.5,0.5-38.9,0.8-58.4,1.2c-13.2,0.3-26.3,0.8-39.5,1.2
	c-0.8,0-1.5,0-2.3,0.2c-36.5,8.2-72.9,16.6-109.4,24.4c-16.8,3.6-33.4,9.1-50.8,9.9c-1.8,0.1-3,0.6-2.6,2.7
	c2.3,10.9,2.7,22.3,6.2,32.9c1.5,4.5-1.2,9.2,1.3,13.5c0.2,0.3-0.2,1.3-0.6,1.5c-4.6,1.7-3.1,5.3-2.8,8.5
	C831.9,1238.7,824.4,1240.2,816.8,1241.7z"/>
<path id="XMLID_840_" fill="#2C2C2C" d="M1157.5,1642.7c1.1-7,6.7-11.3,10.4-16.6c18.9-26.7,38.2-53,57.4-79.5
	c8-11.1,16-22.2,24.1-33.2c2.6-3.5,3.3-6.2,1.3-10.7c-9.5-21.3-24.2-39.1-38.4-57.2c-14.7-18.6-30.8-35.8-47.8-52.3
	c-4.1-4-7.9-8.1-12.1-12c-16.3-15.5-34-29.1-52.9-41.2c-3.4-2.1-4.5-4.2-2.8-7.9c2.7-5.9,4.9-12,7.6-17.9c1.8-3.9,2.5-8.5,2.1-12.2
	c-0.5-4.2-3.8-8.1-8.7-9.6c-22.2-6.7-44.4-13.6-66.6-20.3c-22.4-6.8-44.8-13.4-67.2-20.1c-8.4-2.5-16.8-5-25.1-7.6
	c-1.7-0.5-4.4-1-4.3-3.1c0.1-2.1,2.9-2.1,4.6-2.5c37.9-8.8,75.8-17.7,113.6-26.4c30.7-7.1,61.3-14.5,92.1-21.1
	c17.3-3.7,34.6-7.1,51.6-12.1c7.8-2.3,16.2-1.8,24.3-2.4c-2.1,34.1-4.2,68.3-6.4,102.4c-0.1,1.9,0.4,4-1.1,5.5
	c-2.3,2.4-1.1,3.9,0.8,5.7c5.6,5.4,11.2,11,16.7,16.5c1.2,1.2,2.3,2.4,3,4.1c8.6,22.4,17.3,44.9,26.1,67.2
	c21.8,55.6,43.7,111.2,65.5,166.8c-10.9,7.9-22.9,13.9-34.4,20.7c-24.2,14.4-48.6,28.4-73,42.5
	C1197.8,1619.7,1177.7,1631.2,1157.5,1642.7z"/>
<path id="XMLID_839_" fill="#545454" d="M651.5,1020.7c-3.6-0.4-6.5,2.3-10,2.3c-0.3-3.3-2.4-5.5-4.8-7.5c-4.3-3.5-8-7.6-11.6-11.8
	c-18.1-21.1-31.8-44.6-40.6-71c-1-3.1-3.9-5.8-2.9-9.5c16.2,0.4,32.3-1.3,48.3-2.6c9.4-0.8,19.1,0.6,28.3-2.2
	c3.7-1.1,7.1-1,10.6,0.3c1.2,5.6,2.4,11.2,3.5,16.8c0.5,6.1,5.1,9,10.5,6.4c3.8-1.8,6.3-4.8,6.7-9.2c0.6-5.5,1.3-10.9,1.9-16.4
	c13.4-1.1,26.8-2.9,40.2-3.2c21-0.5,41.8-2,62.7-3.5c27.3-1.9,54.8-2.9,82.1-5c7.9-0.6,16-0.2,23.9-1.8c6.2-1.3,7.8,0.1,8.1,6.6
	c0.7,15.8,1,31.7,1.5,47.5c0.1,2.3-0.4,3.6-3.2,4.4c-13.6,4-27.2,7.9-41.2,10.8c-32.6,6.8-65,14.6-97.5,22
	c-21,4.8-42.2,9.2-63.2,14.3c-13.9,3.4-28.1,5.7-41.8,10C659,1018.2,655.2,1019.2,651.5,1020.7z"/>
<path id="XMLID_838_" fill="#FCFCFC" d="M581.5,923.2c-1,3.8,1.9,6.4,2.9,9.5c8.8,26.4,22.5,49.9,40.6,71c3.6,4.2,7.3,8.3,11.6,11.8
	c2.4,2,4.5,4.1,4.8,7.5c-2.7,1.3-4.9,0.6-7.4-1c-17-11.1-28.3-27.1-38.6-43.9c-16.5-26.9-24.8-56.3-27.8-87.6
	c-3.5-35.8,0.6-70.6,13.2-104.2c10.8-28.9,24.7-56.1,44.5-80.3c11.5-14,25.1-25.5,37.8-38.1c6.7-6.7,9.7-15.4,14.4-23.2
	c27.7-46.3,65.3-82.2,112.1-109c30.5-17.5,63.5-27.7,97.7-34.9c12.1-2.5,24.4-3,36.6-4.5c1.7-0.2,3.3-0.7,5-1.1
	c0.1,0.7,0.3,1.5,0.4,2.2c-0.9,2.5-3.3,2.4-5.2,2.9c-26.1,7.5-50.4,19.3-74.3,31.6c-21.6,11.1-39.3,27.9-57.5,43.9
	c-20,17.6-36.5,37.9-52.2,59c-16.3,21.8-27.6,46.3-35.3,72.5c-1.1,3.6,0.2,4.9,3.1,5.7c6.7,1.9,13.5,3.8,20.2,5.9
	c50.7,16.1,101.4,32.3,152,48.5c3.2,1,6.6,1.5,10,4c-1.7,0-2.9,0.2-3.9,0c-54.5-12.3-109.1-24.4-163.5-37.1
	c-24.5-5.8-48.7-12.7-73.5-16.9c-2.1-0.4-3.4-0.1-5.1,0.9c-23.1,14.1-39.8,34.2-50.6,58.5c-16.3,36.5-24.3,74.7-17.8,114.9
	C577.4,902.3,578.1,913,581.5,923.2z"/>
<path id="XMLID_837_" fill="#545454" d="M929.3,497.4c-0.1-0.7-0.3-1.5-0.4-2.2c18-1.4,36-2.6,54-2.4c9.9,0.1,19.5,2.6,29.3,3.7
	c20,2.1,39.7,6.1,59.1,11.1c18.1,4.7,35.3,11.9,52.4,19.4c24.4,10.6,44.5,27.3,64.8,44c23.4,19.4,42.2,42.9,61,66.3
	c2.8,3.5,5.8,7.1,6.8,11.8c-2.9,2.7-5.8,5.4-8.8,8c-14.8,13.3-28.7,27.5-44,40.3c-9.5-14.8-18.9-29.5-28.4-44.3
	c-6.6-10.3-15-19.3-22.6-28.8c-12.1-14.9-25.7-28.4-40-41c-16.8-14.9-36.2-26.5-54.7-39.2c-30.9-21.1-64.9-33.8-101.7-40.2
	C947.2,502.4,936.9,504.8,929.3,497.4z"/>
<path id="XMLID_836_" fill="#2C2C2C" d="M1283,671.2c-0.8,1-1.5,2.3-2.5,3.1c-3.1,2.8-3.1,5.5-1.1,9.1
	c12.6,22.1,21.5,45.7,29.3,69.8c4.4,13.5,5.1,27.7,7,41.6c3.5,26.7,4.7,53.5,6.2,80.4c1.2,21.3,2.3,42.6,3.4,63.8
	c1.1,21.3,2,42.6,3.4,63.8c1.2,18.6,2,37.2,2.9,55.8c0.3,5.6,0.9,9.6,7.4,9.9c-0.1,0.8-0.2,1.6-0.2,2.5c-15.2-0.3-30.4,2.3-45.6,1
	c2.9-4.3,7.2-1.7,10.8-1.8c4.7-0.2,6.6-1.7,6.2-6.4c-1.2-15.3-2.7-30.6-3.4-46c-0.9-18.6-2.2-37.2-3.4-55.8
	c-1.2-18.2-2.3-36.4-3.4-54.6c-1.2-19.3-2.3-38.7-3.4-58c-1.1-19.7-2.5-39.5-3.4-59.2c-0.7-15.5-1.6-30.6-7-45.3
	c-4.1-11.1-7.5-22.4-13.2-32.8c-1.6-3-3.3-4.9-6.4-1.6c-8.4,8.5-17.1,16.8-25.3,25.6c-3.7,3.9-7.4,7.5-12.5,9.4
	c-0.5-0.8-1.3-1.4-1.6-2.3c-2.7-7.4-6.2-8-12-2c-13.3,13.7-27,26.9-40.2,40.8c-4.5,4.7-4,7.4-0.6,12.1c15.3,20.8,22.7,44.1,22.4,70
	c-0.6,41.8-0.9,83.7-1.3,125.5c0,3.1-0.3,6.1,0,9.2c0.3,4.1-1.3,5.1-5.3,5.1c-35.7,0.2-71.4,0.8-107.1,0.9
	c-52.7,0.1-105.5-0.1-158.2-0.2c-0.7-5.5,3.3-4.4,6.3-4.4c80.5,0,161,0,241.5,0c3.2,0,6.4-0.4,9.6-0.8c3.7-0.5,4.2-2.1,4.2-5.2
	c-0.1-8.6-0.2-17.2,0-25.8c0.3-19.8,1.5-39.5,0.8-59.3c-0.7-19-2.7-37.9-4-56.9c-1.4-19.8-9.9-36-20.4-51.9
	c-2.3-3.5-3.9-2.8-6.1-0.4c-3.2,3.7-6.4,7.4-9.7,11.2c-2.5-2.2-4.6-4.7-6-7.7c8-0.5,12.2-3.9,13.5-12.2c0.7-4.3,2.5-7.3,5.7-10
	c3.7-3.2,7.5-6.4,11-9.9c10.2-10,20.2-20.3,30.4-30.3c4.5-4.4,8.7-10,14.2-12c5.2-1.9,7.5-5.2,10.4-8.7c1.7-2,3.4-4.2,5.4-5.9
	c11.8-10.5,23.6-21,35.2-31.6c4.8-4.4,9.6-9.2,15.6-12.1C1282.6,670.8,1282.8,671,1283,671.2z"/>
<path id="XMLID_835_" fill="#F6CB20" d="M668.6,1148.2c-1.5,0.2-3,0.4-4.5,0.6c0-5.6,2.1-11.2,0.9-16.9c-0.2-0.4-0.4-0.9-0.6-1.3
	c-0.5-10-1.2-20-1.4-30c-0.2-8.1,2.1-10.3,10.2-11c1.1-0.1,2.3-0.1,3.4-0.1c26.5-0.6,53.1-0.4,79.6-0.8c41.8-0.6,83.6-1.9,125.5-1.6
	c8.4,0.1,16.9,0.5,25.2-0.2c18.5-1.6,37-0.6,55.5-0.7c-1.6,14.1-1,28.2-1.2,42.3c-6.1,0.4-12.2,1.1-18.2,1.2
	c-27.6,0.8-55.2,2.2-82.9,3.4c-27.8,1.1-55.6,2-83.4,3.4c-24.8,1.3-49.6,1.6-74.3,2.8c-8.6,0.4-17.1,0.6-25.7,1
	c-6.8,0.3-7.6,1.4-7.3,7.8C669.1,1148.1,668.8,1148.2,668.6,1148.2z"/>
<path id="XMLID_834_" fill="#F6CB20" d="M1306.2,615.6c3.6,3.2,7.2,6.4,10.8,9.6c0,0-0.1,0.3-0.1,0.3c-0.4,0.5-0.8,1.1-1.1,1.6
	c0,0-0.1,0.5-0.1,0.5c-2.2,3.8-5.4,6.7-8.5,9.7c-25.6,23.8-51.2,47.6-76.7,71.4c-30.5,28.6-61,57.2-91.5,85.8
	c-1.2,1.1-2.2,2.8-4.3,1.9c-0.5-0.9-1.1-1.7-1.6-2.6c-1.1-3.9-1.7-8.1-5.6-10.6c6.6-6.3,12.8-13,19.8-18.7
	c5.9-4.8,10.9-10.5,16.6-15.6c10.4-9.3,21.3-18.2,30.5-28.8l0,0c2.5,0,3.5-2.1,5-3.5c4.2-4.1,8.3-8.5,12.6-12.5
	C1243.3,674.6,1274.7,645.1,1306.2,615.6z"/>
<path id="XMLID_833_" fill="#FCFCFC" d="M1003.2,1201.3c2.2,4.7,0.9,7.3-4.2,9c-10.9,3.7-22.1,5.8-33.2,8.6
	c-21.8,5.5-43.8,10.2-65.6,15.3c-19.1,4.5-38.2,9.1-57.3,13.7c-1.1,0.3-2,0.9-3.1,1.3c-10.8,0.9-21,4.2-31.6,6.1
	c-38.7,6.9-76.2,19.6-115.6,22.8c-1.8,0-3.7,0-5.5,0c-2.9-2.9-3.4-6.2-1.2-9.7c10.9-0.5,21.3-3.7,31.8-5.8
	c31.1-6.2,62.1-12.8,93.1-19.2c2-0.4,4-1.1,6-1.7c7.5-1.5,15-3.1,22.6-4.6c1.1-0.1,2.3,0.1,3.4-0.2c43.5-9.9,86.9-19.9,130.4-29.7
	C983.1,1205,992.9,1201.6,1003.2,1201.3z"/>
<path id="XMLID_832_" fill="#FDF6DF" d="M1325.3,1544.9c-21.8-55.6-43.7-111.2-65.5-166.8c-8.8-22.4-17.5-44.8-26.1-67.2
	c-0.7-1.7-1.8-2.9-3-4.1c-5.6-5.5-11.1-11.1-16.7-16.5c-1.9-1.8-3.1-3.3-0.8-5.7c1.4-1.5,1-3.6,1.1-5.5c2.2-34.1,4.3-68.2,6.4-102.4
	c0.8-0.7,1.6-1.4,2.4-2.1c2.7,0.4,3.2,2.1,3.1,4.6c-0.9,16.9-1.5,33.7-3.4,50.5c-0.7,6.2-0.6,12.5-1,18.7
	c-0.8,12.1-1.1,24.3-2.4,36.4c-0.2,1.6,0,3,1.4,4.1c16.1,11.3,21.5,29.1,28.2,46.2c18.8,48.2,37.9,96.3,56.8,144.6
	c7.7,19.6,14.8,39.4,23.3,58.7C1331.3,1542.8,1328.8,1544.1,1325.3,1544.9z"/>
<path id="XMLID_831_" fill="#2C2C2C" d="M1176.1,1131.2c-11-0.2-22.1-1.3-33.1,0.7c-1.1,0.2-2.3,0.1-3.4,0.1c-46-0.5-92,2-138,1.2
	c-5.5-0.1-10.9,1.7-16.5,1c-1.8-0.2-3.9,0.6-5.5-1c4.2,0.2,8.3-1,12.5-1.1c23.2-0.7,46.3-2.2,69.5-3.4c15-0.8,30-1.6,45-2.3
	c23.4-1,46.7-2.2,70.1-3.5c14.8-0.8,29.6-1.6,44.4-2.2c23.6-1.1,47.1-2.4,70.6-3.5c16.9-0.8,33.8-1.3,50.7-2.7
	c0.3,0.1,0.6,0.2,0.9,0.4c0,2.6,0,5.2-0.1,7.8c-30.4,1.6-60.9,2.9-91.3,4.9C1226.7,1129.2,1201.5,1131.2,1176.1,1131.2z"/>
<path id="XMLID_830_" fill="#FCFCFC" d="M670.9,1561.1c-0.4,0.7-0.8,1.5-1.2,2.2c-0.7-0.2-1.5-0.2-2.2-0.5
	c-8.5-4.2-8.3-4.1-3.2-11.6c26.7-39.2,54.2-77.8,79.1-118.2c3.9-6.3,8.1-12.4,12.1-18.7c1.1-1.7,2.8-3.2,2.6-5.5
	c3,0.2,5.6,2.9,8.9,1.4c1.8,5.5-0.8,9.9-3.5,14.2c-4.6,7.3-10,14.2-14.5,21.6c-12,19.9-24.3,39.5-38.5,57.9
	C696.4,1522.3,682.6,1541,670.9,1561.1z"/>
<path id="XMLID_829_" fill="#FCFCFC" d="M1203.6,697.4c15.3-12.8,29.2-27,44-40.3c2.9-2.6,5.9-5.3,8.8-8
	c10.2-9.3,20.2-18.8,30.6-27.9c4.8-4.2,10.1-8.4,17.4-6.6c-8.5,3.8-14.3,11.2-21.6,16.4c-6.8,4.9-13.6,10-19.1,16.1
	c-8.2,9.2-16.6,18.1-25.6,26.7c-14.4,13.6-27.8,28.3-41.6,42.4c-1.1,1.1-2.2,2.2-2.1,3.9c0,0,0,0,0,0c-1.6-0.1-2.9,0.2-4.2,1.3
	c-4.9,4.2-9.9,8.3-14.8,12.5c-14.5,12.6-29,25.1-43.4,37.8c-3.4,3-8.2,5.6-5.3,11.6c-0.8,0.7-1.6,1.5-2.4,2.2
	c-2.6-2.1-5.3-4.2-7.9-6.4c8.8-6.4,15.6-15,23.5-22.4c7.2-6.7,14.4-13.5,21.7-20.2C1175.6,723.7,1190,711,1203.6,697.4z"/>
<path id="XMLID_828_" fill="#FCFCFC" d="M664.4,1130.7c0.2,0.4,0.4,0.9,0.6,1.3c-3.3-0.2-7,0.2-6.3,4.3c0.7,4.4-0.8,8.6-0.3,12.9
	c-10.7,0.6-10.9,0.6-11.6-10.5c-1.2-17.2-2.1-34.5-3.2-51.7c-0.2-3.3,0.3-5.3,4.2-5.8c4.7-0.6,6.6-3.5,6.3-8.4
	c-1-17.3-1.7-34.6-2.6-51.9c3.7-1.5,7.4-2.5,11.5-2.5c1.2,18.6,2.6,37.2,3.4,55.8c0.2,4.4,1.5,6.7,5.8,7.4c-2.9,2.3-6.2,1.2-9.3,1.1
	c-3.5-0.1-5.5,0.9-6.7,4.4c-1.7,5-3.8,9.9-5.9,14.8c-1.4,3.3-1.3,6.3,1.1,9c3.2,3.5,3.7,7.6,3.6,12.1c-0.2,8.3-0.1,8.3,8.3,8
	C663.7,1130.8,664,1130.7,664.4,1130.7z"/>
<path id="XMLID_827_" fill="#545454" d="M767.1,1410.2c-3.3,1.5-5.9-1.3-8.9-1.4c-4-10.1-10.5-18.9-16-28.3
	c-18.6-31.6-37.4-63-56.1-94.5c-1.2-2.1-1.9-4.2-1.1-6.6c0.7-0.4,1.3-0.8,2-1.2c1.8,0,3.7,0,5.5,0c0.2,3.6,2.3,6.5,4,9.4
	c21.2,35.8,42.6,71.5,63.7,107.3C763.1,1399.6,767.5,1403.9,767.1,1410.2z"/>
<path id="XMLID_826_" fill="#FDF6DF" d="M1194.2,720.1c-0.1-1.7,1-2.8,2.1-3.9c13.8-14.2,27.2-28.8,41.6-42.4
	c9-8.5,17.4-17.4,25.6-26.7c5.5-6.1,12.3-11.3,19.1-16.1c7.4-5.2,13.2-12.6,21.6-16.4c0.9-0.1,1.6,0.1,1.9,1.1
	c-31.5,29.5-63,59-94.4,88.5c-4.3,4-8.3,8.4-12.6,12.5C1197.8,718,1196.7,720.1,1194.2,720.1z"/>
<path id="XMLID_825_" fill="#FDF6DF" d="M1358.7,1069.1c8.7-0.7,8.5-0.7,8.8,8.1c0.2,6.5-1.1,13.2,1.3,19.6
	c-0.9,5.7,1.2,11.2,1.2,16.8c2.7,6.8-1.8,8.2-6.9,9.2c-1.3-2.6-1.8-5.2-1.4-8.1c0.7-10-1.1-19.8-1.8-29.7c-0.3-4.4,0.6-9.2-1.7-13.4
	C1358.4,1070.8,1358.6,1070,1358.7,1069.1z"/>
<path id="XMLID_824_" fill="#383838" d="M895.8,1137.9c-0.9,0.9-2,1-3.1,1c-19.3,0-38.6,2.3-57.9,2.6c-10.7,0.1-21.3,3.2-32.1,3.4
	c-17.8-0.8-35.4,0.8-53.1,2c-9.1,0.6-18.3,0.5-27.4,0.8c-16.8,0.6-33.5,2.3-50.3,1.5c-1.1-0.1-2.1-0.6-3.2-0.9
	c0.2-0.1,0.5-0.1,0.8-0.1c15.2,0,30.3-1.6,45.5-2.2c24.1-1,48.2-2.4,72.3-3.5c14.2-0.6,28.4-1.9,42.6-2.2
	C851.8,1139.8,873.8,1137.1,895.8,1137.9z"/>
<path id="XMLID_823_" fill="#2C2C2C" d="M1316.9,625.5c0,0,0.1-0.3,0.1-0.3c1.4-0.7,1.1-2.3,1.6-3.5c4.3,9.3,3,14.1-4.7,21.7
	c-9.9,9.8-19.9,19.4-31,27.9c-0.2-0.2-0.3-0.4-0.5-0.6c-0.4-2.9,1-5,3.1-7c9.6-9.2,19.1-18.5,28.8-27.6c2.9-2.7,4.3-5.2,1.3-8.5
	c0,0,0.1-0.5,0.1-0.5C1316.7,626.9,1317,626.3,1316.9,625.5z"/>
<path id="XMLID_822_" fill="#545454" d="M1361.7,1114.7c-0.4,2.8,0.1,5.5,1.4,8.1c-6.6,1.1-13.2-0.2-19.8-0.1c0-2.6,0-5.2,0.1-7.8
	C1349.5,1114.9,1355.6,1114.8,1361.7,1114.7z"/>
<path id="XMLID_821_" fill="#FDF6DF" d="M658.4,1149.1c-0.5-4.3,1-8.4,0.3-12.9c-0.7-4.1,3.1-4.5,6.3-4.3c1.2,5.7-0.9,11.2-0.9,16.9
	c-0.8,0.1-1.6,0.1-2.4,0.2c-0.4-0.6-0.7-0.6-1.1,0C659.9,1149.1,659.1,1149.1,658.4,1149.1z"/>
<path id="XMLID_820_" fill="#F6CB20" d="M1370,1113.6c0-5.6-2.1-11.1-1.2-16.8c0.6,0,1.1-0.1,1.7,0c3.7,0.4,2.8,3.6,2.3,5.3
	C1371.7,1105.9,1376.3,1111.1,1370,1113.6z"/>
<path id="XMLID_819_" fill="#545454" d="M1358.7,1069.1c-0.2,0.8-0.3,1.7-0.5,2.5c-6-2.7-12.1,0.2-18.1-0.3
	c-0.4-0.1-0.9-0.2-1.3-0.3c0.1-0.8,0.2-1.6,0.2-2.5c4.9,0.4,9.6-1.6,14.5-0.9C1355.3,1068,1357.4,1067.3,1358.7,1069.1z"/>
<path id="XMLID_818_" fill="#BABABA" d="M687.1,1278.2c-0.7,0.4-1.3,0.8-2,1.2c-2.4-1.4-4.9-3-3.5-6.2c0.9-1.9,0.1-5.8,4.3-4.8
	C683.7,1272,684.1,1275.2,687.1,1278.2z"/>
<path id="XMLID_817_" fill="#2C2C2C" d="M1155.2,1643.9c0.4-1.1,1.3-1.4,2.4-1.2C1157.2,1643.8,1156.1,1643.8,1155.2,1643.9z"/>
<path id="XMLID_816_" fill="#FCFCFC" d="M660.7,1149.1c0.4-0.6,0.7-0.6,1.1,0c0,0-0.5,0.1-0.5,0.1L660.7,1149.1z"/>
<path id="XMLID_815_" fill="#979797" d="M767.1,1410.2c0.4-6.3-4-10.6-6.8-15.3c-21.1-35.9-42.5-71.5-63.7-107.3
	c-1.7-2.9-3.9-5.7-4-9.4c39.4-3.3,76.9-15.9,115.6-22.8c10.6-1.9,20.9-5.2,31.6-6.1c3.6,12.5,9,24.3,13.6,36.3
	c11.6,30.3,23.3,60.5,35.1,90.7c1.5,4,1,6.4-2.1,9.4c-11.4,11-21,23.5-30.8,35.8c-6.8,8.5-9.7,19.5-11.3,30.3
	c-1.4,9.4-5.9,16-14.1,20.7c-27.2,15.4-47.1,39-68.6,60.9c-11.2,11.5-19.5,25.2-27,39.4c-2.6,5-5.6,9.9-8.7,14.7
	c-2.9,4.5-6.8,2.5-10,0.6c-10.8-6.4-21.5-13-32.2-19.4c-4.2-2.6-8.5-5-12.8-7.5c11.7-20.1,25.5-38.8,39.7-57.1
	c14.2-18.4,26.5-38.1,38.5-57.9c4.5-7.4,9.9-14.3,14.5-21.6C766.3,1420.1,768.9,1415.7,767.1,1410.2z"/>
<path id="XMLID_814_" fill="#979797" d="M1003.2,1201.3c-10.3,0.4-20.1,3.7-30,5.9c-43.5,9.8-86.9,19.8-130.4,29.7
	c-1.1,0.2-2.3,0.1-3.4,0.2c-0.3-3.2-1.8-6.9,2.8-8.5c0.3-0.1,0.8-1.2,0.6-1.5c-2.5-4.3,0.2-9-1.3-13.5c-3.5-10.7-3.8-22-6.2-32.9
	c-0.5-2.1,0.7-2.6,2.6-2.7c17.4-0.8,33.9-6.3,50.8-9.9c36.5-7.8,73-16.3,109.4-24.4c0.7-0.2,1.5-0.2,2.3-0.2
	c13.2-0.4,26.3-0.9,39.5-1.2c19.5-0.5,38.9-0.7,58.4-1.2c10.5-0.3,10.4-0.4,11.2,10.4c0.6,7.4,1,14.8,2.4,22.1
	c0.7,3.8-0.8,4.7-3.7,5.3c-15.8,3.1-31.7,6.3-47.5,9.4c-17.7,3.5-35.4,7-53.1,10.5C1005.8,1199.1,1004.3,1199.8,1003.2,1201.3z"/>
<path id="XMLID_813_" fill="#724A03" d="M1338.8,1071.1c0.4,0.1,0.9,0.2,1.3,0.3c0.3,1.3,0.8,2.6,0.8,3.8
	c-0.5,13.1,0.8,26.2,1.6,39.3c-16.9,1.5-33.8,1.9-50.7,2.7c-23.6,1.1-47.1,2.4-70.6,3.5c-14.8,0.7-29.6,1.4-44.4,2.2
	c-23.4,1.3-46.7,2.5-70.1,3.5c-15,0.6-30,1.5-45,2.3c-23.2,1.2-46.3,2.7-69.5,3.4c-4.1,0.1-8.2,1.3-12.5,1.1
	c-20.6,0.8-41.2,1.5-61.8,3.2c-5.1,0.4-10.3,0.1-15.4,0.1c-2.3,0-4.6-0.2-6.6,1.2c-22.1-0.8-44,2-66.1,2.4
	c-14.2,0.3-28.4,1.5-42.6,2.2c-24.1,1.1-48.2,2.5-72.3,3.5c-15.2,0.6-30.3,2.1-45.5,2.2c-0.2-6.5,0.6-7.5,7.3-7.8
	c8.6-0.4,17.1-0.6,25.7-1c24.8-1.2,49.6-1.5,74.3-2.8c27.8-1.4,55.6-2.3,83.4-3.4c27.6-1.1,55.2-2.6,82.9-3.4
	c6.1-0.2,12.2-0.8,18.2-1.2c4.8,0.5,9.5-0.8,14.2-0.9c26.5-0.6,52.9-2.2,79.3-3.4c20.9-0.9,41.9-1.2,62.8-2.3
	c21.1-1.2,42.2-1.7,63.3-2.4c3.8-0.1,4.8-1.6,3.9-4.9c-2.8-10.5-2.2-21.2-1.9-31.8c33.2,0.1,66.3-1.9,99.5-1.4
	c9.6,0.2,9.6,0,9.5-9.2c0.4,0,0.9-0.1,1.3-0.1C1308.4,1073.4,1323.6,1070.8,1338.8,1071.1z"/>
<path id="XMLID_812_" fill="#979797" d="M672.1,1081.5c-4.3-0.7-5.6-3-5.8-7.4c-0.8-18.6-2.2-37.2-3.4-55.8
	c13.7-4.4,27.9-6.7,41.8-10c21-5.1,42.1-9.5,63.2-14.3c32.5-7.4,64.9-15.2,97.5-22c14-2.9,27.6-6.8,41.2-10.8c2.7-0.8,3.2-2,3.2-4.4
	c-0.5-15.8-0.8-31.7-1.5-47.5c-0.3-6.5-1.9-7.9-8.1-6.6c-7.9,1.6-15.9,1.2-23.9,1.8c-27.3,2.1-54.7,3.1-82.1,5
	c-20.9,1.5-41.8,3-62.7,3.5c-13.4,0.3-26.8,2.1-40.2,3.2c-3.3-6.8-2.6-14.3-2.9-21.3c-1.1-29.9-1.3-59.8-1.8-89.7
	c-0.1-4.5,0.7-9.1-0.7-13.6c-1.1-3.4-2.2-6.6-6.2-7.4c-4-0.7-7.1,0.7-9,4.4c-0.3,0.5-0.7,0.9-0.9,1.5c-4.6,17.6-3.8,35.6-3.8,53.6
	c-0.1,25,2.3,49.8,2.6,74.8c-3.5-1.3-6.9-1.4-10.6-0.3c-9.2,2.8-18.9,1.4-28.3,2.2c-16.1,1.4-32.2,3-48.3,2.6
	c-3.4-10.2-4.1-20.9-5.8-31.4c-6.5-40.2,1.5-78.5,17.8-114.9c10.8-24.2,27.5-44.4,50.6-58.5c1.7-1,3-1.3,5.1-0.9
	c24.9,4.2,49.1,11.1,73.5,16.9c54.4,12.8,109,24.8,163.5,37.1c1,0.2,2.2,0,3.9,0c-3.3-2.5-6.8-3-10-4
	c-50.7-16.2-101.3-32.4-152-48.5c-6.7-2.1-13.5-3.9-20.2-5.9c-3-0.9-4.2-2.1-3.1-5.7c7.7-26.2,19-50.6,35.3-72.5
	c15.7-21.1,32.2-41.4,52.2-59c18.2-16,35.9-32.8,57.5-43.9c23.9-12.3,48.2-24.1,74.3-31.6c1.9-0.5,4.3-0.4,5.2-2.9
	c7.6,7.4,17.9,5,26.8,6.5c36.8,6.4,70.8,19.1,101.7,40.2c18.5,12.6,37.9,24.3,54.7,39.2c14.3,12.6,27.9,26.1,40,41
	c7.7,9.5,16,18.4,22.6,28.8c9.5,14.8,18.9,29.5,28.4,44.3c-13.6,13.6-27.9,26.3-42.1,39.3c-7.3,6.7-14.5,13.4-21.7,20.2
	c-1.8-1-3.8-1.8-5.4-3.1c-13.5-10.1-29.4-15.4-45-20.2c-14.1-4.3-29.2-5.6-44.3-4.4c-16.4,1.4-32.2,5.4-47.1,12.3
	c-25.7,11.8-45.8,30.3-60.3,54.7c-7.9,13.2-13.1,27.6-15.1,42.6c-2.5,18.4-3.3,36.9-2.8,55.6c0.9,32.8,0.3,65.7,0.3,98.6
	c0,2.1,0.3,4.3-0.4,6.3c-1.8,5.3,0.7,6.1,5.1,5.3c52.7,0.1,105.5,0.3,158.2,0.2c35.7-0.1,71.4-0.7,107.1-0.9c3.9,0,5.6-1.1,5.3-5.1
	c-0.3-3,0-6.1,0-9.2c0.4-41.8,0.7-83.7,1.3-125.5c0.4-25.9-7.1-49.2-22.4-70c-3.4-4.7-3.9-7.3,0.6-12.1
	c13.1-13.9,26.9-27.1,40.2-40.8c5.8-6,9.3-5.4,12,2c0.3,0.8,1.1,1.5,1.6,2.3c0.8,1.9,1.7,3.8,2.5,5.7c9.3,22.4,16.7,45.1,17.9,69.8
	c0.6,12.8,1.7,25.8,2.3,38.7c1,21.5,1.5,43,2.4,64.5c0.8,20.9,1.3,41.9,2.4,62.8c0.8,16.6,0.9,33.2,1.3,49.7c0,1.3,0.6,2.6,0.6,3.9
	c0.2,10,4.3,19.6,2.7,29.7c-13.7,0.3-27.5,0.4-41.2,1c-25.2,1.1-50.4,0-75.6,1.1c-27.7,1.2-55.4,0.1-83.1,1.3
	c-23.5,1-47-0.2-70.5,1.1c-26.5,1.5-53-0.3-79.5,1.9c-27.7,2.3-55.7,1.2-83.6,1.6c-3.4,0-6.9,0.1-10.3,0.2c-0.8,0.4-1.6,0.7-2.5,1.1
	c-3.3-1.7-6.8-0.2-10.1-0.2c-16,0-32.1,0.2-48.1,0.4c-2.8,0.2-5.7,0.6-8.5,0.6C722.4,1080.1,697.3,1080.3,672.1,1081.5z"/>
<path id="XMLID_811_" fill="#CD9504" d="M670.8,788.8c1.9-3.7,5-5.1,9-4.4c4,0.7,5.1,3.9,6.2,7.4c1.4,4.5,0.6,9.1,0.7,13.6
	c0.5,29.9,0.7,59.8,1.8,89.7c0.3,7-0.4,14.5,2.9,21.3c-0.7,5.5-1.4,10.9-1.9,16.4c-0.5,4.4-2.9,7.4-6.7,9.2
	c-5.4,2.6-10-0.3-10.5-6.4c2,1.5,3,4.6,6.6,2.7c3-1.5,2.5-3.9,2.3-6.3c-2.8-24.6-4.3-49.3-4.3-74.1c0-19-0.9-38.1,0.8-57.1
	C678,795.8,676.4,790.8,670.8,788.8z"/>
<path id="XMLID_810_" fill="#FDF6DF" d="M670.8,788.8c5.6,2.1,7.2,7.1,6.8,11.9c-1.7,19-0.8,38.1-0.8,57.1c0,24.8,1.4,49.5,4.3,74.1
	c0.3,2.4,0.8,4.8-2.3,6.3c-3.6,1.8-4.7-1.3-6.6-2.7c-1.2-5.6-2.4-11.2-3.5-16.8c-0.3-24.9-2.6-49.8-2.6-74.8c0-18-0.7-36,3.8-53.6
	C670.1,789.7,670.5,789.2,670.8,788.8z"/>
<path id="XMLID_809_" fill="#545454" d="M924.6,1004.5c-4.3,0.8-6.9,0.1-5.1-5.3c0.6-1.9,0.4-4.2,0.4-6.3c0-32.9,0.6-65.7-0.3-98.6
	c-0.5-18.7,0.3-37.2,2.8-55.6c2-15,7.3-29.4,15.1-42.6c14.5-24.4,34.5-42.8,60.3-54.7c14.9-6.8,30.6-10.9,47.1-12.3
	c15.1-1.3,30.3,0.1,44.3,4.4c15.6,4.8,31.6,10.1,45,20.2c1.6,1.2,3.6,2.1,5.4,3.1c-7.9,7.4-14.7,15.9-23.5,22.4
	c-5.4-2.7-10.8-5.6-16.3-8.2c-22.3-10.8-45.6-12.3-69.4-7.3c-24,5-44,17.1-59.9,36c-14.1,16.7-23.1,36-25.1,57.5
	c-1.7,18.5-0.3,37,7.3,54.8c13.3,31.2,35.9,51.6,67.6,62.8c12.8,4.5,26,4.8,39.4,4.8c18.5,0,35.2-6,50.7-15
	c19.3-11.3,33.6-27.5,43.1-48.1c10.4-22.5,11.9-45.6,7.5-69.6c-2.3-12.9-8.8-24.2-14.1-35.9c3.2-3.7,6.4-7.5,9.7-11.2
	c2.1-2.4,3.8-3.1,6.1,0.4c10.5,15.9,19,32.1,20.4,51.9c1.3,18.9,3.3,37.9,4,56.9c0.7,19.7-0.5,39.5-0.8,59.3
	c-0.1,8.6-0.1,17.2,0,25.8c0.1,3.1-0.5,4.8-4.2,5.2c-3.2,0.4-6.4,0.8-9.6,0.8c-80.5,0-161,0-241.5,0
	C927.9,1000.1,923.9,998.9,924.6,1004.5z"/>
<path id="XMLID_808_" fill="#545454" d="M1260.7,1070.1c1.6-10.1-2.5-19.7-2.7-29.7c0-1.3-0.6-2.6-0.6-3.9
	c-0.4-16.6-0.5-33.2-1.3-49.7c-1.1-20.9-1.5-41.9-2.4-62.8c-0.9-21.5-1.4-43-2.4-64.5c-0.6-12.9-1.7-25.8-2.3-38.7
	c-1.2-24.7-8.6-47.4-17.9-69.8c-0.8-1.9-1.7-3.8-2.5-5.7c5.1-1.9,8.8-5.5,12.5-9.4c8.2-8.7,16.9-17.1,25.3-25.6
	c3.2-3.2,4.8-1.3,6.4,1.6c5.7,10.4,9.2,21.7,13.2,32.8c5.4,14.8,6.4,29.9,7,45.3c0.9,19.7,2.2,39.5,3.4,59.2
	c1.1,19.3,2.2,38.7,3.4,58c1.2,18.2,2.3,36.4,3.4,54.6c1.2,18.6,2.5,37.1,3.4,55.8c0.7,15.4,2.2,30.7,3.4,46
	c0.4,4.7-1.5,6.3-6.2,6.4c-3.5,0.1-7.9-2.5-10.8,1.8c-0.4,0-0.9,0.1-1.3,0.1c-0.6,0-1.2,0.1-1.7,0.1
	C1280.4,1070.5,1270.5,1071.3,1260.7,1070.1z"/>
<path id="XMLID_805_" fill="#A101C3" d="M1147,810.9c5.4,11.7,11.8,22.9,14.1,35.9c4.3,24,2.9,47.1-7.5,69.6
	c-9.5,20.6-23.8,36.8-43.1,48.1c-15.5,9.1-32.2,15.1-50.7,15c-13.4,0-26.6-0.3-39.4-4.8c-31.6-11.1-54.3-31.6-67.6-62.8
	c-7.6-17.8-9-36.3-7.3-54.8c2-21.6,10.9-40.8,25.1-57.5c15.9-18.9,35.9-31,59.9-36c23.8-5,47.2-3.4,69.4,7.3
	c5.5,2.6,10.8,5.5,16.3,8.2c2.6,2.1,5.3,4.3,7.9,6.4c2.9,2.8,5.9,5.5,8.8,8.3c0.5,0.9,1.1,1.7,1.6,2.6c0.3,4,3.5,5.2,6.4,6.8
	C1142.5,806.2,1144.5,808.8,1147,810.9z M976.8,859.9c-1.1,3-4.9-4.5-5.3,1.4c-5.7-2-11.2-4.4-16-8.2c-0.8-0.7-1.3-2.2-2.7-1.4
	c-1.2,0.6-0.8,2-0.8,3.1c0.5,10.6-0.2,21.3,0.9,32c1.4,14.4,8.2,26.3,15.2,38.1c5.2,8.7,11.9,16.3,20,22.6
	c11.4,8.9,23.9,15.3,37.7,19.3c11.1,3.2,22.6,2.1,34,2.5c18.7,0.7,34.9-6.2,50.3-15.5c9-5.4,16.8-12.6,23.3-21
	c8.8-11.3,16-23.7,19.2-37.7c3.5-15.3,2.8-30.9,1.5-46.5c-1.2-14.6-8.3-26.6-15.4-38.7c-5.1-8.7-12.1-15.7-19.8-22.1
	c-11.1-9.2-23.8-15.8-37.6-19.3c-16.9-4.4-34.4-3-51.6-1.3c-3.9,0.4-4.8,2.1-2.6,5.7c3.1,5.2,6.9,10.1,8.6,16
	c-4.4,1.5-8.9,2.6-13.3,4.5c-11.3,4.9-21.5,11.3-29.7,20.6c-1.8,2.1-3.4,4.1-1.9,7c-15.1-2.7-30.3,13.7-21.5,30.2
	C971.3,854.7,974.4,857,976.8,859.9z"/>
<path id="XMLID_804_" fill="#724A03" d="M1141,803.2c-2.9-1.5-6.1-2.8-6.4-6.8c2.1,0.9,3.1-0.8,4.3-1.9c30.5-28.6,61-57.3,91.5-85.8
	c25.5-23.9,51.1-47.6,76.7-71.4c3.2-3,6.4-5.9,8.5-9.7c3,3.4,1.6,5.8-1.3,8.5c-9.7,9.1-19.2,18.4-28.8,27.6c-2.1,2-3.4,4-3.1,7
	c-6,2.9-10.8,7.7-15.6,12.1c-11.7,10.6-23.4,21.1-35.2,31.6c-2,1.8-3.6,3.9-5.4,5.9c-3,3.5-5.3,6.8-10.4,8.7c-5.5,2-9.8,7.6-14.2,12
	c-10.2,10-20.2,20.2-30.4,30.3c-3.5,3.5-7.3,6.7-11,9.9c-3.1,2.7-5,5.7-5.7,10C1153.2,799.4,1149,802.7,1141,803.2z"/>
<path id="XMLID_803_" fill="#CD9504" d="M1182.9,1082.8c-0.3,10.7-0.9,21.3,1.9,31.8c0.9,3.3-0.1,4.8-3.9,4.9
	c-21.1,0.6-42.3,1.2-63.3,2.4c-20.9,1.2-41.9,1.4-62.8,2.3c-26.4,1.2-52.8,2.8-79.3,3.4c-4.7,0.1-9.4,1.4-14.2,0.9
	c0.2-14.1-0.3-28.2,1.2-42.3c10.9-0.4,21.7-0.9,32.6-1.1c47.5-0.8,95.1-0.8,142.6-1.5C1152.7,1083.4,1167.8,1082.2,1182.9,1082.8z"
	/>
<path id="XMLID_802_" fill="#FDF6DF" d="M1182.9,1082.8c-15.1-0.6-30.1,0.5-45.2,0.8c-47.5,0.7-95.1,0.7-142.6,1.5
	c-10.8,0.2-21.7,0.7-32.6,1.1c-18.5,0.1-37-0.9-55.5,0.7c-8.3,0.7-16.8,0.3-25.2,0.2c-41.8-0.3-83.7,1-125.5,1.6
	c-26.5,0.4-53.1,0.2-79.6,0.8c-1.1,0-2.3,0-3.4,0.1c-8.1,0.8-10.4,3-10.2,11c0.2,10,0.9,20,1.4,30c-0.4,0-0.8,0.1-1.1,0.1
	c-8.4,0.2-8.5,0.2-8.3-8c0.1-4.5-0.4-8.6-3.6-12.1c-2.4-2.7-2.5-5.7-1.1-9c2.1-4.9,4.2-9.7,5.9-14.8c1.2-3.5,3.2-4.5,6.7-4.4
	c3.1,0.1,6.4,1.3,9.3-1.1c25.1-1.2,50.3-1.4,75.4-1.3c2.8,0,5.7-0.4,8.5-0.6c1.1,0.3,2.2,0.7,3.2,0.7c17.1,0,34.2,0,51.3,0
	c1.3,0,2.7,0.2,3.7-1c0.8-0.4,1.6-0.7,2.5-1.1c0.9,1,2,1,3.2,1c23.7-0.7,47.3,0.6,71-0.9c24.2-1.6,48.5,0.4,72.7-1.2
	c23.2-1.5,46.5,0.3,69.8-1.1c24.7-1.5,49.6,0.4,74.4-1.2c23.2-1.5,46.5,0.2,69.9-1.1c26.1-1.4,52.3,0.3,78.4-1.3
	c11.2-0.7,22.6-0.2,33.8-0.2c0.6,0,1.2,0,1.7-0.1c0.1,9.2,0.1,9.4-9.5,9.2C1249.2,1080.9,1216,1082.9,1182.9,1082.8z"/>
<path id="XMLID_801_" fill="#FDF6DF" d="M1126.5,783.4c-2.9-6,1.9-8.7,5.3-11.6c14.4-12.7,28.9-25.2,43.4-37.8
	c4.9-4.2,9.9-8.3,14.8-12.5c1.3-1.1,2.6-1.4,4.2-1.3c-9.2,10.6-20,19.5-30.5,28.8c-5.7,5-10.6,10.7-16.6,15.6
	c-7,5.7-13.2,12.4-19.8,18.7C1127.1,783.3,1126.8,783.3,1126.5,783.4z"/>
<path id="XMLID_800_" fill="#979797" d="M1126.5,783.4c0.3,0,0.6-0.1,0.9-0.1c3.9,2.5,4.5,6.7,5.6,10.6c-3-2.8-5.9-5.5-8.8-8.3
	C1124.9,784.8,1125.7,784.1,1126.5,783.4z"/>
<path id="XMLID_799_" fill="#979797" d="M1316.9,625.5c0.1,0.9-0.2,1.4-1.1,1.6C1316.2,626.6,1316.5,626,1316.9,625.5z"/>
<path id="XMLID_798_" fill="#CD9504" d="M1342.5,1114.5c-0.8-13.1-2.2-26.1-1.6-39.3c0.1-1.3-0.5-2.6-0.8-3.8
	c6,0.5,12.1-2.4,18.2,0.3c2.3,4.2,1.3,9,1.7,13.4c0.7,9.9,2.5,19.7,1.8,29.7c-6.1,0.1-12.2,0.1-18.4,0.2
	C1343.1,1114.7,1342.8,1114.6,1342.5,1114.5z"/>
<path id="XMLID_797_" fill="#FCFCFC" d="M1290.1,1072.3c-11.3,0-22.6-0.5-33.8,0.2c-26.1,1.6-52.4-0.1-78.4,1.3
	c-23.3,1.2-46.6-0.4-69.9,1.1c-24.8,1.6-49.7-0.3-74.4,1.2c-23.3,1.4-46.6-0.4-69.8,1.1c-24.3,1.6-48.5-0.4-72.7,1.2
	c-23.7,1.5-47.3,0.3-71,0.9c-1.2,0-2.3,0-3.2-1c3.4-0.1,6.9-0.2,10.3-0.2c27.9-0.4,55.9,0.7,83.6-1.6c26.6-2.2,53.1-0.4,79.5-1.9
	c23.5-1.4,47-0.1,70.5-1.1c27.7-1.2,55.4-0.1,83.1-1.3c25.2-1.1,50.5,0,75.6-1.1c13.7-0.6,27.5-0.7,41.2-1
	C1270.5,1071.3,1280.4,1070.5,1290.1,1072.3z"/>
<path id="XMLID_796_" fill="#FCFCFC" d="M814.3,1079.4c-1,1.1-2.4,1-3.7,1c-17.1,0-34.2,0-51.3,0c-1.1,0-2.2-0.5-3.2-0.7
	c16-0.2,32.1-0.4,48.1-0.4C807.5,1079.2,811,1077.7,814.3,1079.4z"/>
<path id="XMLID_795_" fill="#D900DF" d="M1035.9,788.9c-1.6-6-5.5-10.8-8.6-16c-2.2-3.6-1.3-5.3,2.6-5.7c17.3-1.7,34.7-3.1,51.6,1.3
	c13.8,3.5,26.5,10.1,37.6,19.3c7.7,6.4,14.7,13.4,19.8,22.1c7.1,12.1,14.1,24,15.4,38.7c1.3,15.6,2.1,31.2-1.5,46.5
	c-3.2,14-10.4,26.4-19.2,37.7c-6.5,8.4-14.3,15.5-23.3,21c-15.4,9.2-31.7,16.2-50.3,15.5c-11.4-0.4-23,0.7-34-2.5
	c-13.7-4-26.3-10.4-37.7-19.3c-8.1-6.3-14.8-13.9-20-22.6c-7.1-11.8-13.8-23.7-15.2-38.1c-1.1-10.7-0.4-21.3-0.9-32
	c0-1.1-0.4-2.5,0.8-3.1c1.4-0.7,1.8,0.8,2.7,1.4c4.8,3.8,10.3,6.2,16,8.2c0.1,0.6,0.2,1.3,0.4,1.9c-1.3,12.5,0.3,24.7,4.6,36.5
	c5.1,13.9,13.7,25.2,25.1,34.7c20,16.7,42.9,21.3,67.9,17.4c22.1-3.4,39.3-15.3,52.3-32.8c10.7-14.4,15.3-31.1,15.2-49.3
	c-0.2-28.5-12.4-51-34.8-67.2c-19-13.8-41-17.5-64.2-13.2C1037.2,789.1,1036.5,789,1035.9,788.9z"/>
<path id="XMLID_794_" fill="#7C0096" d="M1035.9,788.9c0.7,0.1,1.4,0.2,2,0.2c1.4,2.6-0.4,7.5,5.2,7.2c4.9-0.3,9.9-0.6,14.9-0.4
	c23,0.9,41.3,11.1,55,29.3c10.3,13.7,14.4,29.4,13.7,46.7c-1,22.9-11.1,41-28.9,54.6c-29,22.1-74,18.4-98.6-11.1
	c-9.9-11.8-15.8-25.5-16.9-41c-0.6-7.8-2-9.8-10.2-11.3c-0.1-0.6-0.2-1.3-0.4-1.9c0.4-5.8,4.2,1.6,5.3-1.4c6.3,3.4,12.6,3.3,19,0.3
	c0,6.7-0.8,13.5,0.3,20c5.1,31.8,32.5,55.1,69.3,49.3c22.7-3.5,38.8-17.3,45.8-39.3c7.2-22.9,3.3-44.4-14.4-61.8
	c-16.3-16-36-20.4-58-14.4c-0.9-4.9-4.4-7.5-8.9-8c-4.4-0.5-6.7,3.2-8.5,6.4c-2.1,3.7,0.4,6.4,3,8.8c-2.5-0.4-4.4,1.1-6.1,2.5
	c-5.2,4.2-9.8,8.8-13.1,14.7c-1.1-6.3-4.8-11-9.3-15.1c-0.2-0.9-0.8-1.3-1.7-1.2c-0.5-0.1-0.9-0.2-1.4-0.3c-0.5-0.3-1-0.6-1.5-0.9
	l-0.1,0c-1.5-2.9,0.1-5,1.9-7c8.2-9.4,18.4-15.7,29.7-20.6C1026.9,791.6,1031.5,790.5,1035.9,788.9z"/>
<path id="XMLID_793_" fill="#FCFCFC" d="M995.8,860.2c-6.4,3-12.7,3.1-19-0.3c-2.4-2.9-5.5-5.2-7.3-8.6c-8.8-16.6,6.4-33,21.5-30.2
	c0,0,0.1,0,0.1,0c0.1,0.9,0.7,1,1.5,0.9c0.5,0.1,0.9,0.2,1.4,0.3c0.6,0.4,1.1,0.8,1.7,1.2c4.5,4.1,8.2,8.8,9.3,15.1
	c0.9,8.1-1.7,14.8-7.6,20.3c-0.9,0-1.5,0.3-1.6,1.3L995.8,860.2z"/>
<path id="XMLID_792_" fill="#B900C2" d="M971.9,863.2c8.2,1.4,9.6,3.5,10.2,11.3c1.1,15.4,7,29.1,16.9,41
	c24.6,29.5,69.7,33.2,98.6,11.1c17.9-13.6,27.9-31.7,28.9-54.6c0.8-17.3-3.4-33-13.7-46.7c-13.6-18.2-32-28.4-55-29.3
	c-4.9-0.2-9.9,0.1-14.9,0.4c-5.6,0.3-3.8-4.6-5.2-7.2c23.2-4.3,45.2-0.6,64.2,13.2c22.5,16.3,34.6,38.7,34.8,67.2
	c0.1,18.2-4.5,34.9-15.2,49.3c-13,17.6-30.2,29.4-52.3,32.8c-25,3.9-47.9-0.7-67.9-17.4c-11.4-9.5-20-20.8-25.1-34.7
	C972.2,887.9,970.6,875.7,971.9,863.2z"/>
<path id="XMLID_789_" fill="#25002C" d="M997.4,858.8c5.9-5.5,8.6-12.2,7.6-20.3c3.2-5.9,7.9-10.6,13.1-14.7
	c1.7-1.4,3.5-2.9,6.1-2.5c5.6,3.8,8.1,3.4,11.9-2.3c1-1.5,1.7-3.2,2.6-4.9c22-6,41.7-1.6,58,14.4c17.7,17.3,21.6,38.9,14.4,61.8
	c-6.9,22-23.1,35.8-45.8,39.3c-36.8,5.7-64.2-17.6-69.3-49.3c-1-6.5-0.2-13.3-0.3-20c0,0,0-0.1,0-0.1
	C996.8,860.3,997,859.4,997.4,858.8z M1085.2,871.5c0-17.1-13.8-30.9-30.9-30.9c-17.1,0-30.9,13.8-31,30.9c0,16.9,13.7,30.9,30.3,31
	C1071.2,902.5,1085.2,888.9,1085.2,871.5z"/>
<path id="XMLID_788_" fill="#FCFCFC" d="M1038.6,814.1c-0.9,1.6-1.6,3.3-2.6,4.9c-3.8,5.7-6.2,6.1-11.9,2.3c-2.6-2.4-5.1-5-3-8.8
	c1.8-3.3,4.2-6.9,8.5-6.4C1034.2,806.6,1037.7,809.1,1038.6,814.1z"/>
<path id="XMLID_787_" fill="#A101C3" d="M995.7,823.4c-0.6-0.4-1.1-0.8-1.7-1.2C994.8,822.2,995.4,822.5,995.7,823.4z"/>
<path id="XMLID_786_" fill="#A101C3" d="M992.6,822c-0.7,0.1-1.4,0-1.5-0.9C991.6,821.4,992.1,821.7,992.6,822z"/>
<path id="XMLID_785_" fill="#7C0096" d="M997.4,858.8c-0.4,0.6-0.5,1.5-1.6,1.3C995.9,859.1,996.5,858.8,997.4,858.8z"/>
<path id="XMLID_784_" fill="#D900DF" d="M1085.2,871.5c0,17.3-13.9,31-31.5,30.9c-16.6,0-30.3-14.1-30.3-31
	c0-17.1,13.8-30.9,31-30.9C1071.3,840.6,1085.2,854.4,1085.2,871.5z"/>
</svg>
