<svg width="467" height="468" xmlns="http://www.w3.org/2000/svg" xmlns:xlink="http://www.w3.org/1999/xlink" overflow="hidden"><defs><clipPath id="clip0"><rect x="2012" y="1058" width="467" height="468"/></clipPath><clipPath id="clip1"><rect x="2018" y="1063" width="451" height="451"/></clipPath><clipPath id="clip2"><rect x="2018" y="1063" width="451" height="451"/></clipPath><clipPath id="clip3"><rect x="2018" y="1063" width="451" height="451"/></clipPath></defs><g clip-path="url(#clip0)" transform="translate(-2012 -1058)"><path d="M2013 1292C2013 1163.87 2116.87 1060 2245 1060 2373.13 1060 2477 1163.87 2477 1292 2477 1420.13 2373.13 1524 2245 1524 2116.87 1524 2013 1420.13 2013 1292Z" fill="#FFFFFF" fill-rule="evenodd" fill-opacity="1"/><g clip-path="url(#clip1)"><g clip-path="url(#clip2)"><g clip-path="url(#clip3)"><path d="M1187.3 114.883 1134.31 72.0424 1027.62 72.0424 1021.3 72.0424 868.115 72.0424 861.703 72.0424 708.748 72.0424 702.11 72.0424 594.83 72.0424 549.178 117.11 549.178 72.0424 433.46 72.0424 389.36 139.97 389.36 114.883 336.373 72.0424 223.378 72.0424 223.378 306.605 303.86 306.605 303.86 333.515 389.36 333.515 389.36 306.605 542.54 306.605 549.178 306.605 702.133 306.605 708.77 306.605 861.725 306.605 868.138 306.605 1021.32 306.605 1027.64 306.605 1101.82 306.605 1101.82 333.515 1187.32 333.515 1187.32 217.46 1173.87 204.027 1187.32 203.915 1187.32 114.883ZM382.97 211.047 375.928 204.005 382.97 203.937 382.97 211.047Z" fill="#FFFFFF" fill-rule="nonzero" fill-opacity="1"/><path d="M549.2 393.792 549.2 347.915 433.46 347.915 386.278 420.59 339.095 347.915 223.378 347.915 223.378 582.455 337.295 582.455 382.97 537.387 382.97 582.455 542.54 582.455 549.2 582.455 656.48 582.455 708.77 530.84 708.77 347.915 594.763 347.915Z" fill="#FFFFFF" fill-rule="nonzero" fill-opacity="1"/><path d="M1793.43 127.572 1793.43 196.782 1761.12 197.075 1793.43 229.317 1793.43 326.27 1734.93 326.27 1734.93 236.742 1712.92 214.467 1712.92 299.337 1654.42 299.337 1654.42 91.7975 1749.15 91.7975 1793.43 127.572ZM1734.93 175.52 1734.93 142.108 1712.92 142.108 1712.92 175.52 1734.93 175.52Z" fill="#FFFFFF" fill-rule="nonzero" fill-opacity="1"/><path d="M1953.25 299.337 1894.75 299.337 1894.75 211.587 1872.52 211.587 1872.52 299.337 1814.02 299.337 1814.02 160.085 1858.36 91.7975 1953.25 91.7975 1953.25 299.337ZM1894.75 175.565 1894.75 132.95 1872.52 175.542 1894.75 175.542Z" fill="#FFFFFF" fill-rule="nonzero" fill-opacity="1"/><path d="M2112.82 299.337 2054.09 299.337 2054.09 142.085 2032.11 142.085 2032.11 299.337 1973.61 299.337 1973.61 135.537 2017.96 91.775 2112.84 91.775 2112.84 299.337Z" fill="#FFFFFF" fill-rule="nonzero" fill-opacity="1"/><path d="M2272.18 299.337 2213.68 299.337 2213.68 215.997 2191.68 215.997 2191.68 299.337 2133.18 299.337 2133.18 91.7975 2191.68 91.7975 2191.68 176.217 2213.68 154.415 2213.68 91.82 2272.18 91.82 2272.18 161.93 2239.87 194.465 2272.18 194.465 2272.18 299.337Z" fill="#FFFFFF" fill-rule="nonzero" fill-opacity="1"/><path d="M2431.66 299.337 2292.77 299.337 2292.77 91.7975 2431.66 91.7975 2431.66 142.108 2351.27 142.108 2351.27 175.565 2382.39 175.565 2382.39 211.61 2351.27 211.61 2351.27 249.05 2431.66 249.05 2431.66 299.337Z" fill="#FFFFFF" fill-rule="nonzero" fill-opacity="1"/><path d="M2591.34 127.572 2591.34 196.782 2559.04 197.075 2591.34 229.317 2591.34 326.27 2532.84 326.27 2532.84 236.742 2510.84 214.467 2510.84 299.337 2452.34 299.337 2452.34 91.7975 2547.06 91.7975 2591.34 127.572ZM2532.84 175.52 2532.84 142.108 2510.84 142.108 2510.84 175.52 2532.84 175.52Z" fill="#FFFFFF" fill-rule="nonzero" fill-opacity="1"/><path d="M1793.65 531.447 1749.31 575.21 1654.42 575.21 1654.42 367.67 1749.31 367.67 1793.65 435.957 1793.65 531.447ZM1735.15 524.9 1735.15 417.957 1713.15 417.957 1713.15 524.9 1735.15 524.9Z" fill="#FFFFFF" fill-rule="nonzero" fill-opacity="1"/><path d="M1953.25 575.21 1894.75 575.21 1894.75 487.46 1872.52 487.46 1872.52 575.21 1814.02 575.21 1814.02 435.957 1858.36 367.67 1953.25 367.67 1953.25 575.21ZM1894.75 451.415 1894.75 408.822 1872.52 451.415 1894.75 451.415Z" fill="#FFFFFF" fill-rule="nonzero" fill-opacity="1"/><path d="M2112.82 531.447 2068.47 575.21 1973.59 575.21 1973.59 412.31 2017.93 367.67 2112.82 367.67 2112.82 531.447ZM2054.34 524.9 2054.34 417.957 2032.33 417.957 2032.33 524.9 2054.34 524.9Z" fill="#FFFFFF" fill-rule="nonzero" fill-opacity="1"/><path d="M2058.03 1182.44 2242.44 1075.97 2426.83 1182.44 2426.83 1395.36 2242.44 1501.83 2058.03 1395.36Z" fill="#FEFEFE" fill-rule="nonzero" fill-opacity="1"/><path d="M2239.92 1500.99C2240.82 1500.16 2241.31 1499.01 2242.8 1498.61 2244.46 1498.16 2245.95 1496.97 2247.48 1496.07 2252.16 1493.37 2256.82 1490.67 2261.47 1487.97 2266.06 1485.29 2270.65 1482.61 2275.24 1479.96 2279.83 1477.3 2284.45 1474.67 2289.04 1471.99 2293.67 1469.31 2298.26 1466.59 2302.9 1463.91 2307.49 1461.26 2312.1 1458.63 2316.69 1455.97 2321.61 1453.11 2326.54 1450.26 2331.47 1447.4 2336.29 1444.61 2341.1 1441.8 2345.89 1439.01 2353.75 1434.44 2361.6 1429.85 2369.47 1425.3 2380.97 1418.64 2392.51 1412.03 2404.01 1405.39 2410.47 1401.66 2416.93 1397.9 2423.36 1394.14 2424.6 1393.42 2424.19 1392.16 2424.22 1391.19 2424.33 1386.56 2424.26 1381.9 2424.26 1377.27 2424.28 1368.4 2424.19 1359.54 2424.35 1350.67 2424.67 1332.87 2424.33 1315.05 2424.6 1297.26 2424.87 1279.19 2424.6 1261.12 2424.84 1243.08 2425.11 1223.73 2424.94 1204.38 2425.09 1185.03 2425.11 1183.56 2425.25 1182.1 2425.34 1180.66 2427.46 1181.34 2427.93 1182.73 2427.93 1184.91 2427.86 1254.84 2427.86 1324.75 2427.88 1394.68 2427.88 1395.54 2427.77 1396.12 2426.92 1396.62 2388.98 1418.46 2351.09 1440.36 2313.18 1462.23 2290.14 1475.52 2267.08 1488.82 2244.08 1502.21 2242.6 1503.06 2241.81 1502.32 2240.8 1501.74 2240.5 1501.51 2240.21 1501.24 2239.92 1500.99Z" fill="#383838" fill-rule="nonzero" fill-opacity="1"/><path d="M2420.26 1177.69C2411.26 1172.49 2402.26 1167.3 2393.26 1162.1 2383.4 1156.41 2373.52 1150.74 2363.67 1145.04 2353.99 1139.46 2344.34 1133.86 2334.67 1128.28 2324.97 1122.68 2315.25 1117.08 2305.53 1111.47 2296.3 1106.14 2287.08 1100.81 2277.85 1095.48 2268.67 1090.17 2259.49 1084.83 2250.29 1079.57 2248 1078.26 2245.61 1076.53 2243.11 1075.59 2243.02 1075.47 2242.35 1076.01 2241.97 1076.22 2242.91 1077.61 2243.72 1078.49 2244.1 1080.13 2243.05 1081.1 2241.72 1081.62 2240.5 1082.31 2235.28 1085.31 2230.04 1088.32 2224.82 1091.29 2220.25 1093.9 2215.66 1096.47 2211.1 1099.08 2205.38 1102.34 2199.69 1105.65 2193.97 1108.91 2188.26 1112.17 2182.52 1115.39 2176.81 1118.65 2170.46 1122.27 2164.14 1125.94 2157.79 1129.56 2152.53 1132.58 2147.22 1135.53 2141.95 1138.52 2135.05 1142.46 2128.18 1146.44 2121.28 1150.38 2114.93 1154 2108.56 1157.6 2102.22 1161.22 2095.13 1165.27 2088.04 1169.32 2080.98 1173.39 2075.04 1176.79 2069.14 1180.23 2063.16 1183.56 2062.1 1184.15 2061.79 1184.78 2061.79 1185.95 2061.81 1252.8 2061.81 1319.67 2061.81 1386.51 2061.81 1388.65 2061.74 1390.79 2062.28 1392.9 2062.53 1393.89 2061.31 1395.51 2060.41 1395.6 2059.99 1395.65 2059.42 1395.36 2059.27 1396.08 2059.11 1396.77 2059.65 1396.93 2060.08 1397.2 2067.19 1401.3 2074.27 1405.41 2081.38 1409.53 2093.29 1416.42 2105.19 1423.3 2117.09 1430.19 2131.9 1438.74 2146.72 1447.26 2161.53 1455.81 2175.3 1463.76 2189.05 1471.72 2202.82 1479.66 2212.09 1485.02 2221.33 1490.37 2230.6 1495.73 2233.69 1497.51 2236.81 1499.22 2239.9 1500.97 2240.8 1500.14 2241.29 1498.99 2242.78 1498.59 2244.44 1498.14 2245.93 1496.94 2247.46 1496.04 2252.14 1493.34 2256.79 1490.64 2261.45 1487.94 2266.04 1485.27 2270.63 1482.59 2275.22 1479.93 2279.81 1477.28 2284.42 1474.65 2289.01 1471.97 2293.65 1469.29 2298.24 1466.57 2302.87 1463.89 2307.46 1461.24 2312.08 1458.6 2316.67 1455.95 2321.59 1453.09 2326.52 1450.23 2331.45 1447.38 2336.26 1444.59 2341.08 1441.77 2345.87 1438.98 2353.72 1434.42 2361.58 1429.83 2369.45 1425.28 2380.95 1418.62 2392.49 1412.01 2403.99 1405.37 2410.45 1401.63 2416.9 1397.88 2423.34 1394.12 2424.58 1393.4 2424.17 1392.14 2424.19 1391.17 2424.31 1386.54 2424.24 1381.88 2424.24 1377.24 2424.26 1368.38 2424.17 1359.51 2424.33 1350.65 2424.64 1332.85 2424.31 1315.03 2424.58 1297.23 2424.84 1279.17 2424.58 1261.1 2424.82 1243.05 2425.09 1223.7 2424.91 1204.35 2425.07 1185 2425.09 1183.54 2425.23 1182.08 2425.32 1180.64 2423.68 1179.65 2421.97 1178.68 2420.26 1177.69ZM2403.16 1380.55C2403.16 1381.5 2402.86 1381.97 2402.03 1382.44 2394.7 1386.63 2387.38 1390.88 2380.07 1395.09 2373.01 1399.16 2365.94 1403.23 2358.9 1407.3 2351.54 1411.56 2344.18 1415.81 2336.83 1420.06 2329.65 1424.2 2322.47 1428.34 2315.32 1432.48 2308.07 1436.67 2300.85 1440.9 2293.62 1445.08 2287.33 1448.73 2280.98 1452.35 2274.68 1456.02 2268.38 1459.66 2262.06 1463.33 2255.76 1466.97 2251.82 1469.25 2247.91 1471.54 2243.97 1473.81 2242.82 1474.47 2241.52 1473.97 2240.68 1472.58 2239.38 1472.33 2238.39 1471.47 2237.29 1470.84 2226.64 1464.72 2216.02 1458.6 2205.4 1452.46 2193.52 1445.6 2181.64 1438.69 2169.76 1431.83 2159.19 1425.71 2148.59 1419.61 2137.99 1413.49 2127.6 1407.48 2117.2 1401.45 2106.79 1395.45 2100.01 1391.53 2093.26 1387.64 2086.49 1383.75 2086.09 1383.52 2085.57 1383.41 2085.59 1382.78 2083.34 1382.69 2082.76 1382.08 2082.76 1379.88 2082.76 1319.37 2082.76 1258.89 2082.73 1198.39 2082.73 1196.91 2083.09 1196.1 2084.47 1195.33 2094.41 1189.71 2104.29 1183.97 2114.17 1178.28 2129.2 1169.61 2144.2 1160.93 2159.23 1152.24 2184.19 1137.82 2209.11 1123.42 2234.07 1109 2236.59 1107.54 2239.11 1106.07 2241.65 1104.61 2243.14 1103.76 2243.68 1103.85 2244.89 1105.24 2247.48 1106.32 2249.75 1107.94 2252.18 1109.31 2258.19 1112.73 2264.15 1116.22 2270.14 1119.66 2275.78 1122.93 2281.43 1126.19 2287.08 1129.45 2293.06 1132.92 2299.05 1136.36 2305.03 1139.8 2310.86 1143.18 2316.71 1146.53 2322.54 1149.9 2328.36 1153.28 2334.22 1156.63 2340.04 1160.01 2346.25 1163.58 2352.44 1167.21 2358.65 1170.78 2364.03 1173.89 2369.43 1176.99 2374.83 1180.1 2381.06 1183.7 2387.29 1187.32 2393.55 1190.94 2396.05 1192.38 2398.52 1193.82 2401.02 1195.26 2401.35 1195.44 2401.76 1195.53 2401.94 1195.94 2403.07 1196.1 2403.25 1196.79 2403.25 1197.83 2403.13 1258.69 2403.13 1319.62 2403.16 1380.55Z" fill="#BABABA" fill-rule="nonzero" fill-opacity="1"/><path d="M2243.34 1075.77C2243.25 1075.65 2243.16 1075.54 2243.07 1075.43 2243.14 1075.54 2243.25 1075.65 2243.34 1075.77Z" fill="#BABABA" fill-rule="nonzero" fill-opacity="1"/><path d="M2240.66 1472.55C2239.35 1472.31 2238.36 1471.45 2237.26 1470.82 2226.62 1464.7 2216 1458.58 2205.38 1452.44 2193.5 1445.58 2181.62 1438.67 2169.74 1431.81 2159.17 1425.69 2148.57 1419.59 2137.97 1413.47 2127.58 1407.46 2117.18 1401.43 2106.76 1395.42 2099.99 1391.51 2093.24 1387.62 2086.47 1383.72 2086.06 1383.5 2085.55 1383.39 2085.57 1382.76 2085.88 1380.84 2085.64 1378.93 2085.61 1377 2085.39 1362.98 2085.73 1348.96 2085.37 1334.94 2085.01 1321.06 2085.25 1307.18 2085.14 1293.3 2084.89 1262.27 2085.07 1231.24 2085.03 1200.24 2085.03 1198.84 2085.52 1198.1 2086.69 1197.42 2091.17 1194.9 2095.62 1192.29 2100.08 1189.71 2105.3 1186.67 2110.5 1183.56 2115.72 1180.53 2121.23 1177.31 2126.77 1174.14 2132.28 1170.92 2138.53 1167.27 2144.74 1163.58 2151 1159.94 2157.55 1156.11 2164.12 1152.36 2170.66 1148.53 2177.62 1144.48 2184.55 1140.39 2191.48 1136.31 2196.47 1133.39 2201.47 1130.46 2206.46 1127.54 2211.57 1124.55 2216.68 1121.58 2221.78 1118.61 2226.37 1115.93 2230.96 1113.23 2235.58 1110.55 2238.66 1108.75 2241.76 1107 2244.85 1105.22 2247.43 1106.3 2249.71 1107.92 2252.14 1109.29 2258.14 1112.71 2264.11 1116.2 2270.09 1119.64 2275.74 1122.9 2281.39 1126.17 2287.03 1129.43 2293.02 1132.89 2299 1136.34 2304.99 1139.78 2310.82 1143.15 2316.67 1146.51 2322.49 1149.88 2328.32 1153.26 2334.17 1156.61 2340 1159.98 2346.21 1163.56 2352.4 1167.18 2358.6 1170.76 2363.98 1173.87 2369.38 1176.97 2374.78 1180.08 2381.02 1183.68 2387.25 1187.3 2393.5 1190.92 2396 1192.36 2398.48 1193.8 2400.97 1195.24 2401.31 1195.42 2401.72 1195.51 2401.9 1195.92 2400.75 1195.85 2400.61 1196.52 2400.59 1197.49 2400.52 1207.77 2400.46 1218.06 2400.36 1228.32 2400.23 1244.02 2400.34 1259.7 2400.19 1275.41 2399.92 1302.77 2399.92 1330.13 2399.83 1357.47 2399.8 1363.83 2399.74 1370.2 2399.85 1376.57 2399.89 1378.64 2399.29 1379.74 2397.4 1380.82 2389.61 1385.19 2381.96 1389.84 2374.24 1394.37 2365.78 1399.32 2357.32 1404.2 2348.86 1409.13 2339.75 1414.44 2330.64 1419.79 2321.55 1425.12 2313.22 1430.01 2304.9 1434.93 2296.57 1439.82 2287.24 1445.28 2277.9 1450.68 2268.56 1456.15 2261.11 1460.52 2253.62 1464.84 2246.24 1469.31 2244.35 1470.35 2242.08 1470.75 2240.66 1472.55ZM2166.66 1322.55 2166.77 1322.57 2166.88 1322.55C2167.06 1322.52 2167.24 1322.52 2167.42 1322.5 2167.76 1322.46 2168.1 1322.41 2168.44 1322.37 2168.68 1322.43 2168.91 1322.57 2169.16 1322.57 2172.94 1322.75 2176.72 1322.37 2180.47 1322.23 2182.52 1322.16 2184.59 1322.19 2186.64 1322.05 2190.62 1321.8 2194.58 1321.42 2198.59 1321.6 2198.7 1322.93 2198.72 1324.26 2198.95 1325.56 2199.42 1328.35 2199.35 1331.19 2199.89 1333.98 2200.5 1337.13 2200.79 1340.32 2201.78 1343.38 2201.33 1343.52 2200.88 1343.65 2200.43 1343.76 2193.46 1345.23 2186.48 1346.71 2179.48 1348.08 2177.1 1348.56 2174.76 1349.28 2172.33 1349.39 2171.38 1349.16 2171.56 1350.04 2171.36 1350.47 2171.02 1351.19 2171.61 1351.55 2172.15 1351.86 2171.99 1352.4 2172.12 1352.88 2172.4 1353.35 2176.6 1360.44 2180.83 1367.52 2185.02 1374.61 2186.26 1376.7 2187.7 1378.68 2188.62 1380.98 2188.66 1381.5 2188.28 1381.83 2188.03 1382.22 2187.13 1383.63 2186.19 1385.01 2185.31 1386.42 2179.71 1395.51 2173.52 1404.2 2167.51 1413.02 2166.37 1414.71 2166.32 1414.68 2168.23 1415.63 2168.37 1415.7 2168.55 1415.72 2168.73 1415.74 2168.86 1415.9 2168.98 1416.1 2169.16 1416.21 2171.88 1417.83 2174.6 1419.45 2177.3 1421.07 2184.34 1425.28 2191.39 1429.49 2198.45 1433.7 2202.57 1436.15 2206.69 1438.6 2210.78 1441.08 2211.55 1441.55 2211.79 1441.32 2211.88 1440.54 2212.13 1438.56 2212.35 1436.55 2212.65 1434.57 2213.35 1429.85 2214 1425.12 2214.76 1420.4 2215.66 1414.84 2216.85 1409.35 2218.05 1403.86 2218.5 1401.81 2218.63 1399.86 2217.87 1397.83 2217.26 1396.23 2216.83 1394.57 2216.45 1392.88 2216.2 1391.8 2215.6 1390.54 2216.32 1389.57 2217.87 1387.48 2219.65 1385.55 2221.27 1383.52 2223.58 1380.62 2226.58 1378.44 2229.3 1375.98 2234.02 1371.73 2239.33 1368.29 2244.62 1364.85 2248.6 1362.26 2249.03 1362.28 2253.26 1364.33 2254.11 1364.73 2254.95 1365.16 2255.8 1365.59 2256.23 1365.81 2256.68 1366.06 2257.02 1366.53 2255.15 1367.12 2253.4 1367.61 2251.69 1368.24 2249.28 1369.17 2247.12 1370.49 2244.98 1371.98 2242.51 1373.69 2240.08 1375.44 2237.92 1377.54 2233.03 1382.26 2229.41 1388 2225.47 1393.49 2224.03 1395.51 2224.19 1397.47 2225.18 1399.38 2226.42 1401.79 2226.91 1404 2226.17 1406.76 2224.15 1414.21 2222.5 1421.77 2220.73 1429.29 2219.58 1434.06 2218.45 1438.83 2217.26 1443.6 2217.06 1444.41 2217.26 1444.74 2217.94 1445.22 2220.3 1446.79 2222.8 1448.14 2225.2 1449.63 2229.1 1452.03 2233.15 1454.19 2237.13 1456.49 2237.6 1456.76 2237.85 1456.69 2238.25 1456.47 2241.97 1454.49 2245.75 1452.62 2249.41 1450.55 2257.22 1446.12 2264.98 1441.62 2272.75 1437.07 2274.5 1436.04 2276.37 1435.16 2277.97 1433.88 2278.17 1433.85 2278.42 1433.85 2278.51 1433.61L2278.51 1433.63C2283.03 1431.04 2287.57 1428.43 2292.09 1425.82 2297.59 1422.65 2303.08 1419.5 2308.52 1416.26 2311.11 1414.73 2313.81 1413.38 2316.26 1411.6 2317.07 1411.42 2317.61 1411.13 2317.16 1410.14 2315.25 1405.8 2313.63 1401.34 2311.92 1396.93 2307.67 1386.09 2303.37 1375.26 2299.14 1364.4 2297.63 1360.53 2296.42 1356.54 2292.79 1354 2292.48 1353.78 2292.43 1353.46 2292.48 1353.08 2292.75 1350.36 2292.84 1347.61 2293.02 1344.89 2293.11 1343.49 2293.09 1342.08 2293.24 1340.68 2293.65 1336.9 2293.81 1333.1 2294.01 1329.32 2294.03 1328.78 2293.92 1328.37 2293.31 1328.28 2292.61 1327.16 2291.38 1326.62 2290.48 1325.7 2289.64 1324.84 2288.72 1324.68 2287.57 1325.07 2286.34 1325.47 2284.96 1325.54 2283.73 1325.97 2282.47 1326.39 2282.38 1325.88 2282.38 1324.84 2282.4 1322.73 2282.89 1320.61 2282.71 1318.5 2288.43 1318.5 2294.1 1318.05 2299.79 1317.69 2306.63 1317.26 2313.49 1316.94 2320.33 1316.58 2321.82 1316.56 2323.3 1316.85 2324.79 1316.61 2325.94 1316.38 2326.95 1316.07 2326.34 1314.54 2327.76 1313.97 2326.72 1312.8 2326.97 1311.93 2327.08 1311.54 2327.29 1310.85 2326.45 1310.73 2326.32 1310.71 2326.21 1310.73 2326.07 1310.76 2325.53 1309.32 2325.84 1307.81 2325.78 1306.35 2325.71 1304.37 2325.73 1304.37 2323.8 1304.52 2323.51 1304.1 2323.03 1304.28 2322.63 1304.21 2321.53 1304.05 2320.47 1304.5 2319.36 1304.41 2317.88 1304.34 2317.75 1303.42 2317.7 1302.18 2317.48 1298 2317.3 1293.81 2317.05 1289.63 2316.76 1284.84 2316.55 1280.07 2316.28 1275.27 2316.04 1270.48 2315.79 1265.69 2315.52 1260.92 2315.18 1254.89 2314.91 1248.84 2314.12 1242.83 2313.72 1239.7 2313.54 1236.51 2312.55 1233.47 2310.79 1228.05 2308.79 1222.74 2305.96 1217.76 2305.51 1216.95 2305.51 1216.35 2306.2 1215.72 2306.43 1215.51 2306.56 1215.24 2306.77 1215.02 2309.26 1213.13 2311.51 1210.95 2313.74 1208.74 2315.45 1207.05 2315.77 1205.95 2314.8 1203.86 2314.69 1204.13 2314.75 1204.47 2314.44 1204.65 2313.63 1203.93 2312.82 1203.21 2312.01 1202.49 2311.94 1202.28 2311.78 1202.22 2311.58 1202.24 2309.94 1201.83 2308.77 1202.78 2307.67 1203.72 2305.33 1205.77 2303.08 1207.91 2300.78 1210 2300.56 1208.97 2299.88 1208.13 2299.25 1207.35 2295 1202.08 2290.79 1196.79 2285.53 1192.43 2280.96 1188.65 2276.44 1184.89 2270.95 1182.53 2267.1 1180.86 2263.23 1179.22 2259.16 1178.16 2254.77 1177.04 2250.34 1176.14 2245.86 1175.67 2243.65 1175.44 2241.49 1174.86 2239.27 1174.83 2235.19 1174.79 2231.17 1175.06 2227.11 1175.37 2226.73 1175.46 2226.37 1175.58 2225.99 1175.62 2223.25 1175.96 2220.48 1176.07 2217.76 1176.63 2210.06 1178.23 2202.64 1180.55 2195.77 1184.49 2185.27 1190.52 2176.81 1198.59 2170.55 1209.01 2169.49 1210.77 2168.82 1212.72 2167.31 1214.23 2164.48 1217.09 2161.39 1219.68 2158.81 1222.8 2154.35 1228.25 2151.22 1234.37 2148.79 1240.87 2145.96 1248.43 2145.04 1256.26 2145.82 1264.32 2146.5 1271.34 2148.39 1277.97 2152.08 1284.03 2154.4 1287.81 2156.94 1291.43 2160.76 1293.9 2161.33 1294.26 2161.82 1294.44 2162.43 1294.13 2163.22 1294.15 2163.87 1293.54 2164.68 1293.61 2164.86 1297.5 2165.04 1301.4 2165.26 1305.29 2165.33 1306.39 2164.9 1307.07 2163.85 1307.18 2162.97 1307.29 2162.86 1307.74 2162.9 1308.48 2163.15 1312.35 2163.35 1316.25 2163.62 1320.12 2163.78 1322.61 2163.82 1322.61 2166.23 1322.48 2166.3 1322.55 2166.48 1322.55 2166.66 1322.55Z" fill="#979797" fill-rule="nonzero" fill-opacity="1"/><path d="M2240.66 1472.55C2242.08 1470.75 2244.35 1470.37 2246.2 1469.27 2253.6 1464.81 2261.07 1460.47 2268.52 1456.11 2277.85 1450.66 2287.21 1445.24 2296.53 1439.77 2304.88 1434.89 2313.18 1429.98 2321.5 1425.08 2330.61 1419.75 2339.71 1414.39 2348.82 1409.08 2357.28 1404.15 2365.76 1399.27 2374.2 1394.32 2381.92 1389.8 2389.54 1385.16 2397.35 1380.78 2399.26 1379.72 2399.85 1378.59 2399.8 1376.52 2399.67 1370.16 2399.76 1363.79 2399.78 1357.42 2399.87 1330.06 2399.87 1302.7 2400.14 1275.36 2400.3 1259.66 2400.19 1243.98 2400.32 1228.27 2400.41 1217.99 2400.48 1207.71 2400.55 1197.45 2400.55 1196.5 2400.7 1195.83 2401.85 1195.87 2402.98 1196.03 2403.16 1196.73 2403.16 1197.76 2403.13 1258.69 2403.13 1319.62 2403.16 1380.53 2403.16 1381.47 2402.86 1381.95 2402.03 1382.42 2394.7 1386.6 2387.38 1390.86 2380.07 1395.06 2373.01 1399.14 2365.94 1403.21 2358.9 1407.28 2351.54 1411.53 2344.18 1415.79 2336.83 1420.04 2329.65 1424.18 2322.47 1428.32 2315.32 1432.46 2308.07 1436.64 2300.85 1440.87 2293.62 1445.06 2287.33 1448.7 2280.98 1452.33 2274.68 1455.99 2268.38 1459.64 2262.06 1463.31 2255.76 1466.95 2251.82 1469.22 2247.91 1471.52 2243.97 1473.79 2242.8 1474.44 2241.49 1473.95 2240.66 1472.55Z" fill="#FEFEFE" fill-rule="nonzero" fill-opacity="1"/><path d="M2244.85 1105.17C2241.76 1106.95 2238.66 1108.71 2235.58 1110.51 2230.96 1113.18 2226.37 1115.86 2221.78 1118.56 2216.68 1121.55 2211.57 1124.52 2206.46 1127.49 2201.47 1130.42 2196.47 1133.34 2191.48 1136.27 2184.55 1140.34 2177.62 1144.41 2170.66 1148.49 2164.12 1152.31 2157.55 1156.07 2151 1159.89 2144.74 1163.54 2138.53 1167.23 2132.28 1170.87 2126.77 1174.09 2121.23 1177.26 2115.72 1180.48 2110.5 1183.52 2105.3 1186.62 2100.08 1189.66 2095.62 1192.25 2091.19 1194.86 2086.69 1197.38 2085.52 1198.03 2085.03 1198.77 2085.03 1200.19 2085.07 1231.22 2084.89 1262.25 2085.14 1293.25 2085.25 1307.13 2085.01 1321.02 2085.37 1334.9 2085.73 1348.92 2085.39 1362.93 2085.61 1376.95 2085.64 1378.86 2085.88 1380.78 2085.57 1382.71 2083.32 1382.62 2082.73 1382.01 2082.73 1379.81 2082.73 1319.31 2082.73 1258.83 2082.71 1198.32 2082.71 1196.84 2083.07 1196.03 2084.44 1195.26 2094.39 1189.64 2104.27 1183.9 2114.14 1178.21 2129.17 1169.55 2144.18 1160.86 2159.21 1152.18 2184.16 1137.75 2209.09 1123.35 2234.05 1108.93 2236.57 1107.47 2239.09 1106.01 2241.63 1104.54 2243.11 1103.69 2243.63 1103.78 2244.85 1105.17Z" fill="#383838" fill-rule="nonzero" fill-opacity="1"/><path d="M2201.78 1343.38C2200.79 1340.32 2200.5 1337.1 2199.89 1333.98 2199.35 1331.19 2199.42 1328.35 2198.95 1325.56 2198.72 1324.26 2198.7 1322.91 2198.59 1321.6 2201.02 1321.56 2203.4 1320.86 2205.81 1320.84 2210.17 1320.77 2214.49 1320.25 2218.84 1320.25 2219.1 1320.25 2219.35 1320.25 2219.53 1320.03 2219.98 1319.71 2220.5 1319.76 2221.02 1319.76 2222.17 1319.76 2223.34 1319.82 2224.48 1319.73 2229.12 1319.35 2233.75 1319.19 2238.39 1319.01 2238.75 1319.37 2239.2 1319.19 2239.62 1319.24 2240.89 1319.37 2242.1 1318.99 2243.34 1319.01 2253.69 1319.17 2264.04 1318.61 2274.39 1318.74 2274.64 1318.74 2274.91 1318.77 2275.15 1318.72 2277.63 1318.29 2280.1 1318.52 2282.6 1318.56 2282.78 1320.7 2282.31 1322.79 2282.26 1324.91 2282.24 1325.92 2282.35 1326.44 2283.61 1326.03 2284.85 1325.61 2286.2 1325.54 2287.46 1325.13 2288.61 1324.75 2289.53 1324.91 2290.36 1325.76 2291.26 1326.69 2292.48 1327.23 2293.2 1328.35 2293.02 1328.51 2292.84 1328.67 2292.66 1328.82 2290.84 1328.96 2288.95 1328.85 2287.19 1329.36 2283.36 1330.49 2279.47 1331.25 2275.58 1332.09 2268.65 1333.57 2261.77 1335.24 2254.86 1336.83 2246.33 1338.81 2237.8 1340.79 2229.3 1342.77 2228.92 1342.86 2228.29 1342.84 2228.26 1343.34 2228.24 1343.81 2228.83 1343.92 2229.23 1344.03 2231.1 1344.62 2232.99 1345.18 2234.88 1345.74 2239.92 1347.25 2244.96 1348.76 2250 1350.27 2254.99 1351.77 2259.99 1353.33 2264.98 1354.83 2266.09 1355.17 2266.83 1356.05 2266.94 1356.99 2267.05 1357.83 2266.9 1358.86 2266.47 1359.74 2265.86 1361.07 2265.36 1362.44 2264.76 1363.77 2264.38 1364.6 2264.62 1365.07 2265.39 1365.54 2269.64 1368.24 2273.62 1371.33 2277.29 1374.81 2278.21 1375.69 2279.09 1376.64 2280.01 1377.51 2283.84 1381.23 2287.46 1385.1 2290.77 1389.28 2293.99 1393.35 2297.27 1397.36 2299.41 1402.15 2299.86 1403.16 2299.7 1403.77 2299.11 1404.56 2297.29 1407.03 2295.49 1409.53 2293.69 1412.03 2289.37 1417.99 2285.03 1423.91 2280.78 1429.92 2279.95 1431.11 2278.69 1432.08 2278.44 1433.65 2278.44 1433.65 2278.44 1433.63 2278.44 1433.63 2278.19 1433.61 2278.01 1433.65 2277.9 1433.9 2276.3 1435.18 2274.43 1436.06 2272.68 1437.09 2264.94 1441.64 2257.15 1446.14 2249.34 1450.57 2245.68 1452.64 2241.9 1454.51 2238.19 1456.49 2237.76 1456.71 2237.51 1456.78 2237.06 1456.51 2233.1 1454.22 2229.05 1452.06 2225.14 1449.65 2222.73 1448.16 2220.23 1446.81 2217.87 1445.24 2217.17 1444.79 2216.99 1444.43 2217.19 1443.62 2218.39 1438.85 2219.51 1434.08 2220.66 1429.31 2222.46 1421.79 2224.1 1414.23 2226.1 1406.79 2226.85 1404.02 2226.37 1401.79 2225.11 1399.41 2224.12 1397.52 2223.97 1395.54 2225.41 1393.51 2229.32 1388.02 2232.94 1382.28 2237.85 1377.56 2240.01 1375.47 2242.44 1373.71 2244.91 1372 2247.05 1370.54 2249.21 1369.19 2251.62 1368.27 2253.33 1367.61 2255.11 1367.14 2256.95 1366.56 2256.61 1366.08 2256.16 1365.84 2255.74 1365.61 2254.9 1365.18 2254.05 1364.76 2253.19 1364.35 2248.96 1362.3 2248.54 1362.28 2244.55 1364.87 2239.24 1368.31 2233.93 1371.75 2229.23 1376.01 2226.51 1378.46 2223.52 1380.64 2221.2 1383.54 2219.58 1385.59 2217.8 1387.5 2216.25 1389.6 2215.53 1390.56 2216.14 1391.82 2216.38 1392.9 2216.74 1394.57 2217.19 1396.26 2217.8 1397.85 2218.57 1399.88 2218.43 1401.84 2217.98 1403.88 2216.79 1409.37 2215.6 1414.86 2214.7 1420.42 2213.93 1425.12 2213.26 1429.87 2212.58 1434.6 2212.29 1436.58 2212.04 1438.58 2211.82 1440.56 2211.73 1441.35 2211.5 1441.57 2210.71 1441.1 2206.62 1438.62 2202.5 1436.17 2198.38 1433.72 2191.34 1429.51 2184.3 1425.3 2177.23 1421.1 2174.51 1419.48 2171.79 1417.86 2169.09 1416.24 2168.91 1416.12 2168.8 1415.92 2168.66 1415.76 2168.75 1415.61 2168.84 1415.43 2168.93 1415.27 2169.9 1415.83 2170.84 1416.39 2171.81 1416.96 2174.22 1418.42 2176.62 1419.9 2179.06 1421.32 2179.8 1421.75 2180.65 1422.2 2181.31 1421.19 2182 1420.11 2182.68 1419 2183.26 1417.88 2184.93 1414.68 2186.82 1411.58 2189.34 1409.01 2194.15 1404.09 2198.65 1398.78 2204.77 1395.31 2206.6 1394.28 2207.63 1392.79 2207.95 1390.65 2208.31 1388.22 2208.96 1385.75 2210.49 1383.84 2212.69 1381.07 2214.88 1378.26 2217.42 1375.78 2218.11 1375.11 2218.23 1374.54 2217.89 1373.67 2215.24 1366.87 2212.6 1360.08 2209.99 1353.26 2208.96 1350.54 2207.74 1347.88 2206.93 1345.09 2207.16 1345 2207.38 1344.84 2207.63 1344.8 2211.93 1343.76 2216.23 1342.73 2220.52 1341.72 2225.45 1340.57 2230.4 1339.51 2235.28 1338.27 2237.78 1337.64 2240.3 1337.19 2242.75 1336.34 2243.9 1335.93 2244.19 1335.37 2243.7 1334.31 2243.95 1334 2244.31 1333.82 2244.69 1333.75 2248.67 1332.96 2252.65 1332.18 2256.64 1331.39 2260.19 1330.69 2263.77 1329.99 2267.32 1329.27 2267.98 1329.14 2268.31 1328.94 2268.16 1328.08 2267.86 1326.44 2267.75 1324.77 2267.61 1323.11 2267.44 1320.68 2267.46 1320.7 2265.09 1320.77 2260.71 1320.88 2256.34 1320.95 2251.96 1321.04 2248.99 1321.11 2246.04 1321.22 2243.07 1321.31 2242.89 1321.31 2242.73 1321.31 2242.55 1321.35 2234.34 1323.2 2226.15 1325.09 2217.94 1326.84 2214.16 1327.65 2210.42 1328.89 2206.51 1329.07 2206.1 1329.09 2205.83 1329.21 2205.92 1329.68 2206.44 1332.13 2206.53 1334.7 2207.32 1337.08 2207.65 1338.09 2207.05 1339.15 2207.61 1340.12 2207.65 1340.19 2207.56 1340.41 2207.47 1340.46 2206.44 1340.84 2206.78 1341.65 2206.84 1342.37 2205.18 1342.71 2203.49 1343.04 2201.78 1343.38Z" fill="#545454" fill-rule="nonzero" fill-opacity="1"/><path d="M2278.44 1433.61C2278.69 1432.03 2279.95 1431.06 2280.78 1429.87 2285.03 1423.86 2289.37 1417.95 2293.69 1411.98 2295.49 1409.49 2297.29 1406.99 2299.11 1404.51 2299.7 1403.73 2299.86 1403.12 2299.41 1402.11 2297.27 1397.31 2293.96 1393.31 2290.77 1389.24 2287.46 1385.05 2283.84 1381.18 2280.01 1377.47 2279.09 1376.57 2278.24 1375.65 2277.29 1374.77 2273.62 1371.28 2269.64 1368.22 2265.39 1365.5 2264.62 1365.03 2264.38 1364.55 2264.76 1363.72 2265.36 1362.39 2265.86 1361.02 2266.47 1359.69 2266.87 1358.82 2267.03 1357.78 2266.94 1356.95 2266.83 1356 2266.09 1355.13 2264.98 1354.79 2259.99 1353.28 2254.99 1351.73 2250 1350.22 2244.96 1348.69 2239.92 1347.21 2234.88 1345.7 2232.99 1345.14 2231.1 1344.57 2229.23 1343.99 2228.85 1343.88 2228.24 1343.76 2228.26 1343.29 2228.29 1342.82 2228.92 1342.82 2229.3 1342.73 2237.83 1340.75 2246.35 1338.75 2254.86 1336.79 2261.77 1335.19 2268.65 1333.53 2275.58 1332.04 2279.47 1331.21 2283.36 1330.44 2287.19 1329.32 2288.95 1328.8 2290.84 1328.91 2292.66 1328.78 2292.19 1336.45 2291.71 1344.15 2291.22 1351.82 2291.2 1352.25 2291.31 1352.72 2290.97 1353.06 2290.45 1353.6 2290.72 1353.93 2291.15 1354.34 2292.41 1355.55 2293.67 1356.81 2294.91 1358.05 2295.18 1358.32 2295.43 1358.59 2295.58 1358.97 2297.52 1364.01 2299.48 1369.08 2301.46 1374.09 2306.36 1386.6 2311.29 1399.11 2316.19 1411.62 2313.74 1413.4 2311.04 1414.75 2308.45 1416.28 2303.01 1419.52 2297.52 1422.67 2292.03 1425.84 2287.51 1428.43 2282.98 1431.02 2278.44 1433.61Z" fill="#2C2C2C" fill-rule="nonzero" fill-opacity="1"/><path d="M2164.59 1293.66C2163.78 1293.57 2163.12 1294.17 2162.34 1294.17 2162.27 1293.43 2161.8 1292.94 2161.26 1292.49 2160.29 1291.7 2159.46 1290.78 2158.65 1289.83 2154.58 1285.08 2151.49 1279.8 2149.51 1273.86 2149.29 1273.16 2148.64 1272.55 2148.86 1271.72 2152.51 1271.81 2156.13 1271.43 2159.73 1271.13 2161.84 1270.95 2164.03 1271.27 2166.1 1270.64 2166.93 1270.39 2167.69 1270.41 2168.48 1270.71 2168.75 1271.97 2169.02 1273.23 2169.27 1274.49 2169.38 1275.86 2170.42 1276.51 2171.63 1275.93 2172.49 1275.52 2173.05 1274.85 2173.14 1273.86 2173.27 1272.62 2173.43 1271.4 2173.57 1270.17 2176.58 1269.92 2179.6 1269.51 2182.61 1269.45 2187.34 1269.33 2192.02 1269 2196.72 1268.66 2202.86 1268.23 2209.05 1268.01 2215.19 1267.53 2216.97 1267.4 2218.79 1267.49 2220.57 1267.13 2221.96 1266.84 2222.32 1267.15 2222.39 1268.61 2222.55 1272.17 2222.61 1275.75 2222.73 1279.3 2222.75 1279.82 2222.64 1280.11 2222.01 1280.29 2218.95 1281.19 2215.89 1282.07 2212.74 1282.72 2205.4 1284.25 2198.11 1286.01 2190.8 1287.67 2186.08 1288.75 2181.31 1289.74 2176.58 1290.89 2173.45 1291.65 2170.26 1292.17 2167.18 1293.14 2166.28 1293.09 2165.42 1293.32 2164.59 1293.66Z" fill="#545454" fill-rule="nonzero" fill-opacity="1"/><path d="M2148.84 1271.72C2148.61 1272.57 2149.27 1273.16 2149.49 1273.86 2151.47 1279.8 2154.55 1285.08 2158.62 1289.83 2159.44 1290.78 2160.27 1291.7 2161.24 1292.49 2161.78 1292.94 2162.25 1293.41 2162.32 1294.17 2161.71 1294.47 2161.21 1294.31 2160.65 1293.95 2156.83 1291.45 2154.28 1287.85 2151.97 1284.07 2148.25 1278.02 2146.39 1271.4 2145.71 1264.36 2144.92 1256.31 2145.85 1248.48 2148.68 1240.92 2151.11 1234.41 2154.24 1228.29 2158.69 1222.85 2161.28 1219.7 2164.34 1217.11 2167.2 1214.28 2168.71 1212.77 2169.38 1210.81 2170.44 1209.06 2176.67 1198.64 2185.13 1190.56 2195.66 1184.53 2202.52 1180.59 2209.95 1178.3 2217.64 1176.68 2220.36 1176.12 2223.13 1176 2225.88 1175.67 2226.26 1175.62 2226.62 1175.51 2227 1175.42 2227.03 1175.58 2227.07 1175.76 2227.09 1175.91 2226.89 1176.48 2226.35 1176.45 2225.92 1176.57 2220.05 1178.25 2214.58 1180.91 2209.21 1183.68 2204.35 1186.17 2200.36 1189.95 2196.27 1193.55 2191.77 1197.51 2188.06 1202.08 2184.52 1206.83 2180.86 1211.73 2178.31 1217.25 2176.58 1223.14 2176.33 1223.95 2176.62 1224.24 2177.28 1224.42 2178.79 1224.85 2180.32 1225.28 2181.82 1225.75 2193.23 1229.37 2204.64 1233.02 2216.02 1236.66 2216.74 1236.89 2217.51 1237 2218.27 1237.56 2217.89 1237.56 2217.62 1237.61 2217.4 1237.56 2205.13 1234.8 2192.85 1232.07 2180.61 1229.22 2175.1 1227.91 2169.65 1226.36 2164.07 1225.41 2163.6 1225.32 2163.31 1225.39 2162.92 1225.62 2157.73 1228.79 2153.97 1233.31 2151.54 1238.78 2147.87 1246.99 2146.07 1255.59 2147.53 1264.63 2147.92 1267.02 2148.07 1269.42 2148.84 1271.72Z" fill="#FCFCFC" fill-rule="nonzero" fill-opacity="1"/><path d="M2227.09 1175.91C2227.07 1175.76 2227.03 1175.58 2227 1175.42 2231.05 1175.1 2235.1 1174.83 2239.15 1174.88 2241.38 1174.9 2243.54 1175.46 2245.75 1175.71 2250.25 1176.18 2254.68 1177.08 2259.04 1178.21 2263.11 1179.27 2266.99 1180.89 2270.83 1182.57 2276.32 1184.96 2280.84 1188.72 2285.41 1192.47 2290.68 1196.84 2294.91 1202.13 2299.14 1207.39 2299.77 1208.18 2300.44 1208.99 2300.67 1210.05 2300.02 1210.65 2299.36 1211.26 2298.69 1211.85 2295.36 1214.84 2292.23 1218.03 2288.79 1220.91 2286.65 1217.58 2284.54 1214.28 2282.4 1210.95 2280.91 1208.63 2279.02 1206.6 2277.31 1204.47 2274.59 1201.11 2271.53 1198.08 2268.31 1195.24 2264.53 1191.89 2260.17 1189.28 2256.01 1186.42 2249.05 1181.67 2241.4 1178.82 2233.12 1177.38 2231.12 1177.04 2228.8 1177.58 2227.09 1175.91Z" fill="#545454" fill-rule="nonzero" fill-opacity="1"/><path d="M2306.68 1215.02C2306.5 1215.24 2306.34 1215.54 2306.11 1215.72 2305.42 1216.35 2305.42 1216.95 2305.86 1217.76 2308.7 1222.74 2310.7 1228.05 2312.46 1233.47 2313.45 1236.51 2313.61 1239.7 2314.03 1242.83 2314.82 1248.84 2315.09 1254.87 2315.43 1260.92 2315.7 1265.71 2315.95 1270.5 2316.19 1275.27 2316.44 1280.07 2316.64 1284.86 2316.96 1289.63 2317.23 1293.81 2317.41 1298 2317.61 1302.18 2317.68 1303.44 2317.81 1304.34 2319.28 1304.41 2319.25 1304.59 2319.23 1304.77 2319.23 1304.97 2315.81 1304.91 2312.39 1305.49 2308.97 1305.2 2309.62 1304.23 2310.59 1304.82 2311.4 1304.79 2312.46 1304.75 2312.89 1304.41 2312.8 1303.35 2312.53 1299.91 2312.19 1296.47 2312.03 1293 2311.83 1288.82 2311.54 1284.63 2311.27 1280.45 2311 1276.35 2310.75 1272.26 2310.5 1268.16 2310.23 1263.82 2309.98 1259.46 2309.74 1255.11 2309.49 1250.68 2309.17 1246.23 2308.97 1241.79 2308.81 1238.31 2308.61 1234.91 2307.4 1231.6 2306.47 1229.1 2305.71 1226.56 2304.43 1224.22 2304.07 1223.55 2303.68 1223.12 2302.99 1223.86 2301.09 1225.77 2299.14 1227.64 2297.29 1229.62 2296.46 1230.5 2295.63 1231.31 2294.48 1231.74 2294.37 1231.56 2294.19 1231.42 2294.12 1231.22 2293.51 1229.55 2292.73 1229.42 2291.42 1230.77 2288.43 1233.85 2285.34 1236.82 2282.38 1239.95 2281.36 1241.01 2281.48 1241.61 2282.24 1242.67 2285.68 1247.35 2287.35 1252.59 2287.28 1258.42 2287.15 1267.83 2287.08 1277.25 2286.99 1286.66 2286.99 1287.36 2286.92 1288.03 2286.99 1288.73 2287.06 1289.65 2286.7 1289.88 2285.8 1289.88 2277.76 1289.92 2269.73 1290.06 2261.7 1290.08 2249.84 1290.1 2237.96 1290.06 2226.1 1290.03 2225.95 1288.8 2226.85 1289.04 2227.52 1289.04 2245.63 1289.04 2263.75 1289.04 2281.86 1289.04 2282.58 1289.04 2283.3 1288.95 2284.02 1288.86 2284.85 1288.75 2284.96 1288.39 2284.96 1287.69 2284.94 1285.76 2284.92 1283.82 2284.96 1281.89 2285.03 1277.43 2285.3 1273 2285.14 1268.55 2284.99 1264.27 2284.54 1260.02 2284.24 1255.74 2283.93 1251.29 2282.02 1247.64 2279.65 1244.07 2279.14 1243.28 2278.78 1243.44 2278.28 1243.98 2277.56 1244.81 2276.84 1245.64 2276.1 1246.5 2275.54 1246 2275.06 1245.44 2274.75 1244.76 2276.55 1244.65 2277.49 1243.89 2277.79 1242.02 2277.94 1241.05 2278.35 1240.38 2279.07 1239.77 2279.9 1239.05 2280.76 1238.33 2281.54 1237.54 2283.84 1235.29 2286.09 1232.97 2288.38 1230.72 2289.4 1229.73 2290.34 1228.47 2291.58 1228.02 2292.75 1227.6 2293.27 1226.85 2293.92 1226.07 2294.3 1225.62 2294.68 1225.12 2295.13 1224.74 2297.79 1222.38 2300.44 1220.01 2303.05 1217.63 2304.13 1216.64 2305.21 1215.56 2306.56 1214.91 2306.59 1214.93 2306.63 1214.97 2306.68 1215.02Z" fill="#2C2C2C" fill-rule="nonzero" fill-opacity="1"/><path d="M2168.44 1322.34C2168.1 1322.39 2167.76 1322.43 2167.42 1322.48 2167.42 1321.22 2167.9 1319.96 2167.62 1318.68 2167.58 1318.59 2167.54 1318.47 2167.49 1318.38 2167.38 1316.13 2167.22 1313.88 2167.18 1311.63 2167.13 1309.81 2167.65 1309.32 2169.47 1309.16 2169.72 1309.14 2169.99 1309.14 2170.24 1309.14 2176.2 1309 2182.18 1309.05 2188.15 1308.96 2197.55 1308.82 2206.96 1308.53 2216.38 1308.6 2218.27 1308.62 2220.19 1308.71 2222.05 1308.55 2226.22 1308.19 2230.38 1308.42 2234.54 1308.39 2234.18 1311.57 2234.32 1314.74 2234.27 1317.91 2232.9 1318 2231.53 1318.16 2230.18 1318.18 2223.97 1318.36 2217.76 1318.68 2211.52 1318.95 2205.27 1319.19 2199.01 1319.4 2192.76 1319.71 2187.18 1320 2181.6 1320.07 2176.04 1320.34 2174.11 1320.43 2172.19 1320.48 2170.26 1320.57 2168.73 1320.63 2168.55 1320.88 2168.62 1322.32 2168.55 1322.32 2168.48 1322.34 2168.44 1322.34Z" fill="#F6CB20" fill-rule="nonzero" fill-opacity="1"/><path d="M2311.9 1202.51C2312.71 1203.23 2313.52 1203.95 2314.33 1204.67 2314.33 1204.67 2314.3 1204.74 2314.3 1204.74 2314.21 1204.85 2314.12 1204.98 2314.06 1205.1 2314.06 1205.1 2314.03 1205.21 2314.03 1205.21 2313.54 1206.06 2312.82 1206.72 2312.12 1207.39 2306.36 1212.75 2300.6 1218.1 2294.86 1223.46 2288 1229.89 2281.14 1236.33 2274.28 1242.76 2274.01 1243.01 2273.78 1243.39 2273.31 1243.19 2273.2 1242.99 2273.06 1242.81 2272.95 1242.6 2272.7 1241.73 2272.57 1240.78 2271.69 1240.22 2273.17 1238.8 2274.57 1237.29 2276.14 1236.01 2277.47 1234.93 2278.59 1233.65 2279.88 1232.5 2282.22 1230.41 2284.67 1228.41 2286.74 1226.02 2287.3 1226.02 2287.53 1225.55 2287.86 1225.23 2288.81 1224.31 2289.73 1223.32 2290.7 1222.42 2297.74 1215.78 2304.81 1209.15 2311.9 1202.51Z" fill="#F6CB20" fill-rule="nonzero" fill-opacity="1"/><path d="M2243.72 1334.29C2244.22 1335.35 2243.92 1335.93 2242.78 1336.32 2240.32 1337.15 2237.8 1337.62 2235.31 1338.25 2230.4 1339.49 2225.45 1340.55 2220.55 1341.69 2216.25 1342.71 2211.95 1343.74 2207.65 1344.78 2207.41 1344.84 2207.2 1344.98 2206.96 1345.07 2204.53 1345.27 2202.23 1346.01 2199.85 1346.44 2191.14 1347.99 2182.7 1350.85 2173.84 1351.57 2173.43 1351.57 2173 1351.57 2172.6 1351.57 2171.95 1350.92 2171.83 1350.18 2172.33 1349.39 2174.78 1349.28 2177.12 1348.56 2179.48 1348.08 2186.48 1346.69 2193.46 1345.2 2200.43 1343.76 2200.88 1343.67 2201.33 1343.52 2201.78 1343.38 2203.47 1343.04 2205.16 1342.68 2206.86 1342.35 2207.11 1342.32 2207.38 1342.37 2207.63 1342.3 2217.42 1340.07 2227.18 1337.82 2236.97 1335.62 2239.2 1335.12 2241.4 1334.36 2243.72 1334.29Z" fill="#FCFCFC" fill-rule="nonzero" fill-opacity="1"/><path d="M2316.19 1411.6C2311.29 1399.09 2306.36 1386.58 2301.46 1374.07 2299.48 1369.03 2297.52 1363.99 2295.58 1358.95 2295.43 1358.57 2295.18 1358.3 2294.91 1358.03 2293.65 1356.79 2292.41 1355.53 2291.15 1354.32 2290.72 1353.91 2290.45 1353.57 2290.97 1353.03 2291.29 1352.7 2291.2 1352.22 2291.22 1351.8 2291.71 1344.12 2292.19 1336.45 2292.66 1328.76 2292.84 1328.6 2293.02 1328.44 2293.2 1328.28 2293.81 1328.37 2293.92 1328.76 2293.9 1329.32 2293.69 1333.12 2293.56 1336.9 2293.13 1340.68 2292.97 1342.08 2293 1343.49 2292.91 1344.89 2292.73 1347.61 2292.66 1350.36 2292.36 1353.08 2292.32 1353.44 2292.36 1353.75 2292.68 1354 2296.3 1356.54 2297.52 1360.55 2299.03 1364.4 2303.26 1375.24 2307.55 1386.06 2311.81 1396.93 2313.54 1401.34 2315.14 1405.8 2317.05 1410.14 2317.54 1411.13 2316.98 1411.42 2316.19 1411.6Z" fill="#FDF6DF" fill-rule="nonzero" fill-opacity="1"/><path d="M2282.62 1318.52C2280.15 1318.47 2277.65 1318.23 2275.18 1318.68 2274.93 1318.72 2274.66 1318.7 2274.41 1318.7 2264.06 1318.59 2253.71 1319.15 2243.36 1318.97 2242.12 1318.95 2240.91 1319.35 2239.65 1319.19 2239.24 1319.15 2238.77 1319.33 2238.41 1318.97 2239.35 1319.01 2240.28 1318.74 2241.22 1318.72 2246.44 1318.56 2251.64 1318.23 2256.86 1317.96 2260.24 1317.78 2263.61 1317.6 2266.99 1317.44 2272.25 1317.21 2277.49 1316.94 2282.76 1316.65 2286.09 1316.47 2289.42 1316.29 2292.75 1316.16 2298.06 1315.91 2303.34 1315.62 2308.63 1315.37 2312.44 1315.19 2316.24 1315.08 2320.04 1314.76 2320.11 1314.78 2320.18 1314.81 2320.24 1314.85 2320.24 1315.44 2320.24 1316.02 2320.22 1316.61 2313.38 1316.97 2306.52 1317.26 2299.68 1317.71 2294.01 1318.07 2288.34 1318.52 2282.62 1318.52Z" fill="#2C2C2C" fill-rule="nonzero" fill-opacity="1"/><path d="M2168.95 1415.25C2168.86 1415.4 2168.77 1415.58 2168.68 1415.74 2168.53 1415.7 2168.35 1415.7 2168.19 1415.63 2166.28 1414.68 2166.32 1414.71 2167.47 1413.02 2173.48 1404.2 2179.66 1395.51 2185.27 1386.42 2186.14 1385.01 2187.09 1383.63 2187.99 1382.22 2188.24 1381.83 2188.62 1381.5 2188.57 1380.98 2189.25 1381.02 2189.83 1381.63 2190.58 1381.29 2190.98 1382.53 2190.4 1383.52 2189.79 1384.49 2188.75 1386.13 2187.54 1387.68 2186.53 1389.35 2183.83 1393.83 2181.06 1398.24 2177.86 1402.38 2174.69 1406.52 2171.59 1410.72 2168.95 1415.25Z" fill="#FCFCFC" fill-rule="nonzero" fill-opacity="1"/><path d="M2288.81 1220.91C2292.25 1218.03 2295.38 1214.84 2298.71 1211.85 2299.36 1211.26 2300.04 1210.65 2300.69 1210.05 2302.99 1207.95 2305.24 1205.82 2307.58 1203.77 2308.66 1202.82 2309.85 1201.88 2311.49 1202.28 2309.58 1203.14 2308.27 1204.8 2306.63 1205.97 2305.1 1207.08 2303.57 1208.22 2302.33 1209.6 2300.49 1211.67 2298.6 1213.67 2296.57 1215.6 2293.33 1218.66 2290.32 1221.97 2287.21 1225.14 2286.97 1225.39 2286.72 1225.64 2286.74 1226.02 2286.74 1226.02 2286.74 1226.02 2286.74 1226.02 2286.38 1226 2286.09 1226.07 2285.8 1226.31 2284.69 1227.26 2283.57 1228.18 2282.47 1229.13 2279.2 1231.96 2275.94 1234.77 2272.7 1237.63 2271.94 1238.31 2270.86 1238.89 2271.51 1240.24 2271.33 1240.4 2271.15 1240.58 2270.97 1240.74 2270.38 1240.26 2269.78 1239.79 2269.19 1239.3 2271.17 1237.86 2272.7 1235.92 2274.48 1234.26 2276.1 1232.75 2277.72 1231.22 2279.36 1229.71 2282.51 1226.83 2285.75 1223.97 2288.81 1220.91Z" fill="#FCFCFC" fill-rule="nonzero" fill-opacity="1"/><path d="M2167.49 1318.41C2167.54 1318.5 2167.58 1318.61 2167.62 1318.7 2166.88 1318.65 2166.05 1318.74 2166.21 1319.67 2166.37 1320.66 2166.03 1321.6 2166.14 1322.57 2163.73 1322.7 2163.69 1322.7 2163.53 1320.21 2163.26 1316.34 2163.06 1312.44 2162.81 1308.57 2162.77 1307.83 2162.88 1307.38 2163.76 1307.27 2164.81 1307.13 2165.24 1306.48 2165.17 1305.38 2164.95 1301.49 2164.79 1297.59 2164.59 1293.7 2165.42 1293.36 2166.25 1293.14 2167.18 1293.14 2167.45 1297.32 2167.76 1301.51 2167.94 1305.69 2167.99 1306.68 2168.28 1307.2 2169.25 1307.36 2168.59 1307.88 2167.85 1307.63 2167.15 1307.61 2166.37 1307.58 2165.92 1307.81 2165.65 1308.6 2165.26 1309.72 2164.79 1310.82 2164.32 1311.93 2164 1312.67 2164.03 1313.34 2164.57 1313.95 2165.29 1314.74 2165.4 1315.66 2165.38 1316.67 2165.33 1318.54 2165.35 1318.54 2167.24 1318.47 2167.33 1318.43 2167.4 1318.41 2167.49 1318.41Z" fill="#FCFCFC" fill-rule="nonzero" fill-opacity="1"/><path d="M2190.6 1381.29C2189.86 1381.63 2189.27 1381 2188.6 1380.98 2187.7 1378.71 2186.23 1376.73 2185 1374.61 2180.81 1367.5 2176.58 1360.44 2172.37 1353.35 2172.1 1352.88 2171.95 1352.4 2172.12 1351.86 2172.28 1351.77 2172.42 1351.68 2172.58 1351.59 2172.98 1351.59 2173.41 1351.59 2173.81 1351.59 2173.86 1352.4 2174.33 1353.06 2174.71 1353.71 2179.48 1361.76 2184.3 1369.8 2189.05 1377.85 2189.7 1378.91 2190.69 1379.88 2190.6 1381.29Z" fill="#545454" fill-rule="nonzero" fill-opacity="1"/><path d="M2286.7 1226.02C2286.67 1225.64 2286.92 1225.39 2287.17 1225.14 2290.27 1221.95 2293.29 1218.66 2296.53 1215.6 2298.55 1213.69 2300.44 1211.69 2302.29 1209.6 2303.53 1208.22 2305.06 1207.05 2306.59 1205.97 2308.25 1204.8 2309.56 1203.14 2311.45 1202.28 2311.65 1202.26 2311.81 1202.31 2311.87 1202.53 2304.79 1209.17 2297.7 1215.81 2290.63 1222.44 2289.67 1223.34 2288.77 1224.33 2287.8 1225.26 2287.51 1225.55 2287.26 1226.02 2286.7 1226.02Z" fill="#FDF6DF" fill-rule="nonzero" fill-opacity="1"/><path d="M2323.71 1304.55C2325.67 1304.39 2325.62 1304.39 2325.69 1306.37 2325.73 1307.83 2325.44 1309.34 2325.98 1310.78 2325.78 1312.06 2326.25 1313.3 2326.25 1314.56 2326.86 1316.09 2325.84 1316.4 2324.7 1316.63 2324.41 1316.04 2324.29 1315.46 2324.38 1314.81 2324.54 1312.56 2324.14 1310.35 2323.98 1308.12 2323.91 1307.13 2324.11 1306.05 2323.59 1305.11 2323.64 1304.93 2323.69 1304.75 2323.71 1304.55Z" fill="#FDF6DF" fill-rule="nonzero" fill-opacity="1"/><path d="M2219.56 1320.03C2219.35 1320.23 2219.1 1320.25 2218.86 1320.25 2214.52 1320.25 2210.17 1320.77 2205.83 1320.84 2203.42 1320.86 2201.04 1321.56 2198.61 1321.6 2194.6 1321.42 2190.64 1321.78 2186.66 1322.05 2184.61 1322.19 2182.54 1322.16 2180.5 1322.23 2176.72 1322.37 2172.96 1322.75 2169.18 1322.57 2168.93 1322.55 2168.71 1322.43 2168.46 1322.37 2168.5 1322.34 2168.57 1322.34 2168.64 1322.34 2172.06 1322.34 2175.46 1321.98 2178.88 1321.85 2184.3 1321.62 2189.72 1321.31 2195.14 1321.06 2198.34 1320.93 2201.53 1320.63 2204.73 1320.57 2209.66 1320.45 2214.6 1319.85 2219.56 1320.03Z" fill="#383838" fill-rule="nonzero" fill-opacity="1"/><path d="M2314.3 1204.74C2314.3 1204.74 2314.33 1204.67 2314.33 1204.67 2314.64 1204.51 2314.57 1204.15 2314.69 1203.88 2315.65 1205.97 2315.36 1207.05 2313.63 1208.76 2311.4 1210.97 2309.15 1213.13 2306.65 1215.04 2306.61 1215 2306.59 1214.95 2306.54 1214.91 2306.45 1214.25 2306.77 1213.78 2307.24 1213.33 2309.4 1211.26 2311.54 1209.17 2313.72 1207.12 2314.37 1206.51 2314.69 1205.95 2314.01 1205.21 2314.01 1205.21 2314.03 1205.1 2314.03 1205.1 2314.26 1205.05 2314.33 1204.92 2314.3 1204.74Z" fill="#2C2C2C" fill-rule="nonzero" fill-opacity="1"/><path d="M2324.38 1314.81C2324.29 1315.44 2324.41 1316.04 2324.7 1316.63 2323.21 1316.88 2321.73 1316.58 2320.24 1316.61 2320.24 1316.02 2320.24 1315.44 2320.27 1314.85 2321.64 1314.85 2323.01 1314.83 2324.38 1314.81Z" fill="#545454" fill-rule="nonzero" fill-opacity="1"/><path d="M2166.14 1322.55C2166.03 1321.58 2166.37 1320.66 2166.21 1319.64 2166.05 1318.72 2166.91 1318.63 2167.62 1318.68 2167.9 1319.96 2167.42 1321.2 2167.42 1322.48 2167.24 1322.5 2167.06 1322.5 2166.88 1322.52 2166.79 1322.39 2166.73 1322.39 2166.64 1322.52 2166.48 1322.55 2166.3 1322.55 2166.14 1322.55Z" fill="#FDF6DF" fill-rule="nonzero" fill-opacity="1"/><path d="M2326.25 1314.56C2326.25 1313.3 2325.78 1312.06 2325.98 1310.78 2326.11 1310.78 2326.23 1310.76 2326.36 1310.78 2327.2 1310.87 2326.99 1311.59 2326.88 1311.97 2326.63 1312.83 2327.67 1314 2326.25 1314.56Z" fill="#F6CB20" fill-rule="nonzero" fill-opacity="1"/><path d="M2323.71 1304.55C2323.66 1304.73 2323.64 1304.93 2323.59 1305.11 2322.25 1304.5 2320.87 1305.15 2319.52 1305.04 2319.43 1305.02 2319.32 1305 2319.23 1304.97 2319.25 1304.79 2319.28 1304.61 2319.28 1304.41 2320.38 1304.5 2321.44 1304.05 2322.54 1304.21 2322.94 1304.3 2323.42 1304.14 2323.71 1304.55Z" fill="#545454" fill-rule="nonzero" fill-opacity="1"/><path d="M2172.6 1351.59C2172.44 1351.68 2172.31 1351.77 2172.15 1351.86 2171.61 1351.55 2171.05 1351.19 2171.36 1350.47 2171.56 1350.04 2171.38 1349.16 2172.33 1349.39 2171.83 1350.2 2171.92 1350.92 2172.6 1351.59Z" fill="#BABABA" fill-rule="nonzero" fill-opacity="1"/><path d="M2277.92 1433.88C2278.01 1433.63 2278.21 1433.56 2278.46 1433.61 2278.37 1433.85 2278.12 1433.85 2277.92 1433.88Z" fill="#2C2C2C" fill-rule="nonzero" fill-opacity="1"/><path d="M2166.66 1322.55C2166.75 1322.41 2166.82 1322.41 2166.91 1322.55 2166.91 1322.55 2166.79 1322.57 2166.79 1322.57L2166.66 1322.55Z" fill="#FCFCFC" fill-rule="nonzero" fill-opacity="1"/><path d="M2190.6 1381.29C2190.69 1379.88 2189.7 1378.91 2189.07 1377.85 2184.32 1369.77 2179.51 1361.76 2174.74 1353.71 2174.35 1353.06 2173.86 1352.43 2173.84 1351.59 2182.7 1350.85 2191.14 1348.02 2199.85 1346.46 2202.23 1346.04 2204.55 1345.29 2206.96 1345.09 2207.77 1347.9 2208.98 1350.56 2210.02 1353.26 2212.62 1360.08 2215.26 1366.87 2217.91 1373.67 2218.25 1374.57 2218.14 1375.11 2217.44 1375.78 2214.88 1378.26 2212.72 1381.07 2210.51 1383.84 2208.98 1385.75 2208.33 1388.22 2207.97 1390.65 2207.65 1392.77 2206.64 1394.25 2204.8 1395.31 2198.68 1398.78 2194.2 1404.09 2189.36 1409.01 2186.84 1411.6 2184.97 1414.68 2183.29 1417.88 2182.7 1419 2182.03 1420.11 2181.33 1421.19 2180.68 1422.2 2179.8 1421.75 2179.08 1421.32 2176.65 1419.88 2174.24 1418.4 2171.83 1416.96 2170.89 1416.37 2169.92 1415.83 2168.95 1415.27 2171.59 1410.75 2174.69 1406.54 2177.89 1402.42 2181.08 1398.28 2183.85 1393.85 2186.55 1389.39 2187.56 1387.73 2188.78 1386.18 2189.81 1384.53 2190.42 1383.52 2191 1382.53 2190.6 1381.29Z" fill="#979797" fill-rule="nonzero" fill-opacity="1"/><path d="M2243.72 1334.29C2241.4 1334.38 2239.2 1335.12 2236.97 1335.62 2227.18 1337.82 2217.42 1340.07 2207.63 1342.3 2207.38 1342.35 2207.11 1342.32 2206.86 1342.35 2206.8 1341.63 2206.46 1340.79 2207.5 1340.43 2207.56 1340.41 2207.68 1340.16 2207.63 1340.1 2207.07 1339.13 2207.68 1338.07 2207.34 1337.06 2206.55 1334.65 2206.48 1332.11 2205.94 1329.66 2205.83 1329.18 2206.1 1329.07 2206.53 1329.05 2210.44 1328.87 2214.16 1327.63 2217.96 1326.82 2226.17 1325.07 2234.38 1323.15 2242.57 1321.33 2242.73 1321.29 2242.91 1321.29 2243.09 1321.29 2246.06 1321.2 2249.01 1321.08 2251.98 1321.02 2256.36 1320.9 2260.73 1320.86 2265.12 1320.75 2267.48 1320.68 2267.46 1320.66 2267.64 1323.09 2267.77 1324.75 2267.86 1326.42 2268.18 1328.06 2268.34 1328.91 2268 1329.12 2267.34 1329.25 2263.79 1329.95 2260.21 1330.67 2256.66 1331.37 2252.68 1332.15 2248.69 1332.94 2244.71 1333.73 2244.31 1333.8 2243.97 1333.95 2243.72 1334.29Z" fill="#979797" fill-rule="nonzero" fill-opacity="1"/><path d="M2319.23 1305C2319.32 1305.02 2319.43 1305.04 2319.52 1305.06 2319.59 1305.36 2319.7 1305.65 2319.7 1305.92 2319.59 1308.87 2319.88 1311.81 2320.06 1314.76 2316.26 1315.1 2312.46 1315.19 2308.66 1315.37 2303.34 1315.62 2298.06 1315.91 2292.77 1316.16 2289.44 1316.31 2286.11 1316.47 2282.78 1316.65 2277.52 1316.94 2272.27 1317.21 2267.01 1317.44 2263.63 1317.57 2260.26 1317.78 2256.88 1317.96 2251.66 1318.23 2246.47 1318.56 2241.25 1318.72 2240.32 1318.74 2239.4 1319.01 2238.43 1318.97 2233.8 1319.15 2229.16 1319.31 2224.53 1319.69 2223.38 1319.78 2222.21 1319.71 2221.06 1319.71 2220.55 1319.71 2220.03 1319.67 2219.58 1319.98 2214.6 1319.8 2209.68 1320.43 2204.71 1320.52 2201.51 1320.59 2198.32 1320.86 2195.12 1321.02 2189.7 1321.26 2184.28 1321.58 2178.85 1321.8 2175.43 1321.94 2172.04 1322.28 2168.62 1322.3 2168.57 1320.84 2168.75 1320.61 2170.26 1320.54 2172.19 1320.45 2174.11 1320.41 2176.04 1320.32 2181.62 1320.05 2187.2 1319.98 2192.76 1319.69 2199.01 1319.37 2205.27 1319.17 2211.52 1318.92 2217.73 1318.68 2223.94 1318.34 2230.18 1318.16 2231.55 1318.11 2232.92 1317.98 2234.27 1317.89 2235.35 1318 2236.41 1317.71 2237.47 1317.69 2243.43 1317.55 2249.37 1317.19 2255.31 1316.92 2260.01 1316.72 2264.74 1316.65 2269.44 1316.4 2274.19 1316.13 2278.93 1316.02 2283.68 1315.86 2284.54 1315.84 2284.76 1315.5 2284.56 1314.76 2283.93 1312.4 2284.06 1309.99 2284.13 1307.61 2291.6 1307.63 2299.05 1307.18 2306.52 1307.29 2308.68 1307.34 2308.68 1307.29 2308.66 1305.22 2308.75 1305.22 2308.86 1305.2 2308.95 1305.2 2312.39 1305.51 2315.81 1304.93 2319.23 1305Z" fill="#724A03" fill-rule="nonzero" fill-opacity="1"/><path d="M2169.22 1307.34C2168.26 1307.18 2167.96 1306.66 2167.92 1305.67 2167.74 1301.49 2167.42 1297.3 2167.15 1293.12 2170.24 1292.13 2173.43 1291.61 2176.56 1290.87 2181.28 1289.72 2186.03 1288.73 2190.78 1287.65 2198.09 1285.98 2205.38 1284.23 2212.72 1282.7 2215.86 1282.05 2218.93 1281.17 2221.99 1280.27 2222.59 1280.09 2222.71 1279.82 2222.71 1279.28 2222.59 1275.72 2222.53 1272.15 2222.37 1268.59 2222.3 1267.13 2221.94 1266.81 2220.55 1267.11 2218.77 1267.47 2216.97 1267.38 2215.17 1267.51 2209.03 1267.98 2202.86 1268.21 2196.7 1268.64 2191.99 1268.97 2187.29 1269.31 2182.59 1269.42 2179.57 1269.49 2176.56 1269.9 2173.54 1270.14 2172.8 1268.61 2172.96 1266.93 2172.89 1265.35 2172.64 1258.62 2172.6 1251.9 2172.49 1245.17 2172.46 1244.16 2172.64 1243.12 2172.33 1242.11 2172.08 1241.34 2171.83 1240.62 2170.93 1240.44 2170.03 1240.29 2169.34 1240.6 2168.91 1241.43 2168.84 1241.55 2168.75 1241.64 2168.71 1241.77 2167.67 1245.73 2167.85 1249.78 2167.85 1253.83 2167.83 1259.46 2168.37 1265.04 2168.44 1270.66 2167.65 1270.37 2166.88 1270.35 2166.05 1270.59 2163.98 1271.22 2161.8 1270.91 2159.68 1271.09 2156.06 1271.4 2152.44 1271.76 2148.82 1271.67 2148.05 1269.38 2147.89 1266.97 2147.51 1264.61 2146.05 1255.56 2147.85 1246.95 2151.52 1238.76 2153.95 1233.31 2157.7 1228.77 2162.9 1225.59 2163.28 1225.37 2163.58 1225.3 2164.05 1225.39 2169.65 1226.34 2175.1 1227.89 2180.59 1229.19 2192.83 1232.07 2205.11 1234.77 2217.37 1237.54 2217.6 1237.59 2217.87 1237.54 2218.25 1237.54 2217.51 1236.98 2216.72 1236.87 2216 1236.64 2204.59 1233 2193.21 1229.35 2181.8 1225.73 2180.29 1225.26 2178.76 1224.85 2177.26 1224.4 2176.58 1224.2 2176.31 1223.93 2176.56 1223.12 2178.29 1217.22 2180.83 1211.73 2184.5 1206.81 2188.03 1202.06 2191.75 1197.49 2196.25 1193.53 2200.34 1189.93 2204.32 1186.15 2209.18 1183.65 2214.56 1180.89 2220.03 1178.23 2225.9 1176.54 2226.33 1176.43 2226.87 1176.45 2227.07 1175.89 2228.78 1177.56 2231.1 1177.02 2233.1 1177.35 2241.38 1178.79 2249.03 1181.65 2255.98 1186.4 2260.15 1189.23 2264.51 1191.87 2268.29 1195.22 2271.51 1198.05 2274.57 1201.09 2277.29 1204.44 2279.02 1206.58 2280.89 1208.58 2282.38 1210.92 2284.51 1214.25 2286.63 1217.56 2288.77 1220.89 2285.71 1223.95 2282.49 1226.81 2279.29 1229.73 2277.65 1231.24 2276.03 1232.75 2274.41 1234.28 2274.01 1234.05 2273.56 1233.87 2273.2 1233.58 2270.16 1231.31 2266.58 1230.12 2263.07 1229.04 2259.9 1228.07 2256.5 1227.78 2253.1 1228.05 2249.41 1228.36 2245.86 1229.26 2242.51 1230.81 2236.72 1233.47 2232.2 1237.63 2228.94 1243.12 2227.16 1246.09 2225.99 1249.33 2225.54 1252.71 2224.98 1256.85 2224.8 1261.01 2224.91 1265.22 2225.11 1272.6 2224.98 1280 2224.98 1287.4 2224.98 1287.87 2225.05 1288.37 2224.89 1288.82 2224.48 1290.01 2225.05 1290.19 2226.04 1290.01 2237.89 1290.03 2249.77 1290.08 2261.63 1290.06 2269.66 1290.03 2277.7 1289.9 2285.73 1289.85 2286.61 1289.85 2286.99 1289.61 2286.92 1288.71 2286.85 1288.03 2286.92 1287.33 2286.92 1286.64 2287.01 1277.23 2287.08 1267.8 2287.21 1258.4 2287.3 1252.57 2285.61 1247.33 2282.17 1242.65 2281.41 1241.59 2281.3 1241.01 2282.31 1239.93 2285.26 1236.8 2288.36 1233.83 2291.35 1230.75 2292.66 1229.4 2293.45 1229.53 2294.05 1231.2 2294.12 1231.38 2294.3 1231.53 2294.41 1231.71 2294.59 1232.14 2294.8 1232.57 2294.98 1233 2297.07 1238.04 2298.73 1243.14 2299 1248.7 2299.14 1251.58 2299.39 1254.51 2299.52 1257.41 2299.75 1262.25 2299.86 1267.08 2300.06 1271.92 2300.24 1276.62 2300.35 1281.35 2300.6 1286.05 2300.78 1289.79 2300.8 1293.52 2300.89 1297.23 2300.89 1297.53 2301.03 1297.82 2301.03 1298.11 2301.07 1300.36 2302 1302.52 2301.64 1304.79 2298.55 1304.86 2295.45 1304.88 2292.36 1305.02 2286.7 1305.27 2281.03 1305.02 2275.36 1305.27 2269.12 1305.54 2262.89 1305.29 2256.66 1305.56 2251.37 1305.78 2246.08 1305.51 2240.8 1305.81 2234.83 1306.14 2228.87 1305.74 2222.91 1306.23 2216.68 1306.75 2210.38 1306.5 2204.1 1306.59 2203.33 1306.59 2202.55 1306.62 2201.78 1306.64 2201.6 1306.73 2201.42 1306.8 2201.22 1306.89 2200.48 1306.5 2199.69 1306.84 2198.95 1306.84 2195.35 1306.84 2191.72 1306.89 2188.12 1306.93 2187.49 1306.98 2186.84 1307.07 2186.21 1307.07 2180.54 1307.02 2174.89 1307.07 2169.22 1307.34Z" fill="#979797" fill-rule="nonzero" fill-opacity="1"/><path d="M2168.93 1241.48C2169.36 1240.65 2170.06 1240.33 2170.96 1240.49 2171.86 1240.65 2172.1 1241.37 2172.35 1242.15 2172.67 1243.17 2172.49 1244.2 2172.51 1245.21 2172.62 1251.94 2172.67 1258.67 2172.91 1265.4 2172.98 1266.97 2172.82 1268.66 2173.57 1270.19 2173.41 1271.43 2173.25 1272.64 2173.14 1273.88 2173.03 1274.87 2172.49 1275.54 2171.63 1275.95 2170.42 1276.53 2169.38 1275.88 2169.27 1274.51 2169.72 1274.85 2169.94 1275.54 2170.75 1275.12 2171.43 1274.78 2171.32 1274.24 2171.27 1273.7 2170.64 1268.16 2170.3 1262.61 2170.3 1257.03 2170.3 1252.75 2170.1 1248.45 2170.48 1244.18 2170.55 1243.05 2170.19 1241.93 2168.93 1241.48Z" fill="#CD9504" fill-rule="nonzero" fill-opacity="1"/><path d="M2168.93 1241.48C2170.19 1241.95 2170.55 1243.08 2170.46 1244.16 2170.08 1248.43 2170.28 1252.73 2170.28 1257 2170.28 1262.58 2170.6 1268.14 2171.25 1273.68 2171.32 1274.22 2171.43 1274.76 2170.73 1275.09 2169.92 1275.5 2169.67 1274.8 2169.25 1274.49 2168.98 1273.23 2168.71 1271.97 2168.46 1270.71 2168.39 1265.1 2167.87 1259.5 2167.87 1253.88 2167.87 1249.83 2167.72 1245.78 2168.73 1241.82 2168.77 1241.68 2168.86 1241.57 2168.93 1241.48Z" fill="#FDF6DF" fill-rule="nonzero" fill-opacity="1"/><path d="M2226.04 1290.01C2225.07 1290.19 2224.48 1290.03 2224.89 1288.82 2225.02 1288.39 2224.98 1287.87 2224.98 1287.4 2224.98 1280 2225.11 1272.62 2224.91 1265.22 2224.8 1261.01 2224.98 1256.85 2225.54 1252.71 2225.99 1249.33 2227.18 1246.09 2228.94 1243.12 2232.2 1237.63 2236.7 1233.49 2242.51 1230.81 2245.86 1229.28 2249.39 1228.36 2253.1 1228.05 2256.5 1227.75 2259.92 1228.07 2263.07 1229.04 2266.58 1230.12 2270.18 1231.31 2273.2 1233.58 2273.56 1233.85 2274.01 1234.05 2274.41 1234.28 2272.63 1235.94 2271.1 1237.86 2269.12 1239.32 2267.91 1238.71 2266.69 1238.06 2265.46 1237.47 2260.44 1235.04 2255.2 1234.71 2249.84 1235.83 2244.44 1236.96 2239.94 1239.68 2236.36 1243.93 2233.19 1247.69 2231.17 1252.03 2230.72 1256.87 2230.33 1261.03 2230.65 1265.19 2232.36 1269.2 2235.35 1276.22 2240.44 1280.81 2247.57 1283.33 2250.45 1284.34 2253.42 1284.41 2256.43 1284.41 2260.59 1284.41 2264.35 1283.06 2267.84 1281.03 2272.18 1278.49 2275.4 1274.85 2277.54 1270.21 2279.88 1265.15 2280.22 1259.95 2279.23 1254.55 2278.71 1251.65 2277.25 1249.11 2276.05 1246.47 2276.77 1245.64 2277.49 1244.79 2278.24 1243.95 2278.71 1243.41 2279.09 1243.26 2279.61 1244.04 2281.97 1247.62 2283.88 1251.27 2284.2 1255.72 2284.49 1259.97 2284.94 1264.25 2285.1 1268.52 2285.26 1272.96 2284.99 1277.41 2284.92 1281.87 2284.9 1283.8 2284.9 1285.74 2284.92 1287.67 2284.94 1288.37 2284.81 1288.75 2283.97 1288.84 2283.25 1288.93 2282.53 1289.02 2281.81 1289.02 2263.7 1289.02 2245.59 1289.02 2227.48 1289.02 2226.78 1289.02 2225.88 1288.75 2226.04 1290.01Z" fill="#545454" fill-rule="nonzero" fill-opacity="1"/><path d="M2301.66 1304.77C2302.02 1302.5 2301.09 1300.34 2301.05 1298.09 2301.05 1297.8 2300.92 1297.5 2300.92 1297.21 2300.83 1293.48 2300.8 1289.74 2300.62 1286.03 2300.38 1281.33 2300.29 1276.6 2300.08 1271.9 2299.88 1267.06 2299.77 1262.22 2299.54 1257.39 2299.41 1254.48 2299.16 1251.58 2299.03 1248.68 2298.76 1243.12 2297.09 1238.01 2295 1232.97 2294.82 1232.55 2294.61 1232.12 2294.44 1231.69 2295.58 1231.26 2296.42 1230.45 2297.25 1229.58 2299.09 1227.62 2301.05 1225.73 2302.94 1223.82 2303.66 1223.1 2304.02 1223.52 2304.38 1224.18 2305.66 1226.52 2306.45 1229.06 2307.35 1231.56 2308.57 1234.89 2308.79 1238.28 2308.93 1241.75 2309.13 1246.18 2309.42 1250.64 2309.69 1255.07 2309.94 1259.41 2310.19 1263.78 2310.46 1268.12 2310.73 1272.21 2310.97 1276.31 2311.22 1280.4 2311.49 1284.59 2311.78 1288.75 2311.99 1292.96 2312.14 1296.42 2312.48 1299.87 2312.75 1303.31 2312.84 1304.37 2312.41 1304.73 2311.36 1304.75 2310.57 1304.77 2309.58 1304.19 2308.93 1305.15 2308.84 1305.15 2308.72 1305.18 2308.63 1305.18 2308.5 1305.18 2308.36 1305.2 2308.25 1305.2 2306.09 1304.86 2303.86 1305.04 2301.66 1304.77Z" fill="#545454" fill-rule="nonzero" fill-opacity="1"/><path d="M2276.08 1246.45C2277.29 1249.08 2278.73 1251.6 2279.25 1254.53 2280.22 1259.93 2279.9 1265.13 2277.56 1270.19 2275.42 1274.82 2272.21 1278.47 2267.86 1281.01 2264.38 1283.06 2260.62 1284.41 2256.46 1284.39 2253.44 1284.39 2250.47 1284.32 2247.59 1283.31 2240.48 1280.81 2235.37 1276.2 2232.38 1269.18 2230.67 1265.17 2230.35 1261.01 2230.74 1256.85 2231.19 1251.99 2233.19 1247.67 2236.39 1243.91 2239.96 1239.66 2244.46 1236.93 2249.86 1235.81 2255.22 1234.68 2260.48 1235.04 2265.48 1237.45 2266.72 1238.04 2267.91 1238.69 2269.15 1239.3 2269.73 1239.77 2270.34 1240.26 2270.92 1240.74 2271.58 1241.37 2272.25 1241.97 2272.9 1242.6 2273.02 1242.81 2273.15 1242.99 2273.26 1243.19 2273.33 1244.09 2274.05 1244.36 2274.7 1244.72 2275.06 1245.39 2275.51 1245.98 2276.08 1246.45ZM2237.78 1257.48C2237.53 1258.15 2236.68 1256.46 2236.59 1257.79 2235.31 1257.34 2234.07 1256.8 2232.99 1255.95 2232.81 1255.79 2232.7 1255.45 2232.38 1255.63 2232.11 1255.77 2232.2 1256.08 2232.2 1256.33 2232.31 1258.71 2232.16 1261.12 2232.4 1263.53 2232.72 1266.77 2234.25 1269.45 2235.82 1272.1 2236.99 1274.06 2238.5 1275.77 2240.32 1277.19 2242.89 1279.19 2245.7 1280.63 2248.81 1281.53 2251.3 1282.25 2253.89 1282 2256.46 1282.09 2260.66 1282.25 2264.31 1280.7 2267.77 1278.6 2269.8 1277.39 2271.55 1275.77 2273.02 1273.88 2275 1271.34 2276.61 1268.55 2277.34 1265.4 2278.12 1261.95 2277.97 1258.44 2277.67 1254.93 2277.4 1251.65 2275.81 1248.95 2274.21 1246.23 2273.06 1244.27 2271.49 1242.69 2269.75 1241.25 2267.26 1239.18 2264.4 1237.7 2261.29 1236.91 2257.49 1235.92 2253.55 1236.24 2249.68 1236.62 2248.81 1236.71 2248.6 1237.09 2249.1 1237.9 2249.8 1239.07 2250.65 1240.17 2251.03 1241.5 2250.04 1241.84 2249.03 1242.09 2248.04 1242.51 2245.5 1243.62 2243.2 1245.06 2241.36 1247.15 2240.95 1247.62 2240.59 1248.07 2240.93 1248.72 2237.53 1248.12 2234.11 1251.81 2236.09 1255.52 2236.54 1256.31 2237.24 1256.82 2237.78 1257.48Z" fill="#A101C3" fill-rule="nonzero" fill-opacity="1"/><path d="M2274.73 1244.72C2274.07 1244.38 2273.35 1244.09 2273.29 1243.19 2273.76 1243.39 2273.98 1243.01 2274.25 1242.76 2281.11 1236.33 2287.98 1229.87 2294.84 1223.46 2300.58 1218.08 2306.34 1212.75 2312.1 1207.39 2312.82 1206.72 2313.54 1206.06 2314.01 1205.21 2314.69 1205.97 2314.37 1206.51 2313.72 1207.12 2311.54 1209.17 2309.4 1211.26 2307.24 1213.33 2306.77 1213.78 2306.47 1214.23 2306.54 1214.91 2305.19 1215.56 2304.11 1216.64 2303.03 1217.63 2300.4 1220.01 2297.77 1222.38 2295.11 1224.74 2294.66 1225.14 2294.3 1225.62 2293.9 1226.07 2293.22 1226.85 2292.7 1227.6 2291.56 1228.02 2290.32 1228.47 2289.35 1229.73 2288.36 1230.72 2286.07 1232.97 2283.82 1235.27 2281.52 1237.54 2280.73 1238.33 2279.88 1239.05 2279.05 1239.77 2278.35 1240.38 2277.92 1241.05 2277.76 1242.02 2277.47 1243.86 2276.53 1244.61 2274.73 1244.72Z" fill="#724A03" fill-rule="nonzero" fill-opacity="1"/><path d="M2284.15 1307.63C2284.09 1310.04 2283.95 1312.42 2284.58 1314.78 2284.78 1315.53 2284.56 1315.86 2283.7 1315.89 2278.96 1316.02 2274.19 1316.16 2269.46 1316.43 2264.76 1316.7 2260.03 1316.74 2255.33 1316.94 2249.39 1317.21 2243.45 1317.57 2237.49 1317.71 2236.43 1317.73 2235.37 1318.02 2234.29 1317.91 2234.34 1314.74 2234.23 1311.57 2234.56 1308.39 2237.02 1308.3 2239.45 1308.19 2241.9 1308.15 2252.59 1307.97 2263.3 1307.97 2273.98 1307.81 2277.36 1307.76 2280.76 1307.49 2284.15 1307.63Z" fill="#CD9504" fill-rule="nonzero" fill-opacity="1"/><path d="M2284.15 1307.63C2280.76 1307.49 2277.38 1307.74 2273.98 1307.81 2263.3 1307.97 2252.59 1307.97 2241.9 1308.15 2239.47 1308.19 2237.02 1308.3 2234.56 1308.39 2230.4 1308.42 2226.24 1308.19 2222.08 1308.55 2220.21 1308.71 2218.3 1308.62 2216.41 1308.6 2207 1308.53 2197.57 1308.82 2188.17 1308.96 2182.21 1309.05 2176.22 1309 2170.26 1309.14 2170.01 1309.14 2169.74 1309.14 2169.49 1309.16 2167.67 1309.34 2167.15 1309.83 2167.2 1311.63 2167.24 1313.88 2167.4 1316.13 2167.51 1318.38 2167.42 1318.38 2167.33 1318.41 2167.27 1318.41 2165.38 1318.45 2165.35 1318.45 2165.4 1316.61 2165.42 1315.59 2165.31 1314.67 2164.59 1313.88 2164.05 1313.28 2164.03 1312.6 2164.34 1311.86 2164.81 1310.76 2165.29 1309.68 2165.67 1308.53 2165.94 1307.74 2166.39 1307.52 2167.18 1307.54 2167.87 1307.56 2168.62 1307.83 2169.27 1307.29 2174.92 1307.02 2180.59 1306.98 2186.23 1307 2186.86 1307 2187.52 1306.91 2188.15 1306.86 2188.39 1306.93 2188.64 1307.02 2188.86 1307.02 2192.71 1307.02 2196.56 1307.02 2200.41 1307.02 2200.7 1307.02 2201.02 1307.07 2201.24 1306.8 2201.42 1306.71 2201.6 1306.64 2201.8 1306.55 2202.01 1306.77 2202.25 1306.77 2202.52 1306.77 2207.85 1306.62 2213.17 1306.91 2218.5 1306.57 2223.94 1306.21 2229.41 1306.66 2234.85 1306.3 2240.08 1305.96 2245.32 1306.37 2250.56 1306.05 2256.12 1305.72 2261.72 1306.14 2267.3 1305.78 2272.52 1305.45 2277.76 1305.83 2283.03 1305.54 2288.9 1305.22 2294.8 1305.6 2300.67 1305.24 2303.19 1305.09 2305.75 1305.2 2308.27 1305.2 2308.41 1305.2 2308.54 1305.2 2308.66 1305.18 2308.68 1307.25 2308.68 1307.29 2306.52 1307.25 2299.07 1307.2 2291.6 1307.65 2284.15 1307.63Z" fill="#FDF6DF" fill-rule="nonzero" fill-opacity="1"/><path d="M2271.46 1240.26C2270.81 1238.91 2271.89 1238.31 2272.66 1237.65 2275.9 1234.8 2279.16 1231.98 2282.42 1229.15 2283.52 1228.2 2284.65 1227.28 2285.75 1226.34 2286.04 1226.09 2286.34 1226.02 2286.7 1226.04 2284.62 1228.43 2282.2 1230.43 2279.83 1232.52 2278.55 1233.65 2277.45 1234.93 2276.1 1236.03 2274.52 1237.32 2273.13 1238.82 2271.64 1240.24 2271.6 1240.24 2271.53 1240.24 2271.46 1240.26Z" fill="#FDF6DF" fill-rule="nonzero" fill-opacity="1"/><path d="M2271.46 1240.26C2271.53 1240.26 2271.6 1240.24 2271.67 1240.24 2272.54 1240.8 2272.68 1241.75 2272.93 1242.63 2272.25 1242 2271.6 1241.39 2270.95 1240.76 2271.1 1240.58 2271.28 1240.42 2271.46 1240.26Z" fill="#979797" fill-rule="nonzero" fill-opacity="1"/><path d="M2314.3 1204.74C2314.33 1204.94 2314.26 1205.05 2314.06 1205.1 2314.15 1204.98 2314.21 1204.85 2314.3 1204.74Z" fill="#979797" fill-rule="nonzero" fill-opacity="1"/><path d="M2320.06 1314.76C2319.88 1311.81 2319.57 1308.89 2319.7 1305.92 2319.73 1305.63 2319.59 1305.33 2319.52 1305.06 2320.87 1305.18 2322.25 1304.52 2323.62 1305.13 2324.14 1306.08 2323.91 1307.16 2324 1308.15 2324.16 1310.37 2324.56 1312.58 2324.41 1314.83 2323.03 1314.85 2321.66 1314.85 2320.27 1314.87 2320.2 1314.81 2320.13 1314.78 2320.06 1314.76Z" fill="#CD9504" fill-rule="nonzero" fill-opacity="1"/><path d="M2308.27 1305.27C2305.73 1305.27 2303.19 1305.15 2300.67 1305.31 2294.8 1305.67 2288.88 1305.29 2283.03 1305.6 2277.79 1305.87 2272.54 1305.51 2267.3 1305.85 2261.72 1306.21 2256.12 1305.78 2250.56 1306.12 2245.32 1306.44 2240.08 1306.03 2234.85 1306.37 2229.39 1306.73 2223.94 1306.28 2218.5 1306.64 2213.17 1306.98 2207.85 1306.71 2202.52 1306.84 2202.25 1306.84 2202.01 1306.84 2201.8 1306.62 2202.57 1306.59 2203.35 1306.57 2204.12 1306.57 2210.4 1306.48 2216.7 1306.73 2222.93 1306.21 2228.92 1305.72 2234.88 1306.12 2240.82 1305.78 2246.1 1305.47 2251.39 1305.76 2256.68 1305.54 2262.91 1305.27 2269.15 1305.51 2275.38 1305.24 2281.05 1305 2286.74 1305.24 2292.39 1305 2295.47 1304.86 2298.58 1304.84 2301.66 1304.77 2303.86 1305.04 2306.09 1304.86 2308.27 1305.27Z" fill="#FCFCFC" fill-rule="nonzero" fill-opacity="1"/><path d="M2201.22 1306.86C2200.99 1307.11 2200.68 1307.09 2200.39 1307.09 2196.54 1307.09 2192.69 1307.09 2188.84 1307.09 2188.6 1307.09 2188.35 1306.98 2188.12 1306.93 2191.72 1306.89 2195.35 1306.84 2198.95 1306.84 2199.69 1306.82 2200.48 1306.48 2201.22 1306.86Z" fill="#FCFCFC" fill-rule="nonzero" fill-opacity="1"/><path d="M2251.08 1241.5C2250.72 1240.15 2249.84 1239.07 2249.14 1237.9 2248.65 1237.09 2248.85 1236.71 2249.73 1236.62 2253.62 1236.24 2257.54 1235.92 2261.34 1236.91 2264.44 1237.7 2267.3 1239.18 2269.8 1241.25 2271.53 1242.69 2273.11 1244.27 2274.25 1246.23 2275.85 1248.95 2277.43 1251.63 2277.72 1254.93 2278.01 1258.44 2278.19 1261.95 2277.38 1265.4 2276.66 1268.55 2275.04 1271.34 2273.06 1273.88 2271.6 1275.77 2269.84 1277.37 2267.82 1278.6 2264.35 1280.67 2260.69 1282.25 2256.5 1282.09 2253.94 1282 2251.33 1282.25 2248.85 1281.53 2245.77 1280.63 2242.93 1279.19 2240.37 1277.19 2238.55 1275.77 2237.04 1274.06 2235.87 1272.1 2234.27 1269.45 2232.76 1266.77 2232.45 1263.53 2232.2 1261.12 2232.36 1258.74 2232.25 1256.33 2232.25 1256.08 2232.16 1255.77 2232.43 1255.63 2232.74 1255.47 2232.83 1255.81 2233.03 1255.95 2234.11 1256.8 2235.35 1257.34 2236.63 1257.79 2236.66 1257.93 2236.68 1258.08 2236.72 1258.22 2236.43 1261.03 2236.79 1263.78 2237.76 1266.43 2238.91 1269.56 2240.84 1272.1 2243.41 1274.24 2247.91 1278 2253.06 1279.03 2258.68 1278.15 2263.66 1277.39 2267.53 1274.71 2270.45 1270.77 2272.86 1267.53 2273.89 1263.78 2273.87 1259.68 2273.83 1253.27 2271.08 1248.21 2266.04 1244.56 2261.77 1241.46 2256.82 1240.62 2251.59 1241.59 2251.37 1241.55 2251.21 1241.52 2251.08 1241.5Z" fill="#D900DF" fill-rule="nonzero" fill-opacity="1"/><path d="M2251.08 1241.5C2251.24 1241.52 2251.39 1241.55 2251.53 1241.55 2251.84 1242.13 2251.44 1243.23 2252.7 1243.17 2253.8 1243.1 2254.93 1243.03 2256.05 1243.08 2261.23 1243.28 2265.34 1245.57 2268.43 1249.67 2270.74 1252.75 2271.67 1256.28 2271.51 1260.18 2271.28 1265.33 2269.01 1269.4 2265.01 1272.46 2258.48 1277.43 2248.35 1276.6 2242.82 1269.96 2240.59 1267.31 2239.27 1264.23 2239.02 1260.74 2238.88 1258.98 2238.57 1258.53 2236.72 1258.2 2236.7 1258.06 2236.68 1257.9 2236.63 1257.77 2236.72 1256.46 2237.58 1258.13 2237.83 1257.45 2239.24 1258.22 2240.66 1258.2 2242.1 1257.52 2242.1 1259.03 2241.92 1260.56 2242.17 1262.02 2243.32 1269.18 2249.48 1274.42 2257.76 1273.11 2262.87 1272.33 2266.49 1269.22 2268.07 1264.27 2269.69 1259.12 2268.81 1254.28 2264.83 1250.37 2261.16 1246.77 2256.73 1245.78 2251.78 1247.13 2251.57 1246.02 2250.79 1245.44 2249.77 1245.33 2248.78 1245.21 2248.27 1246.05 2247.86 1246.77 2247.39 1247.6 2247.95 1248.21 2248.54 1248.75 2247.97 1248.66 2247.55 1248.99 2247.16 1249.31 2245.99 1250.25 2244.96 1251.29 2244.22 1252.62 2243.97 1251.2 2243.14 1250.14 2242.12 1249.22 2242.08 1249.02 2241.94 1248.93 2241.74 1248.95 2241.63 1248.93 2241.54 1248.9 2241.43 1248.88 2241.31 1248.81 2241.2 1248.75 2241.09 1248.68L2241.07 1248.68C2240.73 1248.03 2241.09 1247.55 2241.49 1247.1 2243.34 1244.99 2245.63 1243.57 2248.18 1242.47 2249.05 1242.11 2250.09 1241.86 2251.08 1241.5Z" fill="#7C0096" fill-rule="nonzero" fill-opacity="1"/><path d="M2242.06 1257.54C2240.61 1258.22 2239.2 1258.24 2237.78 1257.48 2237.24 1256.82 2236.54 1256.31 2236.14 1255.54 2234.16 1251.81 2237.58 1248.12 2240.98 1248.75 2240.98 1248.75 2241 1248.75 2241 1248.75 2241.02 1248.95 2241.16 1248.97 2241.34 1248.95 2241.45 1248.97 2241.54 1248.99 2241.65 1249.02 2241.79 1249.11 2241.9 1249.2 2242.03 1249.29 2243.05 1250.21 2243.88 1251.27 2244.12 1252.68 2244.33 1254.51 2243.74 1256.01 2242.42 1257.25 2242.21 1257.25 2242.08 1257.32 2242.06 1257.54Z" fill="#FCFCFC" fill-rule="nonzero" fill-opacity="1"/><path d="M2236.68 1258.22C2238.52 1258.53 2238.84 1259.01 2238.97 1260.76 2239.22 1264.23 2240.55 1267.31 2242.78 1269.99 2248.31 1276.62 2258.46 1277.46 2264.96 1272.48 2268.99 1269.42 2271.24 1265.35 2271.46 1260.2 2271.64 1256.31 2270.7 1252.77 2268.38 1249.69 2265.32 1245.6 2261.18 1243.3 2256.01 1243.1 2254.9 1243.05 2253.78 1243.12 2252.65 1243.19 2251.39 1243.26 2251.8 1242.15 2251.48 1241.57 2256.7 1240.6 2261.65 1241.43 2265.93 1244.54 2270.99 1248.21 2273.71 1253.25 2273.76 1259.66 2273.78 1263.75 2272.75 1267.51 2270.34 1270.75 2267.41 1274.71 2263.54 1277.37 2258.57 1278.13 2252.95 1279.01 2247.79 1277.97 2243.29 1274.22 2240.73 1272.08 2238.79 1269.54 2237.65 1266.41 2236.75 1263.78 2236.39 1261.03 2236.68 1258.22Z" fill="#B900C2" fill-rule="nonzero" fill-opacity="1"/><path d="M2242.42 1257.23C2243.74 1255.99 2244.35 1254.48 2244.12 1252.66 2244.85 1251.33 2245.9 1250.28 2247.07 1249.35 2247.46 1249.04 2247.86 1248.7 2248.45 1248.79 2249.71 1249.65 2250.27 1249.56 2251.12 1248.27 2251.35 1247.94 2251.51 1247.55 2251.71 1247.17 2256.66 1245.82 2261.09 1246.81 2264.76 1250.41 2268.74 1254.3 2269.62 1259.16 2268 1264.32 2266.45 1269.27 2262.8 1272.37 2257.69 1273.16 2249.41 1274.44 2243.25 1269.2 2242.1 1262.07 2241.88 1260.6 2242.06 1259.07 2242.03 1257.57 2242.03 1257.57 2242.03 1257.54 2242.03 1257.54 2242.28 1257.57 2242.33 1257.36 2242.42 1257.23ZM2262.17 1260.09C2262.17 1256.24 2259.07 1253.13 2255.22 1253.13 2251.37 1253.13 2248.27 1256.24 2248.24 1260.09 2248.24 1263.89 2251.33 1267.04 2255.06 1267.06 2259.02 1267.06 2262.17 1264 2262.17 1260.09Z" fill="#25002C" fill-rule="nonzero" fill-opacity="1"/><path d="M2251.69 1247.17C2251.48 1247.53 2251.33 1247.91 2251.1 1248.27 2250.25 1249.56 2249.71 1249.65 2248.42 1248.79 2247.84 1248.25 2247.28 1247.67 2247.75 1246.81 2248.15 1246.07 2248.69 1245.26 2249.66 1245.37 2250.7 1245.48 2251.48 1246.05 2251.69 1247.17Z" fill="#FCFCFC" fill-rule="nonzero" fill-opacity="1"/><path d="M2242.03 1249.26C2241.9 1249.17 2241.79 1249.08 2241.65 1248.99 2241.83 1248.99 2241.97 1249.06 2242.03 1249.26Z" fill="#A101C3" fill-rule="nonzero" fill-opacity="1"/><path d="M2241.34 1248.95C2241.18 1248.97 2241.02 1248.95 2241 1248.75 2241.11 1248.81 2241.22 1248.88 2241.34 1248.95Z" fill="#A101C3" fill-rule="nonzero" fill-opacity="1"/><path d="M2242.42 1257.23C2242.33 1257.36 2242.3 1257.57 2242.06 1257.52 2242.08 1257.3 2242.21 1257.23 2242.42 1257.23Z" fill="#7C0096" fill-rule="nonzero" fill-opacity="1"/><path d="M2262.17 1260.09C2262.17 1263.98 2259.04 1267.06 2255.08 1267.04 2251.35 1267.04 2248.27 1263.87 2248.27 1260.06 2248.27 1256.22 2251.37 1253.11 2255.24 1253.11 2259.04 1253.13 2262.17 1256.24 2262.17 1260.09Z" fill="#D900DF" fill-rule="nonzero" fill-opacity="1"/></g></g></g></g></svg>