<svg width="164" height="164" viewBox="0 0 164 164" fill="none" xmlns="http://www.w3.org/2000/svg">
<circle cx="82.2718" cy="81.6273" r="81.6156" fill="#1C273B"/>
<path d="M84.0591 91.4721L95.0299 113.673H40.1758L80.8085 39.5312L123.473 104.876C124.15 106.971 125.098 111.411 123.473 112.416C121.441 113.673 119.003 108.227 115.346 113.673C113.23 116.824 113.538 119.874 114.331 121.901C114.678 122.524 115.016 123.132 115.346 123.726C115.009 123.301 114.635 122.676 114.331 121.901C101.878 99.506 79.2272 58.7975 80.8085 61.7318C82.4338 64.7477 81.4857 67.7357 80.8085 68.8527L64.9617 97.3364C70.7857 97.7553 82.7589 98.3417 84.0591 97.3364C85.3593 96.3311 84.6009 93.008 84.0591 91.4721Z" fill="#FFDA22"/>
</svg>
