<svg width="2062" height="2062" xmlns="http://www.w3.org/2000/svg" xmlns:xlink="http://www.w3.org/1999/xlink" overflow="hidden"><defs><clipPath id="clip0"><rect x="935" y="206" width="2062" height="2062"/></clipPath><clipPath id="clip1"><rect x="1279" y="551" width="1376" height="1373"/></clipPath><clipPath id="clip2"><rect x="1279" y="551" width="1376" height="1373"/></clipPath><clipPath id="clip3"><rect x="1279" y="551" width="4921" height="1373"/></clipPath></defs><g clip-path="url(#clip0)" transform="translate(-935 -206)"><path d="M936 1237.5C936 668.37 1397.37 207 1966.5 207 2535.63 207 2997 668.37 2997 1237.5 2997 1806.63 2535.63 2268 1966.5 2268 1397.37 2268 936 1806.63 936 1237.5Z" fill="#FFFFFF" fill-rule="evenodd" fill-opacity="1"/><g clip-path="url(#clip1)"><g clip-path="url(#clip2)"><g clip-path="url(#clip3)"><path d="M812.422 847.786 812.422 1039.56C812.091 1223.26 663.257 1372.09 479.561 1372.43L252.447 1372.43 252.447 1119.95 475.061 1119.95C521.919 1119.85 559.88 1081.89 559.975 1035.04L559.975 812.422 812.422 812.422Z" fill="#7F46F0" fill-rule="evenodd" fill-opacity="1" transform="matrix(1.00092 0 0 1 1279 551.287)"/><path d="M524.64 559.975 332.861 559.975C149.164 560.306 0.331232 709.139 4.37284e-06 892.836L0 1119.95 252.447 1119.95 252.447 897.364C252.542 850.491 290.516 812.516 337.389 812.422L560.003 812.422 560.003 559.975Z" fill="#D34FA0" fill-rule="evenodd" fill-opacity="1" transform="matrix(1.00092 0 0 1 1279 551.287)"/><path d="M847.786 812.422 1039.56 812.422C1223.26 812.091 1372.09 663.257 1372.43 479.561L1372.43 252.447 1119.98 252.447 1119.98 475.061C1119.88 521.934 1081.91 559.909 1035.04 560.003L812.422 560.003 812.422 812.422Z" fill="#0AA5E8" fill-rule="evenodd" fill-opacity="1" transform="matrix(1.00092 0 0 1 1279 551.287)"/><path d="M559.975 524.64 559.975 332.861C560.306 149.164 709.139 0.331232 892.836 4.37284e-06L1119.95 0 1119.95 252.447 897.364 252.447C850.484 252.526 812.501 290.51 812.422 337.389L812.422 560.003 559.975 560.003Z" fill="#38E4DE" fill-rule="evenodd" fill-opacity="1" transform="matrix(1.00092 0 0 1 1279 551.287)"/><path d="M3869.18 921.551C3835.68 950.685 3792.9 966.94 3748.51 967.404 3661.64 967.404 3606.13 908.282 3606.13 817.781 3606.13 724.843 3660.58 665.722 3748.51 665.722 3795.59 665.722 3843.85 686.241 3869.18 711.575ZM4071.94 500.28 3869.18 500.28 3869.18 555.963C3829.38 513.721 3769.05 489.591 3690.59 489.591 3518.04 489.591 3399.77 625.974 3399.77 817.838 3399.77 1007.3 3518.04 1142.45 3690.59 1142.45 3775.07 1142.45 3841.44 1103.84 3883.69 1053.15L3883.69 1131.58 4071.94 1131.58 4071.94 500.395Z" fill="#FFFFFF" fill-rule="nonzero" fill-opacity="1" transform="matrix(1.00092 0 0 1 1279 551.287)"/><path d="M3052.09 274.743 3254.82 274.743 3254.82 1131.53 3052.09 1131.53Z" fill="#FFFFFF" fill-rule="nonzero" fill-opacity="1" transform="matrix(1.00092 0 0 1 1279 551.287)"/><path d="M2714.99 739.373 2477.13 739.373C2486.79 683.863 2531.58 637.981 2606.23 637.981 2680.89 637.981 2714.85 674.205 2714.85 724.872ZM2811.54 927.626C2771.7 956.571 2698.11 987.951 2630.51 987.951 2537.6 987.951 2485.7 940.895 2473.66 867.273L2877.91 867.273C2885.13 844.347 2891.18 786.429 2891.18 746.595 2891.18 601.787 2799.47 483.544 2607.46 483.544 2404.74 483.544 2271.97 628.352 2271.97 817.81 2271.97 1004.86 2380.58 1148.44 2618.33 1148.44 2725.71 1148.44 2821.05 1115.85 2886.22 1062.78Z" fill="#FFFFFF" fill-rule="nonzero" fill-opacity="1" transform="matrix(1.00092 0 0 1 1279 551.287)"/><path d="M1693.91 1131.53 1896.63 1131.53 1896.63 831.078C1896.78 751.094 1961.57 686.284 2041.56 686.127L2160.8 686.127 2160.8 483.516 2043.88 483.516C1851.15 483.516 1693.79 640.876 1693.79 833.6L1693.79 1131.64Z" fill="#FFFFFF" fill-rule="nonzero" fill-opacity="1" transform="matrix(1.00092 0 0 1 1279 551.287)"/><path d="M4455.55 500.395 4455.55 807.98C4455.55 975.199 4713.13 989.069 4713.13 792.247L4713.13 500.395 4915.86 500.395 4915.86 1330.56 4713.13 1330.56 4713.13 1122.9C4486.25 1202.23 4252.83 1059.68 4252.83 802.649L4252.83 500.395Z" fill="#FFFFFF" fill-rule="nonzero" fill-opacity="1" transform="matrix(1.00092 0 0 1 1279 551.287)"/></g></g></g></g></svg>