<svg width="789" height="788" xmlns="http://www.w3.org/2000/svg" xmlns:xlink="http://www.w3.org/1999/xlink" overflow="hidden"><defs><clipPath id="clip0"><rect x="1805" y="843" width="789" height="788"/></clipPath><clipPath id="clip1"><rect x="1977" y="996" width="446" height="483"/></clipPath><clipPath id="clip2"><rect x="1977" y="996" width="446" height="483"/></clipPath><clipPath id="clip3"><rect x="1977" y="996" width="446" height="483"/></clipPath></defs><g clip-path="url(#clip0)" transform="translate(-1805 -843)"><path d="M1809.5 1238C1809.5 1022.33 1984.56 847.5 2200.5 847.5 2416.44 847.5 2591.5 1022.33 2591.5 1238 2591.5 1453.67 2416.44 1628.5 2200.5 1628.5 1984.56 1628.5 1809.5 1453.67 1809.5 1238Z" stroke="#FFFFFF" stroke-width="4.58333" stroke-linecap="butt" stroke-linejoin="miter" stroke-miterlimit="8" stroke-opacity="1" fill="#FFFFFF" fill-rule="evenodd" fill-opacity="1"/><g clip-path="url(#clip1)"><g clip-path="url(#clip2)"><g clip-path="url(#clip3)"><path d="M298.666 270.247 419.359 149.929C428.416 140.906 433.495 128.639 433.466 115.854L433.67 18.6049C433.659 13.6159 431.732 8.82192 428.286 5.21345L196.748 236.241C177.929 254.894 177.795 285.271 196.448 304.09 196.548 304.191 196.648 304.291 196.748 304.39L360.001 467.132C378.82 485.857 409.255 485.78 427.98 466.961 446.705 448.142 446.628 417.707 427.809 398.982Z" fill="#008C62" fill-rule="nonzero" fill-opacity="1" transform="matrix(1.00118 0 0 1 1978.76 997)"/><path d="M414.793 0 51.1122 0C21.7057 0 0 22.2168 0 52.5434L0 431.967C-0.341169 458.631 20.998 480.523 47.6623 480.864 48.0854 480.87 48.5084 480.87 48.9314 480.864 75.4812 481.319 97.3733 460.166 97.8288 433.616 97.8383 433.066 97.8383 432.516 97.8288 431.967L97.8288 93.6035 339.76 93.6035 428.355 5.45197C424.769 1.85723 419.869-0.112901 414.793 8.12407e-08Z" fill="#00E6A0" fill-rule="nonzero" fill-opacity="1" transform="matrix(1.00118 0 0 1 1978.76 997)"/></g></g></g></g></svg>