<svg width="834" height="834" xmlns="http://www.w3.org/2000/svg" xmlns:xlink="http://www.w3.org/1999/xlink" overflow="hidden"><defs><clipPath id="clip0"><rect x="-2296" y="742" width="834" height="834"/></clipPath><clipPath id="clip1"><rect x="-2250" y="794" width="742" height="742"/></clipPath><clipPath id="clip2"><rect x="-2250" y="794" width="742" height="742"/></clipPath><clipPath id="clip3"><rect x="-2250" y="794" width="742" height="742"/></clipPath><clipPath id="clip4"><rect x="-2250" y="794" width="742" height="742"/></clipPath></defs><g clip-path="url(#clip0)" transform="translate(2296 -742)"><path d="M-2290.5 1161C-2290.5 933.182-2105.82 748.5-1878 748.5-1650.18 748.5-1465.5 933.182-1465.5 1161-1465.5 1388.82-1650.18 1573.5-1878 1573.5-2105.82 1573.5-2290.5 1388.82-2290.5 1161Z" stroke="#FFFFFF" stroke-width="4.58333" stroke-linecap="butt" stroke-linejoin="miter" stroke-miterlimit="8" stroke-opacity="1" fill="#FFFFFF" fill-rule="evenodd" fill-opacity="1"/><g clip-path="url(#clip1)"><g clip-path="url(#clip2)"><g clip-path="url(#clip3)"><g clip-path="url(#clip4)"><path d="M525.451 2468.72C524.715 2470.42 523.856 2472.08 522.879 2473.66 517.788 2482.22 514.724 2491.84 513.921 2501.76 522.07 2518.22 531.472 2534.02 542.042 2549.04 542.612 2543.17 543.909 2537.4 545.902 2531.85 548.182 2524.76 548.096 2517.13 545.658 2510.09 537.984 2496.78 531.232 2482.95 525.451 2468.72Z" fill="#000000" fill-rule="nonzero" fill-opacity="1" transform="matrix(1 0 0 1.00135 -2704.48 -1174.09)"/><path d="M398.658 1317.89C405.239 1314.89 410.635 1309.79 413.997 1303.38 418.521 1288.44 424.074 1273.83 430.617 1259.66 428.829 1260.27 426.996 1260.75 425.134 1261.07 415.558 1262.89 406.559 1266.98 398.895 1273.01 392.245 1290.52 386.96 1308.51 383.09 1326.83 387.857 1323.17 393.093 1320.17 398.658 1317.89Z" fill="#000000" fill-rule="nonzero" fill-opacity="1" transform="matrix(1 0 0 1.00135 -2603.2 -237.075)"/><path d="M1446.47 345.914C1452.24 350.313 1459.36 352.574 1466.61 352.309 1481.37 348.972 1496.34 346.691 1511.43 345.484 1509.83 344.073 1508.36 342.528 1507.03 340.867 1501.35 333.931 1494.21 328.333 1486.11 324.469 1467.86 327.204 1449.87 331.417 1432.3 337.066 1437.37 339.416 1442.13 342.388 1446.47 345.914Z" fill="#000000" fill-rule="nonzero" fill-opacity="1" transform="matrix(1 0 0 1.00135 -3415.28 487.732)"/><path d="M1150.65 436.449C1157.11 439.466 1164.4 440.175 1171.32 438.457 1185.13 431.945 1199.4 426.442 1214 421.992 1212.21 420.975 1210.51 419.81 1208.92 418.509 1201.83 412.862 1193.55 408.886 1184.71 406.876 1167.42 413.465 1150.7 421.447 1134.71 430.743 1140.24 431.958 1145.6 433.875 1150.65 436.449Z" fill="#000000" fill-rule="nonzero" fill-opacity="1" transform="matrix(1 0 0 1.00135 -3184.96 423.853)"/><path d="M502.331 1044.56C509.33 1043.04 515.616 1039.21 520.182 1033.7 527.69 1020.03 536.143 1006.91 545.48 994.422 543.513 994.661 541.531 994.738 539.552 994.652 530.052 994.386 520.625 996.38 512.046 1000.47 501.865 1016.25 492.941 1032.81 485.355 1050 490.745 1047.43 496.455 1045.6 502.331 1044.56Z" fill="#000000" fill-rule="nonzero" fill-opacity="1" transform="matrix(1 0 0 1.00135 -2682.36 -31.497)"/><path d="M887.977 591.363C895.073 592.945 902.498 592.007 908.977 588.71 921.074 579.459 933.809 571.075 947.087 563.62 945.147 563.009 943.26 562.238 941.448 561.315 933.268 557.25 924.262 555.123 915.128 555.098 899.593 565.284 884.888 576.681 871.149 589.184 876.829 589.181 882.486 589.913 887.977 591.363Z" fill="#000000" fill-rule="nonzero" fill-opacity="1" transform="matrix(1 0 0 1.00135 -2980.97 308.992)"/><path d="M668.182 799.013C675.614 799.033 682.814 796.43 688.515 791.662 692.823 786.678 697.284 781.8 701.898 777.028 707.929 770.818 714.156 764.89 720.578 759.244 718.539 759.058 716.518 758.702 714.539 758.177 705.603 755.932 696.267 755.798 687.27 757.784 686.329 758.732 685.381 759.659 684.454 760.622 672.305 773.132 661.077 786.505 650.857 800.636 656.535 799.331 662.361 798.785 668.182 799.013Z" fill="#000000" fill-rule="nonzero" fill-opacity="1" transform="matrix(1 0 0 1.00135 -2810.47 153.009)"/><path d="M361.03 1616.48C367.041 1611.98 371.367 1605.59 373.316 1598.34 374.727 1582.98 377.168 1567.74 380.622 1552.71 379.005 1553.68 377.315 1554.52 375.569 1555.23 366.513 1559.09 358.509 1565.06 352.22 1572.63 349.325 1591.1 347.821 1609.75 347.722 1628.44 351.616 1623.89 356.09 1619.87 361.03 1616.48Z" fill="#000000" fill-rule="nonzero" fill-opacity="1" transform="matrix(1 0 0 1.00135 -2575.85 -464.187)"/><path d="M2645.96 3075.5C2638.87 3073.91 2631.44 3074.85 2624.96 3078.14 2612.87 3087.39 2600.14 3095.77 2586.87 3103.23 2588.8 3103.84 2590.69 3104.61 2592.49 3105.54 2600.67 3109.6 2609.68 3111.73 2618.81 3111.76 2634.35 3101.57 2649.05 3090.17 2662.79 3077.67 2657.11 3077.67 2651.46 3076.94 2645.96 3075.5Z" fill="#000000" fill-rule="nonzero" fill-opacity="1" transform="matrix(1 0 0 1.00135 -4308.88 -1643.7)"/><path d="M3320.21 1918.08C3314.2 1922.57 3309.88 1928.94 3307.93 1936.18 3306.52 1951.54 3304.08 1966.79 3300.62 1981.82 3302.24 1980.85 3303.92 1980 3305.67 1979.29 3314.73 1975.41 3322.74 1969.44 3329.03 1961.85 3331.92 1943.4 3333.43 1924.75 3333.52 1906.07 3329.63 1910.64 3325.15 1914.68 3320.21 1918.08Z" fill="#000000" fill-rule="nonzero" fill-opacity="1" transform="matrix(1 0 0 1.00135 -4861.3 -738.037)"/><path d="M2076.5 3352.63C2070.73 3348.23 2063.62 3345.97 2056.37 3346.22 2041.61 3349.56 2026.63 3351.85 2011.54 3353.06 2013.13 3354.47 2014.6 3356.01 2015.94 3357.66 2021.62 3364.6 2028.76 3370.2 2036.85 3374.07 2055.1 3371.33 2073.1 3367.12 2090.67 3361.47 2085.6 3359.12 2080.84 3356.15 2076.5 3352.63Z" fill="#000000" fill-rule="nonzero" fill-opacity="1" transform="matrix(1 0 0 1.00135 -3863.59 -1854.15)"/><path d="M1477.23 3324.28C1473.69 3317.81 1468.05 3312.74 1461.24 3309.91 1446.54 3306.86 1432.08 3302.77 1417.96 3297.67 1418.79 3299.52 1419.47 3301.43 1419.99 3303.39 1422.5 3312.25 1426.89 3320.47 1432.89 3327.46 1450.42 3332.39 1468.32 3335.91 1486.41 3337.99 1482.82 3333.8 1479.73 3329.2 1477.23 3324.28Z" fill="#000000" fill-rule="nonzero" fill-opacity="1" transform="matrix(1 0 0 1.00135 -3404.17 -1816.53)"/><path d="M1119.84 884.213 1119.84 884.213C1119.84 884.213 1120.58 884.109 1120.66 884.006 1127.11 862.776 1134.38 840.613 1134.38 817.768 1134.38 807.735 1134.98 797.798 1134.98 787.52 1134.72 775.124 1133.75 762.754 1132.06 750.47L1132.71 750.47 1132.71 749.996C1129.71 727.57 1124.81 705.442 1118.04 683.854L1117.95 683.854C1117.95 683.854 1117.79 683.736 1117.78 683.632 1075.72 555.594 957.898 463.199 819.546 463.199 678.823 463.199 559.351 558.833 519.241 690.316 519.241 690.316 519.189 690.382 519.145 690.479 509.618 721.784 504.791 754.33 504.821 787.053 504.763 799.434 505.461 811.807 506.911 824.103L507.948 824.103 507.948 824.578C510.66 846.979 515.286 869.107 521.775 890.719L521.449 890.719C521.449 890.719 521.39 890.823 521.405 890.919 563.479 1018.93 681.194 1111.33 819.516 1111.33 960.284 1111.34 1079.73 1015.7 1119.84 884.213ZM554.853 787.276C554.853 636.356 673.584 513.58 819.524 513.58 965.464 513.58 1084.19 636.363 1084.19 787.276 1084.19 938.188 965.464 1060.97 819.524 1060.97 673.584 1060.97 554.853 938.195 554.853 787.276Z" fill="#000000" fill-rule="nonzero" fill-opacity="1" transform="matrix(1 0 0 1.00135 -2697.48 380.216)"/><path d="M1198.2 3203.28C1196.06 3196.29 1191.67 3190.19 1185.71 3185.95 1171.85 3179.77 1158.45 3172.6 1145.62 3164.51 1146.04 3166.46 1146.32 3168.44 1146.44 3170.44 1147.11 3179.8 1149.83 3188.9 1154.38 3197.11 1170.49 3205.7 1187.26 3212.98 1204.54 3218.88 1201.81 3213.95 1199.68 3208.72 1198.2 3203.28Z" fill="#000000" fill-rule="nonzero" fill-opacity="1" transform="matrix(1 0 0 1.00135 -3193.4 -1713.33)"/><path d="M946.257 3024.93C945.551 3017.43 942.361 3010.39 937.195 3004.92 925.035 2995.95 913.503 2986.16 902.679 2975.61 902.703 2977.63 902.57 2979.65 902.279 2981.64 901.036 2991.1 901.883 3000.71 904.761 3009.8 918.768 3021.61 933.681 3032.3 949.362 3041.78 947.654 3036.3 946.612 3030.65 946.257 3024.93Z" fill="#000000" fill-rule="nonzero" fill-opacity="1" transform="matrix(1 0 0 1.00135 -3004.62 -1566.91)"/><path d="M2393.88 404.238C2396.01 411.237 2400.4 417.333 2406.36 421.57 2420.22 427.757 2433.62 434.923 2446.46 443.014 2446.03 441.062 2445.76 439.08 2445.63 437.086 2444.96 427.721 2442.24 418.617 2437.68 410.41 2421.57 401.8 2404.79 394.5 2387.5 388.581 2390.25 393.525 2392.39 398.782 2393.88 404.238Z" fill="#000000" fill-rule="nonzero" fill-opacity="1" transform="matrix(1 0 0 1.00135 -4154.59 438.048)"/><path d="M3232.51 2246.01C3225.93 2249 3220.54 2254.1 3217.18 2260.5 3212.65 2275.44 3207.1 2290.05 3200.55 2304.22 3202.34 2303.61 3204.17 2303.14 3206.03 2302.82 3215.62 2300.98 3224.63 2296.87 3232.3 2290.83 3238.94 2273.34 3244.22 2255.36 3248.09 2237.05 3243.32 2240.72 3238.08 2243.73 3232.51 2246.01Z" fill="#000000" fill-rule="nonzero" fill-opacity="1" transform="matrix(1 0 0 1.00135 -4783.85 -994.524)"/><path d="M2886.99 2843.45C2879.56 2843.42 2872.36 2846.02 2866.66 2850.8 2862.35 2855.79 2857.89 2860.67 2853.27 2865.44 2847.24 2871.65 2841.01 2877.58 2834.59 2883.22 2836.63 2883.41 2838.65 2883.76 2840.62 2884.28 2849.56 2886.53 2858.9 2886.67 2867.89 2884.68 2868.83 2883.74 2869.78 2882.8 2870.72 2881.85 2882.87 2869.33 2894.1 2855.96 2904.32 2841.83 2898.64 2843.13 2892.81 2843.68 2886.99 2843.45Z" fill="#000000" fill-rule="nonzero" fill-opacity="1" transform="matrix(1 0 0 1.00135 -4500.61 -1463.28)"/><path d="M2938.52 739.926C2937.69 747.571 2939.46 755.271 2943.53 761.793 2953.55 773.039 2962.79 784.944 2971.21 797.427 2971.59 795.529 2972.11 793.661 2972.77 791.84 2975.94 782.645 2977.03 772.86 2975.95 763.193 2968.12 753.215 2959.77 743.655 2950.94 734.553 2946.98 730.493 2942.96 726.541 2938.87 722.697 2939.45 728.433 2939.33 734.218 2938.52 739.926Z" fill="#000000" fill-rule="nonzero" fill-opacity="1" transform="matrix(1 0 0 1.00135 -4580.82 179.105)"/><path d="M3085.52 2559.16C3078.51 2560.68 3072.22 2564.51 3067.64 2570.03 3060.14 2583.7 3051.68 2596.82 3042.35 2609.31 3044.31 2609.07 3046.3 2609 3048.27 2609.08 3057.77 2609.35 3067.19 2607.37 3075.77 2603.29 3085.96 2587.51 3094.91 2570.95 3102.51 2553.76 3097.11 2556.31 3091.4 2558.13 3085.52 2559.16Z" fill="#000000" fill-rule="nonzero" fill-opacity="1" transform="matrix(1 0 0 1.00135 -4661.41 -1239.98)"/><path d="M1761.98 320.734C1766.9 326.456 1773.69 330.253 1781.14 331.457 1781.88 331.457 1782.62 331.457 1783.36 331.457 1797.45 331.46 1811.52 332.385 1825.48 334.228 1824.24 332.533 1823.14 330.739 1822.19 328.863 1818.05 320.894 1812.23 313.915 1805.14 308.404 1797.93 307.952 1790.67 307.663 1783.38 307.663 1772.23 307.663 1761.17 308.194 1750.21 309.256 1754.58 312.594 1758.53 316.448 1761.98 320.734Z" fill="#000000" fill-rule="nonzero" fill-opacity="1" transform="matrix(1 0 0 1.00135 -3661.32 500.754)"/><path d="M1774.1 3382.33C1769.18 3376.61 1762.39 3372.81 1754.93 3371.62 1754.19 3371.62 1753.45 3371.62 1752.71 3371.62 1738.62 3371.62 1724.55 3370.69 1710.58 3368.85 1711.83 3370.54 1712.94 3372.34 1713.89 3374.22 1718.03 3382.19 1723.84 3389.17 1730.93 3394.68 1738.15 3395.13 1745.41 3395.42 1752.7 3395.42 1763.85 3395.42 1774.9 3394.89 1785.87 3393.83 1781.5 3390.48 1777.55 3386.62 1774.1 3382.33Z" fill="#000000" fill-rule="nonzero" fill-opacity="1" transform="matrix(1 0 0 1.00135 -3630.66 -1871.72)"/><path d="M366.847 1927.12C371.83 1921.44 374.779 1914.26 375.228 1906.71 373.851 1894.12 373.158 1881.46 373.153 1868.79 373.153 1866.04 373.185 1863.3 373.249 1860.56 371.861 1861.87 370.375 1863.07 368.803 1864.16 360.714 1869.9 354.087 1877.46 349.456 1886.24 350.317 1904.89 352.588 1923.44 356.251 1941.75 359.133 1936.43 362.695 1931.51 366.847 1927.12Z" fill="#000000" fill-rule="nonzero" fill-opacity="1" transform="matrix(1 0 0 1.00135 -2577.17 -702.755)"/><path d="M724.846 2798.11C725.669 2790.46 723.899 2782.76 719.822 2776.24 709.81 2765 700.564 2753.09 692.146 2740.61 691.767 2742.51 691.247 2744.38 690.59 2746.21 687.408 2755.38 686.314 2765.15 687.389 2774.81 695.229 2784.8 703.589 2794.38 712.435 2803.49 716.387 2807.55 720.408 2811.51 724.498 2815.35 723.917 2809.61 724.034 2803.82 724.846 2798.11Z" fill="#000000" fill-rule="nonzero" fill-opacity="1" transform="matrix(1 0 0 1.00135 -2838.45 -1384.81)"/><path d="M2684.36 542.479C2685.07 549.97 2688.26 557.01 2693.42 562.486 2705.58 571.459 2717.12 581.253 2727.94 591.8 2727.92 589.782 2728.05 587.765 2728.34 585.768 2729.59 576.313 2728.74 566.701 2725.86 557.61 2711.85 545.8 2696.94 535.109 2681.26 525.636 2682.97 531.104 2684.01 536.76 2684.36 542.479Z" fill="#000000" fill-rule="nonzero" fill-opacity="1" transform="matrix(1 0 0 1.00135 -4381.94 331.808)"/><path d="M2082.29 331.583C2085.83 338.051 2091.47 343.121 2098.28 345.958 2112.98 349.002 2127.44 353.091 2141.56 358.192 2140.74 356.343 2140.06 354.433 2139.53 352.479 2137.03 343.612 2132.63 335.395 2126.64 328.396 2109.11 323.466 2091.21 319.945 2073.12 317.867 2076.71 322.056 2079.79 326.661 2082.29 331.583Z" fill="#000000" fill-rule="nonzero" fill-opacity="1" transform="matrix(1 0 0 1.00135 -3911.25 492.845)"/><path d="M424.03 2236.88C427.656 2230.47 429.119 2223.07 428.202 2215.77 423.383 2200.98 419.583 2185.88 416.827 2170.57 415.746 2172.11 414.55 2173.57 413.248 2174.94 406.472 2182.29 401.502 2191.12 398.732 2200.73 403.34 2218.7 409.323 2236.29 416.627 2253.34 418.38 2247.56 420.868 2242.03 424.03 2236.88Z" fill="#000000" fill-rule="nonzero" fill-opacity="1" transform="matrix(1 0 0 1.00135 -2615.33 -942.999)"/><path d="M3336.8 1651.75C3344.89 1646 3351.52 1638.44 3356.16 1629.66 3355.3 1611.01 3353.02 1592.45 3349.36 1574.14 3346.47 1579.46 3342.89 1584.38 3338.73 1588.77 3333.75 1594.45 3330.8 1601.64 3330.36 1609.19 3331.73 1621.78 3332.42 1634.44 3332.43 1647.11 3332.43 1649.86 3332.39 1652.6 3332.33 1655.33 3333.73 1654.03 3335.22 1652.83 3336.8 1651.75Z" fill="#000000" fill-rule="nonzero" fill-opacity="1" transform="matrix(1 0 0 1.00135 -4884.31 -480.778)"/><path d="M3153.13 1050.04C3153.87 1048.34 3154.73 1046.69 3155.7 1045.11 3160.8 1036.56 3163.87 1026.95 3164.68 1017.03 3156.52 1000.55 3147.11 984.723 3136.52 969.688 3135.95 975.558 3134.65 981.335 3132.66 986.886 3130.37 993.969 3130.46 1001.6 3132.9 1008.63 3140.58 1021.96 3147.34 1035.79 3153.13 1050.04Z" fill="#000000" fill-rule="nonzero" fill-opacity="1" transform="matrix(1 0 0 1.00135 -4730.01 -12.3089)"/><path d="M3268.14 1273.46C3264.51 1279.86 3263.05 1287.26 3263.96 1294.56 3268.78 1309.35 3272.58 1324.46 3275.34 1339.77 3276.42 1338.22 3277.62 1336.76 3278.92 1335.4 3285.7 1328.05 3290.67 1319.21 3293.44 1309.6 3288.84 1291.63 3282.85 1274.04 3275.55 1256.99 3273.79 1262.77 3271.3 1268.31 3268.14 1273.46Z" fill="#000000" fill-rule="nonzero" fill-opacity="1" transform="matrix(1 0 0 1.00135 -4832.74 -234.968)"/><path d="M2371.78 3246.19C2365.32 3243.17 2358.02 3242.46 2351.1 3244.18 2337.3 3250.69 2323.03 3256.19 2308.43 3260.64 2310.21 3261.66 2311.91 3262.83 2313.5 3264.13 2320.59 3269.78 2328.87 3273.75 2337.71 3275.76 2355 3269.17 2371.72 3261.19 2387.72 3251.89 2382.18 3250.68 2376.83 3248.76 2371.78 3246.19Z" fill="#000000" fill-rule="nonzero" fill-opacity="1" transform="matrix(1 0 0 1.00135 -4093.37 -1774.37)"/><path d="M1552.87 1429.05 1491.2 1345.42C1501.35 1341.4 1510.72 1335.66 1518.92 1328.45 1533.87 1315.21 1551.71 1290.27 1551.71 1246.61 1552.73 1219.91 1542.23 1194.06 1522.87 1175.65 1492.37 1147.66 1452.19 1148.55 1439.3 1148.55L1316.76 1148.55C1297.18 1148.69 1281.4 1164.63 1281.45 1184.21 1281.45 1184.96 1281.56 1186.09 1281.56 1186.85L1281.56 1218.89 1454.21 1218.89C1469.92 1219.38 1482.42 1232.21 1482.51 1247.92L1482.51 1254.65C1482.33 1270.13 1469.7 1282.58 1454.21 1282.54L1426.97 1282.54C1407.45 1282.55 1391.63 1298.39 1391.65 1317.92 1391.65 1325.45 1394.07 1332.79 1398.53 1338.85L1495.96 1470.97C1507.54 1486.68 1529.65 1490.03 1545.36 1478.45 1561.06 1466.88 1564.41 1444.76 1552.83 1429.06Z" fill="#FF0000" fill-rule="nonzero" fill-opacity="1" transform="matrix(1 0 0 1.00135 -3298.52 -150.929)"/><path d="M1281.93 1741.35 1281.93 1907.16 1282.35 1907.16C1284.64 1928.62 1302.85 1944.83 1324.43 1944.62 1345.86 1944.62 1363.92 1928.62 1366.5 1907.35L1366.96 1741.37Z" fill="#000000" fill-rule="nonzero" fill-opacity="1" transform="matrix(1 0 0 1.00135 -3298.89 -610.368)"/></g></g></g></g></g></svg>