<svg version="1.2" baseProfile="tiny-ps" xmlns="http://www.w3.org/2000/svg" viewBox="0 0 207 207" width="207" height="207">
	<title>REVV-svg</title>
	<style>
		tspan { white-space:pre }
		.shp0 { fill: #d9d9d9 } 
		.shp1 { fill: #000000 } 
		.shp2 { fill: #ff0000 } 
	</style>
	<path id="Layer" class="shp0" d="M103.5 0.38C46.55 0.38 0.38 46.55 0.38 103.5C0.38 160.45 46.55 206.63 103.5 206.63C160.45 206.63 206.63 160.45 206.63 103.5C206.63 46.55 160.45 0.38 103.5 0.38Z" />
	<path id="Layer" class="shp1" d="M42.66 130.38C42.52 130.73 42.34 131.06 42.14 131.38C41.1 133.14 40.5 135.03 40.33 137.07C41.98 140.41 43.88 143.59 46.02 146.64C46.14 145.45 46.4 144.29 46.8 143.16C47.28 141.68 47.26 140.22 46.75 138.75C45.2 136.05 43.84 133.27 42.66 130.38Z" />
	<path id="Layer" class="shp1" d="M37.5 86.84C38.87 86.21 39.91 85.24 40.61 83.9C41.52 80.88 42.64 77.93 43.97 75.05C43.61 75.18 43.24 75.27 42.86 75.34C40.89 75.71 39.12 76.52 37.55 77.75C36.2 81.3 35.13 84.94 34.35 88.65C35.32 87.91 36.37 87.3 37.5 86.84Z" />
	<path id="Layer" class="shp1" d="M85.22 36.61C86.42 37.53 87.78 37.96 89.3 37.9C92.29 37.23 95.31 36.77 98.37 36.52C98.04 36.23 97.75 35.93 97.48 35.59C96.31 34.17 94.9 33.06 93.24 32.27C89.54 32.82 85.91 33.67 82.35 34.82C83.38 35.3 84.34 35.89 85.22 36.61Z" />
	<path id="Layer" class="shp1" d="M71.96 42.02C73.3 42.65 74.7 42.79 76.14 42.43C78.95 41.11 81.82 40 84.79 39.1C84.42 38.89 84.08 38.66 83.75 38.39C82.3 37.23 80.67 36.45 78.86 36.04C75.35 37.37 71.98 38.98 68.73 40.87C69.86 41.11 70.93 41.5 71.96 42.02Z" />
	<path id="Layer" class="shp1" d="M42.46 73.07C43.92 72.75 45.13 72.02 46.07 70.87C47.6 68.1 49.3 65.45 51.2 62.92C50.8 62.97 50.4 62.98 50 62.97C48.05 62.91 46.19 63.3 44.43 64.14C42.36 67.34 40.56 70.69 39.03 74.17C40.12 73.65 41.27 73.28 42.46 73.07Z" />
	<path id="Layer" class="shp1" d="M60.08 50.16C61.56 50.49 62.98 50.31 64.33 49.63C66.79 47.75 69.36 46.05 72.05 44.55C71.65 44.42 71.27 44.27 70.91 44.08C69.23 43.25 67.45 42.82 65.58 42.82C62.43 44.89 59.46 47.19 56.68 49.72C57.83 49.72 58.96 49.87 60.08 50.16Z" />
	<path id="Layer" class="shp1" d="M50.1 60.66C51.66 60.67 53.03 60.17 54.22 59.18C55.09 58.16 55.99 57.18 56.93 56.21C58.15 54.96 59.41 53.75 60.71 52.61C60.29 52.57 59.89 52.5 59.48 52.4C57.65 51.94 55.81 51.91 53.96 52.32C53.77 52.51 53.58 52.7 53.39 52.89C50.93 55.43 48.66 58.13 46.59 60.99C47.75 60.73 48.92 60.62 50.1 60.66Z" />
	<path id="Layer" class="shp1" d="M35.42 101.37C36.67 100.43 37.5 99.21 37.91 97.7C38.19 94.59 38.68 91.51 39.39 88.46C39.06 88.66 38.71 88.83 38.36 88.97C36.5 89.77 34.93 90.94 33.64 92.5C33.05 96.24 32.75 100 32.73 103.79C33.52 102.87 34.41 102.06 35.42 101.37Z" />
	<path id="Layer" class="shp1" d="M147.14 158.27C145.66 157.94 144.24 158.12 142.89 158.81C140.44 160.68 137.87 162.38 135.18 163.89C135.57 164.01 135.95 164.17 136.32 164.36C138 165.19 139.77 165.61 141.64 165.61C144.79 163.55 147.76 161.25 150.55 158.71C149.39 158.71 148.26 158.57 147.14 158.27Z" />
	<path id="Layer" class="shp1" d="M171.8 107.06C170.55 108 169.72 109.22 169.32 110.73C169.03 113.84 168.54 116.92 167.84 119.97C168.16 119.77 168.5 119.6 168.86 119.46C170.72 118.66 172.3 117.48 173.59 115.93C174.18 112.18 174.48 108.42 174.5 104.63C173.7 105.56 172.8 106.37 171.8 107.06Z" />
	<path id="Layer" class="shp1" d="M122 171.83C120.8 170.91 119.44 170.48 117.93 170.53C114.94 171.21 111.91 171.67 108.85 171.91C109.18 172.2 109.47 172.51 109.74 172.85C110.91 174.27 112.32 175.38 113.98 176.17C117.68 175.61 121.31 174.77 124.87 173.62C123.84 173.14 122.88 172.54 122 171.83Z" />
	<path id="Layer" class="shp1" d="M93.69 173.7C92.96 172.35 91.88 171.38 90.46 170.79C87.48 170.17 84.56 169.34 81.7 168.31C81.86 168.68 82 169.07 82.11 169.46C82.62 171.28 83.49 172.91 84.72 174.34C88.27 175.34 91.88 176.05 95.55 176.47C94.82 175.62 94.2 174.7 93.69 173.7Z" />
	<path id="Layer" fill-rule="evenodd" class="shp1" d="M103.61 169.82C75.61 169.82 51.78 151.11 43.26 125.2C43.26 125.18 43.27 125.16 43.27 125.16L43.34 125.16C42.02 120.78 41.09 116.31 40.54 111.77L40.54 111.67L40.33 111.67C40.04 109.18 39.89 106.68 39.91 104.17C39.9 97.51 40.87 91 42.8 84.63C42.82 84.61 42.82 84.59 42.82 84.59C50.95 57.98 75.13 38.62 103.62 38.62C131.62 38.62 155.47 57.32 163.98 83.24C163.99 83.26 164.02 83.28 164.02 83.28L164.04 83.28C165.41 87.66 166.4 92.13 167.01 96.67L167.01 96.77L166.88 96.77C167.22 99.26 167.41 101.76 167.47 104.27C167.47 106.35 167.35 108.36 167.35 110.39C167.35 115.02 165.88 119.5 164.57 123.8C164.55 123.82 164.4 123.84 164.4 123.84C156.29 150.46 132.11 169.82 103.61 169.82ZM103.61 159.62C133.15 159.62 157.19 134.77 157.19 104.22C157.19 73.67 133.15 48.82 103.61 48.82C74.07 48.82 50.04 73.67 50.04 104.22C50.04 134.77 74.07 159.62 103.61 159.62Z" />
	<path id="Layer" class="shp1" d="M79.88 170.07C79.43 168.61 78.59 167.44 77.35 166.56C74.54 165.3 71.84 163.86 69.23 162.21C69.32 162.61 69.38 163.01 69.4 163.41C69.54 165.34 70.07 167.13 71.01 168.82C74.27 170.56 77.66 172.03 81.16 173.22C80.61 172.22 80.18 171.17 79.88 170.07Z" />
	<path id="Layer" class="shp1" d="M67.09 163.56C66.95 162 66.33 160.65 65.26 159.51C62.79 157.69 60.46 155.71 58.27 153.58C58.27 153.99 58.25 154.39 58.19 154.8C57.93 156.73 58.1 158.64 58.69 160.5C61.53 162.89 64.54 165.05 67.72 166.97C67.37 165.86 67.16 164.72 67.09 163.56Z" />
	<path id="Layer" class="shp1" d="M127.34 38.37C127.79 39.83 128.63 41 129.87 41.88C132.68 43.13 135.38 44.58 137.99 46.22C137.9 45.82 137.84 45.43 137.82 45.02C137.68 43.1 137.14 41.3 136.21 39.62C132.94 37.88 129.56 36.4 126.05 35.2C126.61 36.21 127.04 37.26 127.34 38.37Z" />
	<path id="Layer" class="shp1" d="M169.73 121.6C168.36 122.22 167.32 123.2 166.62 124.53C165.71 127.56 164.59 130.51 163.26 133.38C163.62 133.26 163.99 133.16 164.37 133.1C166.34 132.72 168.11 131.91 169.68 130.67C171.03 127.12 172.1 123.49 172.88 119.78C171.91 120.53 170.86 121.13 169.73 121.6Z" />
	<path id="Layer" class="shp1" d="M157.12 147.77C155.57 147.77 154.2 148.26 153 149.26C152.13 150.27 151.23 151.26 150.29 152.22C149.07 153.48 147.81 154.68 146.51 155.82C146.93 155.86 147.33 155.93 147.73 156.04C149.57 156.5 151.41 156.53 153.25 156.12C153.45 155.93 153.64 155.74 153.82 155.55C156.29 153.01 158.55 150.31 160.63 147.45C159.47 147.71 158.3 147.82 157.12 147.77Z" />
	<path id="Layer" class="shp1" d="M151.31 53.98C151.14 55.57 151.48 57.05 152.33 58.4C154.36 60.68 156.22 63.09 157.93 65.62C158.01 65.23 158.11 64.86 158.25 64.49C158.9 62.6 159.11 60.67 158.89 58.69C157.3 56.67 155.62 54.73 153.83 52.89C153.03 52.07 152.21 51.27 151.38 50.49C151.5 51.66 151.48 52.82 151.31 53.98Z" />
	<path id="Layer" class="shp1" d="M164.76 135.37C163.3 135.68 162.09 136.41 161.14 137.57C159.62 140.34 157.91 142.98 156.02 145.52C156.42 145.47 156.82 145.45 157.22 145.47C159.17 145.53 161.02 145.14 162.78 144.3C164.85 141.1 166.66 137.76 168.2 134.27C167.1 134.79 165.95 135.16 164.76 135.37Z" />
	<path id="Layer" class="shp1" d="M99.28 34.14C100.31 35.34 101.6 36.06 103.16 36.32C103.31 36.32 103.46 36.32 103.61 36.32C106.46 36.32 109.3 36.5 112.14 36.88C111.88 36.53 111.66 36.17 111.47 35.79C110.62 34.16 109.47 32.78 108.02 31.65C106.56 31.56 105.09 31.5 103.61 31.5C101.36 31.5 99.12 31.61 96.9 31.82C97.79 32.5 98.58 33.27 99.28 34.14Z" />
	<path id="Layer" class="shp1" d="M107.94 174.29C106.91 173.09 105.62 172.37 104.06 172.12C103.91 172.12 103.76 172.12 103.61 172.12C100.76 172.12 97.91 171.93 95.08 171.56C95.34 171.91 95.56 172.27 95.75 172.65C96.6 174.28 97.75 175.66 99.2 176.79C100.66 176.88 102.13 176.94 103.61 176.94C105.87 176.94 108.1 176.83 110.32 176.62C109.43 175.94 108.64 175.16 107.94 174.29Z" />
	<path id="Layer" class="shp1" d="M36.33 116.03C37.37 114.84 37.93 113.46 38.03 111.89C37.75 109.34 37.61 106.79 37.61 104.22C37.61 103.66 37.61 103.11 37.63 102.55C37.34 102.82 37.04 103.06 36.73 103.28C35.07 104.46 33.76 105.95 32.81 107.75C32.98 111.53 33.44 115.28 34.18 118.99C34.77 117.91 35.48 116.92 36.33 116.03Z" />
	<path id="Layer" class="shp1" d="M55.91 154.46C56.08 152.87 55.74 151.39 54.89 150.03C52.86 147.75 51 145.35 49.29 142.82C49.21 143.2 49.11 143.58 48.97 143.95C48.32 145.83 48.11 147.76 48.32 149.74C49.91 151.77 51.61 153.7 53.39 155.55C54.2 156.37 55.01 157.17 55.84 157.95C55.72 156.78 55.74 155.62 55.91 154.46Z" />
	<path id="Layer" class="shp1" d="M140.13 44.88C140.27 46.44 140.88 47.79 141.96 48.93C144.42 50.75 146.75 52.73 148.95 54.86C148.94 54.45 148.97 54.05 149.03 53.64C149.28 51.7 149.11 49.8 148.52 47.94C145.68 45.55 142.68 43.39 139.5 41.47C139.84 42.58 140.05 43.71 140.13 44.88Z" />
	<path id="Layer" class="shp1" d="M113.53 34.74C114.27 36.09 115.34 37.06 116.77 37.65C119.75 38.27 122.66 39.09 125.53 40.13C125.36 39.75 125.22 39.37 125.12 38.97C124.61 37.16 123.73 35.53 122.51 34.1C118.95 33.1 115.34 32.39 111.67 31.96C112.4 32.82 113.02 33.74 113.53 34.74Z" />
	<path id="Layer" class="shp1" d="M40.18 130.16C40.93 128.83 41.21 127.41 41.02 125.89C40.05 122.89 39.28 119.84 38.72 116.74C38.5 117.05 38.26 117.35 38 117.63C36.61 119.13 35.63 120.88 35.06 122.85C35.99 126.49 37.2 130.04 38.68 133.5C39.04 132.32 39.54 131.21 40.18 130.16Z" />
	<path id="Layer" class="shp1" d="M170.5 105.16C172.16 103.98 173.47 102.49 174.42 100.69C174.25 96.91 173.79 93.16 173.04 89.45C172.46 90.53 171.74 91.52 170.89 92.41C169.86 93.59 169.29 94.97 169.2 96.54C169.48 99.09 169.62 101.65 169.62 104.22C169.62 104.77 169.61 105.33 169.6 105.88C169.88 105.62 170.18 105.38 170.5 105.16Z" />
	<path id="Layer" class="shp1" d="M164.56 78.06C164.71 77.71 164.88 77.38 165.08 77.06C166.13 75.3 166.73 73.41 166.89 71.38C165.24 68.04 163.34 64.84 161.2 61.79C161.08 62.98 160.82 64.14 160.41 65.27C159.94 66.75 159.95 68.21 160.46 69.68C162.02 72.38 163.38 75.17 164.56 78.06Z" />
	<path id="Layer" class="shp1" d="M167.04 78.27C166.29 79.61 166.01 81.03 166.2 82.55C167.17 85.54 167.94 88.59 168.5 91.7C168.72 91.38 168.96 91.09 169.22 90.81C170.62 89.3 171.59 87.56 172.16 85.59C171.23 81.95 170.02 78.39 168.54 74.94C168.18 76.11 167.68 77.23 167.04 78.27Z" />
	<path id="Layer" class="shp1" d="M135.26 166.41C133.91 165.78 132.52 165.64 131.08 166C128.28 167.32 125.4 168.43 122.44 169.34C122.8 169.54 123.14 169.78 123.46 170.04C124.92 171.2 126.55 171.98 128.37 172.4C131.87 171.06 135.25 169.45 138.49 167.57C137.36 167.32 136.29 166.93 135.26 166.41Z" />
	<path id="Layer" class="shp2" d="M130.39 126.76L117.91 109.83C119.98 109.01 121.85 107.86 123.52 106.39C126.55 103.71 130.16 98.66 130.16 89.82C130.21 88.49 130.12 87.16 129.89 85.85C129.66 84.53 129.29 83.25 128.79 82.02C128.28 80.78 127.65 79.61 126.9 78.5C126.15 77.39 125.29 76.38 124.32 75.46C118.14 69.8 110.01 69.98 107.4 69.98L82.6 69.98C82.13 69.98 81.66 70.03 81.2 70.13C80.73 70.22 80.29 70.36 79.85 70.54C79.42 70.72 79 70.95 78.61 71.21C78.22 71.48 77.86 71.78 77.53 72.11C77.2 72.45 76.91 72.81 76.64 73.2C76.38 73.6 76.16 74.01 75.98 74.45C75.81 74.88 75.67 75.33 75.58 75.8C75.49 76.26 75.45 76.73 75.45 77.2C75.45 77.35 75.47 77.57 75.47 77.73L75.47 84.21L110.42 84.21C110.8 84.23 111.18 84.28 111.54 84.36C111.91 84.44 112.27 84.56 112.62 84.71C112.96 84.87 113.3 85.05 113.61 85.27C113.92 85.48 114.21 85.73 114.47 86C114.73 86.27 114.97 86.56 115.18 86.88C115.39 87.2 115.56 87.53 115.71 87.88C115.85 88.23 115.96 88.59 116.04 88.96C116.11 89.34 116.15 89.71 116.15 90.09L116.15 91.45C116.14 91.83 116.11 92.2 116.03 92.56C115.95 92.93 115.84 93.28 115.7 93.62C115.55 93.96 115.37 94.29 115.16 94.6C114.95 94.91 114.71 95.2 114.45 95.46C114.18 95.72 113.89 95.95 113.58 96.16C113.27 96.36 112.94 96.54 112.6 96.68C112.25 96.82 111.89 96.92 111.53 97C111.16 97.07 110.79 97.1 110.42 97.1L104.91 97.1C104.25 97.1 103.6 97.19 102.96 97.37C102.32 97.55 101.72 97.82 101.16 98.16C100.6 98.51 100.09 98.93 99.64 99.41C99.2 99.9 98.82 100.44 98.52 101.03C98.23 101.62 98.02 102.24 97.89 102.89C97.76 103.54 97.73 104.2 97.78 104.85C97.84 105.51 97.98 106.15 98.21 106.77C98.45 107.39 98.76 107.96 99.15 108.5L118.87 135.25C119.15 135.63 119.46 135.97 119.81 136.29C120.16 136.61 120.53 136.89 120.93 137.13C121.34 137.37 121.76 137.57 122.2 137.73C122.64 137.89 123.09 138.01 123.56 138.08C124.02 138.15 124.49 138.18 124.96 138.15C125.43 138.13 125.89 138.06 126.35 137.95C126.8 137.84 127.25 137.68 127.67 137.48C128.1 137.29 128.5 137.04 128.88 136.77C129.25 136.49 129.6 136.17 129.92 135.83C130.23 135.48 130.52 135.11 130.76 134.7C131 134.3 131.2 133.88 131.36 133.43C131.52 132.99 131.63 132.54 131.7 132.07C131.77 131.61 131.8 131.14 131.78 130.67C131.75 130.2 131.69 129.74 131.57 129.29C131.46 128.83 131.3 128.39 131.11 127.96C130.9 127.54 130.66 127.14 130.38 126.76L130.39 126.76Z" />
	<path id="Layer" class="shp1" d="M75.47 97.1L75.47 130.66L75.55 130.66C75.61 131.18 75.71 131.69 75.86 132.2C76.02 132.7 76.21 133.18 76.45 133.64C76.69 134.11 76.96 134.55 77.29 134.96C77.61 135.37 77.96 135.75 78.35 136.1C78.74 136.45 79.16 136.75 79.61 137.03C80.05 137.3 80.52 137.52 81.01 137.71C81.5 137.89 82 138.03 82.52 138.12C83.03 138.21 83.55 138.25 84.07 138.25C84.59 138.25 85.11 138.2 85.62 138.11C86.13 138.01 86.63 137.87 87.12 137.69C87.6 137.5 88.07 137.28 88.51 137.01C88.96 136.74 89.38 136.43 89.76 136.09C90.15 135.74 90.51 135.37 90.83 134.96C91.15 134.55 91.43 134.11 91.67 133.65C91.91 133.2 92.11 132.71 92.27 132.22C92.42 131.72 92.53 131.22 92.59 130.7L92.68 97.1L75.47 97.1Z" />
</svg>