<svg xmlns="http://www.w3.org/2000/svg" width="400" height="400" viewBox="0 0 250 250">
  <defs>
    <style>
      .cls-1 {
        fill: #7b7b7b;
      }

      .cls-1, .cls-2, .cls-3, .cls-4, .cls-5, .cls-6 {
        fill-rule: evenodd;
      }

      .cls-2 {
        fill: #5c5c5c;
      }

      .cls-3 {
        fill: #424242;
      }

      .cls-4 {
        fill: #232323;
      }

      .cls-6 {
        fill: #fff;
      }
    </style>
  </defs>
  <path id="gray4" class="cls-1" d="M135,87h19v19h20v57H115V106h20V87Z"/>
  <path id="gray3" class="cls-2" d="M135,68h19V87H135V68ZM115,87h20v19H115V87Zm39,0h20v19H154V87ZM96,106h19v57H96V106Zm78,0h19v57H174V106Zm-59,57h20v19H115V163Zm39,0h20v19H154V163Z"/>
  <path id="gray2" class="cls-3" d="M135,49h19V68H135V49ZM115,68h20V87H115V68Zm39,0h20V87H154V68ZM96,87h19v19H96V87Zm78,0h19v19H174V87ZM76,106H96v57H76V106Zm117,0h20v57H193V106Zm-19,57h19v19H174V163Zm-59,19h20v19H115V182Z"/>
  <path id="gray1" class="cls-4" d="M115,49h20V68H115V49ZM96,68h19V87H96V68ZM76,87H96v19H76V87ZM57,106H76v57H57V106Zm19,57H96v19H76V163Zm20,38h58v19H96V201Z"/>
  <path id="black" class="cls-5" d="M115,30h20V49H115V30ZM96,49h19V68H96V49ZM76,68H96V87H76V68ZM57,87H76v19H57V87ZM37,106H57v57H37V106Zm20,57H76v19H57V163Z"/>
  <path id="whitebg" class="cls-6" d="M110,0h30c8.016,2.35,17.692,4.075,25,7h3V8h2V9h3v1l6,2v1h2v1h2v1l6,2,1,2,4,1,1,2h2l1,2,3,1,3,4h2l7,8,8,7v2l4,3v2l3,2v2l2,1q0.5,2,1,4l2,1q1,3,2,6l2,1v3h1v2h1q0.5,2,1,4h1v3h1v2h1q1,5,2,10h1v3h1v5h1q0.5,4.5,1,9h1v32h-1v4h-1v5l-7,23h-1q-0.5,2-1,4h-1v2h-1v3l-2,1q-1,3-2,6l-2,1q-0.5,2-1,4l-2,1v2l-3,2v2l-4,3v2l-9,8-6,7h-2l-3,4h-2l-2,3h-2q-0.5,1-1,2l-4,1q-0.5,1-1,2h-2v1h-2v1h-2v1h-2v1h-2v1h-2v1l-4,1v1h-3v1h-2v1h-3c-7.307,2.9-16.976,4.7-25,7H124c-18.22,0-31.514-3.51-44-9H77v-1l-6-2v-1H69v-1H67v-1l-6-2-1-2-4-1-1-2H53l-2-3H49l-3-4H44l-9-10-6-5v-2l-4-3v-2l-3-2v-2l-2-1-1-4-2-1-2-6-2-1v-3H12v-2H11l-1-4H9l-1-5H7L5,158c-3.831-10.9-5-19.712-5-35V109H1l1-9H3V95H4l1-7H6V85H7V82H8V80H9V77h1l1-4h1V71h1V68l2-1,2-6,2-1,1-4,2-1V53l3-2V49l4-3V44l7-6,8-9h2l3-4,3-1,1-2h2l1-2,4-1,1-2,4-1V15h2V14h2V13h2V12h2V11h2V10h2V9h3V8h2V7l6-1V5l8-1V3h4V2C103.605,0.857,107.553,2.193,110,0Zm5,30V49H96V68H76V87H57v19H37v57H57v19H96V163h19v38H96v19h58V201H135V163h19v19h39V163h20V106H193V87H174V68H154V49H135V30H115Z"/>
</svg>
