<svg xmlns="http://www.w3.org/2000/svg" viewBox="0 0 250 250"><defs><style>.cls-1{fill:#f12827;}.cls-2{fill:#fff;}</style></defs><g id="Layer_2" data-name="Layer 2"><g id="Layer_1-2" data-name="Layer 1"><circle class="cls-1" cx="125" cy="125" r="125"/><path class="cls-2" d="M141,62.44c-16.77-24.34-22-9.28-35.89,6.21-14.4,16.75-34.79,40.7-46.53,57.5-6.61,12.61-41.79,40.66-12.5,45.62,17.72-.67,27.94-25.88,41.05-36.62,14-15.58,27.35-30.31,39-44.86,5.58,5.95,11.09,12.16,16.43,18.19C163.11,127.33,175,154.55,200.77,167c4.08,3.94,23.47,10.53,24.24.94C198.84,132.56,170.48,95.69,141,62.44Z"/><path class="cls-2" d="M128.4,135.43c7-.85,27.19,4.51,25.16-7.06-7.32-8.72-14.87-17.1-22.46-25.55-4.2-6.39-8.62-.18-11.51,3.48-4,4.54-8.46,8.85-11.61,13.73C86.92,143.06,112.88,134.63,128.4,135.43Z"/><path class="cls-2" d="M158.71,139.78c-3.71-2.88-10-1.46-14.43-1.35-6.94-.33-14.19.08-21.25,0-9.6.13-19.17-.09-28.64.38-3.47,1.34-6.84,6.86-9.36,9.21h0c-12.1,14.65-33.58,28.69,1.67,25.39,21.51-1.17,43.49-.92,65.21-.73,8.5-2.63,28.92,3.69,32.58-3.7C180.62,159.71,166.73,148.34,158.71,139.78Z"/></g></g></svg>