<svg width="692" height="678" xmlns="http://www.w3.org/2000/svg" xmlns:xlink="http://www.w3.org/1999/xlink" xml:space="preserve" overflow="hidden"><defs><clipPath id="clip0"><rect x="300" y="20" width="692" height="678"/></clipPath><clipPath id="clip1"><rect x="300" y="21" width="692" height="677"/></clipPath><clipPath id="clip2"><rect x="300" y="21" width="692" height="678"/></clipPath></defs><g clip-path="url(#clip0)" transform="translate(-300 -20)"><g clip-path="url(#clip1)"><g clip-path="url(#clip2)"><path d="M682.982 361.84C682.982 544.578 534.844 692.716 352.106 692.716 169.368 692.716 21.2302 544.578 21.2302 361.84 21.2302 179.103 169.368 30.9646 352.106 30.9646 534.844 30.9646 682.982 179.103 682.982 361.84Z" fill="#000000" fill-rule="nonzero" fill-opacity="1" transform="matrix(1.00002 0 0 1 288.333 -0.0844408)"/><path d="M283.78 457.237 217.957 519.63 263.94 519.63 287.117 496.638 311.871 519.166 358.688 519.352Z" fill="#FFFFFF" fill-rule="nonzero" fill-opacity="1" transform="matrix(1.00002 0 0 1 288.333 -0.0844408)"/><path d="M251.147 423.677 177.907 356.556 177.907 488.758Z" fill="#FFFFFF" fill-rule="nonzero" fill-opacity="1" transform="matrix(1.00002 0 0 1 288.333 -0.0844408)"/><path d="M407.267 360.079C410.605 358.039 413.757 355.907 416.816 353.589 430.63 343.484 441.94 330.968 450.006 316.784 467.991 285.449 467.991 248.365 450.006 217.03 441.847 202.938 430.63 190.423 416.816 180.225 390.58 160.849 356.463 150.095 320.678 150.095L177.907 150.095 177.907 291.104 284.058 382.143 309.089 361.099 378.991 361.099 321.419 423.028 441.94 519.63 586.843 520.093 407.267 360.079ZM363.973 267.741C363.973 270.615 361.099 274.602 356.37 278.032 348.768 283.687 337.922 287.21 326.24 287.952L280.813 247.438 321.512 247.438C335.048 247.438 347.749 251.147 356.37 257.543 361.099 260.974 363.973 264.867 363.973 267.741Z" fill="#FFFFFF" fill-rule="nonzero" fill-opacity="1" transform="matrix(1.00002 0 0 1 288.333 -0.0844408)"/></g></g></g></svg>