<svg version="1.2" baseProfile="tiny-ps" xmlns="http://www.w3.org/2000/svg" viewBox="0 0 2000 2000" width="2000" height="2000">
	<title>SATA Logo Colour-ai</title>
	<defs>
		<linearGradient id="grd1" gradientUnits="userSpaceOnUse"  x1="806.978" y1="745.792" x2="1199.871" y2="745.792">
			<stop offset="0" stop-color="#38b149"  />
			<stop offset="1" stop-color="#a6d151"  />
		</linearGradient>
	</defs>
	<style>
		tspan { white-space:pre }
		.shp0 { fill: #012a44;stroke: #0091ea;stroke-width: 18 } 
		.shp1 { fill: url(#grd1) } 
	</style>
	<g id="Layer 1">
		<g id="&lt;Group&gt;">
			<path id="&lt;Path&gt;" class="shp0" d="M735.09 767.36L1001.05 688.64L1267 767.36C1284.57 877.41 1273.92 979.07 1235.04 1072.32C1195.38 1167.44 1129.92 1248 1001.05 1283.36C899.51 1271.71 823.43 1205.2 772.8 1083.84C733.98 990.78 731.67 905.29 735.09 767.36Z" />
		</g>
		<path id="&lt;Compound Path&gt;" fill-rule="evenodd" class="shp1" d="M854.78 857.06C864.07 843.98 939.3 746.01 1074.63 798.36C1075.48 798.69 1076.28 799.12 1077.01 799.65C1079.88 801.75 1085.73 807.46 1082.4 817.44C1078.43 829.36 1058.31 819.96 1055.11 818.38C1054.76 818.2 1054.43 818.06 1054.06 817.93C1045.24 814.75 944.04 780.82 873.54 872.86C872.47 874.26 871.07 875.39 869.44 876.06C866.18 877.41 860.62 878.74 856.32 874.68C851.66 870.28 852.4 863.82 853.18 860.55C853.49 859.29 854.03 858.12 854.78 857.06ZM832.86 820.99C836.57 823.51 841.34 820.45 842.65 819.5C842.87 819.34 843.06 819.18 843.25 818.98C866.48 794.83 896.7 778.78 899.65 777.24C899.8 777.16 899.96 777.07 900.11 776.97C907.87 771.88 907.69 768.81 906.28 767.17C905.33 766.05 903.8 765.6 902.34 765.76C834.61 773.07 830.9 808.66 831.01 817.33C831.03 818.77 831.67 820.18 832.86 820.99ZM814.2 870L824.74 848.57C824.92 848.2 825.05 847.81 825.11 847.4C825.57 844.44 826.91 832.47 817.08 839.76C807.85 846.61 806.99 862.82 806.97 868.22C806.97 869.72 807.75 871.2 809.13 871.8C810.97 872.6 812.66 872 814.2 870ZM981.6 758.04L1003.46 758.04C1008.91 756.36 1009.43 753.6 1005 749.76L981.6 749.76C979.44 751.44 979.44 754.2 981.6 758.04ZM816.2 965.04C824.83 957.95 840.51 925.57 842.44 921.53C842.58 921.25 842.69 920.97 842.79 920.67C848.35 903.48 833.41 903.16 826.84 903.79C824.93 903.98 823.21 904.98 822.09 906.53C812.95 919.27 808.16 938.77 807.72 965.04C809.4 969.36 812.23 969.36 816.2 965.04ZM816.2 1032C818.02 1043.52 821.1 1047.6 825.44 1044.24C862.69 1027.44 889.18 994.68 904.92 945.96C913.32 928.2 924.6 913.32 938.76 901.32C942.84 882.84 935.16 875.64 915.72 879.72C902.76 886.2 889.08 906 874.68 939.12C865.56 972.96 846.07 999.12 816.2 1017.6C814.19 1018.96 814.19 1023.76 816.2 1032ZM943.44 1044.92C964.31 1026.2 977.64 984.64 980.85 973.79C981.38 972 982.55 970.46 984.13 969.44C1007.43 954.48 1016.16 973.06 1016.16 986C1016.16 999.4 1011.48 1010.4 1005.72 1023C999.96 1035.6 1014 1053.24 1026.96 1042.44C1039.92 1031.64 1047.48 1012.56 1051.08 995.64C1054.68 978.72 1052.88 927.24 1005.36 923.64C957.84 920.04 945.96 956.76 939.6 981.96C934.26 1003.15 912.87 1028.67 906.2 1036.25C904.85 1037.78 904.14 1039.77 904.28 1041.8C905.54 1060.38 920.63 1065.39 943.44 1044.92ZM840.05 1095.52C841.19 1097.67 842.73 1100.14 844.8 1102.92C852.56 1113.36 863.53 1109.22 867.06 1107.49C867.72 1107.17 868.34 1106.78 868.92 1106.33L879.69 1098.12C882.17 1096.24 883.81 1093.42 884.19 1090.33C886.91 1068.13 870.07 1069.09 864.11 1070.09C862.88 1070.3 861.7 1070.73 860.6 1071.32L844.81 1079.89C839.22 1082.93 837.06 1089.9 840.05 1095.52ZM888.72 1154.76C893.76 1159.8 901.08 1160.28 910.68 1156.2C941.4 1134.6 964.68 1117.44 980.52 1104.72C996.36 1092 1001.52 1082.4 996 1075.92C986.16 1059.84 975.84 1059.84 965.04 1075.92C954.24 1092 924.97 1113.12 877.23 1139.28C873.32 1141.47 881.16 1147.2 888.72 1154.76ZM936.79 1193.64C943.88 1199.16 950.54 1199.76 956.76 1195.44L969 1187.88C971.88 1185.96 973.8 1181.28 974.76 1173.84C975.72 1166.4 969.84 1163.4 957.12 1164.84L926.52 1182.84C926.28 1184.52 929.7 1188.12 936.79 1193.64ZM1001.26 1228.75C1002.66 1229.11 1004.14 1228.98 1005.45 1228.38C1096.42 1187.12 1143.54 1121.07 1150.31 1111.06C1150.87 1110.23 1151.24 1109.27 1151.34 1108.27C1153.33 1088.22 1137.78 1091.01 1131.82 1092.79C1130.4 1093.21 1129.2 1094.15 1128.39 1095.41C1100.72 1138.56 1052.03 1178.5 982.32 1215.24C976.67 1221.79 994.8 1227.1 1001.26 1228.75ZM1101.48 773.52C1135.44 794.61 1156.22 809.64 1163.83 818.61C1165.57 820.66 1168.1 821.97 1170.77 821.77C1174.61 821.49 1178.91 818.96 1177.44 808.44C1174.95 790.64 1156.96 777.06 1110.59 764.92C1109.47 764.63 1108.28 764.56 1107.13 764.74C1103.6 765.3 1096.83 767.23 1101.48 773.52ZM1182.48 848.04L1193.64 869.64C1198.68 873.96 1200.96 871.68 1200.48 862.8C1199.76 849.48 1193.64 840.48 1186.8 838.32C1182.24 836.88 1180.8 840.12 1182.48 848.04ZM1108.81 849.54C1116.9 856.69 1141.54 881.31 1155.84 926.88C1170.24 972.78 1158.89 1023.43 1154.71 1039.04C1153.71 1042.77 1154.6 1046.79 1157.1 1049.74C1164.35 1058.28 1171.89 1053.28 1175.41 1050C1176.72 1048.79 1177.7 1047.29 1178.37 1045.63C1188.58 1020.01 1193.94 963.93 1179.96 914.64C1167.95 872.32 1135.68 839.51 1125.28 829.77C1122.98 827.62 1119.91 826.44 1116.77 826.58C1104.08 827.18 1103.91 836.96 1104.98 842.87C1105.45 845.47 1106.84 847.79 1108.81 849.54ZM984.66 881.1C1067.83 872.74 1103.61 912.37 1092 1000C1086.49 1055.22 1019.03 1119.79 1003.28 1134.18C1000.87 1136.38 999.59 1139.56 999.85 1142.81C1000.98 1156.93 1014.66 1153.38 1018.81 1151.96C1019.51 1151.72 1020.19 1151.41 1020.83 1151.04C1074.76 1119.57 1108.25 1072.53 1121.28 1009.92C1137.85 917.43 1069.71 867.06 1064.05 863.06C1063.81 862.89 1063.58 862.74 1063.33 862.59C1034.36 844.82 993.41 848.01 981.56 849.4C979.36 849.66 977.27 850.56 975.65 852.08C962.46 864.57 971.18 874.44 976.95 878.91C979.14 880.62 981.9 881.38 984.66 881.1Z" />
	</g>
</svg>