<svg width="261" height="260" xmlns="http://www.w3.org/2000/svg" xmlns:xlink="http://www.w3.org/1999/xlink" overflow="hidden"><defs><clipPath id="clip0"><rect x="468" y="206" width="261" height="260"/></clipPath><clipPath id="clip1"><rect x="469" y="207" width="260" height="259"/></clipPath><clipPath id="clip2"><rect x="469" y="206" width="260" height="260"/></clipPath><linearGradient x1="289.95" y1="267.965" x2="431.117" y2="267.965" gradientUnits="userSpaceOnUse" spreadMethod="pad" id="fill3"><stop offset="0" stop-color="#38B149" stop-opacity="1"/><stop offset="1" stop-color="#A6D151" stop-opacity="1"/></linearGradient></defs><g clip-path="url(#clip0)" transform="translate(-468 -206)"><g clip-path="url(#clip1)"><g clip-path="url(#clip2)"><path d="M264.12 275.715 359.68 247.43 455.237 275.715C461.55 315.256 457.723 351.783 443.754 385.288 429.504 419.465 405.984 448.41 359.68 461.115 323.197 456.929 295.861 433.032 277.669 389.427 263.721 355.99 262.891 325.273 264.12 275.715Z" stroke="#0091EA" stroke-width="6.46745" stroke-linecap="butt" stroke-linejoin="miter" stroke-miterlimit="4" stroke-opacity="1" fill="#012A44" fill-rule="nonzero" fill-opacity="1" transform="matrix(1.00386 0 0 1 235.554 -19.0663)"/><path d="M307.125 307.944C310.463 303.245 337.493 268.044 386.118 286.853 386.423 286.972 386.711 287.126 386.973 287.317 388.004 288.071 390.106 290.123 388.91 293.709 387.483 297.992 380.254 294.614 379.104 294.046 378.978 293.982 378.86 293.931 378.727 293.885 375.558 292.742 339.196 280.551 313.866 313.621 313.481 314.124 312.978 314.53 312.392 314.771 311.221 315.256 309.223 315.734 307.678 314.275 306.004 312.694 306.27 310.373 306.55 309.198 306.662 308.745 306.856 308.325 307.125 307.944ZM299.249 294.984C300.582 295.89 302.296 294.79 302.767 294.449 302.846 294.391 302.914 294.334 302.982 294.262 311.329 285.585 322.187 279.818 323.247 279.265 323.301 279.236 323.358 279.204 323.412 279.168 326.2 277.339 326.136 276.236 325.629 275.646 325.288 275.244 324.738 275.082 324.214 275.14 299.878 277.766 298.545 290.554 298.584 293.669 298.592 294.187 298.822 294.693 299.249 294.984ZM292.545 312.594 296.332 304.894C296.396 304.761 296.443 304.621 296.465 304.473 296.63 303.41 297.111 299.109 293.579 301.728 290.263 304.19 289.954 310.014 289.947 311.954 289.947 312.493 290.227 313.025 290.723 313.24 291.384 313.528 291.991 313.312 292.545 312.594ZM352.692 272.366 360.546 272.366C362.504 271.762 362.691 270.771 361.1 269.391L352.692 269.391C351.916 269.995 351.916 270.986 352.692 272.366ZM293.263 346.742C296.364 344.194 301.998 332.56 302.691 331.109 302.742 331.008 302.781 330.907 302.817 330.799 304.815 324.623 299.447 324.508 297.086 324.734 296.4 324.803 295.782 325.162 295.379 325.719 292.095 330.297 290.374 337.303 290.216 346.742 290.82 348.294 291.837 348.294 293.263 346.742ZM293.263 370.801C293.917 374.94 295.024 376.406 296.583 375.199 309.967 369.162 319.485 357.392 325.141 339.886 328.159 333.505 332.212 328.159 337.299 323.847 338.765 317.207 336.006 314.62 329.021 316.086 324.364 318.414 319.449 325.529 314.275 337.429 310.998 349.587 303.996 358.987 293.263 365.627 292.541 366.115 292.541 367.84 293.263 370.801ZM338.981 375.443C346.479 368.717 351.269 353.784 352.422 349.886 352.613 349.243 353.033 348.689 353.601 348.323 361.973 342.948 365.109 349.623 365.109 354.273 365.109 359.087 363.428 363.04 361.358 367.567 359.289 372.094 364.333 378.432 368.99 374.552 373.646 370.671 376.363 363.816 377.656 357.736 378.95 351.657 378.303 333.16 361.229 331.867 344.155 330.573 339.886 343.767 337.601 352.821 335.682 360.435 327.997 369.604 325.6 372.328 325.115 372.878 324.86 373.593 324.911 374.322 325.363 380.998 330.785 382.798 338.981 375.443ZM301.832 393.624C302.242 394.396 302.795 395.284 303.539 396.283 306.327 400.034 310.269 398.546 311.537 397.924 311.774 397.81 311.997 397.669 312.206 397.508L316.075 394.558C316.966 393.882 317.556 392.869 317.692 391.759 318.669 383.782 312.619 384.127 310.477 384.487 310.035 384.562 309.611 384.717 309.216 384.928L303.543 388.008C301.534 389.1 300.758 391.604 301.832 393.624ZM319.32 414.909C321.131 416.72 323.761 416.892 327.21 415.426 338.248 407.665 346.612 401.5 352.304 396.929 357.995 392.359 359.849 388.91 357.866 386.581 354.33 380.804 350.622 380.804 346.742 386.581 342.861 392.359 332.345 399.947 315.191 409.347 313.787 410.134 316.603 412.192 319.32 414.909ZM336.591 428.878C339.139 430.862 341.532 431.077 343.767 429.525L348.165 426.809C349.199 426.119 349.889 424.438 350.234 421.764 350.579 419.091 348.466 418.013 343.896 418.531L332.901 424.998C332.815 425.602 334.044 426.895 336.591 428.878ZM359.756 441.494C360.259 441.623 360.791 441.576 361.261 441.361 393.947 426.536 410.877 402.804 413.31 399.207 413.511 398.909 413.644 398.564 413.68 398.205 414.395 391.001 408.808 392.003 406.666 392.643 406.156 392.794 405.725 393.131 405.434 393.584 395.492 409.088 377.998 423.439 352.951 436.639 350.92 438.993 357.435 440.901 359.756 441.494ZM395.765 277.928C407.967 285.506 415.433 290.906 418.168 294.129 418.793 294.866 419.702 295.336 420.661 295.264 422.041 295.164 423.586 294.255 423.058 290.475 422.163 284.079 415.699 279.2 399.038 274.838 398.636 274.734 398.208 274.709 397.795 274.773 396.527 274.975 394.094 275.668 395.765 277.928ZM424.869 304.703 428.878 312.464C430.689 314.016 431.509 313.197 431.336 310.007 431.077 305.221 428.878 301.987 426.421 301.211 424.782 300.694 424.265 301.858 424.869 304.703ZM398.399 305.242C401.306 307.811 410.159 316.657 415.297 333.031 420.471 349.523 416.393 367.721 414.891 373.33 414.531 374.67 414.851 376.115 415.75 377.175 418.354 380.243 421.064 378.447 422.328 377.268 422.799 376.833 423.151 376.294 423.392 375.698 427.06 366.493 428.986 346.343 423.963 328.633 419.648 313.427 408.053 301.638 404.317 298.139 403.49 297.366 402.387 296.942 401.259 296.993 396.699 297.208 396.638 300.722 397.023 302.846 397.192 303.78 397.691 304.613 398.399 305.242ZM353.791 316.582C383.675 313.578 396.53 327.817 392.359 359.303 390.379 379.144 366.141 402.344 360.482 407.514 359.616 408.305 359.156 409.447 359.249 410.615 359.655 415.688 364.57 414.413 366.062 413.903 366.313 413.816 366.557 413.705 366.787 413.572 386.165 402.265 398.198 385.363 402.879 362.867 408.833 329.635 384.35 311.537 382.316 310.1 382.23 310.039 382.147 309.985 382.058 309.931 371.649 303.546 356.935 304.693 352.677 305.192 351.887 305.285 351.136 305.609 350.554 306.155 345.815 310.643 348.948 314.189 351.021 315.795 351.808 316.409 352.8 316.682 353.791 316.582Z" fill="url(#fill3)" fill-rule="evenodd" transform="matrix(1.00386 0 0 1 235.554 -19.0663)"/></g></g></g></svg>