<svg width="1200" height="1200" viewBox="0 0 1200 1200" fill="none" xmlns="http://www.w3.org/2000/svg">
<path d="M601.606 1033.15L601.406 960.111L782.212 851.839L781.585 634.519L846.7 599.684L849.295 889.894L601.606 1033.15Z" fill="#FDB900"/>
<path fill-rule="evenodd" clip-rule="evenodd" d="M848.736 596.219C849.918 596.924 850.647 598.199 850.659 599.58L853.253 889.79C853.266 891.217 852.513 892.539 851.283 893.251L603.594 1036.5C602.379 1037.2 600.883 1037.2 599.668 1036.5C598.454 1035.8 597.703 1034.5 597.7 1033.09L597.5 960.054C597.496 958.658 598.226 957.364 599.419 956.649L778.3 849.53L777.679 634.462C777.675 632.998 778.477 631.651 779.763 630.963L844.879 596.128C846.092 595.479 847.554 595.513 848.736 596.219ZM785.551 636.82L786.171 851.76C786.175 853.156 785.445 854.451 784.252 855.166L605.371 962.285L605.546 1026.25L845.368 887.553L842.853 606.165L785.551 636.82Z" fill="white"/>
<path d="M654.398 496.078L728.437 453.425L910.042 569.141L911.039 918.963L849.317 889.818L846.722 599.608L654.398 496.078Z" fill="#FDB900"/>
<path fill-rule="evenodd" clip-rule="evenodd" d="M726.507 450.021C727.773 449.291 729.337 449.326 730.569 450.111L912.174 565.828C913.308 566.55 913.996 567.804 914 569.153L914.998 918.975C915.002 920.33 914.315 921.592 913.178 922.319C912.042 923.047 910.613 923.139 909.393 922.563L847.67 893.418C846.303 892.772 845.424 891.396 845.411 889.878L842.837 602.009L652.568 499.585C651.308 498.907 650.513 497.595 650.493 496.159C650.472 494.723 651.229 493.388 652.469 492.674L726.507 450.021ZM662.534 495.985L848.606 596.149C849.872 596.83 850.668 598.152 850.681 599.596L853.253 887.322L907.115 912.755L906.141 571.342L728.361 458.062L662.534 495.985Z" fill="white"/>
<path d="M598.836 94.6289L909.188 274.412L909.416 349.285L599.15 173.038L598.836 94.6289Z" fill="#FDB900"/>
<path fill-rule="evenodd" clip-rule="evenodd" d="M596.888 91.1658C598.105 90.4559 599.607 90.4537 600.826 91.16L911.179 270.943C912.393 271.646 913.143 272.946 913.147 274.354L913.375 349.227C913.379 350.635 912.638 351.938 911.43 352.65C910.221 353.361 908.727 353.372 907.507 352.679L597.24 176.432C596.011 175.734 595.249 174.427 595.243 173.008L594.93 94.5991C594.924 93.185 595.671 91.8757 596.888 91.1658ZM602.822 101.438L603.099 170.682L905.49 342.455L905.289 276.653L602.822 101.438Z" fill="white"/>
<path d="M290.742 643.261L289.688 278.033L598.814 94.6289L599.128 173.038L347.732 316.145L346.763 601.154L290.742 643.261Z" fill="#FDB900"/>
<path fill-rule="evenodd" clip-rule="evenodd" d="M600.783 91.1477C602.008 91.8471 602.767 93.1516 602.773 94.5673L603.086 172.976C603.092 174.405 602.329 175.726 601.092 176.43L351.683 318.407L350.722 601.121C350.718 602.362 350.134 603.529 349.145 604.272L293.124 646.379C291.934 647.274 290.343 647.418 289.013 646.751C287.683 646.084 286.84 644.72 286.836 643.227L285.781 277.999C285.777 276.597 286.513 275.298 287.714 274.585L596.841 91.1807C598.054 90.4609 599.558 90.4483 600.783 91.1477ZM293.653 280.239L294.678 635.342L342.864 599.124L343.826 316.086C343.831 314.668 344.592 313.361 345.82 312.662L595.212 170.694L594.935 101.489L293.653 280.239Z" fill="white"/>
<path d="M472.875 745.149L290.758 643.2L346.779 601.093L658.813 782.485L473.331 888.946L411.181 924.127L601.623 1033.09L849.312 889.837L911.035 918.982L600.084 1106.12L291.585 928.036L537.477 781.307L472.875 745.149Z" fill="#FDB900"/>
<path fill-rule="evenodd" clip-rule="evenodd" d="M344.449 597.998C345.71 597.051 347.411 596.95 348.774 597.742L660.809 779.134C662.027 779.843 662.776 781.151 662.772 782.565C662.768 783.98 662.012 785.284 660.79 785.986L475.308 892.447L475.288 892.459L419.187 924.215L601.639 1028.61L847.377 886.482C848.491 885.838 849.848 885.781 851.011 886.331L912.734 915.475C914.049 916.096 914.916 917.395 914.989 918.853C915.062 920.311 914.328 921.691 913.082 922.441L602.131 1109.58C600.909 1110.32 599.386 1110.33 598.151 1109.62L289.652 931.532C288.44 930.832 287.689 929.538 287.678 928.134C287.668 926.729 288.401 925.425 289.603 924.708L529.618 781.486L470.988 748.67L470.988 748.67L288.87 646.722C287.706 646.07 286.95 644.87 286.86 643.534C286.771 642.198 287.361 640.908 288.429 640.106L344.449 597.998ZM347.082 605.889L297.996 642.784L474.815 741.767L474.815 741.767L539.417 777.924C540.647 778.612 541.416 779.908 541.436 781.322C541.455 782.735 540.722 784.052 539.512 784.774L299.407 928.049L600.069 1101.61L902.708 919.473L849.523 894.36L603.611 1036.58C602.403 1037.28 600.916 1037.29 599.704 1036.59L409.262 927.63C408.031 926.926 407.272 925.611 407.275 924.187C407.278 922.764 408.043 921.452 409.277 920.754L471.407 885.585L471.428 885.573L650.949 782.533L347.082 605.889Z" fill="white"/>
<path d="M347.766 316.144L599.161 173.036L909.428 349.284L728.451 453.503L654.412 496.157L846.736 599.686L781.62 634.522L534.758 492.708L780.794 345.978L722.093 311.89L599.36 240.609L416.616 347.042L347.766 316.144Z" fill="#FDB900"/>
<path fill-rule="evenodd" clip-rule="evenodd" d="M597.241 169.553C598.442 168.87 599.913 168.869 601.115 169.552L911.382 345.799C912.612 346.498 913.375 347.807 913.379 349.227C913.383 350.648 912.628 351.961 911.402 352.667L730.425 456.886L662.54 495.995L848.611 596.158C849.891 596.847 850.689 598.188 850.687 599.647C850.685 601.105 849.884 602.444 848.602 603.129L783.487 637.965C782.295 638.603 780.86 638.581 779.687 637.907L532.825 496.093C531.61 495.395 530.856 494.101 530.844 492.695C530.833 491.289 531.566 489.983 532.77 489.265L773.031 345.979L720.144 315.266L599.382 245.13L418.606 350.416C417.514 351.052 416.183 351.122 415.03 350.605L346.18 319.707C344.826 319.099 343.927 317.777 343.856 316.288C343.785 314.798 344.555 313.396 345.846 312.661L597.241 169.553ZM599.181 177.532L356.496 315.681L416.402 342.565L597.407 237.146C598.625 236.436 600.128 236.435 601.347 237.143L782.78 342.512C783.989 343.214 784.736 344.508 784.745 345.911C784.753 347.313 784.02 348.615 782.819 349.331L542.589 492.599L781.707 629.964L838.407 599.631L652.573 499.595C651.313 498.917 650.519 497.605 650.498 496.169C650.478 494.733 651.234 493.398 652.474 492.684L726.513 450.03L901.497 349.262L599.181 177.532Z" fill="white"/>
<path d="M411.188 924.12L475.625 887.765L601.43 960.048L601.63 1033.08L411.188 924.12Z" fill="#FDB900"/>
<path fill-rule="evenodd" clip-rule="evenodd" d="M473.726 884.343C474.931 883.663 476.403 883.669 477.603 884.358L603.408 956.642C604.63 957.343 605.385 958.647 605.389 960.061L605.588 1033.09C605.592 1034.5 604.849 1035.81 603.637 1036.52C602.425 1037.23 600.929 1037.24 599.71 1036.54L409.268 927.578C408.036 926.873 407.277 925.556 407.281 924.132C407.286 922.708 408.052 921.396 409.288 920.699L473.726 884.343ZM419.203 924.168L597.705 1026.3L597.53 962.368L475.634 892.33L419.203 924.168Z" fill="white"/>
<path d="M291.58 928.113L291.352 849.646L472.87 745.226L537.473 781.383L291.58 928.113Z" fill="#FDB900"/>
<path fill-rule="evenodd" clip-rule="evenodd" d="M470.935 741.728C472.131 741.04 473.598 741.032 474.802 741.705L539.405 777.863C540.634 778.551 541.404 779.847 541.423 781.26C541.442 782.674 540.709 783.991 539.499 784.713L293.606 931.442C292.392 932.166 290.886 932.181 289.658 931.481C288.43 930.782 287.67 929.474 287.666 928.056L287.438 849.59C287.433 848.169 288.189 846.855 289.416 846.149L470.935 741.728ZM472.915 749.695L295.309 851.865L295.51 921.114L529.606 781.425L472.915 749.695Z" fill="white"/>
<path d="M534.773 492.651L535.515 417.892L722.108 311.833L780.809 345.921L534.773 492.651Z" fill="#FDB900"/>
<path fill-rule="evenodd" clip-rule="evenodd" d="M720.144 308.417C721.356 307.728 722.841 307.735 724.047 308.436L782.748 342.524C783.957 343.226 784.705 344.519 784.713 345.922C784.721 347.325 783.988 348.627 782.788 349.343L536.752 496.072C535.531 496.801 534.013 496.811 532.782 496.098C531.551 495.386 530.799 494.062 530.813 492.635L531.554 417.876C531.568 416.466 532.329 415.171 533.55 414.476L720.144 308.417ZM539.396 420.233L538.747 485.693L773 345.99L722.059 316.408L539.396 420.233Z" fill="white"/>
<path d="M346.797 601.045L347.766 316.037L416.616 346.935L417.243 570.578L658.603 706.012L658.831 782.438L346.797 601.045Z" fill="#FDB900"/>
<path fill-rule="evenodd" clip-rule="evenodd" d="M345.604 312.812C346.721 312.087 348.127 311.978 349.341 312.523L418.191 343.421C419.604 344.055 420.516 345.463 420.52 347.018L421.141 568.35L660.492 702.656C661.733 703.352 662.503 704.666 662.507 706.094L662.735 782.52C662.74 783.934 661.991 785.243 660.773 785.951C659.554 786.66 658.052 786.66 656.834 785.952L344.799 604.559C343.58 603.851 342.831 602.541 342.836 601.126L343.805 316.118C343.81 314.781 344.486 313.538 345.604 312.812ZM351.65 322.214L350.709 598.865L654.85 775.669L654.649 708.429L415.298 574.122C414.057 573.426 413.286 572.112 413.282 570.684L412.662 349.595L351.65 322.214Z" fill="white"/>
</svg>
