<svg id="Layer_1" data-name="Layer 1" xmlns="http://www.w3.org/2000/svg" xmlns:xlink="http://www.w3.org/1999/xlink" viewBox="0 0 272.47 272.32"><defs><style>.cls-1{opacity:0.58;}.cls-10,.cls-11,.cls-12,.cls-13,.cls-14,.cls-15,.cls-16,.cls-17,.cls-18,.cls-19,.cls-2,.cls-20,.cls-21,.cls-22,.cls-23,.cls-24,.cls-25,.cls-26,.cls-27,.cls-28,.cls-29,.cls-3,.cls-30,.cls-31,.cls-32,.cls-33,.cls-34,.cls-35,.cls-36,.cls-37,.cls-38,.cls-39,.cls-4,.cls-40,.cls-41,.cls-42,.cls-43,.cls-44,.cls-45,.cls-46,.cls-47,.cls-48,.cls-49,.cls-5,.cls-50,.cls-51,.cls-52,.cls-53,.cls-6,.cls-7,.cls-8,.cls-9{fill:none;stroke-miterlimit:10;stroke-width:0.85px;}.cls-2{stroke:url(#linear-gradient);}.cls-3{stroke:url(#linear-gradient-2);}.cls-4{stroke:url(#linear-gradient-3);}.cls-5{stroke:url(#linear-gradient-4);}.cls-6{stroke:url(#linear-gradient-5);}.cls-7{stroke:url(#linear-gradient-6);}.cls-8{stroke:url(#linear-gradient-7);}.cls-9{stroke:url(#linear-gradient-8);}.cls-10{stroke:url(#linear-gradient-9);}.cls-11{stroke:url(#linear-gradient-10);}.cls-12{stroke:url(#linear-gradient-11);}.cls-13{stroke:url(#linear-gradient-12);}.cls-14{stroke:url(#linear-gradient-13);}.cls-15{stroke:url(#linear-gradient-14);}.cls-16{stroke:url(#linear-gradient-15);}.cls-17{stroke:url(#linear-gradient-16);}.cls-18{stroke:url(#linear-gradient-17);}.cls-19{stroke:url(#linear-gradient-18);}.cls-20{stroke:url(#linear-gradient-19);}.cls-21{stroke:url(#linear-gradient-20);}.cls-22{stroke:url(#linear-gradient-21);}.cls-23{stroke:url(#linear-gradient-22);}.cls-24{stroke:url(#linear-gradient-23);}.cls-25{stroke:url(#linear-gradient-24);}.cls-26{stroke:url(#linear-gradient-25);}.cls-27{stroke:url(#linear-gradient-26);}.cls-28{stroke:url(#linear-gradient-27);}.cls-29{stroke:url(#linear-gradient-28);}.cls-30{stroke:url(#linear-gradient-29);}.cls-31{stroke:url(#linear-gradient-30);}.cls-32{stroke:url(#linear-gradient-31);}.cls-33{stroke:url(#linear-gradient-32);}.cls-34{stroke:url(#linear-gradient-33);}.cls-35{stroke:url(#linear-gradient-34);}.cls-36{stroke:url(#linear-gradient-35);}.cls-37{stroke:url(#linear-gradient-36);}.cls-38{stroke:url(#linear-gradient-37);}.cls-39{stroke:url(#linear-gradient-38);}.cls-40{stroke:url(#linear-gradient-39);}.cls-41{stroke:url(#linear-gradient-40);}.cls-42{stroke:url(#linear-gradient-41);}.cls-43{stroke:url(#linear-gradient-42);}.cls-44{stroke:url(#linear-gradient-43);}.cls-45{stroke:url(#linear-gradient-44);}.cls-46{stroke:url(#linear-gradient-45);}.cls-47{stroke:url(#linear-gradient-46);}.cls-48{stroke:url(#linear-gradient-47);}.cls-49{stroke:url(#linear-gradient-48);}.cls-50{stroke:url(#linear-gradient-49);}.cls-51{stroke:url(#linear-gradient-50);}.cls-52{stroke:url(#linear-gradient-51);}.cls-53{stroke:url(#linear-gradient-52);}</style><linearGradient id="linear-gradient" y1="136.16" x2="272.47" y2="136.16" gradientUnits="userSpaceOnUse"><stop offset="0" stop-color="#201edf"/><stop offset="0.06" stop-color="#2027de"/><stop offset="0.15" stop-color="#2141db"/><stop offset="0.27" stop-color="#236ad7"/><stop offset="0.41" stop-color="#25a4d1"/><stop offset="0.55" stop-color="#27e4ca"/><stop offset="0.87" stop-color="#e5c500"/><stop offset="0.99" stop-color="#e25900"/></linearGradient><linearGradient id="linear-gradient-2" x1="2.56" y1="136.89" x2="270.88" y2="136.89" xlink:href="#linear-gradient"/><linearGradient id="linear-gradient-3" x1="5.12" y1="137.64" x2="269.32" y2="137.64" xlink:href="#linear-gradient"/><linearGradient id="linear-gradient-4" x1="7.67" y1="138.4" x2="267.78" y2="138.4" xlink:href="#linear-gradient"/><linearGradient id="linear-gradient-5" x1="10.22" y1="139.16" x2="266.27" y2="139.16" xlink:href="#linear-gradient"/><linearGradient id="linear-gradient-6" x1="12.77" y1="139.92" x2="264.79" y2="139.92" xlink:href="#linear-gradient"/><linearGradient id="linear-gradient-7" x1="15.32" y1="140.68" x2="263.33" y2="140.68" xlink:href="#linear-gradient"/><linearGradient id="linear-gradient-8" x1="17.86" y1="141.43" x2="261.9" y2="141.43" xlink:href="#linear-gradient"/><linearGradient id="linear-gradient-9" x1="20.41" y1="142.17" x2="260.5" y2="142.17" xlink:href="#linear-gradient"/><linearGradient id="linear-gradient-10" x1="22.95" y1="142.89" x2="259.14" y2="142.89" xlink:href="#linear-gradient"/><linearGradient id="linear-gradient-11" x1="25.5" y1="143.59" x2="257.81" y2="143.59" xlink:href="#linear-gradient"/><linearGradient id="linear-gradient-12" x1="28.04" y1="144.26" x2="256.51" y2="144.26" xlink:href="#linear-gradient"/><linearGradient id="linear-gradient-13" x1="30.59" y1="144.9" x2="255.26" y2="144.9" xlink:href="#linear-gradient"/><linearGradient id="linear-gradient-14" x1="33.13" y1="145.51" x2="254.04" y2="145.51" xlink:href="#linear-gradient"/><linearGradient id="linear-gradient-15" x1="35.67" y1="146.08" x2="252.86" y2="146.08" xlink:href="#linear-gradient"/><linearGradient id="linear-gradient-16" x1="38.22" y1="146.6" x2="251.73" y2="146.6" xlink:href="#linear-gradient"/><linearGradient id="linear-gradient-17" x1="40.76" y1="147.06" x2="250.64" y2="147.06" xlink:href="#linear-gradient"/><linearGradient id="linear-gradient-18" x1="43.3" y1="147.48" x2="249.6" y2="147.48" xlink:href="#linear-gradient"/><linearGradient id="linear-gradient-19" x1="45.84" y1="147.84" x2="248.61" y2="147.84" xlink:href="#linear-gradient"/><linearGradient id="linear-gradient-20" x1="48.39" y1="148.14" x2="247.67" y2="148.14" xlink:href="#linear-gradient"/><linearGradient id="linear-gradient-21" x1="50.93" y1="148.37" x2="246.79" y2="148.37" xlink:href="#linear-gradient"/><linearGradient id="linear-gradient-22" x1="53.47" y1="148.55" x2="245.97" y2="148.55" xlink:href="#linear-gradient"/><linearGradient id="linear-gradient-23" x1="56.01" y1="148.65" x2="245.17" y2="148.65" xlink:href="#linear-gradient"/><linearGradient id="linear-gradient-24" x1="58.55" y1="148.7" x2="244.48" y2="148.7" xlink:href="#linear-gradient"/><linearGradient id="linear-gradient-25" x1="61.09" y1="148.68" x2="243.86" y2="148.68" xlink:href="#linear-gradient"/><linearGradient id="linear-gradient-26" x1="63.63" y1="148.6" x2="243.33" y2="148.6" xlink:href="#linear-gradient"/><linearGradient id="linear-gradient-27" x1="66.17" y1="148.47" x2="242.87" y2="148.47" xlink:href="#linear-gradient"/><linearGradient id="linear-gradient-28" x1="68.71" y1="148.28" x2="242.51" y2="148.28" xlink:href="#linear-gradient"/><linearGradient id="linear-gradient-29" x1="71.25" y1="148.04" x2="242.24" y2="148.04" xlink:href="#linear-gradient"/><linearGradient id="linear-gradient-30" x1="73.79" y1="147.75" x2="242.07" y2="147.75" xlink:href="#linear-gradient"/><linearGradient id="linear-gradient-31" x1="76.33" y1="147.42" x2="242.02" y2="147.42" xlink:href="#linear-gradient"/><linearGradient id="linear-gradient-32" x1="78.86" y1="147.05" x2="242.09" y2="147.05" xlink:href="#linear-gradient"/><linearGradient id="linear-gradient-33" x1="81.4" y1="146.65" x2="242.28" y2="146.65" xlink:href="#linear-gradient"/><linearGradient id="linear-gradient-34" x1="83.94" y1="146.22" x2="242.6" y2="146.22" xlink:href="#linear-gradient"/><linearGradient id="linear-gradient-35" x1="86.48" y1="145.76" x2="243.06" y2="145.76" xlink:href="#linear-gradient"/><linearGradient id="linear-gradient-36" x1="89.02" y1="145.27" x2="243.67" y2="145.27" xlink:href="#linear-gradient"/><linearGradient id="linear-gradient-37" x1="89.65" y1="144.77" x2="244.43" y2="144.77" xlink:href="#linear-gradient"/><linearGradient id="linear-gradient-38" x1="88.62" y1="144.25" x2="245.34" y2="144.25" xlink:href="#linear-gradient"/><linearGradient id="linear-gradient-39" x1="87.57" y1="143.71" x2="246.41" y2="143.71" xlink:href="#linear-gradient"/><linearGradient id="linear-gradient-40" x1="86.49" y1="143.16" x2="247.64" y2="143.16" xlink:href="#linear-gradient"/><linearGradient id="linear-gradient-41" x1="85.39" y1="142.6" x2="249.01" y2="142.6" xlink:href="#linear-gradient"/><linearGradient id="linear-gradient-42" x1="84.26" y1="142.03" x2="250.53" y2="142.03" xlink:href="#linear-gradient"/><linearGradient id="linear-gradient-43" x1="83.12" y1="141.45" x2="252.2" y2="141.45" xlink:href="#linear-gradient"/><linearGradient id="linear-gradient-44" x1="81.95" y1="140.87" x2="254" y2="140.87" xlink:href="#linear-gradient"/><linearGradient id="linear-gradient-45" x1="80.76" y1="140.28" x2="255.94" y2="140.28" xlink:href="#linear-gradient"/><linearGradient id="linear-gradient-46" x1="79.55" y1="139.69" x2="257.99" y2="139.69" xlink:href="#linear-gradient"/><linearGradient id="linear-gradient-47" x1="78.31" y1="139.1" x2="260.17" y2="139.1" xlink:href="#linear-gradient"/><linearGradient id="linear-gradient-48" x1="77.05" y1="138.51" x2="262.45" y2="138.51" xlink:href="#linear-gradient"/><linearGradient id="linear-gradient-49" x1="75.76" y1="137.92" x2="264.82" y2="137.92" xlink:href="#linear-gradient"/><linearGradient id="linear-gradient-50" x1="74.45" y1="137.33" x2="267.29" y2="137.33" xlink:href="#linear-gradient"/><linearGradient id="linear-gradient-51" x1="73.11" y1="136.74" x2="269.84" y2="136.74" xlink:href="#linear-gradient"/><linearGradient id="linear-gradient-52" x1="71.75" y1="136.16" x2="272.47" y2="136.16" xlink:href="#linear-gradient"/></defs><g class="cls-1"><ellipse class="cls-2" cx="136.23" cy="136.16" rx="135.81" ry="135.73"/><path class="cls-3" d="M138.9,3.09A133.84,133.84,0,0,1,249.1,209.45C225,247,182.47,271.83,135,270.68a140.3,140.3,0,0,1-21.14-2.16C79.35,262.39,50,243.24,30.1,215a152.24,152.24,0,0,1-15-26.15,142.27,142.27,0,0,1-8.93-27.15Q5,156,4.19,150.23c-.46-3.46-.8-6.95-1-10.48-.12-2-.18-4.05-.2-6.08,0-2.95,0-5.86.28-8.7.1-1.26.22-2.51.37-3.75A133.61,133.61,0,0,1,138.9,3.09Z"/><path class="cls-4" d="M141.56,5.75C213.61,8.4,270.73,68.19,268.85,141a132,132,0,0,1-22,69.66c-24.26,36.68-66.67,61.06-113.11,58.78a143.19,143.19,0,0,1-20.54-2.61c-33.4-6.54-61.1-25.3-80.32-54.15a176,176,0,0,1-14.69-26.33,150,150,0,0,1-9.08-27.2c-.87-3.77-1.58-7.6-2.14-11.45-.5-3.47-.88-7-1.12-10.48q-.21-3-.27-6.09a70.85,70.85,0,0,1,.29-8.68c.12-1.24.27-2.47.44-3.69A131.49,131.49,0,0,1,141.56,5.75Z"/><path class="cls-5" d="M144.22,8.41c70.56,4,125.85,63.28,123,135.07A130.49,130.49,0,0,1,244.58,212c-24.38,35.9-66.73,59.74-112.1,56.32a147.61,147.61,0,0,1-19.93-3c-32.31-7-58.4-25.31-76.9-54.78a206.31,206.31,0,0,1-14.43-26.51A158.9,158.9,0,0,1,12,156.69c-.91-3.78-1.65-7.6-2.26-11.45-.55-3.47-1-7-1.25-10.47-.16-2-.28-4.06-.34-6.09a58.81,58.81,0,0,1,.3-8.67q.21-1.83.51-3.63A129.43,129.43,0,0,1,144.22,8.41Z"/><path class="cls-6" d="M146.89,11.07c69.05,5.29,122.53,64.12,118.77,134.85a129.13,129.13,0,0,1-23.33,67.28c-24.5,35.11-66.8,58.42-111.1,53.86a152.39,152.39,0,0,1-19.33-3.48c-31.22-7.36-55.69-25.3-73.48-55.4A251.2,251.2,0,0,1,24.27,181.5a168,168,0,0,1-9.39-27.31c-1-3.78-1.73-7.6-2.38-11.45q-.88-5.22-1.38-10.46c-.19-2-.32-4.07-.41-6.09a49.22,49.22,0,0,1,.31-8.66c.16-1.21.36-2.39.58-3.56A127.44,127.44,0,0,1,146.89,11.07Z"/><path class="cls-7" d="M149.55,13.73c67.55,6.61,119.21,65,114.52,134.62a127.79,127.79,0,0,1-24,66.1c-24.61,34.32-66.87,57.1-110.09,51.4a155.77,155.77,0,0,1-18.72-3.91c-30.13-7.78-53-25.28-70.07-56-4.72-8.49-9.73-17.38-13.88-26.86a178.55,178.55,0,0,1-9.54-27.36c-1-3.79-1.81-7.61-2.51-11.44q-.94-5.24-1.5-10.46-.31-3.07-.48-6.09a41.58,41.58,0,0,1,.32-8.65c.18-1.19.4-2.35.65-3.5A125.5,125.5,0,0,1,149.55,13.73Z"/><path class="cls-8" d="M152.21,16.39c66,7.93,115.9,65.79,110.26,134.4a126.36,126.36,0,0,1-24.66,64.91c-24.73,33.53-67,55.77-109.08,48.94a159.27,159.27,0,0,1-18.12-4.35c-29-8.19-50.28-25.24-66.64-56.64-4.47-8.59-9.47-17.53-13.62-27.05a194.57,194.57,0,0,1-9.69-27.41q-1.53-5.69-2.63-11.44-1-5.24-1.63-10.45-.36-3.08-.55-6.1a36.44,36.44,0,0,1,.33-8.63c.2-1.17.44-2.31.73-3.43A123.62,123.62,0,0,1,152.21,16.39Z"/><path class="cls-9" d="M154.87,19.06c64.51,9.23,112.58,66.62,106,134.17a124.93,124.93,0,0,1-25.32,63.71c-24.83,32.75-67.06,54.44-108.07,46.49A166.66,166.66,0,0,1,110,258.65C82,250,62.39,233.45,46.74,201.38c-4.22-8.67-9.19-17.66-13.35-27.23a208.56,208.56,0,0,1-9.84-27.46Q22,141,20.8,135.26,19.72,130,19,124.81q-.39-3.09-.62-6.1a32.46,32.46,0,0,1,.34-8.62c.22-1.15.49-2.27.8-3.37C36.41,47.41,93.57,10.28,154.87,19.06Z"/><path class="cls-10" d="M157.54,21.72c63,10.53,109.25,67.46,101.74,134-2.62,23.46-12.11,44.75-26,62.52-25,32-67.19,53.1-107.07,44A168.55,168.55,0,0,1,109.32,257c-26.82-9-44.88-25.14-59.8-57.89-4-8.74-8.92-17.79-13.09-27.41a226.82,226.82,0,0,1-10-27.51c-1.09-3.8-2.05-7.62-2.88-11.43q-1.14-5.26-1.88-10.44-.43-3.1-.69-6.1a29.26,29.26,0,0,1,.35-8.61c.24-1.13.53-2.23.87-3.31C40.54,46.43,97.55,11.68,157.54,21.72Z"/><path class="cls-11" d="M160.2,24.38c61.41,11.83,105.94,68.29,97.48,133.73C254.74,181.19,245,202.06,231,219.44,206,250.61,163.72,271.19,125,261c-6-1.58-11.28-3.82-16.31-5.66-25.7-9.44-42.19-25.07-56.38-58.52-3.74-8.81-8.64-17.92-12.81-27.59a245.66,245.66,0,0,1-10.15-27.56c-1.13-3.8-2.13-7.62-3-11.42q-1.2-5.28-2-10.44c-.32-2.07-.57-4.11-.76-6.1a26.62,26.62,0,0,1,.36-8.6,31,31,0,0,1,.94-3.24C44.67,45.45,101.51,13.07,160.2,24.38Z"/><path class="cls-12" d="M162.86,27c59.86,13.12,102.62,69.13,93.23,133.51-3.27,22.71-13.23,43.14-27.31,60.14-25.15,30.38-67.46,50.38-105,39.12-5.86-1.76-10.9-4.18-15.7-6.1-24.59-9.84-39.51-25-53-59.14-3.5-8.88-8.36-18.06-12.54-27.77a270.86,270.86,0,0,1-10.31-27.61c-1.16-3.81-2.2-7.63-3.11-11.42q-1.28-5.28-2.14-10.43c-.34-2.08-.62-4.11-.83-6.11a24.12,24.12,0,0,1,.37-8.58,30.19,30.19,0,0,1,1-3.18C48.78,44.48,105.46,14.45,162.86,27Z"/><path class="cls-13" d="M165.53,29.7c58.28,14.41,99.29,70,89,133.29-3.59,22.33-13.78,42.34-28,58.95-25.26,29.59-67.62,49-104,36.66-5.72-1.94-10.51-4.53-15.1-6.54-23.46-10.25-36.83-24.88-49.54-59.76-3.26-9-8.09-18.19-12.28-28-3.86-9-7.51-18.32-10.46-27.65-1.2-3.82-2.28-7.64-3.23-11.42-.9-3.53-1.65-7-2.27-10.43-.37-2.09-.67-4.12-.9-6.11a22.29,22.29,0,0,1,.38-8.57,24.85,24.85,0,0,1,1.09-3.11C52.88,43.51,109.4,15.83,165.53,29.7Z"/><path class="cls-14" d="M168.19,32.36c56.7,15.68,96,70.81,84.71,133.07C249,187.38,238.55,207,224.27,223.19c-25.36,28.8-67.78,47.6-103,34.2-5.59-2.12-10.13-4.89-14.49-7C84.41,239.76,72.57,225.63,60.61,190c-3-9-7.82-18.32-12-28.13-3.86-9-7.58-18.37-10.61-27.7q-1.86-5.74-3.36-11.42c-.93-3.53-1.73-7-2.39-10.43-.39-2.08-.72-4.12-1-6.1a20.48,20.48,0,0,1,.39-8.55,23,23,0,0,1,1.16-3.06C57,42.55,113.32,17.2,168.19,32.36Z"/><path class="cls-15" d="M170.85,35C226,52,263.51,106.66,251.3,167.87c-4.25,21.58-14.9,40.73-29.29,56.57-25.45,28-67.95,46.19-102,31.74-5.45-2.31-9.75-5.24-13.89-7.41-21.19-11.06-31.5-24.67-42.7-61-2.8-9.08-7.55-18.45-11.75-28.31C47.77,150.37,44,141,40.88,131.7c-1.28-3.83-2.44-7.65-3.48-11.41q-1.47-5.33-2.51-10.43c-.43-2.09-.78-4.13-1-6.1a19.13,19.13,0,0,1,.4-8.54,19.56,19.56,0,0,1,1.23-3C61.05,41.59,117.23,18.55,170.85,35Z"/><path class="cls-16" d="M173.51,37.69c53.52,18.17,89.35,72.47,76.2,132.61-4.58,21.21-15.45,39.93-30,55.39-25.54,27.22-68.13,44.75-101,29.28-5.32-2.5-9.36-5.59-13.28-7.84-20-11.47-28.86-24.56-39.29-61.64-2.57-9.14-7.27-18.59-11.47-28.49-3.88-9.11-7.72-18.49-10.92-27.8-1.32-3.83-2.52-7.65-3.6-11.41q-1.55-5.33-2.64-10.42-.69-3.15-1.12-6.11a17.78,17.78,0,0,1,.41-8.52,19.2,19.2,0,0,1,1.3-2.93C65.11,40.64,121.13,19.9,173.51,37.69Z"/><path class="cls-17" d="M176.18,40.35c51.91,19.39,86,73.31,71.93,132.39-4.9,20.83-16,39.12-30.61,54.19-25.63,26.44-68.32,43.3-100,26.84-5.18-2.7-9-6-12.68-8.29-18.9-11.86-26.22-24.43-35.87-62.26-2.34-9.2-7-18.72-11.2-28.67C53.85,145.4,50,136,46.66,126.7q-2-5.76-3.72-11.41c-1.07-3.55-2-7-2.77-10.41q-.72-3.15-1.19-6.11a16.76,16.76,0,0,1,.41-8.51,18.93,18.93,0,0,1,1.38-2.87C69.16,39.69,125,21.23,176.18,40.35Z"/><path class="cls-18" d="M178.84,43c50.29,20.6,82.7,74.15,67.68,132.17-5.23,20.46-16.56,38.32-31.28,53-25.72,25.65-68.51,41.81-99,24.38-5.06-2.89-8.59-6.31-12.09-8.72C86.42,231.59,80.56,219.54,71.71,181,69.58,171.7,65,162.1,60.77,152.1c-3.88-9.19-7.85-18.61-11.22-27.9-1.4-3.84-2.68-7.66-3.85-11.4-1.11-3.56-2.08-7-2.89-10.41q-.77-3.17-1.26-6.11C41,93,41,90.15,42,87.78A17.27,17.27,0,0,1,43.42,85C73.2,38.73,128.9,22.55,178.84,43Z"/><path class="cls-19" d="M181.5,45.67c48.68,21.8,79.39,75,63.42,132-5.55,20.08-17.1,37.51-31.94,51.81-25.8,24.86-68.7,40.3-98,21.92-4.93-3.09-8.2-6.66-11.48-9.16-16.58-12.62-21-24.16-29-63.51-1.9-9.31-6.45-19-10.67-29C59.93,140.43,55.9,131,52.44,121.7c-1.44-3.85-2.76-7.66-4-11.4-1.16-3.57-2.18-7-3-10.4q-.81-3.18-1.33-6.12c-.59-3.32-.57-6.14.43-8.48a15.69,15.69,0,0,1,1.53-2.74C77.22,37.78,132.77,23.85,181.5,45.67Z"/><path class="cls-20" d="M184.17,48.33c47,23,76.06,75.82,59.16,131.73-5.89,19.7-17.65,36.71-32.61,50.62-25.87,24.08-68.89,38.77-97,19.46-4.8-3.3-7.8-7-10.88-9.59-15.4-13-18.37-24-25.6-64.13-1.69-9.37-6.18-19.13-10.4-29.22-3.89-9.26-8-18.72-11.53-28-1.48-3.85-2.84-7.66-4.09-11.39-1.21-3.58-2.27-7.06-3.15-10.4q-.84-3.19-1.4-6.12c-.63-3.35-.61-6.16.44-8.47a14.87,14.87,0,0,1,1.6-2.67C81.22,36.82,136.64,25.13,184.17,48.33Z"/><path class="cls-21" d="M186.83,51c45.42,24.11,72.75,76.66,54.9,131.51-6.21,19.33-18.19,35.91-33.26,49.43-26,23.29-69.08,37.21-96,17-4.67-3.5-7.41-7.35-10.27-10C88,225.57,86.44,215,80,174.15c-1.48-9.43-5.9-19.26-10.13-29.4-3.89-9.3-8.05-18.78-11.69-28C56.7,112.85,55.3,109,54,105.31s-2.35-7.06-3.27-10.39q-.88-3.19-1.47-6.12c-.66-3.38-.66-6.18.45-8.46a13.42,13.42,0,0,1,1.67-2.61C85.21,35.86,140.49,26.39,186.83,51Z"/><path class="cls-22" d="M189.49,53.65c43.79,25.24,69.43,77.5,50.64,131.29-6.53,18.95-18.73,35.1-33.92,48.24-26,22.51-69.25,35.62-95,14.54-4.54-3.71-7-7.69-9.67-10.46C88.51,223.6,88.38,213.53,82.8,171.88c-1.26-9.48-5.62-19.39-9.86-29.57C69.05,133,64.82,123.46,61.1,114.2c-1.55-3.86-3-7.67-4.33-11.38s-2.44-7.07-3.4-10.39q-.93-3.21-1.54-6.12c-.7-3.4-.7-6.2.46-8.45A12.59,12.59,0,0,1,54,75.32C89.19,34.89,144.35,27.64,189.49,53.65Z"/><path class="cls-23" d="M192.16,56.32c42.15,26.33,66.1,78.33,46.38,131.06-6.86,18.57-19.28,34.3-34.59,47.05-26.09,21.73-69.42,34-94,12.08-4.41-3.93-6.62-8-9.06-10.9-11.89-14-10.63-23.58-15.35-66-1.06-9.53-5.35-19.53-9.6-29.75-3.89-9.38-8.19-18.9-12-28.16-1.58-3.86-3.07-7.67-4.45-11.38S57,93.25,56,89.94q-1-3.22-1.61-6.13c-.74-3.42-.74-6.21.47-8.43a12.19,12.19,0,0,1,1.81-2.48C93.15,33.92,148.2,28.86,192.16,56.32Z"/><path class="cls-24" d="M194.82,59c40.53,27.41,62.68,79.12,42.12,130.84-7.22,18.18-19.82,33.5-35.24,45.86-26.17,20.95-69.58,32.38-93,9.63-4.27-4.15-6.22-8.37-8.46-11.34-10.72-14.28-8.07-23.43-11.93-66.63-.85-9.59-5.07-19.66-9.33-29.93-3.89-9.41-8.25-19-12.14-28.21-1.62-3.87-3.15-7.68-4.57-11.37s-2.62-7.08-3.66-10.39C58,85.3,57.41,83.25,57,81.32c-.78-3.45-.78-6.23.48-8.42a11.52,11.52,0,0,1,1.88-2.42C97.1,32.94,152.05,30.06,194.82,59Z"/><path class="cls-25" d="M197.48,61.64c38.92,28.46,59.36,80,37.87,130.62-7.56,17.8-20.36,32.7-35.91,44.67-26.23,20.17-69.71,30.73-91.95,7.17-4.13-4.38-5.83-8.7-7.85-11.78-9.56-14.55-5.53-23.28-8.51-67.25-.66-9.64-4.81-19.79-9.06-30.11-3.9-9.45-8.33-19-12.3-28.26-1.66-3.87-3.24-7.68-4.7-11.37S62.36,88.25,61.29,85c-.7-2.15-1.29-4.19-1.75-6.12-.82-3.47-.83-6.25.49-8.41a10.74,10.74,0,0,1,2-2.35C101,32,155.91,31.23,197.48,61.64Z"/><path class="cls-26" d="M200.14,64.3c37.31,29.49,56.05,80.79,33.61,130.39-7.88,17.43-20.89,31.91-36.57,43.48-26.28,19.41-69.83,29.07-90.94,4.72-4-4.6-5.44-9-7.25-12.21-8.41-14.81-3-23.14-5.09-67.88-.45-9.69-4.53-19.92-8.79-30.29C81.2,123,76.72,113.43,72.66,104.2c-1.7-3.87-3.32-7.68-4.82-11.36S65,85.75,63.93,82.46q-1.09-3.24-1.82-6.12c-.86-3.5-.87-6.27.5-8.4a10.57,10.57,0,0,1,2-2.29C105,30.94,159.77,32.38,200.14,64.3Z"/><path class="cls-27" d="M202.81,67c35.7,30.5,52.72,81.62,29.35,130.17-8.21,17.06-21.43,31.11-37.24,42.29C168.58,258.05,125,266.81,105,241.68c-3.85-4.83-5-9.34-6.65-12.65-7.27-15.05-.46-23-1.67-68.5-.25-9.75-4.25-20.06-8.52-30.47-3.91-9.52-8.46-19.13-12.6-28.36-1.74-3.88-3.4-7.69-4.94-11.36s-2.89-7.09-4-10.37c-.76-2.16-1.39-4.21-1.88-6.13-.91-3.51-.93-6.28.5-8.37a9.78,9.78,0,0,1,2.1-2.23C108.89,29.93,163.65,33.51,202.81,67Z"/><path class="cls-28" d="M205.47,69.62c34.12,31.49,49.4,82.46,25.09,130-8.53,16.68-22,30.32-37.89,41.1-26.4,17.86-70,25.7-88.93-.2-3.7-5.06-4.66-9.66-6-13.08-6.16-15.29,2-22.85,1.75-69.13-.06-9.8-4-20.19-8.26-30.65-3.91-9.56-8.53-19.19-12.75-28.41-1.78-3.88-3.48-7.69-5.07-11.35s-3-7.1-4.16-10.37c-.79-2.17-1.45-4.22-1.95-6.13-.94-3.54-1-6.3.51-8.36a9.7,9.7,0,0,1,2.17-2.17C112.81,28.91,167.54,34.62,205.47,69.62Z"/><path class="cls-29" d="M208.13,72.28C240.68,104.74,254.22,155.57,229,202c-8.87,16.3-22.49,29.52-38.56,39.91-26.45,17.1-70.08,24-87.92-2.66-3.55-5.29-4.28-10-5.44-13.52C92,210.23,101.6,203,102.22,156c.13-9.85-3.7-20.32-8-30.83-3.92-9.59-8.61-19.25-12.91-28.46-1.82-3.89-3.56-7.69-5.19-11.35S73.07,78.24,71.85,75c-.81-2.18-1.5-4.22-2-6.13-1-3.57-1-6.32.52-8.35a9.67,9.67,0,0,1,2.24-2.11C116.71,27.87,171.44,35.7,208.13,72.28Z"/><path class="cls-30" d="M210.8,75c31,33.4,42.76,84.12,16.57,129.5-9.19,15.92-23,28.73-39.22,38.72-26.49,16.34-70.12,22.29-86.91-5.12-3.39-5.52-3.91-10.3-4.83-14-4-15.73,7-22.57,8.59-70.38.32-9.91-3.43-20.45-7.72-31-3.92-9.63-8.67-19.31-13.07-28.51-1.85-3.89-3.64-7.7-5.3-11.35s-3.16-7.11-4.42-10.35c-.84-2.18-1.55-4.23-2.09-6.13-1-3.59-1.06-6.34.53-8.34a9.25,9.25,0,0,1,2.31-2C120.62,26.82,175.37,36.77,210.8,75Z"/><path class="cls-31" d="M213.46,77.61c29.46,34.33,39.45,85,12.32,129.28-9.52,15.54-23.55,27.94-39.89,37.53C159.36,260,115.75,265,100,236.85c-3.23-5.76-3.53-10.63-4.23-14.4-2.93-15.95,9.52-22.42,12-71,.51-10-3.16-20.59-7.45-31.19C96.4,110.59,91.58,100.9,87.1,91.7c-1.89-3.89-3.72-7.7-5.42-11.34S78.42,73.24,77.13,70c-.87-2.19-1.61-4.24-2.16-6.14-1.07-3.61-1.11-6.35.54-8.32a9.18,9.18,0,0,1,2.39-2C124.52,25.76,179.31,37.82,213.46,77.61Z"/><path class="cls-32" d="M216.12,80.27c27.95,35.25,36.13,85.79,8.06,129.06-9.84,15.17-24.07,27.15-40.54,36.34-26.58,14.82-70.16,18.87-84.9-10-3.06-6-3.17-10.95-3.62-14.83-1.9-16.18,12-22.3,15.42-71.62.71-10-2.88-20.73-7.18-31.38C99.44,108.11,94.55,98.39,90,89.2c-1.93-3.9-3.8-7.7-5.55-11.34s-3.34-7.12-4.67-10.34c-.9-2.2-1.66-4.25-2.23-6.14-1.11-3.63-1.16-6.37.55-8.31a8.89,8.89,0,0,1,2.46-1.91C128.42,24.68,183.28,38.85,216.12,80.27Z"/><path class="cls-33" d="M218.78,82.93c26.46,36.17,32.82,86.62,3.81,128.84-10.17,14.79-24.6,26.37-41.21,35.15-26.62,14.07-70.14,17.16-83.89-12.49-2.89-6.23-2.81-11.26-3-15.27-.87-16.4,14.44-22.17,18.85-72.24.89-10.09-2.61-20.86-6.92-31.56-3.92-9.74-8.87-19.48-13.52-28.66-2-3.9-3.88-7.7-5.67-11.33S83.78,68.24,82.41,65c-.93-2.2-1.71-4.25-2.3-6.14-1.15-3.66-1.2-6.4.56-8.3a8.82,8.82,0,0,1,2.53-1.85C132.32,23.6,187.28,39.87,218.78,82.93Z"/><path class="cls-34" d="M221.45,85.59c25,37.07,29.5,87.46-.46,128.62-10.49,14.41-25.12,25.58-41.87,34-26.66,13.32-70.11,15.46-82.88-14.95-2.72-6.47-2.45-11.59-2.41-15.7.13-16.65,16.89-22.05,22.26-72.87,1.08-10.15-2.33-21-6.64-31.74-3.93-9.78-9-19.53-13.68-28.7-2-3.92-4-7.72-5.79-11.34s-3.53-7.13-4.93-10.33c-1-2.21-1.76-4.26-2.37-6.14-1.19-3.69-1.25-6.42.57-8.29a8.62,8.62,0,0,1,2.6-1.78C136.22,22.5,191.31,40.88,221.45,85.59Z"/><path class="cls-35" d="M224.11,88.25c23.54,38,26.19,88.29-4.72,128.4-10.81,14-25.64,24.8-42.52,32.76C150.17,262,106.8,263.18,95,232c-2.54-6.7-2.09-11.91-1.81-16.14C94.31,199,112.52,194,118.87,142.38c1.25-10.21-2.06-21.13-6.38-31.92-3.93-9.81-9-19.59-13.83-28.75-2.06-3.92-4-7.72-5.91-11.33S89.13,63.24,87.69,60a65.43,65.43,0,0,1-2.44-6.14c-1.23-3.7-1.3-6.43.58-8.27a8.67,8.67,0,0,1,2.67-1.72C140.13,21.4,195.36,41.88,224.11,88.25Z"/><path class="cls-36" d="M226.77,90.91c22.11,38.87,22.87,89.13-9,128.17-11.14,13.67-26.16,24-43.19,31.58-26.73,11.85-70,12.08-80.87-19.86-2.36-6.93-1.74-12.24-1.21-16.57,2.12-17.16,21.78-21.81,29.11-74.12,1.44-10.27-1.78-21.26-6.11-32.1-3.94-9.85-9.09-19.65-14-28.8-2.1-3.92-4.13-7.72-6-11.33s-3.71-7.14-5.18-10.33a64.52,64.52,0,0,1-2.51-6.14c-1.27-3.73-1.35-6.46.59-8.26a8.87,8.87,0,0,1,2.74-1.66C144,20.28,199.45,42.88,226.77,90.91Z"/><path class="cls-37" d="M229.44,93.58c20.7,39.77,19.55,90-13.24,127.94-11.46,13.29-26.68,23.26-43.85,30.39-26.76,11.11-69.94,10.4-79.86-22.31-2.18-7.17-1.39-12.58-.6-17,3.1-17.44,24.2-21.7,32.53-74.74,1.62-10.33-1.52-21.39-5.85-32.28-3.94-9.88-9.16-19.7-14.13-28.85-2.14-3.93-4.22-7.72-6.16-11.32S94.48,58.24,93,55.06a63.27,63.27,0,0,1-2.58-6.14c-1.31-3.75-1.39-6.48.6-8.25a8.55,8.55,0,0,1,2.82-1.59C147.94,19.15,203.56,43.87,229.44,93.58Z"/><path class="cls-38" d="M232.1,96.24C251.42,136.91,248.34,187,214.61,224c-11.8,12.91-27.2,22.49-44.52,29.2-26.79,10.38-69.85,8.73-78.85-24.77a33.58,33.58,0,0,1,0-17.45c4.08-17.73,26.63-21.6,36-75.37,1.8-10.39-1.24-21.53-5.57-32.45-4-9.93-9.23-19.77-14.29-28.91-2.18-3.93-4.3-7.73-6.28-11.32s-3.9-7.15-5.43-10.32A62.91,62.91,0,0,1,93,46.42c-1.36-3.77-1.44-6.49.61-8.23a8.62,8.62,0,0,1,2.89-1.53C151.86,18,207.7,44.87,232.1,96.24Z"/><path class="cls-39" d="M234.76,98.9c18,41.59,12.93,91.63-21.75,127.5-12.12,12.54-27.72,21.72-45.17,28C141,264.07,98.07,261.48,90,227.18a33.51,33.51,0,0,1,.61-17.89c5.05-18,29-21.5,39.36-76,2-10.46-1-21.66-5.3-32.63-4-10-9.3-19.83-14.45-29-2.21-3.93-4.37-7.73-6.4-11.31s-4-7.16-5.55-10.32a63.31,63.31,0,0,1-2.73-6.15c-1.4-3.79-1.49-6.52.62-8.22a8.61,8.61,0,0,1,3-1.46C155.78,16.88,211.87,45.88,234.76,98.9Z"/><path class="cls-40" d="M237.42,101.56C254,144.07,247,194,211.42,228.84c-12.45,12.16-28.24,21-45.84,26.82-26.86,8.94-69.67,5.42-76.84-29.69A33.53,33.53,0,0,1,90,207.65c6-18.35,31.45-21.41,42.79-76.62,2.16-10.52-.69-21.79-5-32.81-4-10-9.37-19.88-14.6-29-2.25-3.94-4.46-7.73-6.52-11.31s-4.08-7.16-5.68-10.31a61.43,61.43,0,0,1-2.8-6.15c-1.44-3.81-1.54-6.55.63-8.2a8.72,8.72,0,0,1,3-1.41C159.7,15.73,216.07,46.89,237.42,101.56Z"/><path class="cls-41" d="M240.09,104.22c15.27,43.44,6.36,93.38-30.27,127.06-12.74,11.81-28.76,20.2-46.5,25.63-26.89,8.23-69.56,3.78-75.83-32.15A33.69,33.69,0,0,1,89.31,206c7-18.67,33.85-21.32,46.2-77.24,2.34-10.59-.41-21.92-4.77-33-4-10-9.44-19.94-14.75-29.06-2.29-3.94-4.54-7.73-6.64-11.31s-4.17-7.16-5.81-10.3A63,63,0,0,1,100.67,39c-1.48-3.84-1.59-6.57.63-8.19a8.72,8.72,0,0,1,3.11-1.34C163.63,14.57,220.29,47.91,240.09,104.22Z"/><path class="cls-42" d="M242.75,106.88c13.95,44.38,3.05,94.22-34.52,126.84-13.08,11.43-29.28,19.44-47.17,24.44-26.92,7.52-69.44,2.15-74.82-34.61a34.09,34.09,0,0,1,2.42-19.19c8-19,36.25-21.24,49.63-77.87,2.51-10.65-.14-22.06-4.51-33.17-3.95-10.08-9.51-20-14.9-29.11-2.33-3.94-4.62-7.74-6.76-11.3s-4.27-7.17-5.94-10.3a60.44,60.44,0,0,1-2.94-6.16c-1.53-3.85-1.64-6.59.64-8.17A8.84,8.84,0,0,1,107.07,27C167.57,13.41,224.53,48.94,242.75,106.88Z"/><path class="cls-43" d="M245.41,109.54c12.65,45.34-.27,95.06-38.78,126.62-13.4,11.05-29.8,18.69-47.82,23.24-27,6.82-69.33.55-73.82-37.06a34.5,34.5,0,0,1,3-19.63c9-19.35,38.64-21.16,53-78.49,2.69-10.72.13-22.19-4.23-33.35-4-10.11-9.59-20.05-15.06-29.16-2.37-4-4.71-7.74-6.89-11.3s-4.35-7.17-6.06-10.29a61.1,61.1,0,0,1-3-6.16c-1.57-3.88-1.68-6.62.65-8.16a9.11,9.11,0,0,1,3.26-1.22C171.51,12.24,228.79,50,245.41,109.54Z"/><path class="cls-44" d="M248.08,112.21c11.35,46.3-3.6,95.89-43,126.39-13.73,10.68-30.32,17.94-48.49,22-27,6.12-69.2-1.06-72.81-39.51a35.11,35.11,0,0,1,3.63-20.08c10-19.7,41-21.08,56.46-79.1,2.88-10.8.41-22.33-4-33.54-4-10.15-9.66-20.11-15.21-29.21-2.41-4-4.79-7.74-7-11.29-2.32-3.72-4.45-7.17-6.19-10.29a62.91,62.91,0,0,1-3.08-6.16c-1.61-3.9-1.73-6.64.66-8.15a9.3,9.3,0,0,1,3.33-1.15C175.46,11.07,233.07,51,248.08,112.21Z"/><path class="cls-45" d="M250.74,114.87c10.07,47.28-6.91,96.72-47.3,126.16-14.05,10.31-30.84,17.2-49.15,20.87-27,5.42-69.08-2.66-71.8-42a35.69,35.69,0,0,1,4.23-20.51c11-20.06,43.42-21,59.89-79.73,3-10.87.68-22.46-3.7-33.72-4-10.18-9.72-20.16-15.36-29.26-2.45-4-4.87-7.74-7.13-11.29-2.37-3.72-4.54-7.17-6.32-10.29A59.4,59.4,0,0,1,111,29c-1.66-3.93-1.78-6.67.67-8.14a9.24,9.24,0,0,1,3.4-1.09C179.41,9.9,237.37,52.1,250.74,114.87Z"/><path class="cls-46" d="M253.4,117.53c8.8,48.28-10.23,97.56-51.56,125.94-14.37,9.93-31.36,16.46-49.8,19.68-27.08,4.73-69-4.25-70.8-44.43-.43-9.18,1.75-15.67,4.84-20.95,12-20.42,45.79-21,63.3-80.35,3.23-10.94,1-22.6-3.43-33.9-4-10.22-9.81-20.21-15.51-29.31-2.5-4-5-7.74-7.26-11.28-2.41-3.73-4.63-7.18-6.44-10.29a60.27,60.27,0,0,1-3.22-6.16c-1.7-3.94-1.83-6.69.68-8.12a9.47,9.47,0,0,1,3.47-1C183.37,8.72,241.68,53.19,253.4,117.53Z"/><path class="cls-47" d="M256.07,120.19c7.52,49.29-13.55,98.4-55.82,125.72-14.71,9.56-31.89,15.72-50.47,18.49-27.12,4-68.82-5.83-69.79-46.89-.22-9.39,2.11-16,5.44-21.38,12.95-20.79,48.17-20.91,66.73-81,3.4-11,1.23-22.73-3.17-34.08-4-10.26-9.88-20.26-15.66-29.36-2.54-4-5-7.74-7.38-11.28-2.46-3.73-4.72-7.18-6.57-10.28A58.17,58.17,0,0,1,116.09,24c-1.75-4-1.88-6.72.69-8.11a9.9,9.9,0,0,1,3.54-1C187.34,7.54,246,54.29,256.07,120.19Z"/><path class="cls-48" d="M258.73,122.85c6.26,50.31-16.87,99.24-60.08,125.5-15,9.18-32.41,15-51.13,17.3-27.17,3.36-68.69-7.4-68.78-49.35,0-9.6,2.46-16.37,6.05-21.82,13.95-21.15,50.54-20.85,70.14-81.6,3.58-11.09,1.51-22.86-2.89-34.26-4-10.29-9.95-20.32-15.83-29.41-2.57-4-5.12-7.74-7.49-11.27-2.52-3.74-4.82-7.19-6.7-10.28a60.07,60.07,0,0,1-3.36-6.16c-1.79-4-1.92-6.75.7-8.1a9.89,9.89,0,0,1,3.62-.9C191.31,6.36,250.33,55.4,258.73,122.85Z"/><path class="cls-49" d="M261.39,125.51c5,51.35-20.19,100.07-64.33,125.28a129.4,129.4,0,0,1-51.8,16.11c-27.21,2.68-68.56-9-67.77-51.81.18-9.81,2.81-16.72,6.65-22.25,15-21.53,52.92-20.81,73.56-82.23,3.76-11.16,1.78-23-2.62-34.44-4-10.33-10-20.38-16-29.46-2.61-4-5.2-7.75-7.61-11.27-2.57-3.74-4.91-7.19-6.83-10.27A59.12,59.12,0,0,1,121.23,19c-1.84-4-2-6.78.71-8.09a10.17,10.17,0,0,1,3.69-.83C195.28,5.17,254.66,56.53,261.39,125.51Z"/><path class="cls-50" d="M264.05,128.18a130,130,0,0,1-121,140c-27.27,2-68.43-10.52-66.77-54.27.38-10,3.17-17.08,7.26-22.69,16-21.9,55.28-20.76,77-82.85,3.93-11.24,2.05-23.13-2.36-34.62C154.14,63.36,148,53.28,142,44.21c-2.65-4-5.29-7.75-7.74-11.26-2.61-3.75-5-7.2-7-10.27a59.13,59.13,0,0,1-3.5-6.17c-1.88-4-2-6.8.72-8.07a10.62,10.62,0,0,1,3.76-.77C199.26,4,259,57.68,264.05,128.18Z"/><path class="cls-51" d="M266.72,130.84a131.86,131.86,0,0,1-126,138.56c-27.33,1.33-68.3-12.07-65.76-56.72.58-10.24,3.52-17.44,7.86-23.13,17-22.29,57.65-20.73,80.4-83.48,4.11-11.31,2.33-23.26-2.09-34.8-4-10.4-10.15-20.49-16.28-29.56-2.69-4-5.37-7.74-7.86-11.26-2.66-3.74-5.1-7.19-7.08-10.26A58.36,58.36,0,0,1,126.37,14c-1.93-4-2.07-6.83.73-8.06a10.51,10.51,0,0,1,3.83-.7A131.39,131.39,0,0,1,266.72,130.84Z"/><path class="cls-52" d="M269.38,133.5A133.74,133.74,0,0,1,138.49,270.64c-27.39.67-68.17-13.6-64.75-59.17.78-10.44,3.88-17.79,8.47-23.57,18-22.66,60-20.69,83.82-84.1,4.27-11.39,2.6-23.39-1.82-35-4-10.44-10.23-20.55-16.44-29.61-2.73-4-5.46-7.75-8-11.25-2.71-3.76-5.2-7.2-7.21-10.26a57.68,57.68,0,0,1-3.64-6.17c-2-4.06-2.12-6.86.74-8a11,11,0,0,1,3.9-.64C207.24,1.49,267.69,60,269.38,133.5Z"/><path class="cls-53" d="M272,136.16A135.77,135.77,0,0,1,136.23,271.89c-27.45,0-68-15.13-63.74-61.63,1-10.65,4.24-18.15,9.07-24,19-23,62.38-20.67,87.24-84.73,4.45-11.47,2.88-23.53-1.55-35.16-4-10.47-10.3-20.61-16.59-29.66-2.77-4-5.54-7.75-8.11-11.25-2.75-3.76-5.28-7.2-7.33-10.25A55.27,55.27,0,0,1,131.52,9c-2-4.09-2.17-6.89.74-8a10.88,10.88,0,0,1,4-.58A135.77,135.77,0,0,1,272,136.16Z"/></g></svg>