<svg width="2045" height="2054" xmlns="http://www.w3.org/2000/svg" xmlns:xlink="http://www.w3.org/1999/xlink" overflow="hidden"><defs><clipPath id="clip0"><rect x="1177" y="210" width="2045" height="2054"/></clipPath><clipPath id="clip1"><rect x="1344" y="381" width="1712" height="1713"/></clipPath><clipPath id="clip2"><rect x="1344" y="381" width="1712" height="1713"/></clipPath><clipPath id="clip3"><rect x="1344" y="381" width="1712" height="1713"/></clipPath></defs><g clip-path="url(#clip0)" transform="translate(-1177 -210)"><path d="M1178 1237.5C1178 672.789 1635.56 215 2200 215 2764.43 215 3222 672.789 3222 1237.5 3222 1802.21 2764.43 2260 2200 2260 1635.56 2260 1178 1802.21 1178 1237.5Z" fill="#FFFFFF" fill-rule="evenodd" fill-opacity="1"/><g clip-path="url(#clip1)"><g clip-path="url(#clip2)"><g clip-path="url(#clip3)"><path d="M847.609 1710.91C813.085 1710.65 776.375 1708.05 741.487 1703.41 647.681 1690.92 556.78 1662.93 472.311 1620.51 467.009 1617.85 460.569 1614.55 460.451 1614.44 460.378 1614.36 463.129 1612.45 468.85 1608.64 482.486 1599.54 495.804 1591.52 509.977 1583.88 518.312 1579.4 528.669 1574.24 536.986 1570.45 545.057 1566.77 555.123 1562.53 561.426 1560.17 561.936 1559.98 561.9 1560.03 563.193 1557.9 568.978 1548.4 575.946 1534.58 581.73 1521.14 600.076 1478.53 610.607 1432.62 612.155 1388.54 612.21 1386.77 612.292 1385.32 612.319 1385.32 612.356 1385.32 613.376 1385.73 614.606 1386.24 622.43 1389.48 631.731 1393.08 640.558 1396.28L644.156 1397.59 644.183 1482.22 644.201 1566.84 644.73 1567C645.85 1567.33 654.303 1569.63 656.59 1570.23 705.971 1583.26 756.29 1591.33 807.647 1594.47 809.296 1594.57 810.781 1594.65 810.954 1594.65L811.264 1594.65 811.264 1514.71 811.264 1434.78 811.655 1434.82C813.468 1435.07 825.119 1435.94 831.167 1436.29 840.377 1436.81 844.831 1436.93 855.489 1436.93 866.146 1436.93 870.546 1436.81 879.81 1436.29 885.877 1435.94 898.111 1435.03 899.468 1434.82L899.805 1434.77 899.805 1514.71 899.805 1594.65 900.151 1594.65C900.962 1594.65 910.144 1594.04 915.382 1593.65 959.005 1590.33 1002.16 1583.35 1044.46 1572.78 1051.65 1570.99 1060.31 1568.7 1065.97 1567.09L1066.87 1566.83 1066.89 1482.21 1066.91 1397.58 1069.28 1396.73C1077.36 1393.81 1087.82 1389.79 1095.78 1386.51 1097.37 1385.85 1098.7 1385.34 1098.73 1385.36 1098.76 1385.39 1098.81 1386.41 1098.85 1387.62 1100.31 1431.63 1110.48 1476.72 1128.58 1519.46 1134.35 1533.08 1141.43 1547.24 1147.57 1557.44 1149.12 1560.01 1149.1 1559.99 1149.49 1560.13 1150.36 1560.44 1156.06 1562.7 1158.54 1563.72 1184.77 1574.5 1210.79 1588.23 1236.3 1604.75 1241.19 1607.92 1250.6 1614.27 1250.6 1614.41 1250.6 1614.49 1244.98 1617.38 1238.35 1620.71 1142.97 1668.53 1039.7 1697.89 933.19 1707.46 904.642 1710.03 877.141 1711.14 847.609 1710.91Z" fill="#000000" fill-rule="nonzero" fill-opacity="1" transform="matrix(1.00054 0 0 -1 1344 2092.99)"/><path d="M354.256 1548.79C353.828 1548.48 352.17 1547.27 350.567 1546.09 324.924 1527.36 298.708 1505.77 274.915 1483.76 260.668 1470.59 245.547 1455.59 232.275 1441.48 192.96 1399.69 157.762 1353.84 127.665 1305.21 88.3135 1241.62 57.6338 1173.55 36.1634 1102.16 15.3672 1033.01 3.42505 961.137 0.683189 888.509 0.21862 876.003 0.136638 871.375 0.136638 855.489 0.136638 841.297 0.173074 838.209 0.455459 829.026 1.47569 796.334 4.22666 764.534 8.83591 732.542 23.775 628.661 57.7613 528.597 109.201 437.058 143.998 375.134 186.328 317.819 235.427 266.17 244.645 256.469 257.471 243.671 267.172 234.461 332.276 172.728 406.907 121.453 487.706 82.9209 611.035 24.1029 746.424-4.04448 884.137 0.501005 1013.12 4.7641 1138.31 37.6847 1251.92 97.2223 1286.94 115.568 1320.37 136.146 1352.54 159.137 1412.99 202.351 1467.82 253.481 1515.28 310.896 1572.03 379.561 1617.67 456.552 1650.54 539.036 1684.42 624.088 1704.32 714.014 1709.57 805.889 1713.72 878.754 1708.7 951.736 1694.66 1022.6 1678.53 1103.98 1650.66 1182.38 1611.81 1255.66 1585.27 1305.69 1553.89 1352.9 1517.96 1396.8 1474.18 1450.31 1424.09 1498.38 1368.93 1539.82 1363.64 1543.78 1356.57 1548.99 1356.01 1549.33 1355.95 1549.36 1356.39 1548.44 1356.99 1547.27 1360.08 1541.33 1364.46 1532.38 1367.44 1525.88 1396.26 1463.33 1413.87 1392.8 1419.84 1316.09 1422.09 1287.28 1422.64 1257.02 1421.49 1227.23 1420.13 1192.34 1416.27 1156.19 1410.68 1126.15L1410.1 1122.99 1411.71 1120.73C1445.65 1073.08 1472.51 1024.22 1493.27 972.405 1519.41 907.147 1536.63 836.141 1547.82 747.472L1548.45 742.48 1547.18 740.139C1539.31 725.737 1526.63 705.278 1514.12 686.805 1474.37 628.124 1426.75 571.783 1375.21 522.448 1289.7 440.602 1194.67 378.532 1093.51 338.452 1085.24 335.172 1073.54 330.773 1067.35 328.605L1066.87 328.431 1066.87 236.092 1066.87 143.752 1066.39 143.615C1061.98 142.331 1051.73 139.616 1044.4 137.785 998.594 126.335 950.507 118.939 903.722 116.142 902.046 116.042 900.479 115.951 900.242 115.933L899.805 115.896 899.805 202.652 899.805 289.408 899.513 289.353C899.349 289.326 897.901 289.189 896.298 289.034 868.661 286.484 841.916 286.493 814.27 289.08 812.94 289.207 811.719 289.326 811.564 289.353L811.264 289.408 811.264 202.652 811.264 115.896 810.835 115.933C810.59 115.951 809.005 116.042 807.301 116.142 784.738 117.481 760.216 120.095 736.887 123.666 706.299 128.339 674.662 135.162 645.595 143.351L644.11 143.77 644.11 236.11 644.11 328.45 643.409 328.705C641.332 329.434 634.955 331.765 631.813 332.941 593.782 347.196 556.99 364.285 520.881 384.471 429.206 435.719 343.917 506.243 269.349 592.461 233.742 633.635 200.502 678.907 174.942 721.037 170.633 728.142 165.678 736.714 163.063 741.597L162.59 742.489 162.963 745.468C168.237 787.643 174.751 825.182 182.821 859.998 198.771 928.799 221.444 989.275 252.762 1046.59 266.334 1071.43 281.993 1096.37 299.164 1120.5L300.94 1122.99 300.812 1123.64C297.36 1141.7 294.254 1164.3 292.277 1185.79 285.054 1264.14 289.645 1342.22 305.622 1412.83 316.362 1460.28 332.339 1504.98 352.899 1545.04 354.101 1547.39 355.076 1549.32 355.058 1549.33 355.039 1549.34 354.684 1549.11 354.256 1548.79Z" fill="#000000" fill-rule="nonzero" fill-opacity="1" transform="matrix(1.00054 0 0 -1 1344 2092.99)"/><path d="M414.122 1516.21C403.655 1497.3 394.847 1475.27 387.605 1449.91 374.296 1403.27 366.572 1346.08 364.823 1281.3 364.586 1272.55 364.522 1266.49 364.522 1255.15 364.522 1239.48 364.75 1227.94 365.324 1214.62 365.643 1207.3 366.28 1196.27 366.399 1196.16 366.408 1196.14 367.027 1196.84 367.774 1197.68 371.254 1201.66 374.351 1204.94 380.126 1210.73 394.373 1225.07 412.19 1241.3 436.603 1262.18 459.649 1281.89 490.165 1306.88 515.151 1326.48L517.401 1328.25 517.356 1328.89C517.329 1329.24 517.265 1330.23 517.21 1331.08 515.279 1362.55 506.707 1399.77 492.816 1437 488.671 1448.11 484.044 1459.24 479.981 1467.89L478.915 1470.16 477.184 1470.92C474.916 1471.92 470.48 1474.13 468.075 1475.47 456.343 1482 443.581 1491.48 430.864 1503.14 426.474 1507.17 420.462 1513.09 417.21 1516.59 416.49 1517.36 415.789 1518.12 415.652 1518.26L415.406 1518.52 414.122 1516.21Z" fill="#000000" fill-rule="nonzero" fill-opacity="1" transform="matrix(1.00054 0 0 -1 1344 2092.99)"/><path d="M1293.81 1516.57C1292.82 1515.5 1290.59 1513.22 1288.86 1511.49 1270.13 1492.74 1250.48 1478.24 1233.93 1470.95 1233 1470.54 1232.2 1470.16 1232.14 1470.1 1231.74 1469.69 1226.82 1458.62 1224.12 1452.05 1208.52 1414.19 1198.08 1374.92 1194.67 1341.33 1194.26 1337.24 1193.67 1329.69 1193.67 1328.5 1193.67 1328.25 1193.82 1328.1 1195.33 1326.92 1205.48 1318.97 1223.29 1304.68 1235.93 1294.33 1287.86 1251.85 1324.75 1218.64 1343.14 1197.83 1343.97 1196.89 1344.66 1196.15 1344.67 1196.19 1344.68 1196.23 1344.77 1197.54 1344.87 1199.09 1345.68 1211.43 1346.17 1224.24 1346.44 1239.85 1346.56 1246.93 1346.5 1270.34 1346.35 1276.29 1345.81 1297.19 1345.03 1312.79 1343.69 1329.71 1338.28 1397.78 1325.69 1454.35 1306.41 1497.18 1303.4 1503.89 1299.4 1511.84 1296.26 1517.39L1295.63 1518.51 1293.81 1516.57Z" fill="#000000" fill-rule="nonzero" fill-opacity="1" transform="matrix(1.00054 0 0 -1 1344 2092.99)"/><path d="M436.74 1092.5C436.594 1092.48 436.075 1092.42 435.601 1092.36 431.757 1091.93 427.649 1090.2 424.542 1087.73 420.917 1084.84 418.266 1080.59 417.255 1076.05 416.991 1074.85 416.572 1071.94 416.253 1069.05 414.194 1050.46 415.907 1031.11 421.29 1012.21 424.278 1001.71 428.013 992.126 433.151 981.787 439.609 968.78 447.252 956.71 456.998 944.121 458.857 941.716 462.837 936.788 463.739 935.768 463.849 935.649 470.635 933.809 476.911 932.197 490.885 928.617 507.409 924.864 523.778 921.567 580.911 910.062 638.253 903.239 691.341 901.627 699.212 901.39 702.099 901.344 712.11 901.29 728.671 901.208 740.567 901.481 756.29 902.31 760.243 902.519 760.116 902.392 757.456 903.467 732.56 913.505 698.528 929.464 667.43 945.688 588.854 986.679 516.254 1034.42 454.411 1085.77 452.808 1087.1 451.059 1088.47 450.367 1088.93 447.698 1090.7 444.665 1091.86 441.522 1092.33 440.538 1092.47 437.35 1092.59 436.74 1092.5Z" fill="#000000" fill-rule="nonzero" fill-opacity="1" transform="matrix(1.00054 0 0 -1 1344 2092.99)"/><path d="M1271 1092.5C1268.14 1092.23 1265.69 1091.57 1263.31 1090.42 1261.04 1089.33 1260.23 1088.76 1256.06 1085.3 1196.75 1036.05 1126.71 989.685 1051.15 949.659 1017.51 931.833 980.731 914.416 953.686 903.503 951.035 902.437 951.08 902.501 952.957 902.41 953.513 902.383 955.535 902.273 957.466 902.173 963.423 901.873 969.344 901.645 977.005 901.435 982.68 901.281 1000.83 901.226 1007.52 901.344 1028.95 901.718 1048.66 902.747 1070.47 904.642 1117.71 908.732 1168.1 916.721 1214.94 927.542 1226.23 930.148 1240.03 933.636 1246.76 935.568 1247.23 935.704 1247.27 935.759 1248.77 937.544 1262.09 953.567 1273.02 970.729 1280.72 987.699 1289.07 1006.08 1294 1024.98 1295.28 1043.46 1295.73 1049.94 1295.73 1057.39 1295.28 1063.63 1294.94 1068.31 1294.28 1073.82 1293.77 1076.1 1293.3 1078.23 1292.15 1080.97 1290.95 1082.81 1287.6 1087.95 1282.11 1091.41 1275.8 1092.34 1274.88 1092.46 1271.81 1092.57 1271 1092.5Z" fill="#000000" fill-rule="nonzero" fill-opacity="1" transform="matrix(1.00054 0 0 -1 1344 2092.99)"/><path d="M501.278 849.322C499.347 849.285 493.162 849.149 487.542 849.03 481.912 848.903 477.294 848.793 477.276 848.775 477.257 848.757 476.847 846.799 476.374 844.421 473.477 829.965 470.854 814.953 468.804 801.061 468.567 799.485 468.367 798.183 468.358 798.174 468.358 798.174 462.664 798.146 455.714 798.128L443.08 798.101 443.125 798.329C443.143 798.456 443.307 799.458 443.48 800.56 445.658 814.516 448.873 831.677 451.998 846.052 452.243 847.227 452.444 848.201 452.426 848.22 452.38 848.265 421.564 847.527 421.509 847.482 421.445 847.427 419.041 836.788 418.011 831.987 415.661 821.02 412.883 806.509 411.507 797.919 411.352 796.99 411.207 796.334 411.134 796.27 411.061 796.215 410.687 796.142 410.296 796.106 408.948 795.987 404.193 795.405 401.378 795.004 374.096 791.132 354.648 783.289 341.968 771.047 333.287 762.666 327.712 751.726 325.708 739.119 324.187 729.582 324.924 720.882 327.858 713.613 331.574 704.422 338.515 697.235 349.1 691.587 350.521 690.822 350.621 690.758 350.376 690.695 342.724 688.873 336.602 686.732 330.937 683.899 318.794 677.841 310.987 669.251 307.271 657.865 305.066 651.106 304.374 642.999 305.258 634.136 305.567 631.029 306.023 628.032 306.569 625.518 310.814 606.052 320.497 591.404 335.992 581.02 352.352 570.062 375.398 563.631 408.018 560.916 409.412 560.798 410.56 560.688 410.587 560.661 410.605 560.643 410.915 558.848 411.27 556.671 413.493 543.299 416.18 529.462 419.168 516.035 419.951 512.528 420.762 508.985 420.799 508.948 420.817 508.93 439.764 508.374 446.441 508.201 448.472 508.156 450.485 508.092 450.932 508.065 451.615 508.028 451.724 508.037 451.724 508.165 451.724 508.247 451.396 509.868 450.986 511.781 449.383 519.378 447.507 529.016 446.077 536.986 444.81 544.082 442.342 559.249 442.442 559.349 442.46 559.367 444.528 559.349 447.033 559.304 449.538 559.258 455.222 559.194 459.677 559.158 464.122 559.122 467.756 559.085 467.756 559.067 467.756 559.058 468.002 557.327 468.303 555.232 470.143 542.534 472.402 529.07 474.807 516.491 475.873 510.925 476.565 507.472 476.611 507.427 476.638 507.4 481.466 507.263 487.35 507.108 503.337 506.707 507.463 506.616 507.509 506.662 507.536 506.68 507.518 506.862 507.472 507.063 507.336 507.691 505.869 515.917 505.204 519.815 503.811 527.941 502.408 536.922 501.187 545.412 500.44 550.65 499.365 558.648 499.365 558.967 499.365 559.14 499.475 559.14 508.046 559.085 516.518 559.021 518.649 558.994 537.396 558.712 558.411 558.384 563.175 558.32 563.211 558.347 563.221 558.365 562.665 560.543 561.954 563.193 559.495 572.439 556.334 584.882 554.203 593.673L553.547 596.378 544.92 596.387C533.188 596.396 529.653 596.506 527.394 596.925 522.421 597.863 518.959 601.233 517.584 606.471 517.365 607.282 517.329 607.71 516.9 614.505 514.14 658.439 514.323 702.054 517.438 745.814L517.748 750.095 518.176 751.371C520.772 759.141 526.802 763.45 535.802 763.978 536.631 764.033 542.534 764.096 548.919 764.133 555.305 764.16 560.543 764.196 560.552 764.206 560.561 764.215 560.734 766.228 560.943 768.678 561.663 777.286 562.656 787.753 563.457 795.131 563.631 796.753 563.749 798.101 563.722 798.128 563.703 798.156 559.531 798.128 554.458 798.073 549.384 798.01 539.619 797.9 532.75 797.828 524.306 797.727 520.216 797.654 520.098 797.582 519.916 797.491 500.03 797.454 499.93 797.554 499.812 797.673 501.916 812.375 503.337 821.329 504.721 830.083 507.308 845.022 508.165 849.185L508.219 849.431 506.498 849.413C505.56 849.413 503.209 849.367 501.278 849.322ZM463.011 761.118C463.038 761.09 462.965 760.116 462.847 758.95 461.262 742.753 460.141 726.667 459.467 710.425 459.303 706.317 459.103 700.387 459.103 699.33 459.103 698.592 459.075 698.292 458.993 698.264 458.93 698.246 455.559 698.182 451.497 698.128 440.137 697.964 432.996 698.182 425.672 698.911 406.424 700.815 394.1 706.08 388.434 714.797 386.138 718.332 385.018 722.385 385.018 727.186 385.018 731.75 386.011 736.022 388.015 740.03 393.562 751.107 406.661 757.847 427.312 760.243 431.429 760.726 434.553 760.945 440.884 761.2 442.105 761.254 462.956 761.172 463.011 761.118ZM443.162 666.883C448.281 666.783 454.84 666.628 457.153 666.555L458.811 666.5 458.866 663.385C459.312 640.621 460.25 622.831 462.154 601.297 462.327 599.32 462.491 597.58 462.519 597.435L462.564 597.171 453.072 597.225C444.082 597.28 440.921 597.344 436.148 597.562 415.16 598.528 399.447 601.734 388.37 607.309 381.757 610.634 377.102 614.524 373.877 619.424 368.74 627.231 367.938 637.825 371.882 645.886 373.276 648.729 375.116 651.161 377.503 653.31 388.516 663.221 409.449 667.548 443.162 666.883Z" fill="#000000" fill-rule="nonzero" fill-opacity="1" transform="matrix(1.00054 0 0 -1 1344 2092.99)"/><path d="M1202.87 849.331C1202.87 849.276 1203.15 847.691 1203.5 845.806 1205.67 834.091 1207.83 820.965 1209.6 808.786 1210.26 804.204 1211.17 797.582 1211.13 797.536 1211.05 797.454 1191 797.491 1190.94 797.573 1190.87 797.691 1147.45 798.228 1147.33 798.119 1147.3 798.083 1147.51 795.86 1147.79 793.164 1148.67 784.811 1149.38 777.259 1150.07 768.942 1150.29 766.364 1150.48 764.242 1150.5 764.224 1150.52 764.206 1156.24 764.151 1163.2 764.096 1176.84 763.987 1176.69 763.996 1179.18 763.486 1181.69 762.967 1184.55 761.764 1186.38 760.462 1187.94 759.341 1189.49 757.729 1190.62 756.053 1191.36 754.951 1192.41 752.755 1192.88 751.325L1193.28 750.095 1193.57 746.179C1194.76 729.472 1195.38 716.191 1195.87 696.898 1196.04 690.804 1196.04 661.445 1195.87 655.36 1195.43 637.971 1194.89 625.801 1193.93 611.408 1193.64 606.945 1193.59 606.626 1192.97 604.941 1191.29 600.413 1187.86 597.571 1183.19 596.843 1181.03 596.506 1179.17 596.451 1168.26 596.387L1157.48 596.333 1157.12 594.829C1155.16 586.613 1150.96 570.171 1148.08 559.459L1147.77 558.293 1149.92 558.347C1151.12 558.375 1156.39 558.457 1161.65 558.539 1166.91 558.611 1175 558.73 1179.64 558.803 1188.17 558.948 1204.02 559.112 1209 559.122L1211.71 559.122 1211.66 558.739C1211.63 558.52 1211.35 556.361 1211.02 553.929 1209.08 539.3 1206.64 523.833 1203.87 508.711 1203.67 507.609 1203.52 506.689 1203.55 506.662 1203.58 506.643 1205.72 506.671 1208.31 506.735 1217.41 506.944 1230.9 507.281 1232.67 507.345L1234.46 507.4 1235.2 511.153C1238.24 526.62 1241.17 543.9 1243.04 557.345 1243.14 558.101 1243.25 558.794 1243.27 558.903L1243.31 559.094 1251.39 559.158C1255.85 559.194 1261.53 559.258 1264.04 559.304 1266.54 559.349 1268.6 559.367 1268.61 559.358 1268.7 559.276 1266.18 543.8 1265.04 537.442 1263.58 529.298 1261.34 517.775 1259.85 510.852 1259.53 509.322 1259.27 508.065 1259.28 508.055 1259.3 508.037 1269.66 508.329 1282.34 508.702 1286.64 508.83 1290.2 508.957 1290.23 508.994 1290.27 509.039 1290.71 510.888 1291.22 513.12 1294.57 527.959 1297.23 541.513 1299.7 556.289 1300.1 558.666 1300.47 560.643 1300.53 560.67 1300.58 560.706 1301.04 560.761 1301.55 560.798 1306.67 561.135 1317.07 562.319 1323.02 563.23 1356.58 568.376 1378.41 579.007 1391.75 596.697 1397.79 604.713 1402.13 614.587 1404.49 625.619 1406.03 632.824 1406.54 641.086 1405.86 647.663 1404.9 656.927 1401.95 664.424 1396.66 671.073 1395.5 672.522 1392.28 675.783 1390.79 677.013 1383.7 682.87 1374.67 687.124 1362.97 690.112 1361.63 690.458 1360.51 690.758 1360.48 690.786 1360.46 690.813 1360.86 691.041 1361.38 691.305 1363.55 692.389 1366.5 694.174 1368.6 695.668 1372.59 698.51 1376.05 701.899 1378.7 705.524 1380.94 708.603 1382.82 712.265 1384.04 715.963 1385.9 721.584 1386.54 728.507 1385.82 735.384 1383.82 754.623 1374.4 769.534 1357.81 779.691 1345.76 787.088 1329.99 792.098 1309.72 794.995 1306.92 795.395 1302.09 795.987 1300.68 796.106 1300.3 796.142 1299.94 796.197 1299.9 796.224 1299.85 796.252 1299.62 797.427 1299.39 798.83 1297.3 811.182 1294.59 825.064 1291.77 837.726 1290.73 842.39 1289.58 847.372 1289.51 847.445 1289.44 847.509 1287.35 847.564 1270.15 847.974 1263.84 848.128 1258.66 848.229 1258.63 848.21 1258.62 848.183 1258.94 846.507 1259.38 844.494 1261.96 832.442 1264.26 820.391 1266.3 808.258 1267.02 803.985 1267.91 798.474 1267.91 798.256 1267.91 798.11 1267.17 798.101 1255.32 798.128 1248.39 798.146 1242.71 798.174 1242.69 798.192 1242.67 798.21 1242.4 799.977 1242.07 802.118 1239.92 816.41 1237.59 829.746 1234.69 844.284 1234.21 846.689 1233.79 848.693 1233.75 848.73 1233.68 848.803 1229.82 848.903 1213.16 849.249 1202.74 849.468 1202.87 849.458 1202.87 849.331ZM1270.91 761.163C1281.51 760.771 1289.71 759.724 1297.01 757.838 1313.4 753.602 1322.93 745.304 1325.42 733.089 1325.91 730.738 1325.98 729.955 1325.98 727.186 1325.98 724.225 1325.88 723.351 1325.29 721.028 1322.06 708.266 1308.14 700.851 1283.39 698.72 1276.61 698.137 1268.23 697.964 1256.6 698.164L1251.99 698.237 1251.93 700.214C1251.3 720.363 1250.23 737.497 1248.41 756.654 1248.21 758.758 1248.04 760.626 1248.02 760.799L1248 761.118 1251.65 761.163C1258.51 761.254 1268.5 761.254 1270.91 761.163ZM1284.21 666.792C1299.85 666.191 1311.4 664.287 1320.77 660.762 1330.89 656.954 1337.54 651.033 1340.19 643.473 1340.66 642.115 1341.11 640.33 1341.34 638.863 1341.57 637.278 1341.67 633.534 1341.52 631.968 1340.94 626.384 1338.96 621.465 1335.54 617.193 1334.52 615.899 1332.03 613.44 1330.59 612.292 1320.67 604.394 1304.74 599.712 1281.89 597.981 1277.23 597.626 1272.26 597.407 1265.81 597.289 1261.01 597.198 1248.5 597.161 1248.5 597.243 1248.5 597.262 1248.59 598.136 1248.69 599.175 1249.72 609.951 1250.75 624.689 1251.33 636.959 1251.75 645.896 1252.15 658.621 1252.15 663.294 1252.15 664.305 1252.18 665.435 1252.2 665.808L1252.27 666.5 1253.82 666.555C1255.54 666.61 1262.17 666.774 1267.36 666.883 1271.38 666.974 1280.89 666.92 1284.21 666.792Z" fill="#000000" fill-rule="nonzero" fill-opacity="1" transform="matrix(1.00054 0 0 -1 1344 2092.99)"/><path d="M852.865 815.809C850.242 815.627 844.895 814.643 836.177 812.758 797.746 804.414 764.069 792.617 739.939 779.035 737.27 777.532 734.555 775.893 733.653 775.246 729.053 771.939 725.701 766.975 724.353 761.482 723.861 759.487 723.697 758.057 723.697 755.834 723.688 752.591 724.125 750.123 725.227 747.272 725.592 746.315 776.913 637.552 778.024 635.365 779.099 633.252 781.067 630.638 782.834 628.98 784.501 627.413 786.805 625.81 788.718 624.89 789.219 624.653 795.623 621.984 802.956 618.96L816.274 613.458 816.274 600.614 816.274 587.761 716.765 530.464C662.037 498.955 617.265 473.167 617.274 473.149 617.293 473.14 670.9 484.663 736.413 498.764L855.516 524.388 974.6 498.764C1040.1 484.672 1093.7 473.149 1093.71 473.167 1093.73 473.185 1049.11 498.892 994.568 530.291 940.013 561.699 895.232 587.487 895.041 587.606L894.704 587.815 894.722 600.632 894.749 613.449 908.322 619.06C915.791 622.148 922.277 624.872 922.751 625.108 926.759 627.14 930.248 630.519 932.662 634.682 933.272 635.73 985.468 746.361 985.914 747.545 986.388 748.811 986.898 750.779 987.135 752.254 987.371 753.73 987.371 757.866 987.135 759.296 986.269 764.552 983.937 769.143 980.321 772.75 978.627 774.435 977.351 775.383 974.482 777.086 951.809 790.549 919.043 802.601 881.769 811.209 873.379 813.14 863.414 815.181 860.362 815.581 858.03 815.891 855.197 815.982 852.865 815.809Z" fill="#000000" fill-rule="nonzero" fill-opacity="1" transform="matrix(1.00054 0 0 -1 1344 2092.99)"/></g></g></g></g></svg>