<svg width="867" height="834" xmlns="http://www.w3.org/2000/svg" xmlns:xlink="http://www.w3.org/1999/xlink" overflow="hidden"><defs><clipPath id="clip0"><rect x="-2310" y="742" width="867" height="834"/></clipPath><clipPath id="clip1"><rect x="-2307" y="755" width="861" height="818"/></clipPath><clipPath id="clip2"><rect x="-2307" y="755" width="861" height="818"/></clipPath><clipPath id="clip3"><rect x="-2307" y="755" width="861" height="818"/></clipPath></defs><g clip-path="url(#clip0)" transform="translate(2310 -742)"><path d="M-2290.5 1161C-2290.5 933.182-2105.82 748.5-1878 748.5-1650.18 748.5-1465.5 933.182-1465.5 1161-1465.5 1388.82-1650.18 1573.5-1878 1573.5-2105.82 1573.5-2290.5 1388.82-2290.5 1161Z" stroke="#FFFFFF" stroke-width="4.58333" stroke-linecap="butt" stroke-linejoin="miter" stroke-miterlimit="8" stroke-opacity="1" fill="#FFFFFF" fill-rule="evenodd" fill-opacity="1"/><g clip-path="url(#clip1)"><g clip-path="url(#clip2)"><g clip-path="url(#clip3)"><path d="M666.772 93.8924 424.557 93.8924C255.006 93.8924 117.025 231.873 117.025 401.424L117.025 605.538 117.025 643.639C117.025 679.836 146.146 708.956 182.342 708.956L424.557 708.956C594.108 708.956 732.089 570.975 732.089 401.424L732.089 197.31 732.089 159.209C732.089 123.285 702.968 93.8924 666.772 93.8924Z" fill="#FFFFFF" fill-rule="nonzero" fill-opacity="1" transform="matrix(1 0 0 1.00067 -2307 756)"/><path d="M456.671 400.88C456.671 417.113 443.512 430.272 427.279 430.272 411.046 430.272 397.886 417.113 397.886 400.88 397.886 384.647 411.046 371.487 427.279 371.487 443.512 371.487 456.671 384.647 456.671 400.88Z" fill="#33CC99" fill-rule="nonzero" fill-opacity="1" transform="matrix(1 0 0 1.00067 -2307 756)"/><path d="M424.557 475.994 424.557 514.095C486.608 514.095 537.228 463.475 537.228 401.424L499.127 401.424C499.127 442.519 465.652 475.994 424.557 475.994Z" fill="#33CC99" fill-rule="nonzero" fill-opacity="1" transform="matrix(1 0 0 1.00067 -2307 756)"/><path d="M424.557 326.854 424.557 288.753C362.506 288.753 311.886 339.373 311.886 401.424L349.987 401.424C349.987 360.329 383.462 326.854 424.557 326.854Z" fill="#33CC99" fill-rule="nonzero" fill-opacity="1" transform="matrix(1 0 0 1.00067 -2307 756)"/><path d="M424.557 262.627 424.557 224.525C327.127 224.525 247.658 303.722 247.658 401.424L285.76 401.424C286.032 324.949 348.082 262.627 424.557 262.627Z" fill="#33CC99" fill-rule="nonzero" fill-opacity="1" transform="matrix(1 0 0 1.00067 -2307 756)"/><path d="M424.557 540.222 424.557 578.323C521.987 578.323 601.456 499.127 601.456 401.424L563.354 401.424C563.354 477.899 501.032 540.222 424.557 540.222Z" fill="#33CC99" fill-rule="nonzero" fill-opacity="1" transform="matrix(1 0 0 1.00067 -2307 756)"/><path d="M456.671 400.88C456.671 417.113 443.512 430.272 427.279 430.272 411.046 430.272 397.886 417.113 397.886 400.88 397.886 384.647 411.046 371.487 427.279 371.487 443.512 371.487 456.671 384.647 456.671 400.88Z" fill="#33CC99" fill-rule="nonzero" fill-opacity="1" transform="matrix(1 0 0 1.00067 -2307 756)"/><path d="M424.557 475.994 424.557 514.095C486.608 514.095 537.228 463.475 537.228 401.424L499.127 401.424C499.127 442.519 465.652 475.994 424.557 475.994Z" fill="#33CC99" fill-rule="nonzero" fill-opacity="1" transform="matrix(1 0 0 1.00067 -2307 756)"/><path d="M424.557 326.854 424.557 288.753C362.506 288.753 311.886 339.373 311.886 401.424L349.987 401.424C349.987 360.329 383.462 326.854 424.557 326.854Z" fill="#33CC99" fill-rule="nonzero" fill-opacity="1" transform="matrix(1 0 0 1.00067 -2307 756)"/><path d="M424.557 262.627 424.557 224.525C327.127 224.525 247.658 303.722 247.658 401.424L285.76 401.424C286.032 324.949 348.082 262.627 424.557 262.627Z" fill="#33CC99" fill-rule="nonzero" fill-opacity="1" transform="matrix(1 0 0 1.00067 -2307 756)"/><path d="M424.557 540.222 424.557 578.323C521.987 578.323 601.456 499.127 601.456 401.424L563.354 401.424C563.354 477.899 501.032 540.222 424.557 540.222Z" fill="#33CC99" fill-rule="nonzero" fill-opacity="1" transform="matrix(1 0 0 1.00067 -2307 756)"/><path d="M424.557 288.753 666.772 288.753 666.772 326.854 424.557 326.854Z" fill="#33CC99" fill-rule="nonzero" fill-opacity="1" transform="matrix(1 0 0 1.00067 -2307 756)"/><path d="M424.557 224.525 666.772 224.525 666.772 262.627 424.557 262.627Z" fill="#33CC99" fill-rule="nonzero" fill-opacity="1" transform="matrix(1 0 0 1.00067 -2307 756)"/><path d="M424.557 605.538 182.342 605.538 182.342 643.639 424.557 643.639C558.184 643.639 666.772 535.051 666.772 401.424L628.671 401.424C628.671 514.095 537.228 605.538 424.557 605.538Z" fill="#33CC99" fill-rule="nonzero" fill-opacity="1" transform="matrix(1 0 0 1.00067 -2307 756)"/><path d="M424.557 159.209C290.93 159.209 182.342 267.797 182.342 401.424L220.443 401.424C220.443 288.753 311.886 197.31 424.557 197.31L666.772 197.31 666.772 159.209 424.557 159.209Z" fill="#33CC99" fill-rule="nonzero" fill-opacity="1" transform="matrix(1 0 0 1.00067 -2307 756)"/><path d="M182.342 475.994 424.557 475.994 424.557 514.095 182.342 514.095Z" fill="#33CC99" fill-rule="nonzero" fill-opacity="1" transform="matrix(1 0 0 1.00067 -2307 756)"/><path d="M182.342 540.222 424.557 540.222 424.557 578.323 182.342 578.323Z" fill="#33CC99" fill-rule="nonzero" fill-opacity="1" transform="matrix(1 0 0 1.00067 -2307 756)"/></g></g></g></g></svg>