<?xml version="1.0" encoding="utf-8"?>
<!-- Generator: Adobe Illustrator 26.0.1, SVG Export Plug-In . SVG Version: 6.00 Build 0)  -->
<svg version="1.1" xmlns="http://www.w3.org/2000/svg" xmlns:xlink="http://www.w3.org/1999/xlink" x="0px" y="0px"
	 viewBox="0 0 1920 1080" style="enable-background:new 0 0 1920 1080;" xml:space="preserve">
<style type="text/css">
	.st0{fill:url(#SVGID_1_);}
	.st1{fill:url(#SVGID_00000015319918254669935190000005234318881213878445_);}
	.st2{fill:#8000B6;}
</style>
<g id="Circle">
	<linearGradient id="SVGID_1_" gradientUnits="userSpaceOnUse" x1="552.0624" y1="304.4771" x2="1378.3142" y2="781.5138">
		<stop  offset="0" style="stop-color:#20012F"/>
		<stop  offset="0.1369" style="stop-color:#1C0129"/>
		<stop  offset="0.3222" style="stop-color:#100118"/>
		<stop  offset="0.5034" style="stop-color:#000000"/>
		<stop  offset="0.527" style="stop-color:#030004"/>
		<stop  offset="0.6953" style="stop-color:#12011A"/>
		<stop  offset="0.856" style="stop-color:#1B0127"/>
		<stop  offset="1" style="stop-color:#1E012C"/>
	</linearGradient>
	<circle class="st0" cx="960" cy="540" r="476.96"/>
</g>
<g id="Layer_3">
	<g>
		
			<linearGradient id="SVGID_00000028322058780340893830000016182926431510478753_" gradientUnits="userSpaceOnUse" x1="1071.519" y1="106.9293" x2="896.3889" y2="958.8741">
			<stop  offset="0" style="stop-color:#FF00FF"/>
			<stop  offset="0.0684" style="stop-color:#F800FB"/>
			<stop  offset="0.1693" style="stop-color:#E400F1"/>
			<stop  offset="0.2903" style="stop-color:#C300E0"/>
			<stop  offset="0.4269" style="stop-color:#9600C8"/>
			<stop  offset="0.5748" style="stop-color:#5D00AA"/>
			<stop  offset="0.6049" style="stop-color:#5000A3"/>
			<stop  offset="1" style="stop-color:#2F004D"/>
		</linearGradient>
		<path style="fill:url(#SVGID_00000028322058780340893830000016182926431510478753_);" d="M956.96,84.7
			c-35.82,28.79-85.68,70.93-125.71,169.25s-53.97,181.15-60.66,210.42c-5.95,26.05-15.89,33.33-31.87,31.87
			c-9.09-0.84-17.7-9.88-20.8-30.02c-2.72-17.64-3.93-60.55-2.63-69c1.58-10.27-39.94,42.14-62.41,124.3
			c-18.98,69.41-24.58,122.9-19.77,161.5c2.17,17.42,29.59,47.54,78.76,84.3c75.14,56.18,219.11,89.89,233.15,90.59
			c14.05,0.7-106.74,7.02-221.92-58.99c-76.49-43.84-77.25-53.37-85.68-59.69c-8.43-6.32-5.95,65.14,58.85,137.38
			c47.53,52.99,96.18,78.61,142.53,77.86c7.06-0.11-47.67-35.55-58.73-60.83c-2.51-5.73,58.92,33.7,155.82,41.52
			c53.28,4.3,84.06,5.61,118.6-15.98c52.67-32.92,92.08-101.65,101.39-131.41c1.26-4.02-69.22,29.96-178.55,8.95
			c-63.25-12.15-91.68-34.28-100.07-44.77c-4.21-5.27,57.67,36.63,174.34,26.07c64.72-5.86,106.39-26.6,114.19-48.4
			c5.62-15.72,6.69-93.85,7.22-99.86c0.5-5.77-63.64,60.31-179.52,71.54c-44.87,4.35-126.67-0.98-194.7-38.36
			c-58.64-32.22-78.83-72.16-79.53-84.8c-0.7-12.64,7.46,21.15,60.31,16.59c40.73-3.51,58.6-109.1,76.28-154.67
			c12.46-32.11,23.88-73.74,23.88-73.74s30.72,82.78,96.04,82.25c70.82-0.57,87.96-74.53,87.96-74.53s11.85,91.47,22.38,125.88
			c8.97,29.32,20.28,60.31,51.88,60.31c27.41,0,45.12-35.9,45.12-35.9s45.04,54.51,40.03,162.22
			c-5.62,120.79-108.12,238.49-155.2,271.09c-9.13,6.32,161.49-24.95,207.87-215.61c53.64-220.49-86.99-386.42-86.99-386.42
			s9.48,90.59-27.92,89.28c-47.71-1.68-22.65-106.92-67.42-181.19c-23.74-39.38-62.56-68.07-62.68-62.41
			c-0.7,33.01,12.82,107.18-25.81,109.29C945.1,313.83,956.96,84.7,956.96,84.7z"/>
		<path class="st2" d="M1046.02,503.01c-6.06,0-13.43,5-32.13,16.59c-18.7,11.59-25.22,16.71-23.91,20.34
			c1.32,3.63,23.91,3.36,29.44,3.37c14.48,0,21.26-9.6,23.76-19.22C1046.29,512.14,1046.02,503.01,1046.02,503.01z"/>
		<path class="st2" d="M889.67,503.01c6.06,0,13.43,5,32.13,16.59c18.7,11.59,25.22,16.71,23.91,20.34
			c-1.32,3.63-23.91,3.36-29.44,3.37c-14.48,0-21.26-9.6-23.76-19.22C889.4,512.14,889.67,503.01,889.67,503.01z"/>
	</g>
</g>
</svg>
