<svg width="720" height="720" xmlns="http://www.w3.org/2000/svg" xmlns:xlink="http://www.w3.org/1999/xlink" overflow="hidden"><defs><clipPath id="clip0"><rect x="300" y="0" width="720" height="720"/></clipPath><linearGradient x1="368.035" y1="202.981" x2="918.86" y2="521" gradientUnits="userSpaceOnUse" spreadMethod="pad" id="fill1"><stop offset="0" stop-color="#20012F" stop-opacity="1"/><stop offset="0.1369" stop-color="#1C0129" stop-opacity="1"/><stop offset="0.3222" stop-color="#100118" stop-opacity="1"/><stop offset="0.5034" stop-color="#000000" stop-opacity="1"/><stop offset="0.527" stop-color="#030004" stop-opacity="1"/><stop offset="0.6953" stop-color="#12011A" stop-opacity="1"/><stop offset="0.856" stop-color="#1B0127" stop-opacity="1"/><stop offset="1" stop-color="#1E012C" stop-opacity="1"/></linearGradient><linearGradient x1="714.333" y1="71.2849" x2="597.582" y2="639.238" gradientUnits="userSpaceOnUse" spreadMethod="pad" id="fill2"><stop offset="0" stop-color="#FF00FF" stop-opacity="1"/><stop offset="0.0684" stop-color="#F800FB" stop-opacity="1"/><stop offset="0.1693" stop-color="#E400F1" stop-opacity="1"/><stop offset="0.2903" stop-color="#C300E0" stop-opacity="1"/><stop offset="0.4269" stop-color="#9600C8" stop-opacity="1"/><stop offset="0.5748" stop-color="#5D00AA" stop-opacity="1"/><stop offset="0.6049" stop-color="#5000A3" stop-opacity="1"/><stop offset="1" stop-color="#2F004D" stop-opacity="1"/></linearGradient></defs><g clip-path="url(#clip0)" transform="translate(-300 0)"><path d="M957.956 359.994C957.956 535.602 815.597 677.961 639.989 677.961 464.38 677.961 322.021 535.602 322.021 359.994 322.021 184.385 464.38 42.0259 639.989 42.0259 815.597 42.0259 957.956 184.385 957.956 359.994Z" fill="url(#fill1)" fill-rule="nonzero" transform="matrix(1 0 0 1.00002 29.1568 0)"/><path d="M637.962 56.4657C614.082 75.6587 580.843 103.751 554.157 169.297 527.471 234.842 518.177 290.062 513.718 309.574 509.751 326.941 503.124 331.794 492.471 330.821 486.411 330.261 480.671 324.234 478.605 310.808 476.792 299.048 475.985 270.442 476.852 264.809 477.905 257.962 450.225 292.901 435.246 347.674 422.592 393.946 418.859 429.606 422.066 455.339 423.512 466.952 441.792 487.031 474.572 511.538 524.664 548.99 620.642 571.463 630.002 571.93 639.369 572.396 558.843 576.61 482.058 532.604 431.066 503.378 430.559 497.025 424.939 492.811 419.319 488.598 420.973 536.237 464.172 584.396 495.858 619.722 528.291 636.802 559.19 636.302 563.897 636.229 527.411 612.602 520.037 595.749 518.364 591.929 559.317 618.216 623.916 623.429 659.435 626.296 679.955 627.169 702.981 612.776 738.094 590.83 764.366 545.01 770.573 525.171 771.413 522.491 724.427 545.144 651.542 531.137 609.376 523.037 590.423 508.284 584.83 501.291 582.023 497.778 623.276 525.711 701.054 518.671 744.2 514.764 771.98 500.938 777.18 486.405 780.926 475.925 781.639 423.839 781.993 419.833 782.326 415.986 739.567 460.039 662.315 467.525 632.402 470.425 577.87 466.872 532.517 441.952 493.425 420.473 479.965 393.846 479.498 385.42 479.031 376.993 484.471 399.52 519.704 396.48 546.857 394.14 558.77 323.748 570.557 293.368 578.863 271.962 586.476 244.209 586.476 244.209 586.476 244.209 606.956 299.395 650.502 299.041 697.714 298.661 709.141 249.356 709.141 249.356 709.141 249.356 717.041 310.335 724.06 333.274 730.04 352.82 737.58 373.48 758.647 373.48 776.92 373.48 788.726 349.547 788.726 349.547 788.726 349.547 818.752 385.887 815.412 457.692 811.666 538.217 743.333 616.682 711.947 638.415 705.861 642.629 819.605 621.782 850.525 494.678 886.284 347.687 792.533 237.069 792.533 237.069 792.533 237.069 798.853 297.461 773.92 296.588 742.113 295.468 758.82 225.309 728.974 175.797 713.147 149.544 687.268 130.418 687.188 134.191 686.721 156.197 695.734 205.643 669.981 207.05 630.055 209.216 637.962 56.4657 637.962 56.4657Z" fill="url(#fill2)" fill-rule="nonzero" transform="matrix(1 0 0 1.00002 29.1568 0)"/><path d="M697.334 335.334C693.294 335.334 688.381 338.667 675.915 346.394 663.448 354.12 659.102 357.534 659.975 359.954 660.855 362.374 675.915 362.194 679.601 362.2 689.254 362.2 693.774 355.8 695.441 349.387 697.514 341.421 697.334 335.334 697.334 335.334Z" fill="#8000B6" fill-rule="nonzero" fill-opacity="1" transform="matrix(1 0 0 1.00002 29.1568 0)"/><path d="M593.103 335.334C597.143 335.334 602.056 338.667 614.522 346.394 626.989 354.12 631.335 357.534 630.462 359.954 629.582 362.374 614.522 362.194 610.836 362.2 601.183 362.2 596.663 355.8 594.996 349.387 592.923 341.421 593.103 335.334 593.103 335.334Z" fill="#8000B6" fill-rule="nonzero" fill-opacity="1" transform="matrix(1 0 0 1.00002 29.1568 0)"/></g></svg>