<svg width="1059" height="1059" xmlns="http://www.w3.org/2000/svg" xmlns:xlink="http://www.w3.org/1999/xlink" overflow="hidden"><defs><clipPath id="clip0"><rect x="-2424" y="586" width="1059" height="1059"/></clipPath><clipPath id="clip1"><rect x="-2424" y="590" width="1055" height="1055"/></clipPath><clipPath id="clip2"><rect x="-2424" y="590" width="1055" height="1055"/></clipPath><clipPath id="clip3"><rect x="-2424" y="590" width="1055" height="1055"/></clipPath><clipPath id="clip4"><rect x="-2424" y="591" width="1054" height="1054"/></clipPath></defs><g clip-path="url(#clip0)" transform="translate(2424 -586)"><path d="M-2306.5 1144C-2306.5 916.183-2121.82 731.5-1894 731.5-1666.18 731.5-1481.5 916.183-1481.5 1144-1481.5 1371.82-1666.18 1556.5-1894 1556.5-2121.82 1556.5-2306.5 1371.82-2306.5 1144Z" stroke="#FFFFFF" stroke-width="4.58333" stroke-linecap="butt" stroke-linejoin="miter" stroke-miterlimit="8" stroke-opacity="1" fill="#FFFFFF" fill-rule="evenodd" fill-opacity="1"/><g clip-path="url(#clip1)"><g clip-path="url(#clip2)"><g clip-path="url(#clip3)"><g clip-path="url(#clip4)"><path d="M0 0 1053 0 1053 1053 0 1053Z" stroke="#FFFFFF" stroke-width="0.100298" stroke-linecap="butt" stroke-linejoin="miter" stroke-miterlimit="22.926" stroke-opacity="1" fill="none" fill-rule="nonzero" transform="matrix(1 0 0 -1 -2423 1644)"/><path d="M0 0C-0.065008-0.00139303-0.13048-0.00185737-0.195953-0.00185737-4.08668-0.00185737-7.49078 2.08583-9.35048 5.20111L-79.9864 148.98-79.9868 148.988C-80.5733 150.308-80.8997 151.769-80.8997 153.307-80.8997 154.231-80.7813 155.126-80.5603 155.981L-65.965 204.149-10.1803 388.244C-8.64375 392.239-4.76927 395.076-0.2331 395.076-0.155555 395.076-0.0775453 395.075-1.59813e-14 395.073Z" fill="#E3BB5F" fill-rule="evenodd" fill-opacity="1" transform="matrix(1 0 0 -1 -1896.5 1177.02)"/><path d="M0 0C1.91402-2.83853 5.15932-4.70565 8.8397-4.70565 8.98365-4.70565 9.12713-4.7024 9.26968-4.69637L9.26968-113.253 9.25714-113.253C7.92402-113.253 6.64846-113.498 5.47228-113.946L-184.109-199.639C-185.368-200.163-186.749-200.454-188.197-200.454-194.08-200.454-198.851-195.683-198.851-189.8-198.851-189.258-198.81-188.726-198.732-188.207L-99.4707 139.341C-97.8928 143.251-94.0615 146.012-89.5867 146.012-85.7136 146.012-82.3239 143.944-80.4591 140.852Z" fill="#E3BB5F" fill-rule="evenodd" fill-opacity="1" transform="matrix(1 0 0 -1 -1905.77 1252.61)"/><path d="M0 0C0.065008-0.00139303 0.13048-0.00185737 0.195953-0.00185737 4.08668-0.00185737 7.49078 2.08583 9.35048 5.20111L79.9864 148.98 79.9873 148.988C80.5733 150.308 80.8997 151.769 80.8997 153.307 80.8997 154.231 80.7813 155.126 80.5603 155.981L65.9655 204.149 10.1803 388.244C8.64375 392.239 4.76927 395.076 0.233565 395.076 0.155555 395.076 0.0775453 395.075 5.15524e-17 395.073Z" fill="#DBA628" fill-rule="evenodd" fill-opacity="1" transform="matrix(1 0 0 -1 -1896.5 1177.02)"/><path d="M0 0C-1.91402-2.83853-5.15932-4.70565-8.8397-4.70565-8.98411-4.70565-9.12713-4.7024-9.26968-4.69637L-9.26968-113.253-9.25714-113.253C-7.92402-113.253-6.64846-113.498-5.47228-113.946L184.108-199.639C185.368-200.163 186.749-200.454 188.197-200.454 194.08-200.454 198.851-195.683 198.851-189.8 198.851-189.258 198.81-188.726 198.732-188.207L99.4711 139.341C97.8928 143.251 94.0615 146.012 89.5867 146.012 85.7136 146.012 82.3239 143.944 80.4586 140.852Z" fill="#DBA628" fill-rule="evenodd" fill-opacity="1" transform="matrix(1 0 0 -1 -1887.23 1252.61)"/><path d="M0 0-203.678-29.5879C-208.01-30.9401-211.156-34.9836-211.156-39.7594-211.156-42.5273-210.099-45.0478-208.369-46.9423L-61.6945-189.915C-59.8209-191.554-57.3691-192.548-54.6848-192.548-50.0752-192.548-46.1483-189.618-44.6642-185.52L-44.6554-185.518 11.1874-13.6326 11.1818-13.6289C11.4646-12.6719 11.616-11.6587 11.616-10.6102 11.616-4.72748 6.84535 0.0436483 0.962119 0.0436483 0.637543 0.0436483 0.317146 0.0287893 0 0" fill="#E3BB5F" fill-rule="evenodd" fill-opacity="1" transform="matrix(1 0 0 -1 -2040.34 1022.6)"/><path d="M0 0 203.678-29.5879C208.01-30.9401 211.156-34.9836 211.156-39.7594 211.156-42.5273 210.099-45.0478 208.369-46.9423L61.6945-189.915C59.8209-191.554 57.3691-192.548 54.6848-192.548 50.0752-192.548 46.1483-189.618 44.6642-185.52L44.6554-185.518-11.1874-13.6326-11.1818-13.6289C-11.4642-12.6719-11.616-11.6587-11.616-10.6102-11.616-4.72748-6.84488 0.0436483-0.962119 0.0436483-0.637543 0.0436483-0.316682 0.0287893 0 0" fill="#DBA628" fill-rule="evenodd" fill-opacity="1" transform="matrix(1 0 0 -1 -1752.66 1022.6)"/></g></g></g></g></g></svg>