<svg width="880" height="876" xmlns="http://www.w3.org/2000/svg" xmlns:xlink="http://www.w3.org/1999/xlink" overflow="hidden"><defs><clipPath id="clip0"><rect x="-1411" y="462" width="880" height="876"/></clipPath><clipPath id="clip1"><rect x="-1364" y="515" width="791" height="792"/></clipPath><clipPath id="clip2"><rect x="-1364" y="515" width="791" height="792"/></clipPath></defs><g clip-path="url(#clip0)" transform="translate(1411 -462)"><path d="M-1409 901.5C-1409 660.428-1213.57 465-972.5 465-731.428 465-536 660.428-536 901.5-536 1142.57-731.428 1338-972.5 1338-1213.57 1338-1409 1142.57-1409 901.5Z" fill="#FFFFFF" fill-rule="evenodd" fill-opacity="1"/><g clip-path="url(#clip1)"><g clip-path="url(#clip2)"><path d="M-2174.81 1078.68C-2174.81 863.873-2000.67 689.734-1785.86 689.734-1571.05 689.734-1396.91 863.873-1396.91 1078.68-1396.91 1293.49-1571.05 1467.63-1785.86 1467.63-2000.67 1467.63-2174.81 1293.49-2174.81 1078.68Z" stroke="#FFFFFF" stroke-width="4.32164" stroke-linecap="butt" stroke-linejoin="miter" stroke-miterlimit="8" stroke-opacity="1" fill="#FFFFFF" fill-rule="evenodd" fill-opacity="1" transform="matrix(1 0 0 1.00001 812.61 -183.395)"/><path d="M0 0 992.878 0 992.878 992.878 0 992.878Z" stroke="#FFFFFF" stroke-width="0.0945714" stroke-linecap="butt" stroke-linejoin="miter" stroke-miterlimit="22.926" stroke-opacity="1" fill="none" fill-rule="nonzero" transform="matrix(1 0 0 -1.00001 -1472.05 1366.76)"/><path d="M0 0C-0.0612963-0.00131349-0.12303-0.00175132-0.184765-0.00175132-3.85335-0.00175132-7.06309 1.96674-8.81661 4.90415L-75.4195 140.474-75.4199 140.481C-75.9729 141.726-76.2807 143.104-76.2807 144.554-76.2807 145.425-76.169 146.269-75.9606 147.075L-62.1987 192.493-9.59905 366.077C-8.15023 369.844-4.49696 372.519-0.219791 372.519-0.146673 372.519-0.0731178 372.518-1.50688e-14 372.516Z" fill="#E3BB5F" fill-rule="evenodd" fill-opacity="1" transform="matrix(1 0 0 -1.00001 -975.608 926.436)"/><path d="M0 0C1.80474-2.67646 4.86474-4.43698 8.33499-4.43698 8.47072-4.43698 8.60601-4.43391 8.74042-4.42823L8.74042-106.787 8.7286-106.787C7.47159-106.787 6.26886-107.018 5.15984-107.44L-173.597-188.24C-174.784-188.735-176.086-189.009-177.452-189.009-182.999-189.009-187.497-184.51-187.497-178.963-187.497-178.452-187.459-177.951-187.385-177.461L-93.7913 131.385C-92.3035 135.072-88.691 137.675-84.4717 137.675-80.8197 137.675-77.6236 135.725-75.8652 132.81Z" fill="#E3BB5F" fill-rule="evenodd" fill-opacity="1" transform="matrix(1 0 0 -1.00001 -984.349 997.711)"/><path d="M0 0C0.0612963-0.00131349 0.12303-0.00175132 0.184765-0.00175132 3.85335-0.00175132 7.06309 1.96674 8.81661 4.90415L75.4195 140.474 75.4204 140.481C75.9729 141.726 76.2807 143.104 76.2807 144.554 76.2807 145.425 76.169 146.269 75.9606 147.075L62.1992 192.493 9.59905 366.077C8.15023 369.844 4.49696 372.519 0.220229 372.519 0.146673 372.519 0.0731178 372.518 4.8609e-17 372.516Z" fill="#DBA628" fill-rule="evenodd" fill-opacity="1" transform="matrix(1 0 0 -1.00001 -975.608 926.436)"/><path d="M0 0C-1.80474-2.67646-4.86474-4.43698-8.33499-4.43698-8.47116-4.43698-8.60601-4.43391-8.74042-4.42823L-8.74042-106.787-8.7286-106.787C-7.47159-106.787-6.26886-107.018-5.15984-107.44L173.596-188.24C174.784-188.735 176.086-189.009 177.452-189.009 182.999-189.009 187.497-184.51 187.497-178.963 187.497-178.452 187.459-177.951 187.385-177.461L93.7917 131.385C92.3035 135.072 88.691 137.675 84.4717 137.675 80.8197 137.675 77.6236 135.725 75.8648 132.81Z" fill="#DBA628" fill-rule="evenodd" fill-opacity="1" transform="matrix(1 0 0 -1.00001 -966.867 997.711)"/><path d="M0 0-192.049-27.8986C-196.133-29.1736-199.1-32.9862-199.1-37.4893-199.1-40.0992-198.103-42.4758-196.472-44.2621L-58.172-179.072C-56.4054-180.617-54.0936-181.554-51.5625-181.554-47.2161-181.554-43.5134-178.792-42.1141-174.928L-42.1058-174.926 10.5486-12.8542 10.5434-12.8507C10.81-11.9484 10.9528-10.993 10.9528-10.0044 10.9528-4.45756 6.45451 0.0411562 0.907186 0.0411562 0.601142 0.0411562 0.299038 0.0271456 0 0" fill="#E3BB5F" fill-rule="evenodd" fill-opacity="1" transform="matrix(1 0 0 -1.00001 -1111.24 780.831)"/><path d="M0 0 192.049-27.8986C196.133-29.1736 199.1-32.9862 199.1-37.4893 199.1-40.0992 198.103-42.4758 196.472-44.2621L58.172-179.072C56.4054-180.617 54.0936-181.554 51.5625-181.554 47.2161-181.554 43.5134-178.792 42.1141-174.928L42.1058-174.926-10.5486-12.8542-10.5434-12.8507C-10.8096-11.9484-10.9528-10.993-10.9528-10.0044-10.9528-4.45756-6.45407 0.0411562-0.907186 0.0411562-0.601142 0.0411562-0.298601 0.0271456 0 0" fill="#DBA628" fill-rule="evenodd" fill-opacity="1" transform="matrix(1 0 0 -1.00001 -839.981 780.831)"/></g></g></g></svg>