<svg width="761" height="760" xmlns="http://www.w3.org/2000/svg" xmlns:xlink="http://www.w3.org/1999/xlink" overflow="hidden"><defs><clipPath id="clip0"><rect x="1819" y="857" width="761" height="760"/></clipPath><clipPath id="clip1"><rect x="1920" y="1023" width="560" height="429"/></clipPath><clipPath id="clip2"><rect x="1920" y="1023" width="560" height="429"/></clipPath><clipPath id="clip3"><rect x="1920" y="1023" width="560" height="429"/></clipPath></defs><g clip-path="url(#clip0)" transform="translate(-1819 -857)"><path d="M1820 1237.5C1820 1027.91 1990.13 858 2200 858 2409.87 858 2580 1027.91 2580 1237.5 2580 1447.09 2409.87 1617 2200 1617 1990.13 1617 1820 1447.09 1820 1237.5Z" fill="#FFFFFF" fill-rule="evenodd" fill-opacity="1"/><g clip-path="url(#clip1)"><g clip-path="url(#clip2)"><g clip-path="url(#clip3)"><path d="M175.509 359.834 175.509 399.882 233.746 399.882 233.746 414.441 175.509 414.441 175.509 429 248.311 429 248.311 385.317 190.063 385.317 190.063 374.399 219.337 374.399 219.337 359.834Z" fill="#FF0002" fill-rule="evenodd" fill-opacity="1" transform="matrix(1.00054 0 0 1 1921 1023)"/><path d="M398.466 359.834 398.466 398.595 388.24 398.595 388.24 359.834 230.958 359.834 230.958 374.399 273.627 374.399 273.627 429 288.186 429 288.186 374.399 315.428 374.399 315.428 429 329.998 429 329.998 413.717 373.68 413.717 373.68 429 388.24 429 388.24 413.647 398.466 413.647 398.466 429 413.025 429 413.025 413.717 446.348 413.717 448.911 429 466.205 429 463.449 413.717 471.273 413.717 471.273 359.829 398.466 359.829ZM413.025 398.595 456.708 398.595 456.708 374.399 413.02 374.399 413.02 398.595ZM329.998 398.595 373.68 398.595 373.68 374.399 329.998 374.399 329.998 398.595ZM479.933 359.834 479.933 374.399 530.625 374.399 479.933 414.441 479.933 429 552.734 429 552.734 414.441 502.139 414.441 552.734 374.399 552.734 359.834Z" fill="#FF0002" fill-rule="evenodd" fill-opacity="1" transform="matrix(1.00054 0 0 1 1921 1023)"/><path d="M0 357.925 0 399.018 59.7704 399.018 59.7704 428.898 74.7104 428.898 74.7104 357.925 0 357.925ZM14.9399 384.068 59.7651 384.068 59.7651 372.86 14.9399 372.86 14.9399 384.068ZM87.6876 357.925 87.6876 399.018 147.458 399.018 147.458 428.898 162.403 428.898 162.403 357.925 87.6876 357.925ZM102.633 384.068 147.463 384.068 147.463 372.86 102.633 372.86 102.633 384.068ZM155.03 96.0692 178.174 113.385 156.258 184.802 275.868 95.1737Z" fill="#151DF4" fill-rule="evenodd" fill-opacity="1" transform="matrix(1.00054 0 0 1 1921 1023)"/><path d="M380.292 132.781 291.007 194.825 320.372 216.007 230.137 215.846 527.145 0.0053625 274.951 28.2443 25.4987 0 129.199 77.0109 331.949 77.0109 43.8223 293.136 271.23 265.878 494.755 293.136 394.315 218.693 380.292 132.786Z" fill="#FF0002" fill-rule="evenodd" fill-opacity="1" transform="matrix(1.00054 0 0 1 1921 1023)"/></g></g></g></g></svg>