<svg width="835" height="834" xmlns="http://www.w3.org/2000/svg" xmlns:xlink="http://www.w3.org/1999/xlink" overflow="hidden"><defs><clipPath id="clip0"><rect x="-2310" y="728" width="835" height="834"/></clipPath><clipPath id="clip1"><rect x="-2202" y="829" width="631" height="630"/></clipPath><clipPath id="clip2"><rect x="-2202" y="829" width="631" height="630"/></clipPath><clipPath id="clip3"><rect x="-2202" y="829" width="631" height="630"/></clipPath><clipPath id="clip4"><rect x="-2202" y="829" width="631" height="630"/></clipPath><linearGradient x1="226.55" y1="12.9554" x2="323.222" y2="344.915" gradientUnits="userSpaceOnUse" spreadMethod="pad" id="fill5"><stop offset="0" stop-color="#03B8FF" stop-opacity="1"/><stop offset="1" stop-color="#FA52A0" stop-opacity="1"/></linearGradient><linearGradient x1="306.161" y1="-10.2312" x2="402.835" y2="321.73" gradientUnits="userSpaceOnUse" spreadMethod="pad" id="fill6"><stop offset="0" stop-color="#03B8FF" stop-opacity="1"/><stop offset="1" stop-color="#FA52A0" stop-opacity="1"/></linearGradient><linearGradient x1="147.186" y1="36.0653" x2="243.861" y2="368.028" gradientUnits="userSpaceOnUse" spreadMethod="pad" id="fill7"><stop offset="0" stop-color="#03B8FF" stop-opacity="1"/><stop offset="1" stop-color="#FA52A0" stop-opacity="1"/></linearGradient></defs><g clip-path="url(#clip0)" transform="translate(2310 -728)"><path d="M-2306.5 1144C-2306.5 916.183-2121.82 731.5-1894 731.5-1666.18 731.5-1481.5 916.183-1481.5 1144-1481.5 1371.82-1666.18 1556.5-1894 1556.5-2121.82 1556.5-2306.5 1371.82-2306.5 1144Z" stroke="#FFFFFF" stroke-width="4.58333" stroke-linecap="butt" stroke-linejoin="miter" stroke-miterlimit="8" stroke-opacity="1" fill="#FFFFFF" fill-rule="evenodd" fill-opacity="1"/><g clip-path="url(#clip1)"><g clip-path="url(#clip2)"><g clip-path="url(#clip3)"><g clip-path="url(#clip4)"><path d="M131.042 60.2792 618.517 393.125 497.958 571.342 10.4833 235.875 131.042 60.2792Z" fill="url(#fill5)" fill-rule="nonzero" transform="matrix(1 0 0 1.00159 -2201 829)"/><path d="M618.517 393.125C576.583 453.404 435.058 429.817 301.396 335.467 165.113 243.738 91.7292 120.558 131.042 60.2792 172.975 0 314.5 23.5875 448.163 117.938 584.446 207.046 657.829 332.846 618.517 393.125Z" fill="url(#fill6)" fill-rule="nonzero" transform="matrix(1 0 0 1.00159 -2201 829)"/><path d="M497.958 568.721C456.025 629 314.5 605.413 180.838 511.063 47.175 416.713-28.8292 296.154 13.1042 233.254 55.0375 172.975 196.563 196.563 330.225 290.913 463.888 385.263 537.271 508.442 497.958 568.721Z" fill="url(#fill7)" fill-rule="nonzero" transform="matrix(1 0 0 1.00159 -2201 829)"/><path d="M618.517 393.125C618.517 393.125 618.517 393.125 618.517 393.125L497.958 571.342C456.025 631.621 314.5 605.413 180.838 513.683 154.629 495.338 131.042 476.992 107.454 456.025 125.8 453.404 149.388 442.921 172.975 416.713 214.908 372.158 235.875 361.675 254.221 364.296 272.567 364.296 293.533 382.642 327.604 427.196 361.675 471.75 408.85 484.854 437.679 461.267 440.3 458.646 442.921 458.646 445.542 456.025 469.129 437.679 476.992 429.817 521.546 345.95 532.029 324.983 568.721 290.913 618.517 306.638 631.621 340.708 631.621 369.538 618.517 393.125Z" fill="#0E0F23" fill-rule="nonzero" fill-opacity="1" transform="matrix(1 0 0 1.00159 -2201 829)"/><path d="M600.171 382.642C563.479 435.058 435.058 408.85 311.879 322.363 186.079 235.875 112.696 125.8 149.388 73.3833 186.079 20.9667 314.5 47.175 437.679 133.663 560.858 220.15 634.242 330.225 600.171 382.642ZM484.854 304.017C466.508 330.225 403.608 317.121 340.708 275.188 280.429 233.254 243.738 178.217 262.083 152.008 280.429 125.8 343.329 138.904 406.229 180.838 466.508 222.771 503.2 277.808 484.854 304.017Z" fill="#FFFFFF" fill-rule="evenodd" fill-opacity="1" transform="matrix(1 0 0 1.00159 -2201 829)"/><path d="M120.558 120.558C120.558 117.938 117.938 115.317 115.317 117.938 112.696 120.558 110.075 120.558 110.075 123.179 112.696 131.042 115.317 136.283 115.317 141.525 115.317 144.146 117.938 146.767 120.558 144.146 123.179 144.146 125.8 141.525 123.179 138.904 123.179 133.663 123.179 128.421 120.558 120.558Z" fill="#FFFFFF" fill-rule="nonzero" fill-opacity="1" transform="matrix(1 0 0 1.00159 -2201 829)"/><path d="M133.663 162.492C133.663 159.871 131.042 157.25 128.421 159.871 125.8 162.492 125.8 162.492 125.8 165.113 154.629 230.633 214.908 301.396 293.533 353.813 296.154 356.433 298.775 353.813 301.396 353.813 304.017 351.192 301.396 348.571 301.396 345.95 220.15 293.533 162.492 225.392 133.663 162.492Z" fill="#FFFFFF" fill-rule="nonzero" fill-opacity="1" transform="matrix(1 0 0 1.00159 -2201 829)"/><path d="M450.783 419.333C448.163 419.333 445.542 419.333 445.542 421.954 445.542 424.575 445.542 427.196 448.163 427.196 456.025 429.817 466.508 432.438 474.371 435.058 476.992 435.058 479.613 435.058 479.613 432.438 479.613 429.817 479.613 427.196 476.992 427.196 469.129 424.575 458.646 421.954 450.783 419.333Z" fill="#FFFFFF" fill-rule="nonzero" fill-opacity="1" transform="matrix(1 0 0 1.00159 -2201 829)"/><path d="M497.958 429.817C495.338 429.817 492.717 432.438 492.717 435.058 492.717 437.679 495.338 440.3 497.958 440.3 518.925 442.921 542.513 445.542 560.858 442.921 563.479 442.921 566.1 440.3 566.1 437.679 566.1 435.058 563.479 432.438 560.858 432.438 539.892 435.058 518.925 432.438 497.958 429.817Z" fill="#FFFFFF" fill-rule="nonzero" fill-opacity="1" transform="matrix(1 0 0 1.00159 -2201 829)"/></g></g></g></g></g></svg>