<svg version="1.2" baseProfile="tiny-ps" xmlns="http://www.w3.org/2000/svg" viewBox="0 0 207 207" width="207" height="207">
	<title>SWAMP-svg</title>
	<defs>
		<clipPath clipPathUnits="userSpaceOnUse" id="cp1">
			<path d="M29.24 33L87 33L87 89L29.24 89L29.24 33Z" />
		</clipPath>
		<clipPath clipPathUnits="userSpaceOnUse" id="cp2">
			<path d="M40 28.5L156 28.5L156 178.5L40 178.5L40 28.5Z" />
		</clipPath>
		<clipPath clipPathUnits="userSpaceOnUse" id="cp3">
			<path d="M117 32L177.74 32L177.74 84L117 84L117 32Z" />
		</clipPath>
	</defs>
	<style>
		tspan { white-space:pre }
		.shp0 { fill: #c9e265 } 
		.shp1 { fill: #fb8681 } 
		.shp2 { fill: #15181a } 
		.shp3 { fill: #f8b1ae } 
		.shp4 { fill: #de5852 } 
		.shp5 { fill: #cded6a } 
		.shp6 { fill: #afcc47 } 
		.shp7 { fill: #f3f38b } 
		.shp8 { fill: #ffffff } 
		.shp9 { fill: #efd567 } 
		.shp10 { fill: #16191b } 
		.shp11 { fill: #f4ffb3 } 
	</style>
	<path id="Layer" class="shp0" d="M103.5 0.38C46.55 0.38 0.38 46.55 0.38 103.5C0.38 160.45 46.55 206.63 103.5 206.63C160.45 206.63 206.63 160.45 206.63 103.5C206.63 46.55 160.45 0.38 103.5 0.38Z" />
	<path id="Layer" class="shp1" d="M75.1 85.36C69.66 85.36 61.37 82.95 52.94 78.92C44.3 74.79 34.44 68.35 32.65 62.66C32.39 61.93 32.3 61.17 32.36 60.4C32.42 59.63 32.64 58.9 33.02 58.22C34.18 56.16 36.58 55.11 40.13 55.11C40.51 55.11 40.91 55.12 41.32 55.14C39.75 51.54 39.83 48.74 41.56 46.79C42.14 46.16 42.84 45.69 43.63 45.37C44.42 45.04 45.25 44.91 46.1 44.95C47.3 44.97 48.47 45.16 49.62 45.52C48.97 41.48 49.68 38.68 51.75 37.16C52.69 36.49 53.73 36.16 54.88 36.17C60.89 36.17 69 45.68 74.59 54.59C79.59 62.55 84.83 73.87 83.39 79.93C83.27 81.07 82.84 82.07 82.09 82.93C81.54 83.54 80.89 84 80.13 84.3C78.54 85.09 76.87 85.44 75.1 85.36Z" />
	<g id="Clip-Path" clip-path="url(#cp1)">
		<g id="Layer">
			<path id="Layer" fill-rule="evenodd" class="shp2" d="M54.88 33.07C63.79 33.07 73.48 46.97 77.23 52.94C79.93 57.22 88.38 71.65 86.46 80.47C86.23 82.19 85.55 83.7 84.41 84.99C83.59 85.91 82.62 86.61 81.48 87.09C79.47 88.09 77.34 88.55 75.1 88.47C69.21 88.47 60.42 85.95 51.59 81.73C47.12 79.58 32.3 71.94 29.68 63.58C29.3 62.44 29.16 61.27 29.27 60.07C29.38 58.86 29.72 57.74 30.3 56.68C31.05 55.44 32.03 54.43 33.24 53.64C34.46 52.86 35.79 52.39 37.22 52.23C37.16 51.91 37.11 51.58 37.08 51.25C37.05 50.93 37.04 50.6 37.05 50.27C37.05 49.94 37.08 49.61 37.13 49.29C37.17 48.96 37.23 48.64 37.32 48.32C37.4 48.01 37.5 47.7 37.61 47.39C37.73 47.08 37.87 46.78 38.02 46.49C38.17 46.2 38.34 45.91 38.52 45.64C38.7 45.37 38.9 45.11 39.12 44.86C39.33 44.61 39.55 44.38 39.8 44.15C40.04 43.93 40.29 43.71 40.55 43.52C40.82 43.33 41.09 43.15 41.38 42.98C41.66 42.82 41.96 42.67 42.26 42.54C42.56 42.41 42.87 42.3 43.18 42.2C43.5 42.11 43.81 42.03 44.14 41.97C44.46 41.91 44.79 41.88 45.11 41.85C45.44 41.83 45.77 41.83 46.1 41.84L46.3 41.84C46.32 40.43 46.65 39.1 47.28 37.84C47.91 36.57 48.79 35.51 49.91 34.66C51.39 33.58 53.05 33.05 54.88 33.06L54.88 33.07ZM54.88 39.29C54.4 39.27 53.98 39.4 53.59 39.68C51.82 40.98 52.26 45.35 54.38 51.03C51.84 49.4 49.09 48.41 46.1 48.08C45.24 48.01 44.5 48.27 43.89 48.87C42.41 50.53 43.91 54.52 47.43 59.33C45.05 58.67 42.61 58.3 40.14 58.23C37.88 58.23 36.31 58.72 35.72 59.76C33.87 63 42.18 70.32 54.28 76.11C62.49 80.04 70.33 82.25 75.11 82.25C76.4 82.34 77.63 82.08 78.78 81.48C79.16 81.37 79.49 81.16 79.77 80.86C80.12 80.44 80.3 79.95 80.32 79.39C81.41 75.52 78.09 66.02 71.96 56.25C65.68 46.23 58.54 39.28 54.88 39.28L54.88 39.29Z" />
		</g>
	</g>
	<path id="Layer" class="shp3" d="M68.51 54.34C62.76 47.88 56.85 43.11 52.68 41.25C52.81 40.65 53.11 40.16 53.59 39.77C56.59 37.56 64.82 44.98 71.95 56.35C73.95 59.51 75.71 62.8 77.25 66.21C74.73 61.97 71.81 58.01 68.51 54.34Z" />
	<path id="Layer" class="shp4" d="M35.72 59.75C36.83 57.8 41.36 57.77 47.44 59.32C43.91 54.51 42.41 50.52 43.89 48.86C44.11 48.63 44.36 48.45 44.64 48.33L80.2 80.04C80.12 80.35 79.97 80.62 79.77 80.86C79.49 81.16 79.16 81.36 78.77 81.47C75.58 83.54 65.26 81.36 54.27 76.11C42.19 70.32 33.87 63 35.72 59.75Z" />
	<path id="Layer" class="shp5" d="M136.33 50.93C133.93 47.8 131.18 45 128.11 42.52C125.04 40.04 121.72 37.95 118.16 36.25C116.19 35.32 114.17 34.54 112.11 33.88C110.04 33.23 107.93 32.71 105.79 32.33C103.65 31.96 101.5 31.73 99.33 31.64C97.16 31.55 95 31.6 92.84 31.8C90.67 32 88.53 32.34 86.42 32.82C84.3 33.3 82.22 33.93 80.19 34.68C78.16 35.44 76.18 36.33 74.27 37.36C72.35 38.38 70.51 39.52 68.75 40.79C61.31 46.23 55.91 54.2 52.32 62.66C46.76 75.78 44.59 90.14 44.2 104.32C43.71 120 44.87 135.56 47.67 151C48.59 155.65 49.79 160.59 53.27 164.02C54.08 164.89 55.04 165.55 56.13 165.99C57.23 166.44 58.38 166.64 59.57 166.59C65.56 166.02 65.31 158.14 65.44 153.69C65.53 150.42 65.38 146.62 67.56 143.94C67.8 143.64 68.07 143.38 68.39 143.16C68.71 142.95 69.05 142.79 69.42 142.68C69.79 142.57 70.16 142.52 70.55 142.53C70.93 142.54 71.3 142.61 71.67 142.73C72.75 143.18 73.58 143.92 74.15 144.94C76.56 148.96 75.04 153.85 75.21 158.25C75.2 161.36 75.35 164.47 75.68 167.57C75.87 169.41 76.48 171.09 77.5 172.62C77.82 173.03 78.19 173.4 78.6 173.73C79 174.06 79.44 174.35 79.9 174.58C80.37 174.82 80.86 175 81.36 175.13C81.87 175.26 82.39 175.33 82.91 175.35C83.43 175.37 83.95 175.33 84.46 175.23C84.98 175.14 85.48 174.99 85.96 174.79C86.44 174.59 86.89 174.33 87.32 174.03C87.75 173.73 88.14 173.38 88.49 173C91.05 170.12 90.96 165.81 91.3 161.95C91.36 159.17 91.66 156.41 92.19 153.68C92.8 151.39 94.4 148.64 96.93 148.2C97.58 148.1 98.23 148.1 98.88 148.2C99.54 148.3 100.16 148.49 100.75 148.77C101.34 149.06 101.88 149.43 102.36 149.88C102.84 150.34 103.24 150.85 103.56 151.42C104.66 153.61 105.28 155.93 105.4 158.38C105.76 161.44 106.16 164.41 108.25 166.77C108.69 167.27 109.19 167.69 109.75 168.05C110.31 168.4 110.91 168.68 111.54 168.87C112.18 169.07 112.83 169.17 113.49 169.19C114.15 169.2 114.8 169.13 115.45 168.97C122.71 167.04 120.82 159.17 122.5 153.68C122.57 153.32 122.69 152.98 122.86 152.67C123.03 152.35 123.23 152.06 123.49 151.8C123.74 151.55 124.02 151.34 124.34 151.16C124.66 150.99 124.99 150.86 125.34 150.79C125.7 150.71 126.05 150.69 126.41 150.72C126.77 150.75 127.11 150.83 127.45 150.96C127.79 151.09 128.09 151.27 128.38 151.49C128.66 151.71 128.91 151.97 129.11 152.26C130.68 154.53 131.58 157.04 131.82 159.78C132.21 162.09 132.75 164.59 134.91 165.87C135.69 166.32 136.52 166.6 137.41 166.72C138.3 166.84 139.18 166.79 140.04 166.56C145.68 165.06 147.71 157.86 148.69 152.77C152.49 133.09 154.38 110 151.32 90.07C149.19 76.28 145 61.99 136.33 50.93Z" />
	<g id="Clip-Path" clip-path="url(#cp2)">
		<g id="Layer">
			<path id="Layer" fill-rule="evenodd" class="shp2" d="M83.11 178.46C82.95 178.46 82.79 178.46 82.63 178.45C81.13 178.39 79.71 178.02 78.38 177.33C77.05 176.64 75.93 175.69 75.03 174.48C73.67 172.54 72.87 170.39 72.62 168.03C72.32 165.64 72.17 163.24 72.18 160.83C72.16 160 72.15 159.18 72.12 158.36C72.09 156.9 72.14 155.45 72.28 154C72.5 151.06 72.69 148.53 71.5 146.55C71.29 146.16 70.99 145.86 70.59 145.66C70.3 145.6 70.07 145.69 69.91 145.93C68.63 147.51 68.57 150.19 68.52 152.78C68.51 153.12 68.5 153.45 68.49 153.78C68.48 154.08 68.48 154.38 68.47 154.7C68.37 159.3 68.16 168.9 59.82 169.7C58.19 169.79 56.61 169.54 55.08 168.95C53.55 168.34 52.22 167.45 51.09 166.26C46.99 162.21 45.59 156.58 44.62 151.62C41.77 135.95 40.59 120.16 41.09 104.24C41.55 87.64 44.29 73.65 49.46 61.45C51.29 56.87 53.68 52.62 56.64 48.69C59.6 44.76 63.03 41.29 66.93 38.28C68.8 36.94 70.76 35.73 72.8 34.65C74.84 33.57 76.94 32.63 79.1 31.82C81.27 31.02 83.47 30.36 85.72 29.85C87.97 29.34 90.24 28.98 92.54 28.77C94.84 28.56 97.14 28.5 99.45 28.59C101.75 28.68 104.04 28.93 106.31 29.32C108.58 29.71 110.82 30.25 113.02 30.95C115.22 31.64 117.37 32.46 119.46 33.44C123.25 35.24 126.77 37.45 130.04 40.09C133.3 42.72 136.21 45.7 138.77 49.02C146.61 59.02 151.72 72.3 154.39 89.61C158.11 113.87 154.33 139.98 151.74 153.39C151.07 156.86 149.02 167.42 140.85 169.59C139.58 169.92 138.3 170 137.01 169.82C135.71 169.65 134.5 169.23 133.37 168.57C129.83 166.46 129.16 162.46 128.8 160.32C128.63 158.13 127.95 156.11 126.76 154.26C126.51 153.96 126.25 153.79 126.05 153.84C125.86 153.88 125.61 154.1 125.45 154.61C125.07 156.07 124.82 157.55 124.71 159.04C124.2 163.69 123.5 170.05 116.23 171.99C115.31 172.22 114.38 172.32 113.43 172.3C112.49 172.27 111.56 172.13 110.66 171.85C109.75 171.57 108.9 171.18 108.1 170.67C107.3 170.16 106.58 169.56 105.95 168.86C103.16 165.7 102.71 161.85 102.34 158.76C102.25 156.75 101.78 154.84 100.91 153.03C100.75 152.72 100.54 152.45 100.29 152.21C100.04 151.96 99.76 151.77 99.45 151.61C99.14 151.45 98.81 151.35 98.47 151.29C98.13 151.23 97.79 151.23 97.44 151.28C96.59 151.43 95.59 152.84 95.14 154.5C94.75 156.28 94.54 158.08 94.5 159.9C94.45 160.7 94.41 161.48 94.35 162.23C94.3 162.77 94.27 163.32 94.23 163.86C93.96 167.6 93.66 171.83 90.76 175.09C89.79 176.17 88.63 177.01 87.3 177.59C85.96 178.18 84.57 178.47 83.11 178.46ZM70.46 139.41C71.23 139.41 71.98 139.55 72.7 139.81C74.47 140.51 75.82 141.68 76.77 143.33C78.96 147 78.67 150.96 78.41 154.46C78.3 155.68 78.25 156.91 78.26 158.13C78.29 158.98 78.31 159.85 78.32 160.72C78.32 162.86 78.44 164.98 78.7 167.11C78.82 168.42 79.23 169.64 79.95 170.75C80.3 171.21 80.74 171.57 81.25 171.82C81.77 172.09 82.32 172.22 82.9 172.23C83.52 172.27 84.11 172.17 84.69 171.94C85.27 171.71 85.77 171.37 86.19 170.92C87.68 169.24 87.88 166.41 88.09 163.41C88.13 162.83 88.18 162.25 88.23 161.68C88.28 160.98 88.32 160.27 88.36 159.54C88.42 157.29 88.7 155.05 89.21 152.86C90.09 149.57 92.43 145.81 96.41 145.13C97.36 144.98 98.32 144.96 99.29 145.1C100.25 145.24 101.16 145.52 102.04 145.93C102.91 146.36 103.71 146.89 104.42 147.56C105.13 148.22 105.72 148.98 106.2 149.82C107.54 152.39 108.3 155.12 108.45 158.02C108.81 161.02 109.15 163.12 110.54 164.7C111.06 165.27 111.7 165.66 112.43 165.89C113.18 166.12 113.92 166.14 114.67 165.96C117.58 165.18 118.06 163.25 118.6 158.34C118.75 156.45 119.07 154.59 119.57 152.75C119.74 152.13 119.99 151.54 120.32 150.99C120.65 150.44 121.05 149.94 121.51 149.49C121.98 149.05 122.5 148.68 123.07 148.38C123.63 148.07 124.23 147.85 124.86 147.71C125.48 147.6 126.1 147.57 126.73 147.63C127.35 147.69 127.96 147.84 128.54 148.06C129.13 148.29 129.67 148.59 130.18 148.96C130.68 149.34 131.12 149.78 131.5 150.28C133.41 152.98 134.54 155.96 134.87 159.26C135.22 161.35 135.59 162.66 136.49 163.19C137.38 163.69 138.31 163.81 139.29 163.55C142.27 162.76 144.37 159.04 145.7 152.18C150.04 129.72 150.96 107.84 148.31 90.55C145.81 74.33 141.12 62 133.95 52.86C131.69 49.92 129.11 47.29 126.23 44.95C123.34 42.62 120.22 40.66 116.87 39.06C115.03 38.2 113.13 37.47 111.19 36.86C109.25 36.25 107.28 35.77 105.27 35.42C103.27 35.07 101.25 34.86 99.21 34.77C97.18 34.69 95.15 34.74 93.13 34.93C91.1 35.11 89.09 35.43 87.11 35.88C85.13 36.33 83.18 36.91 81.27 37.61C79.36 38.32 77.51 39.15 75.71 40.1C73.91 41.05 72.18 42.12 70.52 43.3C67.08 45.98 64.05 49.06 61.44 52.55C58.82 56.05 56.71 59.82 55.11 63.88C50.25 75.35 47.67 88.6 47.23 104.4C46.74 119.85 47.88 135.18 50.64 150.38C51.48 154.62 52.53 158.98 55.37 161.79C55.87 162.33 56.46 162.75 57.13 163.04C57.8 163.34 58.51 163.48 59.25 163.48C61.65 163.25 62.19 160.03 62.31 154.54C62.31 154.21 62.33 153.89 62.34 153.59C62.35 153.28 62.35 152.96 62.36 152.64C62.43 149.32 62.51 145.2 65.16 141.95C65.81 141.15 66.6 140.53 67.52 140.09C68.45 139.64 69.43 139.42 70.46 139.41Z" />
		</g>
	</g>
	<path id="Layer" class="shp6" d="M107.9 86.05C107.9 86.85 107.86 87.64 107.78 88.43C107.7 89.23 107.59 90.02 107.43 90.8C107.27 91.57 107.08 92.35 106.85 93.11C106.62 93.87 106.35 94.62 106.05 95.36C105.74 96.09 105.4 96.81 105.03 97.52C104.65 98.22 104.24 98.9 103.8 99.56C103.36 100.22 102.88 100.86 102.38 101.48C101.87 102.09 101.34 102.68 100.77 103.25C100.21 103.81 99.62 104.34 99.01 104.85C98.39 105.36 97.75 105.83 97.09 106.27C96.43 106.71 95.75 107.12 95.04 107.5C94.34 107.88 93.62 108.21 92.89 108.52C92.15 108.82 91.4 109.09 90.64 109.32C89.88 109.55 89.11 109.75 88.32 109.9C87.54 110.06 86.76 110.18 85.96 110.25C85.17 110.33 84.38 110.37 83.58 110.37C82.79 110.37 81.99 110.33 81.2 110.25C80.4 110.18 79.62 110.06 78.84 109.9C78.05 109.75 77.29 109.55 76.52 109.32C75.76 109.09 75.01 108.82 74.27 108.52C73.54 108.21 72.82 107.88 72.12 107.5C71.41 107.12 70.73 106.71 70.07 106.27C69.41 105.83 68.77 105.36 68.15 104.85C67.54 104.34 66.95 103.81 66.39 103.25C65.82 102.68 65.29 102.09 64.78 101.48C64.28 100.86 63.8 100.22 63.36 99.56C62.92 98.9 62.51 98.22 62.13 97.52C61.76 96.81 61.42 96.09 61.11 95.36C60.81 94.62 60.54 93.87 60.31 93.11C60.08 92.35 59.89 91.57 59.73 90.8C59.57 90.02 59.46 89.23 59.38 88.43C59.3 87.64 59.26 86.85 59.26 86.05C59.26 85.25 59.3 84.46 59.38 83.67C59.46 82.88 59.57 82.09 59.73 81.3C59.89 80.52 60.08 79.75 60.31 78.99C60.54 78.23 60.81 77.48 61.11 76.75C61.42 76.01 61.76 75.29 62.13 74.59C62.51 73.88 62.92 73.2 63.36 72.54C63.8 71.88 64.28 71.24 64.78 70.62C65.29 70.01 65.82 69.42 66.39 68.86C66.95 68.29 67.54 67.76 68.15 67.25C68.77 66.75 69.41 66.27 70.07 65.83C70.73 65.39 71.41 64.98 72.12 64.6C72.82 64.23 73.54 63.89 74.27 63.58C75.01 63.28 75.76 63.01 76.52 62.78C77.29 62.55 78.05 62.36 78.84 62.2C79.62 62.04 80.4 61.93 81.2 61.85C81.99 61.77 82.79 61.73 83.58 61.73C84.38 61.73 85.17 61.77 85.96 61.85C86.76 61.93 87.54 62.04 88.32 62.2C89.11 62.36 89.88 62.55 90.64 62.78C91.4 63.01 92.15 63.28 92.89 63.58C93.62 63.89 94.34 64.23 95.04 64.6C95.75 64.98 96.43 65.39 97.09 65.83C97.75 66.27 98.39 66.75 99.01 67.25C99.62 67.76 100.21 68.29 100.77 68.86C101.34 69.42 101.87 70.01 102.38 70.62C102.88 71.24 103.36 71.88 103.8 72.54C104.24 73.2 104.65 73.88 105.03 74.59C105.4 75.29 105.74 76.01 106.05 76.75C106.35 77.48 106.62 78.23 106.85 78.99C107.08 79.75 107.27 80.52 107.43 81.3C107.59 82.09 107.7 82.88 107.78 83.67C107.86 84.46 107.9 85.25 107.9 86.05Z" />
	<path id="Layer" class="shp7" d="M102.05 85.09C102.05 85.76 102.02 86.42 101.95 87.08C101.89 87.74 101.79 88.4 101.66 89.05C101.53 89.7 101.37 90.35 101.18 90.98C100.98 91.62 100.76 92.25 100.51 92.86C100.25 93.47 99.97 94.07 99.66 94.66C99.34 95.25 99 95.82 98.63 96.37C98.26 96.92 97.87 97.45 97.45 97.97C97.02 98.48 96.58 98.97 96.11 99.45C95.64 99.91 95.14 100.36 94.63 100.78C94.12 101.2 93.59 101.6 93.03 101.97C92.48 102.34 91.91 102.68 91.32 102.99C90.74 103.3 90.14 103.59 89.52 103.84C88.91 104.1 88.28 104.32 87.65 104.52C87.01 104.71 86.37 104.87 85.71 105C85.06 105.13 84.41 105.23 83.75 105.29C83.08 105.36 82.42 105.39 81.75 105.39C81.09 105.39 80.43 105.36 79.77 105.29C79.11 105.23 78.45 105.13 77.8 105C77.14 104.87 76.5 104.71 75.86 104.52C75.23 104.32 74.6 104.1 73.99 103.84C73.38 103.59 72.77 103.3 72.19 102.99C71.6 102.68 71.03 102.34 70.48 101.97C69.93 101.6 69.39 101.2 68.88 100.78C68.36 100.36 67.88 99.91 67.4 99.45C66.93 98.97 66.49 98.48 66.07 97.97C65.64 97.45 65.25 96.92 64.88 96.37C64.51 95.82 64.17 95.25 63.86 94.66C63.54 94.07 63.26 93.47 63 92.86C62.75 92.25 62.52 91.62 62.33 90.98C62.14 90.35 61.98 89.7 61.85 89.05C61.72 88.4 61.62 87.74 61.55 87.08C61.49 86.42 61.46 85.76 61.46 85.09C61.46 84.43 61.49 83.76 61.55 83.1C61.62 82.44 61.72 81.78 61.85 81.13C61.98 80.48 62.14 79.84 62.33 79.2C62.52 78.56 62.75 77.94 63 77.32C63.26 76.71 63.54 76.11 63.86 75.52C64.17 74.94 64.51 74.37 64.88 73.81C65.25 73.26 65.64 72.73 66.07 72.21C66.49 71.7 66.93 71.21 67.4 70.74C67.88 70.27 68.36 69.82 68.88 69.4C69.39 68.98 69.93 68.58 70.48 68.21C71.03 67.84 71.6 67.5 72.19 67.19C72.77 66.88 73.38 66.59 73.99 66.34C74.6 66.08 75.23 65.86 75.86 65.67C76.5 65.47 77.14 65.31 77.8 65.18C78.45 65.05 79.11 64.96 79.77 64.89C80.43 64.82 81.09 64.79 81.75 64.79C82.42 64.79 83.08 64.82 83.75 64.89C84.41 64.96 85.06 65.05 85.71 65.18C86.37 65.31 87.01 65.47 87.65 65.67C88.28 65.86 88.91 66.08 89.52 66.34C90.14 66.59 90.74 66.88 91.32 67.19C91.91 67.5 92.48 67.84 93.03 68.21C93.59 68.58 94.12 68.98 94.63 69.4C95.14 69.82 95.64 70.27 96.11 70.74C96.58 71.21 97.02 71.7 97.45 72.21C97.87 72.73 98.26 73.26 98.63 73.81C99 74.37 99.34 74.94 99.66 75.52C99.97 76.11 100.25 76.71 100.51 77.32C100.76 77.94 100.98 78.56 101.18 79.2C101.37 79.84 101.53 80.48 101.66 81.13C101.79 81.78 101.89 82.44 101.95 83.1C102.02 83.76 102.05 84.43 102.05 85.09Z" />
	<path id="Layer" fill-rule="evenodd" class="shp2" d="M81.76 109.13C80.97 109.13 80.18 109.09 79.4 109.02C78.62 108.94 77.84 108.82 77.07 108.67C76.3 108.52 75.54 108.32 74.78 108.1C74.03 107.87 73.29 107.6 72.56 107.3C71.83 107 71.12 106.66 70.43 106.29C69.73 105.92 69.06 105.52 68.41 105.08C67.75 104.64 67.12 104.18 66.51 103.68C65.9 103.18 65.32 102.65 64.77 102.09C64.21 101.54 63.68 100.95 63.18 100.34C62.68 99.73 62.21 99.11 61.78 98.45C61.34 97.8 60.93 97.12 60.56 96.43C60.19 95.73 59.86 95.02 59.55 94.3C59.25 93.57 58.99 92.83 58.76 92.07C58.53 91.32 58.34 90.56 58.19 89.79C58.04 89.02 57.92 88.24 57.84 87.45C57.77 86.67 57.73 85.89 57.73 85.1C57.73 84.31 57.77 83.53 57.84 82.74C57.92 81.96 58.04 81.18 58.19 80.41C58.34 79.64 58.53 78.88 58.76 78.12C58.99 77.37 59.25 76.63 59.55 75.9C59.86 75.18 60.19 74.46 60.56 73.77C60.93 73.07 61.34 72.4 61.78 71.75C62.21 71.09 62.68 70.46 63.18 69.85C63.68 69.25 64.21 68.66 64.77 68.11C65.32 67.55 65.9 67.02 66.51 66.52C67.12 66.02 67.75 65.55 68.41 65.12C69.06 64.68 69.73 64.28 70.43 63.91C71.13 63.54 71.83 63.2 72.56 62.89C73.29 62.59 74.03 62.33 74.78 62.1C75.54 61.88 76.3 61.68 77.07 61.53C77.84 61.38 78.62 61.26 79.4 61.18C80.18 61.11 80.97 61.07 81.76 61.07C82.54 61.07 83.33 61.11 84.11 61.18C84.89 61.26 85.67 61.38 86.45 61.53C87.21 61.68 87.98 61.88 88.73 62.1C89.48 62.33 90.23 62.59 90.95 62.89C91.68 63.2 92.39 63.54 93.09 63.91C93.78 64.28 94.45 64.68 95.11 65.12C95.76 65.55 96.39 66.02 97 66.52C97.61 67.02 98.19 67.55 98.75 68.11C99.3 68.66 99.83 69.25 100.33 69.85C100.83 70.46 101.3 71.09 101.74 71.75C102.18 72.4 102.58 73.07 102.95 73.77C103.32 74.46 103.66 75.18 103.96 75.9C104.26 76.63 104.52 77.37 104.75 78.12C104.98 78.88 105.17 79.64 105.32 80.41C105.48 81.18 105.59 81.96 105.67 82.74C105.75 83.52 105.79 84.31 105.79 85.1C105.79 85.88 105.75 86.67 105.67 87.45C105.59 88.23 105.48 89.01 105.32 89.79C105.17 90.55 104.98 91.32 104.75 92.07C104.52 92.82 104.25 93.56 103.95 94.29C103.65 95.02 103.31 95.73 102.94 96.42C102.57 97.12 102.17 97.79 101.73 98.45C101.29 99.1 100.82 99.73 100.32 100.34C99.82 100.95 99.3 101.53 98.74 102.09C98.18 102.64 97.6 103.17 97 103.67C96.39 104.17 95.75 104.64 95.1 105.07C94.45 105.51 93.77 105.91 93.08 106.29C92.39 106.66 91.68 106.99 90.95 107.3C90.22 107.6 89.48 107.86 88.73 108.09C87.98 108.32 87.21 108.51 86.44 108.66C85.67 108.82 84.89 108.93 84.11 109.01C83.33 109.09 82.54 109.13 81.76 109.13ZM81.76 68.53C81.21 68.53 80.67 68.56 80.13 68.61C79.59 68.66 79.06 68.75 78.52 68.85C77.99 68.96 77.47 69.09 76.95 69.25C76.43 69.4 75.92 69.59 75.42 69.79C74.92 70 74.43 70.23 73.95 70.49C73.47 70.75 73 71.02 72.55 71.32C72.1 71.63 71.67 71.95 71.25 72.29C70.83 72.64 70.43 73 70.04 73.38C69.66 73.77 69.3 74.17 68.95 74.59C68.61 75.01 68.29 75.45 67.98 75.89C67.68 76.35 67.41 76.81 67.15 77.29C66.89 77.77 66.66 78.26 66.45 78.76C66.25 79.26 66.06 79.77 65.91 80.29C65.75 80.81 65.62 81.34 65.51 81.87C65.41 82.4 65.32 82.93 65.27 83.47C65.22 84.02 65.19 84.55 65.19 85.1C65.19 85.64 65.22 86.18 65.27 86.72C65.32 87.26 65.41 87.8 65.51 88.33C65.62 88.86 65.75 89.39 65.91 89.91C66.06 90.43 66.25 90.93 66.45 91.44C66.66 91.94 66.89 92.43 67.15 92.91C67.41 93.39 67.68 93.85 67.98 94.3C68.29 94.75 68.61 95.19 68.95 95.61C69.3 96.03 69.66 96.43 70.04 96.81C70.43 97.2 70.83 97.56 71.25 97.9C71.67 98.25 72.1 98.57 72.55 98.87C73 99.17 73.47 99.45 73.95 99.71C74.43 99.96 74.92 100.2 75.42 100.4C75.92 100.61 76.43 100.79 76.95 100.95C77.47 101.11 77.99 101.24 78.52 101.34C79.06 101.45 79.59 101.53 80.13 101.58C80.67 101.64 81.21 101.66 81.76 101.66C82.3 101.66 82.84 101.64 83.38 101.58C83.92 101.53 84.46 101.45 84.99 101.34C85.52 101.24 86.05 101.11 86.57 100.95C87.09 100.79 87.59 100.61 88.09 100.4C88.6 100.2 89.09 99.96 89.57 99.71C90.04 99.45 90.51 99.17 90.96 98.87C91.41 98.57 91.84 98.25 92.27 97.9C92.68 97.56 93.09 97.2 93.47 96.81C93.85 96.43 94.21 96.03 94.56 95.61C94.91 95.19 95.23 94.75 95.53 94.3C95.83 93.85 96.11 93.39 96.36 92.91C96.62 92.43 96.85 91.94 97.06 91.44C97.27 90.94 97.45 90.43 97.61 89.91C97.77 89.39 97.89 88.86 98 88.33C98.11 87.8 98.19 87.26 98.24 86.72C98.29 86.18 98.32 85.64 98.32 85.1C98.32 84.56 98.29 84.02 98.24 83.48C98.19 82.94 98.11 82.4 98 81.87C97.89 81.34 97.76 80.81 97.61 80.29C97.45 79.77 97.27 79.26 97.06 78.76C96.85 78.26 96.62 77.77 96.36 77.29C96.11 76.81 95.83 76.35 95.53 75.9C95.23 75.45 94.9 75.01 94.56 74.59C94.21 74.17 93.85 73.77 93.46 73.39C93.08 73 92.68 72.64 92.26 72.29C91.84 71.95 91.41 71.63 90.96 71.32C90.51 71.02 90.04 70.75 89.56 70.49C89.09 70.23 88.59 70 88.09 69.79C87.59 69.59 87.08 69.4 86.56 69.25C86.05 69.09 85.52 68.95 84.99 68.85C84.46 68.74 83.92 68.66 83.38 68.61C82.84 68.55 82.3 68.53 81.76 68.53L81.76 68.53Z" />
	<path id="Layer" class="shp8" d="M81.89 68.45C78.72 68.44 75.79 69.29 73.12 70.99C74.06 70.54 75.03 70.18 76.04 69.91C77.05 69.65 78.08 69.48 79.12 69.41C80.16 69.34 81.2 69.37 82.23 69.49C83.27 69.62 84.29 69.84 85.28 70.16C86.27 70.48 87.23 70.89 88.15 71.39C89.06 71.89 89.93 72.47 90.73 73.13C91.54 73.8 92.27 74.53 92.94 75.34C93.61 76.14 94.19 77 94.7 77.91C95.2 78.83 95.61 79.78 95.93 80.77C96.25 81.77 96.48 82.78 96.61 83.82C96.74 84.85 96.77 85.89 96.71 86.93C96.64 87.98 96.47 89 96.21 90.01C95.95 91.02 95.59 92 95.15 92.95C94.7 93.89 94.17 94.78 93.55 95.62C92.93 96.46 92.24 97.24 91.48 97.95C90.71 98.66 89.89 99.3 89 99.85C89.84 99.45 90.64 98.98 91.4 98.45C92.16 97.91 92.87 97.32 93.53 96.66C94.19 96.01 94.79 95.3 95.33 94.54C95.87 93.79 96.34 92.99 96.75 92.15C97.16 91.32 97.49 90.45 97.75 89.56C98.01 88.67 98.19 87.76 98.3 86.84C98.4 85.91 98.43 84.99 98.38 84.06C98.33 83.13 98.2 82.21 98 81.3C97.79 80.4 97.51 79.52 97.16 78.66C96.8 77.8 96.38 76.97 95.88 76.19C95.39 75.4 94.84 74.66 94.21 73.96C93.6 73.27 92.93 72.63 92.2 72.05C91.47 71.47 90.7 70.96 89.89 70.51C89.07 70.06 88.23 69.68 87.35 69.37C86.48 69.07 85.58 68.83 84.66 68.68C83.75 68.52 82.82 68.45 81.89 68.45L81.89 68.45Z" />
	<path id="Layer" class="shp9" d="M84.28 99.57C83.69 99.57 83.11 99.54 82.52 99.48C81.93 99.42 81.36 99.34 80.78 99.22C80.2 99.11 79.63 98.96 79.07 98.8C78.51 98.63 77.96 98.43 77.42 98.2C76.88 97.98 76.34 97.73 75.82 97.45C75.31 97.17 74.8 96.87 74.32 96.55C73.83 96.22 73.36 95.87 72.9 95.5C72.45 95.13 72.02 94.73 71.6 94.32C71.18 93.9 70.79 93.46 70.42 93.01C70.05 92.56 69.7 92.09 69.37 91.6C69.04 91.11 68.74 90.61 68.46 90.09C68.19 89.57 67.94 89.04 67.71 88.5C67.49 87.96 67.29 87.41 67.12 86.84C66.95 86.28 66.81 85.71 66.7 85.14C66.58 84.56 66.49 83.98 66.44 83.4C66.38 82.81 66.35 82.23 66.35 81.64C66.35 80.51 66.46 79.39 66.67 78.27C66.28 79.13 65.96 80.01 65.72 80.92C65.48 81.83 65.32 82.76 65.24 83.7C65.16 84.63 65.16 85.57 65.23 86.51C65.31 87.45 65.47 88.38 65.71 89.29C65.94 90.2 66.25 91.08 66.64 91.94C67.03 92.8 67.49 93.62 68.02 94.4C68.54 95.18 69.13 95.91 69.79 96.59C70.44 97.27 71.14 97.88 71.9 98.44C72.66 99 73.46 99.49 74.3 99.91C75.14 100.34 76.02 100.68 76.91 100.95C77.82 101.23 78.73 101.42 79.67 101.54C80.6 101.66 81.54 101.69 82.48 101.65C83.42 101.6 84.35 101.48 85.27 101.27C86.19 101.07 87.09 100.79 87.96 100.44C88.83 100.08 89.66 99.65 90.46 99.15C91.26 98.66 92.01 98.09 92.71 97.46C90.08 98.87 87.27 99.57 84.28 99.57Z" />
	<path id="Layer" class="shp2" d="M81.27 95.75C81 95.75 80.73 95.73 80.46 95.67C80.2 95.62 79.94 95.54 79.69 95.44C79.44 95.34 79.2 95.21 78.98 95.06C78.75 94.91 78.55 94.74 78.36 94.55C78.16 94.36 77.99 94.14 77.84 93.92C77.69 93.7 77.57 93.46 77.46 93.21C77.36 92.96 77.28 92.7 77.23 92.44C77.18 92.17 77.15 91.9 77.15 91.63L77.15 79.45C77.15 79.18 77.18 78.92 77.23 78.65C77.28 78.39 77.36 78.13 77.46 77.88C77.57 77.63 77.69 77.39 77.84 77.17C77.99 76.94 78.16 76.73 78.36 76.54C78.55 76.35 78.75 76.18 78.98 76.03C79.2 75.88 79.44 75.75 79.69 75.65C79.94 75.55 80.2 75.47 80.46 75.41C80.73 75.36 81 75.34 81.27 75.34C81.54 75.34 81.8 75.36 82.07 75.41C82.34 75.47 82.59 75.55 82.84 75.65C83.09 75.75 83.33 75.88 83.55 76.03C83.78 76.18 83.99 76.35 84.18 76.54C84.37 76.73 84.54 76.94 84.69 77.17C84.84 77.39 84.97 77.63 85.07 77.88C85.18 78.13 85.25 78.39 85.31 78.65C85.36 78.92 85.39 79.18 85.39 79.45L85.39 91.63C85.39 91.9 85.36 92.17 85.31 92.44C85.26 92.7 85.18 92.96 85.07 93.21C84.97 93.46 84.84 93.7 84.7 93.92C84.54 94.15 84.38 94.36 84.18 94.55C83.99 94.74 83.78 94.91 83.56 95.06C83.33 95.21 83.09 95.34 82.84 95.44C82.59 95.54 82.34 95.62 82.07 95.68C81.8 95.73 81.54 95.75 81.27 95.75Z" />
	<path id="Layer" class="shp6" d="M61.63 120.75C61.64 119.33 62.06 118.04 62.88 116.87C62.92 116.8 62.96 116.71 63 116.64C63 116.66 63.02 116.67 63.02 116.68C63.62 115.87 64.34 115.18 65.17 114.6C65.28 113.55 65.02 112.61 64.41 111.75C64.23 111.29 63.39 110.66 62.99 110.97C60.13 113.13 60.31 118.3 60.47 122.24C60.55 124.1 60.89 126.57 59.74 127.93C59.24 128.52 59 128.69 58.57 128.11C57.57 126.75 57.72 122.17 57.66 120.38C57.59 118.71 57.57 117.04 57.59 115.37C57.59 114.75 57.61 114.12 57.62 113.49C57.62 113.28 57.63 113.06 57.64 112.85C57.64 112.81 57.65 112.73 57.66 112.63C57.73 111.66 57.76 109.19 56.89 108.8C56.02 108.41 55.61 110 55.54 110.97C55.31 114.36 55.28 117.75 55.45 121.14C55.59 124.93 55.68 129.49 57.11 132.84C58.57 136.27 60.8 134.21 61.83 131.32C62.53 129.01 62.8 126.65 62.63 124.24C61.98 123.17 61.64 122.01 61.63 120.75Z" />
	<path id="Layer" class="shp10" d="M71.06 120.24C69.3 121.23 68.57 121.92 67.78 119.75C67.34 118.23 66.79 116.76 66.12 115.34C65.84 114.84 65.34 114.26 64.69 114.61C60.18 116.96 60.48 122.59 60.72 126.87C60.84 128.89 61.38 131.58 59.56 133.06C58.78 133.7 58.39 133.88 57.71 133.26C56.13 131.77 56.37 126.8 56.27 124.84C56.17 123.02 56.13 121.21 56.16 119.39C56.16 118.71 56.19 118.03 56.21 117.35C56.21 117.12 56.23 116.88 56.25 116.65C56.25 116.61 56.26 116.52 56.27 116.4C56.39 115.36 56.43 112.67 55.05 112.25C53.66 111.81 53.04 113.55 52.92 114.61C52.56 118.3 52.51 121.99 52.77 125.68C53 129.8 53.15 134.77 55.39 138.41C57.7 142.15 61.23 139.91 62.86 136.76C64.03 134.07 64.44 131.27 64.1 128.35C63.96 125.97 63 122.69 64.71 120.78C65.13 122.53 65.81 124.18 66.76 125.71C68.49 127.83 70.66 126.52 72.02 124.68C72.58 123.93 72.89 119.21 71.06 120.24Z" />
	<path id="Layer" fill-rule="evenodd" class="shp2" d="M58.32 140.67C57.63 140.64 57.01 140.43 56.44 140.05C55.87 139.68 55.43 139.18 55.13 138.57C52.97 135.06 52.73 130.46 52.51 126.39L52.47 125.69C52.21 121.98 52.25 118.27 52.62 114.57C52.67 113.57 53.07 112.75 53.83 112.1C54.25 111.83 54.69 111.78 55.15 111.94C56.96 112.51 56.63 116.04 56.59 116.44L56.56 116.69C56.55 116.89 56.54 117.13 56.53 117.36C56.5 118.04 56.48 118.71 56.48 119.39C56.45 121.23 56.49 123.06 56.58 124.82C56.6 125.16 56.61 125.6 56.61 126.09C56.65 128.26 56.71 131.89 57.93 133.03C58.41 133.47 58.6 133.45 59.37 132.82C60.8 131.65 60.63 129.6 60.48 127.79C60.45 127.48 60.43 127.18 60.41 126.89C60.17 122.63 59.84 116.79 64.55 114.33C65.2 113.98 65.89 114.3 66.39 115.19C66.91 116.18 67.32 117.21 67.62 118.28C67.77 118.73 67.91 119.19 68.06 119.64C68.32 120.35 68.58 120.74 68.84 120.84C69.17 120.96 69.7 120.66 70.43 120.23C70.58 120.15 70.74 120.06 70.9 119.97C71.11 119.81 71.34 119.75 71.59 119.78C71.85 119.81 72.06 119.92 72.23 120.12C73.07 121.07 72.77 124.19 72.26 124.87C71.89 125.48 71.4 125.98 70.8 126.38C70.2 126.77 69.54 127.02 68.83 127.11C68.37 127.11 67.93 127 67.52 126.79C67.12 126.58 66.78 126.29 66.51 125.91C65.75 124.84 65.21 123.67 64.92 122.4C64.82 122.07 64.72 121.75 64.61 121.42C63.76 122.81 64.01 124.82 64.23 126.61C64.3 127.21 64.38 127.79 64.41 128.33C64.74 131.3 64.32 134.15 63.13 136.89C62.72 137.88 62.1 138.71 61.27 139.38C60.43 140.05 59.48 140.48 58.43 140.66L58.32 140.67ZM54.64 112.48C54.46 112.49 54.31 112.54 54.17 112.63C53.59 113.18 53.28 113.86 53.23 114.65C52.88 118.32 52.83 121.99 53.09 125.67L53.13 126.37C53.34 130.36 53.59 134.88 55.66 138.25C55.91 138.78 56.29 139.21 56.78 139.54C57.28 139.86 57.82 140.03 58.41 140.05C59.35 139.86 60.19 139.46 60.93 138.86C61.66 138.25 62.22 137.5 62.58 136.62C63.73 133.98 64.13 131.23 63.79 128.38C63.76 127.85 63.69 127.29 63.62 126.69C63.36 124.57 63.06 122.16 64.48 120.57L64.82 120.19L65 120.67C65.2 121.18 65.36 121.71 65.52 122.22C65.79 123.42 66.29 124.52 67 125.52C67.21 125.82 67.47 126.06 67.79 126.23C68.11 126.41 68.46 126.49 68.82 126.5C69.44 126.4 70 126.18 70.52 125.83C71.03 125.48 71.45 125.04 71.77 124.5C72.27 123.18 72.27 121.85 71.77 120.53C71.7 120.45 71.58 120.31 71.21 120.52C71.05 120.61 70.9 120.7 70.75 120.78C69.88 121.29 69.24 121.66 68.64 121.43C68.17 121.27 67.83 120.79 67.49 119.86C67.32 119.4 67.17 118.94 67.03 118.48C66.74 117.45 66.35 116.46 65.86 115.51C65.63 115.11 65.26 114.67 64.84 114.89C60.49 117.17 60.8 122.77 61.04 126.87C61.05 127.15 61.08 127.45 61.1 127.76C61.25 129.63 61.45 131.95 59.77 133.32C59 133.95 58.39 134.33 57.51 133.5C56.1 132.19 56.04 128.54 55.99 126.12C55.98 125.64 55.98 125.21 55.96 124.88C55.87 123.1 55.83 121.26 55.86 119.41C55.86 118.73 55.88 118.04 55.91 117.36C55.91 117.13 55.93 116.89 55.94 116.66L55.97 116.39C56.12 115.02 55.98 112.87 54.97 112.56C54.86 112.52 54.75 112.49 54.64 112.48Z" />
	<path id="Layer" class="shp11" d="M93.64 35.09C89.54 35.44 85.56 36.32 81.7 37.74C77.84 39.16 74.23 41.06 70.89 43.45C67.41 46.12 64.35 49.2 61.71 52.7C59.06 56.19 56.93 59.97 55.3 64.04C52.42 70.84 50.38 77.88 49.17 85.15C56.24 59.82 73.53 40.78 93.64 35.09Z" />
	<path id="Layer" class="shp6" d="M148.79 90.68C146.26 74.46 141.51 62.14 134.26 53C132.21 50.34 129.9 47.93 127.32 45.77C124.75 43.61 121.98 41.75 119 40.2C116.03 38.64 112.92 37.42 109.68 36.54C106.45 35.65 103.15 35.13 99.79 34.96C121.86 38.75 139.07 69.7 139.07 107.33C139.14 114.57 138.5 121.74 137.13 128.85C135.76 135.95 133.7 142.86 130.94 149.55C131.24 149.81 131.52 150.1 131.78 150.41C133.71 153.1 134.85 156.09 135.19 159.39C135.54 161.48 135.92 162.79 136.82 163.32C137.72 163.82 138.66 163.94 139.66 163.68C142.68 162.89 144.8 159.17 146.14 152.31C150.54 129.85 151.47 107.96 148.79 90.68Z" />
	<path id="Layer" class="shp1" d="M134.52 80.05C128.7 80.05 124.68 79.07 122.56 77.14C121.89 76.67 121.35 76.07 120.96 75.35C120.43 74.34 120.24 73.27 120.39 72.14C120.4 65.91 128.11 56.11 134.82 49.53C141.48 43 150.73 36 156.7 36C157.54 35.96 158.34 36.11 159.11 36.43C159.88 36.76 160.54 37.24 161.09 37.87C162.75 39.83 162.79 42.71 161.22 46.5C161.53 46.48 161.82 46.47 162.11 46.47C166.23 46.47 168 48.17 168.77 49.59C170.01 51.89 169.43 54.64 167.07 57.78C171.23 58.54 173.7 60.18 174.44 62.7C174.64 63.45 174.69 64.2 174.57 64.97C174.46 65.73 174.19 66.44 173.77 67.09C170.71 72.21 159.63 76.2 150.27 78.21C145.08 79.37 139.83 79.98 134.52 80.05Z" />
	<g id="Clip-Path" clip-path="url(#cp3)">
		<g id="Layer">
			<path id="Layer" fill-rule="evenodd" class="shp2" d="M156.71 32.9C158 32.87 159.23 33.11 160.42 33.63C161.6 34.15 162.61 34.9 163.46 35.88C164.36 36.97 164.96 38.2 165.29 39.58C165.61 40.96 165.62 42.34 165.31 43.71C165.64 43.77 165.96 43.84 166.29 43.93C166.6 44.02 166.92 44.13 167.22 44.26C167.53 44.39 167.83 44.54 168.12 44.7C168.41 44.86 168.69 45.04 168.96 45.23C169.23 45.43 169.49 45.64 169.73 45.86C169.98 46.09 170.21 46.32 170.43 46.57C170.65 46.82 170.85 47.09 171.04 47.36C171.23 47.64 171.4 47.92 171.55 48.21C171.71 48.51 171.84 48.81 171.96 49.12C172.09 49.43 172.19 49.75 172.27 50.07C172.36 50.39 172.42 50.72 172.46 51.05C172.51 51.38 172.54 51.71 172.55 52.04C172.55 52.38 172.54 52.71 172.51 53.04C172.48 53.37 172.43 53.7 172.36 54.02C172.29 54.35 172.21 54.67 172.1 54.98C172 55.3 171.88 55.61 171.73 55.91C173.09 56.4 174.27 57.17 175.27 58.21C176.28 59.26 176.99 60.47 177.43 61.85C177.75 63.01 177.82 64.19 177.65 65.38C177.48 66.57 177.07 67.68 176.44 68.71C171.95 76.24 155.77 80.24 150.91 81.28C145.52 82.48 140.05 83.12 134.52 83.19C127.92 83.19 123.35 82.01 120.6 79.58C119.6 78.84 118.81 77.93 118.22 76.85C117.41 75.32 117.1 73.7 117.28 71.98C117.46 62.95 129.03 50.88 132.64 47.33C136.09 43.95 148.01 32.91 156.7 32.91L156.71 32.9ZM156.7 39.14C152.75 39.14 144.83 44.09 137 51.78C128.77 59.86 123.33 68.32 123.5 72.35C123.38 72.89 123.45 73.41 123.7 73.91C123.89 74.26 124.17 74.54 124.52 74.73C125.93 76.2 129.59 76.96 134.52 76.96C139.61 76.89 144.63 76.3 149.6 75.19C162.71 72.36 172.48 67.17 171.44 63.59C170.84 61.52 166.76 60.43 160.9 60.43C160.65 60.43 160.4 60.43 160.15 60.43C164.68 56.57 167.08 53.04 166.02 51.08C165.48 50.07 164.1 49.59 162.11 49.59C159.79 49.67 157.53 50.05 155.32 50.74C158.7 45.7 160.13 41.56 158.71 39.88C158.16 39.31 157.49 39.06 156.7 39.12L156.7 39.14Z" />
		</g>
	</g>
	<path id="Layer" class="shp3" d="M140.8 50.7C147.88 45.75 154.74 42.48 159.24 41.64C159.25 41.03 159.07 40.48 158.7 40C156.28 37.15 146.56 42.47 137 51.86C134.32 54.48 131.84 57.27 129.55 60.23C132.99 56.68 136.74 53.5 140.8 50.7Z" />
	<path id="Layer" class="shp4" d="M171.44 63.57C170.81 61.41 166.41 60.33 160.16 60.43C164.7 56.56 167.08 53.04 166.03 51.07C165.88 50.79 165.67 50.56 165.42 50.38L123.48 72.98C123.49 73.29 123.57 73.59 123.71 73.87C123.91 74.22 124.18 74.5 124.53 74.7C127.16 77.45 137.7 77.72 149.61 75.16C162.71 72.35 172.48 67.15 171.44 63.57Z" />
	<path id="Layer" class="shp6" d="M119.89 93.43C119.89 93.84 119.82 94.23 119.68 94.6C119.53 94.98 119.32 95.31 119.04 95.6C118.76 95.89 118.44 96.12 118.07 96.28C117.7 96.45 117.31 96.53 116.91 96.54C116.5 96.55 116.11 96.48 115.74 96.33C115.36 96.18 115.03 95.97 114.74 95.69C114.45 95.41 114.22 95.09 114.06 94.72C113.89 94.35 113.81 93.96 113.8 93.56C113.79 93.15 113.86 92.77 114.01 92.39C114.16 92.01 114.37 91.68 114.65 91.39C114.93 91.1 115.25 90.87 115.62 90.71C115.99 90.55 116.38 90.46 116.78 90.45C117.18 90.45 117.57 90.51 117.95 90.66C118.33 90.81 118.66 91.02 118.95 91.3C119.24 91.58 119.47 91.9 119.63 92.27C119.79 92.64 119.88 93.03 119.89 93.43Z" />
	<path id="Layer" class="shp6" d="M94.47 140.15C94.48 140.56 94.41 140.95 94.26 141.32C94.12 141.7 93.9 142.03 93.63 142.32C93.34 142.61 93.02 142.84 92.65 143C92.28 143.16 91.89 143.25 91.49 143.26C91.09 143.27 90.7 143.2 90.32 143.05C89.95 142.91 89.61 142.69 89.32 142.41C89.03 142.13 88.8 141.81 88.64 141.44C88.48 141.07 88.39 140.68 88.39 140.28C88.38 139.88 88.45 139.49 88.59 139.11C88.74 138.73 88.95 138.4 89.23 138.11C89.51 137.82 89.84 137.59 90.21 137.43C90.57 137.27 90.96 137.18 91.36 137.18C91.77 137.17 92.16 137.23 92.53 137.38C92.91 137.53 93.24 137.74 93.54 138.02C93.82 138.3 94.05 138.63 94.21 138.99C94.38 139.36 94.46 139.75 94.47 140.15Z" />
	<path id="Layer" class="shp11" d="M85.58 144.27C85.59 144.54 85.54 144.8 85.45 145.04C85.35 145.29 85.21 145.51 85.02 145.7C84.84 145.9 84.63 146.05 84.38 146.15C84.14 146.26 83.88 146.32 83.61 146.32C83.35 146.33 83.09 146.28 82.84 146.18C82.59 146.09 82.38 145.95 82.18 145.76C81.99 145.58 81.84 145.36 81.73 145.12C81.63 144.88 81.57 144.62 81.57 144.36C81.56 144.09 81.61 143.83 81.7 143.58C81.8 143.33 81.94 143.11 82.13 142.92C82.31 142.73 82.52 142.58 82.77 142.47C83.01 142.37 83.27 142.31 83.53 142.3C83.8 142.3 84.05 142.34 84.3 142.44C84.55 142.54 84.77 142.68 84.96 142.86C85.16 143.05 85.31 143.26 85.41 143.51C85.52 143.75 85.58 144.01 85.58 144.27Z" />
	<path id="Layer" class="shp6" d="M131.43 96.95C131.43 97.24 131.4 97.54 131.34 97.84C131.29 98.13 131.2 98.41 131.09 98.69C130.97 98.97 130.83 99.23 130.66 99.48C130.5 99.73 130.31 99.96 130.09 100.18C129.88 100.39 129.65 100.57 129.4 100.74C129.15 100.91 128.89 101.05 128.61 101.16C128.34 101.28 128.05 101.37 127.76 101.43C127.46 101.48 127.16 101.51 126.86 101.51C126.57 101.51 126.27 101.48 125.97 101.43C125.68 101.37 125.39 101.28 125.12 101.16C124.84 101.05 124.58 100.91 124.33 100.74C124.08 100.57 123.85 100.39 123.64 100.18C123.42 99.96 123.23 99.73 123.07 99.48C122.9 99.23 122.76 98.97 122.64 98.69C122.53 98.41 122.45 98.13 122.39 97.84C122.33 97.54 122.3 97.24 122.3 96.95C122.3 96.64 122.33 96.35 122.39 96.05C122.45 95.76 122.53 95.47 122.64 95.2C122.76 94.92 122.9 94.66 123.07 94.41C123.23 94.16 123.42 93.93 123.64 93.71C123.85 93.5 124.08 93.31 124.33 93.14C124.58 92.98 124.84 92.84 125.12 92.72C125.39 92.61 125.68 92.52 125.97 92.46C126.27 92.41 126.57 92.38 126.86 92.38C127.16 92.38 127.46 92.41 127.76 92.46C128.05 92.52 128.34 92.61 128.61 92.72C128.89 92.84 129.15 92.98 129.4 93.14C129.65 93.31 129.88 93.5 130.09 93.71C130.31 93.93 130.5 94.16 130.66 94.41C130.83 94.66 130.97 94.92 131.09 95.2C131.2 95.47 131.29 95.76 131.34 96.05C131.4 96.35 131.43 96.64 131.43 96.95Z" />
	<path id="Layer" class="shp6" d="M127.45 87.19C127.45 87.5 127.4 87.79 127.29 88.07C127.18 88.35 127.02 88.6 126.82 88.82C126.61 89.04 126.36 89.21 126.09 89.33C125.81 89.46 125.52 89.52 125.22 89.53C124.91 89.54 124.62 89.48 124.34 89.37C124.06 89.26 123.81 89.1 123.59 88.89C123.37 88.68 123.2 88.44 123.08 88.16C122.96 87.89 122.89 87.6 122.89 87.3C122.88 86.99 122.93 86.7 123.04 86.42C123.15 86.14 123.31 85.89 123.52 85.67C123.73 85.45 123.97 85.28 124.25 85.16C124.53 85.04 124.82 84.97 125.12 84.96C125.42 84.96 125.71 85.01 126 85.12C126.28 85.23 126.53 85.39 126.75 85.6C126.96 85.8 127.13 86.05 127.25 86.32C127.38 86.6 127.44 86.89 127.45 87.19Z" />
	<path id="Layer" class="shp11" d="M117.96 44.3C117.97 44.61 117.92 44.9 117.81 45.18C117.7 45.46 117.54 45.71 117.33 45.93C117.12 46.15 116.88 46.32 116.6 46.45C116.32 46.57 116.04 46.63 115.73 46.64C115.43 46.64 115.14 46.59 114.86 46.48C114.57 46.38 114.32 46.21 114.11 46C113.89 45.8 113.71 45.55 113.59 45.27C113.47 45 113.41 44.71 113.4 44.41C113.39 44.1 113.45 43.81 113.56 43.53C113.67 43.25 113.83 43 114.04 42.78C114.25 42.56 114.49 42.39 114.77 42.27C115.04 42.14 115.33 42.08 115.64 42.08C115.94 42.07 116.23 42.12 116.51 42.23C116.79 42.34 117.04 42.5 117.26 42.71C117.48 42.92 117.65 43.16 117.77 43.44C117.89 43.71 117.96 44 117.96 44.3Z" />
	<path id="Layer" class="shp6" d="M136.38 125.93C136.34 125.13 136.16 123.15 134.99 123.15C133.82 123.15 133.64 125.18 133.6 125.93C133.52 127.31 133.54 129.65 132.69 130.82C131.39 132.63 129.22 130.63 128.45 129.26C126.34 125.52 126.55 121.05 123.52 117.73C122.32 116.4 121.51 118.6 121.36 119.49C121.16 120.56 121.02 122.96 119.61 123.11C118.38 123.25 118.15 122.11 117.94 121.43C117.45 119.07 117.1 116.7 116.89 114.3C116.41 111.57 114.97 104.34 110.75 107.28C109.15 108.39 109.91 113.89 111.51 112.77C113.7 111.22 113.91 114.52 114.17 116.1C114.62 118.79 114.72 121.54 115.3 124.2C115.77 126.36 117.32 129.68 120.08 129.21C121.91 128.9 122.9 126.99 123.48 124.96C125.59 129.44 125.09 136.39 130.82 137.73C136.32 139 136.5 129.24 136.38 125.93Z" />
	<path id="Layer" class="shp10" d="M136.21 132.03C136.18 131.22 136 129.25 134.82 129.25C133.66 129.25 133.48 131.27 133.44 132.03C133.36 133.41 133.38 135.75 132.53 136.92C131.23 138.73 129.06 136.73 128.29 135.36C126.18 131.62 126.39 127.15 123.36 123.82C122.16 122.5 121.36 124.7 121.2 125.59C121.01 126.66 120.86 129.07 119.45 129.21C118.22 129.34 117.99 128.21 117.79 127.54C117.29 125.18 116.94 122.8 116.73 120.4C116.25 117.67 114.82 110.43 110.59 113.38C108.99 114.49 109.76 119.99 111.35 118.87C113.55 117.32 113.75 120.62 114.01 122.2C114.46 124.89 114.57 127.64 115.14 130.3C115.61 132.46 117.17 135.78 119.93 135.31C121.75 135 122.75 133.09 123.32 131.05C125.43 135.54 124.93 142.49 130.66 143.83C136.16 145.09 136.34 135.34 136.21 132.03Z" />
	<path id="Layer" fill-rule="evenodd" class="shp2" d="M131.61 144.25C131.26 144.25 130.93 144.2 130.59 144.13C126.38 143.14 125.39 139.29 124.44 135.57C124.15 134.34 123.79 133.13 123.36 131.95C122.59 134.13 121.45 135.36 119.98 135.62C116.94 136.13 115.32 132.56 114.84 130.37C114.53 128.79 114.29 127.2 114.14 125.59C114.02 124.49 113.89 123.35 113.7 122.25C113.68 122.09 113.65 121.91 113.63 121.71C113.48 120.68 113.24 119.11 112.58 118.82C112.32 118.71 111.97 118.81 111.52 119.12C111.23 119.36 110.91 119.4 110.56 119.24C109.86 118.91 109.51 117.68 109.42 116.63C109.29 116 109.32 115.38 109.5 114.75C109.67 114.14 109.97 113.59 110.41 113.11C110.82 112.76 111.29 112.54 111.82 112.44C112.35 112.34 112.87 112.38 113.38 112.55C115.84 113.58 116.74 118.66 117.03 120.34C117.19 121.23 117.28 122.18 117.37 123.09C117.46 124.56 117.7 126.01 118.07 127.44L118.12 127.6C118.36 128.41 118.59 128.97 119.41 128.89C120.4 128.79 120.64 127.13 120.81 126.02C120.84 125.84 120.86 125.67 120.89 125.52C120.99 124.95 121.45 123.39 122.35 123.13C122.59 123.07 122.82 123.09 123.04 123.18C123.27 123.27 123.45 123.41 123.59 123.61C125.2 125.6 126.25 127.86 126.76 130.37C127.16 132.05 127.76 133.66 128.55 135.2C129.03 136.04 130.16 137.26 131.19 137.32C131.66 137.34 132.03 137.14 132.27 136.72C132.89 135.42 133.16 134.05 133.09 132.61C133.1 132.39 133.11 132.19 133.12 132C133.24 129.96 133.81 128.93 134.82 128.93C135.83 128.93 136.44 130.02 136.52 132.01C136.6 134.1 136.65 141.09 133.8 143.45C133.17 143.98 132.44 144.25 131.61 144.25ZM123.25 130.17L123.6 130.91C124.22 132.37 124.7 133.86 125.04 135.41C125.99 139.12 126.89 142.62 130.73 143.51C131.2 143.65 131.67 143.67 132.14 143.57C132.62 143.48 133.04 143.28 133.42 142.97C135.5 141.24 136.07 136.19 135.9 132.04C135.88 131.45 135.74 129.55 134.83 129.55C134.23 129.55 133.84 130.45 133.75 132.04C133.74 132.23 133.73 132.43 133.72 132.64C133.8 134.2 133.48 135.69 132.79 137.09C132.61 137.37 132.38 137.58 132.09 137.73C131.8 137.88 131.49 137.95 131.16 137.94C130.48 137.78 129.87 137.49 129.32 137.06C128.77 136.64 128.34 136.12 128.02 135.5C127.2 133.92 126.59 132.27 126.17 130.54C125.69 128.12 124.68 125.95 123.14 124.03C122.91 123.78 122.71 123.67 122.54 123.73C122.07 123.86 121.63 124.94 121.51 125.63C121.48 125.78 121.46 125.94 121.43 126.12C121.24 127.41 120.95 129.36 119.48 129.52C118.09 129.67 117.73 128.43 117.54 127.77L117.49 127.63C117.09 126.16 116.85 124.67 116.76 123.16C116.67 122.25 116.58 121.32 116.43 120.45C115.68 116.19 114.57 113.73 113.14 113.13C112.73 113 112.32 112.98 111.89 113.07C111.46 113.16 111.09 113.34 110.77 113.63C110.43 114.04 110.2 114.51 110.07 115.02C109.95 115.54 109.94 116.06 110.04 116.58C110.15 117.77 110.52 118.54 110.83 118.69C110.9 118.72 111 118.74 111.17 118.62C111.4 118.41 111.66 118.28 111.96 118.21C112.25 118.14 112.55 118.16 112.84 118.25C113.81 118.67 114.05 120.31 114.24 121.63C114.27 121.81 114.3 121.99 114.32 122.15C114.5 123.27 114.63 124.41 114.77 125.52C114.92 127.11 115.15 128.68 115.46 130.23C115.86 132.07 117.29 135.43 119.88 135.01C121.28 134.77 122.34 133.41 123.03 130.97L123.25 130.17Z" />
	<path id="Layer" class="shp6" d="M146.01 97.87C145.78 94.76 144.16 96.14 144.13 98.58C144.1 100.04 144.61 103.19 144.05 104.43C143.24 106.24 142.35 103.9 142.11 102.62C141.29 98.18 142 93.45 141.34 88.99C140.8 85.25 139.01 87.82 139.39 90.5C139.85 93.68 139.61 97.11 139.77 100.35C139.94 103.45 140.14 107.66 141.82 109.98C143.51 112.31 145.23 110.57 145.83 107.89C146.37 104.55 146.43 101.21 146.01 97.87Z" />
	<path id="Layer" class="shp10" d="M147.34 103.46C147.01 100.34 144.74 101.73 144.68 104.18C144.65 105.64 145.36 108.78 144.58 110.02C143.44 111.84 142.19 109.49 141.85 108.22C140.69 103.78 141.69 99.05 140.77 94.59C140 90.85 137.49 93.41 138.03 96.1C138.67 99.28 138.32 102.71 138.56 105.95C138.79 109.04 139.07 113.25 141.45 115.58C143.82 117.91 146.25 116.17 147.09 113.48C147.84 110.16 147.93 106.82 147.34 103.46Z" />
	<path id="Layer" class="shp11" d="M62.24 158.7C56.67 159.45 50.62 148.73 48.48 134.57C49.06 140.19 49.84 145.56 50.82 150.45C51.66 154.66 52.72 158.99 55.58 161.78C56.09 162.32 56.68 162.73 57.36 163.03C58.04 163.32 58.75 163.46 59.48 163.46C61.21 163.29 61.98 161.61 62.32 158.69C62.3 158.69 62.27 158.7 62.24 158.7Z" />
</svg>