<svg xmlns="http://www.w3.org/2000/svg" viewBox="0 0 828.09 828.09"><defs><style>.cls-1{fill:#e7edea;}.cls-2{fill:#f2f8f1;}.cls-3{fill:#bc80ce;}.cls-4{fill:#b449db;}.cls-5{fill:#fff;}</style></defs><g id="Layer_2" data-name="Layer 2"><g id="Layer_2-2" data-name="Layer 2"><circle class="cls-1" cx="413.13" cy="413.13" r="411.54"/><circle class="cls-2" cx="408.35" cy="403.11" r="296.01"/><path class="cls-3" d="M53.78,218.3S145.84,73.15,210.33,57.88c0,0,261.37,103.23,201.21,353.89C411.54,411.31,384.65,188,53.78,218.3Z"/><path class="cls-3" d="M407,3.87s147.66,1.6,218.53,57.88c0,0,28,291-211.47,352.07C414,413.82,587.68,236.53,407,3.87Z"/><path class="cls-3" d="M766.56,204.63s72.24,119.86,58.11,209.19c0,0-57,50.58-138.55,67.67-79.52,13-180.47,15-266.15-67.45C420,414,658.55,489.7,766.56,204.63Z"/><path class="cls-3" d="M771.58,617.31s-69.05,103.45-144.7,149.94c0,0-276.18-98.22-212.61-346.82C414.27,420.43,497.67,682.93,771.58,617.31Z"/><path class="cls-3" d="M414,824.67s-125.55-4.78-204.17-54.92c0,0-48.08-282.1,198.48-353C408.35,416.78,225.37,597.94,414,824.67Z"/><path class="cls-3" d="M61.75,623s-64-82-58.56-209.18c0,0,213.06-184.58,408.12,2.28C411.31,416.32,196.43,351.38,61.75,623Z"/><path class="cls-4" d="M2.28,415.87s52.64-46.26,114.16-65.17c0,0-20.28,88.18,15.5,165.43,0,0-68.59,89.56-70.87,108.7C60.84,625.05-.23,526.84,2.28,415.87Z"/><path class="cls-4" d="M182.75,209.41c6.38-10.93,14.36-20.73,22.79-30.07a214.36,214.36,0,0,1,28.26-25.53c10.25-7.52,21-14.35,32.81-19.37a121.92,121.92,0,0,1,18-6.38c3-.68,6.16-1.59,9.35-2,3-.45,6.15-.91,9.34-1.14-5.93,2-11.85,4.33-17.55,6.84a164.26,164.26,0,0,0-16.63,8.43,277,277,0,0,0-30.77,20.28c-9.79,7.29-19.36,15.27-28.48,23.47S191.64,200.76,182.75,209.41Z"/><path class="cls-5" d="M105.05,372.34c2.73-1.59,5.7-3,8.66-4.33s5.92-2.5,8.89-3.87c5.92-2.28,12.07-4.56,18.23-6.38a242.48,242.48,0,0,1,37.82-8.2,33.76,33.76,0,0,1,4.79-.46,35.12,35.12,0,0,0,4.78-.45c3.19-.23,6.38-.46,9.8-.46a181.42,181.42,0,0,1,19.37.23,134,134,0,0,1,38.06,7.29,358.7,358.7,0,0,0-38.29-.91c-3.19,0-6.38.23-9.57.23-3.19.22-6.38.22-9.57.68-6.38.46-12.53,1.14-18.68,2.05-12.54,1.6-25.07,3.65-37.38,6.38A328.29,328.29,0,0,0,105.05,372.34Z"/><path class="cls-4" d="M414,828.09A414,414,0,0,1,121.23,706.86,414,414,0,0,1,0,414,414,414,0,0,1,121.23,121.23,414,414,0,0,1,414,0,414,414,0,0,1,706.86,121.23,414,414,0,0,1,828.09,414,413.93,413.93,0,0,1,414,828.09ZM414,6.38C189.36,6.38,6.61,189.13,6.61,413.82S189.36,821.25,414,821.25,821.48,638.5,821.48,413.82,638.73,6.38,414,6.38Z"/><path class="cls-4" d="M210.33,61.75s3-13,102.31,60.39c0,0-87.5,27.57-136.49,97.3,0,0-100.27-6.61-117.36-2.28C58.56,216.93,113.25,114.85,210.33,61.75Z"/><path class="cls-4" d="M409.26,6.61s33.27,34.18,60.84,107.1c0,0,105.73,34.18,144.24,76.56,0,0,13.9-35.09,11.63-123.28C626,67,550.31,12.53,409.26,6.61Z"/><path class="cls-4" d="M694.78,330s31.45-27.35,70.42-121.46c0,0,49.44,88.87,56.28,205.32,0,0-41.24,44-126.92,65.85C694.56,479.67,706,397,694.78,330Z"/><path class="cls-4" d="M620.5,764.74s91.37-56.28,146.06-145.38c0,0-89.32,19.37-155.41-1.37,0,0-57,58.34-115.3,68.36C495.85,686.58,551.45,736.26,620.5,764.74Z"/><path class="cls-4" d="M209.19,765.65s-10.71-60.84,5.24-137.86c0,0,45.8,45.8,123.51,62.66,0,0,21.87,65.86,69,127.16C407,817.83,315.83,817.61,209.19,765.65Z"/></g></g></svg>