<svg width="903" height="899" xmlns="http://www.w3.org/2000/svg" xmlns:xlink="http://www.w3.org/1999/xlink" overflow="hidden"><defs><clipPath id="clip0"><rect x="-2310" y="728" width="903" height="899"/></clipPath><clipPath id="clip1"><rect x="-2307" y="729" width="897" height="897"/></clipPath><clipPath id="clip2"><rect x="-2307" y="729" width="897" height="897"/></clipPath><clipPath id="clip3"><rect x="-2307" y="729" width="897" height="897"/></clipPath></defs><g clip-path="url(#clip0)" transform="translate(2310 -728)"><path d="M-2306.5 1144C-2306.5 916.183-2121.82 731.5-1894 731.5-1666.18 731.5-1481.5 916.183-1481.5 1144-1481.5 1371.82-1666.18 1556.5-1894 1556.5-2121.82 1556.5-2306.5 1371.82-2306.5 1144Z" stroke="#FFFFFF" stroke-width="4.58333" stroke-linecap="butt" stroke-linejoin="miter" stroke-miterlimit="8" stroke-opacity="1" fill="#FFFFFF" fill-rule="evenodd" fill-opacity="1"/><g clip-path="url(#clip1)"><g clip-path="url(#clip2)"><g clip-path="url(#clip3)"><path d="M-1929.69 1622.95-1929.69 1622.95C-2066.96 1611.11-2180.85 1535.76-2225.52 1433.93-2238.97 1403.68-2245.95 1370.95-2246 1337.85-2246 1234.05-2177.83 1143.13-2075.72 1092.75L-2071.09 1090.56C-2097.37 1088.34-2116.87 1065.23-2114.64 1038.95-2112.42 1012.66-2089.31 993.165-2063.03 995.391-2062.5 995.436-2061.97 995.49-2061.44 995.553-2010.31 795.737-1727.54 795.593-1676.37 995.553-1650.19 992.407-1626.41 1011.09-1623.26 1037.27-1620.12 1063.46-1638.8 1087.24-1664.98 1090.38-1668.77 1090.84-1672.59 1090.84-1676.37 1090.38-1677.77 1096.12-1679.42 1101.72-1681.36 1107.25-1701.28 1165.28-1746.93 1210.84-1805 1230.64-1816.4 1234.61-1826 1242.54-1832.06 1252.99-1849.49 1282.84-1878.38 1345.85-1855.23 1406.92-1836.22 1375.41-1810.78 1345.2-1778.88 1326.08-1717.71 1288.87-1625.03 1300.57-1623.02 1387.08-1621.57 1434.58-1638.66 1480.79-1670.67 1515.92-1621.87 1487.64-1579.64 1449.31-1546.77 1403.47-1379.54 1167.56-1525.25 793.512-1861.91 783.932-2034.37 780.822-2188.71 890.549-2242.42 1054.47-2247.84 1069.24-2264.22 1076.81-2278.98 1071.38-2292.97 1066.24-2300.63 1051.18-2296.56 1036.85-2132.01 560.759-1438.27 660.111-1419.04 1170.11-1413.59 1462.03-1676.41 1655.03-1929.69 1622.95Z" fill="#22303B" fill-rule="nonzero" fill-opacity="1"/><path d="M-1863.56 987.587C-1864.41 990.56-1867.51 992.281-1870.48 991.432-1872.34 990.901-1873.79 989.447-1874.32 987.587-1901.56 911.163-2024.62 920.563-2028.43 1016.04-2028.36 1054.03-2001.6 1086.74-1964.38 1094.33-1949.63 1097.47-1939.12 1110.57-1939.27 1125.65L-1939.27 1140.22C-1939.25 1170.33-1914.83 1194.72-1884.73 1194.72L-1852.76 1194.72C-1822.66 1194.72-1798.26 1170.32-1798.26 1140.22L-1798.26 1125.65C-1798.39 1110.57-1787.89 1097.48-1773.14 1094.33-1736.01 1086.64-1709.35 1053.96-1709.28 1016.04-1713.04 920.635-1836.11 911.091-1863.56 987.587ZM-1913.47 1049.44C-1914.51 1049.73-1915.55 1049.91-1916.59 1050.09L-1917.38 1050.09C-1918.36 1050.29-1919.36 1050.43-1920.36 1050.52-1921.4 1050.52-1922.44 1050.74-1923.51 1050.84-1924.59 1050.95-1926.46 1051.02-1927.93 1051.02-1941.01 1051.03-1953.78 1046.97-1964.45 1039.4-1967.64 1037.24-1970.6 1034.77-1973.32 1032.04-1975.53 1029.83-1977.55 1027.43-1979.34 1024.87-1981.12 1022.37-1982.71 1019.75-1984.08 1017.01-1986.63 1012.1-1986.85 1006.31-1984.69 1001.22-1983.76 998.934-1982.4 996.85-1980.67 995.086-1976.52 990.71-1970.5 988.623-1964.53 989.489-1954.52 990.903-1945.01 994.679-1936.75 1000.5-1933.92 1002.52-1931.26 1004.77-1928.79 1007.21-1928 1007.97-1927.21 1008.79-1926.46 1009.65-1925.79 1010.32-1925.18 1011.04-1924.63 1011.81-1922.99 1013.77-1921.47 1015.85-1920.11 1018.01-1919.6 1018.75-1919.15 1019.52-1918.74 1020.31-1918.64 1020.42-1918.56 1020.54-1918.49 1020.67-1918.03 1021.46-1917.59 1022.28-1917.2 1023.11-1917.07 1023.3-1916.96 1023.51-1916.88 1023.72-1916.45 1024.51-1916.09 1025.3-1915.73 1026.12-1915.73 1026.41-1915.51 1026.66-1915.41 1026.88-1914.99 1027.72-1914.64 1028.6-1914.37 1029.5-1913.94 1030.49-1913.57 1031.51-1913.25 1032.54-1912.29 1035.53-1911.56 1038.59-1911.06 1041.69-1911.06 1042.27-1911.06 1042.91-1910.78 1043.49-1910.49 1044.06-1910.78 1044.74-1910.56 1045.43-1910.43 1047.29-1911.66 1048.98-1913.47 1049.44ZM-1850.1 1132.47-1851.18 1132.47C-1851.37 1132.5-1851.56 1132.5-1851.75 1132.47-1852.26 1132.47-1852.83 1132.47-1853.55 1132.76L-1855.16 1133.22C-1856.4 1133.56-1857.6 1134.02-1858.75 1134.59-1859.25 1134.81-1859.73 1135.07-1860.19 1135.38L-1861.84 1136.49C-1862.38 1136.86-1862.89 1137.27-1863.38 1137.71L-1863.38 1137.71C-1863.89 1138.19-1864.37 1138.7-1864.81 1139.25-1865.13 1139.78-1865.54 1140.25-1866.03 1140.62-1866.18 1140.84-1866.39 1141-1866.64 1141.08-1867.59 1141.75-1868.8 1141.95-1869.91 1141.62-1870.36 1141.49-1870.79 1141.28-1871.17 1141.01-1871.17 1141.01-1871.45 1141.01-1871.6 1140.69-1871.8 1140.52-1871.98 1140.33-1872.13 1140.11-1872.33 1139.96-1872.49 1139.76-1872.6 1139.54-1873.15 1138.85-1873.75 1138.2-1874.39 1137.6-1875.4 1136.67-1876.51 1135.85-1877.7 1135.16L-1878.84 1134.55C-1879.51 1134.2-1880.21 1133.92-1880.93 1133.69-1881.38 1133.48-1881.84 1133.31-1882.32 1133.19-1882.91 1132.98-1883.51 1132.8-1884.12 1132.65-1884.84 1132.65-1885.45 1132.4-1885.95 1132.36-1886.14 1132.38-1886.33 1132.38-1886.52 1132.36L-1887.56 1132.36C-1887.56 1131.18-1887.56 1130.03-1887.56 1128.78-1887.56 1127.02-1887.56 1125.19-1887.56 1123.5L-1887.56 1123.68C-1887.56 1122.1-1887.56 1120.56-1887.24 1119.02-1887.26 1118.79-1887.26 1118.56-1887.24 1118.33-1887.24 1116.79-1886.95 1115.36-1886.74 1113.88-1886.38 1110.98-1885.95 1108.22-1885.37 1105.56-1885.37 1104.63-1885.02 1103.8-1884.8 1102.91-1884.26 1100.43-1883.65 1098.06-1882.93 1095.73-1882.68 1094.72-1882.36 1093.76-1882.07 1092.82-1881.36 1090.56-1880.6 1088.41-1879.81 1086.4-1879.35 1085.18-1878.84 1084-1878.38 1082.81-1877.91 1081.63-1877.8 1081.41-1877.48 1080.77-1876.66 1078.83-1875.76 1077.18-1874.93 1075.49-1873.86 1073.38-1872.82 1071.55-1871.92 1070.11-1871.86 1070-1871.79 1069.89-1871.7 1069.79-1870.9 1068.26-1869.01 1067.68-1867.49 1068.48-1866.82 1068.83-1866.31 1069.41-1866.03 1070.11-1863.1 1075.04-1860.57 1080.2-1858.46 1085.54-1858.11 1086.44-1857.75 1087.41-1857.39 1088.37-1857.03 1089.34-1856.56 1090.74-1856.13 1091.96-1855.66 1093.23-1855.26 1094.52-1854.95 1095.84-1854.55 1097.16-1854.12 1098.53-1853.8 1099.93-1853.48 1101.33-1853.05 1103.16-1852.69 1104.84-1852.33 1106.53-1852.15 1107.46-1851.9 1108.86-1851.61 1110.4-1851.4 1111.98-1851.18 1113.63-1850.97 1115.28-1850.79 1116.9-1850.64 1118.55-1850.64 1120.2-1850.36 1122.14-1850.28 1123.75-1850.21 1125.37-1850.28 1127.34-1850.28 1129.03-1850.07 1130.21-1850.07 1131.32-1850.1 1132.47ZM-1753.62 1017.01C-1755.75 1021.14-1758.34 1025.02-1761.34 1028.56-1762.34 1029.75-1763.42 1030.89-1764.53 1032.15-1767.18 1034.94-1770.1 1037.45-1773.25 1039.65-1783.87 1047.22-1796.59 1051.29-1809.63 1051.27-1811.14 1051.27-1812.61 1051.27-1814.12 1051.09-1815.62 1050.92-1816.34 1051.09-1817.49 1050.74-1818.64 1050.38-1819.18 1050.74-1820 1050.38-1820.83 1050.02-1820.93 1050.38-1821.4 1050.16-1822.26 1050.02-1823.11 1049.83-1823.95 1049.59L-1824.23 1049.59C-1825.88 1049.18-1827.01 1047.69-1826.96 1046L-1826.96 1045.64C-1826.98 1045.55-1826.98 1045.45-1826.96 1045.35-1826.96 1044.21-1826.67 1043.06-1826.5 1041.77-1826.13 1039.48-1825.63 1037.21-1824.99 1034.98-1824.7 1033.94-1824.38 1032.87-1824.02 1031.83-1823.97 1031.6-1823.9 1031.39-1823.8 1031.18-1823.48 1030.28-1823.12 1029.32-1822.73 1028.38-1822.34 1027.33-1821.9 1026.3-1821.4 1025.3-1821.43 1025.2-1821.43 1025.1-1821.4 1025.01-1820.93 1024.01-1820.4 1023-1819.89 1022.03-1817.67 1017.83-1814.98 1013.89-1811.86 1010.3-1811.13 1009.43-1810.35 1008.6-1809.52 1007.82-1809.35 1007.6-1809.16 1007.4-1808.95 1007.21-1806.52 1004.76-1803.89 1002.52-1801.09 1000.5-1792.86 994.673-1783.35 990.896-1773.36 989.489-1767.36 988.617-1761.32 990.703-1757.14 995.086-1755.46 996.88-1754.11 998.957-1753.16 1001.22-1750.93 1006.29-1751.1 1012.08-1753.62 1017.01Z" fill="#FFFFFF" fill-rule="nonzero" fill-opacity="1"/><path d="M-1910.63 1045.43C-1910.5 1047.27-1911.69 1048.95-1913.47 1049.44L-1913.47 1049.44C-1914.52 1049.68-1915.56 1049.9-1916.59 1050.09L-1917.38 1050.09C-1918.36 1050.29-1919.36 1050.43-1920.36 1050.52-1921.4 1050.52-1922.44 1050.74-1923.51 1050.84-1924.59 1050.95-1926.46 1051.02-1927.93 1051.02-1941.01 1051.03-1953.78 1046.97-1964.45 1039.4-1967.64 1037.24-1970.6 1034.77-1973.32 1032.04-1975.53 1029.83-1977.55 1027.43-1979.34 1024.87-1981.12 1022.37-1982.71 1019.75-1984.08 1017.01-1986.63 1012.1-1986.85 1006.31-1984.69 1001.22-1983.76 998.934-1982.4 996.85-1980.67 995.086-1976.52 990.71-1970.5 988.623-1964.53 989.489-1954.52 990.903-1945.01 994.679-1936.75 1000.5-1933.92 1002.52-1931.26 1004.77-1928.79 1007.21-1928 1008-1927.21 1008.79-1926.46 1009.65-1925.7 1010.51-1925.2 1011.05-1924.63 1011.81-1922.99 1013.77-1921.47 1015.85-1920.11 1018.01-1919.6 1018.75-1919.15 1019.52-1918.74 1020.31-1918.64 1020.42-1918.56 1020.54-1918.49 1020.67-1918.03 1021.46-1917.59 1022.28-1917.2 1023.11-1917.07 1023.3-1916.96 1023.51-1916.88 1023.72-1916.48 1024.54-1916.09 1025.33-1915.73 1026.12-1915.37 1026.91-1915.51 1026.66-1915.41 1026.88-1915.01 1027.73-1914.67 1028.6-1914.37 1029.5-1913.97 1030.5-1913.61 1031.5-1913.25 1032.54-1912.29 1035.53-1911.56 1038.59-1911.06 1041.69-1911.06 1042.27-1911.06 1042.91-1910.78 1043.49-1910.49 1044.06-1910.67 1044.74-1910.63 1045.43Z" fill="#CB1F59" fill-rule="nonzero" fill-opacity="1"/><path d="M-1753.66 1017.01C-1755.8 1021.12-1758.37 1024.99-1761.34 1028.56-1762.34 1029.75-1763.42 1030.89-1764.53 1032.15-1767.18 1034.94-1770.1 1037.45-1773.25 1039.65-1783.87 1047.22-1796.59 1051.29-1809.63 1051.27-1811.14 1051.27-1812.61 1051.27-1814.12 1051.09-1815.62 1050.92-1816.34 1051.09-1817.49 1050.74-1818.64 1050.38-1819.18 1050.74-1820 1050.38-1820.83 1050.02-1820.93 1050.38-1821.4 1050.16L-1823.95 1049.59-1824.23 1049.59C-1825.88 1049.18-1827.01 1047.69-1826.96 1046L-1826.96 1045.64C-1826.98 1045.55-1826.98 1045.45-1826.96 1045.35-1826.96 1044.21-1826.67 1043.06-1826.5 1041.77-1826.13 1039.48-1825.63 1037.21-1824.99 1034.98-1824.7 1033.94-1824.38 1032.87-1824.02 1031.83-1823.97 1031.6-1823.9 1031.39-1823.8 1031.18-1823.48 1030.28-1823.12 1029.32-1822.73 1028.38-1822.34 1027.33-1821.9 1026.3-1821.4 1025.3-1821.43 1025.2-1821.43 1025.1-1821.4 1025.01-1820.93 1024.01-1820.4 1023-1819.89 1022.03-1817.67 1017.83-1814.98 1013.89-1811.86 1010.3-1811.1 1009.47-1810.31 1008.61-1809.52 1007.82-1809.35 1007.6-1809.16 1007.4-1808.95 1007.21-1806.52 1004.76-1803.89 1002.52-1801.09 1000.5-1792.86 994.673-1783.35 990.896-1773.36 989.489-1767.36 988.617-1761.32 990.703-1757.14 995.086-1755.46 996.88-1754.11 998.957-1753.16 1001.22-1750.96 1006.29-1751.14 1012.09-1753.66 1017.01Z" fill="#CB1F59" fill-rule="nonzero" fill-opacity="1"/><path d="M-1850.07 1129.06C-1850.07 1130.21-1850.07 1131.32-1850.07 1132.65L-1851.14 1132.65C-1851.34 1132.68-1851.53 1132.68-1851.72 1132.65-1852.22 1132.65-1852.8 1132.65-1853.51 1132.94L-1855.13 1133.4C-1856.37 1133.74-1857.57 1134.19-1858.72 1134.77-1859.22 1134.99-1859.7 1135.25-1860.15 1135.56-1860.73 1135.88-1861.29 1136.25-1861.8 1136.67-1862.34 1137.04-1862.86 1137.45-1863.34 1137.89L-1863.34 1137.89C-1863.88 1138.34-1864.37 1138.86-1864.78 1139.43-1865.09 1139.96-1865.5 1140.43-1866 1140.79-1867.04 1141.76-1868.5 1142.14-1869.87 1141.8-1870.32 1141.67-1870.75 1141.46-1871.13 1141.19-1871.13 1141.19-1871.42 1141.19-1871.56 1140.87-1871.77 1140.7-1871.95 1140.51-1872.1 1140.29-1872.29 1140.14-1872.45 1139.94-1872.57 1139.72-1873.97 1137.95-1875.7 1136.47-1877.66 1135.34L-1878.81 1134.73C-1879.48 1134.38-1880.17 1134.1-1880.89 1133.87-1881.34 1133.67-1881.81 1133.5-1882.29 1133.37-1882.88 1133.16-1883.48 1132.98-1884.08 1132.83-1884.8 1132.83-1885.41 1132.58-1885.91 1132.54-1886.1 1132.56-1886.3 1132.56-1886.49 1132.54L-1887.53 1132.54C-1887.53 1129.6-1887.53 1126.69-1887.53 1123.79L-1887.53 1123.68C-1887.53 1122.1-1887.53 1120.56-1887.2 1119.02-1887.22 1118.79-1887.22 1118.56-1887.2 1118.33-1887.2 1116.86-1886.92 1115.36-1886.7 1113.88-1886.27 1110.19-1885.62 1106.53-1884.76 1102.91-1884.23 1100.43-1883.62 1098.06-1882.9 1095.73-1881.44 1090.56-1879.6 1085.51-1877.37 1080.62-1876.55 1078.69-1875.65 1077.04-1874.83 1075.35-1873.75 1073.23-1872.71 1071.4-1871.81 1069.97-1871.75 1069.85-1871.68 1069.74-1871.6 1069.64-1866.54 1062.22-1860.15 1081.7-1857.24 1088.23-1856.81 1089.38-1856.42 1090.6-1855.99 1091.82-1855.56 1093.04-1855.13 1094.37-1854.8 1095.69-1854.48 1097.02-1854.05 1098.38-1853.66 1099.78-1852.97 1102.69-1852.29 1105.67-1851.75 1108.72-1851.22 1111.88-1850.79 1115.18-1850.5 1118.41-1850.21 1122.07-1850.07 1125.51-1850.07 1129.06Z" fill="#22303B" fill-rule="nonzero" fill-opacity="1"/><path d="M-1670.2 1070.76C-1671.18 1070.93-1672.11 1070.27-1672.28 1069.3-1672.31 1069.1-1672.31 1068.91-1672.28 1068.71-1671.19 1060.18-1670.64 1051.59-1670.63 1042.99-1670.63 1034.35-1671.19 1025.72-1672.32 1017.15-1672.48 1016.19-1671.83 1015.29-1670.87 1015.13-1670.66 1015.1-1670.45 1015.1-1670.24 1015.14-1654.88 1018.38-1645.05 1033.45-1648.29 1048.81-1650.61 1059.83-1659.22 1068.44-1670.24 1070.76Z" fill="#FFFFFF" fill-rule="nonzero" fill-opacity="1"/><path d="M-2067.11 1042.99C-2067.12 1051.17-2066.6 1059.34-2065.56 1067.46-2065.36 1068.93-2066.38 1070.29-2067.86 1070.49-2068.2 1070.54-2068.56 1070.52-2068.9 1070.43-2084.08 1066.45-2093.15 1050.91-2089.16 1035.73-2086.56 1025.81-2078.81 1018.07-2068.9 1015.47-2067.44 1015.1-2065.96 1015.98-2065.59 1017.44-2065.51 1017.77-2065.49 1018.11-2065.53 1018.44-2066.58 1026.58-2067.11 1034.78-2067.11 1042.99Z" fill="#FFFFFF" fill-rule="nonzero" fill-opacity="1"/></g></g></g></g></svg>