<svg width="96" height="96" viewBox="0 0 96 96" fill="none" xmlns="http://www.w3.org/2000/svg">
<circle cx="48" cy="48" r="48" fill="white"/>
<path d="M28.7721 53.1983C21.8466 54.4964 15.081 56.5364 8.59231 59.2831C6.40548 60.2084 4.2619 61.2071 2.16156 62.2792C2.16156 62.2545 2.14715 62.2277 2.13891 62.203C4.18624 68.7858 7.62365 74.8519 12.2185 79.9911C16.8134 85.1302 22.4586 89.2224 28.7721 91.9908V53.1983Z" fill="#F25138"/>
<path d="M47.999 0C21.4894 0 1.10732e-06 21.4894 1.10732e-06 47.999C-0.000551891 50.5887 0.206023 53.1743 0.617748 55.7311C0.593038 55.5664 0.56421 55.4016 0.5395 55.2369C2.28567 54.3872 4.05654 53.58 5.85213 52.8153C13.2096 49.6994 20.8989 47.434 28.7706 46.0634C31.0947 45.6515 33.4352 45.3248 35.7923 45.0832C37.7718 44.8732 39.7623 44.7187 41.7638 44.6199C43.532 44.5334 45.3083 44.4902 47.0929 44.4902C51.2118 44.488 55.3274 44.7238 59.419 45.1965C60.1444 47.515 59.9429 50.0245 58.8569 52.1976C54.9524 51.7384 51.0243 51.5088 47.0929 51.5098C45.3454 51.5098 43.604 51.5551 41.8689 51.6457C39.8317 51.7501 37.8061 51.9162 35.7923 52.1441V94.4309C35.1924 94.273 34.5973 94.1042 34.007 93.9244C38.5427 95.3044 43.258 96.0039 47.999 96C74.5086 96 96 74.5086 96 47.999C96 21.4894 74.5086 0 47.999 0ZM95.2216 56.6145C95.1804 56.8327 95.1413 57.049 95.0981 57.2652C95.0713 57.4011 95.0466 57.537 95.0178 57.677C94.9436 58.0353 94.8695 58.3936 94.7871 58.7498C94.7862 58.7573 94.7862 58.765 94.7871 58.7725C94.5895 59.6291 94.3698 60.4768 94.1282 61.3155V61.3382C94.0458 61.6203 93.9635 61.9003 93.877 62.1804C93.877 62.203 93.8626 62.2236 93.8564 62.2463C93.809 62.3966 93.7596 62.5449 93.7123 62.6952C93.6649 62.8455 93.632 62.9484 93.5908 63.0741C90.9962 61.7013 88.3372 60.4322 85.6136 59.2667C80.953 57.2948 76.147 55.686 71.2386 54.4544C69.8564 58.8765 67.0984 62.7418 63.3665 65.4874C59.6346 68.233 55.1236 69.7155 50.4905 69.719H41.8956V62.6993H50.4905C53.5121 62.6958 56.4594 61.7627 58.9323 60.0265C61.4053 58.2903 63.2841 55.8352 64.3137 52.9945C65.1143 50.7749 65.369 48.3953 65.0563 46.0565C64.7436 43.7178 63.8727 41.4886 62.5171 39.5573C61.1616 37.626 59.3611 36.0493 57.2679 34.9604C55.1747 33.8714 52.8501 33.3021 50.4905 33.3007H35.7923V38.9778C33.4311 39.2249 31.0905 39.5399 28.7706 39.923V26.281H50.4905C54.946 26.2852 59.2928 27.6574 62.9431 30.2121C66.5934 32.7668 69.3712 36.3808 70.9009 40.5654C71.7102 42.7807 72.1499 45.1139 72.2023 47.4718C77.7161 48.8151 83.1122 50.6021 88.3379 52.8153C90.7114 53.8216 93.0403 54.9074 95.3246 56.0729C95.3246 56.0729 95.3246 56.0832 95.3246 56.0894C95.2855 56.2665 95.2525 56.4394 95.2216 56.6145Z" fill="#F25138"/>
</svg>
