<?xml version="1.0" encoding="UTF-8" standalone="no"?><!DOCTYPE svg PUBLIC "-//W3C//DTD SVG 1.1//EN" "http://www.w3.org/Graphics/SVG/1.1/DTD/svg11.dtd"><svg width="100%" height="100%" viewBox="0 0 1900 1900" version="1.1" xmlns="http://www.w3.org/2000/svg" xmlns:xlink="http://www.w3.org/1999/xlink" xml:space="preserve" xmlns:serif="http://www.serif.com/" style="fill-rule:evenodd;clip-rule:evenodd;stroke-linejoin:round;stroke-miterlimit:2;"><rect id="TOR" x="0" y="0" width="1899.05" height="1899.05" style="fill:none;"/><g><g><path d="M1599.88,982.075c-60.758,0 -110.17,-49.424 -110.17,-110.171c-0,-6.265 0.646,-12.379 1.645,-18.351l-118.682,-59.066l87.656,557.568l-543.236,-365.253l-461.634,260.491l519.288,165.885l-186.095,139.692c6.255,13.814 9.817,29.097 9.817,45.215c-0,60.747 -49.425,110.172 -110.183,110.172c-60.746,-0 -110.171,-49.425 -110.171,-110.172c-0,-60.758 49.425,-110.171 110.171,-110.171c24.959,0 47.931,8.43 66.424,22.479l103.212,-77.475l-537.652,-171.753l572.898,-323.259l69.235,-528.74l-444.423,315.723l-0,-241.316c-47.638,-12.145 -83.001,-55.28 -83.001,-106.632c-0,-60.758 49.424,-110.183 110.17,-110.183c60.758,-0 110.183,49.425 110.183,110.183c0,51.352 -35.375,94.487 -83.002,106.632l0,136.035l460.13,-326.88l-84.988,649.01l439.826,295.726l-84.66,-538.546l210.785,104.905c20.196,-25.584 51.41,-42.09 86.457,-42.09c60.758,0 110.183,49.413 110.183,110.171c-0,60.747 -49.425,110.171 -110.183,110.171m-650.351,-959.384c-511.881,-0 -926.831,414.96 -926.831,926.842c0,511.871 414.95,926.83 926.831,926.83c511.871,0 926.831,-414.959 926.831,-926.83c0,-511.882 -414.96,-926.842 -926.831,-926.842" style="fill:#b6a086;fill-rule:nonzero;"/><path d="M600.973,376.936c0,-30.778 -25.042,-55.82 -55.82,-55.82c-30.779,-0 -55.832,25.042 -55.832,55.82c-0,30.779 25.053,55.82 55.832,55.82c30.778,0 55.82,-25.041 55.82,-55.82" style="fill:#b6a086;fill-rule:nonzero;"/><path d="M1599.88,816.078c-30.779,0 -55.821,25.041 -55.821,55.82c0,30.779 25.042,55.821 55.821,55.821c30.779,-0 55.82,-25.042 55.82,-55.821c-0,-30.779 -25.041,-55.82 -55.82,-55.82" style="fill:#b6a086;fill-rule:nonzero;"/><path d="M688.287,1542.26c-30.78,0 -55.821,25.041 -55.821,55.82c0,30.779 25.041,55.821 55.821,55.821c30.79,-0 55.82,-25.042 55.82,-55.821c0,-30.779 -25.03,-55.82 -55.82,-55.82" style="fill:#b6a086;fill-rule:nonzero;"/></g></g></svg>