<svg width="236" height="272" xmlns="http://www.w3.org/2000/svg" xmlns:xlink="http://www.w3.org/1999/xlink" overflow="hidden"><defs><clipPath id="clip0"><rect x="420" y="236" width="236" height="272"/></clipPath><linearGradient x1="0" y1="423.18" x2="235.492" y2="423.18" gradientUnits="userSpaceOnUse" spreadMethod="pad" id="fill1"><stop offset="0" stop-color="#ACC3EF" stop-opacity="1"/><stop offset="0.00240543" stop-color="#ACC3EF" stop-opacity="1"/><stop offset="0.0193" stop-color="#A8BFEE" stop-opacity="1"/><stop offset="0.1548" stop-color="#88A6E3" stop-opacity="1"/><stop offset="0.2861" stop-color="#7193DC" stop-opacity="1"/><stop offset="0.4103" stop-color="#6488D8" stop-opacity="1"/><stop offset="0.52" stop-color="#5F84D6" stop-opacity="1"/><stop offset="0.6392" stop-color="#6387D7" stop-opacity="1"/><stop offset="0.7554" stop-color="#6F90DA" stop-opacity="1"/><stop offset="0.8703" stop-color="#829FDE" stop-opacity="1"/><stop offset="0.9839" stop-color="#9DB4E5" stop-opacity="1"/><stop offset="1" stop-color="#A2B7E6" stop-opacity="1"/></linearGradient><linearGradient x1="58.8729" y1="595.12" x2="58.8729" y2="461.383" gradientUnits="userSpaceOnUse" spreadMethod="pad" id="fill2"><stop offset="0" stop-color="#473A8D" stop-opacity="1"/><stop offset="0.00240543" stop-color="#473A8D" stop-opacity="1"/><stop offset="1" stop-color="#5A79CA" stop-opacity="1"/></linearGradient><linearGradient x1="195.155" y1="585.439" x2="161.135" y2="474.616" gradientUnits="userSpaceOnUse" spreadMethod="pad" id="fill3"><stop offset="0" stop-color="#473A8D" stop-opacity="1"/><stop offset="1" stop-color="#5A79CA" stop-opacity="1"/></linearGradient><linearGradient x1="0" y1="67.9166" x2="235.492" y2="67.9166" gradientUnits="userSpaceOnUse" spreadMethod="pad" id="fill4"><stop offset="0" stop-color="#ACC3EF" stop-opacity="1"/><stop offset="0.00240543" stop-color="#ACC3EF" stop-opacity="1"/><stop offset="0.0193" stop-color="#A8BFEE" stop-opacity="1"/><stop offset="0.1548" stop-color="#88A6E3" stop-opacity="1"/><stop offset="0.2861" stop-color="#7193DC" stop-opacity="1"/><stop offset="0.4103" stop-color="#6488D8" stop-opacity="1"/><stop offset="0.52" stop-color="#5F84D6" stop-opacity="1"/><stop offset="0.6392" stop-color="#6387D7" stop-opacity="1"/><stop offset="0.7554" stop-color="#6F90DA" stop-opacity="1"/><stop offset="0.8703" stop-color="#829FDE" stop-opacity="1"/><stop offset="0.9839" stop-color="#9DB4E5" stop-opacity="1"/><stop offset="1" stop-color="#A2B7E6" stop-opacity="1"/></linearGradient><linearGradient x1="58.8729" y1="239.856" x2="58.8729" y2="106.119" gradientUnits="userSpaceOnUse" spreadMethod="pad" id="fill5"><stop offset="0" stop-color="#473A8D" stop-opacity="1"/><stop offset="0.00240543" stop-color="#473A8D" stop-opacity="1"/><stop offset="1" stop-color="#5A79CA" stop-opacity="1"/></linearGradient><linearGradient x1="195.155" y1="230.175" x2="161.135" y2="119.353" gradientUnits="userSpaceOnUse" spreadMethod="pad" id="fill6"><stop offset="0" stop-color="#473A8D" stop-opacity="1"/><stop offset="1" stop-color="#5A79CA" stop-opacity="1"/></linearGradient><linearGradient x1="265.357" y1="135.833" x2="376.072" y2="135.833" gradientUnits="userSpaceOnUse" spreadMethod="pad" id="fill7"><stop offset="0" stop-color="#767ED9" stop-opacity="1"/><stop offset="0.00240543" stop-color="#767ED9" stop-opacity="1"/><stop offset="1" stop-color="#8DACEB" stop-opacity="1"/></linearGradient><linearGradient x1="394.234" y1="135.833" x2="509.234" y2="135.833" gradientUnits="userSpaceOnUse" spreadMethod="pad" id="fill8"><stop offset="0" stop-color="#767ED9" stop-opacity="1"/><stop offset="0.00240543" stop-color="#767ED9" stop-opacity="1"/><stop offset="1" stop-color="#8DACEB" stop-opacity="1"/></linearGradient><linearGradient x1="528.596" y1="137.204" x2="645.481" y2="137.204" gradientUnits="userSpaceOnUse" spreadMethod="pad" id="fill9"><stop offset="0" stop-color="#767ED9" stop-opacity="1"/><stop offset="0.00240543" stop-color="#767ED9" stop-opacity="1"/><stop offset="1" stop-color="#8DACEB" stop-opacity="1"/></linearGradient><linearGradient x1="664.157" y1="135.833" x2="772.301" y2="135.833" gradientUnits="userSpaceOnUse" spreadMethod="pad" id="fill10"><stop offset="0" stop-color="#767ED9" stop-opacity="1"/><stop offset="0.00240543" stop-color="#767ED9" stop-opacity="1"/><stop offset="1" stop-color="#8DACEB" stop-opacity="1"/></linearGradient><linearGradient x1="781.21" y1="135.833" x2="891.926" y2="135.833" gradientUnits="userSpaceOnUse" spreadMethod="pad" id="fill11"><stop offset="0" stop-color="#767ED9" stop-opacity="1"/><stop offset="0.00240543" stop-color="#767ED9" stop-opacity="1"/><stop offset="1" stop-color="#8DACEB" stop-opacity="1"/></linearGradient><linearGradient x1="910.088" y1="135.833" x2="1028.34" y2="135.833" gradientUnits="userSpaceOnUse" spreadMethod="pad" id="fill12"><stop offset="0" stop-color="#767ED9" stop-opacity="1"/><stop offset="0.00240543" stop-color="#767ED9" stop-opacity="1"/><stop offset="1" stop-color="#8DACEB" stop-opacity="1"/></linearGradient><linearGradient x1="1055.59" y1="135.833" x2="1153.11" y2="135.833" gradientUnits="userSpaceOnUse" spreadMethod="pad" id="fill13"><stop offset="0" stop-color="#767ED9" stop-opacity="1"/><stop offset="0.00240543" stop-color="#767ED9" stop-opacity="1"/><stop offset="1" stop-color="#8DACEB" stop-opacity="1"/></linearGradient><linearGradient x1="1165.44" y1="135.833" x2="1276.16" y2="135.833" gradientUnits="userSpaceOnUse" spreadMethod="pad" id="fill14"><stop offset="0" stop-color="#767ED9" stop-opacity="1"/><stop offset="0.00240543" stop-color="#767ED9" stop-opacity="1"/><stop offset="1" stop-color="#8DACEB" stop-opacity="1"/></linearGradient></defs><g clip-path="url(#clip0)" transform="translate(-420 -236)"><path d="M117.746 355.266 0 423.431 117.746 491.099 235.492 423.183Z" fill="url(#fill1)" fill-rule="nonzero" transform="matrix(1 0 0 1.00114 420 236.011)"/><path d="M0 423.147 117.746 491.064 117.746 626.897 0 559.321Z" fill="url(#fill2)" fill-rule="nonzero" transform="matrix(1 0 0 1.00114 420 236.011)"/><path d="M117.746 491.099 235.492 423.183 235.492 558.874 117.746 626.932Z" fill="url(#fill3)" fill-rule="nonzero" transform="matrix(1 0 0 1.00114 420 236.011)"/><path d="M47.9708 553.611 28.1029 542.397C27.9469 542.304 27.8476 542.141 27.8476 541.957L27.8476 439.66C27.8476 439.475 27.9469 439.312 28.1029 439.22L117.888 387.582C118.044 387.49 118.235 387.49 118.391 387.582L132.102 395.406C132.258 395.498 132.358 395.661 132.358 395.846L132.358 426.374 132.358 551.66" stroke="#FFFFFF" stroke-width="4.96518" stroke-linecap="round" stroke-linejoin="miter" stroke-miterlimit="10" stroke-opacity="1" fill="none" fill-rule="nonzero" transform="matrix(1 0 0 1.00114 420 236.011)"/><path d="M132.358 426.374 176.746 524.678C177.002 525.231 177.824 525.061 177.839 524.451L178.2 455.513" stroke="#FFFFFF" stroke-width="4.96518" stroke-linecap="round" stroke-linejoin="miter" stroke-miterlimit="10" stroke-opacity="1" fill="none" fill-rule="nonzero" transform="matrix(1 0 0 1.00114 420 236.011)"/><path d="M80.7055 443.511 80.9892 570.932C80.9892 571.663 81.3652 572.351 81.9823 572.741L116.497 592.815C117.512 593.403 118.76 593.403 119.767 592.822L206.452 542.744C207.183 542.319 207.637 541.538 207.637 540.694L207.637 440.029C207.637 439.61 207.417 439.22 207.055 439.007L167.391 415.281" stroke="#FFFFFF" stroke-width="4.96518" stroke-linecap="butt" stroke-linejoin="miter" stroke-miterlimit="10" stroke-opacity="1" fill="none" fill-rule="nonzero" transform="matrix(1 0 0 1.00114 420 236.011)"/><path d="M57.4188 456.407 80.7055 443.093 103.999 429.786" stroke="#FFFFFF" stroke-width="4.96518" stroke-linecap="round" stroke-linejoin="miter" stroke-miterlimit="10" stroke-opacity="1" fill="none" fill-rule="nonzero" transform="matrix(1 0 0 1.00114 420 236.011)"/><path d="M59.9581 555.994C59.9581 560.021 56.6935 563.286 52.6664 563.286 48.6393 563.286 45.3747 560.021 45.3747 555.994 45.3747 551.967 48.6393 548.702 52.6664 548.702 56.6935 548.702 59.9581 551.967 59.9581 555.994Z" fill="#FFFFFF" fill-rule="nonzero" fill-opacity="1" transform="matrix(1 0 0 1.00114 420 236.011)"/><path d="M169.15 412.025C169.15 416.052 165.885 419.317 161.858 419.317 157.831 419.317 154.566 416.052 154.566 412.025 154.566 407.998 157.831 404.733 161.858 404.733 165.885 404.733 169.15 407.998 169.15 412.025Z" fill="#FFFFFF" fill-rule="nonzero" fill-opacity="1" transform="matrix(1 0 0 1.00114 420 236.011)"/><path d="M117.746 0 0 68.1649 117.746 135.833 235.492 67.9166Z" fill="url(#fill4)" fill-rule="nonzero" transform="matrix(1 0 0 1.00114 420 236.011)"/><path d="M0 67.8811 117.746 135.798 117.746 271.631 0 204.055Z" fill="url(#fill5)" fill-rule="nonzero" transform="matrix(1 0 0 1.00114 420 236.011)"/><path d="M117.746 135.833 235.492 67.9166 235.492 203.608 117.746 271.666Z" fill="url(#fill6)" fill-rule="nonzero" transform="matrix(1 0 0 1.00114 420 236.011)"/><path d="M47.9708 198.345 28.1029 187.131C27.9469 187.038 27.8476 186.875 27.8476 186.691L27.8476 84.3939C27.8476 84.2095 27.9469 84.0464 28.1029 83.9542L117.888 32.3162C118.044 32.224 118.235 32.224 118.391 32.3162L132.102 40.14C132.258 40.2322 132.358 40.3953 132.358 40.5797L132.358 71.1085 132.358 196.394" stroke="#FFFFFF" stroke-width="4.96518" stroke-linecap="round" stroke-linejoin="miter" stroke-miterlimit="10" stroke-opacity="1" fill="none" fill-rule="nonzero" transform="matrix(1 0 0 1.00114 420 236.011)"/><path d="M132.358 71.1156 176.746 169.419C177.002 169.972 177.824 169.802 177.839 169.192L178.2 100.254" stroke="#FFFFFF" stroke-width="4.96518" stroke-linecap="round" stroke-linejoin="miter" stroke-miterlimit="10" stroke-opacity="1" fill="none" fill-rule="nonzero" transform="matrix(1 0 0 1.00114 420 236.011)"/><path d="M80.7055 88.2526 80.9892 215.673C80.9892 216.404 81.3652 217.092 81.9823 217.482L116.497 237.556C117.512 238.144 118.76 238.144 119.767 237.563L206.452 187.485C207.183 187.06 207.637 186.279 207.637 185.435L207.637 84.7628C207.637 84.3443 207.417 83.9542 207.055 83.7414L167.391 60.0149" stroke="#FFFFFF" stroke-width="4.96518" stroke-linecap="butt" stroke-linejoin="miter" stroke-miterlimit="10" stroke-opacity="1" fill="none" fill-rule="nonzero" transform="matrix(1 0 0 1.00114 420 236.011)"/><path d="M57.4188 101.141 80.7055 87.8341 103.999 74.5203" stroke="#FFFFFF" stroke-width="4.96518" stroke-linecap="round" stroke-linejoin="miter" stroke-miterlimit="10" stroke-opacity="1" fill="none" fill-rule="nonzero" transform="matrix(1 0 0 1.00114 420 236.011)"/><path d="M59.9581 200.728C59.9581 204.755 56.6935 208.02 52.6664 208.02 48.6393 208.02 45.3747 204.755 45.3747 200.728 45.3747 196.701 48.6393 193.436 52.6664 193.436 56.6935 193.436 59.9581 196.701 59.9581 200.728Z" fill="#FFFFFF" fill-rule="nonzero" fill-opacity="1" transform="matrix(1 0 0 1.00114 420 236.011)"/><path d="M169.15 56.7662C169.15 60.7933 165.885 64.058 161.858 64.058 157.831 64.058 154.566 60.7933 154.566 56.7662 154.566 52.7391 157.831 49.4745 161.858 49.4745 165.885 49.4745 169.15 52.7391 169.15 56.7662Z" fill="#FFFFFF" fill-rule="nonzero" fill-opacity="1" transform="matrix(1 0 0 1.00114 420 236.011)"/><path d="M300.493 107.212 265.354 107.212 265.354 75.8467 376.07 75.8467 376.07 107.212 340.938 107.212 340.938 195.82 300.493 195.82 300.493 107.212Z" fill="url(#fill7)" fill-rule="nonzero" transform="matrix(1 0 0 1.00114 420 236.011)"/><path d="M445.647 165.653 434.681 165.653 434.681 195.82 394.236 195.82 394.236 75.8467 451.995 75.8467C485.418 75.8467 506.669 93.3313 506.669 121.094 506.669 138.401 498.441 151.431 484.049 158.801L509.243 195.82 466.053 195.82 445.647 165.653ZM449.42 107.042 434.681 107.042 434.681 135.152 449.42 135.152C460.563 135.152 465.876 129.84 465.876 121.101 465.876 112.362 460.563 107.042 449.42 107.042Z" fill="url(#fill8)" fill-rule="nonzero" transform="matrix(1 0 0 1.00114 420 236.011)"/><path d="M528.593 141.834 528.593 75.8538 569.038 75.8538 569.038 140.635C569.038 158.971 576.068 165.83 587.374 165.83 598.688 165.83 605.71 158.978 605.71 140.635L605.71 75.8538 645.474 75.8538 645.474 141.834C645.474 177.824 623.882 198.565 587.034 198.565 550.192 198.558 528.593 177.824 528.593 141.834Z" fill="url(#fill9)" fill-rule="nonzero" transform="matrix(1 0 0 1.00114 420 236.011)"/><path d="M664.157 186.223 677.18 156.744C688.494 163.425 703.574 167.71 716.767 167.71 728.25 167.71 732.365 165.312 732.365 161.198 732.365 146.118 666.037 158.283 666.037 113.554 666.037 91.2743 684.72 73.1088 721.909 73.1088 738.018 73.1088 754.644 76.5348 767.156 83.564L754.984 112.873C743.16 106.872 732.017 103.964 721.562 103.964 709.737 103.964 705.964 107.39 705.964 111.504 705.964 125.903 772.292 113.901 772.292 158.12 772.292 180.059 753.608 198.565 716.419 198.565 696.381 198.558 676.152 193.592 664.157 186.223Z" fill="url(#fill10)" fill-rule="nonzero" transform="matrix(1 0 0 1.00114 420 236.011)"/><path d="M816.347 107.212 781.215 107.212 781.215 75.8467 891.931 75.8467 891.931 107.212 856.799 107.212 856.799 195.82 816.354 195.82 816.354 107.212Z" fill="url(#fill11)" fill-rule="nonzero" transform="matrix(1 0 0 1.00114 420 236.011)"/><path d="M1028.35 75.8467 1028.35 195.82 995.094 195.82 949.506 141.316 949.506 195.82 910.09 195.82 910.09 75.8467 943.342 75.8467 988.93 130.35 988.93 75.8467 1028.35 75.8467Z" fill="url(#fill12)" fill-rule="nonzero" transform="matrix(1 0 0 1.00114 420 236.011)"/><path d="M1096.04 106.354 1096.04 126.917 1146.08 126.917 1146.08 157.425 1096.04 157.425 1096.04 195.813 1055.59 195.813 1055.59 75.8467 1153.11 75.8467 1153.11 106.354 1096.04 106.354Z" fill="url(#fill13)" fill-rule="nonzero" transform="matrix(1 0 0 1.00114 420 236.011)"/><path d="M1200.57 107.212 1165.44 107.212 1165.44 75.8467 1276.16 75.8467 1276.16 107.212 1241.03 107.212 1241.03 195.82 1200.58 195.82 1200.58 107.212Z" fill="url(#fill14)" fill-rule="nonzero" transform="matrix(1 0 0 1.00114 420 236.011)"/></g></svg>