<svg version="1.2" baseProfile="tiny-ps" xmlns="http://www.w3.org/2000/svg" viewBox="0 0 207 207" width="207" height="207">
	<title>TXL-svg</title>
	<style>
		tspan { white-space:pre }
		.shp0 { fill: #0050ff } 
		.shp1 { fill: #ffffff } 
	</style>
	<path id="Layer" class="shp0" d="M103.5 0.38C46.55 0.38 0.38 46.55 0.38 103.5C0.38 160.45 46.55 206.63 103.5 206.63C160.45 206.63 206.63 160.45 206.63 103.5C206.63 46.55 160.45 0.38 103.5 0.38Z" />
	<path id="Layer" fill-rule="evenodd" class="shp1" d="M168.79 148.05C168.79 152.44 168.29 156.98 167.32 161.54L166.3 166.28L161.57 167.29C157.01 168.27 152.47 168.76 148.07 168.76C131.31 168.76 115.64 162.5 103.5 151.07C103.38 151.19 102.67 151.83 102.44 152.04C90.45 162.85 75.21 168.76 58.92 168.76C54.52 168.76 49.98 168.27 45.43 167.29L40.69 166.28L39.68 161.54C38.7 156.99 38.21 152.45 38.21 148.05C38.21 131.29 44.46 115.64 55.88 103.5C44.46 91.36 38.21 75.7 38.21 58.95C38.21 54.55 38.71 50.02 39.68 45.46L40.69 40.72L45.43 39.7C49.99 38.73 54.53 38.24 58.93 38.24C75.69 38.24 91.36 44.5 103.5 55.93C103.63 55.81 104.33 55.17 104.56 54.95C116.55 44.14 131.79 38.24 148.07 38.24C152.48 38.24 157.02 38.73 161.57 39.7L166.31 40.72L167.32 45.46C168.29 50.01 168.79 54.55 168.79 58.95C168.79 75.7 162.54 91.36 151.13 103.5C162.54 115.64 168.79 131.3 168.79 148.05ZM137.86 111.35L130 103.5L137.86 95.65C148.16 86 153.84 72.96 153.84 58.95C153.84 57.17 153.73 55.35 153.51 53.51C151.67 53.3 149.86 53.19 148.07 53.19C135.35 53.19 123.44 57.88 114.14 66.45C107.4 72.97 102.63 81.06 100.35 89.93L85.87 86.2C87.57 79.58 90.36 73.31 94.05 67.56C84.57 58.28 72.19 53.19 58.92 53.19C57.14 53.19 55.33 53.3 53.49 53.51C53.27 55.35 53.16 57.17 53.16 58.95C53.16 72.96 58.84 86 69.14 95.65L77 103.5L69.14 111.35C58.84 121 53.16 134.03 53.16 148.05C53.16 149.83 53.27 151.64 53.48 153.49C55.33 153.7 57.14 153.81 58.92 153.81C71.65 153.81 83.55 149.12 92.86 140.54C99.6 134.03 104.37 125.93 106.65 117.07L121.13 120.79C119.43 127.42 116.64 133.68 112.95 139.43C122.43 148.72 134.8 153.81 148.07 153.81C149.85 153.81 151.67 153.7 153.51 153.49C153.73 151.64 153.84 149.83 153.84 148.05C153.84 134.04 148.16 121 137.86 111.35Z" />
</svg>