<svg width="192" height="192" xmlns="http://www.w3.org/2000/svg" xmlns:xlink="http://www.w3.org/1999/xlink" xml:space="preserve" overflow="hidden"><defs><clipPath id="clip0"><rect x="544" y="264" width="192" height="192"/></clipPath><clipPath id="clip1"><rect x="545" y="265" width="190" height="190"/></clipPath><clipPath id="clip2"><rect x="545" y="265" width="190" height="190"/></clipPath><clipPath id="clip3"><rect x="545" y="265" width="190" height="190"/></clipPath><linearGradient x1="640.006" y1="265.025" x2="658.295" y2="447.871" gradientUnits="userSpaceOnUse" spreadMethod="pad" id="fill4"><stop offset="0" stop-color="#64CCC9" stop-opacity="1"/><stop offset="1" stop-color="#00A3E0" stop-opacity="1"/><stop offset="1" stop-color="#00A3E0" stop-opacity="1"/></linearGradient></defs><g clip-path="url(#clip0)" transform="translate(-544 -264)"><g clip-path="url(#clip1)"><g clip-path="url(#clip2)"><g clip-path="url(#clip3)"><path d="M640 455C692.467 455 735 412.467 735 360 735 307.533 692.467 265 640 265 587.533 265 545 307.533 545 360 545 412.467 587.533 455 640 455ZM694.352 331.414C697.968 337.78 700.313 344.627 701.33 351.671 702.432 359.168 702.008 366.864 700.031 374.361 697.997 382.254 694.295 389.808 688.984 396.513 683.475 403.501 676.355 409.414 667.823 413.686 667.031 414.082 666.24 414.45 665.421 414.818 664.602 415.186 663.783 415.525 662.964 415.864L662.963 415.865C662.144 416.204 661.296 416.516 660.449 416.827 659.601 417.138 658.753 417.421 657.877 417.675 657.861 417.692 657.854 417.699 657.846 417.702 657.84 417.704 657.833 417.704 657.821 417.704L653.95 403.077 647.735 379.595 647.141 379.765 646.548 379.935C646.35 379.963 646.152 380.019 645.955 380.076 645.757 380.104 645.559 380.161 645.362 380.217L639.824 381.604 643.016 395.466 633.495 397.871 630.811 383.867 611.543 388.733 610.074 375.521 618.719 373.343 612.729 332.999 605.581 334.781 604.677 326.52 619.171 322.899 617.137 312.261C612.814 314.27 608.859 316.816 605.355 319.758 601.767 322.757 598.603 326.237 596.004 330.085 593.291 334.017 591.144 338.374 589.647 343.014 588.093 347.824 587.274 353.001 587.358 358.376 587.387 361.234 587.697 364.091 588.262 366.892 588.827 369.778 589.675 372.579 590.805 375.295 591.935 378.067 593.376 380.755 595.071 383.33 596.823 385.961 598.857 388.45 601.174 390.742L606.203 383.245 608.152 404.548 588.602 409.499 593.885 401.634C591.059 398.635 588.602 395.438 586.511 392.043 584.477 388.761 582.838 385.31 581.538 381.773 580.267 378.322 579.363 374.814 578.798 371.221 578.233 367.741 578.007 364.204 578.091 360.668 578.204 357.047 578.6 353.51 579.334 350.087 580.041 346.749 581.03 343.523 582.273 340.411 583.488 337.384 584.929 334.47 586.624 331.669 588.262 328.953 590.155 326.35 592.218 323.889 593.885 321.909 595.665 320.07 597.529 318.344 599.366 316.618 601.287 315.034 603.321 313.591 605.327 312.148 607.389 310.818 609.509 309.602 611.628 308.413 613.803 307.338 616.063 306.376 616.303 306.277 616.55 306.178 616.798 306.079 617.045 305.98 617.292 305.881 617.532 305.782 617.644 305.739 617.755 305.695 617.865 305.652 618.254 305.498 618.633 305.349 619.03 305.216 619.51 305.018 620.019 304.849 620.527 304.679 620.781 304.594 621.036 304.516 621.29 304.439 621.544 304.361 621.799 304.283 622.053 304.198L626.008 321.201 630.161 320.154C630.232 320.14 630.31 320.119 630.387 320.098 630.465 320.077 630.543 320.055 630.613 320.041 630.684 320.027 630.762 320.006 630.84 319.985 630.917 319.963 630.995 319.942 631.065 319.928 631.161 319.912 631.247 319.887 631.33 319.864 631.394 319.845 631.456 319.827 631.518 319.815 631.659 319.758 631.8 319.73 631.941 319.702L631.969 319.702 630.077 312.601 636.603 310.96 638.807 318.287C639.202 318.231 639.598 318.174 639.965 318.117 640.333 318.061 640.7 318.004 641.039 317.976 641.35 317.924 641.661 317.896 641.95 317.87L642.028 317.863C642.231 317.826 642.433 317.813 642.628 317.801 642.732 317.794 642.834 317.788 642.932 317.778 643.666 317.721 644.373 317.75 645.107 317.806 645.813 317.891 646.548 318.004 647.254 318.174 647.989 318.344 648.695 318.57 649.402 318.853 650.108 319.136 650.814 319.475 651.521 319.871 651.577 319.9 651.634 319.935 651.69 319.971 651.747 320.006 651.803 320.041 651.86 320.07 651.916 320.098 651.973 320.133 652.029 320.169 652.086 320.204 652.142 320.239 652.199 320.268 652.255 320.296 652.305 320.331 652.354 320.367 652.404 320.402 652.453 320.437 652.509 320.466 652.566 320.508 652.615 320.544 652.665 320.579 652.714 320.614 652.764 320.65 652.82 320.692 653.357 321.06 653.866 321.484 654.346 321.909 654.826 322.361 655.25 322.814 655.645 323.323 656.041 323.832 656.408 324.37 656.719 324.936 657.03 325.502 657.312 326.096 657.567 326.746 658.047 327.991 658.33 329.179 658.386 330.339 658.471 331.528 658.301 332.659 657.934 333.763 657.567 334.866 656.973 335.941 656.154 336.96 655.335 338.006 654.261 338.997 652.99 339.93 655.109 340.072 657.03 340.411 658.781 340.949 660.562 341.486 662.144 342.222 663.556 343.155 664.969 344.117 666.24 345.249 667.314 346.607 668.388 347.993 669.32 349.578 670.055 351.417 670.478 352.492 670.817 353.538 671.072 354.585 671.326 355.632 671.495 356.679 671.552 357.726 671.608 358.772 671.58 359.819 671.439 360.838 671.298 361.856 671.072 362.875 670.732 363.893 670.393 364.912 669.97 365.874 669.489 366.779 668.981 367.684 668.416 368.561 667.766 369.382 667.116 370.202 666.41 370.966 665.591 371.673 664.771 372.381 663.895 373.031 662.935 373.625 662.851 373.676 662.766 373.727 662.68 373.779 662.331 373.991 661.964 374.213 661.579 374.418 661.098 374.701 660.59 374.955 660.053 375.21 659.517 375.464 658.952 375.719 658.387 375.973L658.386 375.974C657.821 376.2 657.2 376.454 656.579 376.709L656.578 376.709 663.387 399.06C669.913 395.523 675.394 390.798 679.689 385.338 683.842 380.048 686.808 374.135 688.532 367.967 690.199 362.082 690.707 356 690.057 350.059 689.464 344.4 687.825 338.912 685.17 333.763 683.842 331.16 682.288 328.755 680.564 326.52 678.898 324.342 677.033 322.333 675.027 320.494 673.078 318.683 670.959 317.071 668.727 315.599 666.551 314.157 664.234 312.912 661.805 311.808L658.923 316.335 654.487 305.782 667.738 302.472 665.449 306.065C668.331 307.254 671.128 308.668 673.784 310.281 676.496 311.922 679.067 313.789 681.497 315.854 683.983 317.976 686.3 320.324 688.419 322.87 690.622 325.502 692.6 328.359 694.352 331.414ZM627.901 329.179 630.642 341.062 635.219 339.987C636.01 339.789 636.716 339.562 637.394 339.336 638.044 339.11 638.665 338.855 639.202 338.601 639.739 338.318 640.219 338.035 640.643 337.752 641.067 337.44 641.406 337.158 641.717 336.818 641.999 336.479 642.254 336.139 642.423 335.743 642.621 335.347 642.734 334.923 642.79 334.47 642.847 334.017 642.847 333.536 642.79 333.027 642.734 332.518 642.621 331.98 642.451 331.414 642.282 330.905 642.112 330.453 641.886 330.028 641.689 329.632 641.434 329.264 641.152 328.953 640.869 328.642 640.558 328.359 640.219 328.161 639.88 327.963 639.513 327.793 639.118 327.68 638.722 327.567 638.27 327.482 637.761 327.454 637.253 327.425 636.688 327.425 636.066 327.482 635.445 327.51 634.767 327.595 634.032 327.737 633.413 327.832 632.754 327.988 632.054 328.153 631.924 328.184 631.792 328.215 631.659 328.246L627.901 329.179ZM652.17 361.46C652.368 360.923 652.481 360.328 652.538 359.706 652.566 359.084 652.538 358.405 652.453 357.726 652.34 357.018 652.17 356.255 651.916 355.462 651.634 354.642 651.351 353.878 651.012 353.227 650.701 352.577 650.306 352.011 649.91 351.502 649.515 350.992 649.063 350.568 648.582 350.228 648.102 349.889 647.594 349.606 647.028 349.408 646.492 349.21 645.87 349.068 645.192 348.984 644.514 348.899 643.808 348.87 643.016 348.899 642.225 348.927 641.406 349.012 640.502 349.153 639.598 349.295 638.665 349.493 637.648 349.747L632.902 350.936 637.027 368.731 642.169 367.43C643.327 367.147 644.401 366.835 645.362 366.496 646.322 366.157 647.198 365.789 647.961 365.421 648.723 365.025 649.373 364.657 649.938 364.233 650.503 363.808 650.955 363.384 651.323 362.931 651.69 362.507 651.973 361.998 652.17 361.46Z" fill="url(#fill4)" fill-rule="evenodd"/></g></g></g></g></svg>