<?xml version="1.0" encoding="UTF-8"?><svg id="CIRCLE_OUTLINE_BLACK" xmlns="http://www.w3.org/2000/svg" viewBox="0 0 512 512"><circle cx="256" cy="256" r="256" fill="#ffe1f8"/><g><path d="M222.43773,158.37931c14.22282,2.21642,25.12084,7.75783,36.01886,18.28644,4.98721,4.80259,9.97442,10.52878,17.91721,21.05723,17.91721,23.82801,25.6752,30.29301,40.82162,35.28022,8.86604,2.9554,17.91721,4.2484,33.80243,5.172,17.54763,.9236,24.19724,2.21659,30.47763,6.465,3.50959,2.40121,6.09559,5.172,8.86604,9.4204l1.6624,2.40121-.36923-2.77079c-1.10838-10.34383-8.49681-24.93622-17.91721-35.46484l-1.6624-1.84719-.9236,3.879c-2.21642,9.7898-6.8344,16.80899-11.26759,16.80899-2.03164,0-4.2484-1.293-4.98721-3.14019-.9236-2.40121-.9236-3.14019,.55436-5.91081,2.77044-4.98721,3.32481-11.45221,2.03164-20.1338-.36923-2.40121-.9236-4.80242-1.29283-5.17183-.9236-1.10838-8.49681-5.5414-13.29923-7.758-17.54797-8.1274-38.6052-10.7134-59.1084-7.38859l-4.80242,.73898-3.32481-3.879c-12.74521-14.22282-24.75161-22.35022-38.05084-25.49042-5.72602-1.293-13.85359-2.03181-17.36318-1.47762-1.84719,.18462-1.6624,.3694,2.21677,.9236Z" fill="#ff007a" fill-rule="evenodd"/><path d="M350.44383,189.04155c11.26725,6.465,13.11444,10.344,13.11444,26.41401,0,7.94261-.18479,9.05083-1.10838,11.45221-1.29283,3.14002-1.10804,3.69421,.36957,.9236,2.77079-5.35679,3.87883-10.52878,4.06362-18.8408,0-5.35679,.18479-6.465,.9236-7.20381,.9236-.9236,1.10838-.9236,2.40121-.18479,2.03198,.9236,10.89802,7.94278,14.77719,11.637l3.14002,2.9554-3.14002-4.06379c-1.84719-2.21642-6.64961-7.57321-10.71357-11.82161-8.86604-9.05083-9.42006-10.15921-10.71323-18.47123-.9236-6.465-.73881-12.19102,.73881-16.2548,.55402-1.47762,.9236-2.77062,.73881-2.77062-.18445,0-.9236,1.47779-1.6624,3.14019-2.03164,4.2484-2.95523,8.86621-3.32481,15.88523-.18479,4.61781-.55402,6.09559-1.10804,6.64961-.73915,.18479-1.84719,0-8.31236-2.586-4.2484-1.84702-15.14642-4.98721-15.51565-4.61781-.18479,0,2.03164,1.10838,4.98721,2.40138,2.77079,1.293,7.57321,3.69421,10.344,5.35661Z" fill="#ff007a" fill-rule="evenodd"/><path d="M252.54578,224.87579c4.61798,.36957,5.91081-1.10821,3.87917-4.06362-2.95557-4.06362-6.46517-10.52861-7.38876-13.29923-.55402-1.66257-1.84719-6.8344-2.77044-11.26759-3.14036-15.14642-6.46517-21.24201-13.85359-25.67503-2.77079-1.6624-8.49681-3.879-11.82161-4.43319l-1.84719-.3694-.36957,3.879c-1.10804,12.3758,3.87917,28.99984,11.63717,39.71324,6.09559,8.31219,15.51565,14.77702,22.53484,15.51582Z" fill="#ff007a" fill-rule="evenodd"/><path d="M411.02951,298.02223c-3.32481-20.5032-17.1784-35.64962-39.52845-43.03805-7.01919-2.40138-14.77719-3.87917-28.2612-5.91081-23.0892-3.32498-31.40122-5.91098-38.78964-11.82178-1.6624-1.293-2.95557-2.40121-3.14002-2.40121,0,0-.18479,2.586-.18479,5.72619,0,21.61125,12.92965,34.35645,49.50287,49.13364,24.38237,9.78963,34.35679,14.77684,42.11445,21.42646,6.46517,5.72636,10.344,13.11478,10.71357,20.87278,0,1.47762,.36923,2.40121,.55402,2.40121,.9236-.18479,4.61798-8.68159,5.91081-13.29923,1.47762-5.91081,2.03198-17.1784,1.10838-23.0892Z" fill="#ff007a" fill-rule="evenodd"/><path d="M300.38659,333.11749c-1.84719,.73915-9.23561,2.21677-16.43959,3.32515-14.5924,2.586-21.24201,4.2484-27.70684,7.38842-4.61798,2.21642-10.344,5.54123-9.97442,5.91081,.18445,.18479,1.29283-.18479,2.40121-.55436,8.31202-2.95523,17.54763-4.43285,31.40122-5.17166,5.54123-.36957,11.82161-.9236,14.03804-1.10838,12.37563-1.6624,21.05723-5.35679,27.70684-12.19119,3.69438-3.87883,5.91081-7.38842,7.758-12.37563,1.10838-3.14002,1.29317-4.43319,1.29317-9.97442,0-5.72636,0-6.8344-1.29317-10.344-1.6624-4.61798-3.50959-7.94278-5.91081-10.71357l-1.6624-2.03164,.9236,2.77079c.55402,1.47762,1.47762,4.98721,1.84719,7.75766,2.95523,17.36318-6.09559,31.58601-24.38203,37.31203Z" fill="#ff007a" fill-rule="evenodd"/><path d="M389.97228,327.20668c-5.91081-7.20363-14.40761-13.48402-29.36924-21.61125-11.82195-6.46483-16.43959-9.05083-18.65601-10.52878-1.10838-.73881-2.21677-1.29283-2.586-1.29283-.36957,0-.73915,.9236-1.10838,1.84719-2.586,9.4204-1.47762,19.39482,3.32481,29.92326,2.586,5.35679,4.98721,9.23595,15.14642,24.0128,8.49681,12.74521,12.74521,20.31842,14.77719,26.5988,3.32481,10.15921,2.77044,19.21003-1.6624,28.63043-1.10838,2.21642-1.84719,4.06362-1.6624,4.06362,.18445,0,1.84685-.73881,3.87883-1.84719,13.48402-7.20363,22.71963-19.76405,26.78324-35.46484,1.29317-4.98721,1.84719-16.99361,.9236-21.98082-1.47762-8.86638-4.61764-16.07001-9.78963-22.3504Z" fill="#ff007a" fill-rule="evenodd"/><path d="M341.02343,427.50594c-9.78998,3.69438-19.7644,3.50959-25.49042-.73881-3.69438-2.77079-6.64961-7.94278-8.12757-14.5924-.18445-1.10838-1.10804-6.28038-1.84685-11.26759-2.03198-12.74521-4.06396-18.47123-8.49681-25.12084-4.61798-6.8344-13.48402-12.37563-23.27399-14.96163-6.09559-1.6624-17.1784-2.03198-23.82801-.9236-15.51565,2.586-32.32482,10.71323-45.99328,22.16561l-3.87917,3.69404,3.50959,.55436c18.47123,2.77044,23.45844,5.35644,36.38843,18.65567,7.38842,7.57321,9.97442,9.23595,16.07001,10.89836,9.05083,2.40121,17.91721-1.84719,21.05723-9.97476,1.29317-3.69404,1.10838-9.60485-.36957-12.56042-3.69404-7.20363-14.59206-9.4204-19.76405-4.2484-4.2484,4.2484-2.95557,10.89802,2.40121,12.0064q1.10838,.18479-.36957-.55402c-2.40121-1.10838-3.50925-2.586-3.50925-4.98721-.18479-5.72636,6.28004-8.68159,12.19085-6.09559,4.43319,2.03164,6.09559,4.61764,6.09559,9.05083,0,6.8344-5.91081,12.19119-12.74521,11.26759-3.69438-.55436-8.12723-2.77079-10.52844-5.54157-5.91115-6.64961-3.69438-17.54763,4.80242-21.61125,6.46483-3.14002,14.96163-2.21677,21.61125,2.03164,7.57321,4.98755,10.89802,9.4204,17.36318,24.38237,2.21642,4.98721,4.80242,10.344,6.09559,12.19085,6.09525,9.23561,13.66846,13.85359,22.53484,13.85359,4.98721,0,8.68159-.73881,13.29923-3.14002,3.32481-1.6624,8.31202-4.98721,7.94278-5.35679,0-.18479-1.47762,.36957-3.14002,.9236Z" fill="#ff007a" fill-rule="evenodd"/><path d="M201.93453,370.79909c4.43319-4.80242,5.54123-7.38842,5.54123-14.03838,0-4.2484-.18445-5.172-1.29283-7.75766-1.84719-4.06396-5.35679-7.38876-12.92999-12.56076-9.97442-6.83406-14.22282-12.37563-15.33121-19.76405-.9236-6.28038,.18479-10.52878,5.72636-22.16561,5.72602-12.0064,7.20363-16.99361,8.12723-29.18463,.55402-7.758,1.47762-10.89819,3.69438-13.2994,2.40121-2.586,4.43285-3.50959,10.15921-4.2484,9.42006-1.293,15.51565-3.69421,20.31842-8.31202,4.2484-3.879,6.09525-7.758,6.28004-13.48402l.18479-4.2484-2.40121-2.586c-8.68159-9.97442-128.92969-142.22892-129.48371-142.22892-.18479,0,2.77044,3.50959,6.28004,7.94261,43.03805,52.27383,109.35008,133.5475,112.67489,137.98052,2.77079,3.69421,1.6624,7.20381-2.95523,9.7898-2.586,1.47779-7.94278,2.9554-10.52878,2.9554-2.95523,0-6.46483-1.47762-8.86604-3.879-1.6624-1.6624-8.86638-12.19102-25.12118-37.49664-12.37563-19.39482-22.90442-35.46484-23.08886-35.64962q-.73915-.3694,21.79603,39.89803c14.22282,25.30563,18.8408,34.35662,18.8408,35.46484,0,2.40138-.73915,3.69421-3.69438,7.01902-4.98721,5.54157-7.20398,11.82178-8.86638,24.93639-1.84685,14.59223-6.8344,24.93605-21.05723,42.48403-8.31202,10.344-9.60485,12.19085-11.63682,16.43925-2.586,5.172-3.32481,8.12757-3.69438,14.77719-.36923,7.01919,.36957,11.45204,2.40155,18.10165,1.84685,5.91081,3.87883,9.78998,8.86604,17.36318,4.2484,6.64961,6.8344,11.63682,6.8344,13.48402,0,1.47762,.36957,1.47762,7.01919,0,15.88523-3.69438,28.99967-9.97442,36.20364-17.73242Zm-38.42041-23.27399c-1.84719,3.32515-5.35644,4.43319-7.94244,2.40155-1.6624-1.29317-1.6624-3.14036-.36957-5.172,1.29317-2.03198,1.10838-2.95557-.55402-3.87917-1.10838-.36923-1.47762-1.10838-1.47762-1.84719,0-2.77044,4.80242-3.69404,7.94244-1.6624,3.32481,2.21677,4.43319,6.64996,2.40121,10.15921Z" fill="#ff007a" fill-rule="evenodd"/><path d="M258.08736,264.77382c.92325-4.43302-2.95557-10.52861-8.31236-13.29923-2.77044-1.47779-8.49681-2.03198-11.45204-1.10838-4.43319,1.293-8.68159,6.09559-9.97442,10.89802-.73881,2.95557-.36957,8.31219,.9236,9.97459,2.03164,2.586,3.87883,3.32481,9.05083,3.32481,10.15921,0,18.8408-4.43302,19.7644-9.7898Zm-7.94278-5.172c-1.10838,1.47779-4.43319,2.95557-6.8344,2.95557-3.69438,0-7.57321-2.586-7.57321-4.98738,0-4.80259,7.57321-7.38842,12.56042-4.2484,2.77079,1.66257,3.32481,4.06379,1.84719,6.28021Z" fill="#ff007a" fill-rule="evenodd"/></g></svg>