<svg width="467" height="468" xmlns="http://www.w3.org/2000/svg" xmlns:xlink="http://www.w3.org/1999/xlink" overflow="hidden"><defs><clipPath id="clip0"><rect x="2012" y="1058" width="467" height="468"/></clipPath><clipPath id="clip1"><rect x="2051" y="1147" width="386" height="335"/></clipPath><clipPath id="clip2"><rect x="2051" y="1147" width="386" height="335"/></clipPath><clipPath id="clip3"><rect x="2051" y="1147" width="386" height="335"/></clipPath></defs><g clip-path="url(#clip0)" transform="translate(-2012 -1058)"><path d="M2013 1292C2013 1163.87 2116.87 1060 2245 1060 2373.13 1060 2477 1163.87 2477 1292 2477 1420.13 2373.13 1524 2245 1524 2116.87 1524 2013 1420.13 2013 1292Z" fill="#FFFFFF" fill-rule="evenodd" fill-opacity="1"/><g clip-path="url(#clip1)"><g clip-path="url(#clip2)"><g clip-path="url(#clip3)"><path d="M70.4877 1.64452 0.29488 149.085C-0.253375 150.21-0.00515177 151.562 0.907323 152.419L190.481 334.076C191.6 335.149 193.366 335.149 194.485 334.076L384.059 152.43C384.971 151.573 385.219 150.222 384.671 149.096L314.478 1.65586C314.016 0.644553 313.004-0.00292902 311.892 4.32645e-08L73.0962 0C71.9786-0.0139048 70.957 0.630106 70.4877 1.64452L70.4877 1.64452Z" fill="#50AF95" fill-rule="evenodd" fill-opacity="1" transform="matrix(1.00009 0 0 1 2052 1147.06)"/><path d="M216.839 164.225C215.478 164.328 208.446 164.747 192.761 164.747 180.285 164.747 171.427 164.373 168.32 164.225 120.107 162.105 84.1202 153.712 84.1202 143.663 84.1202 133.615 120.107 125.233 168.32 123.078L168.32 155.867C171.473 156.094 180.501 156.627 192.976 156.627 207.947 156.627 215.444 156.003 216.794 155.878L216.794 123.101C264.904 125.245 300.812 133.637 300.812 143.663 300.812 153.689 264.916 162.082 216.794 164.214ZM216.839 119.71 216.839 90.3694 283.981 90.3694 283.981 45.627 101.178 45.627 101.178 90.3694 168.308 90.3694 168.308 119.699C113.744 122.205 72.7106 133.014 72.7106 145.966 72.7106 158.918 113.744 169.715 168.308 172.233L168.308 266.254 216.828 266.254 216.828 172.199C271.267 169.692 312.233 158.895 312.233 145.954 312.233 133.014 271.301 122.216 216.828 119.699Z" fill="#FFFFFF" fill-rule="evenodd" fill-opacity="1" transform="matrix(1.00009 0 0 1 2052 1147.06)"/></g></g></g></g></svg>