<svg width="206" height="213" viewBox="0 0 206 213" fill="none" xmlns="http://www.w3.org/2000/svg">
<g filter="url(#filter0_dddddd_1320_2456)">
<path d="M179.843 77.3215C179.843 119.761 145.439 154.165 102.999 154.165C60.5599 154.165 26.1559 119.761 26.1559 77.3215C26.1559 34.8821 60.5599 0.478197 102.999 0.478197C145.439 0.478197 179.843 34.8821 179.843 77.3215Z" fill="url(#paint0_linear_1320_2456)"/>
<path d="M179.843 77.3215C179.843 119.761 145.439 154.165 102.999 154.165C60.5599 154.165 26.1559 119.761 26.1559 77.3215C26.1559 34.8821 60.5599 0.478197 102.999 0.478197C145.439 0.478197 179.843 34.8821 179.843 77.3215Z" stroke="url(#paint1_linear_1320_2456)" stroke-width="0.956393"/>
<path d="M179.843 77.3215C179.843 119.761 145.439 154.165 102.999 154.165C60.5599 154.165 26.1559 119.761 26.1559 77.3215C26.1559 34.8821 60.5599 0.478197 102.999 0.478197C145.439 0.478197 179.843 34.8821 179.843 77.3215Z" stroke="url(#paint2_linear_1320_2456)" stroke-opacity="0.2" stroke-width="0.956393"/>
<path d="M179.843 77.3215C179.843 119.76 145.439 154.164 103 154.164C60.5614 154.164 26.1579 119.76 26.1579 77.3215C26.1579 34.8827 60.5614 0.479173 103 0.479173C145.439 0.479173 179.843 34.8827 179.843 77.3215Z" fill="#E8E8E8"/>
<path d="M179.843 77.3215C179.843 119.76 145.439 154.164 103 154.164C60.5614 154.164 26.1579 119.76 26.1579 77.3215C26.1579 34.8827 60.5614 0.479173 103 0.479173C145.439 0.479173 179.843 34.8827 179.843 77.3215Z" stroke="url(#paint3_linear_1320_2456)" stroke-width="0.956393"/>
<path d="M179.843 77.3215C179.843 119.76 145.439 154.164 103 154.164C60.5614 154.164 26.1579 119.76 26.1579 77.3215C26.1579 34.8827 60.5614 0.479173 103 0.479173C145.439 0.479173 179.843 34.8827 179.843 77.3215Z" stroke="url(#paint4_linear_1320_2456)" stroke-opacity="0.2" stroke-width="0.956393"/>
<path d="M63.7682 60.8319C63.5358 61.5933 63.2144 62.7948 63.2144 62.7948C63.2144 62.8046 63.2095 62.8195 63.2045 62.8294C62.3294 66.0579 61.8647 69.3507 61.8647 72.6237C61.8647 72.8561 61.8647 73.0835 61.8647 73.311C61.9141 77.3157 61.4197 81.2958 60.5248 85.1918L60.1243 86.7887C58.0725 85.9878 55.9712 84.465 53.9639 81.9237C48.3968 74.8684 50.2509 63.5512 57.1183 60.8863C59.8079 59.8431 62.0377 60.1101 63.7632 60.827L63.7682 60.8319Z" fill="url(#paint5_linear_1320_2456)"/>
<path d="M152.039 81.9281C150.046 84.4496 147.96 85.9724 145.923 86.7733L145.532 85.1912C144.642 81.2903 144.148 77.3152 144.192 73.3104C144.192 73.083 144.192 72.8556 144.192 72.6232C144.192 69.3353 143.727 66.0277 142.842 62.7893L142.244 60.8265C143.965 60.1145 146.195 59.8525 148.879 60.8907C155.747 63.5556 157.601 74.8728 152.034 81.9281H152.039Z" fill="url(#paint6_linear_1320_2456)"/>
<path d="M140.942 84.2462C140.146 80.7655 139.706 77.2206 139.746 73.646C139.746 73.4433 139.746 73.2406 139.746 73.0329C139.746 70.101 139.33 67.1494 138.539 64.262L137.837 61.9679C137.407 60.7022 136.908 59.4563 136.349 58.2301C135.939 57.3352 135.499 56.4552 135.019 55.585C130.787 47.8474 124.048 41.2519 116.182 37.6229C115.025 37.089 112.449 31.1758 112.449 31.1758L106.388 34.8147C106.145 34.785 105.903 34.7603 105.656 34.7405C105.206 34.7009 104.766 34.6713 104.311 34.6515L102.279 29.7617C94.8083 32.308 90.3982 37.3411 88.9545 38.0531C81.4789 41.7562 75.0861 48.1441 71.0171 55.585C70.5425 56.4552 70.0975 57.3352 69.6871 58.2301C69.1235 59.4563 68.6241 60.7071 68.194 61.9728C68.1198 61.9283 67.4969 64.2669 67.4969 64.2669C67.4969 64.2768 67.4919 64.2867 67.487 64.3016C66.7058 67.179 66.2905 70.1208 66.2905 73.0378C66.2905 73.2455 66.2905 73.4482 66.2905 73.6509C66.335 77.2255 65.89 80.7705 65.094 84.2512L64.4266 86.9408C64.3969 87.0693 64.3672 87.193 64.3425 87.3215C63.942 89.1459 63.7344 91.0148 63.7344 92.9281C63.7344 106.005 73.3804 117.248 87.1993 122.198C90.3487 123.33 93.7107 124.131 97.231 124.551C98.9812 124.759 100.766 124.877 102.585 124.892C102.724 124.892 102.867 124.892 103.011 124.892C124.696 124.892 142.277 110.579 142.277 92.9232C142.277 91.0098 142.074 89.136 141.674 87.3166C141.644 87.188 141.62 87.0644 141.59 86.9408L140.922 84.2462H140.942Z" fill="url(#paint7_linear_1320_2456)"/>
</g>
<defs>
<filter id="filter0_dddddd_1320_2456" x="0.173912" y="0" width="205.65" height="212.027" filterUnits="userSpaceOnUse" color-interpolation-filters="sRGB">
<feFlood flood-opacity="0" result="BackgroundImageFix"/>
<feColorMatrix in="SourceAlpha" type="matrix" values="0 0 0 0 0 0 0 0 0 0 0 0 0 0 0 0 0 0 127 0" result="hardAlpha"/>
<feOffset dy="0.882195"/>
<feGaussianBlur stdDeviation="0.352878"/>
<feColorMatrix type="matrix" values="0 0 0 0 0 0 0 0 0 0 0 0 0 0 0 0 0 0 0.0365489 0"/>
<feBlend mode="normal" in2="BackgroundImageFix" result="effect1_dropShadow_1320_2456"/>
<feColorMatrix in="SourceAlpha" type="matrix" values="0 0 0 0 0 0 0 0 0 0 0 0 0 0 0 0 0 0 127 0" result="hardAlpha"/>
<feOffset dy="2.12004"/>
<feGaussianBlur stdDeviation="0.848015"/>
<feColorMatrix type="matrix" values="0 0 0 0 0 0 0 0 0 0 0 0 0 0 0 0 0 0 0.0525061 0"/>
<feBlend mode="normal" in2="effect1_dropShadow_1320_2456" result="effect2_dropShadow_1320_2456"/>
<feColorMatrix in="SourceAlpha" type="matrix" values="0 0 0 0 0 0 0 0 0 0 0 0 0 0 0 0 0 0 127 0" result="hardAlpha"/>
<feOffset dy="3.99184"/>
<feGaussianBlur stdDeviation="1.59674"/>
<feColorMatrix type="matrix" values="0 0 0 0 0 0 0 0 0 0 0 0 0 0 0 0 0 0 0.065 0"/>
<feBlend mode="normal" in2="effect2_dropShadow_1320_2456" result="effect3_dropShadow_1320_2456"/>
<feColorMatrix in="SourceAlpha" type="matrix" values="0 0 0 0 0 0 0 0 0 0 0 0 0 0 0 0 0 0 127 0" result="hardAlpha"/>
<feOffset dy="7.12077"/>
<feGaussianBlur stdDeviation="2.84831"/>
<feColorMatrix type="matrix" values="0 0 0 0 0 0 0 0 0 0 0 0 0 0 0 0 0 0 0.0774939 0"/>
<feBlend mode="normal" in2="effect3_dropShadow_1320_2456" result="effect4_dropShadow_1320_2456"/>
<feColorMatrix in="SourceAlpha" type="matrix" values="0 0 0 0 0 0 0 0 0 0 0 0 0 0 0 0 0 0 127 0" result="hardAlpha"/>
<feOffset dy="13.3186"/>
<feGaussianBlur stdDeviation="5.32744"/>
<feColorMatrix type="matrix" values="0 0 0 0 0 0 0 0 0 0 0 0 0 0 0 0 0 0 0.0934511 0"/>
<feBlend mode="normal" in2="effect4_dropShadow_1320_2456" result="effect5_dropShadow_1320_2456"/>
<feColorMatrix in="SourceAlpha" type="matrix" values="0 0 0 0 0 0 0 0 0 0 0 0 0 0 0 0 0 0 127 0" result="hardAlpha"/>
<feOffset dy="31.8798"/>
<feGaussianBlur stdDeviation="12.7519"/>
<feColorMatrix type="matrix" values="0 0 0 0 0 0 0 0 0 0 0 0 0 0 0 0 0 0 0.13 0"/>
<feBlend mode="normal" in2="effect5_dropShadow_1320_2456" result="effect6_dropShadow_1320_2456"/>
<feBlend mode="normal" in="SourceGraphic" in2="effect6_dropShadow_1320_2456" result="shape"/>
</filter>
<linearGradient id="paint0_linear_1320_2456" x1="-1204.65" y1="-322.125" x2="305.892" y2="-847.564" gradientUnits="userSpaceOnUse">
<stop stop-color="#1B1A1D"/>
<stop offset="0.300869" stop-color="#3E3B7A"/>
<stop offset="0.639638" stop-color="#6560C5"/>
<stop offset="1" stop-color="#E07753"/>
</linearGradient>
<linearGradient id="paint1_linear_1320_2456" x1="102.999" y1="0" x2="102.999" y2="154.643" gradientUnits="userSpaceOnUse">
<stop stop-color="white" stop-opacity="0.17"/>
<stop offset="1" stop-color="white" stop-opacity="0"/>
</linearGradient>
<linearGradient id="paint2_linear_1320_2456" x1="138.792" y1="149.481" x2="80.6366" y2="7.32197" gradientUnits="userSpaceOnUse">
<stop/>
<stop offset="1" stop-opacity="0"/>
</linearGradient>
<linearGradient id="paint3_linear_1320_2456" x1="103" y1="0.000976562" x2="103" y2="154.642" gradientUnits="userSpaceOnUse">
<stop stop-color="white" stop-opacity="0.17"/>
<stop offset="1" stop-color="white" stop-opacity="0"/>
</linearGradient>
<linearGradient id="paint4_linear_1320_2456" x1="138.793" y1="149.48" x2="80.6378" y2="7.32285" gradientUnits="userSpaceOnUse">
<stop/>
<stop offset="1" stop-opacity="0"/>
</linearGradient>
<linearGradient id="paint5_linear_1320_2456" x1="-53.346" y1="4.79763" x2="85.7721" y2="-18.9972" gradientUnits="userSpaceOnUse">
<stop stop-color="#1B1A1D"/>
<stop offset="0.300869" stop-color="#3E3B7A"/>
<stop offset="0.639638" stop-color="#6560C5"/>
<stop offset="1" stop-color="#E07753"/>
</linearGradient>
<linearGradient id="paint6_linear_1320_2456" x1="38.3247" y1="4.84772" x2="177.288" y2="-18.9126" gradientUnits="userSpaceOnUse">
<stop stop-color="#1B1A1D"/>
<stop offset="0.300869" stop-color="#3E3B7A"/>
<stop offset="0.639638" stop-color="#6560C5"/>
<stop offset="1" stop-color="#E07753"/>
</linearGradient>
<linearGradient id="paint7_linear_1320_2456" x1="-561.144" y1="-168.397" x2="233.353" y2="-396.573" gradientUnits="userSpaceOnUse">
<stop stop-color="#1B1A1D"/>
<stop offset="0.300869" stop-color="#3E3B7A"/>
<stop offset="0.639638" stop-color="#6560C5"/>
<stop offset="1" stop-color="#E07753"/>
</linearGradient>
</defs>
</svg>
