<svg width="192" height="195" xmlns="http://www.w3.org/2000/svg" xmlns:xlink="http://www.w3.org/1999/xlink" xml:space="preserve" overflow="hidden"><defs><clipPath id="clip0"><rect x="256" y="341" width="192" height="195"/></clipPath><clipPath id="clip1"><rect x="256" y="342" width="192" height="193"/></clipPath><clipPath id="clip2"><rect x="256" y="342" width="192" height="193"/></clipPath><clipPath id="clip3"><rect x="256" y="342" width="192" height="251"/></clipPath></defs><g clip-path="url(#clip0)" transform="translate(-256 -341)"><g clip-path="url(#clip1)"><g clip-path="url(#clip2)"><g clip-path="url(#clip3)"><path d="M24.5933-52.6024 36.4345-52.6024 26.415 0 10.5508 0 0.379526-52.6024 11.993-52.6024C14.928-35.8526 16.6233-25.7319 17.0787-22.2402 17.5341-18.7486 18.0402-14.6244 18.5968-9.86769 19.5583-18.923 20.3932-25.7039 21.1017-30.2103ZM59.8893-39.1671C59.8893-41.6973 58.3838-42.9624 55.3729-42.9624 52.362-42.9624 50.8565-41.6973 50.8565-39.1671L50.8565-13.4352C50.8565-10.9051 52.362-9.63997 55.3729-9.63997 58.3838-9.63997 59.8893-10.9051 59.8893-13.4352ZM39.4707-39.7744C39.2985-43.5057 40.7685-47.1254 43.4937-49.68 46.1757-52.1343 50.1228-53.3614 55.3349-53.3614 60.5471-53.3614 64.5075-52.1343 67.2161-49.68 69.9622-47.1371 71.4478-43.5131 71.2771-39.7744L71.277-12.828C71.4478-9.08926 69.9621-5.4653 67.2161-2.92235 64.5075-0.468082 60.5458 0.759053 55.3309 0.759053 50.1161 0.759053 46.1704-0.468082 43.4937-2.92235 40.7685-5.47695 39.2985-9.09665 39.4707-12.828ZM96.7792-52.6024 109.076-52.6024 97.766-26.1873 109.076 0 96.7033 0 91.8454-14.3461 86.6838 0 74.3073 0 85.5452-26.1873 74.3073-52.6024 86.6079-52.6024 91.8454-38.1044ZM112.871-52.6024 124.409-52.6024 124.409 0 112.871 0ZM131.24-52.6024 157.883-52.6024 157.883-42.7347 142.622-42.7347 142.622-31.5766 155.83-31.5766 155.83-21.7089 142.622-21.7089 142.622-9.86769 157.883-9.86769 157.883 0 131.236 0ZM161.303-40.3057C161.303-44.354 162.668-47.4787 165.398-49.68 168.128-51.8813 172.062-52.9819 177.201-52.9819 182.337-52.9819 186.17-52.4492 188.701-51.3839L188.701-40.4535C185.354-41.8192 181.764-42.4906 178.15-42.4271 176.126-42.4271 174.761-42.1108 174.055-41.4782 173.319-40.781 172.93-39.7935 172.992-38.7816L172.992-37.643C172.913-36.5446 173.164-35.4475 173.713-34.493 174.588-33.5073 175.661-32.7182 176.863-32.1778L185.516-27.3199C189.431-25.4307 191.869-21.4171 191.741-17.0727L191.741-12.3666C191.925-8.64762 190.21-5.08907 187.186-2.91636 184.148-0.719103 179.883 0.379526 174.392 0.379526 168.902 0.379526 164.765-0.202414 161.982-1.36629L161.982-12.3726C165.688-10.8556 169.663-10.1081 173.667-10.1753 178.019-10.1753 180.195-11.4151 180.195-13.8947L180.195-15.0332C180.264-15.9632 180.009-16.8884 179.474-17.652 178.698-18.4529 177.785-19.1084 176.777-19.5876L168.656-23.9901C163.747-26.72 161.293-30.5659 161.293-35.5277Z" fill="#FFFFFF" fill-rule="nonzero" fill-opacity="1" transform="matrix(1 0 0 1.00095 255.942 591.477)"/><path d="M1723.34 4970.63 1733.32 4964.73C1759.59 4949.22 1775.71 4920.99 1775.7 4890.49 1775.7 4890.42 1775.68 4882.97 1775.5 4880.3L1774.84 4870.62 1764.77 4863.96C1753.82 4856.72 1741.96 4850.97 1729.49 4846.85L1723.34 4844.82" fill="#D0D7E2" fill-rule="nonzero" fill-opacity="1" transform="matrix(1 0 0 1.00095 -1370.72 -4457.92)"/><path d="M1733.24 4844.81 1727.09 4846.85C1714.62 4850.97 1702.76 4856.72 1691.81 4863.96L1681.74 4870.62 1681.08 4880.3C1680.91 4882.92 1680.88 4890.41 1680.88 4890.49 1680.87 4920.99 1696.99 4949.22 1723.26 4964.72L1733.24 4970.62" fill="#ECF0F7" fill-rule="nonzero" fill-opacity="1" transform="matrix(1 0 0 1.00095 -1380.62 -4457.92)"/><path d="M1303.35-3477.97 1303.35-3477.72 1290.39-3503.45 1294.48-3588.45 1297-3589.29 1296.82-3592.51 1302.32-3591.06 1303.34-3591.4 1303.36-3591.4 1303.36-3590.79 1312.24-3588.45 1316.33-3503.45 1303.36-3477.72Z" fill="#0028BA" fill-rule="nonzero" fill-opacity="1" transform="matrix(1 0 0 1.00095 -950.741 3976.26)"/><path d="M1723.38 4808.11C1727.76 4808.12 1731.3 4811.67 1731.3 4816.05 1731.3 4818.54 1730.13 4820.88 1728.14 4822.38L1730.82 4841.88C1740.22 4845.06 1749.3 4849.15 1757.92 4854.07L1754.72 4859.2C1746.3 4854.46 1737.44 4850.55 1728.27 4847.52L1723.35 4845.89 1723.35 4845.1 1723.35 4808.11Z" fill="#EDB726" fill-rule="nonzero" fill-opacity="1" transform="matrix(1 0 0 1.00095 -1370.73 -4470.66)"/><path d="M1722.4 4841.88 1725.13 4822.37C1721.64 4819.73 1720.94 4814.76 1723.58 4811.26 1725.07 4809.29 1727.4 4808.12 1729.88 4808.11L1729.88 4839.41 1729.88 4845.9 1724.95 4847.52C1715.78 4850.56 1706.92 4854.47 1698.51 4859.21L1695.3 4854.07C1703.92 4849.15 1713 4845.07 1722.4 4841.88Z" fill="#FFC731" fill-rule="nonzero" fill-opacity="1" transform="matrix(1 0 0 1.00095 -1377.26 -4470.66)"/><path d="M1723.34 4970.63 1733.32 4964.73C1759.59 4949.22 1775.71 4920.99 1775.7 4890.49 1775.7 4890.42 1775.68 4882.97 1775.5 4880.3L1774.84 4870.62 1764.77 4863.96C1753.82 4856.72 1741.96 4850.97 1729.49 4846.85L1723.34 4844.82" fill="#D0D7E2" fill-rule="nonzero" fill-opacity="1" transform="matrix(1 0 0 1.00095 -1370.72 -4457.92)"/><path d="M1733.24 4844.81 1727.09 4846.85C1714.62 4850.97 1702.76 4856.72 1691.81 4863.96L1681.74 4870.62 1681.08 4880.3C1680.91 4882.92 1680.88 4890.41 1680.88 4890.49 1680.87 4920.99 1696.99 4949.22 1723.26 4964.72L1733.24 4970.62" fill="#ECF0F7" fill-rule="nonzero" fill-opacity="1" transform="matrix(1 0 0 1.00095 -1380.62 -4457.92)"/><path d="M1303.35-3477.97 1303.35-3477.72 1290.39-3503.45 1294.48-3588.45 1297-3589.29 1296.82-3592.51 1302.32-3591.06 1303.34-3591.4 1303.36-3591.4 1303.36-3590.79 1312.24-3588.45 1316.33-3503.45 1303.36-3477.72Z" fill="#0028BA" fill-rule="nonzero" fill-opacity="1" transform="matrix(1 0 0 1.00095 -950.741 3976.26)"/><path d="M1723.38 4808.11C1727.76 4808.12 1731.3 4811.67 1731.3 4816.05 1731.3 4818.54 1730.13 4820.88 1728.14 4822.38L1730.82 4841.88C1740.22 4845.06 1749.3 4849.15 1757.92 4854.07L1754.72 4859.2C1746.3 4854.46 1737.44 4850.55 1728.27 4847.52L1723.35 4845.89 1723.35 4845.1 1723.35 4808.11Z" fill="#EDB726" fill-rule="nonzero" fill-opacity="1" transform="matrix(1 0 0 1.00095 -1370.73 -4470.66)"/><path d="M1722.4 4841.88 1725.13 4822.37C1721.64 4819.73 1720.94 4814.76 1723.58 4811.26 1725.07 4809.29 1727.4 4808.12 1729.88 4808.11L1729.88 4839.41 1729.88 4845.9 1724.95 4847.52C1715.78 4850.56 1706.92 4854.47 1698.51 4859.21L1695.3 4854.07C1703.92 4849.15 1713 4845.07 1722.4 4841.88Z" fill="#FFC731" fill-rule="nonzero" fill-opacity="1" transform="matrix(1 0 0 1.00095 -1377.26 -4470.66)"/><path d="M1723.34 4970.63 1733.32 4964.73C1759.59 4949.22 1775.71 4920.99 1775.7 4890.49 1775.7 4890.42 1775.68 4882.97 1775.5 4880.3L1774.84 4870.62 1764.77 4863.96C1753.82 4856.72 1741.96 4850.97 1729.49 4846.85L1723.34 4844.82" fill="#D0D7E2" fill-rule="nonzero" fill-opacity="1" transform="matrix(1 0 0 1.00095 -1370.72 -4457.92)"/><path d="M1733.24 4844.81 1727.09 4846.85C1714.62 4850.97 1702.76 4856.72 1691.81 4863.96L1681.74 4870.62 1681.08 4880.3C1680.91 4882.92 1680.88 4890.41 1680.88 4890.49 1680.87 4920.99 1696.99 4949.22 1723.26 4964.72L1733.24 4970.62" fill="#FFFFFF" fill-rule="nonzero" fill-opacity="1" transform="matrix(1 0 0 1.00095 -1380.62 -4457.92)"/><path d="M1303.35-3477.97 1303.35-3477.72 1290.39-3503.45 1294.48-3588.45 1297-3589.29 1296.82-3592.51 1302.32-3591.06 1303.34-3591.4 1303.36-3591.4 1303.36-3590.79 1312.24-3588.45 1316.33-3503.45 1303.36-3477.72Z" fill="#0028BA" fill-rule="nonzero" fill-opacity="1" transform="matrix(1 0 0 1.00095 -950.741 3976.26)"/><path d="M1723.38 4808.11C1727.76 4808.12 1731.3 4811.67 1731.3 4816.05 1731.3 4818.54 1730.13 4820.88 1728.14 4822.38L1730.82 4841.88C1740.22 4845.06 1749.3 4849.15 1757.92 4854.07L1754.72 4859.2C1746.3 4854.46 1737.44 4850.55 1728.27 4847.52L1723.35 4845.89 1723.35 4845.1 1723.35 4808.11Z" fill="#EDB726" fill-rule="nonzero" fill-opacity="1" transform="matrix(1 0 0 1.00095 -1370.73 -4470.66)"/><path d="M1722.4 4841.88 1725.13 4822.37C1721.64 4819.73 1720.94 4814.76 1723.58 4811.26 1725.07 4809.29 1727.4 4808.12 1729.88 4808.11L1729.88 4839.41 1729.88 4845.9 1724.95 4847.52C1715.78 4850.56 1706.92 4854.47 1698.51 4859.21L1695.3 4854.07C1703.92 4849.15 1713 4845.07 1722.4 4841.88Z" fill="#FFC731" fill-rule="nonzero" fill-opacity="1" transform="matrix(1 0 0 1.00095 -1377.26 -4470.66)"/></g></g></g></g></svg>