<svg width="96" height="96" viewBox="0 0 96 96" fill="none" xmlns="http://www.w3.org/2000/svg">
<circle cx="48" cy="48" r="48" fill="#0B0E11"/>
<path d="M30.9007 25.9057L47.8087 16.0637L64.7168 25.9057L58.5006 29.5416L47.8087 23.3355L37.1169 29.5416L30.9007 25.9057ZM64.7168 38.3179L58.5006 34.682L47.8087 40.8881L37.1169 34.682L30.9007 38.3179V45.5897L41.5925 51.7958V64.2079L47.8087 67.8438L54.0249 64.2079V51.7958L64.7168 45.5897V38.3179ZM64.7168 58.0018V50.7301L58.5006 54.366V61.6377L64.7168 58.0018ZM69.1304 60.572L58.4385 66.7781V74.0499L75.3466 64.2079V44.524L69.1304 48.1599V60.572ZM62.9141 32.1118L69.1304 35.7477V43.0195L75.3466 39.3836V32.1118L69.1304 28.4759L62.9141 32.1118ZM41.5925 69.411V76.6828L47.8087 80.3187L54.0249 76.6828V69.411L47.8087 73.0469L41.5925 69.411ZM30.9007 58.0018L37.1169 61.6377V54.366L30.9007 50.7301V58.0018ZM41.5925 32.1118L47.8087 35.7477L54.0249 32.1118L47.8087 28.4759L41.5925 32.1118ZM26.4871 35.7477L32.7033 32.1118L26.4871 28.4759L20.2709 32.1118V39.3836L26.4871 43.0195V35.7477ZM26.4871 48.1599L20.2709 44.524V64.2079L37.1789 74.0499V66.7781L26.4871 60.572V48.1599Z" fill="#F1B90C"/>
</svg>
