<?xml version="1.0" encoding="utf-8"?>
<!-- Generator: Adobe Illustrator 23.0.1, SVG Export Plug-In . SVG Version: 6.00 Build 0)  -->
<svg version="1.1" id="Layer_1" xmlns="http://www.w3.org/2000/svg" xmlns:xlink="http://www.w3.org/1999/xlink" x="0px" y="0px"
	 viewBox="0 0 2400 2615" style="enable-background:new 0 0 2400 2615;" xml:space="preserve">
<style type="text/css">
	.st0{fill-rule:evenodd;clip-rule:evenodd;fill:#001469;}
	.st1{fill-rule:evenodd;clip-rule:evenodd;fill:#FF6600;}
</style>
<path class="st0" d="M2060,2225.6v44.5h-137.2h-37.6v-258.3h56H2060v44.5h-118.9v59.5H2043v43.4h-101.8v66.4L2060,2225.6
	L2060,2225.6z M1793.5,2135.3c0-25.2-5.8-44.5-15.9-58.2c-10.2-13.7-26.3-19.5-45.8-19.5h-25.2V2227h23.9c20.6,0,35.4-6.9,46.9-20.6
	c10.2-13.7,15.9-33.2,15.9-58.2L1793.5,2135.3L1793.5,2135.3z M1793.5,2026.7c18.4,10.2,32.1,25.2,42.3,43.4
	c10.2,18.1,14.8,40.1,14.8,64v11.5c0,23.9-4.6,45.8-14.8,64c-10.2,18.4-23.9,33.2-42.3,43.4s-39,15.9-61.8,15.9h-56h-23.9v-257h56
	h25.2C1754.8,2011.8,1775.4,2016.5,1793.5,2026.7L1793.5,2026.7z M1535.2,2174.3l-30.8-95l-31,95H1535.2z M1550,2218.8h-91.4
	l-17,51.3H1382l95.8-259.4h37.6h13.7l96.1,259.6h-59.5L1550,2218.8z M1216,2132h42.3c13.7,0,22.8-3.3,29.7-10.2
	c6.9-6.9,10.2-15.9,10.2-27.4s-3.3-20.6-10.2-27.4c-6.9-6.9-17-10.2-30.8-10.2h-42.3L1216,2132L1216,2132z M1364.8,2267.9v2.2h-59.5
	l-48-93.6h-40.1v93.8h-56v-258.5h98.3c20.6,0,37.6,3.3,51.3,9.1c14.8,5.8,25.2,14.8,33.2,26.3c8,11.5,11.5,26.3,11.5,42.3
	c0,18.4-3.3,33.2-11.5,44.5c-8,11.5-19.5,20.6-34.3,27.4L1364.8,2267.9z M1133.7,2056.5h-78.8v213.8h-56v-213.8h-77.7V2012h133.7
	h78.8V2056.5L1133.7,2056.5z M890.2,2231.4c-9.1,13.7-20.6,23.9-35.4,32.1S821.6,2275,801,2275c-21.7,0-41.2-4.6-57.1-14.8
	c-15.9-10.2-28.6-25.2-37.6-43.4c-9.1-18.4-12.6-41.2-12.6-66.4v-15.9c0-25.2,4.6-48,13.7-66.4c9.1-19.5,21.7-33.2,37.6-43.4
	c15.9-10.2,35.4-14.8,57.1-14.8s39,3.3,54.9,11.5c14.8,8,27.4,18.4,35.4,32.1s13.7,29.7,14.8,48h-56c-1.1-15.9-5.8-27.4-12.6-35.4
	c-8-8-19.5-11.5-36.5-11.5s-30.8,6.9-39,19.5c-8,12.6-12.6,33.2-12.6,60.6v15.9c0,18.4,2.2,33.2,5.8,44.5
	c3.3,11.5,9.1,20.6,15.9,26.3c8,5.8,17,8,29.7,8c15.9,0,27.4-3.3,35.4-11.5c8-6.9,12.6-18.4,13.7-33.2h56
	C904,2201.7,898.2,2217.7,890.2,2231.4 M597.6,2270.4h56v-258.5h-56V2270.4z M533.4,2254.2c-9.1,5.8-19.5,10.2-33.2,13.7
	c-13.7,3.3-28.6,5.8-46.9,5.8c-22.8,0-42.3-4.6-59.5-14.8c-17-10.2-29.7-23.9-40.1-43.4c-9.1-18.4-13.7-41.2-13.7-67.5v-14.8
	c0-26.3,4.6-49.1,13.7-67.5s21.7-33.2,37.6-43.4c15.9-10.2,35.4-14.8,57.1-14.8c33.2,0,57.1,8,74.4,22.8c17,14.8,26.3,36.5,29.7,64
	h-53.8c-2.2-13.7-6.9-23.9-13.7-30.8c-8-6.9-18.4-10.2-33.2-10.2c-17,0-30.8,6.9-40.1,20.6c-9.1,13.7-13.7,33.2-13.7,59.5v15.9
	c0,26.3,4.6,46.9,14.8,60.6c10.2,13.7,25.2,20.6,44.5,20.6c19.5,0,33.2-4.6,41.2-12.6v-42.3h-46.9v-40.1h102.9v104
	C548.3,2244,542.7,2249.8,533.4,2254.2"/>
<g id="brandmark">
	<path class="st1" d="M1200,1507.6c159.3,0,297.6-88.7,367.1-218.9c-1.3-0.1-102.8-10.8-232.7,50.9c-6.1,3.3-12.2,6.3-18.5,9.2
		l-0.2,0.1c-36.5,18.5-74.9,24.7-115.6,24.7c-154.3,0-279.4-123.8-279.4-276.4l0,0c0-152.6,125.1-276.4,279.4-276.4
		c40.7,0,79.2,6.1,115.6,24.7c0,0,12.7,6.1,18.7,9.3c130.1,61.7,231.4,51,232.7,50.9c-69.5-130.5-207.8-219.3-367-219.3
		c-229.2,0-415,183.8-415,410.4l0,0C785.1,1323.9,970.9,1507.6,1200,1507.6z"/>
	<path class="st0" d="M1754.9,1052.4l-361-0.2c-10.2-44-35.2-82.4-69.2-109.9c-34.1-27.4-77.3-43.8-124.5-43.8
		c-109.9,0-198.9,89-198.9,198.7c0,109.9,89,198.9,198.9,198.9c94.2,0,173.1-65.6,193.6-153.7H1708l-0.2,2.5
		c-12.1,127.8-72.7,241.5-163.5,323.3c-90.7,81.9-211.5,131.9-344.1,131.9c-281.5,0-509.8-225.1-509.8-502.9
		s228.4-502.9,509.8-502.9c210.1,0,390.5,125.3,468.5,304.2c52.1-7.3,64.4-36.5,64.1-59.2c-0.1-17.3-9.1-31.8-10.7-34.7
		c-50.8-88-123.8-161.8-211.4-214.3c-58.8-35.3-124.5-60.6-194.3-74.1V340h-77.7v166.4c-12.7-0.8-25.7-1.3-38.5-1.3
		s-25.8,0.4-38.5,1.3V340H1084v176.2C808.2,569.5,600.1,809.4,600.1,1097c0,287.8,208,527.5,483.9,580.8v175.8h77.6v-165.9
		c12.7,0.8,25.7,1.3,38.5,1.3s25.8-0.4,38.5-1.3v165.9h77.7v-175.8c270.2-52.4,475.4-283.5,483.6-563.5
		C1801.7,1071.9,1787.4,1052.4,1754.9,1052.4z M1200.1,1241.9c-80,0-144.8-64.8-144.8-144.8c0-79.9,64.8-144.7,144.8-144.7
		c79.9,0,144.7,64.8,144.7,144.7C1344.8,1177.2,1280,1241.9,1200.1,1241.9z"/>
</g>
</svg>
