<svg width="834" height="880" xmlns="http://www.w3.org/2000/svg" xmlns:xlink="http://www.w3.org/1999/xlink" xml:space="preserve" overflow="hidden"><defs><clipPath id="clip0"><rect x="-971" y="641" width="834" height="880"/></clipPath><clipPath id="clip1"><rect x="-941" y="642" width="773" height="841"/></clipPath><clipPath id="clip2"><rect x="-941" y="642" width="773" height="841"/></clipPath><clipPath id="clip3"><rect x="-941" y="642" width="773" height="841"/></clipPath></defs><g clip-path="url(#clip0)" transform="translate(971 -641)"><path d="M-966.5 1103C-966.5 875.183-781.818 690.5-554 690.5-326.183 690.5-141.5 875.183-141.5 1103-141.5 1330.82-326.183 1515.5-554 1515.5-781.818 1515.5-966.5 1330.82-966.5 1103Z" stroke="#FFFFFF" stroke-width="4.58333" stroke-linecap="butt" stroke-linejoin="miter" stroke-miterlimit="8" stroke-opacity="1" fill="#FFFFFF" fill-rule="evenodd" fill-opacity="1"/><g clip-path="url(#clip1)"><g clip-path="url(#clip2)"><g clip-path="url(#clip3)"><path d="M662.508 715.766 662.508 730.078 618.384 730.078 606.292 730.078 606.292 647.007 624.302 647.007 662.508 647.007 662.508 661.319 624.269 661.319 624.269 680.454 657.041 680.454 657.041 694.412 624.302 694.412 624.302 715.766 662.508 715.766ZM576.8 686.725C576.8 678.621 574.935 672.414 571.687 668.008 568.406 663.602 563.229 661.737 556.957 661.737L548.853 661.737 548.853 716.217 556.539 716.217C563.164 716.217 567.924 713.998 571.623 709.592 574.903 705.186 576.736 698.914 576.736 690.874L576.8 686.725ZM576.8 651.799C582.718 655.079 587.124 659.903 590.404 665.757 593.685 671.578 595.164 678.653 595.164 686.339L595.164 690.038C595.164 697.724 593.685 704.767 590.404 710.621 587.124 716.538 582.718 721.298 576.8 724.578 570.883 727.859 564.258 729.692 556.925 729.692L538.915 729.692 531.229 729.692 531.229 647.039 549.239 647.039 557.343 647.039C564.354 647.007 570.979 648.519 576.8 651.799ZM493.73 699.268 483.824 668.715 473.854 699.268 493.73 699.268ZM498.489 713.579 469.095 713.579 463.627 730.078 444.46 730.078 475.269 646.653 487.362 646.653 491.768 646.653 522.674 730.142 503.539 730.142 498.489 713.579ZM391.073 685.664 404.677 685.664C409.083 685.664 412.009 684.603 414.229 682.384 416.448 680.165 417.509 677.27 417.509 673.572 417.509 669.873 416.448 666.947 414.229 664.76 412.009 662.541 408.761 661.479 404.323 661.479L390.719 661.479 391.073 685.664ZM438.928 729.37 438.928 730.078 419.792 730.078 404.355 699.976 391.459 699.976 391.459 730.142 373.449 730.142 373.449 647.007 405.063 647.007C411.688 647.007 417.155 648.068 421.561 649.934 426.321 651.799 429.666 654.693 432.239 658.392 434.811 662.09 435.937 666.85 435.937 671.996 435.937 677.913 434.876 682.673 432.239 686.307 429.666 690.006 425.967 692.932 421.207 695.119L438.928 729.37ZM364.605 661.383 339.262 661.383 339.262 730.142 321.252 730.142 321.252 661.383 296.263 661.383 296.263 647.071 339.262 647.071 364.605 647.071 364.605 661.383ZM286.294 717.632C283.367 722.038 279.669 725.318 274.909 727.955 270.149 730.592 264.232 731.654 257.606 731.654 250.628 731.654 244.356 730.174 239.243 726.894 234.129 723.614 230.045 718.789 227.15 712.936 224.224 707.019 223.098 699.686 223.098 691.582L223.098 686.468C223.098 678.364 224.577 671.031 227.504 665.113 230.431 658.842 234.483 654.436 239.596 651.156 244.71 647.875 250.981 646.396 257.96 646.396 264.939 646.396 270.503 647.457 275.616 650.094 280.376 652.667 284.428 656.012 287.001 660.418 289.574 664.824 291.407 669.97 291.761 675.855L273.751 675.855C273.397 670.742 271.886 667.043 269.699 664.47 267.126 661.897 263.427 660.772 257.96 660.772 252.493 660.772 248.055 662.991 245.418 667.043 242.845 671.095 241.365 677.72 241.365 686.532L241.365 691.646C241.365 697.563 242.073 702.323 243.231 705.957 244.292 709.656 246.157 712.582 248.344 714.416 250.917 716.281 253.811 716.988 257.896 716.988 263.009 716.988 266.708 715.927 269.281 713.29 271.854 711.071 273.333 707.372 273.687 702.613L291.697 702.613C290.732 708.08 288.867 713.226 286.294 717.632M192.192 730.174 210.202 730.174 210.202 647.039 192.192 647.039 192.192 730.174ZM171.545 724.964C168.618 726.83 165.273 728.245 160.867 729.37 156.461 730.432 151.669 731.236 145.784 731.236 138.451 731.236 132.18 729.756 126.648 726.476 121.181 723.195 117.097 718.789 113.752 712.518 110.825 706.601 109.346 699.268 109.346 690.81L109.346 686.05C109.346 677.592 110.825 670.259 113.752 664.342 116.679 658.424 120.731 653.664 125.844 650.384 130.958 647.104 137.229 645.624 144.208 645.624 154.885 645.624 162.572 648.197 168.136 652.957 173.603 657.716 176.594 664.695 177.687 673.54L160.385 673.54C159.677 669.134 158.166 665.853 155.979 663.634 153.406 661.415 150.061 660.354 145.302 660.354 139.834 660.354 135.396 662.573 132.405 666.979 129.479 671.385 127.999 677.656 127.999 686.114L127.999 691.228C127.999 699.686 129.479 706.311 132.759 710.717 136.039 715.123 140.863 717.342 147.07 717.342 153.342 717.342 157.748 715.863 160.321 713.29L160.321 699.686 145.237 699.686 145.237 686.79 178.331 686.79 178.331 720.237C176.337 721.684 174.536 723.549 171.545 724.964" fill="#001469" fill-rule="evenodd" fill-opacity="1" transform="matrix(1.00019 0 0 1 -940 642)"/><path d="M385.927 484.853C437.159 484.853 481.637 456.327 503.989 414.454 503.571 414.422 470.928 410.98 429.151 430.823 427.189 431.885 425.227 432.85 423.201 433.782L423.137 433.814C411.398 439.764 399.049 441.758 385.959 441.758 336.336 441.758 296.103 401.943 296.103 352.866 296.103 303.789 336.336 263.974 385.959 263.974 399.049 263.974 411.431 265.936 423.137 271.918 423.137 271.918 427.221 273.88 429.151 274.909 470.992 294.752 503.571 291.311 503.989 291.279 481.637 249.309 437.159 220.75 385.959 220.75 312.247 220.75 252.493 279.862 252.493 352.738 252.493 425.774 312.247 484.853 385.927 484.853Z" fill="#FF6600" fill-rule="evenodd" fill-opacity="1" transform="matrix(1.00019 0 0 1 -940 642)"/><path d="M564.386 338.458 448.287 338.394C445.006 324.243 436.966 311.894 426.031 303.049 415.065 294.237 401.171 288.963 385.992 288.963 350.647 288.963 322.024 317.586 322.024 352.866 322.024 388.211 350.647 416.834 385.992 416.834 416.287 416.834 441.662 395.736 448.255 367.403L549.303 367.403 549.239 368.207C545.347 409.308 525.858 445.875 496.656 472.182 467.487 498.522 428.637 514.602 385.992 514.602 295.459 514.602 222.037 442.208 222.037 352.866 222.037 263.524 295.492 191.13 385.992 191.13 453.561 191.13 511.579 231.428 536.664 288.963 553.42 286.615 557.375 277.224 557.279 269.924 557.247 264.36 554.352 259.697 553.838 258.764 537.5 230.463 514.023 206.728 485.85 189.844 466.94 178.491 445.81 170.355 423.362 166.013L423.362 109.346 398.373 109.346 398.373 162.861C394.289 162.604 390.108 162.443 385.992 162.443 381.875 162.443 377.694 162.572 373.61 162.861L373.61 109.346 348.621 109.346 348.621 166.013C259.922 183.155 192.996 260.308 192.996 352.802 192.996 445.36 259.89 522.449 348.621 539.591L348.621 596.129 373.578 596.129 373.578 542.774C377.662 543.032 381.843 543.193 385.959 543.193 390.076 543.193 394.257 543.064 398.341 542.774L398.341 596.129 423.33 596.129 423.33 539.591C510.228 522.738 576.221 448.415 578.859 358.366 579.438 344.73 574.839 338.458 564.386 338.458ZM385.959 399.403C360.231 399.403 339.391 378.562 339.391 352.834 339.391 327.138 360.231 306.298 385.959 306.298 411.656 306.298 432.496 327.138 432.496 352.834 432.496 378.595 411.656 399.403 385.959 399.403Z" fill="#001469" fill-rule="evenodd" fill-opacity="1" transform="matrix(1.00019 0 0 1 -940 642)"/></g></g></g></g></svg>