<?xml version="1.0" encoding="utf-8"?>
<!-- Generator: Adobe Illustrator 25.2.1, SVG Export Plug-In . SVG Version: 6.00 Build 0)  -->
<svg version="1.1" id="Layer_1" xmlns="http://www.w3.org/2000/svg" xmlns:xlink="http://www.w3.org/1999/xlink" x="0px" y="0px"
	 viewBox="0 0 512 512" style="enable-background:new 0 0 512 512;" xml:space="preserve">
<style type="text/css">
	.st0{fill-rule:evenodd;clip-rule:evenodd;fill:#F40000;}
	.st1{fill-rule:evenodd;clip-rule:evenodd;fill:#BF0000;}
	.st2{fill:#222222;}
	.st3{fill:#F40000;}
	.st4{display:none;}
	.st5{display:inline;fill-rule:evenodd;clip-rule:evenodd;fill:#F40000;}
	.st6{display:inline;fill:#222222;}
	.st7{fill:#BF0000;}
	.st8{fill:#910000;}
	.st9{fill-rule:evenodd;clip-rule:evenodd;fill:#FFFFFF;}
	.st10{display:none;fill-rule:evenodd;clip-rule:evenodd;fill:#F40000;}
	.st11{display:none;fill-rule:evenodd;clip-rule:evenodd;fill:#BF0000;}
	.st12{display:none;fill-rule:evenodd;clip-rule:evenodd;fill:#910000;}
</style>
<polygon class="st0" points="469.3,256 256.8,468.6 44.2,256 122.9,177.4 256.4,310.9 390.3,177 "/>
<polygon class="st1" points="390.3,177 256.4,310.9 122.9,177.4 192.5,107.8 258.3,173.6 322.6,109.3 "/>
<polygon class="st2" points="475.4,383.3 475.4,129.9 256,3.3 36.6,129.9 36.6,383.3 256,510 "/>
<polygon class="st3" points="432.6,358.2 432.6,155 256.6,53.4 80.6,155 80.6,358.2 256.6,459.8 "/>
<g class="st4">
	<polygon class="st5" points="971.1,288.4 758.6,500.9 546.1,288.4 624.7,209.7 694.3,140.1 758.6,75.8 	"/>
	<path class="st6" d="M758.6,539.5L507.5,288.3L758.6,37.2l251.1,251.1L758.6,539.5z M584.6,288.4l174,174l174-174l-174-174
		L584.6,288.4z"/>
</g>
<polygon class="st7" points="400.1,301.9 400.1,136.2 256.6,53.4 113.1,136.2 113.1,301.9 256.6,384.7 "/>
<polygon class="st8" points="359.8,232.2 359.8,113 256.6,53.4 153.4,113 153.4,232.2 256.6,291.8 "/>
<polygon class="st9" points="370.5,188.8 323.3,324.3 282.6,324.3 258,265.5 236.9,324.3 196.2,324.3 152.9,236.1 193.6,236.1 
	213.4,276.5 236.2,213.2 276.8,213.2 301.2,271.4 330.1,188.8 "/>
<polygon class="st10" points="971.5,287.8 759,500.4 546.4,287.8 625.1,209.2 758.6,342.7 892.5,208.8 "/>
<polygon class="st11" points="892.5,208.8 758.6,342.7 625.1,209.2 691.8,142.4 758.9,209.5 826,142.4 "/>
<polygon class="st12" points="826,142.4 758.9,209.5 691.8,142.4 694.7,139.6 759,75.3 "/>
</svg>
