<svg width="844" height="871" xmlns="http://www.w3.org/2000/svg" xmlns:xlink="http://www.w3.org/1999/xlink" overflow="hidden"><defs><clipPath id="clip0"><rect x="-2319" y="728" width="844" height="871"/></clipPath><clipPath id="clip1"><rect x="-2317" y="771" width="826" height="826"/></clipPath><clipPath id="clip2"><rect x="-2317" y="771" width="826" height="826"/></clipPath><clipPath id="clip3"><rect x="-2317" y="771" width="826" height="826"/></clipPath></defs><g clip-path="url(#clip0)" transform="translate(2319 -728)"><path d="M-2306.5 1144C-2306.5 916.183-2121.82 731.5-1894 731.5-1666.18 731.5-1481.5 916.183-1481.5 1144-1481.5 1371.82-1666.18 1556.5-1894 1556.5-2121.82 1556.5-2306.5 1371.82-2306.5 1144Z" stroke="#FFFFFF" stroke-width="4.58333" stroke-linecap="butt" stroke-linejoin="miter" stroke-miterlimit="8" stroke-opacity="1" fill="#FFFFFF" fill-rule="evenodd" fill-opacity="1"/><g clip-path="url(#clip1)"><g clip-path="url(#clip2)"><g clip-path="url(#clip3)"><path d="M-1804.26 1112.14-1860.77 1209.49-1917.29 1306.84-1973.8 1404.19-2030.31 1306.84-1973.8 1209.49-1917.29 1112.14-2002.67 964.05-1889.65 964.05-1859.95 1015.2-1804.26 1112.14ZM-2115.7 964.05-2228.72 964.05-2086.82 1210.31-2030.31 1112.96-2115.7 964.05ZM-1636.79 1013.96-1666.49 962.813-1778.69 962.813-1693.3 1110.9-1749.81 1208.25-1806.32 1305.6-1749.81 1402.95-1693.3 1305.6-1636.79 1208.25-1580.27 1111.73-1636.79 1013.96Z" fill="#000000" fill-rule="nonzero" fill-opacity="1"/></g></g></g></g></svg>