<svg version="1.2" baseProfile="tiny-ps" xmlns="http://www.w3.org/2000/svg" viewBox="0 0 207 207" width="207" height="207">
	<title>WINGS-svg</title>
	<style>
		tspan { white-space:pre }
		.shp0 { fill: #e88322 } 
		.shp1 { fill: #fec803 } 
		.shp2 { fill: #373737 } 
		.shp3 { fill: none;stroke: #565656;stroke-opacity:0.4;stroke-width: 2.723 } 
	</style>
	<path id="Layer" class="shp0" d="M103.5 0.38C46.55 0.38 0.38 46.55 0.38 103.5C0.38 160.45 46.55 206.63 103.5 206.63C160.45 206.63 206.63 160.45 206.63 103.5C206.63 46.55 160.45 0.38 103.5 0.38Z" />
	<path id="Layer" class="shp1" d="M179.89 106.57C178.93 99.08 173.94 92.26 167.12 89.09C158.87 85.26 149.18 86.6 140.44 84.01C129.12 80.65 120.87 71.24 110.79 65C98.89 57.71 84.69 55.12 70.87 52.62C61.65 50.99 51.96 49.45 43.23 52.81C31.42 57.52 24.52 72.01 28.35 84.11C34.88 104.64 63.86 110.12 72.69 129.79C77.3 139.97 75.76 152.93 82.96 161.37C91.59 171.45 107.43 169.72 120.29 166.65C130.08 164.25 139.77 161.57 149.46 158.78C157.33 156.57 165.59 154.17 171.34 148.41C178.54 141.31 175.57 135.84 175.47 127.59C175.57 120.48 180.94 114.53 179.89 106.57Z" />
	<path id="Layer" class="shp2" d="M145.43 95.34C145.43 96.7 145.37 98.07 145.23 99.43C145.1 100.79 144.9 102.14 144.63 103.48C144.36 104.82 144.03 106.15 143.64 107.46C143.24 108.77 142.78 110.05 142.25 111.31C141.73 112.58 141.15 113.81 140.5 115.02C139.86 116.22 139.16 117.39 138.4 118.53C137.64 119.67 136.82 120.77 135.96 121.82C135.09 122.88 134.17 123.89 133.21 124.86C132.24 125.82 131.23 126.74 130.17 127.61C129.11 128.48 128.02 129.29 126.88 130.05C125.74 130.81 124.57 131.51 123.37 132.16C122.16 132.8 120.93 133.39 119.66 133.91C118.4 134.43 117.11 134.89 115.8 135.29C114.5 135.69 113.17 136.02 111.83 136.29C110.49 136.55 109.14 136.75 107.78 136.89C106.42 137.02 105.05 137.09 103.69 137.09C102.32 137.09 100.96 137.02 99.59 136.89C98.23 136.75 96.88 136.55 95.54 136.29C94.2 136.02 92.88 135.69 91.57 135.29C90.26 134.89 88.98 134.43 87.71 133.91C86.45 133.39 85.21 132.8 84.01 132.16C82.8 131.51 81.63 130.81 80.5 130.05C79.36 129.29 78.26 128.48 77.2 127.61C76.15 126.74 75.14 125.82 74.17 124.86C73.2 123.89 72.29 122.88 71.42 121.82C70.55 120.77 69.74 119.67 68.98 118.53C68.22 117.39 67.52 116.22 66.87 115.02C66.23 113.81 65.64 112.58 65.12 111.31C64.6 110.05 64.14 108.77 63.74 107.46C63.34 106.15 63.01 104.82 62.74 103.48C62.48 102.14 62.28 100.79 62.14 99.43C62.01 98.07 61.94 96.7 61.94 95.34C61.94 93.97 62.01 92.6 62.14 91.24C62.28 89.88 62.48 88.53 62.74 87.19C63.01 85.85 63.34 84.52 63.74 83.21C64.14 81.91 64.6 80.62 65.12 79.36C65.64 78.09 66.23 76.86 66.87 75.65C67.52 74.45 68.22 73.27 68.98 72.14C69.74 71 70.55 69.9 71.42 68.85C72.29 67.79 73.2 66.78 74.17 65.81C75.14 64.84 76.15 63.93 77.2 63.06C78.26 62.19 79.36 61.38 80.5 60.62C81.63 59.86 82.8 59.16 84.01 58.51C85.21 57.87 86.45 57.28 87.71 56.76C88.98 56.23 90.26 55.78 91.57 55.38C92.88 54.98 94.2 54.65 95.54 54.38C96.88 54.12 98.23 53.92 99.59 53.78C100.96 53.65 102.32 53.58 103.69 53.58C105.05 53.58 106.42 53.65 107.78 53.78C109.14 53.92 110.49 54.12 111.83 54.38C113.17 54.65 114.5 54.98 115.8 55.38C117.11 55.78 118.4 56.23 119.66 56.76C120.93 57.28 122.16 57.87 123.37 58.51C124.57 59.16 125.74 59.86 126.88 60.62C128.02 61.38 129.11 62.19 130.17 63.06C131.23 63.93 132.24 64.84 133.21 65.81C134.17 66.78 135.09 67.79 135.96 68.85C136.82 69.9 137.64 71 138.4 72.14C139.16 73.27 139.86 74.45 140.5 75.65C141.15 76.86 141.73 78.09 142.25 79.36C142.78 80.62 143.24 81.91 143.64 83.21C144.03 84.52 144.36 85.85 144.63 87.19C144.9 88.53 145.1 89.88 145.23 91.24C145.37 92.6 145.43 93.97 145.43 95.34Z" />
	<path id="Layer" class="shp3" d="M144.09 95.34C144.09 96.66 144.02 97.98 143.89 99.3C143.77 100.61 143.57 101.92 143.31 103.22C143.05 104.52 142.73 105.8 142.35 107.07C141.96 108.33 141.52 109.57 141.02 110.8C140.51 112.02 139.94 113.21 139.32 114.38C138.7 115.55 138.02 116.68 137.28 117.79C136.55 118.89 135.76 119.95 134.92 120.97C134.08 121.99 133.19 122.97 132.26 123.91C131.32 124.84 130.34 125.73 129.32 126.57C128.3 127.41 127.23 128.2 126.13 128.93C125.04 129.67 123.9 130.35 122.73 130.97C121.57 131.6 120.37 132.16 119.15 132.67C117.93 133.18 116.68 133.62 115.41 134C114.15 134.39 112.87 134.71 111.57 134.97C110.27 135.23 108.96 135.42 107.65 135.55C106.33 135.68 105.01 135.75 103.69 135.75C102.36 135.75 101.04 135.68 99.73 135.55C98.41 135.42 97.1 135.23 95.8 134.97C94.51 134.71 93.23 134.39 91.96 134C90.69 133.62 89.45 133.18 88.23 132.67C87 132.16 85.81 131.6 84.64 130.97C83.48 130.35 82.34 129.67 81.24 128.93C80.14 128.2 79.08 127.41 78.05 126.57C77.04 125.73 76.05 124.84 75.12 123.91C74.18 122.97 73.3 121.99 72.46 120.97C71.62 119.95 70.83 118.89 70.09 117.79C69.36 116.68 68.68 115.55 68.05 114.38C67.43 113.21 66.87 112.02 66.36 110.8C65.86 109.57 65.41 108.33 65.02 107.07C64.64 105.8 64.32 104.52 64.06 103.22C63.8 101.92 63.61 100.61 63.48 99.3C63.35 97.98 63.29 96.66 63.29 95.34C63.29 94.01 63.35 92.69 63.48 91.38C63.61 90.06 63.8 88.75 64.06 87.45C64.32 86.15 64.64 84.87 65.02 83.61C65.41 82.34 65.86 81.09 66.36 79.87C66.87 78.65 67.43 77.45 68.05 76.29C68.68 75.12 69.36 73.98 70.09 72.88C70.83 71.79 71.62 70.72 72.46 69.7C73.3 68.68 74.18 67.7 75.12 66.76C76.05 65.82 77.04 64.94 78.05 64.1C79.08 63.26 80.14 62.47 81.24 61.73C82.34 61 83.48 60.32 84.64 59.7C85.81 59.07 87 58.51 88.23 58C89.45 57.5 90.69 57.05 91.96 56.66C93.23 56.28 94.51 55.96 95.8 55.7C97.1 55.44 98.41 55.25 99.73 55.12C101.04 54.99 102.36 54.93 103.69 54.93C105.01 54.93 106.33 54.99 107.65 55.12C108.96 55.25 110.27 55.44 111.57 55.7C112.87 55.96 114.15 56.28 115.41 56.66C116.68 57.05 117.93 57.5 119.15 58C120.37 58.51 121.57 59.07 122.73 59.7C123.9 60.32 125.04 61 126.13 61.73C127.23 62.47 128.3 63.26 129.32 64.1C130.34 64.94 131.32 65.82 132.26 66.76C133.19 67.7 134.08 68.68 134.92 69.7C135.76 70.72 136.55 71.79 137.28 72.88C138.02 73.98 138.7 75.12 139.32 76.29C139.94 77.45 140.51 78.65 141.02 79.87C141.52 81.09 141.96 82.34 142.35 83.61C142.73 84.87 143.05 86.15 143.31 87.45C143.57 88.75 143.77 90.06 143.89 91.38C144.02 92.69 144.09 94.01 144.09 95.34Z" />
	<path id="Layer" class="shp1" d="M90.92 86.6C84.88 86.5 78.73 86.6 72.59 86.6C71.73 86.6 71.44 86.98 71.54 87.75C71.63 90.05 73.36 91.98 75.66 92.55L88.52 92.55L88.52 93.32L77.78 93.32C77.78 93.41 77.87 93.41 77.87 93.51C78.45 96.2 79.98 97.83 82.38 98.6L88.52 98.6L88.52 99.37L84.11 99.37C84.11 99.37 84.11 99.46 84.21 99.46C84.97 102.25 87.18 103.88 90.16 103.97C95.34 104.16 99.66 100.52 99.75 95.43C100.04 90.92 95.91 86.7 90.92 86.6Z" />
	<path id="Layer" class="shp1" d="M134.88 86.6C128.83 86.6 122.69 86.5 116.55 86.6C111.46 86.7 107.34 90.82 107.62 95.53C107.91 100.61 112.13 104.26 117.22 104.07C120.2 103.97 122.4 102.34 123.17 99.56C123.17 99.56 123.17 99.46 123.27 99.46L118.85 99.46L118.85 98.7L125.09 98.7C127.49 97.93 128.93 96.29 129.6 93.61C129.6 93.51 129.7 93.51 129.7 93.41L119.04 93.41L119.04 92.65L131.8 92.65C134.21 91.98 135.84 89.96 135.93 87.85C135.93 86.98 135.64 86.6 134.88 86.6Z" />
</svg>