<?xml version="1.0" encoding="utf-8"?>
<!-- Generator: Adobe Illustrator 25.2.3, SVG Export Plug-In . SVG Version: 6.00 Build 0)  -->
<svg version="1.1" id="Layer_1" xmlns="http://www.w3.org/2000/svg" xmlns:xlink="http://www.w3.org/1999/xlink" x="0px" y="0px"
	 viewBox="0 0 280 278" style="enable-background:new 0 0 280 278;" xml:space="preserve">
<style type="text/css">
	.st0{fill:#111111;}
	.st1{fill:#205A67;}
	.st2{fill:#3394B7;}
	.st3{fill:#70D2D7;}
	.st4{fill:#1C1821;}
	.st5{fill:#305F91;}
	.st6{fill:#E6E6E6;}
	.st7{fill:#21283E;}
	.st8{fill:#BA9C6F;}
	.st9{fill:#EDD1A6;}
	.st10{fill:#919191;}
	.st11{fill:#C8C698;}
</style>
<g>
	<path class="st0" d="M110.1,16.7c0.1-8,0.1-8,8-8c16.6,0,33.3,0.2,49.9-0.1c5-0.1,7,1,6,6.1c-0.1,0.6,0,1.3,0,2
		c-0.2,0.2-0.5,0.4-0.7,0.7c-1.7,0.9-3.5,0.9-5.3,0.9c-17.3,0-34.6,0-51.9,0c-1.8,0-3.7,0-5.4-0.9C110.6,17.2,110.3,17,110.1,16.7z"
		/>
	<path class="st0" d="M262.1,104.7c8,0.1,8,0.1,8,8c0,16.6-0.2,33.3,0.1,49.9c0.1,5-1,7-6.1,6c-0.6-0.1-1.3,0-2,0
		c-0.2-0.2-0.4-0.5-0.7-0.7c-0.9-1.7-0.9-3.5-0.9-5.3c0-17.3,0-34.6,0-51.9c0-1.8,0-3.7,0.9-5.4
		C261.6,105.2,261.9,104.9,262.1,104.7z"/>
	<path class="st0" d="M22.2,168.7c-8,0.1-8,0.1-8-7.9c0-16.7,0.3-33.5-0.1-50.2c-0.1-5.2,1.4-6.8,6.2-5.9c0.6,0.1,1.3,0,2,0
		c0.2,0.2,0.4,0.5,0.6,0.7c0.9,1.7,0.9,3.5,0.9,5.3c0,17.3,0,34.5,0,51.8c0,1.8,0,3.7-0.9,5.3C22.7,168.2,22.4,168.4,22.2,168.7z"/>
	<path class="st0" d="M174.1,256.7c-0.1,8-0.1,8-8,8c-16.6,0-33.3-0.2-49.9,0.1c-5,0.1-7-1-6-6.1c0.1-0.6,0-1.3,0-2
		c0.2-0.2,0.5-0.4,0.7-0.7c1.7-0.9,3.5-0.9,5.3-0.9c17.3,0,34.6,0,51.9,0c1.8,0,3.7,0,5.4,0.9C173.7,256.2,173.9,256.4,174.1,256.7z
		"/>
	<path class="st0" d="M86.1,24.7c0.1-8,0.1-8,8-8c5.3,0,10.6,0,16,0l0.1,0.1c1.9,2.7,1.8,5.4,0.1,8.1c-7.8,2.4-15.6,1.7-23.4,0.5
		C86.6,25.2,86.4,25,86.1,24.7z"/>
	<path class="st0" d="M174.1,16.7c6.3,0,12.7,0.3,19-0.1c4.2-0.3,5.7,1,5,5.1c-0.2,1,0,2-0.1,3c-0.2,0.2-0.5,0.4-0.7,0.6
		c-7.8,1.2-15.6,1.8-23.4-0.4C172.2,22.3,172.2,19.5,174.1,16.7L174.1,16.7z"/>
	<path class="st0" d="M110.1,256.7c-6.3,0-12.7-0.3-18.9,0.1c-4.1,0.3-5.8-0.9-5-5.1c0.2-1,0-2,0-3c0.2-0.2,0.5-0.4,0.7-0.7
		c6.8-1.8,13.7-1.1,20.5-0.6C111.7,247.8,112.6,251.3,110.1,256.7L110.1,256.7z"/>
	<path class="st0" d="M198.1,248.7c-0.1,8-0.1,8-8,8c-5.3,0-10.6,0-16,0l-0.1-0.1c-2.9-6.2-1.3-9.4,5.2-9.4c6,0,12.1-1,18.1,0.8
		C197.6,248.2,197.9,248.4,198.1,248.7z"/>
	<path class="st0" d="M70.1,32.7c0.1-8,0.1-8,8-8c2.7,0,5.3,0,8,0l0.1,0.1c1.8,2.4,1.5,4.9,0.7,7.5c-0.3,0.5-0.7,0.9-1.3,1.2
		c-5,0.9-9.9,1.2-14.8-0.2C70.6,33.2,70.3,33,70.1,32.7z"/>
	<path class="st0" d="M198.1,24.8c3.8,0,7.5,0.2,11.3-0.1c3.7-0.3,5.5,0.7,4.8,4.7c-0.2,1.1,0,2.3-0.1,3.4c-0.2,0.2-0.5,0.4-0.7,0.6
		c-3.1,1.4-6.4,0.9-9.7,0.8C196.8,34.1,195.1,31.1,198.1,24.8L198.1,24.8z"/>
	<path class="st0" d="M30.2,88.8c0-3.8,0.2-7.5-0.1-11.3c-0.3-3.7,0.7-5.5,4.7-4.8c1.1,0.2,2.3,0,3.4,0.1c0.2,0.2,0.4,0.5,0.6,0.7
		c1.4,3.1,0.8,6.4,0.8,9.7c-0.1,6.5-2,7.8-8.7,6.2C30.7,89.2,30.4,89,30.2,88.8z"/>
	<path class="st0" d="M30.2,184.6c-8,0.1-8,0.1-8-8.1c0-2.6,0-5.2,0-7.8c0,0-0.1,0.1-0.1,0.1c6.3-3,9.4-1.3,9.5,5.5
		c0.1,3.2,0.6,6.5-0.8,9.7C30.7,184.2,30.4,184.4,30.2,184.6z"/>
	<path class="st0" d="M246,72.8c8-0.1,8-0.1,8,8.1c0,2.6,0,5.2,0,7.8c-0.2,0.2-0.4,0.4-0.6,0.6c-2.4,0.9-4.8,0.9-7.2-0.1
		c-0.5-0.4-0.8-0.8-1-1.3c-0.7-4.8-1.1-9.7,0.3-14.5C245.6,73.2,245.8,73,246,72.8z"/>
	<path class="st0" d="M254,88.8c8-0.1,8-0.1,8,7.9c0,2.7,0,5.3,0,8l-0.1,0.1c-2.7,1.9-5.5,1.9-8.3,0.1C252,99.4,251.5,94,254,88.8
		L254,88.8z"/>
	<path class="st0" d="M262.1,168.7c0,2.7,0,5.3,0,8c0,7.9,0,7.9-8,8c-0.2-0.2-0.4-0.5-0.7-0.7c-1.4-3.1-0.9-6.4-0.9-9.7
		C252.7,167.4,255.6,165.7,262.1,168.7L262.1,168.7z"/>
	<path class="st0" d="M38.2,72.8c0-2.7,0-5.3,0-8c0-8,0-8,8-8.1c0.2,0.2,0.4,0.4,0.6,0.7c1.2,2.6,0.7,5.4,0.8,8.1
		C47.7,74,45.1,76,38.2,72.8L38.2,72.8z"/>
	<path class="st0" d="M22.2,104.8c0-3.8,0.2-7.5-0.1-11.3c-0.3-3.7,0.7-5.5,4.7-4.8c1.1,0.2,2.3,0,3.4,0.1c0,0-0.1-0.1-0.1-0.1
		c2.8,4.6,1.9,9.6,1,14.3C30.4,106.5,26.9,107,22.2,104.8L22.2,104.8z"/>
	<path class="st0" d="M38.2,200.6c-8,0.1-8,0.1-8-8.1c0-2.6,0-5.2,0-7.8c0,0-0.1,0.1-0.1,0.1c6.3-3,9.4-1.3,9.5,5.5
		c0.1,3.2,0.6,6.5-0.8,9.7C38.7,200.2,38.4,200.4,38.2,200.6z"/>
	<path class="st0" d="M254.1,184.7c0,2.7,0,5.3,0,8c0,7.9,0,7.9-8,8c-0.2-0.2-0.4-0.5-0.7-0.7c-1.4-3.1-0.9-6.4-0.9-9.7
		C244.7,183.4,247.6,181.7,254.1,184.7L254.1,184.7z"/>
	<path class="st0" d="M46.2,216.7c-8-0.1-8-0.1-8-8.1c0-2.7,0-5.3,0-8c0,0-0.1,0.1-0.1,0.1c2.3-1.8,4.8-1.5,7.4-0.8
		c0.5,0.2,1,0.6,1.3,1.1c1,2.4,0.7,5,0.7,7.6c-0.1,2.5,0.4,5.1-0.8,7.5C46.6,216.3,46.4,216.5,46.2,216.7z"/>
	<path class="st0" d="M246.1,200.7c0,2.7,0,5.3,0,8c0,7.9,0,7.9-8,8c-0.2-0.2-0.4-0.5-0.7-0.7c-1.4-3.1-0.9-6.4-0.9-9.7
		C236.7,199.4,239.6,197.7,246.1,200.7L246.1,200.7z"/>
	<path class="st0" d="M238,56.8c8-0.1,8-0.1,8,8.1c0,2.6,0,5.2,0,7.8c0,0,0.1-0.1,0.1-0.1c-6.3,3-9.4,1.3-9.5-5.5
		c-0.1-3.2-0.6-6.5,0.8-9.7C237.6,57.3,237.8,57,238,56.8z"/>
	<path class="st0" d="M86.1,248.7c-2.7,0-5.3,0-8,0c-7.9,0-7.9,0-8-8c0.2-0.2,0.4-0.4,0.6-0.6c4.9-1.4,9.8-1.1,14.7-0.2
		c0.6,0.2,1,0.6,1.3,1.2C87.8,243.6,88,246.2,86.1,248.7L86.1,248.7z"/>
	<path class="st0" d="M214.1,240.7c-0.1,8-0.1,8-8,8c-2.7,0-5.3,0-8,0l-0.1-0.1c-2.9-6.4-1.2-9.3,5.6-9.5c3.2-0.1,6.6-0.6,9.7,0.9
		C213.6,240.2,213.9,240.4,214.1,240.7z"/>
	<path class="st0" d="M62.1,40.7c0.1-7.9,0.1-7.9,8-8l0.1,0.1c1.7,2.2,1.4,4.7,0.8,7.2c-0.2,0.5-0.6,1-1,1.3c-2.4,1-4.8,1.1-7.3,0.1
		C62.5,41.1,62.3,40.9,62.1,40.7z"/>
	<path class="st0" d="M214,32.8c8.1-0.1,8.1-0.1,8,8c-0.2,0.2-0.5,0.4-0.7,0.6c-2.6,1-5.5,1.4-7.4-0.8
		C211.9,38.2,212.2,35.3,214,32.8L214,32.8z"/>
	<path class="st0" d="M54.1,48.7c0.1-7.9,0.1-7.9,8-8l0.1,0.1c1.7,2.2,1.4,4.7,0.8,7.2c-0.2,0.5-0.6,1-1,1.3c-2.4,1-4.8,1.1-7.3,0.1
		C54.5,49.1,54.3,48.9,54.1,48.7z"/>
	<path class="st0" d="M222,40.8c8.1-0.1,8.1-0.1,8,8c-0.2,0.2-0.5,0.4-0.7,0.6c-2.6,1-5.5,1.4-7.4-0.8
		C219.9,46.2,220.2,43.3,222,40.8L222,40.8z"/>
	<path class="st0" d="M46.2,56.7c0.1-7.9,0.1-7.9,8-8l0.1,0.1c1.8,2.3,1.5,4.9,0.7,7.4c-0.3,0.5-0.7,1-1.2,1.2
		C51.1,58.3,48.6,58.6,46.2,56.7L46.2,56.7z"/>
	<path class="st0" d="M54.1,224.7c-7.9-0.1-7.9-0.1-8-8l0.1-0.1c2.2-1.7,4.7-1.4,7.2-0.8c0.5,0.2,1,0.6,1.3,1c1,2.4,1.1,4.8,0,7.3
		C54.5,224.3,54.3,224.5,54.1,224.7z"/>
	<path class="st0" d="M62.1,232.7c-7.9-0.1-7.9-0.1-8-8l0.1-0.1c2.5-1.8,5.1-1.7,7.8-0.4c2,2.4,1.8,5,0.8,7.7
		C62.6,232.2,62.4,232.5,62.1,232.7z"/>
	<path class="st0" d="M230.1,224.7c-0.1,7.9-0.1,7.9-8,8c-0.2-0.2-0.4-0.4-0.6-0.7c-2.6-6.6,1.4-10.5,8-8
		C229.7,224.3,229.9,224.5,230.1,224.7z"/>
	<path class="st0" d="M70.1,240.7c-7.9-0.1-7.9-0.1-8-8l0.1-0.1c2.7-1.9,5.4-1.8,8.1-0.1C72,235.2,72.1,237.9,70.1,240.7L70.1,240.7
		z"/>
	<path class="st0" d="M230,48.8c8.1-0.1,8.1-0.1,8,8c0,0,0.1-0.1,0.1-0.1c-2.7,1.9-5.7,2.3-8,0C227.8,54.4,228.2,51.4,230,48.8
		L230,48.8z"/>
	<path class="st0" d="M222.1,232.7c-0.1,7.9-0.1,7.9-8,8l-0.1-0.1c-1.9-2.8-2.3-5.8,0.2-8.1C216.5,230.4,219.5,230.7,222.1,232.7
		L222.1,232.7z"/>
	<path class="st0" d="M238.1,216.7c-0.1,7.9-0.1,7.9-8,8l-0.1-0.1c-1.9-2.8-2.3-5.8,0.2-8.1C232.5,214.4,235.5,214.7,238.1,216.7
		L238.1,216.7z"/>
	<path class="st1" d="M174.1,16.8c0,2.6,0.1,5.2,0.1,7.9c-1.5,1.7-3.5,1.7-5.5,1.7c-8.7,0-17.5,0.2-26.2-0.1
		c-10.3-0.2-20.7,0.7-31-0.5c-0.6-0.2-1.1-0.6-1.5-1.2c0.1-2.6,0.1-5.2,0.2-7.8C131.5,16.8,152.8,16.8,174.1,16.8z"/>
	<path class="st1" d="M238,216.6c-7.9,0.1-7.9,0.1-8,8c-7.9,0.1-7.9,0.1-8,8c-7.9,0.1-7.9,0.1-8,8c-2.6,0-5.2,0-7.9,0
		c-8.1,0-8.1,0-8.1,8c-6.1,0-12.2,0.3-18.2-0.1c-4.4-0.2-6.6,0.9-5.7,5.6c0.1,0.8,0,1.6,0,2.5c-21.3,0-42.6,0-63.9,0
		c-0.1-8-0.1-8-8.2-8c-5.3,0-10.5,0-15.8,0c0-2.7,0-5.3,0-8c2.4-2.2,5.3-1.5,8.1-1.5c28.9-0.1,57.9,0,86.8,0c3.8,0,7.4,0.2,8.1-5
		c0.3-2.1,2.4-2.6,4.3-2.8c2.3-0.3,4.7-0.1,7-0.2c2-0.1,3.7-0.7,4-2.9c0.5-3.1,2.3-4.6,5.3-5.1c0.6-0.1,0.2,0.3,0.4-0.2
		c2-5.3,8.1-7,10.5-11.7c1-1.9,2-3.4,4.1-3.8c2.9-0.5,3.7-2.4,3.7-5c0-1.8,0-3.7,0.1-5.5c0.1-2.7,1.1-4.9,4.1-5.4
		c3.2-0.5,3.9-2.6,3.8-5.4c0-1.8,0-3.7,0.1-5.5c0.2-2.6,1.1-4.6,3.9-5c3.5-0.5,4-2.8,4-5.7c0-3.1-0.6-6.4,1.3-9.2
		c6.7-2.8,6.7-2.8,6.7-10.3c0.1-12.4-0.1-24.9,0.1-37.3c0.1-2.8-0.7-5.8,1.6-8.2c2.6,0,5.2,0.1,7.9,0.1c0,21.3,0,42.6,0,63.9
		c-8,0.1-8,0.1-8,8.1c0,2.6,0,5.2,0,7.9c-8,0.1-8,0.1-8,8.1c0,2.6,0,5.2,0,7.9c-8,0.1-8,0.1-8,8.1C238.1,211.4,238,214,238,216.6z"
		/>
	<path class="st2" d="M254.2,104.6c-0.1,2.7-0.2,5.5-0.2,8.2c-2.9,2.3-6.4,1.4-9.6,1.4c-3.4,0.1-4.8,1.5-4.7,4.8
		c0.1,6.5,0,12.9,0,19.4c0,2.6,0.7,4.5,3.7,5c3,0.5,4.2,2.5,4.2,5.3c-0.1,4.1,1.2,8.3-1.4,12.1c0,4-0.2,8,0,12c0.1,3-0.8,4.4-3.9,4
		c-3.4-0.5-4.4,1.1-4.1,4.3c0.2,2-0.1,4,0.1,6c0.4,4-0.3,6.6-5.2,5.8c-2.2-0.4-2.9,1-2.8,3c0.1,3-0.2,6,0.1,9c0.2,3.1-0.9,4.3-4,4
		c-2.9-0.4-4.5,0.6-4.1,3.8c0.5,3.3-0.9,4.6-4.2,4.2c-3.2-0.5-4.2,1.2-3.8,4.1c0.4,3.1-1,4.3-4,3.9c-3.5-0.5-4.4,1.3-4,4.4
		c0.4,2.9-1,3.9-3.7,3.7c-1.8-0.2-3.7,0.1-5.5,0c-4.1-0.3-7.7-0.4-6.9,5.7c0.4,2.9-2.2,2.3-3.9,2.3c-7.7,0-15.3,0-23,0
		c-25.6,0-51.3,0-76.9,0c0,0,0,0,0,0c-1.9-2.5-1.7-5.2-0.5-7.9c2.9-2.5,6.4-1.2,9.6-1.6c1.9-0.2,4.4,0.6,5-2c0.7-3-2.6-2.2-3.8-3.4
		c-3.7-3.8-8.1-7.2-11.1-11.4c-2-2.8-3.3-4.4-6.6-4.2c-1.7,0.1-3.4,0.2-5,0c-5.8-0.8-10.4,0.2-11.8,6.9c-2.7,1.4-5.3,1.5-7.9-0.3
		l0,0c-0.9-4.4-3.6-7-7.9-8.1c-0.1-2.6-0.1-5.3-0.2-7.9c2.7-2.2,6-1.5,9.1-1.4c4,0.1,5.6-1.4,5.6-5.5c-0.1-7-4.7-10.1-11.1-7.3
		c-2.2,1-1.8,2.9-2,4.7c-0.3,3.2,0.8,6.7-1.5,9.6c-2.7,0-5.3,0-8,0c0-2.6,0-5.3,0-7.9c0-8.1,0-8.1-8-8c0-2.6,0-5.3,0-7.9
		c0-8.1,0-8.1-8-8c0-21.3,0-42.7,0-64c8,0.1,8,0.1,8-8c0-2.6,0-5.3,0-7.9c8,0.1,8,0.1,8-8c0-2.6,0-5.3,0-7.9
		c7.8,0.1,7.8,0.1,8.1-7.9c4.3-1.1,7-3.7,7.9-8.1l0,0c4.4-0.9,7.1-3.6,8-8l0,0c4.4-0.9,7.1-3.6,8-8l0,0c1.6-1.5,3.7-1.7,5.6-1.4
		c5.4,0.7,9.3-0.7,10.4-6.6l0,0c5.1-2.6,10.4-1.9,15.7-0.6c0.1,0.1,0.3,0.2,0.4,0.3c1.1,7,6.1,7.3,11.7,6.9c4.5-0.3,9-0.1,13.5-0.1
		c3,0,5.2-0.7,5.6-4.2c0.1-1.4,0.8-3,2.2-3c4.7-0.2,5.5-4,7-7.2c10.7-0.1,21.4-0.2,32.2-0.2c8,0,15.9,0.1,23.9,0.1c-0.1,8-0.1,8,8,8
		c2.6,0,5.3,0,7.9,0c-0.1,8.1-0.1,8.1,8,8c-0.1,8.1-0.1,8.1,8,8c-0.1,8.1-0.1,8.1,8,8c0,2.6,0,5.3,0,7.9c0,8.1,0,8.1,8,8
		c0,5.3,0,10.7,0,16c-2.7,2.2-6,1.5-9.1,1.4c-4-0.1-5.6,1.4-5.6,5.5c0.1,7,4.7,10.1,11.1,7.3c2.2-1,1.8-2.9,2-4.7
		c0.3-3.2-0.8-6.7,1.5-9.6c2.7,0,5.3,0,8,0C254.1,94,254.1,99.3,254.2,104.6z"/>
	<path class="st1" d="M102.2,32.9c-5.4,0-10.7-0.1-16.1-0.1c0-2.7,0-5.3,0-8c7.9-0.1,15.9-0.1,23.8-0.2c0,0,0.3,0.3,0.3,0.3
		c1.8,2.6,2,5.5,0,7.7C108,35,105,34.7,102.2,32.9z"/>
	<path class="st1" d="M86.2,32.8c0,8,0,8-8.1,8c-2.6,0-5.2,0-7.9,0c0-2.7,0-5.3,0-8C75.5,32.8,80.8,32.8,86.2,32.8z"/>
	<path class="st1" d="M54.2,56.7c0,7.8,0,7.8-7.9,8.1c0-2.7-0.1-5.4-0.1-8.1C48.9,56.8,51.5,56.8,54.2,56.7z"/>
	<path class="st1" d="M46.3,208.6c7.9,0.3,7.9,0.3,7.9,8.1c-2.7,0-5.3,0-8,0C46.2,213.9,46.3,211.3,46.3,208.6z"/>
	<path class="st1" d="M86.1,232.8c0,2.6,0.1,5.3,0.1,7.9c-5.3,0-10.6,0-16,0c-0.1-2.6-0.1-5.2-0.2-7.8c0.2-0.2,0.4-0.4,0.6-0.7
		c2.5-1.3,5.2-0.8,7.8-0.9C81.1,231.3,83.9,230.6,86.1,232.8z"/>
	<path class="st1" d="M70.2,40.8c-0.1,9.3,1.3,7.9-8,8c0-2.7,0-5.3,0-8C64.8,40.8,67.5,40.8,70.2,40.8z"/>
	<path class="st1" d="M62.2,48.8c-0.1,9.3,1.3,7.9-8,8c0-2.7,0-5.3,0-8C56.9,48.8,59.5,48.8,62.2,48.8z"/>
	<path class="st1" d="M54.2,216.7c2.7,0,5.3,0,8,0c0.2,0.2,0.4,0.3,0.5,0.5c0.9,2.1,0.8,4.3,0.3,6.5c-0.2,0.5-0.5,0.8-1,1.1
		c-2.6-0.1-5.2-0.1-7.8-0.2C54.2,222,54.2,219.3,54.2,216.7z"/>
	<path class="st1" d="M70,232.8c-2.6-0.1-5.2-0.1-7.8-0.2c-0.1-2.6-0.1-5.2-0.2-7.8c0,0,0.3-0.3,0.3-0.3c2.3-1.6,4.8-1.3,7.3-0.6
		c0.5,0.3,0.9,0.7,1.2,1.2c0.8,2.5,1.2,5-0.5,7.4L70,232.8z"/>
	<path class="st3" d="M102.2,32.9c7.7-0.3,7.7-0.3,8.1-8c10.6,0,21.2,0,31.8,0c0,1.5,0,3,0.1,4.5c0.2,2.6-0.9,3.7-3.5,3.4
		c-3.3-0.4-5.1,0.7-4.5,4.3c0.5,3.3-1.4,3.8-4.2,3.7c-7.5-0.1-14.9-0.3-22.4,0.1c-4.4,0.2-6.2-1-5.5-5.5
		C102.3,34.6,102.2,33.7,102.2,32.9z"/>
	<path class="st3" d="M246.1,160.7c0-4.1-0.1-8.3,0-12.4c0.1-2.4-0.6-4-3.3-3.5c-4.3,0.7-4.8-1.6-4.8-5.2c0.2-7.6,0.2-15.3,0-22.9
		c-0.1-3,0.9-4.2,4-4c4,0.2,8,0.1,11.9,0.1c0,14.7,0,29.5,0.2,44.2c0,2.7-0.6,4.1-3.6,3.7C249.1,160.5,247.6,160.7,246.1,160.7z"/>
	<path class="st4" d="M174.2,80.8c-0.1-8-0.1-8,8.1-8c9.1,0,18.2,0.2,27.4-0.1c3.9-0.1,4.7,1.2,4.6,4.8c-0.2,11.8-0.1,23.5-0.1,35.3
		c-0.2,0.2-0.4,0.4-0.7,0.6c-2.7,1-5.3,1.2-7.8-0.7c-1.4-2.6-1-5.3-1-8.1c-0.2-5.8-0.1-11.6-0.1-17.4c0.1-3.7-1.5-5-5.1-5
		c-6.3,0.1-12.6,0.1-18.9,0c-2,0-4,0.1-5.8-0.9C174.6,81.2,174.4,81,174.2,80.8z"/>
	<path class="st3" d="M86.1,232.8c-2.6-0.1-5.2-0.2-7.8-0.2c-1.1-4.3-3.7-7-8.1-7.9l0,0c-0.9-4.4-3.6-7.1-8-8c0,0,0,0,0,0
		c0-0.5,0-1,0-1.5c0-6.5,0-6.5,6.4-6.5c4.5,0,9,0.1,13.5,0c2.8-0.1,4.6,0.4,4.2,3.7c-0.4,3.2,0.7,4.8,4.1,4.3c3.1-0.4,4.3,1,3.9,4
		c-0.5,3.5,1.3,4.4,4.4,4c3.4-0.5,3.7,1.5,3.7,4.2c0,2.7-0.8,3.9-3.7,3.8C94.4,232.5,90.2,232.7,86.1,232.8z"/>
	<path class="st0" d="M206.1,144.7c0,1.2-0.1,2.3,0,3.5c0.4,3.2-0.4,5.2-4.2,4.5c-3.1-0.5-4.1,0.8-3.9,3.9c0.2,5-0.2,10,0.2,15
		c0.3,4.1-0.9,5.9-5.1,5.2c-1-0.2-2,0-3,0c-0.2-0.2-0.4-0.5-0.6-0.7c-1.6-5.1-0.6-10.3-0.8-15.5c0.2-5.2-1-10.6,1-15.7
		c2.3-2.1,5.2-1.5,7.9-1.5c2.6,0.1,5.3-0.4,7.9,0.8C205.6,144.3,205.8,144.5,206.1,144.7z"/>
	<path class="st4" d="M150.1,72.8c1.5,0,3,0.1,4.4,0c2.8-0.3,4,0.8,3.6,3.6c-0.7,3.9,1.2,4.7,4.7,4.5c3.8-0.3,7.6,0,11.3,0
		c0,0-0.1-0.1-0.1-0.1c1.9,2.7,1.9,5.4,0.3,8.2c-2.6,1.8-5.5,1.2-8.4,1.3c-3,0.2-6,0.1-9,0.1c-7.6-0.1-8.4-0.9-8.4-8.8
		c0.1-2.7-0.4-5.5,0.8-8.1C149.7,73.2,149.9,73,150.1,72.8z"/>
	<path class="st4" d="M62.2,128.8c-0.1-8-0.1-8,8-8c7.9,0,15.9,0,23.8,0c0.2,0.2,0.4,0.5,0.7,0.7c1.8,7.4,0.3,8.9-8.6,8.8
		c-7.7-0.2-15.5,0.9-23.2-0.8C62.7,129.2,62.5,129,62.2,128.8z"/>
	<path class="st3" d="M246.1,88.7c0,4.2,0.4,8.4-0.1,12.5c-1,7.4-6.8,2.4-10.3,3.4c-2.3,0.7-5.6,1.4-5.7-3.5
		c-0.3-12.3-0.5-12.3,11.6-12.3C243.1,88.7,244.6,88.7,246.1,88.7C246.1,88.7,246.1,88.7,246.1,88.7z"/>
	<path class="st4" d="M102.2,56.8c-0.1-8-0.1-8,8-8c6.1,0,12.3,0.3,18.3-0.1c4.6-0.3,6.4,1.1,5.6,5.7c-0.1,0.8-0.1,1.6-0.1,2.5
		c-0.2,0.2-0.5,0.4-0.7,0.6c-10.2,1.4-20.3,1.4-30.5,0C102.7,57.2,102.4,57,102.2,56.8z"/>
	<path class="st3" d="M46.2,200.7c0-4.2-0.4-8.4,0.1-12.5c1-7.4,6.8-2.4,10.3-3.4c2.3-0.7,5.6-1.4,5.7,3.5
		c0.3,12.3,0.5,12.3-11.6,12.3C49.1,200.7,47.6,200.7,46.2,200.7C46.1,200.7,46.2,200.7,46.2,200.7z"/>
	<path class="st0" d="M190.1,176.7c0,8.8-0.2,17.6,0.1,26.4c0.2,4.5-1,6.5-5.6,5.6c-0.8-0.1-1.7,0-2.5,0c-0.2-0.2-0.4-0.5-0.6-0.7
		c-1.3-10.5-1.9-20.9,0.4-31.4C184.6,174.8,187.4,174.7,190.1,176.7L190.1,176.7z"/>
	<path class="st4" d="M102.2,168.5c-9,0.1-17.9-0.1-26.9,0.3c-4.1,0.2-5.8-1-5.2-5.2c0.2-1,0.1-2,0.1-3c0.2-0.2,0.5-0.4,0.7-0.6
		c7.7-1.7,15.4-0.5,23.1-0.8c2.8,0,5.7-0.5,8.3,1.2C103.9,163.1,104.1,165.9,102.2,168.5z"/>
	<path class="st4" d="M94.1,96.8c-6.1,0-12.3-0.3-18.3,0.1c-4.5,0.3-6.4-1.1-5.6-5.7c0.1-0.8,0.1-1.7,0.1-2.5
		c0.2-0.2,0.5-0.4,0.7-0.6c7.7-1.3,15.3-1.5,23,0.1c2.2,2.4,1.9,5.1,0.8,7.9C94.5,96.3,94.3,96.6,94.1,96.8z"/>
	<path class="st4" d="M94.1,120.7c0-8,0-15.9,0-23.9c0,0,0.1-0.1,0.1-0.1c2.8-1.9,5.5-1.9,8.3-0.1c2,8,1.9,16.1,0,24.1
		C99.8,122.6,97,122.7,94.1,120.7L94.1,120.7z"/>
	<path class="st0" d="M214.1,112.7c8,0,8,0,8,8c0,2.6,0,5.3,0,7.9c0,8.1,0,8.1-8,8c-0.2-0.2-0.4-0.5-0.6-0.7
		C212.4,128.2,211.2,120.4,214.1,112.7L214.1,112.7z"/>
	<path class="st4" d="M70.2,88.7c-8,0.1-8,0.1-8-8c0-3.6,0.3-7.3-0.1-10.9c-0.4-4.2,1-5.8,5.2-5.1c1,0.2,2,0.1,3,0.1
		c0.2,0.2,0.4,0.5,0.6,0.7C71.9,73.3,73,81.1,70.2,88.7L70.2,88.7z"/>
	<path class="st4" d="M62.2,152.6c-8,0.1-8,0.1-8-8c0-3.6,0.3-7.3-0.1-10.9c-0.4-4.2,1.1-5.8,5.2-5.1c1,0.2,2,0.1,3,0.1
		c0,0-0.1-0.1-0.1-0.1c1.8,2.1,1.6,4.6,1.5,7.1c-0.2,5.4,0.9,10.9-0.8,16.2C62.6,152.2,62.4,152.4,62.2,152.6z"/>
	<path class="st4" d="M70.2,64.8c-0.1-8-0.1-8,7.9-8c8.1,0,8.1,0,7.9,8c-0.2,0.2-0.5,0.4-0.7,0.6C80.3,66.5,75.1,67.3,70.2,64.8
		L70.2,64.8z"/>
	<path class="st0" d="M102.2,168.5c0-2.6,0-5.2,0-7.9c-1.8-2.4-1.5-4.9-0.7-7.5c0.3-0.5,0.7-1,1.3-1.2c2.7-0.8,5.4-1.1,7.8,0.8
		c1.9,5,1.5,10.1,0.3,15.2c-0.2,0.2-0.4,0.5-0.6,0.7C107.5,168.6,104.8,168.6,102.2,168.5z"/>
	<path class="st0" d="M126.2,192.6c-8,0.1-8,0.1-8-8c0-2.6,0-5.3,0-7.9c0.2-0.2,0.5-0.4,0.7-0.6c6.7-1.6,8.6-0.3,8.7,6.2
		c0.1,3.2,0.6,6.5-0.8,9.7C126.6,192.2,126.4,192.4,126.2,192.6z"/>
	<path class="st0" d="M214.1,136.7c0.1,8.1,0.1,8.1-8,8l0.1,0.1c-1.9-2.7-2.3-5.7,0-8C208.4,134.4,211.4,134.8,214.1,136.7
		L214.1,136.7z"/>
	<path class="st0" d="M118.2,176.7c-8.1,0.1-8.1,0.1-8-8l-0.1,0.1c2.7-1.9,5.7-2.3,8,0C120.4,171,120,174,118.2,176.7L118.2,176.7z"
		/>
	<path class="st4" d="M142.1,64.8c8-0.1,8-0.1,8,8c0,0,0,0,0,0c-2.5,1.9-5.3,2.1-7.7,0.3c-2.5-1.9-2-4.8-1-7.6
		C141.7,65.2,141.9,65,142.1,64.8z"/>
	<path class="st4" d="M70.2,160.6c-8.1,0.1-8.1,0.1-8-8c0,0-0.1,0.1-0.1,0.1c2.7-1.9,5.7-2.3,8,0C72.5,155,72.1,158,70.2,160.6
		L70.2,160.6z"/>
	<path class="st4" d="M86.1,64.8c2.7,0,5.4,0,8.1,0c0.2,0.2,0.4,0.5,0.6,0.7c1.6,7.5-0.2,9.3-7.9,8.1c-0.6-0.2-1-0.6-1.4-1.2
		C84.5,69.8,84.3,67.2,86.1,64.8L86.1,64.8z"/>
	<path class="st0" d="M142.1,208.6c-8.1,0.1-8.1,0.1-8-8c0.2-0.2,0.5-0.4,0.7-0.6c6.5-2.4,10.4,1.3,7.9,7.9
		C142.6,208.2,142.4,208.4,142.1,208.6z"/>
	<path class="st0" d="M150.1,216.6c-8.1,0.1-8.1,0.1-8-8l-0.1,0.1c2.5-1.9,5.3-2.1,7.7-0.3c2.5,1.9,2,4.8,1,7.6
		C150.6,216.2,150.4,216.4,150.1,216.6z"/>
	<path class="st0" d="M182.1,208.6c0.1,8.1,0.1,8.1-8,8c-0.2-0.2-0.4-0.5-0.6-0.7c-1-2.7-1.5-5.6,1-7.6
		C176.8,206.6,179.7,206.8,182.1,208.6L182.1,208.6z"/>
	<path class="st0" d="M158.1,224.6c-8.1,0.1-8.1,0.1-8-8l-0.1,0.1c2.5-1.9,5.3-2.1,7.7-0.3c2.5,1.9,2,4.8,1,7.6
		C158.6,224.1,158.4,224.4,158.1,224.6z"/>
	<path class="st0" d="M174.1,216.6c0.1,8.1,0.1,8.1-8,8c-0.2-0.2-0.4-0.5-0.6-0.7c-1-2.7-1.5-5.6,1-7.6
		C168.8,214.5,171.7,214.8,174.1,216.6L174.1,216.6z"/>
	<path class="st0" d="M134.2,200.6c-8.1,0.1-8.1,0.1-8-8l-0.1,0.1c2.7-1.9,5.7-2.3,8,0C136.4,195,136,198,134.2,200.6L134.2,200.6z"
		/>
	<path class="st0" d="M166.1,224.6c0,1,0,2,0,3c0.1,2.8,0.5,5.3-4,5.3c-4.5,0-4.1-2.4-4-5.3c0-1,0-2,0-3c0,0-0.1,0.1-0.1,0.1
		C160.8,222.7,163.5,222.7,166.1,224.6L166.1,224.6z"/>
	<path class="st4" d="M94.2,64.8c-0.1-8.1-0.1-8.1,8-8c0,0-0.1-0.1-0.1-0.1c1.9,2.7,2.3,5.7,0,8C99.8,67.1,96.8,66.6,94.2,64.8
		L94.2,64.8z"/>
	<path class="st4" d="M134.1,56.8c8.1-0.1,8.1-0.1,8,8c0,0,0,0,0,0c-2.7,1.9-5.4,1.9-8.2,0.3C132.2,62.2,132.2,59.4,134.1,56.8
		L134.1,56.8z"/>
	<path class="st2" d="M70.2,224.7c7.9,0,7.9,0,8.1,7.9c-2.6,0-5.3,0-7.9,0C70.3,229.9,70.2,227.3,70.2,224.7z"/>
	<path class="st2" d="M62.2,216.7c9.3,0.2,7.8-1.3,8,8c-2.6-0.1-5.2-0.1-7.8-0.2C62.3,221.9,62.2,219.3,62.2,216.7z"/>
	<path class="st5" d="M70.1,160.7c0.1-8.1,0.1-8.1-8-8c0-8,0-16,0-24c8,0,15.9,0.1,23.9,0.1c3,6.2,1.4,9.1-5.3,9.4
		c-2.1,0.1-4.3-0.1-6.4,0.2c-1.3,0.2-2.2,0.8-2.3,2.2c-0.1,1.7,0.9,2.4,2.4,2.5c5.1,0.3,10.3,0.3,15.4,0c1.2-0.1,2.4-0.7,2.5-2
		c0.4-3.6,2.2-5.7,6-6.1c1.1-0.1,1.9-0.8,2-1.9c0.4-3.6,2.2-5.6,5.9-6.1c2.9-0.4,2.1-3.4,2.8-5.2c0.2-0.5,0.5-0.9,0.8-1.3
		c4.7-0.5,7.5-2.9,7.8-7.8c0.4-0.4,0.9-0.7,1.4-0.9c9.4-1.1,18.9-0.3,28.3-0.5c6.6-0.1,13.3,0,19.9,0c2.5,0,4.7-0.4,5.2-3.4
		c0.6-3.5,3-4.5,6.1-4.5c1,0,2,0,3-0.1c6.4-0.1,6.8-0.6,6.8-6.8c0-5.7-0.4-6-6.3-6.2c-2.7-0.1-5.7,0.7-8.1-1.5c0-2.7-0.1-5.3-0.1-8
		c9.3,0,18.5,0.1,27.8,0c3.1-0.1,4.4,0.7,4.3,4.1c-0.3,6.6-0.1,13.2-0.1,19.8c-0.8,0.9-1.9,1.3-3,1.4c-2.7,0.2-3.4,1.9-3.5,4.3
		c-0.1,3.4,0.6,6.8-0.8,10.1c-0.3,0.5-0.8,0.9-1.3,1.1c-2.4,0.9-4.9,0.6-7.4,0.6c-18.6,0-37.1,0-55.7,0c-3.7,0-6.7,0.5-6.9,5
		c-0.1,0.5-0.4,1-0.7,1.5c-0.3,0.3-0.7,0.8-1.2,0.8c-4.6-0.1-6.4,2.6-6.6,6.8c-0.2,0.5-0.6,0.8-1,1.1c-5.4-0.3-6.4,3.8-7.7,7.6
		c-4.7,0.4-6.9,3.5-8,7.7l0,0c-4.4,0.9-7,3.7-8.1,8C86.1,160.7,78.1,160.7,70.1,160.7z"/>
	<path class="st6" d="M214.1,136.7c-8.1-0.1-8.1-0.1-8,8c-2.6-0.1-5.3-0.1-7.9-0.2c-1.5-3.4-3-6.2-7.3-7.5c-3.3-1-2.5-5.2-1.3-8.2
		c4.4-1,7.7-3.3,8.6-8l-0.1,0.1c4.2-1.1,7-3.6,8-8c2.7,0,5.3-0.1,8-0.1C214.1,120.7,214.1,128.7,214.1,136.7z"/>
	<path class="st7" d="M206.1,112.8c-0.1,7.7-0.1,7.7-8,8c0-2.6,0-5.3,0-7.9c0-8.1,0-8.1,7.9-8.3
		C206.1,107.4,206.1,110.1,206.1,112.8z"/>
	<path class="st8" d="M190.2,144.8c-0.1,5.3-0.2,10.7-0.2,16c-1.8,1.7-4,1.5-6.1,1.5c-14.4,0-28.8,0-43.3,0c-3.9,0-7.3-0.5-8.2-5.3
		c-0.7-3.4-4.5-2.3-6.4-4c-1.8-2.7-1.7-5.5-0.3-8.4c3.3-1.5,7.1-2.3,7.8-7.1c0.3-2,2.7-2.3,4.6-2.3c13.2-0.2,26.5-0.2,39.8,0
		c1.8,0,4.3,0.2,4.7,2.1C183.3,142,186.9,143.1,190.2,144.8z"/>
	<path class="st9" d="M126.2,152.6c1.3,0,2.7,0.2,4,0.1c3.1-0.3,4.3,1,3.9,4c-0.5,3.5,1.3,4.1,4.4,4.1c17.1-0.1,34.3,0,51.4,0
		c0.1,5.3,0.1,10.6,0.2,16c-2.6,0-5.3,0-7.9,0c-5.6,2.4-7.7,1.8-9.5-3.4c-0.8-2.4-2.3-3-4.4-3.1c-3.2-0.1-6.3,0.1-9.5-0.1
		c-3.8-0.2-7,0.1-7.7,4.9c-0.3,1.9-1.9,2.6-3.7,2.9c-3.5,0.5-7,0.4-10.4,0.1c-2.2-0.2-3.8-1.4-4.1-3.6c-0.4-2.7-1.9-4-4.5-4.5
		c-1.6-0.3-3-1.2-3.2-2.8C124.7,162.2,123.3,157.2,126.2,152.6z"/>
	<path class="st10" d="M190.2,144.8c-1.3,0-2.7-0.2-4,0c-2.9,0.3-4.5-0.7-4.1-3.9c0.5-3.3-1.1-4.3-4.3-4.2
		c-13.1,0.1-26.3,0-39.4,0.1c-1.5,0-4.3-0.6-4,1.6c1,7.4-3.9,6.4-8.3,6.4c-2.7,1.9-5.4,1.8-8.1,0c-1.7-2.7-1.8-5.4,0.2-8.1l-0.1,0.1
		c4.4-1,7.1-3.7,8.1-8.1l-0.1,0.1c1.9-1.8,4.3-1.7,6.6-1.7c17,0,34,0,50.9,0c2.3,0,4.7-0.3,6.5,1.7c0,1.8-0.1,3.6-0.1,5.4
		c0,1.2,0.3,2.7,1.8,2.4c7.5-1.5,6.2,3.8,6.3,8C195.5,144.6,192.8,144.7,190.2,144.8z"/>
	<path class="st5" d="M134.1,56.7c0,2.7,0,5.4,0.1,8c2.3,5.6,1.6,7.6-3.6,9.4c-1.5,0.5-2.9,1-2.7,2.9c0.1,1.7,1.5,2.1,2.8,2.2
		c2.9,0.3,4.5,1.7,4.8,4.7c0.2,1.5,0.6,3,2.6,3c1.7-0.1,2-1.3,2.5-2.6c2-5.3,3.7-6,9.3-3.6c0.4,8,0.4,8,8.7,8c2.5,0,4.9,0,7.4,0.1
		c2.6,5.3,2,7.5-3.2,9.4c-2,0.7-2.9,1.9-3.3,3.8c-0.5,2.4-1.9,3.9-4.4,4c-9.4,0.2-18.8,0.9-28.2-0.4c-2-1-1.9-2.9-2.2-4.7
		c-0.3-1.7-1.2-2.8-3-2.5c-1.7,0.2-2,1.5-2.1,2.9c-0.1,1.3,0,2.7,0,4c0,2.6,0.4,5.2-1.4,7.4l0.1-0.1c-4.4,1-7.1,3.6-8.1,8.1l0.1-0.1
		c-2.7,1.9-5.3,2.1-8,0c-0.1-8-0.1-16-0.2-23.9c-2.3-5.8-1.7-7.3,4.1-9.6c1.4-0.6,2.4-1.2,2.2-2.8c-0.1-1.7-1.4-2-2.8-2.2
		c-1.5-0.1-3,0-4.5-0.1c-3.3-0.2-5.6,0.6-5.7,4.4c0,0.8-0.5,1.6-1.2,2.1c-8,0-16,0.1-24,0.1c0-8,0-16,0-24c5.3,0,10.7,0,16,0
		c0,2.7,0,5.4,0,8.1c-1.3,1.3-3,1.1-4.6,1.5c-1.5,0.4-2.1,1.5-1.9,3c0.1,1.1,0.8,1.8,1.9,1.9c1.5,0.2,2.6-0.4,3-1.9
		c0.4-1.6,0.2-3.3,1.5-4.6c8.1,0.1,8.1,0.1,8-8c8.1,0.1,8.1,0.1,8-8C112.8,56.7,123.5,56.7,134.1,56.7z"/>
	<path class="st7" d="M118.1,112.7c0-2.7,0.1-5.4,0.1-8.1c2.6-1.8,5.2-1.8,7.9-0.1c9.3,0,18.6,0,27.9,0.2c3.3,0.1,4.5-1,4.2-4.3
		c-0.2-1.5-0.5-4,2-3.6c7.3,1,6-3.8,5.8-8.1c2.7,0,5.4-0.1,8.2-0.1c4.2,0,8.3,0.1,12.5,0c2.6-0.1,3.4,0.9,3.5,3.5
		c0.7,12.4,0.7,12.4-11.4,12.5c-2.7,0-5.2-0.2-4.7,3.7c0.5,3.7-1.3,4.4-4.6,4.4C152.4,112.7,135.2,112.7,118.1,112.7z"/>
	<path class="st11" d="M150,80.7c-1.3,0-2.7,0.2-4,0c-3-0.4-4.4,0.7-3.9,3.8c0.5,3.1-0.6,4.3-4,4.3c-3.4,0-4.5-1.2-4-4.3
		c0.5-3.1-1-4.2-3.9-3.8c-3.3,0.5-4.2-0.9-4.2-4.1c0-3,0.8-4.4,3.9-3.9c3.7,0.6,4.6-1.3,4.2-4.5c-0.1-1.1,0-2.3,0.1-3.5
		c2.6,0,5.3,0,7.9,0c-0.1,8.1-0.1,8.1,8,8C150.1,75.4,150,78,150,80.7z"/>
	<path class="st7" d="M102.2,120.7c2.7,0,5.3,0,8,0c0,1.3-0.1,2.7,0,4c0.3,2.9-0.7,4.5-3.9,4c-3.3-0.5-4.6,1-4.2,4.2
		c0.5,3.2-1.2,4.2-4.1,3.8c-3.1-0.4-4.3,1-3.9,4c0.5,3.5-1.3,4.2-4.3,4.1c-5.3-0.2-10.7-0.2-16,0c-3.4,0.1-3.7-1.5-3.7-4.3
		c0-2.7,0.7-4.1,3.6-3.8c1.5,0.1,3,0,4.5,0c8.1,0,8.1,0,7.8-7.9c8.1-0.2,8.1-0.2,8.1-8C96.9,120.7,99.5,120.7,102.2,120.7z"/>
	<path class="st6" d="M118.3,144.8c2.6,0,5.2,0,7.8,0c0.1,2.6,0.1,5.2,0.2,7.8c0,4,0,8-0.1,11.9c-0.1,2.8,0.6,4.6,3.8,4.1
		c3.2-0.4,4.7,0.9,4.2,4.2c-0.4,3.2,1.2,4.1,4.1,3.9c1.8-0.2,3.7-0.2,5.5,0c4.1,0.4,7.4,0.1,6.5-5.5c-0.3-1.9,1-2.6,2.8-2.5
		c6.1,0,12.3,0,18.4,0c1.2,0,2.8,0.3,2.5,1.7c-1.3,7.5,3.9,6.3,8.2,6.4c0,10.7,0,21.3,0,32c-8.1-0.1-8.1-0.1-8,8
		c-8.1-0.1-8.1-0.1-8,8c-2.7,0-5.4,0-8.1,0c0.1-8.1,0.1-8.1-8-8c0.1-8.1,0.1-8.1-8-8c0.1-8.1,0.1-8.1-8-8c0.1-8.1,0.1-8.1-8-8
		c0-3.6-0.3-7.2,0.1-10.8c0.4-4.1-0.7-6.2-5.2-5.3c-0.9,0.2-2,0-2.9,0.1c0.1-8.1,0.1-8.1-8-8c0-5.3,0.1-10.6,0.1-15.9
		c0.2-0.2,0.3-0.4,0.5-0.5c4.5-0.1,6.8-2.6,7-7C117.9,145.1,118.1,144.9,118.3,144.8z"/>
	<path class="st7" d="M94,160.6c0.3-7.9,0.3-7.9,8.1-8c0,2.7,0,5.3,0,8C99.4,160.7,96.7,160.6,94,160.6z"/>
	<path class="st7" d="M94.1,88.7c0-1,0.1-2,0-3c-0.6-3.9,1-5.5,5-5c2.1,0.3,4.3,0.1,6.5,0c2.8-0.1,4.8,0,4.7,3.8
		c-0.1,3.3-1,4.7-4.3,4.2c-3.2-0.5-4.1,1.2-3.8,4.1c0.1,1.3-0.1,2.7-0.1,4c-2.6,0-5.2,0-7.8-0.1C94.2,94,94.2,91.4,94.1,88.7z"/>
	<path class="st7" d="M102.1,152.7c0.1-7.8,0.1-7.8,7.9-8.1c0.2,0.2,0.4,0.4,0.6,0.6c1.2,2.6,1.2,5.2-0.5,7.6c0,0,0-0.1,0-0.1
		C107.5,152.7,104.8,152.7,102.1,152.7z"/>
	<path class="st7" d="M190.2,128.8c-21.4,0-42.7,0-64.1-0.1c0-8.1,0-8.1,8.3-8.1c21.3,0,42.5,0,63.8,0
		C197.9,128.5,197.9,128.5,190.2,128.8z"/>
	<path class="st7" d="M110.1,120.7c0.1-8,0.1-8,8.1-8.1C118.1,120.7,118.1,120.7,110.1,120.7z"/>
	<path class="st7" d="M126.2,128.7c-0.2,7.9-0.2,7.9-8.1,8.1C118.1,128.7,118.1,128.7,126.2,128.7z"/>
	<path class="st7" d="M118.2,136.7c0,2.7,0.1,5.4,0.1,8.1c0,0-0.2-0.1-0.2-0.1c-2.6,1.9-5.2,1.9-7.8,0.1c0,0-0.2-0.2-0.2-0.2
		C110.3,136.7,110.3,136.7,118.2,136.7z"/>
	<path class="st4" d="M86.1,72.7c0,1.3-0.1,2.6,0.1,3.9c0.4,3.3-1,4.2-4.2,4.2c-3,0-3.9-1-4-4c0-3.2,0.9-4.6,4.2-4.2
		C83.5,72.9,84.9,72.8,86.1,72.7C86.2,72.8,86.1,72.7,86.1,72.7z"/>
	<path class="st11" d="M118.1,68.9c0.7,3.2-0.8,3.9-3.8,4c-3.3,0.1-4.2-1-4.2-4.2c0-3.1,1-3.9,4-4C117.3,64.6,118.8,65.5,118.1,68.9
		z"/>
	<path class="st11" d="M126.1,104.6c-2.6,0-5.2,0.1-7.9,0.1c0-1,0-2-0.1-3c-0.2-3.1-0.1-5.2,4.2-5.1c4.3,0.1,3.9,2.4,3.8,5.1
		C126.1,102.6,126.1,103.6,126.1,104.6z"/>
	<path class="st4" d="M110.2,144.8c2.6,0,5.2-0.1,7.8-0.1c0.2,7.8,0.2,7.8-7.9,8.2C110.2,150.1,110.2,147.5,110.2,144.8z"/>
</g>
</svg>
