<svg width="467" height="468" xmlns="http://www.w3.org/2000/svg" xmlns:xlink="http://www.w3.org/1999/xlink" overflow="hidden"><defs><clipPath id="clip0"><rect x="2012" y="1058" width="467" height="468"/></clipPath><clipPath id="clip1"><rect x="2071" y="1135" width="353" height="315"/></clipPath><clipPath id="clip2"><rect x="2071" y="1135" width="353" height="315"/></clipPath><clipPath id="clip3"><rect x="2071" y="1135" width="353" height="315"/></clipPath></defs><g clip-path="url(#clip0)" transform="translate(-2012 -1058)"><path d="M2013 1292C2013 1163.87 2116.87 1060 2245 1060 2373.13 1060 2477 1163.87 2477 1292 2477 1420.13 2373.13 1524 2245 1524 2116.87 1524 2013 1420.13 2013 1292Z" fill="#FFFFFF" fill-rule="evenodd" fill-opacity="1"/><g clip-path="url(#clip1)"><g clip-path="url(#clip2)"><g clip-path="url(#clip3)"><path d="M265.833 93.5C259.417 89.8333 251.167 89.8333 243.833 93.5L192.5 123.75 157.667 143 107.25 173.25C100.833 176.917 92.5833 176.917 85.25 173.25L45.8333 149.417C39.4167 145.75 34.8333 138.417 34.8333 130.167L34.8333 84.3333C34.8333 77 38.5 69.6667 45.8333 65.0833L85.25 42.1667C91.6667 38.5 99.9167 38.5 107.25 42.1667L146.667 66C153.083 69.6667 157.667 77 157.667 85.25L157.667 115.5 192.5 95.3333 192.5 64.1667C192.5 56.8333 188.833 49.5 181.5 44.9167L108.167 1.83333C101.75-1.83333 93.5-1.83333 86.1667 1.83333L11 45.8333C3.66667 49.5 0 56.8333 0 64.1667L0 150.333C0 157.667 3.66667 165 11 169.583L85.25 212.667C91.6667 216.333 99.9167 216.333 107.25 212.667L157.667 183.333 192.5 163.167 242.917 133.833C249.333 130.167 257.583 130.167 264.917 133.833L304.333 156.75C310.75 160.417 315.333 167.75 315.333 176L315.333 221.833C315.333 229.167 311.667 236.5 304.333 241.083L265.833 264C259.417 267.667 251.167 267.667 243.833 264L204.417 241.083C198 237.417 193.417 230.083 193.417 221.833L193.417 192.5 158.583 212.667 158.583 242.917C158.583 250.25 162.25 257.583 169.583 262.167L243.833 305.25C250.25 308.917 258.5 308.917 265.833 305.25L340.083 262.167C346.5 258.5 351.083 251.167 351.083 242.917L351.083 155.833C351.083 148.5 347.417 141.167 340.083 136.583L265.833 93.5Z" fill="#8247E5" fill-rule="nonzero" fill-opacity="1" transform="matrix(1 0 0 1.00017 2071 1138.93)"/></g></g></g></g></svg>