<svg width="192" height="192" xmlns="http://www.w3.org/2000/svg" xmlns:xlink="http://www.w3.org/1999/xlink" xml:space="preserve" overflow="hidden"><defs><clipPath id="clip0"><rect x="544" y="264" width="192" height="192"/></clipPath><clipPath id="clip1"><path d="M544 360C544 306.981 586.981 264 640 264 693.019 264 736 306.981 736 360 736 413.019 693.019 456 640 456 586.981 456 544 413.019 544 360Z" fill-rule="evenodd" clip-rule="evenodd"/></clipPath></defs><g clip-path="url(#clip0)" transform="translate(-544 -264)"><g clip-path="url(#clip1)"><path d="M647.6 456.1C642.698 456.1 637.796 456.1 632.869 456.06 632.283 455.947 631.723 455.861 631.16 455.803 630.081 455.692 628.996 455.638 627.924 455.485 626.326 455.258 624.732 454.99 623.145 454.696 621.385 454.369 619.625 454.032 617.882 453.631 614.205 452.785 610.586 451.724 607.065 450.371 604.426 449.357 601.816 448.257 599.242 447.087 597.297 446.204 595.404 445.195 593.536 444.157 591.671 443.122 589.838 442.024 588.041 440.876 584.817 438.815 581.729 436.562 578.822 434.069 577.236 432.709 575.63 431.366 574.108 429.934 572.693 428.602 571.365 427.177 570.026 425.767 569.083 424.774 568.165 423.756 567.275 422.715 566.146 421.394 564.999 420.081 563.963 418.687 562.505 416.725 561.065 414.742 559.758 412.678 558.077 410.024 556.431 407.336 554.964 404.56 553.557 401.899 552.318 399.139 551.152 396.361 549.661 392.81 548.429 389.158 547.472 385.423 546.94 383.346 546.444 381.256 546.011 379.156 545.646 377.384 545.371 375.593 545.101 373.803 544.867 372.25 544.669 370.691 544.51 369.128 544.393 367.98 544.371 366.823 544.292 365.67 544.285 365.576 544.167 365.49 544.1 365.4 544.1 361.931 544.1 358.462 544.14 354.969 544.22 354.859 544.288 354.776 544.294 354.689 544.337 354.113 544.351 353.535 544.403 352.96 544.526 351.587 544.637 350.212 544.805 348.844 545.008 347.173 545.219 345.502 545.51 343.845 545.875 341.762 546.26 339.678 546.753 337.622 547.643 333.909 548.693 330.236 550.107 326.684 551.177 323.997 552.296 321.326 553.48 318.688 554.208 317.068 555.047 315.491 555.932 313.95 557.253 311.649 558.577 309.342 560.049 307.137 561.588 304.832 563.239 302.594 564.96 300.421 566.662 298.271 568.442 296.172 570.318 294.172 572.087 292.286 574.004 290.536 575.897 288.77 577.038 287.705 578.223 286.681 579.45 285.716 581.53 284.081 583.614 282.442 585.778 280.922 588.751 278.833 591.85 276.927 595.09 275.281 597.893 273.856 600.738 272.499 603.627 271.258 607.256 269.701 611.004 268.451 614.826 267.446 616.852 266.913 618.897 266.444 620.948 266.009 622.477 265.685 624.026 265.447 625.57 265.201 626.958 264.979 628.348 264.761 629.744 264.611 631.134 264.462 632.535 264.403 633.93 264.292 634.024 264.284 634.11 264.167 634.2 264.1 638.169 264.1 642.138 264.1 646.131 264.14 646.241 264.22 646.324 264.287 646.411 264.295 647.657 264.401 648.905 264.48 650.149 264.605 651.615 264.751 653.086 264.886 654.541 265.115 656.31 265.393 658.078 265.702 659.821 266.11 662.729 266.792 665.633 267.506 668.508 268.317 670.365 268.841 672.189 269.503 673.986 270.209 676.496 271.195 678.993 272.224 681.449 273.34 683.23 274.149 684.962 275.077 686.665 276.043 688.789 277.248 690.898 278.487 692.945 279.817 696.208 281.938 699.338 284.248 702.268 286.818 703.68 288.056 705.121 289.263 706.483 290.554 707.76 291.764 708.965 293.053 710.174 294.333 711.149 295.364 712.113 296.408 713.029 297.492 714.393 299.107 715.777 300.712 717.03 302.412 718.537 304.457 719.989 306.55 721.328 308.708 722.926 311.28 724.424 313.918 725.876 316.576 726.71 318.103 727.411 319.708 728.091 321.313 729.004 323.466 729.925 325.623 730.686 327.832 731.627 330.563 732.469 333.332 733.237 336.117 733.819 338.231 734.261 340.387 734.682 342.54 734.992 344.125 735.189 345.733 735.395 347.337 735.592 348.865 735.731 350.4 735.908 351.93 735.919 352.026 736.033 352.11 736.1 352.2 736.1 357.469 736.1 362.738 736.06 368.031 735.98 368.174 735.915 368.29 735.904 368.411 735.829 369.28 735.802 370.154 735.691 371.018 735.486 372.606 735.269 374.193 734.993 375.77 734.619 377.903 734.253 380.041 733.761 382.148 732.901 385.837 731.804 389.459 730.512 393.023 729.323 396.301 727.949 399.497 726.42 402.626 725.683 404.135 724.888 405.618 724.054 407.076 723.036 408.857 721.991 410.625 720.883 412.352 718.817 415.572 716.572 418.666 714.074 421.568 712.537 423.354 711.025 425.172 709.37 426.843 707.285 428.948 705.09 430.946 702.894 432.936 701.582 434.124 700.22 435.269 698.8 436.323 696.732 437.858 694.636 439.363 692.469 440.751 690.057 442.297 687.583 443.754 685.076 445.14 683.25 446.149 681.35 447.034 679.439 447.876 677.253 448.839 675.05 449.78 672.799 450.574 669.414 451.769 665.988 452.837 662.475 453.628 659.228 454.359 655.976 455.037 652.665 455.4 651.067 455.576 649.468 455.731 647.87 455.908 647.774 455.918 647.69 456.033 647.6 456.1M694.702 372.599C694.702 372.599 694.705 372.592 694.694 372.684 694.707 374.188 694.377 374.665 692.93 375.096 692.325 375.276 691.701 375.407 691.076 375.494 688.322 375.876 685.563 376.215 682.811 376.606 679.668 377.052 677.273 379.772 677.425 382.941 677.616 386.967 679.533 390.01 683.059 392.026 683.775 392.435 684.489 392.893 685.083 393.457 686.176 394.492 686.344 395.934 685.509 397.191 685.037 397.901 684.462 398.605 683.781 399.104 680.81 401.281 677.474 402.532 673.774 402.694 670.518 402.837 667.284 402.521 664.066 402.066 657.959 401.203 651.924 399.953 645.947 398.443 641.184 397.241 636.452 395.913 631.711 394.622 631.234 394.492 630.891 394.558 630.469 394.834 629.006 395.789 627.534 396.738 626.005 397.581 623.344 399.049 620.423 399.831 617.511 400.625 614.995 401.311 612.439 401.766 609.836 401.885 606.917 402.018 604.017 401.844 601.131 401.318 595.171 400.232 590.003 397.625 585.67 393.392 582.863 390.65 580.663 387.471 579.042 383.898 576.471 378.234 575.535 372.309 576.443 366.153 577.574 358.492 581.247 352.183 586.929 346.993 587.208 346.737 587.477 346.47 587.75 346.209 587.557 346.16 587.431 346.191 587.31 346.237 582.739 347.976 578.797 350.697 575.255 354.023 572.631 356.486 570.363 359.25 568.458 362.308 563.461 370.33 561.617 379.062 562.633 388.419 563.114 392.849 564.25 397.127 565.895 401.264 569.654 410.719 575.382 418.815 582.89 425.654 588.56 430.819 594.945 434.929 601.81 438.314 608.058 441.395 614.597 443.644 621.397 445.133 622.794 445.438 624.212 445.649 625.701 445.9 626.034 445.966 626.365 446.052 626.701 446.095 628.165 446.281 629.627 446.486 631.096 446.626 633.039 446.812 634.985 447.047 636.932 447.077 640.48 447.132 644.034 447.209 647.573 446.801 649.119 446.623 650.673 446.505 652.211 446.278 654.177 445.986 656.141 445.666 658.086 445.263 665.339 443.759 672.284 441.35 678.911 438.04 688.027 433.486 696.109 427.529 703.138 420.147 712.045 410.79 718.56 399.987 722.688 387.749 724.566 382.177 725.83 376.464 726.519 370.624 726.61 369.854 726.65 369.078 726.707 368.304 726.77 367.436 726.825 366.567 726.921 365.622 726.98 364.853 727.092 364.084 727.089 363.315 727.08 360.523 727.069 357.73 726.983 354.94 726.941 353.583 726.739 352.23 726.598 350.876 726.464 349.581 726.356 348.281 726.163 346.994 725.445 342.231 724.343 337.555 722.825 332.982 718.237 319.156 710.669 307.213 700.136 297.153 693.175 290.505 685.313 285.173 676.575 281.139 669.549 277.894 662.219 275.624 654.577 274.386 652.804 274.099 651.018 273.879 649.231 273.707 647.059 273.499 644.88 273.28 642.702 273.24 640.165 273.194 637.624 273.313 635.087 273.408 633.533 273.466 631.977 273.562 630.432 273.729 626.356 274.171 622.33 274.909 618.363 275.946 604.646 279.533 592.521 286.081 581.977 295.554 581.664 295.835 581.392 296.197 581.202 296.572 580.394 298.168 580.184 299.841 580.599 301.598 581.264 304.407 583.697 306.691 586.551 307.101 587.598 307.251 588.665 307.273 589.707 307.447 590.202 307.529 590.455 307.471 590.675 306.996 592.282 303.519 594.555 300.537 597.367 297.937 600.183 295.332 604.908 295.474 607.558 298.36 609.386 300.351 610.964 302.499 612.097 304.956 612.27 305.33 612.487 305.433 612.851 305.401 613.669 305.329 614.487 305.255 615.307 305.202 616.711 305.11 618.116 304.956 619.519 304.968 621.892 304.988 624.266 305.099 626.637 305.207 627.791 305.26 628.942 305.386 630.093 305.495 630.535 305.537 630.973 305.625 631.413 305.691 632.547 305.862 633.688 306.001 634.812 306.224 635.093 306.28 635.243 306.249 635.406 306.069 635.54 305.92 635.664 305.763 635.793 305.611 637.714 303.342 639.932 301.412 642.479 299.882 644.496 298.671 646.497 298.793 648.414 300.152 649.591 300.987 650.446 302.109 651.187 303.329 653.312 306.829 654.754 310.595 655.599 314.598 655.645 314.818 655.799 315.048 655.967 315.203 657.877 316.963 659.872 318.637 661.706 320.472 667.723 326.495 673.146 333.029 678.12 339.934 680.134 342.731 682.094 345.568 683.613 348.676 683.932 349.329 684.175 350.027 684.386 350.724 684.673 351.671 684.785 352.684 685.17 353.584 685.79 355.033 686.536 356.433 687.294 357.818 688.74 360.458 690.232 363.073 691.711 365.77 692.674 367.93 693.636 370.09 694.605 372.328 694.639 372.419 694.674 372.511 694.702 372.599M645.858 348.969C644.98 348.966 644.08 348.838 643.228 348.985 640.912 349.385 639.032 350.687 637.255 352.143 637.171 352.212 637.126 352.449 637.177 352.548 638.239 354.614 639.443 356.583 641.167 358.18 642.518 359.431 644.074 360.268 645.93 360.472 647.492 360.643 649.008 360.382 650.496 359.937 651.428 359.659 652.347 359.335 653.256 359.036 652.838 356.557 651.318 353.263 649.773 351.461 648.742 350.258 647.517 349.349 645.858 348.969M597.466 311.21C600.929 310.573 604.391 309.936 607.916 309.288 607.778 309.007 607.665 308.753 607.532 308.51 606.516 306.669 605.211 305.063 603.629 303.676 602.607 302.78 600.902 302.781 599.935 303.741 597.818 305.839 596.248 308.286 595.311 311.125 595.259 311.285 595.246 311.458 595.201 311.7 595.99 311.528 596.687 311.377 597.466 311.21M587.948 346.044C587.948 346.044 587.952 346.052 587.948 346.044Z" fill="#FF4F24" fill-rule="nonzero" fill-opacity="1"/><path d="M634.153 264.1C634.11 264.167 634.024 264.284 633.93 264.292 632.535 264.403 631.134 264.462 629.744 264.611 628.348 264.761 626.958 264.979 625.57 265.201 624.026 265.447 622.477 265.685 620.948 266.009 618.897 266.444 616.852 266.913 614.826 267.446 611.004 268.451 607.256 269.701 603.627 271.258 600.738 272.499 597.893 273.856 595.09 275.281 591.85 276.927 588.751 278.833 585.778 280.922 583.614 282.442 581.53 284.081 579.45 285.716 578.223 286.681 577.038 287.705 575.897 288.77 574.004 290.536 572.087 292.286 570.318 294.172 568.442 296.172 566.662 298.271 564.96 300.421 563.239 302.594 561.588 304.832 560.049 307.137 558.577 309.342 557.253 311.649 555.932 313.95 555.047 315.491 554.208 317.068 553.48 318.688 552.296 321.326 551.177 323.997 550.107 326.684 548.693 330.236 547.643 333.909 546.753 337.622 546.26 339.678 545.875 341.762 545.51 343.845 545.219 345.502 545.008 347.173 544.805 348.844 544.637 350.212 544.526 351.587 544.403 352.96 544.351 353.535 544.337 354.113 544.294 354.689 544.288 354.776 544.22 354.859 544.14 354.922 544.1 324.641 544.1 294.381 544.1 264.1 574.102 264.1 604.104 264.1 634.153 264.1Z" fill="#000000" fill-rule="nonzero" fill-opacity="1"/><path d="M544.1 365.447C544.167 365.49 544.285 365.576 544.292 365.67 544.371 366.823 544.393 367.98 544.51 369.128 544.669 370.691 544.867 372.25 545.101 373.803 545.371 375.593 545.646 377.384 546.011 379.156 546.444 381.256 546.94 383.346 547.472 385.423 548.429 389.158 549.661 392.81 551.152 396.361 552.318 399.139 553.557 401.899 554.964 404.56 556.431 407.336 558.077 410.024 559.758 412.678 561.065 414.742 562.505 416.725 563.963 418.687 564.999 420.081 566.146 421.394 567.275 422.715 568.165 423.756 569.083 424.774 570.026 425.767 571.365 427.177 572.693 428.602 574.108 429.934 575.63 431.366 577.236 432.709 578.822 434.069 581.729 436.562 584.817 438.815 588.041 440.876 589.838 442.024 591.671 443.122 593.536 444.157 595.404 445.195 597.297 446.204 599.242 447.087 601.816 448.257 604.426 449.357 607.065 450.371 610.586 451.724 614.205 452.785 617.882 453.631 619.625 454.032 621.385 454.369 623.145 454.696 624.732 454.99 626.326 455.258 627.924 455.485 628.996 455.638 630.081 455.692 631.16 455.803 631.723 455.861 632.283 455.947 632.822 456.06 603.241 456.1 573.681 456.1 544.1 456.1 544.1 425.898 544.1 395.696 544.1 365.447Z" fill="#000000" fill-rule="nonzero" fill-opacity="1"/><path d="M736.1 352.153C736.033 352.11 735.919 352.026 735.908 351.93 735.731 350.4 735.592 348.865 735.395 347.337 735.189 345.733 734.992 344.125 734.682 342.54 734.261 340.387 733.819 338.231 733.237 336.117 732.469 333.332 731.627 330.563 730.686 327.832 729.925 325.623 729.004 323.466 728.091 321.313 727.411 319.708 726.71 318.103 725.876 316.576 724.424 313.918 722.926 311.28 721.328 308.708 719.989 306.55 718.537 304.457 717.03 302.412 715.777 300.712 714.393 299.107 713.029 297.492 712.113 296.408 711.149 295.364 710.174 294.333 708.965 293.053 707.76 291.764 706.483 290.554 705.121 289.263 703.68 288.056 702.268 286.818 699.338 284.248 696.208 281.938 692.945 279.817 690.898 278.487 688.789 277.248 686.665 276.043 684.962 275.077 683.23 274.149 681.449 273.34 678.993 272.224 676.496 271.195 673.986 270.209 672.189 269.503 670.365 268.841 668.508 268.317 665.633 267.506 662.729 266.792 659.821 266.11 658.078 265.702 656.31 265.393 654.541 265.115 653.086 264.886 651.615 264.751 650.149 264.605 648.905 264.48 647.657 264.401 646.411 264.295 646.324 264.287 646.241 264.22 646.178 264.14 676.159 264.1 706.119 264.1 736.1 264.1 736.1 293.435 736.1 322.771 736.1 352.153Z" fill="#000000" fill-rule="nonzero" fill-opacity="1"/><path d="M647.647 456.1C647.69 456.033 647.774 455.918 647.87 455.908 649.468 455.731 651.067 455.576 652.665 455.4 655.976 455.037 659.228 454.359 662.475 453.628 665.988 452.837 669.414 451.769 672.799 450.574 675.05 449.78 677.253 448.839 679.439 447.876 681.35 447.034 683.25 446.149 685.076 445.14 687.583 443.754 690.057 442.297 692.469 440.751 694.636 439.363 696.732 437.858 698.8 436.323 700.22 435.269 701.582 434.124 702.894 432.936 705.09 430.946 707.285 428.948 709.37 426.843 711.025 425.172 712.537 423.354 714.074 421.568 716.572 418.666 718.817 415.572 720.883 412.352 721.991 410.625 723.036 408.857 724.054 407.076 724.888 405.618 725.683 404.135 726.42 402.626 727.949 399.497 729.323 396.301 730.512 393.023 731.804 389.459 732.901 385.837 733.761 382.148 734.253 380.041 734.619 377.903 734.993 375.77 735.269 374.193 735.486 372.606 735.691 371.018 735.802 370.154 735.829 369.28 735.904 368.411 735.915 368.29 735.98 368.174 736.06 368.078 736.1 397.426 736.1 426.752 736.1 456.1 706.631 456.1 677.162 456.1 647.647 456.1Z" fill="#000000" fill-rule="nonzero" fill-opacity="1"/><path d="M691.705 365.698C690.232 363.073 688.74 360.458 687.294 357.818 686.536 356.433 685.79 355.033 685.17 353.584 684.785 352.684 684.673 351.671 684.386 350.724 684.175 350.027 683.932 349.329 683.613 348.676 682.094 345.568 680.134 342.731 678.12 339.934 673.146 333.029 667.723 326.495 661.706 320.472 659.872 318.637 657.877 316.963 655.967 315.203 655.799 315.048 655.645 314.818 655.599 314.598 654.754 310.595 653.312 306.829 651.187 303.329 650.446 302.109 649.591 300.987 648.414 300.152 646.497 298.793 644.496 298.671 642.479 299.882 639.932 301.412 637.714 303.342 635.793 305.611 635.664 305.763 635.54 305.92 635.406 306.069 635.243 306.249 635.093 306.28 634.812 306.224 633.688 306.001 632.547 305.862 631.413 305.691 630.973 305.625 630.535 305.537 630.093 305.495 628.942 305.386 627.791 305.26 626.637 305.207 624.266 305.099 621.892 304.988 619.519 304.968 618.116 304.956 616.711 305.11 615.307 305.202 614.487 305.255 613.669 305.329 612.851 305.401 612.487 305.433 612.27 305.33 612.097 304.956 610.964 302.499 609.386 300.351 607.558 298.36 604.908 295.474 600.183 295.332 597.367 297.937 594.555 300.537 592.282 303.519 590.675 306.996 590.455 307.471 590.202 307.529 589.707 307.447 588.665 307.273 587.598 307.251 586.551 307.101 583.697 306.691 581.264 304.407 580.599 301.598 580.184 299.841 580.394 298.168 581.202 296.572 581.392 296.197 581.664 295.835 581.977 295.554 592.521 286.081 604.646 279.533 618.363 275.946 622.33 274.909 626.356 274.171 630.432 273.729 631.977 273.562 633.533 273.466 635.087 273.408 637.624 273.313 640.165 273.194 642.702 273.24 644.88 273.28 647.059 273.499 649.231 273.707 651.018 273.879 652.804 274.099 654.577 274.386 662.219 275.624 669.549 277.894 676.575 281.139 685.313 285.173 693.175 290.505 700.136 297.153 710.669 307.213 718.237 319.156 722.825 332.982 724.343 337.555 725.445 342.231 726.163 346.994 726.356 348.281 726.464 349.581 726.598 350.876 726.739 352.23 726.941 353.583 726.983 354.94 727.069 357.73 727.08 360.523 727.089 363.315 727.092 364.084 726.98 364.853 726.856 365.661 715.096 365.699 703.401 365.699 691.705 365.698Z" fill="#FBFBFB" fill-rule="nonzero" fill-opacity="1"/><path d="M691.708 365.734C703.401 365.699 715.096 365.699 726.838 365.699 726.825 366.567 726.77 367.436 726.707 368.304 726.65 369.078 726.61 369.854 726.519 370.624 725.83 376.464 724.566 382.177 722.688 387.749 718.56 399.987 712.045 410.79 703.138 420.147 696.109 427.529 688.027 433.486 678.911 438.04 672.284 441.35 665.339 443.759 658.086 445.263 656.141 445.666 654.177 445.986 652.211 446.278 650.673 446.505 649.119 446.623 647.573 446.801 644.034 447.209 640.48 447.132 636.932 447.077 634.985 447.047 633.039 446.812 631.096 446.626 629.627 446.486 628.165 446.281 626.701 446.095 626.365 446.052 626.034 445.966 625.639 445.87 625.416 445.794 625.258 445.744 625.097 445.703 621.234 444.718 617.841 442.881 615.076 439.997 611.317 436.077 609.357 431.349 608.979 425.943 608.803 423.421 609.019 420.941 609.709 418.513 611.564 411.979 615.598 407.363 621.9 404.77 624.785 403.583 627.833 403.118 630.908 402.808 632.323 402.666 633.749 402.558 635.169 402.566 637.157 402.579 639.145 402.705 641.132 402.803 642.303 402.861 643.477 402.916 644.64 403.051 646.481 403.265 648.315 403.542 650.152 403.798 652.207 404.086 654.261 404.384 656.318 404.669 657.657 404.854 658.998 405.035 660.341 405.196 661.603 405.346 662.87 405.469 664.135 405.6 665.118 405.702 666.102 405.876 667.087 405.884 669.243 405.901 671.399 405.92 673.548 405.612 677.133 405.096 680.532 404.077 683.582 402.077 685.651 400.721 687.395 399.08 688.608 396.848 691.292 391.908 693.796 386.908 694.821 381.315 695.047 380.085 695.203 378.835 695.281 377.587 695.342 376.598 695.287 375.593 695.183 374.606 695.112 373.925 694.871 373.263 694.705 372.592 694.705 372.592 694.702 372.599 694.709 372.563 694.677 372.435 694.638 372.343 694.598 372.251 693.636 370.09 692.674 367.93 691.708 365.734Z" fill="#F2F2F2" fill-rule="nonzero" fill-opacity="1"/><path d="M694.7 372.638C694.871 373.263 695.112 373.925 695.183 374.606 695.287 375.593 695.342 376.598 695.281 377.587 695.203 378.835 695.047 380.085 694.821 381.315 693.796 386.908 691.292 391.908 688.608 396.848 687.395 399.08 685.651 400.721 683.582 402.077 680.532 404.077 677.133 405.096 673.548 405.612 671.399 405.92 669.243 405.901 667.087 405.884 666.102 405.876 665.118 405.702 664.135 405.6 662.87 405.469 661.603 405.346 660.341 405.196 658.998 405.035 657.657 404.854 656.318 404.669 654.261 404.384 652.207 404.086 650.152 403.798 648.315 403.542 646.481 403.265 644.64 403.051 643.477 402.916 642.303 402.861 641.132 402.803 639.145 402.705 637.157 402.579 635.169 402.566 633.749 402.558 632.323 402.666 630.908 402.808 627.833 403.118 624.785 403.583 621.9 404.77 615.598 407.363 611.564 411.979 609.709 418.513 609.019 420.941 608.803 423.421 608.979 425.943 609.357 431.349 611.317 436.077 615.076 439.997 617.841 442.881 621.234 444.718 625.097 445.703 625.258 445.744 625.416 445.794 625.598 445.871 624.212 445.649 622.794 445.438 621.397 445.133 614.597 443.644 608.058 441.395 601.81 438.314 594.945 434.929 588.56 430.819 582.89 425.654 575.382 418.815 569.654 410.719 565.895 401.264 564.25 397.127 563.114 392.849 562.633 388.419 561.617 379.062 563.461 370.33 568.458 362.308 570.363 359.25 572.631 356.486 575.255 354.023 578.797 350.697 582.739 347.976 587.31 346.237 587.431 346.191 587.557 346.16 587.75 346.209 587.477 346.47 587.208 346.737 586.929 346.993 581.247 352.183 577.574 358.492 576.443 366.153 575.535 372.309 576.471 378.234 579.042 383.898 580.663 387.471 582.863 390.65 585.67 393.392 590.003 397.625 595.171 400.232 601.131 401.318 604.017 401.844 606.917 402.018 609.836 401.885 612.439 401.766 614.995 401.311 617.511 400.625 620.423 399.831 623.344 399.049 626.005 397.581 627.534 396.738 629.006 395.789 630.469 394.834 630.891 394.558 631.234 394.492 631.711 394.622 636.452 395.913 641.184 397.241 645.947 398.443 651.924 399.953 657.959 401.203 664.066 402.066 667.284 402.521 670.518 402.837 673.774 402.694 677.474 402.532 680.81 401.281 683.781 399.104 684.462 398.605 685.037 397.901 685.509 397.191 686.344 395.934 686.176 394.492 685.083 393.457 684.489 392.893 683.775 392.435 683.059 392.026 679.533 390.01 677.616 386.967 677.425 382.941 677.273 379.772 679.668 377.052 682.811 376.606 685.563 376.215 688.322 375.876 691.076 375.494 691.701 375.407 692.325 375.276 692.93 375.096 694.377 374.665 694.707 374.188 694.7 372.638Z" fill="#A53A2F" fill-rule="nonzero" fill-opacity="1"/><path d="M645.9 348.978C647.517 349.349 648.742 350.258 649.773 351.461 651.318 353.263 652.838 356.557 653.256 359.036 652.347 359.335 651.428 359.659 650.496 359.937 649.008 360.382 647.492 360.643 645.93 360.472 644.074 360.268 642.518 359.431 641.167 358.18 639.443 356.583 638.239 354.614 637.177 352.548 637.126 352.449 637.171 352.212 637.255 352.143 639.032 350.687 640.912 349.385 643.228 348.985 644.08 348.838 644.98 348.966 645.9 348.978Z" fill="#F8F7F7" fill-rule="nonzero" fill-opacity="1"/><path d="M597.425 311.218C596.687 311.377 595.99 311.528 595.201 311.7 595.246 311.458 595.259 311.285 595.311 311.125 596.248 308.286 597.818 305.839 599.935 303.741 600.902 302.781 602.607 302.78 603.629 303.676 605.211 305.063 606.516 306.669 607.532 308.51 607.665 308.753 607.778 309.007 607.916 309.288 604.391 309.936 600.929 310.573 597.425 311.218Z" fill="#A63A2F" fill-rule="nonzero" fill-opacity="1"/><path d="M694.601 372.289C694.638 372.343 694.677 372.435 694.713 372.565 694.674 372.511 694.639 372.419 694.601 372.289Z" fill="#A53A2F" fill-rule="nonzero" fill-opacity="1"/><path d="M587.95 346.048C587.952 346.052 587.948 346.044 587.95 346.048Z" fill="#A53A2F" fill-rule="nonzero" fill-opacity="1"/></g></g></svg>