<svg width="1280" height="1280" viewBox="0 0 1280 1280" fill="none" xmlns="http://www.w3.org/2000/svg">
<rect width="1280" height="1280" fill="url(#paint0_linear_3601_7104)"/>
<circle cx="640" cy="640" r="549" fill="white"/>
<path d="M705.476 841.392C685.153 842.365 665.17 835.979 649.303 823.439C633.936 810.006 625.52 790.045 623.798 763.994C623.798 763.618 623.798 763.241 623.798 762.864L627.305 518.807C626.285 493.698 625.711 488.676 625.583 487.734C625.163 483.593 623.318 479.718 620.355 476.749C617.358 474.427 606.009 468.15 571.833 468.15H555V435.822H571.514C605.818 435.508 628.261 440.718 641.97 452.205C650.921 460.149 656.727 470.957 658.357 482.713C658.803 485.663 659.441 492.066 660.461 518.053V518.932L657.018 762.676C658.102 779.499 662.82 791.739 671.109 799.021C681.371 806.476 694.047 809.981 706.751 808.876H723.329L723.712 841.455H707.198L705.476 841.392Z" fill="#00CCFF"/>
<path d="M723.521 751.699H690.492V509.525C690.492 472.803 681.693 446.251 663.713 430.432C645.732 414.614 614.872 406.579 571.642 406.579H555V374H571.642C624.053 374 661.417 384.546 685.774 406.202C710.131 427.858 724.031 463.262 723.521 509.588V751.699Z" fill="#6633FF"/>
<path d="M706.433 904.623C658.357 904.623 621.311 894.015 596.317 873.237C568.709 849.698 555 814.734 555 769.036V526.924H588.219V769.475C588.219 805.757 597.656 831.619 617.805 848.693C636.933 864.637 667.283 872.923 708.027 872.421H724.605V905H706.433V904.623Z" fill="#00CCCC"/>
<defs>
<linearGradient id="paint0_linear_3601_7104" x1="640" y1="0" x2="640" y2="1280" gradientUnits="userSpaceOnUse">
<stop stop-color="#544BEE"/>
<stop offset="1" stop-color="#59C9CA"/>
</linearGradient>
</defs>
</svg>
