<svg width="113" height="114" xmlns="http://www.w3.org/2000/svg" xmlns:xlink="http://www.w3.org/1999/xlink" overflow="hidden"><defs><clipPath id="clip0"><rect x="640" y="246" width="113" height="114"/></clipPath><clipPath id="clip1"><path d="M640 303.5C640 272.296 665.296 247 696.5 247 727.704 247 753 272.296 753 303.5 753 334.704 727.704 360 696.5 360 665.296 360 640 334.704 640 303.5Z" fill-rule="evenodd" clip-rule="evenodd"/></clipPath><clipPath id="clip2"><rect x="640" y="247" width="113" height="113"/></clipPath><clipPath id="clip3"><rect x="640" y="247" width="113" height="113"/></clipPath></defs><g clip-path="url(#clip0)" transform="translate(-640 -246)"><g clip-path="url(#clip1)"><g clip-path="url(#clip2)"><g clip-path="url(#clip3)"><path d="M640 247 753 247 753 360 640 360Z" fill="#FFFFFF" fill-rule="nonzero" fill-opacity="1"/><path d="M656.851 301.914C656.851 288.591 656.851 281.929 659.444 276.84 661.725 272.364 665.364 268.725 669.84 266.444 674.929 263.851 681.591 263.851 694.914 263.851L698.086 263.851C711.409 263.851 718.071 263.851 723.16 266.444 727.636 268.725 731.275 272.364 733.556 276.84 736.149 281.929 736.149 288.591 736.149 301.914L736.149 305.086C736.149 318.409 736.149 325.071 733.556 330.16 731.275 334.636 727.636 338.275 723.16 340.556 718.071 343.149 711.409 343.149 698.086 343.149L694.914 343.149C681.591 343.149 674.929 343.149 669.84 340.556 665.364 338.275 661.725 334.636 659.444 330.16 656.851 325.071 656.851 318.409 656.851 305.086L656.851 301.914Z" fill="#080D12" fill-rule="nonzero" fill-opacity="1"/><path d="M696.5 273.763C712.923 273.763 726.237 287.077 726.237 303.5 726.237 319.923 712.923 333.237 696.5 333.237 680.077 333.237 666.763 319.923 666.763 303.5 666.763 287.077 680.077 273.763 696.5 273.763ZM696.611 326.295C684.083 326.295 673.927 316.139 673.927 303.611 673.927 291.083 684.083 280.927 696.611 280.927 705.149 280.927 712.585 285.643 716.456 292.613 717.697 294.848 715.861 297.32 713.304 297.32 711.784 297.32 710.442 296.399 709.61 295.127 706.839 290.89 702.052 288.09 696.611 288.09 688.039 288.09 681.09 295.039 681.09 303.611 681.09 312.183 688.039 319.132 696.611 319.132 702.354 319.132 707.368 316.013 710.052 311.377 710.849 310 712.233 308.984 713.824 308.984 716.285 308.984 718.098 311.309 717.022 313.521 713.343 321.083 705.586 326.295 696.611 326.295Z" fill="#FFFFFF" fill-rule="evenodd" fill-opacity="1"/></g></g></g></g></svg>