<svg version="1.1" x="0px" y="0px" width="540" height="541" xmlns="http://www.w3.org/2000/svg" xmlns:xlink="http://www.w3.org/1999/xlink" xmlns:a="http://ns.adobe.com/AdobeSVGViewerExtensions/3.0/" xml:space="preserve"><g transform="translate(20 20.066680908203) scale(8.7401919398749 8.7401919398749) rotate(0 28.603490829468 28.603490829468)"><linearGradient id="SVGID_1" x1="0%" y1="0%" x2="100%" y2="0%" gradientTransform="rotate(90)"><stop offset="0%" stop-color="#c74d97" stop-opacity="1"></stop><stop offset="100%" stop-color="#6e86c3" stop-opacity="1"></stop></linearGradient><path d="M41.398 34.736c0 3.51-1.962 6.614-6.24 8.129.242-.102 3.014-1.326 2.244-5.132-.77-3.792-4.833-5.243-5.212-5.372-.021-.004-.029-.01-.029-.01-1.089-.473-2.631-.912-4.801-1.35-7.999-1.687-10.71-4.797-10.71-9.018 0-2.424 1.001-4.829 3.255-6.512 0 0-3.479 5.642 5.761 8.525.003.001.012.001.014.005.99.386 2.329.741 4.123 1.091 9.683 1.912 11.595 5.513 11.595 9.644z" fill="url(#SVGID_1)"></path><linearGradient id="SVGID_2" x1="0%" y1="0%" x2="100%" y2="0%" gradientTransform="rotate(90)"><stop offset="0%" stop-color="#c74d97" stop-opacity="1"></stop><stop offset="100%" stop-color="#6e86c3" stop-opacity="1"></stop></linearGradient><path d="M28.604 0c-.96 0-1.91.054-2.846.148v13.17c-2.496.311-4.426 1.087-5.853 2.154 0 0-3.479 5.642 5.761 8.525-2.014-.79-2.573-1.709-2.573-2.992 0-.561.146-1.187.593-1.732.646-.795 1.921-1.421 4.295-1.421 4.799 0 5.822 2.088 6.31 3.731h6.31c-.18-3.29-2.709-7.375-9.42-8.266V5.711c11.51 1.285 20.462 11.04 20.462 22.892 0 7.079-3.19 13.405-8.21 17.63l-3.615-2.571-.947 3.676-.56 2.162h-.001l-1.695 6.56v.002l.004.009c11.896-3.468 20.588-14.453 20.588-27.467C57.205 12.807 44.4 0 28.604 0z" fill="url(#SVGID_2)"></path><linearGradient id="SVGID_3" x1="0%" y1="0%" x2="100%" y2="0%" gradientTransform="rotate(90)"><stop offset="0%" stop-color="#c74d97" stop-opacity="1"></stop><stop offset="100%" stop-color="#6e86c3" stop-opacity="1"></stop></linearGradient><path d="M37.402 37.733c-.77-3.792-4.833-5.243-5.212-5.372 2.095.908 2.499 1.916 2.499 3.174 0 1.298-.71 2.389-2.207 2.997-.809.327-1.847.513-3.124.513-4.309 0-6.443-1.779-7.2-4.4h-6.351c.443 4.4 4.043 8.266 10.441 9.064v7.813C14.629 50.344 5.564 40.531 5.564 28.603c0-7.074 3.188-13.404 8.208-17.629l3.614 2.568 1.512-5.837 1.695-6.559-.002-.006h-.004C8.692 4.604 0 15.588 0 28.603 0 44.4 12.805 57.207 28.604 57.207c.89 0 2.152-.062 3.064-.217V43.666c1.295-.163 2.451-.432 3.475-.795l.016-.006c.241-.101 3.012-1.326 2.243-5.132z" fill="url(#SVGID_3)"></path></g>
</svg>