<svg width="307" height="307" xmlns="http://www.w3.org/2000/svg" xmlns:xlink="http://www.w3.org/1999/xlink" overflow="hidden"><defs><clipPath id="clip0"><rect x="1929" y="1054" width="307" height="307"/></clipPath><clipPath id="clip1"><rect x="1974" y="1108" width="218" height="218"/></clipPath><clipPath id="clip2"><rect x="1974" y="1108" width="218" height="218"/></clipPath><clipPath id="clip3"><rect x="1974" y="1108" width="218" height="218"/></clipPath></defs><g clip-path="url(#clip0)" transform="translate(-1929 -1054)"><path d="M1933 1207.5C1933 1124.38 2000.16 1057 2083 1057 2165.84 1057 2233 1124.38 2233 1207.5 2233 1290.62 2165.84 1358 2083 1358 2000.16 1358 1933 1290.62 1933 1207.5Z" fill="#FFFFFF" fill-rule="evenodd" fill-opacity="1"/><g clip-path="url(#clip1)"><g clip-path="url(#clip2)"><g clip-path="url(#clip3)"><path d="M1990.36 1191.78C1982.86 1209.82 1979.64 1229.34 1980.94 1248.83 1984.75 1280.33 2001.23 1316.09 2075.99 1319.56 2153.79 1322.7 2184.27 1263.52 2185.84 1250.74 2187.41 1237.96 2190.66 1197.72 2165.44 1182.36 2137.64 1165.33 2089.89 1130.8 2080.59 1134.16 2051.83 1149.49 2024.05 1166.6 1997.42 1185.39Z" stroke="#231916" stroke-width="8.29477" stroke-linecap="butt" stroke-linejoin="miter" stroke-miterlimit="10" stroke-opacity="1" fill="#87C123" fill-rule="nonzero" fill-opacity="1"/><path d="M2097.4 1258.03C2097.79 1264.14 2093.2 1269.43 2087.09 1269.91 2081.16 1269.2 2076.83 1263.98 2077.23 1258.03 2077.19 1252.32 2081.43 1247.5 2087.09 1246.82 2092.93 1247.28 2097.42 1252.17 2097.4 1258.03Z" fill="#241916" fill-rule="nonzero" fill-opacity="1"/><path d="M1975.67 1130.02C1977.62 1123.06 1982.79 1117.47 1989.57 1115 2012.39 1112.01 2035.44 1111.26 2058.4 1112.76 2063.87 1114.61 2068.69 1117.99 2072.3 1122.51L2084.74 1122.51C2084.74 1122.51 2088.1 1113.09 2094.49 1111.97 2116.86 1110.19 2139.31 1109.55 2161.74 1110.06 2169.25 1111.19 2176.32 1110.85 2182.03 1120.27 2187.75 1129.68 2184.61 1154.45 2183.94 1169.81 2184.25 1182.19 2174.47 1192.47 2162.09 1192.79 2162.09 1192.79 2162.09 1192.79 2162.08 1192.79 2162.08 1192.79 2113.54 1197.72 2102.67 1194.25 2095.51 1190.86 2090.56 1184.06 2089.56 1176.2 2088.44 1169.47 2087.99 1152.88 2087.99 1152.88L2072.3 1152.88C2071.97 1162.31 2070.58 1171.68 2068.15 1180.79 2065.99 1187.55 2060.87 1192.95 2054.25 1195.48 2047.86 1196.94 1998.2 1199.96 1990.69 1195.48 1983.23 1192.62 1977.62 1186.3 1975.67 1178.55 1974.1 1169.59 1975.67 1130.02 1975.67 1130.02Z" fill="#231916" fill-rule="nonzero" fill-opacity="1"/><path d="M1986.21 1149.97C1986.21 1149.97 1982.73 1129.01 1991.37 1126.32 1998.93 1124.82 2006.69 1124.55 2014.34 1125.53L1986.21 1155.01Z" fill="#FFFFFF" fill-rule="nonzero" fill-opacity="1"/><path d="M2095.61 1145.82C2095.61 1145.82 2092.14 1124.86 2100.88 1122.17 2108.26 1120.72 2115.83 1120.45 2123.3 1121.39L2096.28 1150.75Z" fill="#FFFFFF" fill-rule="nonzero" fill-opacity="1"/></g></g></g></g></svg>