<svg width="272" height="245" viewBox="0 0 272 245" fill="none" xmlns="http://www.w3.org/2000/svg">
<g clip-path="url(#clip0)">
<path d="M201.016 171.078C182.087 171.078 166.76 186.355 166.76 205.223C166.76 224.091 181.663 236.129 201.016 238.945C203.347 239.297 205.677 239.368 208.079 239.368C223.265 239.368 236.826 234.088 247.208 224.583C251.234 220.852 255.684 216.206 258.863 211.7C264.16 204.237 283.16 172.838 250.246 136.299C238.803 123.627 237.673 109.194 243.041 99.2673C239.51 110.039 240.64 122.359 252.365 134.961C285.914 171.078 267.48 205.716 262.182 213.389C258.298 218.951 254.272 223.879 249.257 228.456C238.38 238.453 224.042 245 208.079 245C189.644 245 173.187 236.552 162.381 223.316C158.002 217.966 144.37 207.405 144.44 188.889V185.862L159.697 133.06L218.038 99.3377C221.146 109.124 222.911 118.839 223.476 129.47C218.603 145.029 209.492 158.968 201.016 171.078ZM192.54 149.253C199.179 142.917 202.782 127.639 202.782 127.639C171.916 129.752 156.306 154.392 152.492 166.502C156.377 157.842 185.901 155.589 192.54 149.253Z" fill="url(#paint0_linear)"/>
<path d="M121.556 212.544H135.965H150.373L162.239 223.316L137.236 243.099C136.459 243.733 135.4 243.733 134.623 243.099L109.619 223.316L121.556 212.544Z" fill="url(#paint1_radial)"/>
<path d="M70.8427 170.866C62.367 158.828 53.3968 144.958 48.5939 129.4C49.159 118.769 50.9248 109.053 54.0325 99.2673L112.374 133.06L127.63 185.862V188.889C127.701 207.476 114.069 218.036 109.69 223.316C98.8832 236.552 82.4262 245 63.9915 245C48.0289 245 33.6908 238.453 22.8136 228.456C17.7989 223.879 13.7729 218.951 9.88817 213.389C4.52022 205.716 -13.8438 171.078 19.7059 135.102C31.4306 122.5 32.6313 110.109 29.0292 99.4081C34.3971 109.335 33.267 123.767 21.8248 136.44C-11.0892 172.908 7.91051 204.378 13.2078 211.841C16.3862 216.346 20.836 220.993 24.8619 224.724C35.1741 234.229 48.8058 239.509 63.9915 239.509C66.3929 239.509 68.7238 239.438 71.0546 239.086C90.4075 236.2 105.311 224.161 105.311 205.364C105.311 186.496 89.9837 171.218 71.0546 171.218L70.8427 170.866ZM119.507 166.572C115.693 154.463 100.084 129.822 69.2182 127.71C69.2182 127.71 72.8203 142.987 79.4597 149.323C86.099 155.66 115.623 157.842 119.507 166.572Z" fill="url(#paint2_linear)"/>
<path d="M54.0297 99.3408C50.922 109.127 49.1562 118.842 48.5911 129.473C53.4647 128.135 58.6207 127.431 63.9181 127.431C96.3377 127.431 122.683 153.551 122.895 185.865H127.557L112.3 133.064L54.0297 99.3408Z" fill="url(#paint3_linear)"/>
<path d="M54.0297 99.3408C50.922 109.127 49.1562 118.842 48.5911 129.473C53.4647 128.135 58.6207 127.431 63.9181 127.431C96.3377 127.431 122.683 153.551 122.895 185.865H127.557L112.3 133.064L54.0297 99.3408Z" fill="url(#paint4_linear)"/>
<path d="M217.967 99.3376C221.075 109.124 222.841 118.839 223.406 129.47C218.532 128.132 213.376 127.428 208.079 127.428C175.659 127.428 149.314 153.547 149.102 185.862H144.44L159.697 133.06L217.967 99.3376Z" fill="url(#paint5_linear)"/>
<path d="M217.967 99.3376C221.075 109.124 222.841 118.839 223.406 129.47C218.532 128.132 213.376 127.428 208.079 127.428C175.659 127.428 149.314 153.547 149.102 185.862H144.44L159.697 133.06L217.967 99.3376Z" fill="url(#paint6_linear)"/>
<path d="M33.9732 55.9698C33.9732 37.2428 42.6608 20.7687 56.222 9.99713C61.7312 5.63218 68.0173 2.18247 74.8686 0C69.9244 9.50431 67.1698 20.2759 67.1698 31.681C67.1698 43.4382 69.7831 54.421 74.9392 64.0661C84.6156 81.9483 97.3292 98 112.303 111.517C119.649 118.135 127.63 124.19 136.035 129.54C144.44 124.19 152.421 118.205 159.767 111.517C174.811 98 187.454 81.9483 197.131 64.0661C202.287 54.421 204.9 43.4382 204.9 31.681C204.9 20.2759 202.075 9.50431 197.131 0C203.982 2.18247 210.268 5.63218 215.777 9.99713C229.339 20.6983 238.097 37.2428 238.097 55.9698C238.097 58.4339 238.379 66.671 234.141 77.1609C230.892 85.1164 226.231 92.2974 220.157 98.1408C214.577 103.843 207.372 109.546 197.837 114.685C153.763 138.763 149.102 175.865 149.102 185.792C149.102 209.095 162.31 223.316 162.31 223.316L150.444 212.545H140.697H136.035H121.556L109.69 223.316C109.69 223.316 122.898 209.165 122.898 185.792C122.898 175.865 118.236 138.763 74.1622 114.685C64.6977 109.476 57.4227 103.843 51.8429 98.1408C45.7686 92.2974 41.1069 85.1164 37.8579 77.1609C33.6201 66.671 33.9732 58.4339 33.9732 55.9698Z" fill="url(#paint7_radial)"/>
<path d="M187.172 116.657C193.67 111.236 196.071 109.546 198.826 107.364C200.309 106.167 201.934 104.829 204.265 102.717C213.588 94.4095 216.131 92.1567 221.357 84.1308C221.993 83.1452 222.558 82.2299 223.123 81.3147C224.182 79.2731 225.242 77.161 226.09 74.9785C229.55 66.4598 230.045 59.4196 230.045 55.6883C230.045 55.3363 230.045 55.0547 230.045 54.7027C230.045 54.2802 230.045 53.8578 230.045 53.5762C230.045 34.638 221.357 18.0231 207.796 7.1107V7.2515C204.9 5.06903 201.651 3.09777 197.555 0.140869C204.265 2.32334 210.409 5.70265 215.848 9.99719C229.339 20.6983 238.097 37.2429 238.097 55.9699C238.097 58.434 238.379 66.671 234.141 77.161C230.892 85.1164 226.231 92.2975 220.157 98.1409C214.577 103.843 207.372 109.546 197.837 114.685C174.882 127.217 162.663 143.269 156.165 157.208C159.767 146.296 174.105 127.569 187.172 116.657Z" fill="url(#paint8_linear)"/>
<path d="M84.8278 116.657C78.3298 111.236 75.9283 109.546 73.1737 107.364C71.6905 106.167 70.0659 104.829 67.7351 102.717C58.4118 94.4095 55.8691 92.1567 50.6424 84.1308C50.0068 83.1452 49.4417 82.2299 48.8767 81.3147C47.8172 79.2731 46.7577 77.161 45.9102 74.9785C42.4492 66.4598 41.9548 59.4196 41.9548 55.6883C41.9548 55.3363 41.9548 55.0547 41.9548 54.7027C41.9548 54.2802 41.9548 53.8578 41.9548 53.5762C41.9548 34.638 50.6424 18.0231 64.2036 7.1107V7.2515C67.0994 5.06903 70.3485 3.09777 74.445 0.140869C67.7351 2.32334 61.5902 5.70265 56.1516 9.99719C42.6611 20.6983 33.9735 37.2429 33.9735 55.9699C33.9735 58.434 33.691 66.671 37.9289 77.161C41.1779 85.1164 45.8395 92.2975 51.9138 98.1409C57.4936 103.843 64.698 109.546 74.2332 114.685C97.1882 127.217 109.407 143.269 115.905 157.208C112.233 146.296 97.8945 127.569 84.8278 116.657Z" fill="url(#paint9_linear)"/>
<path d="M9.88848 213.389C4.52052 205.716 -13.8435 171.078 19.7062 135.102C31.4309 122.5 32.6317 110.109 29.0295 99.408C34.3974 109.335 33.2673 123.767 21.8251 136.44C-11.0889 172.908 7.91082 204.378 13.2081 211.841" fill="#D53038"/>
<path d="M258.792 211.7C264.089 204.237 283.089 172.838 250.175 136.299C238.733 123.627 237.603 109.194 242.971 99.2673C239.439 110.039 240.569 122.359 252.294 134.961C285.914 171.078 267.479 205.716 262.182 213.389" fill="#D53038"/>
</g>
<defs>
<linearGradient id="paint0_linear" x1="176.933" y1="244.095" x2="265.187" y2="60.2019" gradientUnits="userSpaceOnUse">
<stop stop-color="#FF9E4B"/>
<stop offset="0.0738649" stop-color="#F78747"/>
<stop offset="0.2274" stop-color="#E34E3D"/>
<stop offset="0.3577" stop-color="#D11833"/>
<stop offset="0.4677" stop-color="#980F1F"/>
<stop offset="0.6323" stop-color="#3D0000"/>
</linearGradient>
<radialGradient id="paint1_radial" cx="0" cy="0" r="1" gradientUnits="userSpaceOnUse" gradientTransform="translate(136.002 253.135) rotate(180) scale(49.2271 49.0677)">
<stop stop-color="#FF9E4B"/>
<stop offset="0.126" stop-color="#F17444"/>
<stop offset="0.3419" stop-color="#DA3238"/>
<stop offset="0.4435" stop-color="#D11833"/>
<stop offset="0.52" stop-color="#BB142B"/>
<stop offset="0.6799" stop-color="#810B18"/>
<stop offset="0.8519" stop-color="#3D0000"/>
</radialGradient>
<linearGradient id="paint2_linear" x1="95.0712" y1="244.095" x2="6.81666" y2="60.202" gradientUnits="userSpaceOnUse">
<stop stop-color="#FF9E4B"/>
<stop offset="0.0738649" stop-color="#F78747"/>
<stop offset="0.2274" stop-color="#E34E3D"/>
<stop offset="0.3577" stop-color="#D11833"/>
<stop offset="0.4677" stop-color="#980F1F"/>
<stop offset="0.6323" stop-color="#3D0000"/>
</linearGradient>
<linearGradient id="paint3_linear" x1="103.88" y1="148.152" x2="34.8224" y2="123.02" gradientUnits="userSpaceOnUse">
<stop stop-color="#D11833"/>
<stop offset="0.1484" stop-color="#CD1732"/>
<stop offset="0.2887" stop-color="#C2162E"/>
<stop offset="0.4258" stop-color="#AF1227"/>
<stop offset="0.5609" stop-color="#940E1E"/>
<stop offset="0.6946" stop-color="#710812"/>
<stop offset="0.8255" stop-color="#480204"/>
<stop offset="0.8551" stop-color="#3D0000"/>
</linearGradient>
<linearGradient id="paint4_linear" x1="84.4862" y1="152.301" x2="99.108" y2="129.689" gradientUnits="userSpaceOnUse">
<stop stop-color="#D11833" stop-opacity="0"/>
<stop offset="0.1329" stop-color="#C7162F" stop-opacity="0.1329"/>
<stop offset="0.3569" stop-color="#AD1226" stop-opacity="0.3569"/>
<stop offset="0.6445" stop-color="#820B16" stop-opacity="0.6445"/>
<stop offset="0.9816" stop-color="#470101" stop-opacity="0.9816"/>
<stop offset="1" stop-color="#440000"/>
</linearGradient>
<linearGradient id="paint5_linear" x1="168.121" y1="148.149" x2="237.179" y2="123.017" gradientUnits="userSpaceOnUse">
<stop stop-color="#D11833"/>
<stop offset="0.1484" stop-color="#CD1732"/>
<stop offset="0.2887" stop-color="#C2162E"/>
<stop offset="0.4258" stop-color="#AF1227"/>
<stop offset="0.5609" stop-color="#940E1E"/>
<stop offset="0.6946" stop-color="#710812"/>
<stop offset="0.8255" stop-color="#480204"/>
<stop offset="0.8551" stop-color="#3D0000"/>
</linearGradient>
<linearGradient id="paint6_linear" x1="187.515" y1="152.298" x2="172.893" y2="129.686" gradientUnits="userSpaceOnUse">
<stop stop-color="#D11833" stop-opacity="0"/>
<stop offset="0.1329" stop-color="#C7162F" stop-opacity="0.1329"/>
<stop offset="0.3569" stop-color="#AD1226" stop-opacity="0.3569"/>
<stop offset="0.6445" stop-color="#820B16" stop-opacity="0.6445"/>
<stop offset="0.9816" stop-color="#470101" stop-opacity="0.9816"/>
<stop offset="1" stop-color="#440000"/>
</linearGradient>
<radialGradient id="paint7_radial" cx="0" cy="0" r="1" gradientUnits="userSpaceOnUse" gradientTransform="translate(136.002 211.453) rotate(180) scale(159.605 284.306)">
<stop stop-color="#FF9E4B"/>
<stop offset="0.415" stop-color="#DE3F3A"/>
<stop offset="0.6079" stop-color="#D11833"/>
<stop offset="0.6698" stop-color="#D21C34"/>
<stop offset="0.7331" stop-color="#D72836"/>
<stop offset="0.7971" stop-color="#DE3D3A"/>
<stop offset="0.8615" stop-color="#E85A3F"/>
<stop offset="0.9257" stop-color="#F47E45"/>
<stop offset="0.9728" stop-color="#FF9E4B"/>
</radialGradient>
<linearGradient id="paint8_linear" x1="125.697" y1="178.506" x2="248.376" y2="-11.6987" gradientUnits="userSpaceOnUse">
<stop offset="0.1851" stop-color="#EC6841"/>
<stop offset="0.1963" stop-color="#E7633F"/>
<stop offset="0.2956" stop-color="#BF3E30"/>
<stop offset="0.3865" stop-color="#A32324"/>
<stop offset="0.4653" stop-color="#91131D"/>
<stop offset="0.523" stop-color="#8B0D1B"/>
<stop offset="0.5779" stop-color="#981420"/>
<stop offset="0.6783" stop-color="#B9272C"/>
<stop offset="0.7709" stop-color="#DD3C39"/>
<stop offset="0.8334" stop-color="#E95D3F"/>
</linearGradient>
<linearGradient id="paint9_linear" x1="146.31" y1="178.506" x2="23.6311" y2="-11.6985" gradientUnits="userSpaceOnUse">
<stop offset="0.1851" stop-color="#EC6841"/>
<stop offset="0.1963" stop-color="#E7633F"/>
<stop offset="0.2956" stop-color="#BF3E30"/>
<stop offset="0.3865" stop-color="#A32324"/>
<stop offset="0.4653" stop-color="#91131D"/>
<stop offset="0.523" stop-color="#8B0D1B"/>
<stop offset="0.5779" stop-color="#981420"/>
<stop offset="0.6783" stop-color="#B9272C"/>
<stop offset="0.7709" stop-color="#DD3C39"/>
<stop offset="0.8334" stop-color="#E95D3F"/>
</linearGradient>
<clipPath id="clip0">
<rect width="272" height="245" fill="white" transform="matrix(-1 0 0 1 272 0)"/>
</clipPath>
</defs>
</svg>
