<svg width="835" height="834" xmlns="http://www.w3.org/2000/svg" xmlns:xlink="http://www.w3.org/1999/xlink" overflow="hidden"><defs><clipPath id="clip0"><rect x="-2310" y="728" width="835" height="834"/></clipPath><clipPath id="clip1"><rect x="-2224" y="832" width="665" height="595"/></clipPath><clipPath id="clip2"><rect x="-2224" y="832" width="665" height="595"/></clipPath><clipPath id="clip3"><rect x="-2224" y="832" width="665" height="595"/></clipPath><clipPath id="clip4"><rect x="-2224" y="832" width="665" height="595"/></clipPath><linearGradient x1="428.972" y1="591.806" x2="642.943" y2="145.959" gradientUnits="userSpaceOnUse" spreadMethod="pad" id="fill5"><stop offset="0" stop-color="#FF9E4B" stop-opacity="1"/><stop offset="0.0738649" stop-color="#F78747" stop-opacity="1"/><stop offset="0.2274" stop-color="#E34E3D" stop-opacity="1"/><stop offset="0.3577" stop-color="#D11833" stop-opacity="1"/><stop offset="0.4677" stop-color="#980F1F" stop-opacity="1"/><stop offset="0.6323" stop-color="#3D0000" stop-opacity="1"/><stop offset="1" stop-color="#3D0000" stop-opacity="1"/></linearGradient><radialGradient cx="0" cy="0" r="1" gradientUnits="userSpaceOnUse" spreadMethod="pad" id="fill6" gradientTransform="matrix(-119.351 1.46162e-14 -1.45689e-14 -118.964 329.735 613.723)"><stop offset="0" stop-color="#FF9E4B" stop-opacity="1"/><stop offset="0.126" stop-color="#F17444" stop-opacity="1"/><stop offset="0.3419" stop-color="#DA3238" stop-opacity="1"/><stop offset="0.4435" stop-color="#D11833" stop-opacity="1"/><stop offset="0.52" stop-color="#BB142B" stop-opacity="1"/><stop offset="0.6799" stop-color="#810B18" stop-opacity="1"/><stop offset="0.8519" stop-color="#3D0000" stop-opacity="1"/><stop offset="1" stop-color="#3D0000" stop-opacity="1"/></radialGradient><linearGradient x1="230.499" y1="591.806" x2="16.5269" y2="145.959" gradientUnits="userSpaceOnUse" spreadMethod="pad" id="fill7"><stop offset="0" stop-color="#FF9E4B" stop-opacity="1"/><stop offset="0.0738649" stop-color="#F78747" stop-opacity="1"/><stop offset="0.2274" stop-color="#E34E3D" stop-opacity="1"/><stop offset="0.3577" stop-color="#D11833" stop-opacity="1"/><stop offset="0.4677" stop-color="#980F1F" stop-opacity="1"/><stop offset="0.6323" stop-color="#3D0000" stop-opacity="1"/><stop offset="1" stop-color="#3D0000" stop-opacity="1"/></linearGradient><linearGradient x1="251.856" y1="359.193" x2="84.4266" y2="298.261" gradientUnits="userSpaceOnUse" spreadMethod="pad" id="fill8"><stop offset="0" stop-color="#D11833" stop-opacity="1"/><stop offset="0.1484" stop-color="#CD1732" stop-opacity="1"/><stop offset="0.2887" stop-color="#C2162E" stop-opacity="1"/><stop offset="0.4258" stop-color="#AF1227" stop-opacity="1"/><stop offset="0.5609" stop-color="#940E1E" stop-opacity="1"/><stop offset="0.6946" stop-color="#710812" stop-opacity="1"/><stop offset="0.8255" stop-color="#480204" stop-opacity="1"/><stop offset="0.8551" stop-color="#3D0000" stop-opacity="1"/><stop offset="1" stop-color="#3D0000" stop-opacity="1"/></linearGradient><linearGradient x1="204.836" y1="369.252" x2="240.286" y2="314.43" gradientUnits="userSpaceOnUse" spreadMethod="pad" id="fill9"><stop offset="0" stop-color="#D11833" stop-opacity="0"/><stop offset="0.1329" stop-color="#C7162F" stop-opacity="0.1329"/><stop offset="0.3569" stop-color="#AD1226" stop-opacity="0.3569"/><stop offset="0.6445" stop-color="#820B16" stop-opacity="0.6445"/><stop offset="0.9816" stop-color="#470101" stop-opacity="0.9816"/><stop offset="1" stop-color="#440000" stop-opacity="1"/></linearGradient><linearGradient x1="407.608" y1="359.186" x2="575.038" y2="298.253" gradientUnits="userSpaceOnUse" spreadMethod="pad" id="fill10"><stop offset="0" stop-color="#D11833" stop-opacity="1"/><stop offset="0.1484" stop-color="#CD1732" stop-opacity="1"/><stop offset="0.2887" stop-color="#C2162E" stop-opacity="1"/><stop offset="0.4258" stop-color="#AF1227" stop-opacity="1"/><stop offset="0.5609" stop-color="#940E1E" stop-opacity="1"/><stop offset="0.6946" stop-color="#710812" stop-opacity="1"/><stop offset="0.8255" stop-color="#480204" stop-opacity="1"/><stop offset="0.8551" stop-color="#3D0000" stop-opacity="1"/><stop offset="1" stop-color="#3D0000" stop-opacity="1"/></linearGradient><linearGradient x1="454.628" y1="369.245" x2="419.177" y2="314.422" gradientUnits="userSpaceOnUse" spreadMethod="pad" id="fill11"><stop offset="0" stop-color="#D11833" stop-opacity="0"/><stop offset="0.1329" stop-color="#C7162F" stop-opacity="0.1329"/><stop offset="0.3569" stop-color="#AD1226" stop-opacity="0.3569"/><stop offset="0.6445" stop-color="#820B16" stop-opacity="0.6445"/><stop offset="0.9816" stop-color="#470101" stop-opacity="0.9816"/><stop offset="1" stop-color="#440000" stop-opacity="1"/></linearGradient><radialGradient cx="0" cy="0" r="1" gradientUnits="userSpaceOnUse" spreadMethod="pad" id="fill12" gradientTransform="matrix(-386.961 4.7389e-14 -8.44145e-14 -689.297 329.735 512.666)"><stop offset="0" stop-color="#FF9E4B" stop-opacity="1"/><stop offset="0.415" stop-color="#DE3F3A" stop-opacity="1"/><stop offset="0.6079" stop-color="#D11833" stop-opacity="1"/><stop offset="0.6698" stop-color="#D21C34" stop-opacity="1"/><stop offset="0.7331" stop-color="#D72836" stop-opacity="1"/><stop offset="0.7971" stop-color="#DE3D3A" stop-opacity="1"/><stop offset="0.8615" stop-color="#E85A3F" stop-opacity="1"/><stop offset="0.9257" stop-color="#F47E45" stop-opacity="1"/><stop offset="0.9728" stop-color="#FF9E4B" stop-opacity="1"/><stop offset="1" stop-color="#FF9E4B" stop-opacity="1"/></radialGradient><linearGradient x1="304.751" y1="432.786" x2="602.185" y2="-28.3634" gradientUnits="userSpaceOnUse" spreadMethod="pad" id="fill13"><stop offset="0" stop-color="#EC6841" stop-opacity="1"/><stop offset="0.1851" stop-color="#EC6841" stop-opacity="1"/><stop offset="0.1963" stop-color="#E7633F" stop-opacity="1"/><stop offset="0.2956" stop-color="#BF3E30" stop-opacity="1"/><stop offset="0.3865" stop-color="#A32324" stop-opacity="1"/><stop offset="0.4653" stop-color="#91131D" stop-opacity="1"/><stop offset="0.523" stop-color="#8B0D1B" stop-opacity="1"/><stop offset="0.5779" stop-color="#981420" stop-opacity="1"/><stop offset="0.6783" stop-color="#B9272C" stop-opacity="1"/><stop offset="0.7709" stop-color="#DD3C39" stop-opacity="1"/><stop offset="0.8334" stop-color="#E95D3F" stop-opacity="1"/><stop offset="1" stop-color="#E95D3F" stop-opacity="1"/></linearGradient><linearGradient x1="354.727" y1="432.786" x2="57.2933" y2="-28.3629" gradientUnits="userSpaceOnUse" spreadMethod="pad" id="fill14"><stop offset="0" stop-color="#EC6841" stop-opacity="1"/><stop offset="0.1851" stop-color="#EC6841" stop-opacity="1"/><stop offset="0.1963" stop-color="#E7633F" stop-opacity="1"/><stop offset="0.2956" stop-color="#BF3E30" stop-opacity="1"/><stop offset="0.3865" stop-color="#A32324" stop-opacity="1"/><stop offset="0.4653" stop-color="#91131D" stop-opacity="1"/><stop offset="0.523" stop-color="#8B0D1B" stop-opacity="1"/><stop offset="0.5779" stop-color="#981420" stop-opacity="1"/><stop offset="0.6783" stop-color="#B9272C" stop-opacity="1"/><stop offset="0.7709" stop-color="#DD3C39" stop-opacity="1"/><stop offset="0.8334" stop-color="#E95D3F" stop-opacity="1"/><stop offset="1" stop-color="#E95D3F" stop-opacity="1"/></linearGradient></defs><g clip-path="url(#clip0)" transform="translate(2310 -728)"><path d="M-2306.5 1144C-2306.5 916.183-2121.82 731.5-1894 731.5-1666.18 731.5-1481.5 916.183-1481.5 1144-1481.5 1371.82-1666.18 1556.5-1894 1556.5-2121.82 1556.5-2306.5 1371.82-2306.5 1144Z" stroke="#FFFFFF" stroke-width="4.58333" stroke-linecap="butt" stroke-linejoin="miter" stroke-miterlimit="8" stroke-opacity="1" fill="#FFFFFF" fill-rule="evenodd" fill-opacity="1"/><g clip-path="url(#clip1)"><g clip-path="url(#clip2)"><g clip-path="url(#clip3)"><g clip-path="url(#clip4)"><path d="M487.361 414.777C441.468 414.777 404.308 451.816 404.308 497.561 404.308 543.306 440.44 572.492 487.361 579.32 493.013 580.173 498.662 580.345 504.485 580.345 541.304 580.345 574.182 567.544 599.353 544.499 609.114 535.453 619.903 524.189 627.611 513.264 640.453 495.171 686.518 419.044 606.719 330.456 578.975 299.732 576.236 264.74 589.25 240.673 580.69 266.788 583.429 296.658 611.856 327.212 693.196 414.777 648.503 498.756 635.658 517.359 626.241 530.844 616.48 542.792 604.321 553.889 577.95 578.127 543.188 594 504.485 594 459.79 594 419.89 573.518 393.691 541.427 383.074 528.456 350.024 502.851 350.193 457.959L350.193 450.621 387.184 322.603 528.631 240.843C536.166 264.57 540.445 288.124 541.815 313.899 530.001 351.621 507.911 385.416 487.361 414.777ZM466.811 361.862C482.907 346.501 491.643 309.459 491.643 309.459 416.809 314.582 378.962 374.322 369.715 403.682 379.134 382.686 450.715 377.224 466.811 361.862Z" fill="url(#fill5)" fill-rule="nonzero" transform="matrix(1.00537 0 0 1 -2223 833)"/><path d="M294.711 515.311 329.646 515.311 364.578 515.311 393.347 541.427 332.727 589.391C330.843 590.928 328.276 590.928 326.392 589.391L265.77 541.427 294.711 515.311Z" fill="url(#fill6)" fill-rule="nonzero" transform="matrix(1.00537 -2.03357e-32 2.03357e-32 1 -2223 833)"/><path d="M171.757 414.263C151.208 385.077 129.46 351.449 117.815 313.729 119.185 287.954 123.467 264.398 131.001 240.673L272.45 322.603 309.438 450.621 309.438 457.959C309.61 503.023 276.559 528.626 265.942 541.427 239.741 573.518 199.841 594 155.147 594 116.446 594 81.683 578.127 55.3113 553.889 43.1533 542.792 33.3923 530.844 23.9738 517.359 10.9592 498.756-33.5642 414.777 47.7768 327.553 76.2032 297 79.1143 266.958 70.381 241.014 83.3954 265.082 80.6555 300.072 52.914 330.797-26.8857 419.214 19.179 495.512 32.0222 513.606 39.7282 524.529 50.5167 535.795 60.2774 544.841 85.2792 567.886 118.329 580.687 155.147 580.687 160.969 580.687 166.62 580.515 172.271 579.662 219.192 572.664 255.325 543.476 255.325 497.903 255.325 452.158 218.165 415.116 172.271 415.116L171.757 414.263ZM289.743 403.852C280.496 374.494 242.653 314.752 167.819 309.632 167.819 309.632 176.552 346.671 192.649 362.032 208.746 377.396 280.327 382.686 289.743 403.852Z" fill="url(#fill7)" fill-rule="nonzero" transform="matrix(1.00537 0 0 1 -2223 833)"/><path d="M130.994 240.851C123.46 264.577 119.179 288.131 117.809 313.906 129.625 310.662 142.125 308.955 154.969 308.955 233.57 308.955 297.444 372.283 297.958 450.628L309.261 450.628 272.27 322.612 130.994 240.851Z" fill="url(#fill8)" fill-rule="nonzero" transform="matrix(1.00537 0 0 1 -2223 833)"/><path d="M130.994 240.851C123.46 264.577 119.179 288.131 117.809 313.906 129.625 310.662 142.125 308.955 154.969 308.955 233.57 308.955 297.444 372.283 297.958 450.628L309.261 450.628 272.27 322.612 130.994 240.851Z" fill="url(#fill9)" fill-rule="nonzero" transform="matrix(1.00537 0 0 1 -2223 833)"/><path d="M528.459 240.843C535.994 264.57 540.276 288.124 541.646 313.899 529.829 310.655 517.328 308.948 504.485 308.948 425.883 308.948 362.01 372.273 361.496 450.621L350.193 450.621 387.184 322.603 528.459 240.843Z" fill="url(#fill10)" fill-rule="nonzero" transform="matrix(1.00537 0 0 1 -2223 833)"/><path d="M528.459 240.843C535.994 264.57 540.276 288.124 541.646 313.899 529.829 310.655 517.328 308.948 504.485 308.948 425.883 308.948 362.01 372.273 361.496 450.621L350.193 450.621 387.184 322.603 528.459 240.843Z" fill="url(#fill11)" fill-rule="nonzero" transform="matrix(1.00537 0 0 1 -2223 833)"/><path d="M82.3677 135.698C82.3677 90.2948 103.431 50.3535 136.31 24.2379 149.667 13.6552 164.907 5.29138 181.518 0 169.531 23.0431 162.852 49.1587 162.852 76.8103 162.852 105.315 169.188 131.943 181.689 155.328 205.15 198.683 235.974 237.6 272.277 270.372 290.088 286.417 309.438 301.097 329.815 314.068 350.193 301.097 369.543 286.587 387.353 270.372 423.827 237.6 454.48 198.683 477.942 155.328 490.443 131.943 496.778 105.315 496.778 76.8103 496.778 49.1587 489.929 23.0431 477.942 0 494.552 5.29138 509.793 13.6552 523.149 24.2379 556.03 50.1828 577.264 90.2948 577.264 135.698 577.264 141.672 577.947 161.643 567.672 187.076 559.795 206.364 548.495 223.774 533.768 237.941 520.24 251.766 502.771 265.593 479.654 278.053 372.797 336.429 361.496 426.383 361.496 450.451 361.496 506.949 393.519 541.427 393.519 541.427L364.75 515.313 341.118 515.313 329.815 515.313 294.711 515.313 265.942 541.427C265.942 541.427 297.965 507.118 297.965 450.451 297.965 426.383 286.662 336.429 179.805 278.053 156.859 265.423 139.221 251.766 125.693 237.941 110.965 223.774 99.6633 206.364 91.7861 187.076 81.5116 161.643 82.3677 141.672 82.3677 135.698Z" fill="url(#fill12)" fill-rule="nonzero" transform="matrix(1.00537 -2.03357e-32 0 1 -2223 833)"/><path d="M453.797 282.834C469.551 269.691 475.372 265.593 482.052 260.303 485.647 257.401 489.587 254.157 495.238 249.036 517.842 228.895 524.007 223.433 536.678 203.974 538.22 201.585 539.59 199.366 540.959 197.147 543.527 192.197 546.097 187.076 548.153 181.785 556.542 161.131 557.742 144.062 557.742 135.016 557.742 134.162 557.742 133.48 557.742 132.626 557.742 131.602 557.742 130.578 557.742 129.895 557.742 83.9795 536.678 43.6968 503.799 17.2398L503.799 17.5812C496.778 12.2898 488.901 7.51051 478.97 0.341535 495.238 5.63291 510.134 13.826 523.321 24.2381 556.03 50.1828 577.264 90.295 577.264 135.698 577.264 141.673 577.947 161.643 567.672 187.076 559.795 206.364 548.495 223.774 533.768 237.942 520.24 251.766 502.771 265.593 479.654 278.053 424 308.436 394.375 347.354 378.62 381.149 387.353 354.693 422.116 309.29 453.797 282.834Z" fill="url(#fill13)" fill-rule="nonzero" transform="matrix(1.00537 0 0 1 -2223 833)"/><path d="M205.664 282.834C189.91 269.691 184.087 265.593 177.409 260.303 173.813 257.401 169.874 254.157 164.223 249.036 141.619 228.895 135.454 223.433 122.782 203.974 121.241 201.585 119.871 199.366 118.501 197.147 115.932 192.197 113.364 187.076 111.309 181.785 102.918 161.131 101.719 144.062 101.719 135.016 101.719 134.162 101.719 133.48 101.719 132.626 101.719 131.602 101.719 130.578 101.719 129.895 101.719 83.9795 122.782 43.6968 155.661 17.2398L155.661 17.5812C162.682 12.2898 170.559 7.51051 180.491 0.341535 164.223 5.63291 149.325 13.826 136.139 24.2381 103.431 50.1828 82.3684 90.295 82.3684 135.698 82.3684 141.673 81.6835 161.643 91.9582 187.076 99.8354 206.364 111.137 223.774 125.864 237.942 139.393 251.766 156.86 265.593 179.978 278.053 235.632 308.436 265.256 347.354 281.01 381.149 272.108 354.693 237.344 309.29 205.664 282.834Z" fill="url(#fill14)" fill-rule="nonzero" transform="matrix(1.00537 0 0 1 -2223 833)"/><path d="M23.9745 517.359C10.96 498.756-33.5634 414.777 47.7775 327.553 76.2039 297 79.1152 266.958 70.3817 241.014 83.3961 265.082 80.6562 300.072 52.9147 330.797-26.8849 419.214 19.1797 495.512 32.0229 513.606" fill="#D53038" fill-rule="nonzero" fill-opacity="1" transform="matrix(1.00537 0 0 1 -2223 833)"/><path d="M627.439 513.264C640.281 495.171 686.346 419.044 606.547 330.456 578.806 299.732 576.066 264.74 589.081 240.673 580.517 266.788 583.257 296.658 611.684 327.212 693.196 414.777 648.5 498.756 635.658 517.359" fill="#D53038" fill-rule="nonzero" fill-opacity="1" transform="matrix(1.00537 0 0 1 -2223 833)"/></g></g></g></g></g></svg>