<svg width="34" height="34" viewBox="0 0 34 34" fill="none" xmlns="http://www.w3.org/2000/svg">
<g clip-path="url(#clip0_1147:14)">
<path d="M5.25439 31.5273H28.7453V34.0001H5.25439V31.5273Z" fill="#9448D0"/>
<path fill-rule="evenodd" clip-rule="evenodd" d="M17.0001 20.0911C19.7314 20.0911 21.9456 17.8769 21.9456 15.1456C21.9456 12.4144 19.7314 10.2002 17.0001 10.2002C14.2688 10.2002 12.0547 12.4144 12.0547 15.1456C12.0547 17.8769 14.2688 20.0911 17.0001 20.0911Z" fill="#9448D0"/>
<path d="M19.1636 30.1375C26.5032 29.0877 32.1454 22.7755 32.1454 15.1455C32.1454 6.78083 25.3644 0 16.9999 0C8.63548 0 1.85449 6.78083 1.85449 15.1455C1.85449 22.7755 7.49671 29.0877 14.8363 30.1375V20.9381C14.0571 20.6469 13.3525 20.2031 12.7587 19.6428L11.7454 20.656V25.6547L9.28958 25.6545L9.28988 24.4182H10.509V21.8193L7.46431 24.6515V21.1253H5.87267V19.889H8.70067V21.8129L10.698 19.9549L11.9464 18.7066C11.2359 17.7 10.8181 16.4715 10.8181 15.1455C10.8181 13.8194 11.2356 12.5911 11.9461 11.5844L10.698 10.3361L8.70067 8.47812V10.4021H5.87267V9.16572H7.46431V5.63955L10.509 8.47178V5.87288H9.28988L9.28958 4.63651L11.7454 4.63636V9.63509L12.7584 10.6482C13.8653 9.60385 15.3579 8.96364 16.9999 8.96364C18.642 8.96364 20.1346 9.60385 21.2415 10.6482L22.2545 9.63509V4.63636L24.7103 4.63651L24.71 5.87288H23.4909V8.47178L26.5356 5.63955V9.16572H28.1272V10.4021H25.2992V8.47812L23.3019 10.3361L22.0538 11.5844C22.7643 12.5911 23.1818 13.8194 23.1818 15.1455C23.1818 16.4715 22.764 17.7 22.0535 18.7066L23.3019 19.9549L25.2992 21.8129V19.889H28.1272V21.1253H26.5356V24.6515L23.4909 21.8193V24.4182H24.71L24.7103 25.6545L22.2545 25.6547V20.656L21.2412 19.6428C20.6474 20.2031 19.9428 20.6469 19.1636 20.9381V30.1375Z" fill="url(#paint0_radial_1147:14)"/>
<path d="M16.0728 21.0181H17.9273V30.2908H16.0728V21.0181Z" fill="#9448D0"/>
</g>
<defs>
<radialGradient id="paint0_radial_1147:14" cx="0" cy="0" r="1" gradientUnits="userSpaceOnUse" gradientTransform="translate(16.9999 15.0688) rotate(90) scale(15.0688)">
<stop offset="0.181406" stop-color="#9448D0" stop-opacity="0"/>
<stop offset="0.805208" stop-color="#9448D0"/>
</radialGradient>
<clipPath id="clip0_1147:14">
<rect width="34" height="34" fill="white"/>
</clipPath>
</defs>
</svg>
