<?xml version="1.0" encoding="UTF-8" standalone="no"?><!DOCTYPE svg PUBLIC "-//W3C//DTD SVG 1.1//EN" "http://www.w3.org/Graphics/SVG/1.1/DTD/svg11.dtd"><svg width="100%" height="100%" viewBox="0 0 257 256" version="1.1" xmlns="http://www.w3.org/2000/svg" xmlns:xlink="http://www.w3.org/1999/xlink" xml:space="preserve" xmlns:serif="http://www.serif.com/" style="fill-rule:evenodd;clip-rule:evenodd;stroke-linejoin:round;stroke-miterlimit:2;"><rect id="Logo_white_center_purple" x="0.283" y="0" width="256" height="256" style="fill:none;"/><g><circle cx="128.283" cy="128.022" r="125" style="fill:#8247e5;"/><g><g><path d="M119.099,179.178l0,1.866l-11.068,-0.175c0,0 11.213,18.478 20.252,33.044l20.395,-32.869l-11.212,0l0,-61.318c15.806,13.5 46.455,42.53 46.455,64.647c0,30.707 -24.931,55.638 -55.638,55.638c-30.708,0 -55.639,-24.931 -55.639,-55.638c0,-14.513 13.198,-32.003 26.741,-46.131c17.78,9.908 19.572,34.046 19.714,40.936Z" style="fill:#fff;"/><path d="M137.466,76.866l0,-1.866l11.069,0.174c0,0 -11.214,-18.477 -20.252,-33.043l-20.396,32.869l11.212,0l0,61.318c-15.806,-13.501 -46.455,-42.53 -46.455,-64.647c0,-30.708 24.931,-55.638 55.639,-55.638c30.707,0 55.638,24.93 55.638,55.638c0,14.513 -13.197,32.003 -26.741,46.131c-17.78,-9.908 -19.571,-34.046 -19.714,-40.936Z" style="fill:#fff;"/></g><g><path d="M133.282,82.006l-4.999,-7.011l-5,7.011l0,54.456l9.999,0l0,-54.456Z" style="fill:#fff;"/><path d="M133.282,174.038l-4.999,7.011l-5,-7.011l0,-61.007l9.999,0l0,61.007Z" style="fill:#fff;"/></g></g></g></svg>