<svg width="512" height="514" xmlns="http://www.w3.org/2000/svg" xmlns:xlink="http://www.w3.org/1999/xlink" overflow="hidden"><defs><clipPath id="clip0"><rect x="-688" y="70" width="512" height="514"/></clipPath><clipPath id="clip1"><path d="M-688 327C-688 185.615-573.385 71-432 71-290.615 71-176 185.615-176 327-176 468.385-290.615 583-432 583-573.385 583-688 468.385-688 327Z" fill-rule="evenodd" clip-rule="evenodd"/></clipPath><clipPath id="clip2"><rect x="-688" y="71" width="512" height="512"/></clipPath><clipPath id="clip3"><rect x="-688" y="71" width="512" height="512"/></clipPath><linearGradient x1="-416.302" y1="-461.358" x2="-1285.9" y2="211.589" gradientUnits="userSpaceOnUse" spreadMethod="pad" id="fill4"><stop offset="0" stop-color="#68F7AA" stop-opacity="1"/><stop offset="1" stop-color="#19B5A2" stop-opacity="1"/></linearGradient></defs><g clip-path="url(#clip0)" transform="translate(688 -70)"><g clip-path="url(#clip1)"><g clip-path="url(#clip2)"><g clip-path="url(#clip3)"><path d="M-688 71-176 71-176 583-688 583Z" fill="#FFFFFF" fill-rule="nonzero" fill-opacity="1"/><path d="M-337.537 191.514C-368.794 247.64-400.924 294.916-433.513 332.517-466.424 300.465-501.588 255.435-540.153 196.008-512.758 158.315-477.226 133.37-440.224 132.04-408.002 130.894-369.483 154.371-337.537 191.514ZM-456.753 380.263-451.651 522C-544.461 513.701-604.771 439.966-589.693 323.724-586.154 296.395-578.615 269.799-568.134 245.588-568.134 245.588-513.019 330.832-456.753 380.263ZM-405.999 377.95-400.896 520.192C-308.96 505.335-254.028 427.428-277.38 312.561-282.758 286.103-292.641 260.7-305.374 237.681-338.012 293.486-371.706 340.441-405.999 377.95Z" fill="url(#fill4)" fill-rule="evenodd"/></g></g></g></g></svg>