<?xml version="1.0" encoding="UTF-8" standalone="no"?><!DOCTYPE svg PUBLIC "-//W3C//DTD SVG 1.1//EN" "http://www.w3.org/Graphics/SVG/1.1/DTD/svg11.dtd"><svg width="100%" height="100%" viewBox="0 0 834 834" version="1.1" xmlns="http://www.w3.org/2000/svg" xmlns:xlink="http://www.w3.org/1999/xlink" xml:space="preserve" xmlns:serif="http://www.serif.com/" style="fill-rule:evenodd;clip-rule:evenodd;stroke-linejoin:round;stroke-miterlimit:2;"><rect id="YSL-Icon" serif:id="YSL Icon" x="0" y="0" width="833.333" height="833.333" style="fill:none;"/><clipPath id="_clip1"><rect x="0" y="0" width="833.333" height="833.333"/></clipPath><g clip-path="url(#_clip1)"><path d="M712.901,125.484c-162.618,-162.618 -426.674,-162.701 -589.375,0c-162.618,162.618 -162.618,426.758 -0,589.375c162.701,162.702 426.757,162.702 589.375,0c162.701,-162.617 162.618,-426.674 0,-589.375Zm-557.952,31.507c145.281,-145.281 381.165,-145.281 526.445,-0c145.281,145.281 145.281,381.164 0,526.528c-145.28,145.281 -381.164,145.281 -526.528,0c-145.198,-145.364 -145.198,-381.247 0.083,-526.528Z" style="fill:url(#_Radial2);fill-rule:nonzero;"/><path d="M798.003,420.214c-0,-209.545 -170.12,-379.664 -379.748,-379.664c-209.544,-0 -379.664,170.119 -379.664,379.664c0,209.544 170.12,379.747 379.664,379.747c209.628,-0.083 379.748,-170.203 379.748,-379.747Zm-379.748,372.245c-205.46,0 -372.246,-166.785 -372.246,-372.245c0,-205.461 166.869,-372.246 372.246,-372.246c205.544,-0 372.329,166.785 372.329,372.246c0,205.46 -166.785,372.245 -372.329,372.245Z" style="fill:url(#_Radial3);fill-rule:nonzero;"/><g><path d="M353.465,331.601l195.417,-84.5l-293.5,-72.834l98.083,157.334Z" style="fill:url(#_Linear4);fill-rule:nonzero;"/><path d="M433.132,459.684l-79.667,-128.083l195.417,-84.5l-115.75,212.583Z" style="fill:url(#_Linear5);fill-rule:nonzero;"/><path d="M393.215,533.017l-142.833,-228.916l39.5,219.25l103.333,9.666Z" style="fill:url(#_Linear6);fill-rule:nonzero;"/><path d="M393.215,533.017l-103.333,-9.666l27,150.083l76.333,-140.417Z" style="fill:url(#_Linear7);fill-rule:nonzero;"/><path d="M621.715,526.017l0,-260.833l-115.417,212.167l115.417,48.666Z" style="fill:url(#_Linear8);fill-rule:nonzero;"/><path d="M621.715,526.017l-115.417,-48.666l-106.583,196.083l222,-147.417Z" style="fill:url(#_Linear9);fill-rule:nonzero;"/></g></g><defs><radialGradient id="_Radial2" cx="0" cy="0" r="1" gradientUnits="userSpaceOnUse" gradientTransform="matrix(833.671,833.671,833.671,-833.671,1.37264,3.331)"><stop offset="0" style="stop-color:#fd896f;stop-opacity:1"/><stop offset="0.5" style="stop-color:#f37ad1;stop-opacity:1"/><stop offset="1" style="stop-color:#62eef3;stop-opacity:1"/></radialGradient><radialGradient id="_Radial3" cx="0" cy="0" r="1" gradientUnits="userSpaceOnUse" gradientTransform="matrix(759.369,759.369,759.369,-759.369,38.6062,40.5488)"><stop offset="0" style="stop-color:#62eef3;stop-opacity:1"/><stop offset="1" style="stop-color:#f37ad1;stop-opacity:1"/></radialGradient><linearGradient id="_Linear4" x1="0" y1="0" x2="1" y2="0" gradientUnits="userSpaceOnUse" gradientTransform="matrix(259.786,134.891,-134.891,259.786,249.872,184.85)"><stop offset="0" style="stop-color:#62eef3;stop-opacity:1"/><stop offset="1" style="stop-color:#f37ad1;stop-opacity:1"/></linearGradient><linearGradient id="_Linear5" x1="0" y1="0" x2="1" y2="0" gradientUnits="userSpaceOnUse" gradientTransform="matrix(8.9015,158.674,-158.674,8.9015,451.543,299.445)"><stop offset="0" style="stop-color:#8883fa;stop-opacity:1"/><stop offset="1" style="stop-color:#f37ad1;stop-opacity:1"/></linearGradient><linearGradient id="_Linear6" x1="0" y1="0" x2="1" y2="0" gradientUnits="userSpaceOnUse" gradientTransform="matrix(133.22,175.923,-175.923,133.22,239.218,372.845)"><stop offset="0" style="stop-color:#8883fa;stop-opacity:1"/><stop offset="1" style="stop-color:#f37ad1;stop-opacity:1"/></linearGradient><linearGradient id="_Linear7" x1="0" y1="0" x2="1" y2="0" gradientUnits="userSpaceOnUse" gradientTransform="matrix(94.6023,115.448,-115.448,94.6023,309.169,547.232)"><stop offset="0" style="stop-color:#8883fa;stop-opacity:1"/><stop offset="1" style="stop-color:#f37ad1;stop-opacity:1"/></linearGradient><linearGradient id="_Linear8" x1="0" y1="0" x2="1" y2="0" gradientUnits="userSpaceOnUse" gradientTransform="matrix(-115.436,128.721,-128.721,-115.436,645.092,369.537)"><stop offset="0" style="stop-color:#f37ad1;stop-opacity:1"/><stop offset="1" style="stop-color:#8883fa;stop-opacity:1"/></linearGradient><linearGradient id="_Linear9" x1="0" y1="0" x2="1" y2="0" gradientUnits="userSpaceOnUse" gradientTransform="matrix(-183.046,79.8337,-79.8337,-183.046,608.872,507.43)"><stop offset="0" style="stop-color:#f37ad1;stop-opacity:1"/><stop offset="1" style="stop-color:#fd896f;stop-opacity:1"/></linearGradient></defs></svg>