<svg width="940" height="940" xmlns="http://www.w3.org/2000/svg" xmlns:xlink="http://www.w3.org/1999/xlink" overflow="hidden"><defs><clipPath id="clip0"><rect x="-2365" y="673" width="940" height="940"/></clipPath><clipPath id="clip1"><rect x="-2363" y="677" width="938" height="934"/></clipPath><clipPath id="clip2"><rect x="-2363" y="677" width="938" height="934"/></clipPath><clipPath id="clip3"><rect x="-2363" y="677" width="938" height="934"/></clipPath></defs><g clip-path="url(#clip0)" transform="translate(2365 -673)"><path d="M-2306.5 1144C-2306.5 916.183-2121.82 731.5-1894 731.5-1666.18 731.5-1481.5 916.183-1481.5 1144-1481.5 1371.82-1666.18 1556.5-1894 1556.5-2121.82 1556.5-2306.5 1371.82-2306.5 1144Z" stroke="#FFFFFF" stroke-width="4.58333" stroke-linecap="butt" stroke-linejoin="miter" stroke-miterlimit="8" stroke-opacity="1" fill="#FFFFFF" fill-rule="evenodd" fill-opacity="1"/><g clip-path="url(#clip1)"><g clip-path="url(#clip2)"><g clip-path="url(#clip3)"><path d="M466.126 37.9891C230.024 37.9891 37.9891 230.024 37.9891 466.126 37.9891 702.228 230.024 894.262 466.126 894.262 702.228 894.262 894.262 702.228 894.262 466.126 894.262 230.024 702.228 37.9891 466.126 37.9891ZM466.126 823.603C268.963 823.603 108.649 663.289 108.649 466.126 108.649 268.963 268.963 108.649 466.126 108.649 663.289 108.649 823.603 268.963 823.603 466.126 823.603 663.289 663.289 823.603 466.126 823.603Z" fill="#231F20" fill-rule="nonzero" fill-opacity="1" transform="matrix(1 0 0 1.00075 -2363 678.093)"/><path d="M803.469 466.126C803.469 652.435 652.435 803.469 466.126 803.469 279.816 803.469 128.783 652.435 128.783 466.126 128.783 279.816 279.816 128.783 466.126 128.783 652.435 128.783 803.469 279.816 803.469 466.126Z" fill="#F4B728" fill-rule="nonzero" fill-opacity="1" transform="matrix(1 0 0 1.00075 -2363 678.093)"/><path d="M313.41 599.277 313.41 664.619 430.226 664.619 430.226 736.228 502.025 736.228 502.025 664.619 618.842 664.619 618.842 578.193 437.634 578.193 618.842 332.404 618.842 267.063 502.025 267.063 502.025 195.644 430.226 195.644 430.226 267.063 313.41 267.063 313.41 353.678 494.617 353.678Z" fill="#231F20" fill-rule="nonzero" fill-opacity="1" transform="matrix(1 0 0 1.00075 -2363 678.093)"/></g></g></g></g></svg>