<svg width="669" height="669" xmlns="http://www.w3.org/2000/svg" xmlns:xlink="http://www.w3.org/1999/xlink" overflow="hidden"><defs><clipPath id="clip0"><rect x="-854" y="141" width="669" height="669"/></clipPath><clipPath id="clip1"><rect x="-854" y="142" width="668" height="668"/></clipPath><clipPath id="clip2"><rect x="-854" y="142" width="668" height="668"/></clipPath></defs><g clip-path="url(#clip0)" transform="translate(854 -141)"><g clip-path="url(#clip1)"><g clip-path="url(#clip2)"><path d="M-1766.68 876.253C-1766.68 701.755-1625.22 560.297-1450.72 560.297-1276.22 560.297-1134.76 701.755-1134.76 876.253-1134.76 1050.75-1276.22 1192.21-1450.72 1192.21-1625.22 1192.21-1766.68 1050.75-1766.68 876.253Z" stroke="#FFFFFF" stroke-width="3.51063" stroke-linecap="butt" stroke-linejoin="miter" stroke-miterlimit="8" stroke-opacity="1" fill="#FFFFFF" fill-rule="evenodd" fill-opacity="1" transform="matrix(1.00002 0 0 1 931.215 -404.441)"/><path d="M357.04 29.0986C176.192 29.0986 29.0986 176.192 29.0986 357.04 29.0986 537.887 176.192 684.98 357.04 684.98 537.887 684.98 684.98 537.887 684.98 357.04 684.98 176.192 537.887 29.0986 357.04 29.0986ZM357.04 630.857C206.018 630.857 83.2221 508.061 83.2221 357.04 83.2221 206.018 206.018 83.2221 357.04 83.2221 508.061 83.2221 630.857 206.018 630.857 357.04 630.857 508.061 508.061 630.857 357.04 630.857Z" fill="#231F20" fill-rule="nonzero" fill-opacity="1" transform="matrix(1 0 0 1.00073 -878.777 114.948)"/><path d="M615.435 357.04C615.435 499.747 499.747 615.435 357.04 615.435 214.331 615.435 98.6442 499.747 98.6442 357.04 98.6442 214.331 214.331 98.6442 357.04 98.6442 499.747 98.6442 615.435 214.331 615.435 357.04Z" fill="#F4B728" fill-rule="nonzero" fill-opacity="1" transform="matrix(1 0 0 1.00073 -878.777 114.948)"/><path d="M240.063 459.029 240.063 509.08 329.541 509.08 329.541 563.93 384.537 563.93 384.537 509.08 474.016 509.08 474.016 442.88 335.215 442.88 474.016 254.612 474.016 204.563 384.537 204.563 384.537 149.858 329.541 149.858 329.541 204.563 240.063 204.563 240.063 270.908 378.863 270.908Z" fill="#231F20" fill-rule="nonzero" fill-opacity="1" transform="matrix(1 0 0 1.00073 -878.777 114.948)"/></g></g></g></svg>