<svg width="834" height="834" xmlns="http://www.w3.org/2000/svg" xmlns:xlink="http://www.w3.org/1999/xlink" overflow="hidden"><defs><clipPath id="clip0"><rect x="-2296" y="742" width="834" height="834"/></clipPath><clipPath id="clip1"><rect x="-2206" y="820" width="655" height="697"/></clipPath><clipPath id="clip2"><rect x="-2206" y="820" width="655" height="697"/></clipPath><clipPath id="clip3"><rect x="-2206" y="820" width="655" height="697"/></clipPath></defs><g clip-path="url(#clip0)" transform="translate(2296 -742)"><path d="M-2290.5 1161C-2290.5 933.182-2105.82 748.5-1878 748.5-1650.18 748.5-1465.5 933.182-1465.5 1161-1465.5 1388.82-1650.18 1573.5-1878 1573.5-2105.82 1573.5-2290.5 1388.82-2290.5 1161Z" stroke="#FFFFFF" stroke-width="4.58333" stroke-linecap="butt" stroke-linejoin="miter" stroke-miterlimit="8" stroke-opacity="1" fill="#FFFFFF" fill-rule="evenodd" fill-opacity="1"/><g clip-path="url(#clip1)"><g clip-path="url(#clip2)"><g clip-path="url(#clip3)"><path d="M452.699 72.9904C452.699 113.302 396.51 145.981 327.199 145.981 257.887 145.981 201.698 113.302 201.698 72.9904 201.698 32.6789 257.887-3.01216e-06 327.199-3.01216e-06 396.51-3.01216e-06 452.699 32.6789 452.699 72.9904Z" fill="#E6007A" fill-rule="nonzero" fill-opacity="1" transform="matrix(1.00071 0 0 1 -2205.95 821)"/><path d="M452.699 622.96C452.699 663.272 396.51 695.951 327.199 695.951 257.887 695.951 201.698 663.272 201.698 622.96 201.698 582.649 257.887 549.97 327.199 549.97 396.51 549.97 452.699 582.649 452.699 622.96Z" fill="#E6007A" fill-rule="nonzero" fill-opacity="1" transform="matrix(1.00071 0 0 1 -2205.95 821)"/><path d="M214.612 210.516C214.612 250.861 158.415 283.567 89.0927 283.567 19.7702 283.567-36.4268 250.861-36.4268 210.516-36.4268 170.171 19.7702 137.464 89.0927 137.464 158.415 137.464 214.612 170.171 214.612 210.516Z" fill="#E6007A" fill-rule="nonzero" fill-opacity="1" transform="matrix(0.500277 -0.865866 0.866479 0.499922 -2343.82 1003.4)"/><path d="M690.975 485.543C690.975 525.861 634.778 558.545 565.455 558.545 496.133 558.545 439.936 525.861 439.936 485.543 439.936 445.225 496.133 412.541 565.455 412.541 634.778 412.541 690.975 445.225 690.975 485.543Z" fill="#E6007A" fill-rule="nonzero" fill-opacity="1" transform="matrix(0.500277 -0.865866 0.866479 0.499922 -2343.82 1553.35)"/><path d="M162.144 485.543C162.144 554.866 129.438 611.063 89.0927 611.063 48.7477 611.063 16.0416 554.866 16.0416 485.543 16.0416 416.221 48.7477 360.023 89.0927 360.023 129.438 360.023 162.144 416.221 162.144 485.543Z" fill="#E6007A" fill-rule="nonzero" fill-opacity="1" transform="matrix(0.866479 -0.499923 0.500277 0.865866 -2436.92 930.581)"/><path d="M638.457 210.565C638.457 279.887 605.773 336.084 565.455 336.084 525.137 336.084 492.453 279.887 492.453 210.565 492.453 141.242 525.137 85.0453 565.455 85.0453 605.773 85.0453 638.457 141.242 638.457 210.565Z" fill="#E6007A" fill-rule="nonzero" fill-opacity="1" transform="matrix(0.866479 -0.499923 0.500277 0.865866 -2235.49 1131.88)"/></g></g></g></g></svg>