<svg width="834" height="834" xmlns="http://www.w3.org/2000/svg" xmlns:xlink="http://www.w3.org/1999/xlink" overflow="hidden"><defs><clipPath id="clip0"><rect x="-2296" y="742" width="834" height="834"/></clipPath><clipPath id="clip1"><rect x="-2227" y="843" width="701" height="701"/></clipPath><clipPath id="clip2"><rect x="-2227" y="843" width="701" height="701"/></clipPath><clipPath id="clip3"><rect x="-2227" y="843" width="701" height="701"/></clipPath></defs><g clip-path="url(#clip0)" transform="translate(2296 -742)"><path d="M-2290.5 1161C-2290.5 933.182-2105.82 748.5-1878 748.5-1650.18 748.5-1465.5 933.182-1465.5 1161-1465.5 1388.82-1650.18 1573.5-1878 1573.5-2105.82 1573.5-2290.5 1388.82-2290.5 1161Z" stroke="#FFFFFF" stroke-width="4.58333" stroke-linecap="butt" stroke-linejoin="miter" stroke-miterlimit="8" stroke-opacity="1" fill="#FFFFFF" fill-rule="evenodd" fill-opacity="1"/><g clip-path="url(#clip1)"><g clip-path="url(#clip2)"><g clip-path="url(#clip3)"><path d="M129.274 332.398C121.235 345.472 107.549 353.021 88.5239 354.797L88.5239 366.272 73.1896 367.87 73.1896 355.088C52.508 353.986 37.9058 346.071 29.9271 331.464 2.05318 280.653 71.201 164.478 74.169 159.571L81.0942 148.035 87.4753 159.877C117.12 214.928 153.635 292.742 129.274 332.398Z" fill="#24BC48" fill-rule="nonzero" fill-opacity="1" transform="matrix(1.02899 0 0 1 -2226 844)"/><path d="M223.164 354.052C218.257 361.967 210.155 366.692 198.927 367.982L198.927 391.488 189.781 392.403 189.781 379.641C188.736 379.577 187.692 379.518 186.654 379.394L186.654 368.224C174.441 367.305 165.789 362.338 160.877 353.434 144.064 322.692 182.993 256.225 187.445 248.741L193.03 239.535 198.125 249.047C216.046 282.372 238.202 329.562 223.164 354.052Z" fill="#239942" fill-rule="nonzero" fill-opacity="1" transform="matrix(1.02899 0 0 1 -2226 844)"/><path d="M671.644 405.661C671.337 408.3 670.969 410.937 670.541 413.576 669.056 423.39 667.078 433.09 664.709 442.602 664.036 445.487 663.299 448.305 662.439 451.071 661.825 453.544 661.093 455.918 660.35 458.372 656.693 470.582 652.33 482.57 647.282 494.274L630.652 493.968 595.244 493.289 555.291 492.553 424.271 490.08 384.259 489.283 357.008 488.788 310.372 459.144 296.561 450.309 289.502 445.827 254.382 422.509 258.987 416.677 314.078 347.668 344.746 304.702 393.84 261.741 424.509 249.469 436.786 255.608 473.603 298.564 492.014 329.232 504.287 347.643 522.698 323.099 547.248 298.549 565.659 292.415 584.07 298.549 608.615 335.37 639.283 366.04 658.08 388.992 671.644 405.661Z" fill="#0B6C96" fill-rule="nonzero" fill-opacity="1" transform="matrix(1.02899 0 0 1 -2226 844)"/><path d="M328.719 446.591 216.66 660.282 209.482 673.964C203.344 671.452 197.329 668.81 191.437 665.927 188 664.334 184.567 662.612 181.253 660.836 179.768 660.035 178.284 659.298 176.894 658.501 88.0938 610.446 23.1654 523.732 4.81857 421.126L2.4838 405.905C7.08904 404.738 12.1197 403.511 17.457 402.344 35.8517 398.298 54.4538 395.259 73.18 393.243L73.18 382.093 88.5143 381.786 88.5143 391.789C118.832 389.458 152.459 389.81 186.644 395.533L186.644 379.704 198.917 379.462 198.917 397.873C217.604 401.631 235.891 407.159 253.531 414.379 256.845 409.225 261.817 401.553 268.138 392.224L279.738 402.611C275.256 409.175 271.205 415.314 267.708 420.715 281.149 427.114 294.024 434.636 306.198 443.203 309.694 440.729 313.256 438.291 316.876 435.961L328.719 446.591Z" fill="#239942" fill-rule="nonzero" fill-opacity="1" transform="matrix(1.02899 0 0 1 -2226 844)"/><path d="M662.439 451.073C661.825 453.546 661.093 455.92 660.351 458.374 653.964 479.786 645.411 500.492 634.827 520.171 633.476 522.813 632.062 525.389 630.528 527.967 629.484 529.945 628.317 531.83 627.155 533.735 616.111 552.342 603.284 569.833 588.858 585.96 585.484 589.764 581.988 593.508 578.426 597.129 519.819 657.206 438.998 695.566 349.401 698.751 345.29 698.939 341.174 698.999 337.064 698.999 336.074 698.999 335.041 698.999 334.056 698.939 312.412 698.807 290.832 696.565 269.622 692.246 266.432 691.574 263.241 690.897 260.111 690.164 258.206 689.734 256.307 689.24 254.402 688.75 232.694 683.293 211.598 675.645 191.437 665.921 188 664.329 184.567 662.607 181.253 660.831L184.136 644.933 191.313 605.415 221.982 550.182 240.388 519.513 289.483 464.28 300.47 458.022 314.953 449.737 332.463 439.74 369.286 415.19 424.514 402.917 467.475 396.779 547.253 402.917 608.619 421.329 645.442 439.74 649.004 442.134 662.439 451.073Z" fill="#24BC48" fill-rule="nonzero" fill-opacity="1" transform="matrix(1.02899 0 0 1 -2226 844)"/><path d="M630.529 527.968C629.484 529.946 628.317 531.831 627.155 533.736 616.111 552.343 603.284 569.834 588.858 585.961 585.484 589.765 581.988 593.51 578.427 597.131 519.82 657.207 438.998 695.567 349.401 698.753 345.29 698.941 341.174 699 337.064 699 336.074 699 335.041 699 334.056 698.941 312.412 698.808 290.832 696.567 269.623 692.248 266.432 691.575 263.241 690.898 260.111 690.165L264.958 679.056 265.695 675.682 277.23 623.822 301.78 562.455 350.874 519.5 381.544 501.089 430.638 482.677 485.886 470.409 528.842 476.544 577.936 488.821 608.605 513.365 617.752 519.44 630.529 527.968Z" fill="#239942" fill-rule="nonzero" fill-opacity="1" transform="matrix(1.02899 0 0 1 -2226 844)"/><path d="M344.736 691.327 350.874 648.371 381.559 599.276 430.653 562.454 492.019 550.182 541.114 568.593 565.664 580.865 577.936 587.004 541.114 623.821 479.747 660.643 412.242 685.193 363.147 691.327 344.736 691.327Z" fill="#24BC48" fill-rule="nonzero" fill-opacity="1" transform="matrix(1.02899 0 0 1 -2226 844)"/><path d="M557.314 106.002C557.255 105.938 557.196 105.879 557.196 105.814 552.654 101.951 547.99 98.1422 543.261 94.4372L543.202 94.4372C542.756 94.0203 542.284 93.6305 541.792 93.2699 541.114 92.7751 540.441 92.2805 539.764 91.7364 538.28 90.94 536.756 90.2524 535.163 89.5896 529.383 87.1973 523.245 85.7863 517 85.4147 515.833 85.3553 514.665 85.291 513.497 85.291 510.372 85.2773 507.251 85.5455 504.173 86.0923 513.743 91.9021 523.002 98.2111 531.909 104.993 537.34 107.693 542.116 111.548 545.902 116.286 547.683 117.82 549.399 119.294 551.116 120.887 557.744 126.719 564.067 132.852 570.205 139.238 625.315 197.113 659.243 275.412 659.243 361.452 659.243 366.972 659.12 372.498 658.813 378.018L658.813 378.082C658.629 381.762 658.387 385.383 658.08 389.004 657.774 392.318 657.462 395.633 657.091 398.898 655.722 410.555 653.714 422.13 651.076 433.568 650.463 436.452 649.726 439.276 648.994 442.101 648.375 444.49 647.702 446.885 647.015 449.219 642.74 464.541 637.272 479.504 630.657 493.971 628.184 499.615 625.503 505.14 622.618 510.542 621.021 513.544 619.428 516.551 617.771 519.445 616.91 520.984 616.05 522.517 615.13 524.05 604.25 542.65 591.524 560.105 577.145 576.152 573.767 579.956 570.22 583.701 566.589 587.382 510.926 643.9 434.644 680.05 350.019 683.344 345.725 683.587 341.427 683.651 337.069 683.651 336.272 683.651 335.476 683.651 334.674 683.587 313.121 683.493 291.634 681.194 270.548 676.726 268.95 676.419 267.293 676.048 265.7 675.682 262.237 674.886 258.889 674.084 255.51 673.165 242.3 669.703 229.324 665.399 216.664 660.279 208.874 657.148 201.138 653.65 193.654 649.891 190.463 648.298 187.272 646.641 184.141 644.944 182.484 644.088 180.886 643.228 179.294 642.307 96.8146 595.81 36.7337 513.985 19.7968 417.512 18.8767 412.481 18.1396 407.45 17.462 402.355 12.1246 403.523 7.07422 404.75 2.48876 405.917L4.82353 421.138C23.1703 523.744 88.0988 610.457 176.899 658.507 178.309 659.304 179.783 660.041 181.258 660.843 184.571 662.619 188.004 664.34 191.442 665.932 197.334 668.816 203.349 671.458 209.487 673.971 224.086 679.975 239.097 684.918 254.407 688.761 256.312 689.255 258.211 689.75 260.116 690.176 263.246 690.908 266.437 691.585 269.627 692.258 290.835 696.573 312.414 698.812 334.056 698.941 335.046 699 336.084 699 337.064 699 341.174 699 345.29 698.941 349.401 698.753 438.998 695.562 519.819 657.202 578.427 597.131 581.988 593.51 585.484 589.765 588.858 585.962 603.285 569.831 616.111 552.337 627.155 533.726 628.317 531.822 629.484 529.922 630.529 527.958 632.062 525.381 633.496 522.804 634.827 520.162 639.368 511.754 643.538 503.102 647.282 494.267 652.324 482.566 656.683 470.582 660.337 458.375 661.078 455.902 661.82 453.527 662.424 451.074 663.284 448.309 664.022 445.49 664.694 442.606 667.088 433.094 669.051 423.393 670.526 413.579 670.954 410.941 671.323 408.303 671.629 405.664 672.242 401.678 672.672 397.686 673.044 393.639 674.082 383.02 674.578 372.369 674.578 361.486 674.592 259.479 629.119 167.858 557.314 106.002Z" fill="#131414" fill-rule="nonzero" fill-opacity="1" transform="matrix(1.02899 0 0 1 -2226 844)"/><path d="M551.794 126.985C551.697 124.948 551.471 122.919 551.116 120.91 549.652 111.489 545.81 102.596 539.952 95.0745 539.64 94.6441 539.274 94.1544 538.908 93.724 538.843 93.6646 538.784 93.6004 538.784 93.541 537.617 92.1906 536.449 90.8402 535.163 89.6135 531.291 85.7477 526.865 82.4802 522.03 79.9182 521.999 79.8821 521.954 79.8592 521.907 79.8539 521.783 79.6709 521.541 79.6115 521.353 79.4878 513.247 75.25 504.233 73.0433 495.086 73.0573 491.961 73.0443 488.84 73.3108 485.762 73.8537 475.083 75.6343 465.135 80.4325 457.093 87.6819 449.052 94.9314 443.252 104.33 440.377 114.768 437.502 125.207 437.673 136.25 440.869 146.594 444.066 156.938 450.154 166.152 458.417 173.15 466.679 180.147 476.77 184.634 487.499 186.084 498.23 187.533 509.15 185.883 518.972 181.329 528.795 176.773 537.11 169.505 542.935 160.379 548.761 151.253 551.856 140.651 551.853 129.824 551.853 128.889 551.853 127.969 551.794 126.985ZM495.086 171.231C484.101 171.231 473.565 166.867 465.796 159.099 458.028 151.331 453.664 140.795 453.664 129.809 453.664 118.823 458.028 108.287 465.796 100.519 473.565 92.7508 484.101 88.3867 495.086 88.3867 501.482 88.3568 507.794 89.8507 513.497 92.7446 518.93 95.4419 523.706 99.2944 527.491 104.033 532.349 110.128 535.388 117.47 536.257 125.216 537.126 132.962 535.792 140.795 532.406 147.815 529.021 154.835 523.722 160.758 517.12 164.9 510.518 169.043 502.88 171.237 495.086 171.231Z" fill="#131414" fill-rule="nonzero" fill-opacity="1" transform="matrix(1.02899 0 0 1 -2226 844)"/><path d="M319.083 452.912C314.723 455.919 310.437 459.052 306.222 462.311 301.988 458.996 297.63 455.88 293.272 452.912 228.007 408.848 150.994 402.101 88.5143 407.092 83.2956 407.523 78.1266 408.017 73.18 408.576 55.2376 410.588 37.4159 413.56 19.7917 417.48 14.4495 418.712 9.40403 419.953 4.81857 421.106L2.4838 405.905C7.08904 404.738 12.1197 403.511 17.457 402.344 35.8517 398.297 54.4538 395.259 73.18 393.242 78.1513 392.628 83.3056 392.139 88.5143 391.758 118.832 389.428 152.459 389.779 186.644 395.502 188.85 395.868 191.061 396.299 193.273 396.729L198.917 397.837C217.604 401.596 235.891 407.123 253.531 414.344 258.26 416.323 263.044 418.395 267.708 420.665 281.151 427.079 294.026 434.619 306.198 443.202 310.555 446.284 314.848 449.539 319.083 452.912Z" fill="#131414" fill-rule="nonzero" fill-opacity="1" transform="matrix(1.02899 0 0 1 -2226 844)"/><path d="M673.058 393.633C672.687 397.679 672.257 401.67 671.644 405.657 671.337 408.296 670.969 410.933 670.541 413.572 666.92 409.58 662.319 404.609 657.101 398.906 631.512 371.106 591.436 326.918 574.989 306.405 570.877 301.25 567.133 298.673 563.818 298.673 560.015 298.673 555.598 301.805 550.933 306.469 546.269 311.134 541.362 317.267 536.514 323.342 530.929 330.342 525.221 337.578 518.899 343.84 516.569 346.175 509.501 353.293 500.552 351.943 490.056 350.405 484.288 339.547 475.572 323.159 466.98 306.959 455.138 284.803 434.456 264.063 430.405 260.07 425.681 258.477 419.617 259.156 381.628 263.508 316.15 348.995 279.758 402.571 275.276 409.135 271.225 415.274 267.728 420.675 266.071 423.252 264.537 425.706 263.127 427.976L254.411 422.535 250.118 419.834C250.85 418.608 252.018 416.768 253.551 414.393 256.866 409.239 261.837 401.567 268.158 392.238 301.36 343.266 370.646 249.312 417.896 243.975 428.516 242.743 438.028 245.998 445.27 253.304 467.668 275.637 480.063 298.96 489.146 316.016 493.687 324.549 499.949 336.331 502.833 336.822 502.833 336.822 504.366 336.762 508.111 333.081 513.755 327.373 519.215 320.497 524.493 313.869 536.954 298.159 548.732 283.374 563.769 283.374L563.828 283.374C571.996 283.374 579.851 287.914 587.028 296.873 601.022 314.423 633.793 350.691 658.827 378.061L658.827 378.125C663.976 383.749 668.824 388.968 673.058 393.633Z" fill="#131414" fill-rule="nonzero" fill-opacity="1" transform="matrix(1.02899 0 0 1 -2226 844)"/><path d="M317.54 416.128 304.451 408.084C306.494 404.765 354.906 326.466 386.817 307.338L394.731 320.496C370.854 334.806 330.896 394.377 317.54 416.128Z" fill="#131414" fill-rule="nonzero" fill-opacity="1" transform="matrix(1.02899 0 0 1 -2226 844)"/><path d="M365.107 116.049 365.038 131.392 426.404 131.671 426.474 116.326 365.107 116.049Z" fill="#131414" fill-rule="nonzero" fill-opacity="1" transform="matrix(1.02899 0 0 1 -2226 844)"/><path d="M430.738 149.757 372.339 168.609 377.052 183.211 435.452 164.36 430.738 149.757Z" fill="#131414" fill-rule="nonzero" fill-opacity="1" transform="matrix(1.02899 0 0 1 -2226 844)"/><path d="M379.919 59.1377 372.483 72.5594 426.161 102.301 433.598 88.8796 379.919 59.1377Z" fill="#131414" fill-rule="nonzero" fill-opacity="1" transform="matrix(1.02899 0 0 1 -2226 844)"/><path d="M420.295 21.3573 408.39 31.0387 447.11 78.6487 459.014 68.9674 420.295 21.3573Z" fill="#131414" fill-rule="nonzero" fill-opacity="1" transform="matrix(1.02899 0 0 1 -2226 844)"/><path d="M480.062 0.175629 464.864 2.28461 473.298 63.0691 488.497 60.9602 480.062 0.175629Z" fill="#131414" fill-rule="nonzero" fill-opacity="1" transform="matrix(1.02899 0 0 1 -2226 844)"/><path d="M519.812-0.000155205 504.624 59.4574 519.49 63.2552 534.679 3.79764 519.812-0.000155205Z" fill="#131414" fill-rule="nonzero" fill-opacity="1" transform="matrix(1.02899 0 0 1 -2226 844)"/><path d="M568.361 20.7344 532.195 70.312 544.592 79.3549 580.758 29.7773 568.361 20.7344Z" fill="#131414" fill-rule="nonzero" fill-opacity="1" transform="matrix(1.02899 0 0 1 -2226 844)"/><path d="M622.613 510.539C613.924 504.129 604.777 498.363 595.244 493.29 562.913 475.941 526.918 466.532 490.232 465.838 453.547 465.145 417.223 473.189 384.259 489.303 314.235 523.607 263.979 592.276 255.505 673.162 254.956 678.316 254.585 683.549 254.402 688.749 256.307 689.243 258.206 689.738 260.111 690.163 263.241 690.895 266.432 691.573 269.622 692.245 269.746 687.032 270.053 681.858 270.543 676.723 279.011 587.982 341.278 514.773 424.271 490.1 456.527 480.486 490.584 478.547 523.722 484.441 556.86 490.333 588.161 503.893 615.124 524.037 619.235 527.105 623.287 530.36 627.155 533.733 628.317 531.829 629.484 529.93 630.528 527.966 632.062 525.388 633.496 522.811 634.827 520.169 630.899 516.796 626.784 513.606 622.613 510.539Z" fill="#131414" fill-rule="nonzero" fill-opacity="1" transform="matrix(1.02899 0 0 1 -2226 844)"/><path d="M577.14 576.142C550.87 556.275 518.822 545.548 485.886 545.596 406.781 545.596 341.669 606.355 334.669 683.605 334.201 688.207 333.976 692.83 333.997 697.456 333.987 697.951 334.007 698.447 334.056 698.94 335.046 698.999 336.084 698.999 337.064 698.999 341.174 698.999 345.29 698.94 349.401 698.752 349.351 698.325 349.331 697.896 349.342 697.465 349.342 692.678 349.584 687.953 350.014 683.353 357.112 614.68 415.372 560.931 485.886 560.931 514.921 560.893 543.204 570.163 566.584 587.38 570.722 590.394 574.677 593.654 578.426 597.139 581.988 593.519 585.484 589.774 588.858 585.97 585.124 582.495 581.213 579.213 577.14 576.142Z" fill="#131414" fill-rule="nonzero" fill-opacity="1" transform="matrix(1.02899 0 0 1 -2226 844)"/><path d="M651.086 433.582C600.937 402.103 542.841 385.605 483.632 386.029 424.424 386.454 366.569 403.782 316.876 435.976 313.256 438.307 309.694 440.76 306.198 443.218 302.943 445.548 299.693 447.942 296.561 450.336L293.247 452.914C234.641 499.184 193.035 565.952 179.289 642.297 178.368 647.633 177.571 653.033 176.894 658.498 178.304 659.294 179.778 660.03 181.253 660.832 184.567 662.608 188 664.329 191.437 665.922 191.991 660.585 192.728 655.183 193.649 649.905 205.921 573.729 247.408 507.286 306.198 462.302 307.607 461.258 308.957 460.215 310.372 459.171 313.256 457.024 316.14 454.937 319.083 452.914 322.278 450.766 325.469 448.619 328.719 446.591 376.493 416.598 431.856 400.908 488.263 401.376 544.671 401.843 599.765 418.45 647.035 449.233 651.575 452.117 655.998 455.169 660.35 458.375 661.093 455.901 661.835 453.527 662.439 451.074 663.299 448.308 664.036 445.489 664.709 442.605 660.232 439.473 655.751 436.467 651.086 433.582Z" fill="#131414" fill-rule="nonzero" fill-opacity="1" transform="matrix(1.02899 0 0 1 -2226 844)"/><path d="M88.5142 298.571 88.5142 407.093C83.2956 407.523 78.1265 408.018 73.1799 408.577L73.1799 298.571 88.5142 298.571Z" fill="#131414" fill-rule="nonzero" fill-opacity="1" transform="matrix(1.02899 0 0 1 -2226 844)"/><path d="M87.4803 159.877 81.0943 148.035 74.1691 159.571C71.2011 164.478 2.05821 280.653 29.9221 331.464 37.901 346.071 52.5032 353.986 73.1847 355.088 74.0454 355.153 74.9061 355.212 75.8262 355.212 76.8699 355.276 77.8493 355.276 78.8337 355.276 82.0724 355.305 85.3099 355.139 88.529 354.782 107.553 353.006 121.24 345.458 129.279 332.383 153.635 292.742 117.12 214.928 87.4803 159.877ZM116.215 324.346C110.937 332.874 101.87 337.909 88.5141 339.378 84.4185 339.832 80.2961 339.998 76.1774 339.873 75.1337 339.873 74.1543 339.809 73.1699 339.75 58.3846 338.76 48.6251 333.675 43.4064 324.098 25.8561 292.129 59.6114 217.44 80.476 179.392 118.347 252.546 130.376 301.27 116.215 324.346Z" fill="#131414" fill-rule="nonzero" fill-opacity="1" transform="matrix(1.02899 0 0 1 -2226 844)"/><path d="M198.927 332.942 186.654 332.942 186.654 402.901 198.927 402.901 198.927 332.942Z" fill="#131414" fill-rule="nonzero" fill-opacity="1" transform="matrix(1.02899 0 0 1 -2226 844)"/><path d="M198.13 249.047 193.035 239.535 187.445 248.741C182.993 256.225 144.064 322.692 160.877 353.434 165.789 362.338 174.441 367.285 186.654 368.224 187.667 368.401 188.693 368.483 189.72 368.472L191.561 368.472C194.025 368.497 196.488 368.332 198.927 367.977 210.155 366.687 218.257 361.962 223.164 354.048 238.202 329.562 216.046 282.372 198.13 249.047ZM212.672 347.607C209.972 351.901 205.49 354.666 198.927 355.709 195.982 356.165 193 356.331 190.023 356.205 188.855 356.141 187.687 356.081 186.649 356.017 179.284 355.22 174.372 352.4 171.671 347.548 161.777 329.632 180.08 287.961 192.54 264.763 213.959 306.68 220.775 334.475 212.672 347.607Z" fill="#131414" fill-rule="nonzero" fill-opacity="1" transform="matrix(1.02899 0 0 1 -2226 844)"/><path d="M543.281 94.472C543.281 94.472 527.991 82.3233 522.278 79.9836 516.564 77.644 516.569 89.9212 516.569 89.9212L534.98 96.06 543.281 94.472Z" fill="#131414" fill-rule="nonzero" fill-opacity="1" transform="matrix(1.02899 0 0 1 -2226 844)"/><path d="M495.087 175.839C520.507 175.839 541.115 155.231 541.115 129.811 541.115 104.391 520.507 83.7834 495.087 83.7834 469.666 83.7834 449.059 104.391 449.059 129.811 449.059 155.231 469.666 175.839 495.087 175.839Z" fill="#E07103" fill-rule="nonzero" fill-opacity="1" transform="matrix(1.02899 0 0 1 -2226 844)"/></g></g></g></g></svg>