<svg id="Слой_1" data-name="Слой 1" xmlns="http://www.w3.org/2000/svg" xmlns:xlink="http://www.w3.org/1999/xlink" viewBox="0 0 1000 1000"><defs><style>.cls-1{fill:url(#Безымянный_градиент_54);}.cls-2{fill:url(#Безымянный_градиент_54-2);}.cls-3{fill:url(#Безымянный_градиент_54-3);}.cls-4{fill:url(#Безымянный_градиент_54-4);}.cls-5{fill:url(#Безымянный_градиент_54-5);}.cls-6{fill:url(#Безымянный_градиент_54-6);}.cls-7{fill:url(#Безымянный_градиент_54-7);}.cls-8{fill:url(#Безымянный_градиент_54-8);}.cls-9{fill:url(#Безымянный_градиент_54-9);}</style><linearGradient id="Безымянный_градиент_54" x1="-93.13" y1="231.81" x2="759.84" y2="898.79" gradientUnits="userSpaceOnUse"><stop offset="0" stop-color="#009eff"/><stop offset="0.5" stop-color="#156ae9"/><stop offset="1" stop-color="#0b54e3"/></linearGradient><linearGradient id="Безымянный_градиент_54-2" x1="141.46" y1="-68.2" x2="994.43" y2="598.78" xlink:href="#Безымянный_градиент_54"/><linearGradient id="Безымянный_градиент_54-3" x1="-152.72" y1="308.02" x2="700.24" y2="975" xlink:href="#Безымянный_градиент_54"/><linearGradient id="Безымянный_градиент_54-4" x1="1.73" y1="110.5" x2="854.65" y2="777.45" xlink:href="#Безымянный_градиент_54"/><linearGradient id="Безымянный_градиент_54-5" x1="1.73" y1="110.5" x2="854.69" y2="777.48" xlink:href="#Безымянный_градиент_54"/><linearGradient id="Безымянный_градиент_54-6" x1="-136.63" y1="287.44" x2="716.34" y2="954.42" xlink:href="#Безымянный_градиент_54"/><linearGradient id="Безымянный_градиент_54-7" x1="98.89" y1="-13.76" x2="951.86" y2="653.22" xlink:href="#Безымянный_градиент_54"/><linearGradient id="Безымянный_градиент_54-8" x1="2.9" y1="109" x2="855.87" y2="775.98" xlink:href="#Безымянный_градиент_54"/><linearGradient id="Безымянный_градиент_54-9" x1="157.67" y1="-88.93" x2="1010.64" y2="578.05" xlink:href="#Безымянный_градиент_54"/></defs><g id="Group_2048" data-name="Group 2048"><path id="Path_2614-2" data-name="Path 2614-2" class="cls-1" d="M133.61,573l129.19-29.4,124.82-28.41c33.93-7.74,47.63-46.17,25.61-72.46a87.85,87.85,0,0,0-14.8-12.76Q345,389.6,291.37,349.49q-47.26-35.49-94.51-71a48.67,48.67,0,0,0-28.58-10.73c-24.78-.65-39.12,17.7-48.41,40.68-1.58,3.9-21.29,48.49-32.11,99.32-11.9,55.95-11.06,118.4-11,122.73.79,21.28,15.23,38.47,36.72,43A43.66,43.66,0,0,0,133.61,573Z"/></g><g id="Group_2048-2" data-name="Group 2048"><path id="Path_2614-2-2" data-name="Path 2614-2" class="cls-2" d="M869.36,566.74,739.57,540.09,614.18,514.35c-34.09-7-48.61-45.14-27.15-71.9a87.46,87.46,0,0,1,14.52-13.07q52.59-41.44,105.33-82.69,46.5-36.49,93-73a48.63,48.63,0,0,1,28.35-11.34c24.76-1.17,39.49,16.87,49.27,39.65,1.66,3.86,22.32,48,34.21,98.61,13.08,55.68,13.58,118.13,13.65,122.46-.34,21.3-14.4,38.79-35.79,43.8A43.55,43.55,0,0,1,869.36,566.74Z"/></g><g id="Group_2048-3" data-name="Group 2048"><path id="Path_2614-2-3" data-name="Path 2614-2" class="cls-3" d="M325.93,832.68l59.36-118.45,57.35-114.45c15.57-31.12-5.4-66.11-39.7-65.81a87.42,87.42,0,0,0-19.25,3.33Q318.61,553,253.56,568.89q-57.43,14-114.89,27.86A48.65,48.65,0,0,0,112.23,612c-16.25,18.73-11.18,41.46.66,63.24,2,3.69,23.93,47.24,56.31,87.88,35.66,44.73,84.41,83.76,87.77,86.49,16.94,12.91,39.39,12.68,56.56-1A43.7,43.7,0,0,0,325.93,832.68Z"/></g><circle class="cls-4" cx="500.1" cy="500.21" r="60.14"/><path class="cls-5" d="M500.37,11.41v35.8A449.25,449.25,0,0,1,678.6,84c111,47.67,196.88,135.74,241.7,248s43.23,235.21-4.45,346.26A453,453,0,0,1,503.72,952.33h-3.85a449.49,449.49,0,0,1-178.26-36.82C92.37,817.1-14.06,550.53,84.36,321.28a452.23,452.23,0,0,1,416-274.07l0-35.8m0-11.41C306.45,0,121.92,113.47,40.58,302.92-68.38,556.71,49,850.77,302.82,959.73a498.51,498.51,0,0,0,197,40.69l4.26,0a500.65,500.65,0,0,0,455.5-302.91c109-253.78-8.45-547.84-262.23-656.8A498.34,498.34,0,0,0,500.34,0Z"/><g id="Group_2048-4" data-name="Group 2048"><path id="Path_2614-2-4" data-name="Path 2614-2" class="cls-6" d="M653,843,597.62,722.58q-26.73-58.16-53.47-116.3c-14.55-31.62-55-37.12-76.18-10.17a87.76,87.76,0,0,0-9.44,17.11q-28.45,60.6-56.7,121.31-25,53.55-50.08,107.09a48.64,48.64,0,0,0-4.62,30.18,44.88,44.88,0,0,0,52.23,36.08c1-.19,2.05-.42,3.06-.68,15.73-4,31.53-7.82,47.31-11.7,13.59-3.35,27.22-6.57,40.78-10,7.35-1.87,14.5-2.75,22.08-.71,15.68,4.22,31.51,7.9,47.27,11.83q19.44,4.85,38.84,9.8a48.75,48.75,0,0,0,24.37,1c20.67-5.15,34.52-22.81,34.56-44.78A43.6,43.6,0,0,0,653,843ZM488.22,863.66c-15.92,3.66-31.71,7.85-47.56,11.8-15.23,3.79-30.37,8-45.7,11.21a23.68,23.68,0,0,1-27.85-26.92c1.53-8.69,5.8-16.13,9.37-23.89q22.89-49.77,46.07-99.4,28.41-61.1,56.94-122.13A42.65,42.65,0,0,1,484,607a19.1,19.1,0,0,1,12.19-7.36,4.86,4.86,0,0,1,5.8,3.69,4,4,0,0,1,.09.48,15.24,15.24,0,0,1,.05,2.24V727.18h.11c0,39.65-.13,79.29.09,118.94.05,9.83-5.1,15.45-14.14,17.53Z"/></g><g id="Group_2048-5" data-name="Group 2048"><path id="Path_2614-2-5" data-name="Path 2614-2" class="cls-7" d="M482.58,122.87l3.67,132.45q1.78,64,3.55,128c.95,34.79-32.85,57.62-63.8,42.84A87.17,87.17,0,0,1,410,415q-52.35-41.73-104.55-83.67-46.14-36.94-92.32-73.85a48.61,48.61,0,0,1-17.5-25c-6.8-23.84,7.4-42.29,27.35-57,3.38-2.5,41.66-32.69,88.2-55.81,51.23-25.45,111.92-40.19,116.11-41.25,20.82-4.53,41.06,5.18,50.82,24.86A43.66,43.66,0,0,1,482.58,122.87Z"/></g><g id="Group_2048-6" data-name="Group 2048"><path id="Path_2614-2-6" data-name="Path 2614-2" class="cls-8" d="M679.88,829.86l-60.32-118-58.27-114c-15.83-31,4.86-66.16,39.16-66.13A87.36,87.36,0,0,1,619.72,535q65.22,15.13,130.38,30.53Q807.66,579,865.22,592.41a48.67,48.67,0,0,1,26.57,15.05c16.39,18.59,11.51,41.36-.15,63.24-2,3.7-23.54,47.43-55.6,88.33-35.29,45-83.73,84.44-87.06,87.2-16.84,13-39.29,13-56.57-.56A43.8,43.8,0,0,1,679.88,829.86Z"/></g><g id="Group_2048-7" data-name="Group 2048"><path id="Path_2614-2-7" data-name="Path 2614-2" class="cls-9" d="M509.1,123.87l.17,132.5q.09,64,.17,128c.06,34.8,34.52,56.64,65,41a87.16,87.16,0,0,0,15.71-11.61q51.12-43.25,102.07-86.67,45.06-38.28,90.14-76.51A48.67,48.67,0,0,0,799.15,225c6.1-24-8.63-42.06-29-56.2-3.45-2.39-42.59-31.46-89.78-53.22-52-24-113-36.92-117.27-37.86-20.93-3.92-40.88,6.37-50.07,26.32A43.67,43.67,0,0,0,509.1,123.87Z"/></g></svg>