<svg width="834" height="848" xmlns="http://www.w3.org/2000/svg" xmlns:xlink="http://www.w3.org/1999/xlink" overflow="hidden"><defs><clipPath id="clip0"><rect x="-2296" y="728" width="834" height="848"/></clipPath><clipPath id="clip1"><rect x="-2292" y="731" width="826" height="835"/></clipPath><clipPath id="clip2"><rect x="-2292" y="731" width="826" height="835"/></clipPath><clipPath id="clip3"><rect x="-2292" y="731" width="826" height="835"/></clipPath><clipPath id="clip4"><rect x="-2292" y="731" width="826" height="835"/></clipPath><clipPath id="clip5"><rect x="-2292" y="731" width="826" height="832"/></clipPath></defs><g clip-path="url(#clip0)" transform="translate(2296 -728)"><path d="M-2290.5 1161C-2290.5 933.182-2105.82 748.5-1878 748.5-1650.18 748.5-1465.5 933.182-1465.5 1161-1465.5 1388.82-1650.18 1573.5-1878 1573.5-2105.82 1573.5-2290.5 1388.82-2290.5 1161Z" stroke="#FFFFFF" stroke-width="4.58333" stroke-linecap="butt" stroke-linejoin="miter" stroke-miterlimit="8" stroke-opacity="1" fill="#FFFFFF" fill-rule="evenodd" fill-opacity="1"/><g clip-path="url(#clip1)"><g clip-path="url(#clip2)"><g clip-path="url(#clip3)"><g clip-path="url(#clip4)"><g clip-path="url(#clip5)"><path d="M465.673 754.502C469.242 754.502 810.862 754.502 810.862 754.502L810.862 852.318 860.4 852.318 860.4 803.516 910.041 803.516 910.041 902.486 860.4 902.486 860.4 951.813 515.318 951.813 515.318 902.486 465.254 902.486 465.673 754.502Z" fill="#E2AD78" fill-rule="nonzero" fill-opacity="1" transform="matrix(1.00186 0 0 1 -2570.39 493.273)"/><path d="M613.866 409.42 811.073 409.42 811.073 458.746 909.622 458.746 909.622 507.971 958.844 507.971 958.109 607.674 909.203 607.57 909.203 655.953 859.034 655.953 858.3 607.674 811.073 607.674 810.232 655.953 761.325 655.953 761.325 705.175 465.673 705.175 465.673 655.742 416.347 655.742 416.347 508.075 466.093 508.075 466.093 458.746 515.318 458.746 564.644 458.746 564.644 409.42Z" fill="#76403D" fill-rule="nonzero" fill-opacity="1" transform="matrix(1.00186 0 0 1 -2570.39 493.273)"/><path d="M613.762 360.197 761.429 360.197 761.429 409.524 613.762 409.524Z" fill="#BB6F50" fill-rule="nonzero" fill-opacity="1" transform="matrix(1.00186 0 0 1 -2570.39 493.273)"/><path d="M761.325 671.589 761.325 655.953 810.232 655.953 810.232 607.57 859.034 607.57 859.034 655.953 909.203 655.953 909.203 607.57 958.109 607.57 958.109 508.075 1015.42 508.075 1015.42 803.411 811.073 803.411 811.073 705.175 761.325 705.175 761.325 671.589" fill="#211E1F" fill-rule="nonzero" fill-opacity="1" transform="matrix(1.00186 0 0 1 -2570.39 493.273)"/><path d="M416.766 458.853 466.093 458.853 466.093 508.179 416.766 508.179Z" fill="#211E1F" fill-rule="nonzero" fill-opacity="1" transform="matrix(1.00186 0 0 1 -2570.39 493.273)"/><path d="M466.093 902.486 515.422 902.486 515.422 951.813 466.093 951.813Z" fill="#211E1F" fill-rule="nonzero" fill-opacity="1" transform="matrix(1.00186 0 0 1 -2570.39 493.273)"/><path d="M515.318 803.411 564.644 803.411 564.644 852.738 515.318 852.738Z" fill="#211E1F" fill-rule="nonzero" fill-opacity="1" transform="matrix(1.00186 0 0 1 -2570.39 493.273)"/><path d="M515.318 853.157 564.644 853.157 564.644 902.486 515.318 902.486Z" fill="#F2727A" fill-rule="nonzero" fill-opacity="1" transform="matrix(1.00186 0 0 1 -2570.39 493.273)"/><path d="M663.195 853.157 712.522 853.157 712.522 902.486 663.195 902.486Z" fill="#F2727A" fill-rule="nonzero" fill-opacity="1" transform="matrix(1.00186 0 0 1 -2570.39 493.273)"/><path d="M515.318 754.502 564.644 754.502 564.644 803.831 515.318 803.831Z" fill="#211E1F" fill-rule="nonzero" fill-opacity="1" transform="matrix(1.00186 0 0 1 -2570.39 493.273)"/><path d="M465.673 705.175 811.073 705.175 811.073 754.502 465.673 754.502Z" fill="#C48058" fill-rule="nonzero" fill-opacity="1" transform="matrix(1.00186 0 0 1 -2570.39 493.273)"/><path d="M515.318 557.193 663.195 557.193 663.195 606.52 515.318 606.52Z" fill="#BB6F50" fill-rule="nonzero" fill-opacity="1" transform="matrix(1.00186 0 0 1 -2570.39 493.273)"/><path d="M564.433 508.075 712.311 508.075 712.311 557.402 564.433 557.402Z" fill="#BB6F50" fill-rule="nonzero" fill-opacity="1" transform="matrix(1.00186 0 0 1 -2570.39 493.273)"/><path d="M663.195 458.746 761.744 458.746 761.744 508.075 663.195 508.075Z" fill="#BB6F50" fill-rule="nonzero" fill-opacity="1" transform="matrix(1.00186 0 0 1 -2570.39 493.273)"/><path d="M663.195 803.411 712.522 803.411 712.522 852.738 663.195 852.738Z" fill="#211E1F" fill-rule="nonzero" fill-opacity="1" transform="matrix(1.00186 0 0 1 -2570.39 493.273)"/><path d="M663.195 754.502 712.522 754.502 712.522 803.831 663.195 803.831Z" fill="#211E1F" fill-rule="nonzero" fill-opacity="1" transform="matrix(1.00186 0 0 1 -2570.39 493.273)"/><path d="M515.318 951.709 860.715 951.709 860.715 1001.03 515.318 1001.03Z" fill="#211E1F" fill-rule="nonzero" fill-opacity="1" transform="matrix(1.00186 0 0 1 -2570.39 493.273)"/><path d="M465.988 409.42 515.318 409.42 515.318 458.746 465.988 458.746Z" fill="#211E1F" fill-rule="nonzero" fill-opacity="1" transform="matrix(1.00186 0 0 1 -2570.39 493.273)"/><path d="M515.318 409.42 564.644 409.42 564.644 458.746 515.318 458.746Z" fill="#211E1F" fill-rule="nonzero" fill-opacity="1" transform="matrix(1.00186 0 0 1 -2570.39 493.273)"/><path d="M564.644 409.42 613.97 409.42 613.97 458.746 564.644 458.746Z" fill="#211E1F" fill-rule="nonzero" fill-opacity="1" transform="matrix(1.00186 0 0 1 -2570.39 493.273)"/><path d="M564.644 360.197 613.97 360.197 613.97 409.524 564.644 409.524Z" fill="#211E1F" fill-rule="nonzero" fill-opacity="1" transform="matrix(1.00186 0 0 1 -2570.39 493.273)"/><path d="M564.644 310.868 613.97 310.868 613.97 360.197 564.644 360.197Z" fill="#211E1F" fill-rule="nonzero" fill-opacity="1" transform="matrix(1.00186 0 0 1 -2570.39 493.273)"/><path d="M613.866 310.868 663.195 310.868 663.195 360.197 613.866 360.197Z" fill="#211E1F" fill-rule="nonzero" fill-opacity="1" transform="matrix(1.00186 0 0 1 -2570.39 493.273)"/><path d="M663.195 360.197 712.522 360.197 712.522 409.524 663.195 409.524Z" fill="#211E1F" fill-rule="nonzero" fill-opacity="1" transform="matrix(1.00186 0 0 1 -2570.39 493.273)"/><path d="M712.418 310.868 761.744 310.868 761.744 360.197 712.418 360.197Z" fill="#211E1F" fill-rule="nonzero" fill-opacity="1" transform="matrix(1.00186 0 0 1 -2570.39 493.273)"/><path d="M761.744 310.868 811.073 310.868 811.073 360.197 761.744 360.197Z" fill="#211E1F" fill-rule="nonzero" fill-opacity="1" transform="matrix(1.00186 0 0 1 -2570.39 493.273)"/><path d="M761.744 360.197 811.073 360.197 811.073 409.524 761.744 409.524Z" fill="#211E1F" fill-rule="nonzero" fill-opacity="1" transform="matrix(1.00186 0 0 1 -2570.39 493.273)"/><path d="M811.073 409.42 860.4 409.42 860.4 458.746 811.073 458.746Z" fill="#211E1F" fill-rule="nonzero" fill-opacity="1" transform="matrix(1.00186 0 0 1 -2570.39 493.273)"/><path d="M860.296 409.42 909.622 409.42 909.622 458.746 860.296 458.746Z" fill="#211E1F" fill-rule="nonzero" fill-opacity="1" transform="matrix(1.00186 0 0 1 -2570.39 493.273)"/><path d="M909.622 458.746 958.951 458.746 958.951 508.075 909.622 508.075Z" fill="#211E1F" fill-rule="nonzero" fill-opacity="1" transform="matrix(1.00186 0 0 1 -2570.39 493.273)"/><path d="M860.715 902.486 910.041 902.486 910.041 951.813 860.715 951.813Z" fill="#211E1F" fill-rule="nonzero" fill-opacity="1" transform="matrix(1.00186 0 0 1 -2570.39 493.273)"/><path d="M761.325 902.486 860.296 902.486 860.296 951.813 761.325 951.813Z" fill="#C48058" fill-rule="nonzero" fill-opacity="1" transform="matrix(1.00186 0 0 1 -2570.39 493.273)"/><path d="M811.073 802.992 860.4 802.992 860.4 852.318 811.073 852.318Z" fill="#211E1F" fill-rule="nonzero" fill-opacity="1" transform="matrix(1.00186 0 0 1 -2570.39 493.273)"/><path d="M910.041 803.411 959.37 803.411 959.37 902.379 910.041 902.379Z" fill="#211E1F" fill-rule="nonzero" fill-opacity="1" transform="matrix(1.00186 0 0 1 -2570.39 493.273)"/><path d="M367.333 508.075 416.347 508.075 416.347 704.756 367.333 704.756Z" fill="#211E1F" fill-rule="nonzero" fill-opacity="1" transform="matrix(1.00186 0 0 1 -2570.39 493.273)"/><path d="M416.347 655.742 465.358 655.742 465.358 902.379 416.347 902.379Z" fill="#211E1F" fill-rule="nonzero" fill-opacity="1" transform="matrix(1.00186 0 0 1 -2570.39 493.273)"/></g></g></g></g></g></g></svg>