<svg width="834" height="834" xmlns="http://www.w3.org/2000/svg" xmlns:xlink="http://www.w3.org/1999/xlink" overflow="hidden"><defs><clipPath id="clip0"><rect x="-2296" y="742" width="834" height="834"/></clipPath><clipPath id="clip1"><rect x="-2117" y="910" width="465" height="526"/></clipPath><clipPath id="clip2"><rect x="-2117" y="910" width="465" height="526"/></clipPath><clipPath id="clip3"><rect x="-2117" y="910" width="465" height="526"/></clipPath></defs><g clip-path="url(#clip0)" transform="translate(2296 -742)"><path d="M-2290.5 1161C-2290.5 933.182-2105.82 748.5-1878 748.5-1650.18 748.5-1465.5 933.182-1465.5 1161-1465.5 1388.82-1650.18 1573.5-1878 1573.5-2105.82 1573.5-2290.5 1388.82-2290.5 1161Z" stroke="#FFFFFF" stroke-width="4.58333" stroke-linecap="butt" stroke-linejoin="miter" stroke-miterlimit="8" stroke-opacity="1" fill="#FFFFFF" fill-rule="evenodd" fill-opacity="1"/><g clip-path="url(#clip1)"><g clip-path="url(#clip2)"><g clip-path="url(#clip3)"><path d="M458.757 303.372 458.757 340.368C458.757 443.959 307.811 503.153 261.936 517.952L245.657 523.871 245.657 460.237 254.536 457.277C327.049 430.64 399.563 384.764 399.563 340.368L399.563 303.372 458.757 303.372ZM229.379 0 291.533 19.2382 291.533 84.3521 229.379 65.1139 224.939 66.5938 224.939 213.1 290.053 213.1 290.053 273.774 224.939 273.774 224.939 522.391 207.181 516.472C199.781 513.512 186.463 509.072 170.184 501.673L162.785 498.713 162.785 19.2382 229.379 0ZM145.026 26.6375 145.026 91.7514 60.6743 116.909 60.6743 213.1 145.026 213.1 145.026 492.794 125.788 483.915C68.0736 454.318 0 405.482 0 335.929L0 303.372 60.6743 303.372 60.6743 335.929C60.6743 350.727 68.0736 365.526 82.8723 380.324L82.8723 273.774 0 273.774 0 69.5535 145.026 26.6375ZM309.291 25.1576 457.277 71.0334 457.277 275.254 369.965 275.254 369.965 364.046C369.965 364.046 350.727 389.204 309.291 409.922 309.291 398.083 309.291 219.02 309.291 109.51L309.291 25.1576ZM371.445 108.03 371.445 213.1 398.083 213.1 398.083 116.909 371.445 108.03Z" fill="#050101" fill-rule="evenodd" fill-opacity="1" transform="matrix(1 0 0 1.00215 -2113.38 911)"/></g></g></g></g></svg>