<svg width="835" height="834" xmlns="http://www.w3.org/2000/svg" xmlns:xlink="http://www.w3.org/1999/xlink" overflow="hidden"><defs><clipPath id="clip0"><rect x="-2310" y="728" width="835" height="834"/></clipPath><clipPath id="clip1"><rect x="-2209" y="838" width="629" height="629"/></clipPath><clipPath id="clip2"><rect x="-2209" y="838" width="629" height="629"/></clipPath><clipPath id="clip3"><rect x="-2209" y="838" width="629" height="629"/></clipPath></defs><g clip-path="url(#clip0)" transform="translate(2310 -728)"><path d="M-2306.5 1144C-2306.5 916.183-2121.82 731.5-1894 731.5-1666.18 731.5-1481.5 916.183-1481.5 1144-1481.5 1371.82-1666.18 1556.5-1894 1556.5-2121.82 1556.5-2306.5 1371.82-2306.5 1144Z" stroke="#FFFFFF" stroke-width="4.58333" stroke-linecap="butt" stroke-linejoin="miter" stroke-miterlimit="8" stroke-opacity="1" fill="#FFFFFF" fill-rule="evenodd" fill-opacity="1"/><g clip-path="url(#clip1)"><g clip-path="url(#clip2)"><g clip-path="url(#clip3)"><path d="M-1695.62 1152C-1647.83 1101.18-1621.66 1035.63-1621.66 965.478-1621.66 947.069-1623.73 928.057-1627.8 908.988L-1632.04 889.153-1651.87 884.911C-1670.93 880.84-1689.94 878.772-1708.38 878.772-1776.56 878.772-1840.38 903.5-1890.57 948.754-1891.53 949.65-1894.48 952.337-1895 952.817-1945.84 904.966-2011.43 878.764-2081.62 878.764-2100.02 878.764-2119.03 880.832-2138.12 884.911L-2157.96 889.153-2162.2 908.988C-2166.27 928.081-2168.34 947.085-2168.34 965.47-2168.34 1035.63-2142.17 1101.17-2094.38 1151.99L-2094.39 1151.99C-2142.18 1202.82-2168.35 1268.36-2168.35 1338.51-2168.35 1356.92-2166.28 1375.94-2162.21 1395L-2157.97 1414.84-2138.14 1419.08C-2119.08 1423.15-2100.07 1425.22-2081.63 1425.22-2013.45 1425.22-1949.63 1400.49-1899.43 1355.24-1898.48 1354.35-1895.53 1351.66-1895.01 1351.17-1844.16 1399.03-1778.58 1425.23-1708.38 1425.23-1689.99 1425.23-1670.98 1423.16-1651.89 1419.08L-1632.05 1414.84-1627.82 1395C-1623.75 1375.91-1621.68 1356.91-1621.68 1338.52-1621.67 1268.37-1647.84 1202.83-1695.62 1152ZM-1684.27 1338.52C-1684.27 1345.96-1684.72 1353.57-1685.62 1361.28-1693.33 1362.17-1700.93 1362.63-1708.38 1362.63-1763.93 1362.63-1815.76 1341.31-1855.42 1302.44-1840 1278.37-1828.32 1252.13-1821.19 1224.4L-1881.81 1208.8C-1891.37 1245.93-1911.35 1279.8-1939.53 1307.09-1978.5 1342.98-2028.36 1362.62-2081.63 1362.62-2089.08 1362.62-2096.69 1362.17-2104.4 1361.28-2105.29 1353.57-2105.74 1345.96-2105.74 1338.51-2105.74 1279.82-2081.98 1225.26-2038.84 1184.85L-2005.94 1151.99-2038.84 1119.13C-2081.98 1078.73-2105.74 1024.16-2105.74 965.462-2105.74 958.028-2105.29 950.415-2104.39 942.705-2096.68 941.809-2089.07 941.353-2081.63 941.353-2026.08 941.353-1974.24 962.669-1934.58 1001.54-1950 1025.62-1961.69 1051.85-1968.82 1079.58L-1908.19 1095.18C-1898.64 1058.06-1878.66 1024.18-1850.47 996.891-1811.51 961-1761.65 941.361-1708.38 941.361-1700.93 941.361-1693.32 941.809-1685.61 942.705-1684.72 950.415-1684.27 958.02-1684.27 965.47-1684.27 1024.16-1708.03 1078.73-1751.17 1119.13L-1784.07 1151.99-1751.17 1184.85C-1708.03 1225.26-1684.27 1279.83-1684.27 1338.52Z" fill="#0050FF" fill-rule="nonzero" fill-opacity="1"/></g></g></g></g></svg>