<svg width="835" height="834" xmlns="http://www.w3.org/2000/svg" xmlns:xlink="http://www.w3.org/1999/xlink" overflow="hidden"><defs><clipPath id="clip0"><rect x="-2310" y="728" width="835" height="834"/></clipPath><clipPath id="clip1"><rect x="-2213" y="883" width="629" height="520"/></clipPath><clipPath id="clip2"><rect x="-2213" y="883" width="629" height="520"/></clipPath><clipPath id="clip3"><rect x="-2213" y="883" width="629" height="520"/></clipPath></defs><g clip-path="url(#clip0)" transform="translate(2310 -728)"><path d="M-2306.5 1144C-2306.5 916.183-2121.82 731.5-1894 731.5-1666.18 731.5-1481.5 916.183-1481.5 1144-1481.5 1371.82-1666.18 1556.5-1894 1556.5-2121.82 1556.5-2306.5 1371.82-2306.5 1144Z" stroke="#FFFFFF" stroke-width="4.58333" stroke-linecap="butt" stroke-linejoin="miter" stroke-miterlimit="8" stroke-opacity="1" fill="#FFFFFF" fill-rule="evenodd" fill-opacity="1"/><g clip-path="url(#clip1)"><g clip-path="url(#clip2)"><g clip-path="url(#clip3)"><path d="M535.943 0 626.698 0 437.83 187.004C369.433 254.689 258.54 254.689 190.094 187.004L1.15283 0 91.9811 0 235.472 142.056C278.973 184.93 348.841 184.93 392.342 142.056Z" fill="#23292F" fill-rule="nonzero" fill-opacity="1" transform="matrix(1.00012 0 0 1 -2212 883)"/><path d="M90.816 520 0 520 190.094 331.843C258.491 264.157 369.384 264.157 437.83 331.843L627.924 520 537.17 520 392.453 376.791C348.951 333.917 279.084 333.917 235.582 376.791Z" fill="#23292F" fill-rule="nonzero" fill-opacity="1" transform="matrix(1.00012 0 0 1 -2212 883)"/></g></g></g></g></svg>